<svg xmlns="http://www.w3.org/2000/svg" width="24" height="24" fill="none" viewBox="0 0 24 24"><path fill="#9292A9" fill-rule="evenodd" d="M5 3.75c-.69 0-1.25.56-1.25 1.25v10c0 .69.56 1.25 1.25 1.25h3a.75.75 0 0 1 .553.243l3.446 3.446 3.47-3.47A.75.75 0 0 1 16 16.25h3c.69 0 1.25-.56 1.25-1.25V5c0-.69-.56-1.25-1.25-1.25zm7.553 17.757-.023.023a.75.75 0 0 1-1.06 0l-3.782-3.78H5A2.75 2.75 0 0 1 2.25 15V5A2.75 2.75 0 0 1 5 2.25h14A2.75 2.75 0 0 1 21.75 5v10A2.75 2.75 0 0 1 19 17.75h-2.69z"/><path fill="#9292A9" fill-rule="evenodd" d="M7.25 12a.75.75 0 0 1 .75-.75h8a.75.75 0 0 1 0 1.5H8a.75.75 0 0 1-.75-.75m0-4A.75.75 0 0 1 8 7.25h8a.75.75 0 0 1 0 1.5H8A.75.75 0 0 1 7.25 8"/></svg>