<svg xmlns="http://www.w3.org/2000/svg" width="7" height="15" fill="none" viewBox="0 0 7 15"><path fill="#7D98B2" fill-rule="evenodd" d="M4.5 13.254A1.247 1.247 0 0 1 5.749 12a1.25 1.25 0 0 1 .001 2.5 1.25 1.25 0 0 1-1.25-1.246m.689-.004H4.5v.004m0-6A1.247 1.247 0 0 1 5.749 6a1.25 1.25 0 0 1 .001 2.5A1.25 1.25 0 0 1 4.5 7.254m.689-.004H4.5v.004m0-6A1.247 1.247 0 0 1 5.749 0a1.25 1.25 0 0 1 .001 2.5A1.25 1.25 0 0 1 4.5 1.254m.689-.004H4.5v.004m-4.5 12A1.247 1.247 0 0 1 1.247 12a1.25 1.25 0 1 1 .003 2.5A1.25 1.25 0 0 1 0 13.254m.688-.004H0v.004m0-6A1.247 1.247 0 0 1 1.247 6a1.25 1.25 0 1 1 .003 2.5A1.25 1.25 0 0 1 0 7.254m.688-.004H0v.004m0-6A1.247 1.247 0 0 1 1.247 0a1.25 1.25 0 1 1 .003 2.5A1.25 1.25 0 0 1 0 1.254m.688-.004H0v.004" clip-rule="evenodd"/></svg>