<svg xmlns="http://www.w3.org/2000/svg" width="25" height="24" fill="none" viewBox="0 0 25 24"><path fill="#7D98B2" fill-rule="evenodd" d="M5.3.5A4.8 4.8 0 0 1 .5 5.3a4.8 4.8 0 0 1 4.8 4.8 4.8 4.8 0 0 1 4.8-4.8A4.8 4.8 0 0 1 5.3.5" clip-rule="evenodd"/><path fill="#7D98B2" d="m4.8 10.1-.005-.221A4.3 4.3 0 0 0 .722 5.806L.5 5.8l-.1-.01a.5.5 0 0 1 .1-.99l.222-.005A4.3 4.3 0 0 0 4.8.5a.5.5 0 0 1 .99-.1l.01.1.006.222A4.3 4.3 0 0 0 10.1 4.8a.5.5 0 0 1 0 1 4.3 4.3 0 0 0-4.3 4.3l-.01.101a.501.501 0 0 1-.98 0zm.5-7.352A5.32 5.32 0 0 1 2.748 5.3 5.32 5.32 0 0 1 5.3 7.852 5.32 5.32 0 0 1 7.852 5.3 5.32 5.32 0 0 1 5.3 2.748"/><path fill="#7D98B2" fill-rule="evenodd" d="M18.5 14.9a6 6 0 0 0-6-6 6 6 0 0 0 6-6 6 6 0 0 0 6 6 6 6 0 0 0-6 6" clip-rule="evenodd"/><path fill="#7D98B2" d="m18 14.9-.007-.283a5.5 5.5 0 0 0-5.21-5.21L12.5 9.4l-.1-.01a.5.5 0 0 1 .1-.99l.283-.007A5.5 5.5 0 0 0 18 2.9a.5.5 0 0 1 .99-.1l.01.1.007.283A5.5 5.5 0 0 0 24.5 8.4a.5.5 0 0 1 0 1 5.5 5.5 0 0 0-5.5 5.5l-.01.1a.5.5 0 0 1-.98 0zm.5-9.497A6.52 6.52 0 0 1 15.003 8.9a6.52 6.52 0 0 1 3.497 3.497A6.52 6.52 0 0 1 21.997 8.9 6.52 6.52 0 0 1 18.5 5.403"/><path fill="#7D98B2" fill-rule="evenodd" d="M10.1 13.1a4.8 4.8 0 0 1-4.8 4.8 4.8 4.8 0 0 1 4.8 4.8 4.8 4.8 0 0 1 4.8-4.8 4.8 4.8 0 0 1-4.8-4.8" clip-rule="evenodd"/><path fill="#7D98B2" d="m9.6 22.7-.005-.22a4.3 4.3 0 0 0-4.073-4.074L5.3 18.4l-.1-.01a.5.5 0 0 1 .1-.99l.222-.005A4.3 4.3 0 0 0 9.6 13.1a.5.5 0 0 1 .99-.1l.01.1.006.222a4.3 4.3 0 0 0 4.295 4.078.5.5 0 0 1 0 1 4.3 4.3 0 0 0-4.3 4.3l-.01.101a.5.5 0 0 1-.98 0zm.5-7.352A5.32 5.32 0 0 1 7.548 17.9a5.32 5.32 0 0 1 2.552 2.552 5.32 5.32 0 0 1 2.552-2.552 5.32 5.32 0 0 1-2.552-2.552"/></svg>