<svg xmlns="http://www.w3.org/2000/svg" width="24" height="24" fill="none" viewBox="0 0 24 24"><path stroke="#7D98B2" stroke-linecap="round" stroke-linejoin="round" stroke-width="1.25" d="M14 19h-3a2 2 0 0 1-2-2v-5.5a2 2 0 0 1 2-2h8a2 2 0 0 1 2 2V17a2 2 0 0 1-2 2h-1v3z" clip-rule="evenodd"/><path stroke="#7D98B2" stroke-linecap="round" stroke-linejoin="round" stroke-width="1.25" d="M17.609 9.5V5.435A2.435 2.435 0 0 0 15.174 3H5.435A2.435 2.435 0 0 0 3 5.435v6.696a2.435 2.435 0 0 0 2.435 2.435h1.217l-1 3.434L9 15.435"/></svg>