<svg xmlns="http://www.w3.org/2000/svg" width="520" height="240" fill="none" viewBox="0 0 520 240"><rect width="520" height="240" fill="#13007D" rx="19.28"/><rect width="277.15" height="9.64" x="28.92" y="178.42" fill="#fff" rx="4.82"/><path fill="#fff" d="M419.388 175.375q-.425 0-.713-.193-.27-.212-.444-.617l-5.186-11.741q-.155-.406-.077-.694a.74.74 0 0 1 .308-.444q.251-.174.598-.173.444 0 .675.192.232.194.385.579l4.859 11.259h-.713l4.82-11.278q.173-.367.404-.56.251-.192.675-.192.348 0 .559.173a.67.67 0 0 1 .29.444q.058.289-.116.694l-5.167 11.741q-.174.405-.444.617-.27.193-.713.193m9.999.039q-.984 0-1.774-.386a3.1 3.1 0 0 1-1.215-1.041 2.6 2.6 0 0 1-.443-1.485q0-1.04.52-1.639.54-.616 1.755-.867 1.233-.27 3.316-.27h.906v1.195h-.887q-1.388 0-2.198.135-.809.135-1.156.463-.328.309-.328.868 0 .732.501 1.195.501.444 1.388.443.714 0 1.253-.327.54-.347.849-.926.327-.578.328-1.33v-2.217q0-1.1-.463-1.581-.463-.483-1.523-.482-.617 0-1.292.154a6 6 0 0 0-1.369.52q-.328.154-.559.097a.62.62 0 0 1-.366-.251 1 1 0 0 1-.155-.443q0-.25.116-.482a.82.82 0 0 1 .444-.347 7.4 7.4 0 0 1 1.677-.579 7.7 7.7 0 0 1 1.562-.173q1.292 0 2.12.405.849.405 1.254 1.234.404.828.404 2.14v4.955q0 .462-.231.732-.231.25-.675.251-.423 0-.675-.251-.25-.27-.25-.732v-1.254h.173a2.9 2.9 0 0 1-.578 1.234 2.66 2.66 0 0 1-1.022.772q-.616.27-1.407.27m10.374 0q-1.503 0-2.275-.868-.752-.887-.752-2.545v-9.505q0-.482.251-.733.25-.25.713-.25.464 0 .714.25.27.251.27.733v9.389q0 .964.385 1.446.405.463 1.157.463h.309l.27-.039q.231-.018.327.135.097.135.097.579 0 .405-.174.636-.173.211-.559.27a3 3 0 0 1-.366.019q-.193.02-.367.02m3.831-.058q-.464 0-.714-.27-.25-.29-.25-.791v-7.519q0-.501.25-.771t.714-.27q.462 0 .713.27.27.27.27.771v7.519q0 .501-.251.791-.25.27-.732.27m0-11.626q-.579 0-.906-.289-.309-.29-.309-.81 0-.54.309-.81.327-.29.906-.289.578 0 .887.289.327.27.327.81 0 .52-.327.81-.31.288-.887.289m7.31 11.684q-1.234 0-2.179-.579-.925-.597-1.446-1.697-.52-1.118-.52-2.602 0-1.524.52-2.603t1.446-1.677q.945-.598 2.179-.598t2.121.617a2.88 2.88 0 0 1 1.214 1.619h-.212v-5.398q0-.482.251-.733.25-.25.713-.25.464 0 .714.25.27.251.27.733v11.896q0 .462-.251.732-.25.25-.713.251-.464 0-.714-.251-.25-.27-.25-.732v-1.697l.212.424a3.07 3.07 0 0 1-1.215 1.678q-.887.617-2.14.617m.501-1.504q.79 0 1.388-.386t.926-1.137q.347-.753.347-1.851 0-1.659-.733-2.507-.732-.848-1.928-.848-.81 0-1.407.386-.598.366-.945 1.118-.327.751-.328 1.851 0 1.639.733 2.506.732.868 1.947.868m10.312 1.504q-.984 0-1.774-.386a3.1 3.1 0 0 1-1.215-1.041 2.6 2.6 0 0 1-.443-1.485q0-1.04.52-1.639.54-.616 1.755-.867 1.233-.27 3.316-.27h.906v1.195h-.887q-1.388 0-2.198.135t-1.157.463q-.327.309-.327.868 0 .732.501 1.195.501.444 1.388.443.713 0 1.253-.327.54-.347.849-.926.327-.578.327-1.33v-2.217q0-1.1-.462-1.581-.463-.483-1.523-.482-.617 0-1.292.154a6 6 0 0 0-1.369.52q-.328.154-.559.097a.62.62 0 0 1-.366-.251 1 1 0 0 1-.155-.443q0-.25.116-.482a.83.83 0 0 1 .443-.347 7.5 7.5 0 0 1 1.678-.579 7.7 7.7 0 0 1 1.561-.173q1.293 0 2.121.405.85.405 1.253 1.234.405.828.405 2.14v4.955q0 .462-.231.732-.231.25-.675.251-.424 0-.675-.251-.25-.27-.25-.732v-1.254h.173a2.9 2.9 0 0 1-.578 1.234 2.66 2.66 0 0 1-1.022.772q-.617.27-1.407.27m10.933 0q-1.233 0-2.178-.579-.926-.597-1.446-1.697-.52-1.118-.521-2.602 0-1.524.521-2.603.52-1.08 1.446-1.677.945-.598 2.178-.598 1.235 0 2.121.617a2.9 2.9 0 0 1 1.215 1.619h-.212v-5.398q0-.482.25-.733.251-.25.714-.25t.713.25q.27.251.27.733v11.896q0 .462-.251.732-.25.25-.713.251-.462 0-.713-.251-.25-.27-.251-.732v-1.697l.212.424a3.06 3.06 0 0 1-1.214 1.678q-.887.617-2.141.617m.502-1.504q.79 0 1.388-.386t.925-1.137q.348-.753.347-1.851 0-1.659-.732-2.507-.733-.848-1.928-.848-.81 0-1.408.386-.597.366-.944 1.118-.328.751-.328 1.851 0 1.639.732 2.506.733.868 1.948.868m11.719 1.504q-1.543 0-2.661-.579a4.3 4.3 0 0 1-1.716-1.677q-.598-1.099-.598-2.603 0-1.466.598-2.564a4.4 4.4 0 0 1 1.639-1.716q1.04-.618 2.371-.617.984 0 1.755.328.771.308 1.311.925.558.598.829 1.465.29.868.289 1.948 0 .327-.193.501-.192.154-.578.154h-6.478v-1.195h5.938l-.328.27q0-.964-.289-1.639-.27-.675-.829-1.022-.54-.366-1.35-.366-.906 0-1.542.424a2.7 2.7 0 0 0-.945 1.176q-.328.752-.328 1.754v.116q0 1.697.791 2.564.81.849 2.333.849.578 0 1.214-.155a4 4 0 0 0 1.234-.52q.328-.194.579-.174.27.02.424.174a.64.64 0 0 1 .212.385.8.8 0 0 1-.077.482 1.14 1.14 0 0 1-.405.425 5 5 0 0 1-1.523.674 7 7 0 0 1-1.677.213m-68.445 29q-2.371 0-3.625-1.794-1.233-1.812-1.234-5.186 0-2.293.56-3.837.559-1.542 1.638-2.332 1.08-.79 2.661-.791 2.39 0 3.625 1.774 1.233 1.754 1.234 5.167 0 2.256-.56 3.817-.559 1.562-1.638 2.372-1.08.81-2.661.81m0-1.659q1.485 0 2.179-1.291.713-1.311.713-4.049 0-2.757-.713-4.01-.694-1.273-2.179-1.273-1.465 0-2.179 1.273-.713 1.253-.713 4.01 0 2.738.713 4.049.714 1.291 2.179 1.291m11.561 1.659q-1.543 0-2.661-.444-1.099-.444-1.697-1.292-.578-.867-.578-2.063 0-.963.385-1.696a3.2 3.2 0 0 1 1.08-1.215 3.7 3.7 0 0 1 1.6-.578v.347q-1.252-.27-2.005-1.176-.732-.926-.732-2.198 0-1.138.559-1.948.578-.828 1.619-1.253t2.43-.424q1.407 0 2.448.424 1.042.425 1.6 1.253.579.81.579 1.948 0 .848-.347 1.561a3.2 3.2 0 0 1-.945 1.176 3.4 3.4 0 0 1-1.446.617v-.327q1.369.192 2.198 1.137.848.925.848 2.352 0 1.196-.597 2.063-.579.849-1.678 1.292t-2.66.444m0-1.581q1.523 0 2.294-.579.771-.598.771-1.774 0-1.175-.771-1.754t-2.294-.578q-1.505 0-2.295.578-.771.578-.771 1.754t.771 1.774q.79.579 2.295.579m0-6.266q.867 0 1.465-.27.617-.29.945-.791.327-.52.327-1.214 0-1.042-.732-1.639-.714-.598-2.005-.598-1.293 0-2.006.598-.713.597-.713 1.639 0 1.06.713 1.677.714.598 2.006.598m7.126 8.29q-.097.309-.309.443a.85.85 0 0 1-.463.135.84.84 0 0 1-.462-.135.6.6 0 0 1-.27-.347q-.097-.23 0-.559l4.531-14.036q.096-.308.308-.443a.64.64 0 0 1 .443-.135q.251 0 .444.135a.6.6 0 0 1 .289.347q.096.212.019.54zm11.983-.617q-.52 0-.752-.231-.231-.25-.231-.675 0-.27.135-.521.135-.25.385-.52l4.107-4.396q.945-1.003 1.35-1.832.424-.848.424-1.696 0-1.08-.656-1.639-.656-.56-1.928-.559-.771 0-1.484.231a5.1 5.1 0 0 0-1.427.752q-.29.193-.54.174a.73.73 0 0 1-.443-.193.86.86 0 0 1-.232-.424 1.03 1.03 0 0 1 .02-.521q.077-.27.366-.463a6 6 0 0 1 1.831-.925 7 7 0 0 1 2.121-.328q1.408 0 2.372.444.983.423 1.484 1.253.501.828.502 2.024 0 .81-.27 1.581a6.5 6.5 0 0 1-.791 1.581 12 12 0 0 1-1.369 1.677l-3.894 4.088v-.559h6.131q.424 0 .655.212t.232.617q0 .405-.232.636-.23.212-.655.212zm14.819.174q-2.371 0-3.625-1.794-1.233-1.812-1.234-5.186 0-2.293.559-3.837.56-1.542 1.639-2.332 1.08-.79 2.661-.791 2.391 0 3.624 1.774 1.234 1.754 1.234 5.167 0 2.256-.559 3.817-.56 1.562-1.639 2.372t-2.66.81m0-1.659q1.485 0 2.178-1.291.714-1.311.714-4.049 0-2.757-.714-4.01-.693-1.273-2.178-1.273-1.465 0-2.179 1.273-.713 1.253-.713 4.01 0 2.738.713 4.049.714 1.291 2.179 1.291m11.348 1.659a8.8 8.8 0 0 1-2.198-.29 6 6 0 0 1-1.947-.906 1.03 1.03 0 0 1-.424-.463.93.93 0 0 1-.039-.52.86.86 0 0 1 .232-.424.75.75 0 0 1 .462-.193q.27-.038.598.154a7 7 0 0 0 1.62.733 6.3 6.3 0 0 0 1.638.212q.926 0 1.562-.27t.945-.791q.327-.52.328-1.253 0-1.099-.733-1.639-.714-.559-2.082-.559h-1.311q-.444 0-.675-.212-.232-.231-.232-.636 0-.385.232-.598.231-.231.675-.231h1.118q.83 0 1.407-.27.578-.29.887-.79.328-.52.328-1.254 0-.983-.656-1.503-.636-.54-1.87-.54-.79 0-1.504.212-.693.212-1.446.752-.288.192-.559.173a.9.9 0 0 1-.443-.193 1 1 0 0 1-.251-.424.9.9 0 0 1 .039-.52.95.95 0 0 1 .385-.463 6 6 0 0 1 1.832-.906 6.8 6.8 0 0 1 2.101-.328q1.35 0 2.314.424.983.424 1.485 1.215.52.79.52 1.889 0 .83-.308 1.504-.31.675-.887 1.157a3.3 3.3 0 0 1-1.369.655v-.212q1.407.232 2.179 1.157.771.907.771 2.275 0 1.196-.579 2.082-.558.868-1.619 1.331t-2.526.463m8.514-.174q-.52 0-.751-.231-.232-.25-.232-.675 0-.27.135-.521.135-.25.386-.52l4.106-4.396q.945-1.003 1.35-1.832a3.76 3.76 0 0 0 .424-1.696q0-1.08-.655-1.639-.656-.56-1.928-.559a4.8 4.8 0 0 0-1.485.231 5.1 5.1 0 0 0-1.427.752q-.288.193-.54.174a.74.74 0 0 1-.443-.193.85.85 0 0 1-.231-.424 1.03 1.03 0 0 1 .019-.521q.077-.27.366-.463a6 6 0 0 1 1.832-.925 7 7 0 0 1 2.121-.328q1.407 0 2.371.444.983.423 1.485 1.253.501.828.501 2.024 0 .81-.27 1.581a6.5 6.5 0 0 1-.79 1.581 12 12 0 0 1-1.369 1.677l-3.895 4.088v-.559h6.131q.424 0 .656.212.231.212.231.617t-.231.636q-.232.212-.656.212z"/><rect width="28.92" height="28.92" x="28.92" y="28.92" fill="#fff" rx="4.82"/><path fill="#fff" d="M42.722 49.43q.087.076.182.147a7.44 7.44 0 0 1-4.121 1.242 7.435 7.435 0 0 1-7.441-7.439A7.44 7.44 0 0 1 42.9 37.181c-.06.052-.12.1-.166.152a8 8 0 0 0-2.77 6.047 8.02 8.02 0 0 0 2.758 6.05m5.255-13.49a7.4 7.4 0 0 0-4.117 1.242c.06.051.12.098.166.151a8 8 0 0 1 2.77 6.047 8.03 8.03 0 0 1-2.757 6.05q-.091.076-.182.147a7.43 7.43 0 0 0 4.118 1.242 7.439 7.439 0 1 0 .002-14.879m-4.597 1.596a7.41 7.41 0 0 0-2.84 5.844 7.41 7.41 0 0 0 2.84 5.848 7.42 7.42 0 0 0 2.84-5.848 7.41 7.41 0 0 0-2.84-5.844"/><path fill="#9292A9" fill-rule="evenodd" d="M41.968 118.297a4.82 4.82 0 1 1-6.818 6.817 4.82 4.82 0 0 1 6.818-6.817m19.28 0a4.82 4.82 0 1 1-6.817 6.817 4.82 4.82 0 0 1 6.817-6.817m19.28 0a4.82 4.82 0 1 1-6.818 6.817 4.82 4.82 0 0 1 6.818-6.817m19.28 0a4.82 4.82 0 1 1-6.815 6.817 4.82 4.82 0 0 1 6.815-6.817m38.56 0a4.82 4.82 0 1 1-6.816 6.817 4.82 4.82 0 1 1 6.816-6.817m19.28 0a4.82 4.82 0 1 1-6.814 6.817 4.82 4.82 0 0 1 6.814-6.817m19.28 0a4.82 4.82 0 1 1-6.816 6.817 4.82 4.82 0 1 1 6.816-6.817m19.28 0a4.82 4.82 0 1 1-6.814 6.817 4.82 4.82 0 0 1 6.814-6.817m38.56 0a4.82 4.82 0 1 1-6.816 6.817 4.82 4.82 0 1 1 6.816-6.817m19.28 0a4.82 4.82 0 1 1-6.816 6.817 4.82 4.82 0 1 1 6.816-6.817m19.28 0a4.82 4.82 0 1 1-6.816 6.817 4.82 4.82 0 1 1 6.816-6.817m19.28 0a4.82 4.82 0 1 1-6.816 6.817 4.82 4.82 0 1 1 6.816-6.817m38.56 0a4.82 4.82 0 1 1-6.816 6.817 4.82 4.82 0 1 1 6.816-6.817m19.28 0a4.82 4.82 0 1 1-6.816 6.817 4.82 4.82 0 1 1 6.816-6.817m19.28 0a4.82 4.82 0 1 1-6.816 6.817 4.82 4.82 0 1 1 6.816-6.817m19.28 0a4.82 4.82 0 1 1-6.816 6.817 4.82 4.82 0 1 1 6.816-6.817" clip-rule="evenodd"/></svg>