<svg xmlns="http://www.w3.org/2000/svg" width="520" height="240" fill="none" viewBox="0 0 520 240"><rect width="519" height="240" fill="#13007D" rx="19.259"/><path fill="#fff" d="M28.889 105.926h311.759v33.704H28.889zm433 23.525q-2.369 0-3.621-1.791-1.233-1.81-1.232-5.181 0-2.292.558-3.832t1.637-2.331q1.078-.789 2.658-.789 2.388 0 3.621 1.772 1.232 1.752 1.232 5.161 0 2.253-.558 3.813-.559 1.56-1.637 2.369t-2.658.809m0-1.656q1.483 0 2.176-1.291.713-1.31.713-4.044 0-2.754-.713-4.006-.693-1.27-2.176-1.271-1.464 0-2.176 1.271-.713 1.252-.713 4.006 0 2.735.713 4.044.712 1.291 2.176 1.291m11.548 1.656q-2.369 0-3.621-1.791-1.233-1.81-1.232-5.181 0-2.292.558-3.832t1.637-2.331q1.078-.789 2.658-.789 2.388 0 3.621 1.772 1.232 1.752 1.232 5.161 0 2.253-.558 3.813-.559 1.56-1.637 2.369t-2.658.809m0-1.656q1.483 0 2.176-1.291.713-1.31.713-4.044 0-2.754-.713-4.006-.693-1.27-2.176-1.271-1.464 0-2.176 1.271-.713 1.252-.713 4.006 0 2.735.713 4.044.712 1.291 2.176 1.291m11.548 1.656q-2.369 0-3.621-1.791-1.232-1.81-1.232-5.181 0-2.292.558-3.832.559-1.54 1.637-2.331 1.078-.789 2.658-.789 2.388 0 3.621 1.772 1.232 1.752 1.232 5.161 0 2.253-.558 3.813-.559 1.56-1.637 2.369-1.079.81-2.658.809m0-1.656q1.483 0 2.176-1.291.713-1.31.713-4.044 0-2.754-.713-4.006-.693-1.27-2.176-1.271-1.464 0-2.176 1.271-.713 1.252-.713 4.006 0 2.735.713 4.044.712 1.291 2.176 1.291"/><path fill="#27272E" d="M0 38.519h520v28.889H0z"/></svg>