<svg xmlns="http://www.w3.org/2000/svg" width="399" height="240" fill="none" viewBox="0 0 399 240"><path fill="#FAFAFC" d="M385.346 112.17c-9.068-28.478-31.522-52.77-59.835-62.5-28.313-9.728-61.85-3.98-84.222 15.885-16.675 14.811-28.041 37.146-49.19 44.286-16.55 5.608-34.518.224-51.843-2.146-26.752-3.661-55.313.495-77.608 15.696-22.295 15.2-37.025 42.482-33.248 69.156s27.308 48.844 54.296 47.299l239.256-.536c23.158-1.958 42.173-19.994 53.238-40.383 14.257-26.274 18.234-58.284 9.156-86.757" opacity=".2"/><path fill="#FAFAFC" d="M179.996 40.131c-.638-5.165-5.018-9.982-10.237-9.982-3.08 0-6.006 1.604-8.11 3.844a22 22 0 0 0-2.063 2.435 21 21 0 0 0-1.537-2.788c-1.619-2.612-4.173-4.765-7.193-5.366-5.113-1.02-10.356 2.836-12.005 7.777s-.278 10.478 2.435 14.923 7.377 10.254 15.96 13.137c5.91-.76 13.866-6.002 17.401-9.829 3.534-3.826 5.97-8.991 5.349-14.15"/><path fill="#FAFAFC" d="M178.093 49.4a1 1 0 0 1-.172 0l-.502-.036-1.933-.159-7.093-.648.13-.077c-.857 2.223-1.856 4.829-2.955 7.665l-.177.46-.119-.484c-.904-3.726-1.909-7.907-2.955-12.311-.325-1.362-.65-2.706-.963-4.015l.301.059-5.414 7.429-.053.07h-.089l-12.46-1.297-3.546-.389-.934-.118a1.3 1.3 0 0 1-.32-.059q.163-.015.326 0l.933.065 3.547.307 12.472 1.18-.136.058 5.39-7.44.213-.302.083.36c.319 1.309.638 2.647.969 4.015l2.956 12.318h-.296c1.117-2.848 2.14-5.449 3.015-7.666l.029-.088h.095l7.093.755 1.921.224.502.065q.075.02.142.059"/><path fill="#FF646E" d="M351.447 175.183s17.295-4.127 17.869-4.841l-14.228-36.556a26.7 26.7 0 0 0-6.458-9.947 26.8 26.8 0 0 0-10.133-6.185 47.1 47.1 0 0 0-16.798-2.589l-24.016-1.267a47.6 47.6 0 0 0-18.95 5.23 38.18 38.18 0 0 0-17.785 19.557l-10.77 26.834 27.19 5.666 1.034 28.832-4.096 39.782h74.984l-.52-63.054z"/><path fill="#fff" d="M366.354 165.566c0 .083-4.463 1.545-10.048 3.261-5.586 1.715-10.09 3.048-10.114 2.948-.023-.101 4.457-1.545 10.049-3.267s10.089-3.025 10.113-2.942" opacity=".3"/><path fill="#27272E" d="M287.877 139.871a4 4 0 0 1-.461-.631 30 30 0 0 0-3.274-4.069 31 31 0 0 0-2.814-2.594 33 33 0 0 0-3.138-2.205 30 30 0 0 0-2.761-1.48 31 31 0 0 0-1.939-.849 3.4 3.4 0 0 1-.715-.319q.388.07.757.207 1.012.33 1.986.76 1.452.639 2.819 1.439a30 30 0 0 1 3.18 2.205 29 29 0 0 1 2.832 2.642 26 26 0 0 1 2.003 2.441q.642.85 1.182 1.769.209.323.343.684m-3.541 8.726c.083 0-.756 8.809-1.873 19.658s-2.093 19.64-2.175 19.628c-.083-.012.75-8.809 1.873-19.658s2.11-19.64 2.175-19.628m59.043-16.286a17 17 0 0 1-.384-1.768 33 33 0 0 0-1.182-4.222 33 33 0 0 0-1.773-4.021 17 17 0 0 1-.84-1.622s.13.124.313.383c.184.26.432.649.722 1.133a25 25 0 0 1 1.867 4.021 24.4 24.4 0 0 1 1.118 4.286c.088.56.141 1.014.165 1.333q.03.24-.006.477m1.513 30.749a5.3 5.3 0 0 1-.142-.867 74 74 0 0 1-.266-2.358 130 130 0 0 1-.508-7.86c-.106-3.072-.1-5.867-.047-7.883a73 73 0 0 1 .094-2.359q0-.44.089-.872.051.434.035.872v2.371c0 2.01.03 4.793.136 7.865s.278 5.843.42 7.854c.065.961.118 1.769.166 2.358q.054.439.023.879"/><path fill="#fff" d="M308.577 157.913a124 124 0 0 1-18.915-.354v2.464h18.915z"/><path fill="#fff" d="M327.42 117.147q.06.181.077.371l.165 1.085c.118.955.284 2.359.42 4.128.284 3.537.532 8.578.591 14.528v.224l-.207-.095c-3.771-1.833-7.997-3.826-12.413-6.02l-21.497-10.731-6.502-3.284-1.773-.902-.449-.248a.7.7 0 0 1-.154-.088.7.7 0 0 1 .166.065l.467.212 1.773.855 6.537 3.196 21.568 10.648c4.398 2.194 8.618 4.193 12.413 6.038l-.201.124c-.065-5.938-.272-10.973-.508-14.517-.107-1.768-.249-3.166-.337-4.127q-.08-.691-.124-1.091a3 3 0 0 1-.012-.371m-45.187 50.931a1 1 0 0 1-.314-.053l-.88-.207-3.234-.819a770 770 0 0 0-21.391-5.165l-3.251-.743-.88-.212a1.5 1.5 0 0 1-.302-.095q.157-.021.314 0l.892.159c.774.142 1.892.366 3.275.649 2.76.59 6.561 1.409 10.74 2.417a334 334 0 0 1 10.639 2.748c1.359.377 2.459.69 3.209.914l.869.265q.165.054.314.142" opacity=".3"/><path fill="#27272E" d="M324.092 112.683c0-.088 1.626.761 3.192 3.078s2.991 5.896 3.801 10.024c.372 1.946.603 3.916.691 5.896 0 .908.042 1.769 0 2.576-.041.808-.053 1.557-.124 2.241s-.142 1.291-.201 1.84c-.059.548-.165.996-.23 1.373a4.2 4.2 0 0 1-.284 1.18 4.5 4.5 0 0 1 .047-1.18l.124-1.379c.036-.549.071-1.18.107-1.834.035-.655 0-1.421.053-2.217s-.041-1.651-.071-2.541c-.12-1.94-.363-3.87-.727-5.779a31.4 31.4 0 0 0-3.546-9.887 13.6 13.6 0 0 0-1.969-2.5 12 12 0 0 1-.863-.891m-26.876.171a13 13 0 0 1-1.247 1.769 25.2 25.2 0 0 0-2.784 5.189 35.2 35.2 0 0 0-2.063 8.473c-.431 3.266-.591 6.922-.857 10.748-.266 3.827-.207 7.471-.213 10.79-.006 3.32 0 6.315 0 8.845 0 2.529-.065 4.557-.136 5.967.007.733-.066 1.464-.218 2.181a10.2 10.2 0 0 1-.142-2.187c-.042-1.433-.089-3.461-.154-5.955s-.148-5.507-.195-8.845c-.047-3.337-.059-6.993.142-10.849s.449-7.494.934-10.813a33.7 33.7 0 0 1 2.305-8.609 21.6 21.6 0 0 1 3.103-5.147 8 8 0 0 1 1.525-1.557"/><path fill="#27272E" d="M336.96 162.14a11 11 0 0 1-.118-1.945 324 324 0 0 1-.089-5.307c0-1.126 0-2.358-.035-3.667s0-2.736-.077-4.187a6.9 6.9 0 0 0-1.507-4.127 5.7 5.7 0 0 0-4.138-1.969 6.5 6.5 0 0 0-4.356 1.686 7.5 7.5 0 0 0-2.199 3.827c-.366 1.403-.52 2.812-.739 4.127l-.591 3.62a327 327 0 0 1-.875 5.236 12 12 0 0 1-.402 1.91c-.002-.652.053-1.303.166-1.945.148-1.244.378-3.043.68-5.266.153-1.114.325-2.329.502-3.632s.331-2.706.698-4.18a7.95 7.95 0 0 1 2.364-4.127 7.1 7.1 0 0 1 4.723-1.864 6.27 6.27 0 0 1 4.61 2.188 7.4 7.4 0 0 1 1.619 4.469c.089 1.51 0 2.907 0 4.228s-.029 2.547-.047 3.667c0 2.241-.065 4.057-.106 5.307q.039.979-.083 1.951"/><path fill="#27272E" d="M331.256 135.183c-.195 2.064-.857 4.381-2.293 5.897a8.3 8.3 0 0 1 3.812.07c-.898-1.769-1.04-3.95-1.017-5.949m5.22 13.396c-.112 0-.177-.991-.934-2.359a7.3 7.3 0 0 0-1.72-2.052 6.4 6.4 0 0 0-2.908-1.379 6.2 6.2 0 0 0-3.204.318 7 7 0 0 0-2.287 1.38c-1.147 1.038-1.525 1.981-1.626 1.928s.178-1.044 1.324-2.241a6.9 6.9 0 0 1 2.365-1.592 6.5 6.5 0 0 1 3.511-.401 6.6 6.6 0 0 1 3.168 1.557 7.05 7.05 0 0 1 1.738 2.282c.727 1.509.626 2.565.573 2.559"/><path fill="#FFBE9D" d="M352.795 215.389c3.546 0 6.667-2.529 8.322-5.625s2.081-6.698 2.24-10.206a82.7 82.7 0 0 0-3.38-27.535l-15.416 2.682 4.203 41.445z"/><path fill="#27272E" d="m290.401 220.548 50.23-1.822 12.182-58.714-52.907 2.93z"/><path fill="#42424F" d="m316.255 161.934.756-1.497 4.008-.289s1.017-2.624 6.75-2.895c5.13-.236 5.32 2.358 5.32 2.358h2.766v1.256z"/><path fill="#FFBE9D" d="m344.26 201.627 3.806-1.102a4.65 4.65 0 0 1 2.205-.1 4.64 4.64 0 0 1 2.364 1.244c1.259 1.238 3.293 3.284 3.582 3.897.426.89.426 2.435 0 3.001-.425.566.934 3.497.763 4.47a6.1 6.1 0 0 1-.763 2.358c-.343.407 0 1.798-.851 2.848q-.736.916-1.614 1.698s-10.462.489-11.478 0-2.808-2.358-2.808-2.358-.934-1.704.509-1.87l-5.953-2.27a1.417 1.417 0 0 1-.863-1.768q.066-.195.202-.35.138-.153.324-.24s-2.671-.843-3.292-1.114c-1.235-.543-1.702-3.408.857-3.043 1.348.195 3.174.59 3.174.59s-.975-1.58.39-2.524c.828-.589 4.552.124 4.552.124l4.894-3.485z"/><path fill="#EB996E" d="M345.584 217.287a8.8 8.8 0 0 1-3.092-.46 7.7 7.7 0 0 1-2.849-1.285c.042-.071 1.289.537 2.956.991s2.997.684 2.985.754m-2.276-3.708a40 40 0 0 1-4.852-1.079 39 39 0 0 1-4.776-1.374 81 81 0 0 1 9.628 2.453m1.254-3.691a92 92 0 0 1-10.38-2.423 92 92 0 0 1 10.38 2.423m3.859-4.753q-.648.285-1.342.431l-1.478.377-.874.218a3.4 3.4 0 0 1-1.005.095 5.6 5.6 0 0 1-.981-.159l-.881-.201-1.478-.354a6.5 6.5 0 0 1-1.353-.407c.47.013.938.079 1.395.195l1.501.289a18 18 0 0 0 1.815.33 6.7 6.7 0 0 0 1.773-.277l1.495-.318a6.6 6.6 0 0 1 1.413-.219m.668 1.999c.035 0 .177.106.29.389.152.376.166.794.041 1.18a1.77 1.77 0 0 1-.697.937c-.255.165-.444.189-.462.153-.017-.035.592-.4.863-1.179a3.26 3.26 0 0 0-.035-1.48m-.213 4.033c.071-.035.307.383.272.955s-.307.967-.378.92.047-.436.071-.937-.054-.908.035-.938m.059 4.375c.077-.03.237.253.16.625-.077.371-.325.59-.39.513s.035-.283.088-.59c.054-.306.06-.525.142-.548"/><path fill="#EB996E" d="M350.076 204.894a3.2 3.2 0 0 1-1.005-.047l-1.076-.142a4.2 4.2 0 0 0-1.282-.065c-.409.095-.794.27-1.135.513-.331.218-.591.466-.893.625a1.7 1.7 0 0 1-.963.33c0-.053.36-.153.845-.513a5.16 5.16 0 0 1 2.104-1.255q.361-.036.721 0c.243 0 .438.07.645.106l1.07.2c.333.037.659.12.969.248m6.041 10.69a5 5 0 0 1 .266-.726 5.1 5.1 0 0 0 .195-3.537c-.118-.519-.361-1.038-.491-1.657a5.2 5.2 0 0 1 .13-1.928 3.4 3.4 0 0 0-.342-1.893 9 9 0 0 0-1.088-1.68c-.408-.513-.804-1.014-1.182-1.463a7 7 0 0 0-2.477-1.928 4 4 0 0 0-2.08-.318c-.497.071-.757.201-.769.177s.059-.047.183-.112a3 3 0 0 1 .592-.183 4 4 0 0 1 2.181.23 7 7 0 0 1 2.6 1.946c.414.454.816.949 1.23 1.462a9.3 9.3 0 0 1 1.129 1.769c.319.638.444 1.355.36 2.064a5.3 5.3 0 0 0-.147 1.833c.112.59.348 1.115.461 1.645a6 6 0 0 1 .195 1.516 5.4 5.4 0 0 1-.526 2.122q-.166.358-.42.661"/><path fill="#FFBE9D" d="m320.954 186.557-41.239 6.533 1.832-21.468-22.934-4.423-2.79 31.787-.484 7.288a14.2 14.2 0 0 0 1.355 7.051 14.25 14.25 0 0 0 4.632 5.496 14.33 14.33 0 0 0 12.661 1.934l8.866-2.884 43.22-15.33"/><path fill="#FFBE9D" d="M345.909 182.117a1.176 1.176 0 0 0-.68-1.27 1.2 1.2 0 0 0-.502-.104c-2.323 0-8.6 0-10.817.655-2.742.772-12.962 5.147-12.962 5.147l4.332 15.92 15.682.165s5.727-2.624 5.798-3.762a18 18 0 0 0-.142-2.129l1.732-.925c2.577-1.628.922-4.759.922-4.759s1.773-.99 1.868-2.783a2.78 2.78 0 0 0-1.383-2.635s.709-2.524-.591-3.202c-1.301-.678-3.547.189-3.547.189a.9.9 0 0 0 .29-.507"/><path fill="#EB996E" d="M346.813 182.376q-.229.124-.484.171c-.314.088-.781.189-1.354.289-1.182.206-2.754.377-4.522.589a37 37 0 0 0-4.48.684c-1.129.26-1.773.59-1.773.59a1.7 1.7 0 0 1 .431-.277 7.6 7.6 0 0 1 1.301-.501 28 28 0 0 1 4.498-.779c1.773-.188 3.375-.324 4.521-.471 1.147-.148 1.845-.336 1.862-.295m2.949 3.196a3.8 3.8 0 0 1-1.105.56c-.926.357-1.881.635-2.855.832-1.14.235-2.175.389-2.955.489a5 5 0 0 1-1.224.094c0-.1 1.833-.43 4.091-.884q1.443-.294 2.849-.731a7 7 0 0 1 1.199-.36m-.472 5.542a17 17 0 0 1-6.88 1.557c0-.094 1.56-.289 3.452-.719 1.891-.431 3.428-.926 3.428-.838m-.934 4.729a11.85 11.85 0 0 1-5.32 1.279q2.664-.623 5.32-1.279m-8.18-2.801c0 .036-.16.136-.479.165a1.77 1.77 0 0 1-1.182-.324 1.82 1.82 0 0 1-.704-1.008c-.077-.313-.035-.507 0-.507s.166.76.875 1.261c.456.256.967.397 1.49.413m-.343 4.918c0 .083-.592.118-1.153-.36-.562-.477-.591-1.102-.491-1.096.101.006.243.471.698.866s.946.502.946.59m-1.773-10.041c.035.082-.397.218-.798-.089-.402-.306-.391-.754-.302-.743s.189.289.485.502c.295.212.573.247.615.33"/><path fill="#EB996E" d="m320.954 186.557.124-.071.372-.171 1.454-.643c1.277-.548 3.127-1.344 5.474-2.305 1.182-.472 2.459-.997 3.877-1.521a14.6 14.6 0 0 1 2.246-.696 24 24 0 0 1 2.495-.307c1.714-.135 3.546-.194 5.426-.218h2.169c.27-.014.539.043.78.165a1.25 1.25 0 0 1 .668 1.421.44.44 0 0 1-.177.201l-.178.112-.354.165q-.363.155-.745.259a.16.16 0 0 1-.113-.016.15.15 0 0 1-.075-.148.15.15 0 0 1 .111-.125 16 16 0 0 1 1.951-.436 7.1 7.1 0 0 1 2.068-.071c.375.042.729.194 1.017.436.266.273.442.621.502.997.106.719.06 1.452-.135 2.152l-.077-.183c.338.195.634.456.869.767a3.08 3.08 0 0 1 .449 2.789 4.13 4.13 0 0 1-1.773 2.14l.059-.206c.426.841.598 1.787.496 2.724a3.13 3.13 0 0 1-1.478 2.228l-1.725.926.076-.147c.042.412.083.825.113 1.232 0 .2 0 .407.029.59v.312a.8.8 0 0 1-.124.336c-.249.33-.55.617-.892.849-.32.236-.651.448-.976.649a43 43 0 0 1-3.895 2.034h-.053l-11.414-.177-3.156-.065-.828-.029q-.142.015-.283 0 .141-.013.283 0h3.984l11.414.065h-.053a42 42 0 0 0 3.859-2.04c.32-.195.645-.407.952-.637.313-.211.589-.472.816-.773a.5.5 0 0 0 .088-.206v-.879a29 29 0 0 0-.118-1.214.13.13 0 0 1 .015-.083.14.14 0 0 1 .062-.059l1.726-.931a2.83 2.83 0 0 0 1.342-2.023 4.63 4.63 0 0 0-.473-2.541.15.15 0 0 1-.008-.113.15.15 0 0 1 .073-.087 3.85 3.85 0 0 0 1.655-1.97 2.78 2.78 0 0 0-.408-2.511 2.6 2.6 0 0 0-.762-.673.16.16 0 0 1-.077-.177c.18-.654.225-1.338.13-2.01a1.33 1.33 0 0 0-1.265-1.179 6.7 6.7 0 0 0-1.974.07q-.972.146-1.915.419l-.077-.289a5 5 0 0 0 1.028-.389c.101-.053.207-.159.243-.147a1.3 1.3 0 0 0-.095-.62 1.1 1.1 0 0 0-.455-.454 1.24 1.24 0 0 0-.644-.129h-2.164c-1.891 0-3.706.07-5.414.194q-1.24.082-2.465.289-1.134.253-2.216.672c-1.413.513-2.707 1.026-3.884 1.486l-5.503 2.223-1.471.59-.385.153zm-41.074 6.485a16.3 16.3 0 0 0-3.044 2.624 16 16 0 0 0-2.033 3.467c.028-.408.133-.808.307-1.179a9.28 9.28 0 0 1 3.682-4.416 3.4 3.4 0 0 1 1.088-.496"/><path fill="#FFBE9D" d="M333.733 65.832a20.76 20.76 0 0 0-6.61-13.615 20.86 20.86 0 0 0-14.113-5.536h-1.082c-11.632.655-17.579 10.873-16.597 22.459l2.003 46.432a2.11 2.11 0 0 0 1.182 1.805l26.114 12.222-.756-24.369s11.189-1.71 11.348-12.865c.047-5.383-.709-16.492-1.489-26.533"/><path fill="#EB996E" d="M323.938 105.189a27.14 27.14 0 0 1-14.641-4.304s3.429 8.03 14.588 7.075z"/><path fill="#27272E" d="M329.784 72.76a1.603 1.603 0 0 1-1.542 1.604 1.52 1.52 0 0 1-1.644-1.439 1.59 1.59 0 0 1 1.537-1.604 1.535 1.535 0 0 1 1.497.854c.089.183.141.382.152.585"/><path fill="#27272E" d="M331.321 71.286c-.201.206-1.406-.69-3.127-.69s-2.955.861-3.162.649c-.094-.095.107-.466.656-.867a4.4 4.4 0 0 1 2.536-.772 4.2 4.2 0 0 1 2.488.807c.527.401.704.779.609.873M312.88 73.28a1.59 1.59 0 0 1-1.543 1.604 1.53 1.53 0 0 1-1.493-.855 1.5 1.5 0 0 1-.15-.585 1.59 1.59 0 0 1 1.543-1.604 1.53 1.53 0 0 1 1.126.374 1.53 1.53 0 0 1 .517 1.066m1.536-1.7c-.195.207-1.406-.683-3.121-.683-1.714 0-2.955.855-3.168.642-.088-.094.113-.465.662-.86a4.37 4.37 0 0 1 2.536-.779 4.24 4.24 0 0 1 2.483.808c.537.395.721.773.608.873m6.224 12.712c0-.095 1.058-.277 2.79-.496.438-.047.857-.13.928-.43a2.2 2.2 0 0 0-.289-1.297l-1.289-3.337c-1.773-4.717-3.091-8.65-2.896-8.72.195-.072 1.773 3.72 3.594 8.472l1.235 3.355c.275.528.355 1.135.224 1.716a1.09 1.09 0 0 1-.727.637 3 3 0 0 1-.744.106c-1.738.088-2.82.094-2.826-.006m-5.041 1.179c.277 0 .277 1.84 1.873 3.167s3.576 1.12 3.594 1.38c0 .117-.443.365-1.283.383a4.64 4.64 0 0 1-3.002-1.05 4.03 4.03 0 0 1-1.448-2.653c-.089-.778.118-1.238.266-1.227m-.71-20.619c-.171.466-1.885.242-3.901.484-2.015.241-3.647.784-3.919.365-.118-.2.166-.642.828-1.09a6.6 6.6 0 0 1 2.902-1.009 6.5 6.5 0 0 1 3.05.366c.739.3 1.111.666 1.04.884m15.812 1.474c-.308.384-1.49 0-2.914-.04-1.425-.042-2.625.253-2.903-.154-.124-.195.071-.59.592-.955a4.225 4.225 0 0 1 4.681.153c.508.4.674.802.544.996"/><path fill="#FFBE9D" d="M297.003 77.394c-.189-.082-7.684-2.282-7.447 5.348.236 7.63 7.855 5.82 7.861 5.602.006-.219-.414-10.95-.414-10.95"/><path fill="#EB996E" d="M295.668 85.525c-.036 0-.13.094-.355.206a1.34 1.34 0 0 1-.993.054c-.816-.278-1.537-1.533-1.614-2.907a4.4 4.4 0 0 1 .314-1.91 1.52 1.52 0 0 1 .975-1.05.69.69 0 0 1 .798.336c.106.212.065.365.1.377s.166-.13.095-.442a.9.9 0 0 0-.319-.472 1 1 0 0 0-.739-.17 1.88 1.88 0 0 0-1.36 1.22 4.5 4.5 0 0 0-.396 2.14c.095 1.54.928 2.948 2.04 3.237a1.42 1.42 0 0 0 1.182-.242c.26-.17.295-.365.272-.377"/><path fill="#27272E" d="m302.004 54.73 31.871.701a14.5 14.5 0 0 0-4.682-5.4 24.9 24.9 0 0 0-14.434-5.184c-5.195-.094-15.781 6.227-19.547 9.8-3.014 2.86-2.99 5.336-2.99 5.336-.479 4.127 1.832 8.809 2.754 12.86.473 2.087 1.389 8.402 1.389 8.402 1.773 0 2.406-1.398 2.14-3.131l-.325-6.799s5.969-4.233 3.138-11.98c-.437-.62-1.407-3.45.686-4.605"/><path fill="#EB996E" d="M308.706 78.844a.197.197 0 0 1-.2-.188.2.2 0 0 1 .141-.242.2.2 0 0 1 .15.04.2.2 0 0 1 .08.13.2.2 0 0 1 .008.088.205.205 0 0 1-.179.172m3.287-.737a.24.24 0 0 1-.236-.195.224.224 0 0 1 .141-.27.22.22 0 0 1 .23.2.21.21 0 0 1-.135.265m2.21-.041c-.106 0-.206-.112-.23-.283s.047-.318.154-.33c.106-.011.2.112.224.283s-.047.33-.148.33m-3.889 2.836c-.1 0-.189-.053-.189-.118s.089-.123.189-.123.188.058.188.123-.082.118-.188.118m3.014-.69a.213.213 0 1 1-.035-.424.2.2 0 0 1 .206.195.206.206 0 0 1-.171.23m15.67-1.835a.2.2 0 0 1-.2-.096.2.2 0 0 1-.024-.074.204.204 0 0 1 .141-.247.2.2 0 0 1 .15.039.2.2 0 0 1 .08.131.2.2 0 0 1 .005.08.2.2 0 0 1-.152.168m2.24-.201a.24.24 0 0 1-.267-.083.24.24 0 0 1-.011-.278.242.242 0 0 1 .443.108.22.22 0 0 1-.165.252m-4.214.254a.183.183 0 0 1-.218-.123.189.189 0 0 1 .29-.196c.042.027.071.07.081.12a.18.18 0 0 1-.037.13.18.18 0 0 1-.116.07m1.654 2.234a.22.22 0 0 1-.256-.008.22.22 0 0 1-.081-.243.22.22 0 0 1 .201-.16.22.22 0 0 1 .13.033q.061.038.089.101a.2.2 0 0 1 .015.156.2.2 0 0 1-.098.12m1.91-.376a.18.18 0 0 1-.111-.072.17.17 0 0 1-.031-.128.2.2 0 0 1 .223-.095.195.195 0 0 1 .143.195.176.176 0 0 1-.224.1"/><path fill="#27272E" d="M295.017 55.072a9.39 9.39 0 0 1 5.192-10.827 9.44 9.44 0 0 1 4.224-.86c1.49.06 2.956.478 4.445.319 2.76-.3 4.888-2.506 7.448-3.58a9.74 9.74 0 0 1 11.461 3.432c.969 1.445 1.601 3.232 3.091 4.128 1.282.784 2.902.72 4.344 1.179 2.92.873 4.918 3.968 4.764 7.005a8.3 8.3 0 0 1-1.561 4.213 8.34 8.34 0 0 1-3.528 2.791 10.24 10.24 0 0 1-8.807-.59c-2.406-1.338-4.557-3.614-7.311-3.537-2.849.083-5.32 2.76-8.134 2.205-1.466-.289-2.594-1.415-3.67-2.453s-2.305-2.093-3.801-2.181-2.27 1.957-1.732 3.349z"/><path fill="#42424F" d="M333.272 51.392a1 1 0 0 1-.053.112 3 3 0 0 1-.184.307 5.3 5.3 0 0 1-.916 1.037c-.555.485-1.2.857-1.897 1.097a5.44 5.44 0 0 1-2.891.171 5.75 5.75 0 0 1-3.049-1.733c-.869-.95-1.39-2.23-2.199-3.35a4.4 4.4 0 0 0-1.543-1.39 4.5 4.5 0 0 0-2.116-.467 4.8 4.8 0 0 0-2.169.59 4.06 4.06 0 0 0-1.596 1.639c-.384.702-.662 1.468-1.123 2.146a2.63 2.63 0 0 1-2.045 1.238 4 4 0 0 1-2.223-.636 8.4 8.4 0 0 1-1.69-1.398c-.987-.99-1.957-1.98-3.163-2.246a4.03 4.03 0 0 0-3.203.749 5.5 5.5 0 0 0-1.773 2.17 9 9 0 0 0-.662 2.045c-.119.59-.172 1.038-.207 1.35a4 4 0 0 1-.071.478.4.4 0 0 1 0-.124v-.36q.037-.688.159-1.367c.109-.72.308-1.423.591-2.093.384-.9.995-1.684 1.774-2.276a4.2 4.2 0 0 1 3.387-.82c1.306.277 2.317 1.315 3.298 2.294a8.4 8.4 0 0 0 1.643 1.344 3.7 3.7 0 0 0 2.057.59 2.37 2.37 0 0 0 1.809-1.109c.431-.637.709-1.397 1.105-2.122a4.36 4.36 0 0 1 1.72-1.77 5.1 5.1 0 0 1 2.311-.618 4.84 4.84 0 0 1 2.258.507 4.7 4.7 0 0 1 1.637 1.486c.834 1.179 1.33 2.429 2.158 3.349a5.55 5.55 0 0 0 2.908 1.686c.924.212 1.888.17 2.79-.124a5.7 5.7 0 0 0 1.873-1.02c.49-.395.925-.853 1.295-1.362m5.775.142c.077.187.121.387.13.59a5 5 0 0 1-.16 1.703 5.9 5.9 0 0 1-1.182 2.24 6.9 6.9 0 0 1-2.518 1.835 10.35 10.35 0 0 1-5.562.625 15 15 0 0 1-1.667-.33 2 2 0 0 1-.591-.201c0-.047.869.165 2.288.312 1.832.238 3.694 0 5.408-.69a6.9 6.9 0 0 0 2.429-1.733 5.9 5.9 0 0 0 1.182-2.122 6.7 6.7 0 0 0 .243-2.23"/><path fill="#FAFAFC" d="M284.65 174.357a6.36 6.36 0 0 0 1.335 3.302c.686.891 2.075 1.769 3.192 1.692a4.9 4.9 0 0 0 2.434-.51 4.86 4.86 0 0 0 1.863-1.642c1.366-2.158 1.697-6.657.591-9.316-.75-1.828-2.441-3.537-4.421-3.579-2.6-.059-4.232 1.816-4.787 3.715"/><path fill="#27272E" d="M284.863 168.019c.086-.449.25-.88.484-1.273a5.1 5.1 0 0 1 .976-1.28 4.5 4.5 0 0 1 1.838-1.073 4.7 4.7 0 0 1 1.235-.201c.459-.024.917.036 1.354.177a5.3 5.3 0 0 1 2.417 1.728 7 7 0 0 1 1.419 2.948c.25 1.148.34 2.324.266 3.497-.124 1.845-.485 3.685-1.513 5.088a4.54 4.54 0 0 1-1.963 1.474 5.3 5.3 0 0 1-2.216.371 3.35 3.35 0 0 1-1.596-.389 5.3 5.3 0 0 1-1.182-.837 5.9 5.9 0 0 1-1.307-1.934 6 6 0 0 1-.413-1.433 3 3 0 0 1-.036-.389.3.3 0 0 1 0-.135c.114.655.313 1.293.591 1.898a6.1 6.1 0 0 0 1.313 1.846c.356.311.754.573 1.182.778.456.235.964.354 1.477.348a4.74 4.74 0 0 0 3.931-1.769c.952-1.315 1.318-3.125 1.436-4.929.124-2.359-.266-4.682-1.596-6.25a5.17 5.17 0 0 0-2.275-1.663 3.7 3.7 0 0 0-1.271-.183c-.4.004-.798.061-1.182.171a4.3 4.3 0 0 0-1.773.997 5.2 5.2 0 0 0-1.005 1.203q-.33.59-.591 1.214"/><path fill="#FAFAFC" d="M283.267 174.475a6.4 6.4 0 0 0 1.336 3.302c.685.891 2.074 1.769 3.192 1.692a4.88 4.88 0 0 0 4.297-2.152c1.359-2.164 1.696-6.657.591-9.316-.751-1.833-2.436-3.537-4.416-3.579a4.9 4.9 0 0 0-3.039 1.025 4.87 4.87 0 0 0-1.748 2.684"/><path fill="#27272E" d="M283.491 168.131a4 4 0 0 1 .485-1.268c.253-.476.583-.908.975-1.279a4.54 4.54 0 0 1 3.074-1.274c.458-.025.917.035 1.353.177a5.3 5.3 0 0 1 2.418 1.728 7 7 0 0 1 1.419 2.948c.251 1.147.338 2.324.26 3.496-.119 1.846-.479 3.679-1.508 5.089a4.54 4.54 0 0 1-1.962 1.474 5.3 5.3 0 0 1-2.217.371 3.36 3.36 0 0 1-1.595-.395 5 5 0 0 1-1.183-.831 5.9 5.9 0 0 1-1.306-1.94 5.7 5.7 0 0 1-.414-1.427 3 3 0 0 1-.035-.389.3.3 0 0 1 0-.136c.115.654.313 1.29.591 1.893.314.695.76 1.324 1.312 1.851.357.312.755.574 1.182.779.458.232.965.351 1.478.347a4.74 4.74 0 0 0 3.931-1.768c.951-1.321 1.318-3.125 1.43-4.93.13-2.358-.26-4.681-1.596-6.25a5.07 5.07 0 0 0-2.27-1.662 3.7 3.7 0 0 0-1.27-.183c-.4.005-.798.062-1.183.171a4.4 4.4 0 0 0-1.773.996c-.39.351-.724.759-.993 1.209q-.332.586-.603 1.203"/><path fill="#FAFAFC" d="M285.773 167.471a3.044 3.044 0 0 0-3.174 1.821 5.25 5.25 0 0 0 0 3.851c.206.639.542 1.229.987 1.733a2.63 2.63 0 0 0 1.774.855 3.08 3.08 0 0 0 2.458-1.439 5.49 5.49 0 0 0 .834-4.522c-.272-1.026-1.023-2.069-2.081-2.099"/><path fill="#27272E" d="M286.547 167.689h.231c.228.026.447.1.644.218a3.13 3.13 0 0 1 1.354 2.028 5.6 5.6 0 0 1-.367 3.609 4.7 4.7 0 0 1-1.324 1.733 2.56 2.56 0 0 1-2.281.548 3.22 3.22 0 0 1-1.827-1.485 6.7 6.7 0 0 1-.756-2.04 4.52 4.52 0 0 1 .591-3.538 3.17 3.17 0 0 1 2.063-1.309 2.3 2.3 0 0 1 .673 0q.224.045.225.065-.443-.016-.881.053a3.15 3.15 0 0 0-1.903 1.315 4.37 4.37 0 0 0-.491 3.378c.141.682.39 1.337.739 1.94.361.639.95 1.119 1.649 1.344a2.25 2.25 0 0 0 2.01-.483 4.4 4.4 0 0 0 1.253-1.616 5.44 5.44 0 0 0 .414-3.443 3.12 3.12 0 0 0-1.182-1.975 2.5 2.5 0 0 0-.834-.342"/><path fill="#27272E" d="M288.752 177.164c-.042 0-.107-.189-.313-.424a2.17 2.17 0 0 0-1.005-.643 5.5 5.5 0 0 0-1.242-.195c-.331 0-.537-.053-.543-.094s.201-.088.538-.124a3.5 3.5 0 0 1 1.335.118c.452.13.841.419 1.094.814.189.306.171.542.136.548m.467-10.495s-.089.206-.367.424a2.85 2.85 0 0 1-1.247.543c-.45.083-.914.059-1.353-.071-.337-.112-.515-.242-.497-.277a7 7 0 0 0 1.773.047 7.4 7.4 0 0 0 1.691-.666M126.36 63.538c.071-2.57-2.305-4.551-4.728-5.495-2.424-.943-5.06-1.297-7.2-2.73-1.891-1.273-3.162-3.254-4.764-4.87a15.87 15.87 0 0 0-7.167-4.165 15.9 15.9 0 0 0-8.295.014 15.87 15.87 0 0 0-7.153 4.19 15.8 15.8 0 0 0-4.054 7.22c-.916 3.655-.29 7.977 2.6 10.412 3.358 2.818 8.33 2.193 12.626 1.315 4.297-.879 9.168-1.77 12.756.772 2.163 1.521 3.404 3.992 4.728 6.28 1.324 2.287 2.956 4.616 5.485 5.477s5.911-.625 6-3.26"/><path fill="#27272E" d="M126.189 64.948c-.284 2.152 1.277 4.08 2.831 5.601s3.31 3.13 3.588 5.307c.319 2.517-1.525 4.994-.987 7.476.337 1.574 1.566 2.783 2.311 4.216a8.96 8.96 0 0 1 .455 6.597c-.638 2.17-1.661 7.011-3.174 8.697-4.179 4.658-10.829 8.68-16.934 10.077s-12.454 1.409-18.708 1.026c-5.119-.313-11.012-.077-15.28-7.105-2.21-3.644-3.303-8.479-4.474-12.57-1.016-3.538-1.891-7.294-.839-10.808.591-2.04 1.85-3.862 2.453-5.897.757-2.558.479-5.306.78-7.942a18.2 18.2 0 0 1 2.96-8.06 18.25 18.25 0 0 1 6.33-5.814 18.3 18.3 0 0 1 16.718-.518"/><path fill="#FFBE9D" d="M80.664 73.775c.479-7.33 5.367-16.315 12.69-15.525l22.852 5.814a4.33 4.33 0 0 1 2.774 1.44 4.3 4.3 0 0 1 1.073 2.929l-2.571 54.999.16.03s-5.207 15.513-20.321 10.778c-2.997-.943-4.368-4.21-4.96-7.577h-.153v-1.179a36 36 0 0 1-.089-7.553c-.041-4.44-.035-6.256-.041-6.214s-9.386-1.581-11.302-13.803c-.975-6.032-.644-15.997-.112-24.14"/><path fill="#27272E" d="M84.347 81.139a1.56 1.56 0 0 0 1.507 1.586 1.51 1.51 0 0 0 1.625-1.41 1.566 1.566 0 0 0-1.513-1.585 1.5 1.5 0 0 0-1.47.835q-.131.272-.15.574m-1.53-2.176c.194.206 1.388-.672 3.079-.666 1.69.006 2.955.855 3.115.648.089-.088-.112-.46-.65-.849a4.27 4.27 0 0 0-2.489-.772 4.14 4.14 0 0 0-2.453.778c-.52.401-.703.767-.603.861m18.147 2.176a1.57 1.57 0 0 0 1.513 1.586 1.5 1.5 0 0 0 1.619-1.41 1.56 1.56 0 0 0-.429-1.099 1.57 1.57 0 0 0-1.078-.486 1.5 1.5 0 0 0-1.625 1.409m-1.525-1.829c.195.207 1.389-.665 3.079-.66s2.926.855 3.109.649c.089-.094-.106-.46-.65-.855a4.34 4.34 0 0 0-2.489-.772 4.15 4.15 0 0 0-2.447.784c-.52.395-.697.79-.603.855m-6.164 12.494c0-.095-1.04-.277-2.743-.501-.431-.042-.84-.13-.916-.425a2.17 2.17 0 0 1 .296-1.273l1.282-3.279c1.773-4.664 3.074-8.502 2.885-8.567s-1.774 3.65-3.547 8.32a414 414 0 0 0-1.23 3.296 2.47 2.47 0 0 0-.23 1.686 1.08 1.08 0 0 0 .71.63q.36.1.733.107c1.69.094 2.754.106 2.76.006"/><path fill="#EB996E" d="M92.06 111.764a31.2 31.2 0 0 0 16.414-4.334s-4.137 8.449-16.402 7.282zm1.921-15.891a3.03 3.03 0 0 1 2.73-1.12 2.77 2.77 0 0 1 1.922 1.032 1.77 1.77 0 0 1 .124 2.005 2.02 2.02 0 0 1-2.217.554 6.4 6.4 0 0 1-2.157-1.291 1.7 1.7 0 0 1-.479-.496.59.59 0 0 1 0-.63"/><path fill="#27272E" d="M98.243 92.984c-.272 0-.278 1.816-1.856 3.108-1.578 1.29-3.547 1.09-3.547 1.35 0 .112.438.354 1.26.377a4.56 4.56 0 0 0 2.955-1.02 3.97 3.97 0 0 0 1.436-2.606c.083-.766-.118-1.22-.248-1.209m.431-16.627c.166.46 1.856.248 3.836.49 1.98.241 3.588.784 3.854.377.118-.195-.16-.631-.81-1.073a6.3 6.3 0 0 0-2.849-1.003 6.4 6.4 0 0 0-3.002.342c-.727.295-1.094.649-1.029.867m-15.226-2.276c.301.383 1.466 0 2.867 0 1.4 0 2.583.26 2.86-.135.119-.195-.07-.59-.59-.944a4.145 4.145 0 0 0-4.611.13c-.49.371-.668.766-.526.95"/><path fill="#27272E" d="M124.758 104.27a10.88 10.88 0 0 1-9.554-2.69 10.83 10.83 0 0 1-3.384-9.31c.378-3 2.004-6.055.957-8.897-1.377-3.755-6.655-4.911-8.056-8.661-.816-2.176-.083-4.717-1.005-6.857-.869-2.011-2.985-3.167-5.048-3.91-2.062-.742-4.267-1.255-5.999-2.594s-2.808-3.874-1.69-5.755a116 116 0 0 1 26.763 6.486c2.004.743 4.102 1.64 5.285 3.414 1.253 1.875 1.182 4.299 1.087 6.55l-1.543 32.913"/><path fill="#42424F" d="M123.99 108.467s.077-.035.201-.123l.544-.413c.472-.372 1.182-.92 2.027-1.681a21 21 0 0 0 2.879-3.018 11.3 11.3 0 0 0 2.293-5.036 7.65 7.65 0 0 0-1.578-6.427 25 25 0 0 0-2.855-2.429 6.6 6.6 0 0 1-2.229-3.019c-.904-2.488-.502-5.371-.851-8.32a16.5 16.5 0 0 0-3.475-8.419 11.4 11.4 0 0 0-3.629-2.948 22.2 22.2 0 0 0-4.286-1.439 10 10 0 0 1-3.765-1.851 15 15 0 0 1-2.731-3.001c-1.536-2.182-2.677-4.505-4.137-6.445a13.8 13.8 0 0 0-2.412-2.553 9.3 9.3 0 0 0-2.86-1.556 6.13 6.13 0 0 0-5.444.542 5 5 0 0 0-1.933 3.656 3.66 3.66 0 0 0 .739 2.517c.14.183.308.344.496.478q.09.078.201.13a1.4 1.4 0 0 0-.165-.172 2.7 2.7 0 0 1-.444-.5 3.6 3.6 0 0 1-.59-2.436 4.8 4.8 0 0 1 1.897-3.431 5.8 5.8 0 0 1 5.142-.425c.99.34 1.913.854 2.725 1.515a14 14 0 0 1 2.317 2.5c1.418 1.905 2.536 4.228 4.096 6.486a15.2 15.2 0 0 0 2.814 3.12 10.4 10.4 0 0 0 3.883 1.916c1.441.328 2.846.802 4.191 1.415a10.9 10.9 0 0 1 3.463 2.83 16 16 0 0 1 3.381 8.137c.361 2.848-.053 5.778.911 8.425a7.16 7.16 0 0 0 2.364 3.225 25 25 0 0 1 2.819 2.359 7.26 7.26 0 0 1 1.537 6.073 11.04 11.04 0 0 1-2.151 4.912 22.7 22.7 0 0 1-2.784 3.048c-.834.778-1.508 1.35-1.957 1.769q-.34.275-.644.589"/><path fill="#27272E" d="M126.23 109.989c2.518-2.429 6.815-.318 8.931 2.465s3.612 6.379 6.821 7.782c3.21 1.404 7.377.195 10.049 2.424 3.712 3.078 1.625 10.206 5.644 12.883 1.59 1.061 3.695 1.026 5.397 1.899 4.013 2.063 3.966 7.712 3.345 12.175-.845 6.28-1.802 12.765-5.266 18.072s-10.208 9.015-16.202 6.975c-5.762-1.963-8.724-8.166-11.07-13.773q-4.859-11.663-9.729-23.273c-1.874-4.487-3.772-9.044-4.38-13.867s.207-10.024 3.286-13.809"/><path fill="#FF646E" d="M127.844 104.635c1.826-.218 3.227 2.016 2.742 3.791s-2.186 2.948-3.93 3.538a5.9 5.9 0 0 1-3.032.348 2.96 2.96 0 0 1-2.3-1.846 1.73 1.73 0 0 1 .84-2.293c1.182-.749 1.909-1.339 2.86-1.864 1.455-.796 1.366-.902 2.82-1.704m-42.102 19.694 7.104-5.372 26.782-1.709 1.076 3.584-8.713 54.222 6.875 64.693H81.504z"/><path fill="#27272E" d="M114.414 216.769c-.857-.914-2.257-2.164-3.505-2.194-8.948-.194-18.08-1.084-27.03-1.285l-.715 26.439c2.14-3.762 4.167-7.665 4.729-11.97.248-1.875.591-4.127 2.276-4.917.969-.454 2.11-.277 3.156-.065 3.233.637 6.443 1.468 9.729 1.675 3.286.206 6.732-.278 9.493-2.07a5.8 5.8 0 0 0 2.269-2.447 2.99 2.99 0 0 0-.402-3.166" opacity=".3"/><path fill="#FF646E" d="m91.534 125.395-.833-7.753a2.46 2.46 0 0 1 1.301-2.436c.29-.153.607-.247.933-.276l24.648-2.223a1.19 1.19 0 0 1 1.156.666c.068.142.107.296.115.454l.277 9.228-7.14 12.081-7.335 2.329h-8.973l-5.16-5.495z"/><path fill="#27272E" d="M115.49 120.095a8 8 0 0 1-.987-.1 18 18 0 0 0-2.683-.047 26 26 0 0 0-3.949.589c-1.472.307-3.073.737-4.77 1.15a31 31 0 0 1-4.852.861 12.6 12.6 0 0 1-4.026-.271 8.4 8.4 0 0 1-2.506-1.038 6 6 0 0 1-.591-.436c-.13-.107-.195-.171-.183-.177s.29.194.845.507c.783.43 1.626.744 2.5.931 1.298.272 2.63.339 3.949.201a32.6 32.6 0 0 0 4.805-.879c1.691-.407 3.298-.831 4.782-1.126a24 24 0 0 1 3.996-.507 14.3 14.3 0 0 1 2.713.142q.478.083.727.141c.147.024.236.047.23.059"/><path fill="#27272E" d="M92.12 121.315c-.663 1.81-.68 4.051.661 5.437 1.088 1.132 2.843 1.415 4.386 1.108a13.8 13.8 0 0 0 4.285-1.922c3.393-2.011 6.845-4.098 10.699-4.953.253-.03.493-.13.692-.289a.45.45 0 0 0 .145-.333.46.46 0 0 0-.145-.333.65.65 0 0 0-.32-.089c-3.41-.342-6.797.59-10.137 1.368s-6.915 1.28-10.137.118" opacity=".3"/><path fill="#27272E" d="M96.83 114.682a2.26 2.26 0 0 0-.845.802c-.39.625-.367 1.686-.337 2.83.065 2.294.443 4.127.354 4.127a4 4 0 0 1-.337-1.179 18.5 18.5 0 0 1-.325-2.948q-.032-.823.036-1.645c.033-.462.18-.91.425-1.303a1.7 1.7 0 0 1 .692-.619c.207-.083.331-.083.337-.065m6.514 6.74a35 35 0 0 0-.178-3.75c-.283-2.058-.969-3.621-.874-3.656.224.301.394.638.502.997a11.96 11.96 0 0 1 .757 5.312 3.3 3.3 0 0 1-.207 1.097m7.938-8.061c.219.268.378.58.467.914.267.791.377 1.626.325 2.459a6.3 6.3 0 0 1-.65 2.4 2.4 2.4 0 0 1-.591.843 8.12 8.12 0 0 0 .443-6.616z"/><path fill="#FAFAFC" d="M76.716 127.789s-8.405 5.613-10.64 15.755c-1.737 7.972-6.501 50.082-6.501 50.082l-8.329 16.168 5.438 12.9a19.92 19.92 0 0 0 13.063-3.72l3.659-2.653 6.708-9.924z"/><path fill="#FAFAFC" d="m90.96 120.349-14.244 7.441-3.363 11.02-2.997 31.951 5.639 37.459-9.895 31.385 17.064.124.408-18.396 1.703-59.552 1.672-37.936z"/><path fill="#27272E" d="M84.063 169.994q-.151-.213-.266-.448l-.71-1.303c-.295-.59-.59-1.309-.951-2.146-.171-.425-.32-.891-.49-1.38-.172-.489-.361-1.008-.509-1.562-1.342-4.417-2.228-10.79-2.04-17.819 0-.542.042-1.079.078-1.615v-.095l.088-.035 2.495-1.049-.036.259-2.494-1.999-.053-.041v-.059a21.5 21.5 0 0 1 1.135-7.105 59 59 0 0 1 1.915-5.348 64 64 0 0 1 1.5-3.402c.19-.395.338-.696.438-.89q.073-.158.172-.301a1.4 1.4 0 0 1-.124.318l-.397.914c-.342.79-.839 1.952-1.418 3.432a62 62 0 0 0-1.844 5.348 21.5 21.5 0 0 0-1.082 7.01l-.059-.1 2.5 1.987.195.159-.23.101-2.495 1.049.095-.13a46 46 0 0 0-.077 1.604c-.183 6.999.662 13.343 1.945 17.742.136.56.319 1.073.479 1.562s.301.961.473 1.386c.348.837.59 1.574.898 2.152l.65 1.327q.126.231.219.477m-11.183 22.37a4 4 0 0 1-.136-.459l-.337-1.345a44 44 0 0 1-.48-2.128c-.165-.832-.383-1.769-.549-2.848-.165-1.079-.39-2.217-.55-3.467s-.319-2.594-.466-4.004a101 101 0 0 1-.432-9.227c0-3.278.195-6.398.461-9.222.16-1.409.296-2.753.49-4.003.196-1.25.367-2.412.556-3.467s.39-2.005.591-2.842.343-1.551.491-2.129.254-1.008.343-1.338q.052-.238.136-.466a2.7 2.7 0 0 1-.077.478l-.284 1.35c-.13.589-.29 1.303-.437 2.14s-.36 1.769-.52 2.848-.367 2.211-.515 3.461c-.147 1.25-.313 2.588-.46 3.992a110 110 0 0 0-.438 9.204c-.012 3.272.166 6.373.402 9.198.148 1.403.266 2.747.443 3.991.178 1.245.337 2.412.509 3.467.17 1.056.354 2.011.502 2.848.148.838.301 1.557.431 2.141.13.583.213 1.014.278 1.35q.05.236.047.477m3.854 28.762a6 6 0 0 1-.691 1.433 23.2 23.2 0 0 1-4.853 5.908 6.4 6.4 0 0 1-1.27.961q.521-.6 1.122-1.12a35 35 0 0 0 2.583-2.789 34 34 0 0 0 2.235-3.072q.391-.691.874-1.321"/><path fill="#FAFAFC" d="M142.213 126.876a19.6 19.6 0 0 1 7.751 5.461 19.55 19.55 0 0 1 4.271 8.454c4.664 20.495 12.638 47.759 12.768 56.562.153 11.203-4.729 18.868-11.166 20.283-5.071 1.12-51.021-1.392-51.021-1.392l-2.152-17.099 37.238-5.465-5.095-28.349 5.042-39.34z"/><path fill="#FAFAFC" d="m139.849 125.962-10.291-4.192-10.846-6.345-.065 1.858a10.86 10.86 0 0 1 1.306 7.523l-9.043 46.969 2.045 34.322 4.202 33.608h32.634l-14.984-35.17 5.29-47.4z"/><path fill="#27272E" d="m149.383 217.925-.225.029-.656.065c-.591.059-1.436.053-2.548.083-2.21 0-5.426-.048-9.427-.177-7.998-.266-19.127-.802-31.7-1.527h-.124v-.13c-.254-2.034-.526-4.181-.798-6.356-.467-3.685-.916-7.282-1.347-10.72v-.147h.141l28.419-4.127 8.346-1.18 2.241-.3.591-.077h.201l-.195.041-.592.101-2.234.353-8.328 1.268-28.372 4.228.124-.171c.438 3.443.893 7.034 1.354 10.719.278 2.182.544 4.328.798 6.362l-.142-.13c12.566.731 23.702 1.303 31.694 1.628 3.995.153 7.205.241 9.415.271 1.106 0 1.969 0 2.542-.036l.656-.035z"/><path fill="#27272E" d="M134.505 162.429q.063.153.083.319c.047.241.106.536.177.908.154.831.361 1.969.591 3.355.503 2.877 1.183 6.774 1.939 11.084.757 4.311 1.371 8.22 1.856 11.103.219 1.391.396 2.529.526 3.367l.13.919q.02.163 0 .325a1.1 1.1 0 0 1-.088-.313q-.07-.36-.184-.908c-.153-.837-.366-1.969-.626-3.355-.514-2.836-1.182-6.751-1.939-11.085a777 777 0 0 1-1.85-11.102c-.213-1.392-.39-2.535-.52-3.373a57 57 0 0 0-.124-.919 1.5 1.5 0 0 1 .029-.325m-11.059-43.678s0 .041.042.118l.094.342c.077.306.207.748.331 1.338.361 1.667.621 3.355.78 5.053.241 2.563.307 5.14.195 7.712-.1 2.948-.407 6.174-.851 9.611v.106h-.106l-3.387.625.112-.206c.195.519.39 1.073.544 1.645a20.86 20.86 0 0 1-.384 11.385 35.6 35.6 0 0 1-3.948 8.491c-1.407 2.276-2.672 4.021-3.547 5.23l-1.022 1.38c-.107.147-.201.259-.272.353a.5.5 0 0 1-.101.118s0-.047.077-.135l.248-.372c.237-.342.591-.813.97-1.415.845-1.226 2.086-2.989 3.457-5.271a36.3 36.3 0 0 0 3.866-8.455c.975-3.343 1.436-7.317.361-11.203a17 17 0 0 0-.532-1.615l-.065-.171.183-.036 3.363-.619-.124.13c.449-3.426.774-6.657.887-9.582a59 59 0 0 0-.125-7.665 47 47 0 0 0-.691-5.053c-.107-.589-.225-1.037-.278-1.344-.03-.141-.053-.254-.071-.348a.4.4 0 0 1-.006-.147"/><path fill="#FF646E" d="M123.446 166.917v-7.483s.095-1.845-1.466-1.456-1.27 3.308-1.27 3.308-.29 11.385.39 11.291.945-.973.945-.973v-4.381z"/><path fill="#27272E" d="M129.936 167.383a26 26 0 0 1-4.025.153 26 26 0 0 1-4.025-.153 27 27 0 0 1 4.025-.154 27 27 0 0 1 4.025.154m14.842-36.061a5.6 5.6 0 0 1-.839.312 19 19 0 0 0-2.235.961 17.4 17.4 0 0 0-6.04 5.136q-.676.912-1.182 1.928-.439.96-.71 1.981a19.5 19.5 0 0 0-.591 3.538c-.083 1.02-.1 1.857-.106 2.429q.025.448 0 .896a3.6 3.6 0 0 1-.118-.861 21 21 0 0 1 0-2.447 18 18 0 0 1 .537-3.596c.179-.7.418-1.383.716-2.04q.517-1.044 1.211-1.982a16.7 16.7 0 0 1 6.195-5.147 15.4 15.4 0 0 1 2.287-.884 4.3 4.3 0 0 1 .875-.224M12.342 193.626 66.1 213.485l45.318 6.91-53.883-26.202z"/><path fill="#FFBE9D" d="M35.347 215.041a22.8 22.8 0 0 0-2.873-8.125 5.9 5.9 0 0 1-.733-1.527 1.73 1.73 0 0 1 .301-1.598c.692-.749 1.951-.419 2.802.147a9.83 9.83 0 0 1 3.618 5.059 29.3 29.3 0 0 1 1.182 6.197"/><path fill="#FFBE9D" d="M56.3 209.935h-2.672a5.24 5.24 0 0 0-2.364-1.344 1.86 1.86 0 0 0-1.773.69c1.182-1.964 2.482-4.127 2.73-4.717.48-1.15-.59-2.011-2.31-2.011s-9.334 10.749-9.334 10.749 4.729-8.65 5.184-9.97c1.147-3.302-2.477-3.538-3.789-1.952-1.631 1.975-8.221 11.922-8.221 11.922s-1.254 2.017-.39 3.933c.862 1.916 3.369 1.179 3.369 1.179a3.22 3.22 0 0 0 1.773 2.665c1.927 1.073 4.468-.171 4.468-.171l9.854 2.205 3.546-.353a10.94 10.94 0 0 0 6.451-2.958 10.9 10.9 0 0 0 3.266-6.288z"/><path fill="#EB996E" d="M49.674 209.127c.112.071-1.182 2.123-2.896 4.588-.851 1.232-1.638 2.358-2.223 3.125q-.433.67-.993 1.238.34-.721.816-1.362a168 168 0 0 1 2.145-3.178 168 168 0 0 1 2.2-3.137l.685-.937a2.4 2.4 0 0 1 .266-.337m-.591 10.944a9.7 9.7 0 0 1 .875-1.604 589 589 0 0 1 2.317-3.744c.455-.725.892-1.421 1.247-2.064a2.38 2.38 0 0 0 .219-1.822 4.5 4.5 0 0 0-.84-1.562s.16.082.379.318c.308.339.536.742.668 1.18a2.55 2.55 0 0 1-.172 2.01c-.355.666-.786 1.368-1.235 2.099a149 149 0 0 1-2.4 3.697q-.476.784-1.058 1.492"/><path fill="#EB996E" d="M54.255 221.049a5.5 5.5 0 0 1 .526-1.527l.703-1.603q.441-.96.722-1.976a2.31 2.31 0 0 0-.314-1.916 1.8 1.8 0 0 0-.703-.501 2 2 0 0 0-.733-.207 3 3 0 0 0-1.058.372c-.123.078-.26.134-.402.165 0 0 .112-.112.343-.271q.214-.144.443-.266c.207-.118.437-.192.674-.218.29.007.575.071.84.189.313.114.594.304.815.554a2.53 2.53 0 0 1 .39 2.164 11.3 11.3 0 0 1-.762 2.028c-.278.59-.544 1.127-.763 1.575a15 15 0 0 1-.72 1.438m1.814-9.28q.22.019.413.124a4.8 4.8 0 0 1 1.029.589 5.58 5.58 0 0 1 1.59 7.111q-.272.534-.668.985c-.19.206-.313.3-.325.289s.39-.484.798-1.368a5.67 5.67 0 0 0-1.531-6.846 14 14 0 0 0-1.306-.884m-17.319-5.643a29 29 0 0 1-2.228 3.538 28 28 0 0 1-2.477 3.425 28 28 0 0 1 2.223-3.537 28.6 28.6 0 0 1 2.482-3.426"/><path fill="#FFBE9D" d="m102.528 199.805-6.147-1.385-5.91-5.549a4.23 4.23 0 0 0-2.637-1.132l-10.74-.589a4.17 4.17 0 0 0-2.955.979l-7.684 6.485 33.52 16.244 4.598.407z"/><path fill="#EB996E" d="M84.317 196.946c0 .047-.792-.094-2.068-.26-1.277-.165-3.098-.312-4.865.507-.823.396-1.6.881-2.317 1.445-.68.507-1.289.979-1.826 1.338a9.6 9.6 0 0 1-1.33.773q-.25.136-.526.194c0-.047.703-.371 1.731-1.143.515-.378 1.106-.867 1.774-1.392a12.2 12.2 0 0 1 2.364-1.498 7 7 0 0 1 2.742-.589c.763-.012 1.525.047 2.276.177.644.1 1.182.218 1.501.306q.285.025.544.142m2.205 5.967c0 .047-.438-.148-1.182-.218a6.1 6.1 0 0 0-2.76.383 14 14 0 0 0-2.53 1.291 5.3 5.3 0 0 1-1.047.59c.27-.297.58-.555.922-.767a11 11 0 0 1 2.548-1.397 5.66 5.66 0 0 1 2.896-.313c.418.031.818.18 1.153.431m13.825.99c-.077.047-.94-1.238-2.08-2.759s-2.123-2.718-2.058-2.777a13.8 13.8 0 0 1 2.3 2.594 13.5 13.5 0 0 1 1.838 2.942"/><path fill="#FF646E" d="m83.43 191.757 13.595-12.647a1.3 1.3 0 0 0 .414-1.013 1.29 1.29 0 0 0-.508-.969 1.3 1.3 0 0 0-1.661.065l-15.96 14.281"/><path fill="#27272E" d="m83.43 191.757 13.595-12.647a1.3 1.3 0 0 0 .414-1.013 1.29 1.29 0 0 0-.508-.969 1.3 1.3 0 0 0-1.661.065l-15.96 14.281" opacity=".3"/><path fill="#B78876" d="M194.688 69.859c-.212-.082-8.458-2.24-7.961 6.079.496 8.32 8.765 6.103 8.771 5.86.006-.24-.81-11.939-.81-11.939"/><path fill="#AA6550" d="M192.761 78.803c-.041-.029-.142.107-.378.236a1.45 1.45 0 0 1-1.088.083c-.898-.266-1.725-1.616-1.856-3.113-.064-.7.025-1.407.261-2.07a1.67 1.67 0 0 1 1.028-1.18.74.74 0 0 1 .881.349c.124.224.082.395.124.406s.171-.153.083-.489a.9.9 0 0 0-.361-.501 1.07 1.07 0 0 0-.816-.165 2.04 2.04 0 0 0-1.436 1.38 4.84 4.84 0 0 0-.366 2.358c.153 1.675 1.111 3.19 2.334 3.467a1.57 1.57 0 0 0 1.318-.3c.266-.26.302-.449.272-.46"/><path fill="#27272E" d="M215.506 40.148c4.238 0 8.553 0 13.855 2.765 3.345 1.77 5.426 4.5 7.169 7.836a18 18 0 0 1 1.975 8.78c-.154 2.877-.166 4.888-1.319 7.53"/><path fill="#B78876" d="M213.81 40.803a22.5 22.5 0 0 1 16.474 5.563 22.4 22.4 0 0 1 5.354 7.055 22.4 22.4 0 0 1 2.199 8.572c.544 10.419 1.023 21.687.91 27.359-.248 12.181-12.477 13.98-12.477 13.98s.271 3.608.591 8.089a16.02 16.02 0 0 1-4.099 11.803 16.11 16.11 0 0 1-22.888 1.028 16.03 16.03 0 0 1-5.132-11.168l-1.815-49.092a22.38 22.38 0 0 1 5.738-15.824 22.48 22.48 0 0 1 15.162-7.377z"/><path fill="#AA6550" d="M226.27 103.332s-7.507.389-15.664-4.817c0 0 3.695 8.844 15.883 7.865z"/><path fill="#27272E" d="M233.156 68.768a1.733 1.733 0 0 1-1.691 1.77 1.66 1.66 0 0 1-1.773-1.581 1.775 1.775 0 0 1 1.69-1.769 1.67 1.67 0 0 1 1.774 1.58m1.696-2.464c-.219.224-1.531-.761-3.411-.773-1.879-.012-3.256.92-3.457.69-.101-.106.124-.513.727-.943a4.73 4.73 0 0 1 2.772-.826 4.55 4.55 0 0 1 2.707.896c.573.443.768.855.662.956m-20.097 2.464c.01.459-.163.903-.481 1.234a1.74 1.74 0 0 1-1.215.535 1.67 1.67 0 0 1-1.613-.944c-.095-.2-.15-.416-.16-.636a1.774 1.774 0 0 1 1.696-1.769 1.68 1.68 0 0 1 1.612.945c.095.199.15.415.161.635m1.649-2.258c-.218.224-1.537-.76-3.41-.772s-3.257.914-3.464.684c-.095-.1.124-.513.733-.944a4.8 4.8 0 0 1 2.772-.825c.975.006 1.922.32 2.707.896.556.448.769.855.662.961m6.697 13.915c0-.106 1.182-.295 3.05-.525.479-.047.934-.135 1.017-.46a2.4 2.4 0 0 0-.308-1.42c-.437-1.18-.904-2.359-1.389-3.65-1.927-5.2-3.316-9.47-3.103-9.546.213-.077 1.945 4.074 3.866 9.275.467 1.279.91 2.5 1.33 3.673.297.578.38 1.241.236 1.875a1.23 1.23 0 0 1-.798.696 3.7 3.7 0 0 1-.81.106c-1.903.1-3.085.1-3.091-.024m-5.532 1.268c.307 0 .29 2.016 2.021 3.473 1.732 1.456 3.907 1.25 3.919 1.533 0 .13-.49.395-1.406.412a5.1 5.1 0 0 1-3.269-1.179 4.43 4.43 0 0 1-1.566-2.913c-.071-.825.159-1.338.301-1.326m-.627-22.494c-.189.507-2.057.254-4.261.501-2.205.248-3.99.831-4.28.371-.124-.218.189-.695.91-1.179a7.48 7.48 0 0 1 6.502-.66c.81.3 1.212.702 1.129.967m17.644.442c-.331.425-1.62-.03-3.174-.059-1.555-.03-2.873.26-3.174-.189-.13-.218.077-.642.656-1.037a4.6 4.6 0 0 1 5.119.2c.543.442.721.879.573 1.085"/><path fill="#27272E" d="M193.051 67.807s.532 2.819.674 4.087c.053.465 0 5.624 1.247 5.896 1.082.224 3.227-.761 4.185-2.895s2.778-7.259 2.577-9.588c-.266-3.172-.414-6.403.225-9.528.638-3.125 2.133-6.167 4.645-8.137 2.513-1.969 6.148-2.647 9.008-1.22 1.774.884 3.08 2.447 4.729 3.538a7.35 7.35 0 0 0 5.036 1.303 4.74 4.74 0 0 0 2.408-1.032 4.7 4.7 0 0 0 1.487-2.152c.52-1.858-.437-3.892-1.933-5.124s-3.416-1.798-5.319-2.176a28.67 28.67 0 0 0-15.853 1.109c-5.006 1.94-9.457 5.666-11.585 10.578-2.471 5.678-2.187 9.162-1.531 15.33"/><path fill="#27272E" d="M220.962 68.845a14 14 0 0 0-.32-2.005 8.25 8.25 0 0 0-3.02-4.487 8.1 8.1 0 0 0-3.446-1.51 8.25 8.25 0 0 0-4.291.36 7.6 7.6 0 0 0-2.057 1.115 7.5 7.5 0 0 0-1.726 1.727 8.1 8.1 0 0 0 0 9.605 7.7 7.7 0 0 0 1.726 1.728 7.6 7.6 0 0 0 2.057 1.108c1.372.5 2.853.626 4.291.366a8.1 8.1 0 0 0 3.446-1.516 8.25 8.25 0 0 0 3.026-4.48q.227-.996.314-2.011a.4.4 0 0 1 0 .135v.395q.004.325-.054.643-.042.437-.153.861a8.25 8.25 0 0 1-3.009 4.634 8.39 8.39 0 0 1-7.962 1.239 7.8 7.8 0 0 1-2.139-1.138 7.9 7.9 0 0 1-1.774-1.77 8.38 8.38 0 0 1 0-9.964 8.53 8.53 0 0 1 3.931-2.948 8.5 8.5 0 0 1 4.427-.348 8.36 8.36 0 0 1 3.547 1.592 8.25 8.25 0 0 1 3.008 4.629q.112.427.154.866.057.316.053.637v.395c-.018.1-.024.142-.029.142m21.497 0a15 15 0 0 0-.319-2.005 8.25 8.25 0 0 0-3.026-4.487 8.1 8.1 0 0 0-3.446-1.51 8.23 8.23 0 0 0-4.286.36 8.2 8.2 0 0 0-3.783 2.843 8.08 8.08 0 0 0 0 9.604 7.7 7.7 0 0 0 1.72 1.728 7.5 7.5 0 0 0 2.063 1.109 8.24 8.24 0 0 0 4.286.365 8.1 8.1 0 0 0 3.446-1.515 8.25 8.25 0 0 0 3.026-4.481q.226-.996.319-2.011.004.067 0 .136v.395a4 4 0 0 1-.047.642 5.6 5.6 0 0 1-.16.861 8.2 8.2 0 0 1-3.008 4.635 8.3 8.3 0 0 1-3.547 1.586 8.4 8.4 0 0 1-4.433-.348 8.36 8.36 0 0 1-3.925-2.948 8.35 8.35 0 0 1 0-9.965 7.9 7.9 0 0 1 1.774-1.769 8 8 0 0 1 2.139-1.144 8.54 8.54 0 0 1 4.433-.348 8.3 8.3 0 0 1 3.547 1.592 8.2 8.2 0 0 1 3.008 4.629q.114.427.16.867.05.316.047.637v.395q.01.073.012.147"/><path fill="#27272E" d="M226.057 67.96c0 .047-.302-.106-.769-.26a5 5 0 0 0-1.897-.247 5.2 5.2 0 0 0-1.832.484c-.444.218-.692.407-.722.365-.029-.041.178-.277.592-.554a4.27 4.27 0 0 1 3.901-.26c.514.225.75.449.727.472m3.328-20.554c.124-.63-.089-.984.271-1.244.361-.26 1.183.484 1.454.79.095.1.379-.289.491-.36.123-.252.196-.527.213-.807-.053-.442-.745-.59-1.07-.861a3.3 3.3 0 0 0-1.153-.654 1.11 1.11 0 0 0-1.099.064 1.07 1.07 0 0 0-.248.826c-.002.295.054.587.165.86.111.276.323.499.591.626"/><path fill="#FAFAFC" d="M192.596 61.333s5.987 2.188 9.102 3.509l-.177-3.055-8.706-3.437s-.225 2.27-.219 2.983m.561-4.746a34.5 34.5 0 0 1 4.238 1.621 33.5 33.5 0 0 1 4.138 1.905 34.5 34.5 0 0 1-4.238-1.622 33.5 33.5 0 0 1-4.138-1.904"/><path fill="#FF646E" d="m194.96 120.926-.461-14.452s2.879 13.225 17.957 13.054c14.405-.165 14.144-11.651 14.144-11.651l.515 5.826v23.532l-9.398 38.39-12.005 1.497-13.264-52.476z"/><path fill="#27272E" d="M225.259 116.303a1.5 1.5 0 0 1-.172.307q-.27.436-.591.837a12.4 12.4 0 0 1-2.683 2.595 15.5 15.5 0 0 1-5.012 2.358c-2.205.59-4.503.748-6.768.466a22 22 0 0 1-6.502-1.952 28.4 28.4 0 0 1-4.729-2.853q-1.501-1.1-2.872-2.359c-.325-.295-.562-.542-.727-.707a1.6 1.6 0 0 1-.237-.26q.151.095.278.218l.768.661c.662.589 1.644 1.373 2.92 2.287a29.5 29.5 0 0 0 4.729 2.772 22.1 22.1 0 0 0 6.413 1.898c2.224.279 4.481.133 6.65-.43a15.9 15.9 0 0 0 4.965-2.253 13.3 13.3 0 0 0 2.713-2.488c.567-.707.833-1.114.857-1.097"/><path fill="#FAFAFC" d="m214.797 239.687-.219-68.219-19.423-49.77-.65-14.982-11.821 8.927s-17.218 59.121-17.508 57.081 0 66.963 0 66.963z"/><path fill="#27272E" d="M214.329 239.499c-.082 0-.153-15.372-.153-34.334s.071-34.333.153-34.333c.083 0 .154 15.371.154 34.333s-.071 34.334-.154 34.334"/><path fill="#FAFAFC" d="m182.843 125.36 2.4 1.816-1.685 11.038 28.348 29.622-25.747-33.732 2.193-8.744z"/><path fill="#FAFAFC" d="m215.861 204.74-43.509-12.724-1.442-32.965 11.933-43.432s-28.442 14.157-30.381 23.178-6.602 30.908-7.093 46.739c-.443 14.151-.508 23.585 2.731 28.131 9.28 12.936 70.421 15.248 94.844 0"/><path fill="#27272E" d="M212.456 168.55s-.053-.048-.142-.16c-.088-.112-.23-.283-.39-.483l-1.478-1.887a4674 4674 0 0 1-5.39-6.981l-17.691-23.095-1.33-1.769-.047-.059v-.071c.756-3.019 1.495-5.949 2.199-8.744l.141.189h-5.65v-9.941l.047-.036 8.553-6.486 2.364-1.768.591-.454q.101-.084.219-.142l-.195.171-.591.478-2.311 1.804-8.488 6.568.047-.094v9.74l-.142-.135h5.746l-.048.189-2.187 8.744-.029-.13 1.336 1.739 17.614 23.155 5.319 7.034c.591.825 1.094 1.468 1.431 1.922.153.212.272.383.366.507z"/><path fill="#FAFAFC" d="M231.849 113.048c-3.47-6.049-5.272-5.424-5.272-5.424l.183 2.158v4.534l-1.649 19.457-10.539 42.27.219 63.644h39.844l4.959-77.688-.449-33.473z"/><path fill="#FAFAFC" d="M259.151 128.526s10.314 7.594 11.23 19.817c.727 9.924 2.365 37.099 2.69 43.013.473 9.21-6.721 30.784-25.446 24.676-11.23-3.668-52.712-17.73-52.712-17.73l2.76-17.577 49.237 2.948.981-40.967z"/><path fill="#B78876" d="M197.088 182.747s-13.937-1.503-17.141-.725c-3.103.749-7.518 4.534-7.518 4.534l.065 5.49 22.419 6.256z"/><path fill="#27272E" d="M214.578 169.688a1 1 0 0 1 .065-.189q.072-.205.207-.542c.195-.496.479-1.18.833-2.076l3.121-7.618 4.658-11.285c.443-1.055.88-2.158 1.43-3.237a68 68 0 0 1 1.773-3.237 72 72 0 0 1 4.422-6.368 72 72 0 0 1 2.453-3.007v.159l-1.738-4.404-.059-.148.147-.053 7.253-2.447-.077.201c-3.369-5.613-6.212-10.354-8.234-13.715-.993-1.662-1.844-2.995-2.748-3.537a3.8 3.8 0 0 0-1.099-.443 4 4 0 0 1-.408-.1q.209.014.413.053c.402.072.788.214 1.141.419a5 5 0 0 1 1.395 1.35 24 24 0 0 1 1.448 2.17l8.334 13.667.089.148-.165.053-7.253 2.482.089-.195 1.743 4.405.036.082-.065.071a70 70 0 0 0-2.435 2.995 73 73 0 0 0-4.41 6.321c-.632 1.073-1.253 2.129-1.773 3.208a65 65 0 0 0-1.424 3.213c-1.774 4.234-3.381 8.048-4.729 11.262-1.348 3.213-2.447 5.772-3.21 7.576-.378.879-.679 1.569-.886 2.058-.101.224-.178.395-.243.531a.8.8 0 0 1-.094.177m50.23 42.924a1.2 1.2 0 0 1-.172.183l-.532.513c-.7.638-1.458 1.211-2.264 1.71a15.1 15.1 0 0 1-4.137 1.733 16.7 16.7 0 0 1-5.911.377 18.6 18.6 0 0 1-3.399-.719c-1.182-.365-2.317-.819-3.546-1.244-2.429-.884-5.042-1.769-7.785-2.759a977 977 0 0 0-17.939-6.068c-12.767-4.18-24.411-7.706-32.852-10.224l-10.001-2.948-2.719-.807-.703-.213a1.3 1.3 0 0 1-.236-.088l.248.053.709.189 2.737.748c2.364.661 5.798 1.634 10.048 2.86a1044 1044 0 0 1 32.882 10.142c6.389 2.087 12.448 4.127 17.939 6.084 2.742.973 5.349 1.899 7.778 2.789 1.218.437 2.365.897 3.547 1.262 1.092.346 2.214.589 3.351.725 1.958.24 3.944.13 5.864-.324a15.6 15.6 0 0 0 4.137-1.669 17 17 0 0 0 2.282-1.656l.549-.49q.057-.084.125-.159m-92.338-20.466c0 .065-.786-.106-2.034-.053a9 9 0 0 0-2.151.354 9.8 9.8 0 0 0-2.423 1.102 11.3 11.3 0 0 0-3.376 3.456c-.656 1.061-.945 1.769-.998 1.769q.047-.274.165-.525.269-.705.65-1.356a10.55 10.55 0 0 1 3.393-3.603 9.5 9.5 0 0 1 2.512-1.114 8.7 8.7 0 0 1 2.223-.301 7.2 7.2 0 0 1 1.501.136q.279.03.538.135m-13.707-4.304s0-.059.053-.159q.107-.213.272-.383a2.8 2.8 0 0 1 1.549-.767 7.9 7.9 0 0 1 2.553 0c1.034.136 2.051.383 3.032.737a13.3 13.3 0 0 1 4.806 2.948q.614.604 1.117 1.303.196.249.325.537c-.053.041-.538-.714-1.59-1.681a14.1 14.1 0 0 0-4.764-2.8 16 16 0 0 0-2.956-.749 8.4 8.4 0 0 0-2.482-.071c-.55.063-1.07.284-1.496.637-.295.254-.396.46-.419.448M175.006 150a4.5 4.5 0 0 1-.201-.89c-.089-.283-.213-.619-.349-1.008-.136-.39-.372-.814-.644-1.262a18 18 0 0 0-2.217-2.948 24 24 0 0 0-3.399-2.984 20.5 20.5 0 0 0-7.429-3.402 15.5 15.5 0 0 0-2.477-.318 5.6 5.6 0 0 1-.916-.071q.459-.065.922-.047c.843-.01 1.684.065 2.512.224a19.5 19.5 0 0 1 7.566 3.367 22.3 22.3 0 0 1 3.428 3.036 17 17 0 0 1 2.199 3.031c.266.466.437.92.591 1.303s.236.754.307 1.043q.088.46.107.926m82.602 50.389a1 1 0 0 1 0-.212v-.619c0-.543-.041-1.339-.118-2.359a33 33 0 0 0-1.773-8.496 12 12 0 0 0-1.182-2.595 5.1 5.1 0 0 0-2.306-1.951c-1.98-.849-4.362-.737-6.785-.873l-15.865-.666c-13.11-.59-24.772-1.061-32.101-1.451l.101-.082c-.444 2.689-.798 4.817-1.041 6.297q-.184 1.07-.289 1.663c-.03.177-.059.318-.077.43l-.036.142a.7.7 0 0 1 0-.148l.059-.43c.054-.395.136-.955.237-1.675.225-1.48.544-3.614.952-6.309v-.082h.088l32.102 1.332 15.864.714c1.218.059 2.406.088 3.546.183 1.137.063 2.256.314 3.31.743a5.35 5.35 0 0 1 2.424 2.022c.5.833.897 1.724 1.182 2.653a31.8 31.8 0 0 1 1.679 8.55c.065 1.026.065 1.828.059 2.358v.619c-.024.165-.03.242-.03.242"/><path fill="#27272E" d="M248.216 161.934c.082 0 .153 4.758.153 10.613s-.071 10.613-.153 10.613c-.083 0-.154-4.758-.154-10.613s.071-10.613.154-10.613m-95.411-24.215s-.036.135-.119.389c-.082.253-.23.636-.354 1.179-.29 1.02-.656 2.541-1.064 4.528-.822 3.974-1.832 9.788-2.955 17.064-.562 3.644-1.183 7.665-1.774 11.975-.301 2.164-.49 4.416-.644 6.751a254 254 0 0 0-.372 7.217c-.178 4.959-.284 10.195-.142 15.649.047 1.362.094 2.741.207 4.127.035.696.153 1.38.236 2.069q.19 1.036.502 2.04a11.6 11.6 0 0 0 1.963 3.733 8.4 8.4 0 0 0 3.357 2.582 51.5 51.5 0 0 0 8.766 3.338c3.056.913 6.212 1.651 9.416 2.305a130 130 0 0 0 21.16 2.571c3.37.086 6.741 0 10.102-.26 3.292-.23 6.501-.589 9.605-1.032a101 101 0 0 0 17.235-3.997 88 88 0 0 0 13.938-5.967v.194l-19.068-6.762-5.148-1.834-1.33-.484c-.302-.112-.45-.177-.45-.177l.456.148 1.341.454 5.166 1.769 19.151 6.662.231.077-.213.118a88 88 0 0 1-13.967 6.02 101 101 0 0 1-17.277 4.039c-3.109.466-6.325.814-9.623 1.044-3.37.263-6.752.353-10.131.271a129.7 129.7 0 0 1-21.214-2.571c-3.215-.66-6.378-1.397-9.457-2.311a52.4 52.4 0 0 1-8.819-3.367 8.7 8.7 0 0 1-3.499-2.677 11.9 11.9 0 0 1-2.004-3.832 17 17 0 0 1-.514-2.076c-.089-.707-.201-1.403-.236-2.099-.113-1.391-.16-2.777-.201-4.127-.142-5.472 0-10.708.165-15.672q.143-3.715.384-7.223c.16-2.359.355-4.599.662-6.763.591-4.334 1.218-8.337 1.774-11.975 1.182-7.276 2.21-13.084 3.067-17.052.426-1.987.804-3.508 1.111-4.528.13-.513.296-.891.379-1.144a1.1 1.1 0 0 1 .201-.383"/><path fill="#FAFAFC" d="M172.405 188.072c7.276-8.036 6.957-22.323 2.778-32.458-.384 10.978-1.685 20.719-2.678 31.391"/><path fill="#27272E" d="M175.201 157.665q.018.177 0 .354c0 .265-.036.589-.065 1.002-.071.914-.166 2.164-.29 3.685-.26 3.149-.591 7.424-.999 12.152l-.958 12.158a941 941 0 0 1-.277 3.685l-.089.997a2.4 2.4 0 0 1-.047.348 1.1 1.1 0 0 1 0-.348c0-.265 0-.59.029-1.008.03-.873.095-2.135.178-3.691.183-3.114.478-7.418.868-12.164a707 707 0 0 1 1.094-12.146c.16-1.522.29-2.766.384-3.68q.08-.608.124-.996 0-.178.048-.348m17.933-14.516a62 62 0 0 1 .153 6.232 62 62 0 0 1-.153 6.232c-.083 0-.154-2.795-.154-6.232s.071-6.232.154-6.232"/><path fill="#FAFAFC" d="M188.393 163.85a6.37 6.37 0 0 0 1.342 3.302c.686.89 2.075 1.769 3.192 1.692a4.88 4.88 0 0 0 4.297-2.152c1.359-2.158 1.696-6.657.591-9.316-.751-1.828-2.435-3.538-4.415-3.579-2.601-.059-4.233 1.816-4.788 3.715"/><path fill="#27272E" d="M188.624 157.512a4 4 0 0 1 .479-1.274c.257-.474.586-.905.975-1.279a4.6 4.6 0 0 1 1.844-1.073c.401-.123.816-.19 1.235-.201.459-.025.918.035 1.354.177a5.3 5.3 0 0 1 2.412 1.728 6.94 6.94 0 0 1 1.424 2.948c.245 1.148.333 2.324.26 3.496-.118 1.846-.485 3.685-1.507 5.089a4.6 4.6 0 0 1-1.962 1.474 5.3 5.3 0 0 1-2.223.371 3.3 3.3 0 0 1-1.59-.389 5.4 5.4 0 0 1-1.182-.837 6 6 0 0 1-1.3-1.934 5.5 5.5 0 0 1-.414-1.433 3 3 0 0 1-.036-.389.4.4 0 0 1 0-.136c.121.654.319 1.292.591 1.899a6 6 0 0 0 1.313 1.845c.356.312.754.574 1.182.779.456.235.964.354 1.477.347a4.73 4.73 0 0 0 3.931-1.768c.952-1.315 1.318-3.125 1.431-4.93.13-2.358-.266-4.681-1.596-6.25a5.1 5.1 0 0 0-2.294-1.645 3.7 3.7 0 0 0-1.271-.182 4.43 4.43 0 0 0-2.955 1.167c-.386.353-.719.76-.987 1.209a12 12 0 0 0-.591 1.191"/><path fill="#FAFAFC" d="M187.01 163.968a6.4 6.4 0 0 0 1.342 3.302c.68.89 2.075 1.769 3.192 1.692a4.88 4.88 0 0 0 4.297-2.152c1.359-2.164 1.696-6.657.591-9.316-.751-1.834-2.435-3.538-4.415-3.579a4.9 4.9 0 0 0-3.04 1.025 4.87 4.87 0 0 0-1.748 2.684"/><path fill="#27272E" d="M187.241 157.624c.086-.447.248-.875.479-1.268.257-.474.586-.905.975-1.279a4.57 4.57 0 0 1 3.079-1.274c.459-.024.917.036 1.354.177a5.3 5.3 0 0 1 2.412 1.728 6.9 6.9 0 0 1 1.418 2.948c.25 1.147.34 2.324.266 3.496-.118 1.846-.485 3.679-1.507 5.089a4.6 4.6 0 0 1-1.963 1.474 5.3 5.3 0 0 1-2.222.371 3.3 3.3 0 0 1-1.59-.395c-.431-.22-.829-.5-1.182-.831a5.8 5.8 0 0 1-1.3-1.94 5.4 5.4 0 0 1-.414-1.427c0-.171-.036-.301-.042-.389a.5.5 0 0 1 0-.136 8.4 8.4 0 0 0 .591 1.893 5.8 5.8 0 0 0 1.313 1.851c.356.312.754.574 1.182.779a3.2 3.2 0 0 0 1.478.347 4.73 4.73 0 0 0 3.924-1.768c.958-1.321 1.324-3.125 1.437-4.93.13-2.358-.266-4.681-1.596-6.25a5.07 5.07 0 0 0-2.276-1.662 3.6 3.6 0 0 0-1.265-.183 4.47 4.47 0 0 0-2.955 1.179 5.3 5.3 0 0 0-.987 1.209 11 11 0 0 0-.609 1.191"/><path fill="#FAFAFC" d="M189.522 156.964a3.036 3.036 0 0 0-3.174 1.821 5.23 5.23 0 0 0 0 3.851c.204.64.54 1.231.987 1.733a2.6 2.6 0 0 0 1.774.855 3.09 3.09 0 0 0 2.441-1.439 5.5 5.5 0 0 0 .833-4.522c-.272-1.026-1.028-2.07-2.086-2.099"/><path fill="#27272E" d="M190.291 157.164h.236c.228.026.448.101.645.218a3.15 3.15 0 0 1 1.347 2.029 5.5 5.5 0 0 1-.366 3.608 4.6 4.6 0 0 1-1.324 1.734 2.58 2.58 0 0 1-2.282.548 3.2 3.2 0 0 1-1.82-1.486 6.6 6.6 0 0 1-.757-2.04 4.5 4.5 0 0 1 .591-3.538 3.2 3.2 0 0 1 2.057-1.309q.34-.05.68 0 .223.046.224.065a4.7 4.7 0 0 0-.88.053 3.14 3.14 0 0 0-1.903 1.315 4.32 4.32 0 0 0-.491 3.379c.138.682.388 1.338.739 1.939.356.64.944 1.121 1.643 1.345a2.27 2.27 0 0 0 2.016-.484 4.5 4.5 0 0 0 1.253-1.615 5.4 5.4 0 0 0 .407-3.444 3.08 3.08 0 0 0-1.182-1.975 2.5 2.5 0 0 0-.833-.342"/><path fill="#27272E" d="M192.501 166.657c-.047 0-.112-.189-.313-.425a2.2 2.2 0 0 0-1.011-.643 5 5 0 0 0-1.241-.194c-.325 0-.538-.053-.538-.094 0-.042.201-.089.538-.124a3.5 3.5 0 0 1 1.336.118c.452.129.84.419 1.094.813.183.307.171.543.135.549m.467-10.496s-.094.207-.366.425a2.84 2.84 0 0 1-1.247.542 3 3 0 0 1-1.36-.07c-.331-.112-.508-.242-.49-.278a7 7 0 0 0 1.773.048 7.4 7.4 0 0 0 1.69-.667m40.613-42.234s.071 0 .195.071q.271.12.526.271c.634.358 1.228.781 1.773 1.262a12.64 12.64 0 0 1 3.807 6.002 38.4 38.4 0 0 1 1.448 6.993c.106.908.16 1.645.195 2.152q.045.399 0 .796a4.5 4.5 0 0 1-.13-.784c-.077-.56-.177-1.279-.29-2.134a45 45 0 0 0-1.53-6.934 13.06 13.06 0 0 0-3.653-5.932 20 20 0 0 0-2.341-1.763m-7.365 64.9c1.714-.065 3.086-1.769 4.8-1.675a2.36 2.36 0 0 1 1.613.833 2.35 2.35 0 0 1 .55 1.726 2.36 2.36 0 0 1-.834 1.609 2.4 2.4 0 0 1-1.731.549c-1.803-.206-2.855-2.311-4.616-2.712"/><path fill="#27272E" d="M240.745 180.283a10 10 0 0 1-1.602-.13l.094-.589c2.117.336 3.896 0 5.285-1.032 1.773-1.28 2.878-3.573 3.351-6.816v-.124c.195-1.285.461-26.503.461-31.291 0-7.482-6.579-8.503-6.862-8.544s-6.248-1.043-9.422 7.123c-3.322 8.555-8.636 25.041-8.984 26.975-.048.236-.113.531-.184.867-.555 2.476-1.702 7.623 1.738 10.583 3.836 3.308 6.863 2.029 6.987 1.976l.242.536c-.142.059-3.475 1.504-7.613-2.064-3.712-3.195-2.512-8.573-1.933-11.161.077-.33.136-.59.178-.843.354-1.946 5.686-18.502 9.019-27.081s10.001-7.506 10.049-7.489c.047.018 7.353 1.121 7.353 9.122 0 3.944-.26 30.011-.467 31.379v.118c-.497 3.408-1.703 5.832-3.588 7.211a6.8 6.8 0 0 1-4.102 1.274"/><path fill="#27272E" d="M248.647 145.13a10.9 10.9 0 0 0-1.229-2.948 10.1 10.1 0 0 0-2.335-2.524 10.1 10.1 0 0 0-3.8-1.769 11.14 11.14 0 0 0-7.478.973 13.4 13.4 0 0 0-2.606 1.857 1 1 0 0 1 .136-.177 4 4 0 0 1 .443-.471 9 9 0 0 1 1.921-1.398 11 11 0 0 1 7.655-1.084c1.419.334 2.749.969 3.901 1.863a9.8 9.8 0 0 1 2.364 2.635c.416.68.723 1.42.91 2.194q.084.314.124.636c0 .13.006.213-.006.213m15.055 47.134a21 21 0 0 0-.815-2.512 10.95 10.95 0 0 0-4.008-4.799 8.7 8.7 0 0 0-3.251-1.18 28 28 0 0 0-2.867-.294l-1.944-.136a3.4 3.4 0 0 1-.709-.094q.357-.044.715 0l1.95.035q1.456.032 2.897.236a8.7 8.7 0 0 1 3.375 1.179 10.7 10.7 0 0 1 4.043 4.977c.246.606.428 1.236.543 1.88q.083.35.071.708"/><path fill="#B78876" d="M233.883 182.429s5.816-8.779 7.299-9.929 14.186-6.869 15.658-5.949.591 2.913.591 2.913 5.367-1.875 5.94-1.138a2.64 2.64 0 0 1 0 3.018s2.956-.454 2.956.46a3.76 3.76 0 0 1-1.714 3.078c-1.372 1.026-10.291 6.946-11.006 8.585l-2.891-.177z"/><path fill="#AA6550" d="M250.61 179.911a2.5 2.5 0 0 1 .266-.554q.425-.72.957-1.368a16 16 0 0 1 4.215-3.537 32 32 0 0 1 4.988-2.359c.657-.253 1.183-.442 1.567-.59q.286-.117.591-.165-.256.177-.55.278l-1.531.654a41 41 0 0 0-4.906 2.4 17.6 17.6 0 0 0-4.208 3.414c-.922 1.09-1.336 1.857-1.389 1.827m-7.371-.141q.104-.338.284-.643c.201-.407.49-.99.892-1.698.464-.831 1-1.62 1.602-2.358a7.4 7.4 0 0 1 1.218-1.209 31 31 0 0 1 1.543-.955 42 42 0 0 1 5.674-2.819 15 15 0 0 1 1.82-.589q.343-.099.698-.124c0 .053-.964.277-2.435.938a53 53 0 0 0-5.604 2.883c-.532.312-1.046.625-1.525.937a7.4 7.4 0 0 0-1.182 1.138 17 17 0 0 0-1.631 2.3l-.981 1.639a3.2 3.2 0 0 1-.373.56"/><path fill="#27272E" d="M398.349 239.847c0 .082-89.175.153-199.157.153C89.211 240 0 239.929 0 239.847c0-.083 89.158-.154 199.192-.154s199.157.071 199.157.154"/></svg>