<svg xmlns="http://www.w3.org/2000/svg" width="241" height="297" fill="none" viewBox="0 0 241 297"><ellipse cx="120.079" cy="176.645" fill="#FFEBEC" rx="120" ry="119.566"/><mask id="health-clipboard_svg__a" width="241" height="240" x="0" y="57" maskUnits="userSpaceOnUse" style="mask-type:alpha"><ellipse cx="120.079" cy="176.645" fill="#FCE6E6" rx="120" ry="119.566"/></mask><g mask="url(#health-clipboard_svg__a)"><path fill="#1900AF" d="M72.684 244.68s-23.137 15.657-24.407 52.204c-.423 12.261 5.575 51.293 5.575 51.293l135.256.406-25.201-104.486-42.573-9.724z"/><path fill="#27272E" d="m124.377 271.811-18.435 76.604 46.079.308z"/><path fill="#27272E" d="M123.677 255.223q.219 1.242.244 2.504c.106 1.686.236 3.76.383 6.062.147 2.301.228 4.513.261 6.061.055.84.036 1.683-.057 2.52a16 16 0 0 1-.245-2.504c-.106-1.677-.236-3.76-.382-6.053a134 134 0 0 1-.253-6.07 14 14 0 0 1 .049-2.52m8.346 8.444c0 .041-.301.105-.814.389a3.9 3.9 0 0 0-1.537 1.702 3.29 3.29 0 0 0 .162 3.241 3.456 3.456 0 0 0 5.366.768c.505-.479.853-1.1.996-1.781a3.28 3.28 0 0 0-.813-3.112 3.9 3.9 0 0 0-1.993-1.142c-.537-.122-.814-.089-.863-.13-.049-.04.082 0 .228-.048a2.3 2.3 0 0 1 .667 0 3.83 3.83 0 0 1 2.172 1.094c.414.406.73.898.928 1.442.218.637.249 1.323.089 1.977a3.8 3.8 0 0 1-1.107 1.986 3.842 3.842 0 0 1-5.971-.867 3.5 3.5 0 0 1-.528-1.905 3.9 3.9 0 0 1 .431-1.621 3.84 3.84 0 0 1 1.724-1.717q.298-.155.627-.219c.154-.065.228-.073.236-.057m-33.093 11.45a2.2 2.2 0 0 1-.293.357c-.195.227-.488.559-.886.972a36.5 36.5 0 0 1-3.645 3.242 37.7 37.7 0 0 1-14.481 6.783c-2.888.69-5.866.93-8.828.713a13.4 13.4 0 0 1-6.785-2.431 9.96 9.96 0 0 1-3.116-3.736 8.4 8.4 0 0 1-.44-1.248q-.068-.222-.072-.454c.04 0 .162.616.667 1.621a10.06 10.06 0 0 0 3.14 3.557 13.4 13.4 0 0 0 6.639 2.31 29.5 29.5 0 0 0 8.705-.746 38.65 38.65 0 0 0 14.392-6.612 43 43 0 0 0 3.702-3.104l.951-.916c.22-.218.334-.308.35-.308"/><path fill="#27272E" d="M98.93 282.703a2.2 2.2 0 0 1-.293.356c-.195.227-.488.567-.886.981a36.66 36.66 0 0 1-18.127 10.008 29 29 0 0 1-8.827.721 13.5 13.5 0 0 1-6.785-2.431 9.9 9.9 0 0 1-3.116-3.728 8 8 0 0 1-.44-1.256 1.6 1.6 0 0 1-.072-.454c.04 0 .162.616.667 1.621a10.1 10.1 0 0 0 3.14 3.565 13.4 13.4 0 0 0 6.639 2.302 29.2 29.2 0 0 0 8.705-.746 38.8 38.8 0 0 0 14.392-6.604 43 43 0 0 0 3.702-3.112l.951-.916q.158-.174.35-.307"/><path fill="#27272E" d="M100.125 280.409q.045.16.057.324c0 .235.057.559.106.965.098.875.236 2.123.407 3.719.342 3.242.992 7.885 1.285 13.695.168 3.17.1 6.347-.203 9.506a40.8 40.8 0 0 1-2.44 10.64 27.5 27.5 0 0 1-6.582 10.089 24.3 24.3 0 0 1-5.174 3.809 20.9 20.9 0 0 1-6.249 2.196 19.12 19.12 0 0 1-12.65-2.334 24.54 24.54 0 0 1-8.73-8.331 32.8 32.8 0 0 1-4.067-10.121 47 47 0 0 1-1.123-9.465c-.017-4.591.31-9.177.976-13.72.236-1.62.415-2.836.537-3.703.065-.405.122-.721.155-.964q.023-.166.073-.324.015.165 0 .332c0 .243-.065.559-.114.964-.106.875-.26 2.123-.464 3.712a97 97 0 0 0-.813 13.695 47 47 0 0 0 1.155 9.376 32.7 32.7 0 0 0 4.068 9.983 24.1 24.1 0 0 0 8.566 8.201 18.7 18.7 0 0 0 12.375 2.277 20.1 20.1 0 0 0 6.117-2.147 24 24 0 0 0 5.093-3.736 27.1 27.1 0 0 0 6.509-9.927 40.6 40.6 0 0 0 2.44-10.535c.318-3.141.402-6.302.252-9.456-.252-5.795-.813-10.462-1.147-13.696-.162-1.62-.268-2.876-.333-3.727 0-.405-.049-.73-.065-.973-.017-.243-.017-.324-.017-.324"/><path fill="#27272E" d="M61.269 289.112a13.94 13.94 0 0 0 4.13 5.26 14 14 0 0 0 6.112 2.739c4.402.81 10.105-.576 12.855-4.692-9.682 3.387-19.306 3.468-23.097-3.307" opacity=".2"/><path fill="#27272E" d="M140.826 277.16a1.9 1.9 0 0 1-.627 0 10.5 10.5 0 0 1-1.627-.357 15.54 15.54 0 0 1-8.746-6.613 12 12 0 0 1-.813-1.491c-.155-.372-.228-.575-.195-.591.032-.016.439.762 1.236 1.92a18 18 0 0 0 3.775 3.931 17.7 17.7 0 0 0 4.816 2.56c1.327.414 2.189.568 2.181.641"/><path fill="#27272E" d="M129.566 268.634c1.001 3.388 4.776 6.548 8.136 7.658a5 5 0 0 0 2.058.3c.35-.024.69-.124.997-.293.306-.17.571-.404.777-.687.708-1.078.098-2.61-.944-3.371a9.5 9.5 0 0 0-3.628-1.289c-2.596-.6-4.939.705-7.086-1.467m-72.259-7.123c6.069 5.284 14.644 5.511 22.364 3.242s14.45-6.54 21.007-11.207c-7.152 1.418-13.253 4.667-20.47 5.729-6.89 1.013-14.058 1.118-20.835-1.175" opacity=".2"/><path fill="#27272E" d="M174.002 343.528a.5.5 0 0 1-.154.089 4 4 0 0 1-.48.219 7.2 7.2 0 0 1-1.977.486 10.9 10.9 0 0 1-7.103-1.896c-2.701-1.71-5.158-4.587-7.785-7.779a84 84 0 0 1-7.575-11.135 94 94 0 0 1-9.185-22.609 81 81 0 0 1-1.586-7.236c-.13-.811-.236-1.5-.317-1.986a6 6 0 0 1-.082-.697q.119.332.171.681l.391 1.969c.349 1.71.894 4.182 1.708 7.188a98 98 0 0 0 9.267 22.48 87 87 0 0 0 7.517 11.102c2.595 3.192 5.02 6.069 7.639 7.771a10.93 10.93 0 0 0 6.956 1.985 10 10 0 0 0 2.595-.632"/><path fill="#E6E6F0" d="m91.736 110.63 7.664-1.515 37.903.445 19.257 4.214 7.346 107.114-85.138 3.963z"/><path fill="#1900AF" d="m146.871 215.961 1.814-48.719-3.018-56.49c11.975 3.071 28.352 6.483 37.423 16.782 5.882 6.686 11.65 15.235 13.83 29.003 2.506 16.207 5.809 47.204 7.875 64.546"/><path fill="#1900AF" d="m158.912 207.971-58.86 9.522-2.083-36.207-3.254-71.58c-17.085.697-36.529 14.757-42.362 25.713-4.067 7.601-7.476 16.434-8.542 24.984-2.042 16.207-5.5 43.978-7.566 61.328a35.6 35.6 0 0 0 1.646 15.647 35.7 35.7 0 0 0 8.23 13.429c8.543 8.776 21.917 11.815 33.942 9.335l89.62-25.121z"/><path fill="#27272E" d="M152.696 207.322a.8.8 0 0 1 .041-.202q.072-.219.17-.584c.171-.543.399-1.296.7-2.26.635-1.994 1.538-4.863 2.66-8.412l9.234-28.719.122.251-9.543-3.93-.374-.154.334-.219 2.204-1.443 7.2-4.683-.081.226c-3.661-12.657-6.883-23.824-9.201-31.855a3126 3126 0 0 0-2.685-9.432 211 211 0 0 0-.7-2.553l-.171-.657a.8.8 0 0 1-.048-.226s0 .064.081.21l.211.657q.284.899.773 2.528l2.807 9.392 9.332 31.823.04.146-.13.089-7.192 4.692-2.204 1.434v-.372l9.535 3.946.178.073-.056.178c-3.759 11.499-7.038 21.507-9.381 28.679-1.18 3.549-2.115 6.394-2.774 8.371-.326.956-.586 1.71-.765 2.245-.081.235-.154.421-.203.575a1 1 0 0 1-.114.186"/><path fill="#27272E" d="M165.713 157.258a8.42 8.42 0 0 1-2.961 4.433c-1.123.64-.48 1.491.447 2.383 1.115 1.069 2.904 1.361 3.726 2.657s.358 2.78-.065 4.141a300 300 0 0 1-14.807 37.796l13.66-41.466-9.527-3.915z" opacity=".2"/><path fill="#27272E" d="M95.154 208.327a.7.7 0 0 1-.098-.17c-.057-.129-.138-.292-.228-.502l-.878-1.978c-.765-1.75-1.855-4.27-3.255-7.414l-10.974-25.624-.066-.146.139-.097 7.525-5.365v.308l-4.987-3.938-2.213-1.734-1.098-.811-.269-.218a1 1 0 0 1-.154-.138.7.7 0 0 1-.114-.227 3 3 0 0 1-.09-.738c.05-1.813.219-3.621.505-5.413.496-3.509 1.082-6.88 1.627-10.089 1.155-6.41 2.302-12.155 3.254-17.017.952-4.863 1.806-8.728 2.384-11.418.293-1.329.529-2.367.692-3.104l.187-.81a1 1 0 0 1 .08-.268 1.5 1.5 0 0 1-.04.284c0 .202-.09.47-.146.81q-.22 1.11-.61 3.112c-.537 2.723-1.302 6.629-2.246 11.442a947 947 0 0 0-3.189 17.018c-.561 3.201-1.139 6.572-1.627 10.073a42 42 0 0 0-.496 5.348q-.003.313.073.616c0 .097.236.243.407.389l1.09.859 2.205 1.742 4.979 3.93.22.179-.228.162-7.534 5.348.065-.251 10.91 25.656c1.326 3.169 2.384 5.673 3.116 7.463.35.851.626 1.516.813 2.002l.196.519q.045.102.073.21"/><path fill="#FFB0B5" d="m166.321 173.169-59.306-9.114a1.96 1.96 0 0 0-2.236 1.633l-12.791 82.587a1.954 1.954 0 0 0 1.638 2.228l59.306 9.113a1.96 1.96 0 0 0 2.237-1.632l12.791-82.588a1.954 1.954 0 0 0-1.639-2.227"/><path fill="#9292A9" d="m166.315 173.203-59.301-9.147a1.957 1.957 0 0 0-2.235 1.632l-12.745 82.594a1.96 1.96 0 0 0 1.64 2.23l59.3 9.146a1.96 1.96 0 0 0 2.236-1.632l12.745-82.594a1.957 1.957 0 0 0-1.64-2.229"/><path fill="#E6E6F0" d="m164.448 174.762-56.129-8.625-12.464 80.473 56.13 8.625z"/><path fill="#27272E" d="M147.588 173.441a6.95 6.95 0 0 0-2.114-3.149 7 7 0 0 0-3.459-1.575l.472-3.444a4.75 4.75 0 0 0-.87-3.538 4.794 4.794 0 0 0-6.681-1.028 4.76 4.76 0 0 0-1.903 3.115l-.553 3.566-1.204-.162a6.96 6.96 0 0 0-3.72.506 6.93 6.93 0 0 0-2.911 2.363l-.935 1.296 24.407 3.76zm-10.088-6.288a2.6 2.6 0 0 1-1.347-.642 2.553 2.553 0 0 1 .215-3.954 2.573 2.573 0 0 1 3.851.984c.214.459.287.972.21 1.473a2.57 2.57 0 0 1-1.023 1.67 2.6 2.6 0 0 1-1.906.469m-10.162 13.598a70 70 0 0 1-7.648-.956 72 72 0 0 1-7.574-1.378c2.562.177 5.113.496 7.639.956 2.551.323 5.082.783 7.583 1.378m-8.283 1.345a16 16 0 0 1-3.701-.356 16.6 16.6 0 0 1-3.637-.77 17 17 0 0 1 3.702.356c1.237.119 2.457.377 3.636.77m34.649 12.625c0 .114-9.518-1.256-21.209-3.047-11.691-1.79-21.153-3.354-21.153-3.468s9.511 1.248 21.21 3.047 21.169 3.347 21.152 3.468m-.625 4.02c0 .113-9.51-1.248-21.209-3.047s-21.153-3.347-21.153-3.46c0-.114 9.511 1.248 21.21 3.047s21.169 3.346 21.152 3.46m-.618 4.027c0 .114-9.519-1.256-21.21-3.047-11.69-1.791-21.152-3.355-21.152-3.468s9.518 1.248 21.218 3.047 21.16 3.347 21.144 3.468m-.626 4.02c0 .113-9.511-1.248-21.21-3.047s-21.152-3.347-21.152-3.469 9.51 1.257 21.209 3.056 21.202 3.346 21.153 3.46m-.628 4.019c0 .122-9.51-1.248-21.209-3.047s-21.153-3.347-21.153-3.46c0-.114 9.511 1.248 21.21 3.047s21.177 3.347 21.152 3.46m-.618 4.028c0 .113-9.519-1.248-21.209-3.047-11.691-1.799-21.153-3.347-21.153-3.469s9.51 1.248 21.21 3.047c11.699 1.799 21.168 3.355 21.152 3.469m-21.738.372a3.7 3.7 0 0 1-.814-.048 82 82 0 0 1-2.278-.284 443 443 0 0 1-14.977-2.301 82 82 0 0 1-2.262-.414 3 3 0 0 1-.814-.21q.41-.029.814.048a82 82 0 0 1 2.278.284c1.928.251 4.58.64 7.501 1.086s5.565.883 7.477 1.215c.96.163 1.724.308 2.261.414.28.033.554.104.814.21m28.246-30.25a14.2 14.2 0 0 1-3.425-.316 14 14 0 0 1-3.36-.73c2.296.072 4.575.423 6.785 1.046m-39.237 37.536a37 37 0 0 1-5.532-.641 36.4 36.4 0 0 1-5.467-1.053c1.858.074 3.707.288 5.532.64 1.847.214 3.674.566 5.467 1.054m-.195 3.711a38.4 38.4 0 0 1-5.629-.656 36.4 36.4 0 0 1-5.557-1.07c1.888.08 3.767.299 5.622.656 1.88.212 3.74.569 5.564 1.07m32.184.648a17.4 17.4 0 0 1-5.314-.81 9 9 0 0 1 2.694.195c.901.062 1.786.27 2.62.615m-.325 3.315a17.4 17.4 0 0 1-5.314-.811 17.5 17.5 0 0 1 5.314.811m-37.586-.916a8.5 8.5 0 0 1-2.604-.186 8.1 8.1 0 0 1-2.53-.608 8.2 8.2 0 0 1 2.595.186 8 8 0 0 1 2.539.608m37.179 4.781a4.8 4.8 0 0 1-1.961-.089 4.7 4.7 0 0 1-1.896-.502 4.5 4.5 0 0 1 1.961.081 4.6 4.6 0 0 1 1.896.51m-43.998 3.039q.48-.042.96 0l2.701.081 9.649.381h.219l-.048.211a4.6 4.6 0 0 1-1.693 2.617 3.84 3.84 0 0 1-3.254.737 3.78 3.78 0 0 1-2.676-2.309 3.23 3.23 0 0 1 .992-3.501 3 3 0 0 1 1.286-.681 2 2 0 0 1 .366-.056 1.6 1.6 0 0 1 .398 0 .56.56 0 0 1 .415.308c.054.139.071.29.049.437a6.3 6.3 0 0 1-.887 2.561 6.5 6.5 0 0 1-1.798 1.896 4.08 4.08 0 0 1-2.44.811 2.29 2.29 0 0 1-1.953-1.402 3.4 3.4 0 0 1-.163-2.261 8.2 8.2 0 0 1 2.278-3.242l.22-.218v.307a5.5 5.5 0 0 1-.618 3.242 5.9 5.9 0 0 1-1.627 1.92 5.1 5.1 0 0 1-1.392.762 2 2 0 0 1-.537.13 6.6 6.6 0 0 0 1.831-1.021 5.9 5.9 0 0 0 1.505-1.896c.489-.96.674-2.046.529-3.112l.26.081a8 8 0 0 0-2.156 3.144 3.05 3.05 0 0 0 .163 2.018c.135.326.359.608.647.814.287.206.627.328.98.353a3.6 3.6 0 0 0 2.148-.738 5.92 5.92 0 0 0 2.498-4.165.45.45 0 0 0 0-.219c0-.04 0-.056-.114-.073a2 2 0 0 0-.586.057 2.7 2.7 0 0 0-1.107.583 2.85 2.85 0 0 0-.87 3.047 3.4 3.4 0 0 0 3.871 2.069 3.4 3.4 0 0 0 1.425-.675 4.18 4.18 0 0 0 1.57-2.382l.171.219-9.567-.56-2.701-.178a8 8 0 0 1-.944-.097m40.206 6.037q-.196.278-.464.486a3 3 0 0 1-.691.438 1.57 1.57 0 0 1-1.115.057 1.08 1.08 0 0 1-.569-.414 1.44 1.44 0 0 1-.228-.713q.009-.776.114-1.548.16-1.655.358-3.614l.349.138-3.107 4.19-.773 1.037-.505.681.122-.811c.334-2.163.635-4.181.903-5.956l.301.162a19 19 0 0 0-3.343 3.647c-.684.98-1.009 1.62-1.05 1.572a1.8 1.8 0 0 1 .187-.462q.314-.63.692-1.224a17.3 17.3 0 0 1 3.254-3.808l.366-.316-.073.486c-.244 1.766-.537 3.792-.814 5.964l-.382-.162.814-1.037c1.106-1.475 2.156-2.885 3.132-4.174l.431-.583-.081.721c-.155 1.305-.293 2.512-.423 3.606q-.114.746-.147 1.499a.92.92 0 0 0 .586.916 1.78 1.78 0 0 0 1.627-.373q.248-.224.529-.405"/><path fill="#27272E" d="M146.757 240.904a76 76 0 0 1-7.981.17 76 76 0 0 1-7.973-.243 74 74 0 0 1 7.973-.178 75 75 0 0 1 7.981.251m2.596 2.52a50 50 0 0 1-6.378.9 51 51 0 0 1-6.42.486 47 47 0 0 1 6.379-.908 48 48 0 0 1 6.419-.478"/><path fill="#27272E" d="M78.606 159.989c-.098 2.431.561 4.911 2.595 6.281-2.546 1.231-3.905 4.181-3.986 7.001s.903 5.559 1.968 8.177c3.295 8.047 10.325 19.375 15.686 26.231 0 0-2.717-7.293-3.498-9.003-3.531-7.69-6.647-15.397-10.186-23.112-.39-.81-1.09-3.176-1.09-3.176a4.5 4.5 0 0 0 1.057-.721c1.985-1.621 6.29-4.465 6.29-4.465s-8.836-6.97-8.836-7.213" opacity=".2"/><path fill="#27272E" d="M78.486 176.521c.114 0-.09 9.359-.464 20.891s-.765 20.883-.88 20.875c-.113-.008.082-9.352.457-20.891.374-11.54.765-20.883.887-20.875m14.008-24.579h-.814c0-.308 1.18-30.964 2.099-43.168a6.27 6.27 0 0 1 2.14-4.505c2.538-2.164 6.337-1.88 6.508-1.872l-.065.81c-.041 0-3.628-.259-5.906 1.678a5.55 5.55 0 0 0-1.863 3.954c-.895 12.115-2.059 42.763-2.1 43.103"/><path fill="#555567" d="M100.116 203.222h-1.44v-1.621h1.44a5.7 5.7 0 0 0 4.027-1.661 5.66 5.66 0 0 0 1.668-4.011v-17.164h1.627v17.164a7.28 7.28 0 0 1-2.144 5.157 7.34 7.34 0 0 1-5.178 2.136"/><path fill="#27272E" d="M100.702 202.606a1.74 1.74 0 0 1-1.233 1.497 1.76 1.76 0 0 1-1.86-.561 1.74 1.74 0 0 1-.191-1.927 1.749 1.749 0 0 1 3.284.991"/><path fill="#555567" d="M86.044 203.182h-1.44a7.34 7.34 0 0 1-5.178-2.137 7.28 7.28 0 0 1-2.144-5.157l.065-17.163h1.627l-.065 17.163c0 1.505.6 2.948 1.668 4.011a5.7 5.7 0 0 0 4.027 1.662h1.44z"/><path fill="#27272E" d="M84.024 202.558a1.743 1.743 0 0 0 3.465.005 1.73 1.73 0 0 0-.905-1.701 1.745 1.745 0 0 0-2.493 1.02 1.7 1.7 0 0 0-.067.676m-7.158-21.856-.203-12.236c-.155-9.328 6.687-17.018 15.254-17.172a14.9 14.9 0 0 1 6.067 1.23c1.913.829 3.63 2.05 5.038 3.584a17.62 17.62 0 0 1 4.711 11.839l.203 12.245-2.441.04-.203-12.244a15.18 15.18 0 0 0-4.068-10.219 12.37 12.37 0 0 0-9.282-4.052c-7.225.122-13.017 6.71-12.855 14.7l.204 12.236zm69.492-28.306c0-.324-3.734-32.179-4.808-42.39l-.073-.745c-.334-3.469-.724-7.391-4.573-8.428l.212-.811c4.393 1.184 4.824 5.592 5.174 9.133l.073.738c1.066 10.21 4.768 42.066 4.801 42.39z"/><path fill="#27272E" d="M152.94 153.085a8.67 8.67 0 0 0 0-12.297c-3.409-3.395-8.936-3.395-12.345 0a8.67 8.67 0 0 0 0 12.297c3.409 3.396 8.936 3.396 12.345 0"/><path fill="#555567" d="M150.98 146.934a4.215 4.215 0 0 1-2.609 3.887 4.24 4.24 0 0 1-4.602-.916 4.195 4.195 0 0 1 .648-6.472 4.23 4.23 0 0 1 2.348-.704 4.22 4.22 0 0 1 3.896 2.596c.211.511.32 1.057.319 1.609"/><path fill="#1900AF" d="m95.153 208.327-10.958 26.848 87.415 24.14a28.11 28.11 0 0 0 23.642-4.051c9.144-6.427 11.39-17.666 10.275-28.793l-1.578-11.831z"/><path fill="#27272E" d="M187.767 237.468c-.089 0-.276-1.831-1.179-4.66a24 24 0 0 0-.814-2.277c-.309-.81-.74-1.62-1.171-2.528a33.7 33.7 0 0 0-3.523-5.308 34.3 34.3 0 0 0-4.523-4.489c-.814-.592-1.514-1.183-2.254-1.621a24 24 0 0 0-2.075-1.272c-2.603-1.435-4.385-1.986-4.352-2.075a7 7 0 0 1 1.245.381 13 13 0 0 1 1.423.559c.545.251 1.18.503 1.831.875q1.097.56 2.123 1.24c.757.454 1.505 1.046 2.303 1.621a33 33 0 0 1 4.612 4.522 32.2 32.2 0 0 1 3.531 5.397c.432.899.855 1.742 1.156 2.577q.473 1.135.813 2.317.307.967.496 1.961.195.755.269 1.532.102.62.089 1.248"/><path fill="#27272E" d="M82.244 219.754c-6.671.551-11.821 1.158-18.712 2.001-4.304.527-8.77.227-10.178-3.849-1.407-4.076-.512-8.744 1.798-12.399s5.94-12.155 25.367-5.672z" opacity=".2"/><path fill="#27272E" d="m91.24 218.579.05-.179.187-.535.732-2.042 2.807-7.544.04-.105h.106l29.735 2.682 28.767 2.723 8.713.867 2.368.259.61.081a.7.7 0 0 1 .212.041h-.83l-2.376-.179-8.729-.745-28.775-2.593-29.72-2.812.147-.098-2.929 7.504-.813 2.01-.22.519c-.04.097-.073.154-.081.146"/><path fill="#27272E" d="M127.207 246.269c12.415 3.314 19.965 1.393 31.241-4.749a61 61 0 0 0 6.638-4.49 24 24 0 0 0 4.255-4.497c-14.522 5.535-26.587 9.724-41.556 13.89" opacity=".2"/><path fill="#B78876" d="m91.283 218.287 2.84-7.901-6.598-10.276a7.8 7.8 0 0 0-5.11-3.444l-24.276-4.562c-.302.905-.26 1.89.118 2.766a3.9 3.9 0 0 0 1.932 1.991c3.181 1.807 17.491 5.121 17.491 5.121l-22.039-.373s-.683 3.169 1.814 4.303c2.498 1.135 18.2 1.71 18.2 1.71l-20.103 2.82s-.114 3.177 4.482 3.242c4.527-.054 9.048-.338 13.546-.851a.723.723 0 0 1 .814.592.717.717 0 0 1-.545.81l-13.367 3.144a1.79 1.79 0 0 0-1.395 1.672 1.78 1.78 0 0 0 1.265 1.772c.242.058.492.075.74.049 2.278-.227 15.88-1.945 15.88-1.945l.709 1.58 13.602-2.204"/><path fill="#AA6550" d="M81.299 215.848a4.5 4.5 0 0 0-.749-1.2 3.3 3.3 0 0 0-1.285-.81 5 5 0 0 0-1.855-.203c-1.35.098-2.57.487-3.482.6a3.2 3.2 0 0 1-1.497 0q.71-.2 1.44-.316a22 22 0 0 1 3.515-.729 5 5 0 0 1 2.017.259 3.5 3.5 0 0 1 1.367.956 1.7 1.7 0 0 1 .529 1.443m2.197-6.021c-.041 0-.066-.219-.245-.568a2.8 2.8 0 0 0-1.155-1.134c-1.228-.713-3.303-.478-5.483-.332s-4.182.47-5.622.656c-.773.146-1.557.224-2.343.235a12 12 0 0 1 2.294-.527 57 57 0 0 1 5.63-.81 31 31 0 0 1 3.14-.122 5 5 0 0 1 2.53.616c.524.302.931.77 1.156 1.329.102.203.136.433.098.657m1.676-3.501a3.95 3.95 0 0 0-.513-1.832 4.2 4.2 0 0 0-1.464-1.418 6.5 6.5 0 0 0-2.44-.713c-1.823-.17-3.532 0-4.776-.097a4.3 4.3 0 0 1-1.945-.47c0-.065.748.154 1.96.178 1.213.025 2.897-.202 4.809 0 .91.075 1.79.352 2.579.811a4.2 4.2 0 0 1 1.53 1.62 2.9 2.9 0 0 1 .365 1.443c-.016.3-.105.478-.105.478"/><path fill="#27272E" d="M163.981 206.302q.002-.663.122-1.313c.106-.811.309-2.058.594-3.55.561-2.982 1.554-7.058 2.603-11.555.928-3.831 1.637-7.71 2.123-11.621.098-.754.139-1.434.196-2.034s.089-1.11.105-1.54a7 7 0 0 1 .114-1.312q.08.658.049 1.32v1.548c0 .6-.049 1.289-.138 2.042a86 86 0 0 1-2.001 11.694c-1.058 4.506-2.091 8.557-2.726 11.523a153 153 0 0 0-.724 3.509q-.106.657-.317 1.289m8.435 53.159a1.6 1.6 0 0 1-.48-.081l-1.351-.3-4.946-1.215c-4.174-1.046-9.925-2.561-16.271-4.311a629 629 0 0 1-16.141-4.684l-4.881-1.507-1.318-.438a1.8 1.8 0 0 1-.366-.17q.243.016.472.097l1.342.357 4.881 1.385 16.174 4.563 16.181 4.424 4.881 1.337 1.335.381q.252.055.488.162M88.669 24.416c1.79-5.503 10.958-10.47 15.986-13.355 7.525-4.303 14.498-3.444 18.793.39 7.761-6.484 17.988-12.724 27.791-10.171s17.768 12.553 15.978 22.496c-1.049 5.859-5.125 11.11-4.881 17.017.162 4.052 2.318 7.715 4.067 11.394s3.035 7.958 1.506 11.718c-1.424 3.492-4.979 5.672-6.891 8.914-1.562 2.658-1.92 5.818-2.921 8.727-3.693 10.778-16.466 16.823-27.742 14.927s-20.672-10.348-26.033-20.429-7.086-21.653-7.705-33.022"/><path fill="#B78876" d="m96.976 32.009 2.253 89.869c.814 10.3 10.341 17.828 21.405 16.872 11.17-.956 19.704-10.17 19.061-20.592-.675-10.931-1.179-22.463-1.179-22.463s13.984-3.241 15.725-21.815c.887-9.513-.659-25.121-2.277-37.487a18.4 18.4 0 0 0-2.396-6.985 18.5 18.5 0 0 0-4.955-5.488 18.57 18.57 0 0 0-14.127-3.345"/><path fill="#27272E" d="M135.61 67.567c0-.137 1.538-.51 4.068-1.004.643-.106 1.253-.276 1.335-.73a3.27 3.27 0 0 0-.562-1.888c-.708-1.532-1.456-3.128-2.237-4.805-3.124-6.856-5.435-12.504-5.158-12.626s3.034 5.332 6.167 12.156c.748 1.685 1.472 3.298 2.156 4.862.464.753.643 1.647.504 2.52a1.62 1.62 0 0 1-1.009 1.013 4 4 0 0 1-1.09.219c-2.546.316-4.174.43-4.174.283"/><path fill="#AA6550" d="M138.524 95.663a47.2 47.2 0 0 1-25.139-4.976s6.989 12.374 25.343 9.465zm-6.851-23.323c1.993 0 2.986.584 4.678 1.621.51.268.929.68 1.204 1.183a2.5 2.5 0 0 1-.252 2.204 4.44 4.44 0 0 1-1.783 1.736 4.46 4.46 0 0 1-2.44.51 4.06 4.06 0 0 1-3.539-3.12 3.8 3.8 0 0 1 .353-2.439 3.8 3.8 0 0 1 1.779-1.71"/><path fill="#27272E" d="M138.435 76.579c0 .194-.635.486-1.749.421a9.5 9.5 0 0 1-3.987-1.296 11.1 11.1 0 0 1-3.197-2.666c-.659-.81-.863-1.524-.692-1.621.334-.219 2.01 1.531 4.646 2.974 1.09.626 2.237 1.15 3.425 1.564.911.308 1.529.413 1.554.624"/><path fill="#AA6550" d="M125.865 60.76a.675.675 0 0 0 .676-.672.675.675 0 0 0-1.351 0c0 .371.302.672.675.672m19.795-3.97a.673.673 0 0 1-.808.66.68.68 0 0 1-.531-.53.672.672 0 0 1 .663-.803.68.68 0 0 1 .676.673m3.734 1.75a.7.7 0 0 1-.171.529.69.69 0 0 1-.788.167.68.68 0 0 1-.178-1.129.687.687 0 0 1 1.137.433m-25.944 4.522a.684.684 0 1 1-1.316-.25.68.68 0 0 1 .632-.423.686.686 0 0 1 .684.673m-2.539-2.69a.67.67 0 0 1-.807.66.675.675 0 0 1-.493-.918.68.68 0 0 1 .625-.415.673.673 0 0 1 .675.673"/><path fill="#fff" d="M131.975 52.22a18.5 18.5 0 0 0-.447-2.837 11.64 11.64 0 0 0-4.28-6.345 11.5 11.5 0 0 0-4.881-2.14 11.66 11.66 0 0 0-6.069.511 10.8 10.8 0 0 0-2.913 1.572 11 11 0 0 0-2.441 2.431 11.45 11.45 0 0 0-2.237 6.795c0 2.444.784 4.825 2.237 6.795a11.7 11.7 0 0 0 5.354 4.052 11.66 11.66 0 0 0 6.069.51 11.5 11.5 0 0 0 4.881-2.14 11.66 11.66 0 0 0 4.28-6.336c.221-.933.37-1.881.447-2.836a.5.5 0 0 1 0 .186v.56q0 .456-.073.907-.063.616-.22 1.215a11 11 0 0 1-1.269 3.16 11.83 11.83 0 0 1-6.193 5.14 11.88 11.88 0 0 1-8.061-.002 11.4 11.4 0 0 1-3.026-1.62 11.1 11.1 0 0 1-2.53-2.52 11.78 11.78 0 0 1 0-14.076 11.1 11.1 0 0 1 2.53-2.52 11.4 11.4 0 0 1 3.026-1.622 11.97 11.97 0 0 1 6.265-.486 11.9 11.9 0 0 1 4.602 1.956c1.377.97 2.532 2.22 3.387 3.668a11.1 11.1 0 0 1 1.269 3.16q.159.604.22 1.224.072.448.073.9v.559q.015.09 0 .178"/><path fill="#27272E" d="M129.64 17.949c-1.627 14.643-12.561 27.828-26.668 32.269 4.548 6.531 1.684 18.962 1.798 29.335.114 9.643.106 12.398-6.167 17.317-5.182 1.24-8.135-12.9-12.024-16.855s-7.541-8.825-7.257-14.32c.139-2.576 1.147-5.04 1.286-7.609.162-2.852-.757-5.672-1.261-8.452C77.1 37.195 83.545 23.816 94.454 17.31c10.91-6.507 25.399-6.07 36.195.583"/><path fill="#27272E" d="M98.506 78.15a35.45 35.45 0 0 0-6.826-12.916l.236.502a15.9 15.9 0 0 0-4.284-5.733 16 16 0 0 0-6.371-3.286 16.03 16.03 0 0 0-13.7 2.792A15.9 15.9 0 0 0 63 65.024a15.86 15.86 0 0 0-.134 13.928 15.9 15.9 0 0 0 4.457 5.6c-1.83-.405-3.686 1.168-4.068 2.991a6.9 6.9 0 0 0 1.375 5.283c3.816 5.56 12.464 7.026 17.898 3.04 4.312 2.909 10.683 1.215 13.88-2.877 3.197-4.093 3.571-9.863 2.099-14.838"/><path fill="#555567" d="M162.101 70.655s0-.057.122-.162l.382-.446c.342-.397.854-.972 1.432-1.774a10 10 0 0 0 1.627-3.153 5.7 5.7 0 0 0 .171-2.18 6.2 6.2 0 0 0-.814-2.31c-.878-1.515-2.318-2.835-3.636-4.472a26.1 26.1 0 0 1-5.508-12.804 53 53 0 0 1-.195-7.901 27.4 27.4 0 0 0-.724-7.772 16 16 0 0 0-3.298-6.011 16.05 16.05 0 0 0-5.521-4.086 14.8 14.8 0 0 0-5.565-1.28 16.3 16.3 0 0 0-10.023 2.942l-.488.34c-.106.073-.163.114-.171.105a11.6 11.6 0 0 1 2.53-1.766 16.3 16.3 0 0 1 8.135-1.92 15.2 15.2 0 0 1 5.695 1.255 16.3 16.3 0 0 1 5.685 4.159 16.3 16.3 0 0 1 3.395 6.157c.622 2.58.871 5.235.74 7.885a53 53 0 0 0 .187 7.844 25.8 25.8 0 0 0 5.386 12.634c1.285 1.62 2.734 2.966 3.628 4.546.434.747.711 1.574.814 2.431.081.766.009 1.54-.211 2.277a9.8 9.8 0 0 1-1.733 3.185 20 20 0 0 1-1.497 1.734l-.423.422a.7.7 0 0 1-.122.121"/><path fill="#fff" d="M160.213 49.359a18.6 18.6 0 0 0-.447-2.837 11.65 11.65 0 0 0-9.548-8.54 11.65 11.65 0 0 0-5.682.575 11.7 11.7 0 0 0-5.353 4.051 11.43 11.43 0 0 0 0 13.582 10.7 10.7 0 0 0 2.441 2.431 11 11 0 0 0 2.912 1.564 11.68 11.68 0 0 0 9.382-.632 11.6 11.6 0 0 0 3.701-3.052 11.6 11.6 0 0 0 2.147-4.282q.333-1.4.447-2.836a.5.5 0 0 1 0 .194v.552a5.5 5.5 0 0 1-.073.907 8 8 0 0 1-.219 1.224 11.1 11.1 0 0 1-1.27 3.16 11.9 11.9 0 0 1-2.985 3.38 11.89 11.89 0 0 1-11.268 1.75 11.1 11.1 0 0 1-3.027-1.62 11.4 11.4 0 0 1-2.53-2.53 11.77 11.77 0 0 1-2.335-7.033c0-2.534.819-5 2.335-7.034a11.1 11.1 0 0 1 2.53-2.52 11.4 11.4 0 0 1 3.027-1.621 11.97 11.97 0 0 1 6.264-.494 11.87 11.87 0 0 1 7.989 5.672 11 11 0 0 1 1.27 3.153q.156.603.219 1.223.074.451.073.908v.559a.5.5 0 0 1 0 .146"/><path fill="#555567" d="M98.49 97.17a1.8 1.8 0 0 1-.399-.267c-.252-.187-.61-.47-1.082-.81a34 34 0 0 1-3.693-3.429 13.3 13.3 0 0 1-3.483-6.58 31 31 0 0 1-.195-4.408 7.6 7.6 0 0 0-1.269-4.344 26.7 26.7 0 0 0-3.181-3.436 12.9 12.9 0 0 1-2.62-3.59 16 16 0 0 1-1.269-3.808 15.2 15.2 0 0 1-.333-3.477c0-1.077.252-2.017.35-2.844a9.6 9.6 0 0 0 .048-2.131c-.138-1.167-.366-1.791-.325-1.807q.113.214.179.445.204.658.309 1.337a9 9 0 0 1 0 2.18c-.073.81-.269 1.783-.293 2.828a16.7 16.7 0 0 0 1.627 7.107 12.6 12.6 0 0 0 2.563 3.469 26 26 0 0 1 3.254 3.484 7 7 0 0 1 1.033 2.229c.187.767.288 1.552.302 2.342a33 33 0 0 0 .17 4.36 13.17 13.17 0 0 0 3.311 6.482 38 38 0 0 0 3.588 3.493l1.107.843q.166.151.3.332"/><path fill="#555567" d="M89.24 78.297a1.3 1.3 0 0 1 0 .332c0 .219 0 .535-.065.948a15 15 0 0 1-.813 3.412 16.67 16.67 0 0 1-7.21 8.839 16.77 16.77 0 0 1-11.226 2.157 15.4 15.4 0 0 1-3.392-.915c-.39-.146-.676-.308-.87-.397-.196-.09-.294-.154-.286-.17 1.487.546 3.024.945 4.589 1.19 1.7.22 3.425.19 5.117-.088a16.23 16.23 0 0 0 10.511-6.265 17.5 17.5 0 0 0 2.49-4.449c.53-1.491.917-3.03 1.155-4.594"/><path fill="#555567" d="M86.108 74.488q-.051.569-.236 1.11a16 16 0 0 1-1.147 2.877 18.7 18.7 0 0 1-6.932 7.399 20.3 20.3 0 0 1-9.762 2.852 19 19 0 0 1-3.1-.162 5 5 0 0 1-1.115-.227q2.102.15 4.206.09a20.9 20.9 0 0 0 9.56-2.918 19.25 19.25 0 0 0 6.883-7.18 32 32 0 0 0 1.643-3.841M62.31 66.417q.337-.262.733-.422.437-.234.903-.405.61-.254 1.245-.437a17 17 0 0 1 3.36-.649c1.395-.12 2.8-.094 4.19.081 1.387.196 2.75.535 4.067 1.013 1.07.41 2.095.925 3.06 1.54q.556.348 1.065.762.405.288.757.64.326.273.577.616c-.056.065-.91-.81-2.562-1.767a18.4 18.4 0 0 0-3.035-1.426 22 22 0 0 0-3.986-.956 21.5 21.5 0 0 0-4.068-.122 18.7 18.7 0 0 0-3.311.56c-1.888.486-2.913 1.045-2.994.972"/><path fill="#9292A9" d="M81.039 64.918c-.073.089-5.207-4.255-11.455-9.725s-11.26-9.918-11.187-10.008 5.207 4.263 11.464 9.725c6.256 5.462 11.243 9.927 11.178 10.008"/><path fill="#E6E6F0" d="M81.632 60.607a1 1 0 0 1-.105-.163q-.108-.204-.277-.494a7.2 7.2 0 0 1-.635-2.074c-.3-2.696.47-5.4 2.148-7.537a12 12 0 0 1 1.814-1.953 14.5 14.5 0 0 1 2.392-1.62 21.2 21.2 0 0 1 6.004-2.059c4.402-.916 9.356-.697 14.4-1.442a22.2 22.2 0 0 0 7.086-2.18 21.2 21.2 0 0 0 5.435-4.214 33.3 33.3 0 0 0 6.297-9.822c1.334-3.07 2.172-5.672 2.782-7.422l.691-2.05.187-.528q.03-.09.074-.178v.187l-.147.543-.675 2.107a75 75 0 0 1-2.66 7.487 33.1 33.1 0 0 1-6.289 9.976 21.3 21.3 0 0 1-5.548 4.279 22.4 22.4 0 0 1-7.192 2.236c-5.109.762-10.04.519-14.392 1.41-4.352.892-8.087 2.699-10.047 5.422a10.28 10.28 0 0 0-2.213 7.293c.14.971.434 1.915.87 2.795"/><path fill="#27272E" d="M86.799 92.786a12 12 0 0 1-.976 3.241 15 15 0 0 1-2.124 3.445 14.3 14.3 0 0 1-4.116 3.452 13.5 13.5 0 0 1-6.297 1.62 12.3 12.3 0 0 1-7.143-2.082 11.9 11.9 0 0 1-4.735-6.67 10.3 10.3 0 0 1-.244-4.384 10.6 10.6 0 0 1 1.7-4.197 10.2 10.2 0 0 1 6.045-4.263v.405a16.4 16.4 0 0 1-6.98-2.828 13.4 13.4 0 0 1-4.443-5.308 12.45 12.45 0 0 1-1.082-6.102 10.3 10.3 0 0 1 1.766-5.048 10.6 10.6 0 0 1 3.254-2.999 10 10 0 0 1 3.083-1.183 8.6 8.6 0 0 1 2.067-.154l.529.057a.6.6 0 0 1 .179 0 10.8 10.8 0 0 0-2.75.21 9.9 9.9 0 0 0-2.994 1.224 10.4 10.4 0 0 0-3.108 2.966 10.05 10.05 0 0 0-1.668 4.92 12.24 12.24 0 0 0 1.09 5.923 13.07 13.07 0 0 0 4.337 5.138 16.2 16.2 0 0 0 6.817 2.747l1.05.162-1.033.243a9.76 9.76 0 0 0-5.793 4.1 10.2 10.2 0 0 0-1.627 4.052 10.1 10.1 0 0 0 .228 4.214 11.53 11.53 0 0 0 4.564 6.483 12 12 0 0 0 6.915 2.05 13.2 13.2 0 0 0 6.159-1.548 14 14 0 0 0 4.068-3.33 15.5 15.5 0 0 0 2.164-3.363q.533-1.152.903-2.366c.073-.26.13-.47.17-.64zm-4.793-35.048a.8.8 0 0 1-.195-.09l-.57-.3q-1.07-.61-2.025-1.385a17 17 0 0 1-5.223-7.293 16.8 16.8 0 0 1-.31-10.51 16.86 16.86 0 0 1 6.005-8.647 23.9 23.9 0 0 1 7.639-3.728c2.75-.773 5.57-1.27 8.42-1.483 2.734-.259 5.369-.38 7.875-.55a69 69 0 0 0 7.078-.811 32.3 32.3 0 0 0 5.963-1.62 21.4 21.4 0 0 0 7.501-4.709 18 18 0 0 0 1.57-1.856l.375-.51a.8.8 0 0 1 .138-.17 12.5 12.5 0 0 1-1.969 2.65 20.8 20.8 0 0 1-7.533 4.862 32 32 0 0 1-6.012 1.677 68 68 0 0 1-7.111.81c-5.003.398-10.576.438-16.149 2.083a23.8 23.8 0 0 0-7.509 3.647 16.6 16.6 0 0 0-5.912 8.443 16.55 16.55 0 0 0 .217 10.292 17.13 17.13 0 0 0 5.044 7.229 17 17 0 0 0 1.97 1.442l.536.332a1 1 0 0 1 .187.195"/><path fill="#27272E" d="M167.478 229.186c3.953-1.11 8.054 2.431 12.065 1.515 2.44-.567 4.279-2.739 5.385-5.016 1.107-2.277 1.701-4.789 2.872-7.042 1.172-2.253 3.124-4.319 5.646-4.667 2.311-.308 5.053.769 6.769-.811 1.326-1.215 1.147-3.468.09-4.919-1.058-1.45-2.734-2.301-4.353-3.095a25 25 0 0 0-5.621-2.221 8.33 8.33 0 0 0-5.883.681c-3.384 1.961-4.067 6.41-5.052 10.186a20.4 20.4 0 0 1-3.319 7.383 11.02 11.02 0 0 1-6.704 4.311 7.25 7.25 0 0 0-2.986.762c-.854.583-1.187 2.042-.301 2.585" opacity=".2"/><path fill="#B78876" d="m146.871 214.624 14.823-5.146 13.285-20.688a8.84 8.84 0 0 1 5.793-3.906l23.829-4.482a3.89 3.89 0 0 1-2.042 4.757c-3.181 1.807-17.492 5.13-17.492 5.13l22.039-.373s.676 3.169-1.822 4.303c-2.498 1.135-18.199 1.702-18.199 1.702l20.119 2.852s.114 3.185-4.483 3.242a134 134 0 0 1-13.545-.811.717.717 0 0 0-.702 1.104.7.7 0 0 0 .433.298l13.367 3.144c.385.086.732.296.985.598a1.78 1.78 0 0 1-.847 2.847 2.1 2.1 0 0 1-.748.048c-2.27-.227-15.881-1.945-15.881-1.945s-4.8 16.759-7.907 18.112-9.625 1.726-9.625 1.726l-13.83 5.454z"/><path fill="#AA6550" d="M205.577 189.851q-.571.12-1.155.114l-3.157.154c-2.66.113-6.346.243-10.405.348l-5.736.146a12.6 12.6 0 0 0-4.548.648 4.9 4.9 0 0 0-2.335 1.921 8 8 0 0 0-.463 1.037.9.9 0 0 1 0-.3c.062-.281.16-.554.292-.81a4.87 4.87 0 0 1 2.368-2.115 12.4 12.4 0 0 1 4.653-.762l5.695-.178c4.068-.106 7.754-.187 10.414-.227h3.157a7.3 7.3 0 0 1 1.22.024m.334 8.979a5 5 0 0 1-1.066-.073l-2.88-.365c-2.441-.316-5.793-.81-9.494-1.345-1.847-.259-3.612-.591-5.207-.729a7.06 7.06 0 0 0-4.068.729 6.4 6.4 0 0 0-2.107 1.88c-.391.551-.545.9-.578.883a.9.9 0 0 1 .082-.267q.149-.372.358-.713a6.1 6.1 0 0 1 2.099-2.042 7.16 7.16 0 0 1 4.246-.859c1.628.121 3.393.446 5.248.697 3.702.551 7.054 1.078 9.47 1.475l2.864.494q.528.067 1.033.235m-11.188 5.097a16.5 16.5 0 0 1-2.327-.502c-1.432-.349-3.4-.867-5.581-1.313a10 10 0 0 0-1.578-.235c-.476.019-.94.155-1.351.397a4.9 4.9 0 0 0-1.781 1.686 6.6 6.6 0 0 0-.708 2.204 1.4 1.4 0 0 1-.049-.648 4.3 4.3 0 0 1 .488-1.702 5 5 0 0 1 1.855-1.88 3.4 3.4 0 0 1 1.538-.47q.843.045 1.668.227c2.213.462 4.165 1.021 5.573 1.442.775.19 1.53.456 2.253.794"/><path fill="#1900AF" d="m36.84 225.75 44.46-5.445 77.978-12.626 10.064 25.194c-29.288 10.114-59.34 19.238-88.823 27.261a32.8 32.8 0 0 1-7.322.616c-9.844.04-34.12-3.898-36.357-35"/><path fill="#27272E" d="M169.34 232.873a5 5 0 0 1-.203-.445c-.138-.316-.317-.754-.561-1.321-.48-1.183-1.18-2.885-2.067-5.057l-7.395-18.314.187.105-37.887 6.305c-8.949 1.531-17.532 2.528-25.31 3.557-3.896.511-7.59 1.021-11.03 1.621q-2.587.414-4.98.81a41 41 0 0 0-4.531.989 18.5 18.5 0 0 0-10.576 8.557 19 19 0 0 0-1.554 3.461c-.139.413-.228.737-.285.948q-.042.167-.114.324.114-.659.318-1.297c.37-1.221.87-2.4 1.488-3.517a18.9 18.9 0 0 1 3.726-4.756 18.8 18.8 0 0 1 6.932-4.004 43 43 0 0 1 4.564-1.029c1.627-.291 3.254-.591 4.979-.875 3.45-.567 7.143-1.102 11.031-1.621 7.786-1.045 16.361-2.05 25.294-3.59l37.903-6.215h.138l.049.13c3.026 7.649 5.516 13.954 7.257 18.362l1.985 5.09c.219.575.382 1.021.512 1.337s.13.445.13.445"/><path fill="#27272E" d="M60.766 259.413q.181.019.358.073l1.033.251c.91.194 2.253.502 4.01.713 4.965.609 9.998.368 14.88-.713 1.546-.324 3.14-.762 4.808-1.232l5.19-1.459 11.39-3.241a1505 1505 0 0 0 26.107-7.812c15.458-4.781 29.662-9.465 40.678-13.249l-.098.218c-3.043-7.698-5.54-13.995-7.273-18.395-.854-2.18-1.513-3.89-1.977-5.073-.22-.567-.382-1.005-.504-1.329a5 5 0 0 1-.155-.453s.073.145.203.437c.131.292.309.754.545 1.313l2.059 5.032 7.411 18.347.065.162-.163.057c-11.031 3.841-25.219 8.549-40.677 13.338a1350 1350 0 0 1-26.123 7.788l-11.455 3.241-5.198 1.426c-1.627.462-3.254.9-4.825 1.216a43.5 43.5 0 0 1-14.969.592 28.6 28.6 0 0 1-5.32-1.248m17.231-39.108a5.4 5.4 0 0 1-1.115.17l-3.05.3-10.056.98-10.056 1.07-3.05.316q-.559.095-1.123.065a6.6 6.6 0 0 1 1.106-.227c.716-.114 1.75-.268 3.035-.446 2.562-.356 6.11-.81 10.039-1.191 3.93-.381 7.5-.689 10.08-.859a129 129 0 0 1 3.067-.178q.562-.048 1.123 0"/></g><path fill="#27272E" d="M122.141 255.223q.218 1.242.245 2.504c.105 1.686.236 3.76.382 6.062.147 2.301.228 4.513.261 6.061.055.84.036 1.684-.057 2.52a16.4 16.4 0 0 1-.245-2.504c-.105-1.677-.236-3.76-.382-6.053a134 134 0 0 1-.253-6.07 14 14 0 0 1 .049-2.52m8.346 8.444c0 .041-.301.105-.814.389a3.9 3.9 0 0 0-1.537 1.702 3.29 3.29 0 0 0 .162 3.241 3.456 3.456 0 0 0 6.363-1.013 3.3 3.3 0 0 0 .002-1.662 3.3 3.3 0 0 0-.816-1.45 3.9 3.9 0 0 0-1.993-1.142c-.537-.122-.814-.089-.863-.13-.048-.04.082 0 .228-.048a2.3 2.3 0 0 1 .667 0 3.83 3.83 0 0 1 2.173 1.094c.413.406.73.898.927 1.442.218.637.249 1.323.089 1.977a3.8 3.8 0 0 1-1.107 1.986 3.842 3.842 0 0 1-5.971-.867 3.53 3.53 0 0 1-.528-1.905 3.9 3.9 0 0 1 .431-1.62 3.84 3.84 0 0 1 1.725-1.718q.297-.155.626-.219c.155-.065.228-.073.236-.057"/><path fill="#27272E" d="M139.29 277.16a1.9 1.9 0 0 1-.626 0 10.5 10.5 0 0 1-1.628-.357 15.54 15.54 0 0 1-8.745-6.613 12 12 0 0 1-.814-1.491c-.155-.372-.228-.575-.195-.591.032-.016.439.762 1.236 1.92a17.9 17.9 0 0 0 3.775 3.931 17.7 17.7 0 0 0 4.817 2.56c1.326.414 2.188.568 2.18.641"/><path fill="#27272E" d="M128.031 268.635c1 3.387 4.775 6.547 8.135 7.657a5 5 0 0 0 2.058.3 2.4 2.4 0 0 0 1.774-.98c.708-1.078.098-2.61-.944-3.371a9.5 9.5 0 0 0-3.628-1.289c-2.595-.6-4.939.705-7.086-1.467m-72.26-7.123c6.07 5.284 14.645 5.511 22.365 3.242 7.721-2.269 14.45-6.54 21.007-11.207-7.152 1.418-13.253 4.667-20.47 5.729-6.89 1.013-14.058 1.118-20.835-1.175" opacity=".2"/><path fill="#E6E6F0" d="m90.2 110.63 7.664-1.515 37.903.445 19.257 4.214 7.346 107.114-85.137 3.963z"/><path fill="#1900AF" d="m145.335 215.961 1.814-48.719-3.018-56.49c11.975 3.071 28.352 6.483 37.423 16.782 5.882 6.686 11.65 15.235 13.83 29.003 2.506 16.207 5.809 47.204 7.875 64.546"/><path fill="#1900AF" d="m157.376 207.971-58.86 9.522-2.083-36.207-3.254-71.58c-17.085.697-36.528 14.757-42.362 25.713-4.067 7.601-7.476 16.434-8.542 24.984-2.042 16.207-5.5 43.978-7.566 61.328a35.6 35.6 0 0 0 1.646 15.647 35.7 35.7 0 0 0 8.23 13.429c8.543 8.776 21.918 11.815 33.942 9.335l89.62-25.121z"/><path fill="#27272E" d="M151.16 207.323a.8.8 0 0 1 .041-.203q.072-.219.171-.583c.17-.543.398-1.297.699-2.261.635-1.994 1.538-4.863 2.661-8.412l9.233-28.719.123.251-9.544-3.93-.374-.154.334-.219 2.204-1.442 7.201-4.684-.082.227c-3.661-12.658-6.883-23.825-9.201-31.856a3126 3126 0 0 0-2.685-9.432 211 211 0 0 0-.7-2.553q-.105-.398-.17-.656a1 1 0 0 1-.049-.227s0 .064.081.21l.212.657q.283.899.772 2.528l2.807 9.392 9.332 31.823.04.146-.13.089-7.192 4.692-2.204 1.434v-.372l9.535 3.946.179.073-.057.178c-3.759 11.499-7.038 21.507-9.381 28.679-1.179 3.549-2.115 6.394-2.774 8.371-.325.956-.586 1.71-.765 2.245-.081.235-.154.421-.203.575a1 1 0 0 1-.114.187"/><path fill="#27272E" d="M164.177 157.258a8.42 8.42 0 0 1-2.961 4.433c-1.123.64-.48 1.491.447 2.383 1.115 1.069 2.905 1.361 3.726 2.658s.358 2.779-.065 4.14a300 300 0 0 1-14.807 37.796l13.66-41.466-9.527-3.914z" opacity=".2"/><path fill="#27272E" d="M93.618 208.327a.7.7 0 0 1-.098-.17c-.057-.129-.138-.291-.227-.502l-.88-1.977c-.764-1.751-1.854-4.271-3.253-7.415l-10.975-25.624-.065-.146.138-.097 7.525-5.365v.308l-4.987-3.938-2.213-1.734-1.098-.811-.269-.218a1 1 0 0 1-.154-.138.7.7 0 0 1-.114-.227 3 3 0 0 1-.09-.737 42 42 0 0 1 .505-5.414c.496-3.509 1.082-6.88 1.627-10.089 1.155-6.41 2.302-12.155 3.254-17.017s1.806-8.728 2.384-11.418c.293-1.329.529-2.367.692-3.104l.187-.81a1 1 0 0 1 .081-.268 1.5 1.5 0 0 1-.04.284c0 .202-.09.47-.147.81q-.22 1.11-.61 3.112c-.537 2.723-1.302 6.629-2.246 11.442a947 947 0 0 0-3.189 17.018c-.561 3.201-1.139 6.572-1.627 10.073a42 42 0 0 0-.496 5.348q-.003.313.073.616c0 .097.236.243.407.389l1.09.859 2.205 1.742 4.979 3.931.22.178-.228.162-7.534 5.348.065-.251 10.91 25.656c1.326 3.169 2.384 5.673 3.116 7.464.35.85.626 1.515.813 2.001l.196.519q.046.102.073.21"/><path fill="#FFB0B5" d="m164.785 173.169-59.306-9.114a1.96 1.96 0 0 0-2.236 1.633l-12.791 82.587a1.954 1.954 0 0 0 1.638 2.228l59.306 9.113a1.96 1.96 0 0 0 2.237-1.632l12.791-82.587a1.954 1.954 0 0 0-1.639-2.228"/><path fill="#9292A9" d="m164.779 173.203-59.3-9.147a1.96 1.96 0 0 0-2.236 1.632l-12.745 82.594a1.957 1.957 0 0 0 1.64 2.23l59.301 9.146a1.957 1.957 0 0 0 2.235-1.632l12.745-82.594a1.957 1.957 0 0 0-1.64-2.229"/><path fill="#E6E6F0" d="m162.913 174.762-56.13-8.625-12.464 80.473 56.13 8.625z"/><path fill="#27272E" d="M146.052 173.441a6.95 6.95 0 0 0-2.114-3.149 7 7 0 0 0-3.459-1.575l.472-3.444a4.75 4.75 0 0 0-.87-3.538 4.794 4.794 0 0 0-6.681-1.028 4.76 4.76 0 0 0-1.903 3.115l-.553 3.566-1.204-.162a6.94 6.94 0 0 0-6.631 2.869l-.935 1.296 24.407 3.76zm-10.088-6.288a2.57 2.57 0 0 1-2.109-1.921 2.55 2.55 0 0 1 .977-2.675 2.573 2.573 0 0 1 3.851.984c.214.459.287.972.21 1.473a2.57 2.57 0 0 1-1.023 1.67 2.58 2.58 0 0 1-1.906.469m-10.162 13.598a70 70 0 0 1-7.648-.956 72 72 0 0 1-7.574-1.378c2.562.177 5.113.496 7.64.956 2.55.323 5.081.783 7.582 1.378m-8.283 1.345a15.8 15.8 0 0 1-3.701-.356 16.6 16.6 0 0 1-3.637-.77 17 17 0 0 1 3.702.356 16.6 16.6 0 0 1 3.636.77m34.65 12.626c0 .113-9.519-1.257-21.21-3.047s-21.152-3.355-21.152-3.469 9.51 1.248 21.209 3.047 21.169 3.347 21.153 3.469m-.626 4.019c0 .113-9.51-1.248-21.209-3.047s-21.153-3.347-21.153-3.46c0-.114 9.511 1.248 21.21 3.047s21.169 3.346 21.152 3.46m-.618 4.027c0 .114-9.519-1.256-21.209-3.047-11.691-1.79-21.153-3.354-21.153-3.468s9.519 1.248 21.218 3.047 21.16 3.347 21.144 3.468m-.626 4.02c0 .113-9.511-1.248-21.21-3.047s-21.152-3.347-21.152-3.468c0-.122 9.51 1.256 21.209 3.055s21.202 3.346 21.153 3.46m-.627 4.019c0 .122-9.511-1.248-21.21-3.047s-21.152-3.347-21.152-3.46c0-.114 9.51 1.248 21.209 3.047s21.177 3.347 21.153 3.46m-.618 4.028c0 .113-9.519-1.248-21.21-3.047s-21.153-3.347-21.153-3.469 9.511 1.248 21.21 3.047 21.169 3.355 21.153 3.469m-21.739.373a3.8 3.8 0 0 1-.814-.049 82 82 0 0 1-2.278-.284 443 443 0 0 1-14.977-2.301 87 87 0 0 1-2.262-.413 3 3 0 0 1-.814-.211q.41-.028.814.048a82 82 0 0 1 2.278.284c1.928.251 4.58.64 7.501 1.086s5.565.883 7.477 1.216c.96.162 1.724.307 2.261.413.28.033.554.104.814.211m28.246-30.251a14.2 14.2 0 0 1-3.425-.316 14 14 0 0 1-3.36-.73c2.296.072 4.575.423 6.785 1.046m-39.236 37.536a37 37 0 0 1-5.533-.641 36.4 36.4 0 0 1-5.467-1.053c1.858.074 3.707.288 5.532.64a37 37 0 0 1 5.468 1.054m-.195 3.711a38.4 38.4 0 0 1-5.63-.656 36.5 36.5 0 0 1-5.557-1.07c1.888.08 3.767.299 5.622.656a36.4 36.4 0 0 1 5.565 1.07m32.183.648a17.4 17.4 0 0 1-5.313-.81 9 9 0 0 1 2.693.195c.901.062 1.786.27 2.62.615m-.325 3.315a17.4 17.4 0 0 1-5.314-.811 17.4 17.4 0 0 1 5.314.811m-37.586-.916a8.5 8.5 0 0 1-2.604-.186 8.1 8.1 0 0 1-2.53-.608 8.2 8.2 0 0 1 2.595.186 8 8 0 0 1 2.539.608m37.179 4.781a4.8 4.8 0 0 1-1.961-.089 4.7 4.7 0 0 1-1.896-.502 4.5 4.5 0 0 1 1.961.081 4.6 4.6 0 0 1 1.896.51m-43.998 3.039q.48-.042.96 0l2.701.081 9.649.381h.22l-.049.211a4.6 4.6 0 0 1-1.692 2.617 3.85 3.85 0 0 1-3.255.737 3.78 3.78 0 0 1-2.676-2.309 3.24 3.24 0 0 1 .992-3.501 3 3 0 0 1 1.286-.68q.18-.047.366-.057a1.6 1.6 0 0 1 .398 0 .56.56 0 0 1 .415.308c.054.139.071.29.049.437a6.3 6.3 0 0 1-.887 2.561 6.5 6.5 0 0 1-1.798 1.896 4.08 4.08 0 0 1-2.44.811 2.3 2.3 0 0 1-1.953-1.402 3.4 3.4 0 0 1-.163-2.261 8.2 8.2 0 0 1 2.278-3.242l.22-.218v.308a5.5 5.5 0 0 1-.618 3.241 5.9 5.9 0 0 1-1.627 1.921 5.1 5.1 0 0 1-1.392.761 2 2 0 0 1-.536.13 6.6 6.6 0 0 0 1.83-1.021 5.9 5.9 0 0 0 1.505-1.896c.49-.96.674-2.045.529-3.112l.26.081a8 8 0 0 0-2.156 3.144 3.05 3.05 0 0 0 .163 2.018c.135.326.359.608.647.814.287.206.627.328.98.353a3.6 3.6 0 0 0 2.148-.738 5.92 5.92 0 0 0 2.498-4.165.45.45 0 0 0 0-.219c0-.04 0-.056-.114-.073a2 2 0 0 0-.586.057 2.65 2.65 0 0 0-1.106.584 2.86 2.86 0 0 0-.871 3.047 3.4 3.4 0 0 0 2.294 2.03 3.4 3.4 0 0 0 3.002-.637 4.18 4.18 0 0 0 1.57-2.382l.171.219-9.567-.559-2.701-.179a8 8 0 0 1-.944-.097m40.206 6.037q-.196.278-.464.486a3 3 0 0 1-.691.438 1.57 1.57 0 0 1-1.115.057 1.08 1.08 0 0 1-.569-.414 1.44 1.44 0 0 1-.228-.713q.01-.776.114-1.548c.105-1.102.228-2.309.358-3.614l.35.138-3.108 4.19-.773 1.037-.505.681.122-.811c.334-2.163.635-4.181.904-5.956l.301.162a19 19 0 0 0-3.344 3.647c-.684.98-1.009 1.62-1.05 1.572a1.8 1.8 0 0 1 .187-.462q.314-.63.692-1.224a17.3 17.3 0 0 1 3.254-3.808l.366-.316-.073.486c-.244 1.766-.537 3.792-.813 5.964l-.383-.162.814-1.037c1.106-1.475 2.156-2.885 3.132-4.174l.431-.583-.081.721c-.155 1.305-.293 2.512-.423 3.606q-.114.746-.147 1.499a.92.92 0 0 0 .586.916 1.78 1.78 0 0 0 1.627-.373q.248-.224.529-.405"/><path fill="#27272E" d="M145.221 240.904c-2.656.196-5.32.253-7.981.17a76 76 0 0 1-7.973-.243 74 74 0 0 1 7.973-.178 75 75 0 0 1 7.981.251m2.596 2.52a50 50 0 0 1-6.378.9 50.5 50.5 0 0 1-6.419.486 47 47 0 0 1 6.378-.908 48 48 0 0 1 6.419-.478"/><path fill="#27272E" d="M77.07 159.989c-.098 2.431.561 4.911 2.595 6.281-2.546 1.231-3.905 4.181-3.986 7.001s.903 5.559 1.968 8.177c3.295 8.047 10.325 19.376 15.686 26.231 0 0-2.717-7.293-3.498-9.003-3.531-7.69-6.647-15.397-10.186-23.111-.39-.811-1.09-3.177-1.09-3.177a4.5 4.5 0 0 0 1.057-.721c1.986-1.621 6.29-4.465 6.29-4.465s-8.836-6.97-8.836-7.213" opacity=".2"/><path fill="#27272E" d="M76.95 176.521c.114 0-.09 9.36-.464 20.891s-.765 20.883-.879 20.875.081-9.352.456-20.891c.374-11.54.765-20.883.887-20.875m14.008-24.579h-.814c0-.307 1.18-30.963 2.1-43.168a6.28 6.28 0 0 1 2.139-4.505c2.538-2.164 6.337-1.88 6.508-1.872l-.065.81c-.04 0-3.628-.259-5.906 1.678a5.55 5.55 0 0 0-1.863 3.954c-.895 12.115-2.059 42.763-2.1 43.103"/><path fill="#555567" d="M98.58 203.222h-1.44v-1.621h1.44a5.7 5.7 0 0 0 4.027-1.661 5.66 5.66 0 0 0 1.668-4.011v-17.163h1.628v17.163a7.28 7.28 0 0 1-2.145 5.157 7.34 7.34 0 0 1-5.177 2.136"/><path fill="#27272E" d="M99.166 202.606a1.74 1.74 0 0 1-1.233 1.497 1.76 1.76 0 0 1-1.86-.561 1.74 1.74 0 0 1-.191-1.927 1.749 1.749 0 0 1 3.284.991"/><path fill="#555567" d="M84.508 203.182h-1.44a7.34 7.34 0 0 1-5.178-2.136 7.28 7.28 0 0 1-2.144-5.158l.065-17.163h1.627l-.065 17.163c0 1.505.6 2.948 1.668 4.011a5.7 5.7 0 0 0 4.027 1.662h1.44z"/><path fill="#27272E" d="M82.488 202.558a1.743 1.743 0 0 0 3.465.005 1.73 1.73 0 0 0-.905-1.701 1.746 1.746 0 0 0-2.493 1.02c-.067.219-.09.448-.067.676m-7.158-21.856-.203-12.236c-.155-9.328 6.687-17.018 15.254-17.172a14.9 14.9 0 0 1 6.067 1.23c1.913.829 3.63 2.05 5.038 3.584a17.63 17.63 0 0 1 4.711 11.839l.203 12.245-2.44.04-.204-12.244a15.17 15.17 0 0 0-4.068-10.219 12.38 12.38 0 0 0-9.282-4.052c-7.225.122-13.017 6.71-12.855 14.7l.204 12.237zm69.492-28.306c0-.324-3.734-32.179-4.808-42.39l-.073-.745c-.334-3.469-.724-7.391-4.572-8.428l.211-.81c4.393 1.183 4.825 5.591 5.174 9.132l.074.738c1.065 10.21 4.767 42.066 4.8 42.39z"/><path fill="#27272E" d="M151.405 153.085a8.67 8.67 0 0 0 0-12.297c-3.409-3.395-8.937-3.395-12.346 0a8.67 8.67 0 0 0 0 12.297c3.409 3.396 8.937 3.396 12.346 0"/><path fill="#555567" d="M149.444 146.934c0 .833-.248 1.646-.712 2.338a4.236 4.236 0 0 1-6.499.633 4.19 4.19 0 0 1-.91-4.586 4.21 4.21 0 0 1 3.906-2.59 4.22 4.22 0 0 1 3.896 2.596c.212.511.32 1.057.319 1.609"/><path fill="#1900AF" d="M93.617 208.328 82.66 235.175l87.415 24.14a28.11 28.11 0 0 0 23.642-4.051c9.144-6.427 11.39-17.666 10.275-28.792l-1.578-11.832z"/><path fill="#27272E" d="M186.232 237.468c-.09 0-.277-1.831-1.18-4.659a24 24 0 0 0-.813-2.278c-.31-.81-.741-1.62-1.172-2.528a33.7 33.7 0 0 0-3.523-5.308 34 34 0 0 0-4.523-4.489c-.814-.592-1.513-1.183-2.254-1.621a24 24 0 0 0-2.074-1.272c-2.604-1.435-4.385-1.986-4.353-2.075a7 7 0 0 1 1.245.381q.73.236 1.424.559c.545.251 1.179.503 1.83.875q1.097.56 2.124 1.24c.756.454 1.505 1.046 2.302 1.621a33 33 0 0 1 4.613 4.522 32.3 32.3 0 0 1 3.531 5.397c.431.899.854 1.742 1.155 2.577q.474 1.135.814 2.317.306.967.496 1.962a10 10 0 0 1 .268 1.531q.102.62.09 1.248"/><path fill="#27272E" d="M80.708 219.754c-6.671.551-11.821 1.158-18.712 2.001-4.304.527-8.77.227-10.178-3.849-1.407-4.076-.512-8.744 1.798-12.399s5.94-12.155 25.367-5.672z" opacity=".2"/><path fill="#27272E" d="m89.705 218.579.049-.179.187-.535.732-2.042 2.807-7.544.04-.105h.106l29.735 2.682 28.767 2.723 8.714.867 2.367.259.61.081a.7.7 0 0 1 .212.041h-.83l-2.376-.179-8.729-.745-28.775-2.593-29.72-2.812.147-.098-2.928 7.504-.814 2.01-.22.519c-.04.097-.073.154-.081.146"/><path fill="#27272E" d="M125.671 246.269c12.415 3.314 19.965 1.393 31.241-4.749a61 61 0 0 0 6.639-4.49 24 24 0 0 0 4.254-4.497c-14.522 5.535-26.587 9.724-41.556 13.89" opacity=".2"/><path fill="#B78876" d="m89.747 218.287 2.84-7.901-6.598-10.276a7.8 7.8 0 0 0-2.198-2.247c-.878-.592-1.87-1-2.911-1.197l-24.277-4.562c-.302.905-.26 1.89.118 2.766a3.9 3.9 0 0 0 1.932 1.991c3.181 1.807 17.492 5.121 17.492 5.121l-22.04-.372s-.683 3.168 1.815 4.303c2.497 1.134 18.199 1.709 18.199 1.709l-20.103 2.82s-.114 3.177 4.483 3.242a134 134 0 0 0 13.545-.851.723.723 0 0 1 .814.592.72.72 0 0 1-.545.81l-13.367 3.144c-.385.087-.73.297-.983.6a1.777 1.777 0 0 0 .853 2.844c.242.058.492.075.74.049 2.278-.227 15.88-1.945 15.88-1.945l.709 1.58 13.602-2.204"/><path fill="#AA6550" d="M79.763 215.848a4.5 4.5 0 0 0-.749-1.2 3.3 3.3 0 0 0-1.285-.81 5 5 0 0 0-1.855-.203c-1.35.098-2.57.487-3.482.6a3.2 3.2 0 0 1-1.497 0q.711-.2 1.44-.316a22 22 0 0 1 3.515-.729 5 5 0 0 1 2.017.259 3.5 3.5 0 0 1 1.367.956 1.72 1.72 0 0 1 .529 1.443m2.197-6.021c-.041 0-.065-.219-.244-.568a2.8 2.8 0 0 0-1.156-1.134c-1.228-.713-3.303-.478-5.483-.332s-4.182.47-5.622.656c-.772.146-1.556.225-2.343.235a12 12 0 0 1 2.294-.527 57 57 0 0 1 5.63-.81 31 31 0 0 1 3.14-.122 5 5 0 0 1 2.53.616c.524.302.931.77 1.156 1.329.102.203.136.433.098.657m1.676-3.501a3.95 3.95 0 0 0-.513-1.832 4.2 4.2 0 0 0-1.464-1.418 6.5 6.5 0 0 0-2.44-.713c-1.823-.17-3.532 0-4.776-.097a4.3 4.3 0 0 1-1.945-.47c0-.065.749.154 1.96.178 1.213.025 2.897-.202 4.809 0 .91.075 1.79.352 2.579.811a4.2 4.2 0 0 1 1.53 1.62 2.9 2.9 0 0 1 .366 1.443c-.017.3-.106.478-.106.478"/><path fill="#27272E" d="M162.445 206.302q.002-.663.122-1.313c.106-.81.309-2.058.594-3.55.561-2.982 1.554-7.058 2.603-11.555.928-3.831 1.637-7.71 2.124-11.621.097-.754.138-1.434.195-2.034s.089-1.11.106-1.54q-.006-.661.113-1.312.08.658.049 1.321v1.547c0 .6-.049 1.289-.138 2.042a86 86 0 0 1-2.001 11.694c-1.058 4.506-2.091 8.557-2.726 11.523a153 153 0 0 0-.724 3.509q-.105.657-.317 1.289m8.435 53.159a1.6 1.6 0 0 1-.48-.081l-1.351-.3-4.946-1.215c-4.173-1.045-9.925-2.561-16.271-4.311a629 629 0 0 1-16.141-4.684l-4.881-1.507-1.318-.438a1.8 1.8 0 0 1-.366-.17q.243.016.472.097l1.342.357 4.881 1.385 16.174 4.563 16.181 4.424 4.882 1.337 1.334.381q.252.055.488.162M87.133 24.416c1.79-5.503 10.959-10.47 15.986-13.355 7.526-4.303 14.498-3.444 18.793.39 7.761-6.484 17.988-12.724 27.791-10.17 9.803 2.552 17.768 12.552 15.978 22.495-1.049 5.859-5.125 11.11-4.881 17.017.162 4.052 2.318 7.715 4.068 11.394s3.034 7.958 1.505 11.718c-1.424 3.492-4.979 5.672-6.891 8.914-1.562 2.658-1.92 5.818-2.921 8.727-3.693 10.778-16.466 16.823-27.742 14.927s-20.672-10.348-26.033-20.429-7.086-21.653-7.705-33.022"/><path fill="#B78876" d="m95.44 32.009 2.253 89.869c.814 10.3 10.341 17.828 21.405 16.872 11.17-.956 19.704-10.17 19.061-20.592-.675-10.931-1.179-22.463-1.179-22.463s13.985-3.241 15.726-21.815c.886-9.513-.659-25.12-2.278-37.487a18.4 18.4 0 0 0-2.396-6.985 18.5 18.5 0 0 0-4.955-5.488 18.54 18.54 0 0 0-14.127-3.345"/><path fill="#27272E" d="M146.279 49.675a2.34 2.34 0 0 1-.545 1.692 2.36 2.36 0 0 1-1.579.828 2.27 2.27 0 0 1-2.297-1.111 2.3 2.3 0 0 1-.282-.85 2.36 2.36 0 0 1 .547-1.693 2.38 2.38 0 0 1 1.577-.835 2.28 2.28 0 0 1 2.298 1.118c.149.262.245.551.281.85"/><path fill="#27272E" d="M148.63 47.276c-.276.324-2.156-.883-4.702-.713s-4.328 1.556-4.621 1.264c-.146-.13.114-.697.887-1.345a6.5 6.5 0 0 1 3.685-1.394 6.3 6.3 0 0 1 3.759.948c.822.56 1.123 1.086.992 1.24m-26.757 4.944a2.35 2.35 0 0 1-.543 1.696 2.36 2.36 0 0 1-1.581.832 2.28 2.28 0 0 1-2.298-1.119 2.2 2.2 0 0 1-.281-.85 2.36 2.36 0 0 1 .547-1.694 2.38 2.38 0 0 1 1.576-.835 2.28 2.28 0 0 1 2.298 1.118c.15.262.246.552.282.851m1.756-2.86c-.276.324-2.156-.884-4.702-.713-2.547.17-4.328 1.556-4.621 1.264-.147-.13.114-.697.895-1.345a6.5 6.5 0 0 1 3.677-1.394 6.3 6.3 0 0 1 3.759.948c.862.55 1.122 1.086.992 1.24m10.446 18.209c0-.138 1.537-.511 4.067-1.005.643-.106 1.253-.276 1.335-.73a3.27 3.27 0 0 0-.562-1.888c-.708-1.531-1.456-3.128-2.237-4.805-3.124-6.856-5.435-12.504-5.158-12.626s3.035 5.332 6.167 12.156c.748 1.685 1.472 3.298 2.156 4.862.464.753.643 1.647.504 2.52a1.61 1.61 0 0 1-1.009 1.013 4 4 0 0 1-1.09.219c-2.546.316-4.173.43-4.173.283"/><path fill="#AA6550" d="M136.988 95.663a47.2 47.2 0 0 1-25.139-4.976s6.989 12.374 25.343 9.465z"/><path fill="#27272E" d="M123.646 39.375c-.212.705-2.774.543-5.736 1.094s-5.329 1.515-5.768.924c-.195-.284.187-.965 1.115-1.694a9.8 9.8 0 0 1 4.198-1.774 9.9 9.9 0 0 1 4.564.235c1.122.372 1.708.883 1.627 1.215m23.568.616c-.407.608-2.205.121-4.312.227-2.107.105-3.872.64-4.32.065-.203-.284 0-.876.814-1.475a6.265 6.265 0 0 1 6.956-.227c.74.543 1.041 1.118.862 1.41"/><path fill="#AA6550" d="M130.137 72.34c1.993 0 2.986.584 4.678 1.621.51.268.929.68 1.204 1.183a2.5 2.5 0 0 1-.252 2.204 4.46 4.46 0 0 1-4.222 2.245 4.07 4.07 0 0 1-2.271-.995 4.04 4.04 0 0 1-1.268-2.125 3.8 3.8 0 0 1 .352-2.438 3.8 3.8 0 0 1 1.779-1.71"/><path fill="#27272E" d="M136.899 76.579c0 .194-.635.486-1.749.421a9.5 9.5 0 0 1-3.987-1.296 11.1 11.1 0 0 1-3.197-2.666c-.659-.81-.862-1.524-.692-1.621.334-.219 2.01 1.531 4.646 2.974 1.09.627 2.237 1.15 3.425 1.564.911.308 1.53.413 1.554.624"/><path fill="#AA6550" d="M124.329 60.76a.674.674 0 0 0 .676-.672.674.674 0 0 0-.676-.673.674.674 0 1 0 0 1.346m19.795-3.971a.672.672 0 0 1-.808.66.68.68 0 0 1-.531-.529.672.672 0 0 1 .663-.804.68.68 0 0 1 .478.197.67.67 0 0 1 .198.476m3.734 1.75a.7.7 0 0 1-.171.529.68.68 0 0 1-.509.226.69.69 0 0 1-.651-.473c-.029-.09-.039-.187-.029-.282a.68.68 0 0 1 .68-.606.684.684 0 0 1 .68.606m1.13-2.812a.672.672 0 0 1-.807.66.675.675 0 0 1-.493-.917.68.68 0 0 1 .625-.415.673.673 0 0 1 .675.673m-27.074 7.333a.68.68 0 0 1-.417.634.684.684 0 0 1-.899-.885.68.68 0 0 1 .632-.422.686.686 0 0 1 .684.673m-2.539-2.69a.672.672 0 0 1-.807.66.68.68 0 0 1-.531-.53.67.67 0 0 1 .663-.804.673.673 0 0 1 .675.673"/><path fill="#fff" d="M130.439 52.22a18.5 18.5 0 0 0-.447-2.837 11.64 11.64 0 0 0-4.28-6.345 11.5 11.5 0 0 0-4.881-2.14 11.66 11.66 0 0 0-6.069.511 10.8 10.8 0 0 0-2.913 1.572 11 11 0 0 0-2.441 2.431 11.445 11.445 0 0 0 0 13.59 11.7 11.7 0 0 0 5.354 4.052 11.66 11.66 0 0 0 6.069.51 11.5 11.5 0 0 0 4.881-2.139 11.66 11.66 0 0 0 4.28-6.337q.332-1.4.447-2.836a.5.5 0 0 1 0 .186v.56q0 .456-.073.907-.063.616-.22 1.215a11 11 0 0 1-1.269 3.16 11.83 11.83 0 0 1-6.193 5.14 11.88 11.88 0 0 1-8.061-.002 11.4 11.4 0 0 1-3.026-1.62 11.1 11.1 0 0 1-2.53-2.52 11.78 11.78 0 0 1 0-14.076 11.1 11.1 0 0 1 2.53-2.52 11.4 11.4 0 0 1 3.026-1.621 11.97 11.97 0 0 1 6.265-.487c1.656.32 3.224.987 4.602 1.956 1.377.97 2.532 2.22 3.387 3.668a11.1 11.1 0 0 1 1.269 3.16q.159.604.22 1.224.073.448.073.9v.559q.015.09 0 .178"/><path fill="#fff" d="M135.541 48.678a9.3 9.3 0 0 0-2.783-.324 9.7 9.7 0 0 0-2.661.891s.171-.308.627-.616a4.54 4.54 0 0 1 1.985-.697 4.4 4.4 0 0 1 2.099.276c.505.203.757.421.733.47"/><path fill="#27272E" d="M128.104 17.949c-1.627 14.643-12.561 27.828-26.668 32.269 4.548 6.531 1.684 18.962 1.798 29.335.114 9.643.106 12.398-6.166 17.317-5.183 1.24-8.136-12.9-12.025-16.855s-7.541-8.825-7.257-14.32c.139-2.576 1.147-5.04 1.286-7.609.162-2.852-.757-5.672-1.261-8.452-2.246-12.439 4.198-25.818 15.107-32.325 10.91-6.507 25.399-6.07 36.195.583"/><path fill="#27272E" d="M96.97 78.15a35.45 35.45 0 0 0-6.826-12.916l.236.502a15.9 15.9 0 0 0-4.284-5.733 16 16 0 0 0-6.371-3.286 16.03 16.03 0 0 0-13.7 2.792 15.9 15.9 0 0 0-4.562 5.515 15.86 15.86 0 0 0-.133 13.928 15.9 15.9 0 0 0 4.456 5.6c-1.83-.404-3.685 1.168-4.068 2.991a6.9 6.9 0 0 0 1.375 5.284c3.816 5.559 12.464 7.025 17.899 3.038 4.311 2.91 10.682 1.216 13.879-2.876 3.197-4.093 3.571-9.863 2.099-14.838"/><path fill="#555567" d="M79.503 56.7a4 4 0 0 1-.464-.518 5.4 5.4 0 0 1-.813-1.79c-.496-1.678-.26-4.328 1.074-7.132a14.1 14.1 0 0 1 2.945-4.109A27.6 27.6 0 0 1 86.67 39.4a23.3 23.3 0 0 1 5.752-2.868c2.107-.721 4.344-1.28 6.623-1.848 2.277-.567 4.507-1.126 6.589-1.856a40.6 40.6 0 0 0 5.833-2.528 43.3 43.3 0 0 0 8.779-6.159 44.3 44.3 0 0 0 4.946-5.308c.537-.672.927-1.215 1.196-1.62q.19-.288.431-.535a5 5 0 0 1-.358.583c-.252.381-.618.94-1.139 1.621a40.4 40.4 0 0 1-4.881 5.43 43 43 0 0 1-8.819 6.288 41 41 0 0 1-5.882 2.569c-2.107.737-4.344 1.304-6.622 1.88s-4.507 1.118-6.598 1.823a23.3 23.3 0 0 0-5.695 2.796 28.5 28.5 0 0 0-4.393 3.679 13.9 13.9 0 0 0-2.864 4.06c-1.342 2.73-1.627 5.316-1.18 6.96a6.35 6.35 0 0 0 1.115 2.335"/><path fill="#555567" d="M126.802 16.717a4 4 0 0 1-.382.462c-.261.3-.659.721-1.172 1.264a52 52 0 0 1-4.694 4.255 32.9 32.9 0 0 1-8.07 4.862 31 31 0 0 1-5.386 1.45c-1.896.381-3.873.673-5.89.981a65.7 65.7 0 0 0-11.219 2.342 24.7 24.7 0 0 0-8.136 4.481 16 16 0 0 0-3.92 4.862q-.382.769-.676 1.572a2.7 2.7 0 0 1-.236.552q.057-.294.155-.576.244-.832.61-1.62a15.5 15.5 0 0 1 3.872-5.009 24.4 24.4 0 0 1 8.193-4.619 64.6 64.6 0 0 1 11.275-2.43c2.026-.3 3.995-.6 5.874-.965a31.4 31.4 0 0 0 5.329-1.41 33.4 33.4 0 0 0 8.022-4.724 59 59 0 0 0 4.775-4.125l1.229-1.2q.203-.225.447-.405"/><path fill="#555567" d="M147.458.688c0 .09-1.586.146-4.068.81q-1.009.263-1.985.633c-.707.235-1.423.583-2.196.924a24.6 24.6 0 0 0-8.478 6.71c-.504.672-1.008 1.288-1.399 1.928q-.584.856-1.066 1.775c-1.196 2.236-1.627 3.776-1.692 3.744q.082-.55.277-1.07.176-.631.439-1.232.31-.832.716-1.62.457-.95 1.033-1.832c.383-.648.879-1.288 1.383-1.977a26.6 26.6 0 0 1 3.913-3.914 26 26 0 0 1 4.711-2.901q1.097-.514 2.245-.9a20.7 20.7 0 0 1 3.727-.924 9 9 0 0 1 1.301-.154 5 5 0 0 1 1.139 0m13.107 69.967s0-.057.122-.162l.382-.446c.342-.397.854-.972 1.432-1.774a10 10 0 0 0 1.627-3.153 5.7 5.7 0 0 0 .171-2.18 6.2 6.2 0 0 0-.814-2.31c-.878-1.515-2.318-2.835-3.636-4.472a26.1 26.1 0 0 1-5.508-12.804 53 53 0 0 1-.195-7.901 27.4 27.4 0 0 0-.724-7.771 16 16 0 0 0-3.298-6.012 16.05 16.05 0 0 0-5.521-4.086 14.8 14.8 0 0 0-5.565-1.28 16.3 16.3 0 0 0-10.023 2.942l-.488.34c-.106.073-.163.114-.171.105a11.6 11.6 0 0 1 2.53-1.766 16.3 16.3 0 0 1 8.136-1.92c1.962.047 3.896.474 5.695 1.255a16.3 16.3 0 0 1 5.684 4.159 16.3 16.3 0 0 1 3.395 6.157 27.8 27.8 0 0 1 .74 7.885 53 53 0 0 0 .187 7.844 25.8 25.8 0 0 0 5.386 12.634c1.286 1.62 2.734 2.966 3.629 4.546.433.747.71 1.574.813 2.431.081.766.009 1.54-.211 2.277a9.8 9.8 0 0 1-1.733 3.185 20 20 0 0 1-1.497 1.734l-.423.422a.7.7 0 0 1-.122.121"/><path fill="#fff" d="M158.678 49.359a19 19 0 0 0-.448-2.837 11.65 11.65 0 0 0-9.548-8.54 11.65 11.65 0 0 0-5.682.575 11.7 11.7 0 0 0-5.353 4.051 11.43 11.43 0 0 0 0 13.582 10.7 10.7 0 0 0 2.441 2.431A11 11 0 0 0 143 60.185a11.68 11.68 0 0 0 9.382-.632 11.6 11.6 0 0 0 3.701-3.052 11.6 11.6 0 0 0 2.147-4.282q.333-1.4.448-2.836a.5.5 0 0 1 0 .195v.55q0 .458-.074.908a8 8 0 0 1-.219 1.224 11.1 11.1 0 0 1-1.269 3.16 11.9 11.9 0 0 1-2.986 3.38 11.89 11.89 0 0 1-11.268 1.75 11.1 11.1 0 0 1-3.027-1.62 11.4 11.4 0 0 1-2.53-2.53 11.77 11.77 0 0 1-2.335-7.033c0-2.534.819-5 2.335-7.034a11.1 11.1 0 0 1 2.53-2.52 11.4 11.4 0 0 1 3.027-1.621 11.97 11.97 0 0 1 6.264-.494 11.87 11.87 0 0 1 7.99 5.672 11 11 0 0 1 1.269 3.153q.156.603.219 1.223.074.451.074.908v.559a.5.5 0 0 1 0 .146"/><path fill="#555567" d="M96.954 97.17a1.8 1.8 0 0 1-.399-.267c-.252-.187-.61-.47-1.082-.81a34 34 0 0 1-3.693-3.428 13.3 13.3 0 0 1-3.483-6.58 31 31 0 0 1-.195-4.41 7.6 7.6 0 0 0-1.269-4.343 26.7 26.7 0 0 0-3.18-3.435 12.9 12.9 0 0 1-2.62-3.59 16 16 0 0 1-1.27-3.81 15.2 15.2 0 0 1-.333-3.476c0-1.077.252-2.017.35-2.844a9.6 9.6 0 0 0 .048-2.131c-.138-1.167-.366-1.791-.325-1.807q.113.214.179.445.204.658.31 1.337a9 9 0 0 1 0 2.18c-.074.81-.27 1.783-.294 2.828.013 2.46.568 4.886 1.627 7.107a12.6 12.6 0 0 0 2.563 3.469 26 26 0 0 1 3.254 3.484 7 7 0 0 1 1.034 2.229c.186.767.287 1.552.3 2.342-.04 1.455.017 2.912.171 4.36a13.17 13.17 0 0 0 3.312 6.482 38 38 0 0 0 3.587 3.493l1.107.843q.166.151.3.332"/><path fill="#555567" d="M87.704 78.297q.023.166 0 .332c0 .219 0 .535-.065.948a15 15 0 0 1-.813 3.412 16.67 16.67 0 0 1-7.21 8.839 16.77 16.77 0 0 1-11.226 2.157 15.4 15.4 0 0 1-3.392-.915c-.39-.146-.675-.308-.87-.397-.196-.09-.294-.154-.285-.17 1.486.546 3.023.945 4.588 1.19 1.701.22 3.425.19 5.117-.088A16.23 16.23 0 0 0 84.06 87.34a17.5 17.5 0 0 0 2.49-4.45 25 25 0 0 0 1.155-4.594"/><path fill="#555567" d="M84.572 74.488q-.051.569-.236 1.11a16 16 0 0 1-1.147 2.877 18.7 18.7 0 0 1-6.931 7.399 20.3 20.3 0 0 1-9.763 2.852 19 19 0 0 1-3.1-.162 5 5 0 0 1-1.114-.227q2.1.15 4.206.09a20.9 20.9 0 0 0 9.559-2.918 19.26 19.26 0 0 0 6.883-7.18 32 32 0 0 0 1.643-3.841m-23.797-8.071c.223-.174.47-.315.732-.421q.437-.235.903-.406.61-.255 1.245-.437a17 17 0 0 1 3.36-.649c1.395-.12 2.8-.094 4.19.081 1.387.196 2.75.535 4.067 1.013 1.07.41 2.095.925 3.06 1.54q.556.349 1.065.762.405.288.757.64.326.273.578.616c-.058.065-.912-.81-2.563-1.767a18.4 18.4 0 0 0-3.035-1.426 22 22 0 0 0-3.986-.956 21.5 21.5 0 0 0-4.068-.122 18.7 18.7 0 0 0-3.311.56c-1.888.486-2.913 1.045-2.994.972"/><path fill="#9292A9" d="M79.503 64.918c-.073.089-5.207-4.255-11.455-9.725s-11.26-9.918-11.186-10.008 5.206 4.263 11.463 9.725 11.243 9.927 11.178 10.008"/><path fill="#fff" d="M102.941 56.044a5 5 0 0 1 1.676-1.88 4.97 4.97 0 0 1 2.213-1.215 15 15 0 0 1-1.953 1.54 16 16 0 0 1-1.936 1.555"/><path fill="#E6E6F0" d="M80.097 60.607a1 1 0 0 1-.106-.163 14 14 0 0 0-.277-.494 7.2 7.2 0 0 1-.634-2.074c-.301-2.696.47-5.4 2.147-7.537a12 12 0 0 1 1.815-1.953 14.5 14.5 0 0 1 2.391-1.62 21.2 21.2 0 0 1 6.004-2.059c4.402-.916 9.356-.697 14.4-1.442a22.2 22.2 0 0 0 7.086-2.18 21.1 21.1 0 0 0 5.435-4.214 33.3 33.3 0 0 0 6.297-9.822c1.334-3.07 2.172-5.672 2.782-7.422l.691-2.05.188-.527q.028-.093.073-.179v.187l-.147.543-.675 2.107a75 75 0 0 1-2.66 7.487 33.1 33.1 0 0 1-6.289 9.976 21.3 21.3 0 0 1-5.548 4.279 22.4 22.4 0 0 1-7.192 2.236c-5.109.762-10.04.519-14.392 1.41-4.352.892-8.086 2.699-10.047 5.422a10.28 10.28 0 0 0-2.213 7.293c.14.972.434 1.915.87 2.795"/><path fill="#27272E" d="M85.263 92.786a12 12 0 0 1-.976 3.242 15 15 0 0 1-2.124 3.444 14.3 14.3 0 0 1-4.116 3.452 13.5 13.5 0 0 1-6.297 1.62 12.3 12.3 0 0 1-7.143-2.082 11.9 11.9 0 0 1-4.735-6.67 10.3 10.3 0 0 1-.244-4.384 10.6 10.6 0 0 1 1.7-4.197 10.2 10.2 0 0 1 6.045-4.263v.405a16.4 16.4 0 0 1-6.98-2.828 13.4 13.4 0 0 1-4.443-5.308 12.45 12.45 0 0 1-1.082-6.102 10.3 10.3 0 0 1 1.766-5.048 10.6 10.6 0 0 1 3.254-2.998 10 10 0 0 1 3.084-1.184 8.6 8.6 0 0 1 2.066-.154l.529.057a.6.6 0 0 1 .179 0 10.8 10.8 0 0 0-2.75.21 9.9 9.9 0 0 0-2.994 1.224 10.4 10.4 0 0 0-3.108 2.966 10.05 10.05 0 0 0-1.668 4.92 12.24 12.24 0 0 0 1.09 5.923 13.07 13.07 0 0 0 4.337 5.138 16.2 16.2 0 0 0 6.818 2.747l1.049.162-1.033.243a9.76 9.76 0 0 0-5.793 4.1 10.2 10.2 0 0 0-1.627 4.052 10.1 10.1 0 0 0 .228 4.214 11.53 11.53 0 0 0 4.564 6.483 12 12 0 0 0 6.915 2.05 13.2 13.2 0 0 0 6.159-1.548A14 14 0 0 0 82 99.342a15.6 15.6 0 0 0 2.164-3.363q.533-1.152.903-2.366c.073-.26.13-.47.17-.64zM80.47 57.738a.8.8 0 0 1-.195-.09l-.57-.3a15 15 0 0 1-2.025-1.385 17 17 0 0 1-5.223-7.293 16.8 16.8 0 0 1-.31-10.51 16.86 16.86 0 0 1 6.005-8.647 23.9 23.9 0 0 1 7.639-3.728c2.75-.773 5.57-1.27 8.42-1.483 2.734-.259 5.37-.38 7.875-.55a69 69 0 0 0 7.078-.811 32.3 32.3 0 0 0 5.964-1.62 21.4 21.4 0 0 0 7.5-4.709 18 18 0 0 0 1.571-1.856l.374-.51a.8.8 0 0 1 .138-.17 12.4 12.4 0 0 1-1.969 2.65 20.8 20.8 0 0 1-7.533 4.862 32 32 0 0 1-6.012 1.677 68 68 0 0 1-7.111.81c-5.003.398-10.576.438-16.149 2.083a23.8 23.8 0 0 0-7.509 3.647 16.6 16.6 0 0 0-5.912 8.443 16.55 16.55 0 0 0 .218 10.292 17.13 17.13 0 0 0 5.044 7.229q.93.793 1.968 1.442l.537.332a1 1 0 0 1 .187.195m90.663-11.953a1.06 1.06 0 0 1-.757.373 2.11 2.11 0 0 1-1.985-1.289 1.9 1.9 0 0 1 .114-1.767 3.3 3.3 0 0 1 1.627-1.369 5.18 5.18 0 0 1 4.971.81 5.3 5.3 0 0 1 1.847 2.375 5.6 5.6 0 0 1 .228 3.241 5.35 5.35 0 0 1-1.807 2.99 6.47 6.47 0 0 1-3.425 1.443 9 9 0 0 1-3.944-.598 9 9 0 0 1-3.296-2.238 10.1 10.1 0 0 1-2.319-3.509 7.97 7.97 0 0 1-.407-4.303 19 19 0 0 1 1.318-4.1 53 53 0 0 0 1.473-3.858 32.4 32.4 0 0 0 1.627-7.601 22.9 22.9 0 0 0-.423-6.985 18 18 0 0 0-2.319-5.673 16 16 0 0 0-6.508-5.916 15 15 0 0 0-2.27-.81l-.619-.154a.7.7 0 0 1-.203-.073h.212l.626.114c.799.18 1.578.438 2.327.77a15.9 15.9 0 0 1 6.663 5.915 18.2 18.2 0 0 1 2.441 5.673c.523 2.328.683 4.722.471 7.099a32.5 32.5 0 0 1-1.627 7.698c-.423 1.297-.935 2.593-1.48 3.882a19.3 19.3 0 0 0-1.286 4.051 7.55 7.55 0 0 0 .391 4.052 9.55 9.55 0 0 0 2.221 3.371 8.6 8.6 0 0 0 3.133 2.15 8.65 8.65 0 0 0 3.758.597 6.14 6.14 0 0 0 3.254-1.345 5 5 0 0 0 1.708-2.78 5.34 5.34 0 0 0-.187-3.062 5.15 5.15 0 0 0-1.724-2.261 4.89 4.89 0 0 0-4.703-.81 3.06 3.06 0 0 0-1.538 1.247 1.73 1.73 0 0 0-.146 1.62 2.02 2.02 0 0 0 1.831 1.265 1.47 1.47 0 0 0 .732-.235"/><path fill="#27272E" d="M165.942 229.186c3.954-1.11 8.054 2.431 12.065 1.516 2.44-.568 4.279-2.739 5.386-5.017 1.106-2.277 1.7-4.789 2.871-7.042 1.172-2.252 3.125-4.319 5.647-4.667 2.31-.308 5.052.77 6.768-.811 1.327-1.215 1.148-3.468.09-4.919s-2.734-2.301-4.353-3.095a24.8 24.8 0 0 0-5.621-2.221 8.33 8.33 0 0 0-5.882.681c-3.385 1.961-4.068 6.41-5.053 10.186a20.4 20.4 0 0 1-3.319 7.383 11 11 0 0 1-6.704 4.311 7.25 7.25 0 0 0-2.986.762c-.854.583-1.187 2.042-.301 2.585" opacity=".2"/><path fill="#B78876" d="m145.335 214.624 14.823-5.146 13.286-20.688a8.85 8.85 0 0 1 5.792-3.906l23.829-4.482a3.88 3.88 0 0 1-.115 2.765 3.9 3.9 0 0 1-1.927 1.992c-3.181 1.807-17.491 5.13-17.491 5.13l22.039-.373s.675 3.169-1.823 4.303c-2.497 1.135-18.199 1.702-18.199 1.702l20.119 2.852s.114 3.185-4.482 3.242a134 134 0 0 1-13.546-.811.717.717 0 0 0-.702 1.105c.101.15.256.256.433.297l13.367 3.145a1.785 1.785 0 0 1 1.4 1.669 1.79 1.79 0 0 1-1.262 1.775 2.1 2.1 0 0 1-.748.048c-2.27-.227-15.881-1.945-15.881-1.945s-4.799 16.759-7.907 18.112-9.624 1.726-9.624 1.726l-13.831 5.454z"/><path fill="#AA6550" d="M204.041 189.851q-.572.12-1.155.114l-3.157.154c-2.66.113-6.346.243-10.405.348l-5.736.146a12.6 12.6 0 0 0-4.548.648 4.9 4.9 0 0 0-2.335 1.921 8 8 0 0 0-.463 1.037.9.9 0 0 1 0-.3c.062-.281.161-.554.293-.81a4.87 4.87 0 0 1 2.367-2.115 12.4 12.4 0 0 1 4.654-.762l5.695-.178c4.067-.106 7.753-.187 10.413-.227h3.157a7.3 7.3 0 0 1 1.22.024m.334 8.979a5 5 0 0 1-1.066-.073l-2.88-.365c-2.441-.316-5.792-.81-9.494-1.345-1.847-.259-3.612-.591-5.207-.729a7.06 7.06 0 0 0-4.068.729 6.4 6.4 0 0 0-2.107 1.88c-.39.551-.545.9-.578.884a.9.9 0 0 1 .082-.268q.149-.372.358-.713a6.1 6.1 0 0 1 2.099-2.042 7.16 7.16 0 0 1 4.247-.859c1.627.121 3.392.446 5.247.697 3.702.551 7.054 1.078 9.47 1.475l2.864.494q.528.067 1.033.235m-11.188 5.097a16.5 16.5 0 0 1-2.326-.502c-1.432-.349-3.401-.867-5.582-1.313a10 10 0 0 0-1.578-.235c-.476.019-.94.155-1.35.397a4.9 4.9 0 0 0-1.782 1.686 6.6 6.6 0 0 0-.708 2.204 1.4 1.4 0 0 1-.049-.648 4.3 4.3 0 0 1 .488-1.702 5 5 0 0 1 1.855-1.88 3.4 3.4 0 0 1 1.538-.47q.843.045 1.668.227c2.213.462 4.165 1.021 5.573 1.442.776.19 1.53.456 2.253.794"/><path fill="#1900AF" d="m35.304 225.75 44.46-5.445 77.978-12.626 10.064 25.194c-29.288 10.114-59.34 19.238-88.823 27.261a32.8 32.8 0 0 1-7.322.616c-9.844.04-34.12-3.898-36.357-35"/><path fill="#27272E" d="M167.805 232.873a5 5 0 0 1-.204-.445c-.138-.316-.317-.754-.561-1.321-.48-1.183-1.18-2.885-2.067-5.057l-7.395-18.314.187.105-37.887 6.305c-8.949 1.531-17.532 2.528-25.309 3.557-3.897.511-7.59 1.021-11.032 1.621q-2.586.414-4.979.81a41 41 0 0 0-4.531.989 18.5 18.5 0 0 0-10.576 8.558 19 19 0 0 0-1.554 3.46c-.138.413-.228.737-.285.948q-.042.167-.114.324.114-.659.318-1.297c.37-1.221.87-2.4 1.488-3.517a18.9 18.9 0 0 1 3.726-4.756 18.8 18.8 0 0 1 6.932-4.004 43 43 0 0 1 4.564-1.029c1.627-.291 3.254-.591 4.979-.875 3.45-.567 7.143-1.102 11.031-1.621 7.786-1.045 16.361-2.05 25.294-3.59l37.903-6.215h.138l.049.13c3.026 7.65 5.516 13.954 7.257 18.362l1.985 5.09c.22.575.382 1.021.512 1.337.131.316.131.445.131.445"/><path fill="#27272E" d="M59.23 259.413q.182.019.358.073l1.033.251c.911.194 2.253.502 4.01.713 4.965.609 9.998.368 14.88-.713 1.546-.324 3.14-.762 4.809-1.232l5.19-1.459 11.39-3.241a1502 1502 0 0 0 26.106-7.812c15.458-4.781 29.662-9.465 40.678-13.249l-.098.218c-3.043-7.698-5.54-13.994-7.273-18.395-.854-2.18-1.513-3.889-1.977-5.073-.22-.567-.382-1.004-.504-1.329a5 5 0 0 1-.155-.453s.073.145.203.437c.131.292.31.754.546 1.313l2.058 5.032 7.411 18.347.065.162-.162.057c-11.032 3.841-25.22 8.549-40.678 13.338a1350 1350 0 0 1-26.123 7.788l-11.454 3.241-5.2 1.427c-1.626.461-3.253.899-4.823 1.215a43.5 43.5 0 0 1-14.97.592 28.6 28.6 0 0 1-5.32-1.248m17.23-39.108a5.3 5.3 0 0 1-1.114.17l-3.05.3-10.056.98-10.056 1.07-3.05.316a5 5 0 0 1-1.123.065 7 7 0 0 1 1.106-.227c.716-.114 1.75-.268 3.035-.446 2.562-.356 6.11-.81 10.039-1.191 3.93-.381 7.501-.689 10.08-.859a129 129 0 0 1 3.067-.178q.562-.048 1.123 0"/></svg>