<svg xmlns="http://www.w3.org/2000/svg" width="241" height="238" fill="none" viewBox="0 0 241 238"><path fill="#9292A9" d="M215.494 148.413c0 49.477-40.109 89.585-89.585 89.585-49.477 0-89.586-40.108-89.586-89.585l89.586-21.566z"/><path fill="#E6E6F0" d="M70.373.212H4.264v95.819h66.109z"/><path fill="#FAFAFC" d="M67.064.212H.955v95.819h66.109z"/><path fill="#fff" d="M58.848 10.589H9.167v75.065h49.68z"/><path fill="#E6E6F0" d="M58.848 85.654v-5.551c0-3.596 0-8.842-.044-15.464 0-13.233-.049-31.98-.082-54.05l.164.163H9.21l.18-.18c0 28.296 0 54.415-.033 75.093l-.147-.147 36.164.076 9.991.038h3.526-3.472l-9.957.033-36.252.076h-.163V85.6c0-20.64 0-46.748-.038-75.065v-.142h50.029v.163c-.033 22.115-.065 40.899-.082 54.16 0 6.605-.038 11.84-.043 15.426v5.131c0 .245-.066.381-.066.381"/><path fill="#E6E6F0" d="M67.27.212a12 12 0 0 1-1.18 1.709 104 104 0 0 1-3.102 3.934 129 129 0 0 1-3.264 3.809q-.659.811-1.459 1.486a12.4 12.4 0 0 1 1.263-1.633l3.183-3.863 3.183-3.864c.41-.566.871-1.095 1.377-1.578"/><path fill="#fff" d="M59.109 85.41a61.6 61.6 0 0 0 8.663 10.839z"/><path fill="#E6E6F0" d="M67.766 96.249a10 10 0 0 1-1.507-1.377 46 46 0 0 1-3.265-3.684 49 49 0 0 1-2.879-4 9.7 9.7 0 0 1-1.006-1.779q.667.773 1.218 1.633a93 93 0 0 0 2.95 3.918 89 89 0 0 0 3.172 3.732q.72.727 1.317 1.557"/><path fill="#fff" d="M.945 95.955 9.59 85.273z"/><path fill="#E6E6F0" d="M9.591 85.273c.076.06-1.795 2.503-4.19 5.442-2.394 2.938-4.39 5.294-4.467 5.229s1.801-2.503 4.19-5.442 4.402-5.294 4.467-5.229M.956.212c.076-.065 1.959 2.177 4.2 5.023s4 5.185 3.924 5.245-1.96-2.176-4.206-5.022C2.626 2.612.885.272.956.212m40.871 48.005a4.086 4.086 0 1 1-8.172.011 4.086 4.086 0 0 1 8.172-.011m2.193-14.382a3.053 3.053 0 1 1-6.106 0 3.053 3.053 0 0 1 6.105 0M32.135 38.53a2.21 2.21 0 1 1-4.417.066 2.21 2.21 0 0 1 4.417-.065M44.313 61.69a1.371 1.371 0 1 1-1.936-1.943 1.371 1.371 0 0 1 1.936 1.943M25.709 50.818a2.21 2.21 0 1 1-4.418 0 2.21 2.21 0 0 1 4.418 0"/><path fill="#E6E6F0" d="M37.74 48.217c.142-.06 1.502 2.568 3.053 5.877s2.688 6.04 2.552 6.105-1.502-2.568-3.053-5.877-2.688-6.04-2.552-6.105m-.326.413c0 .153-2.96.719-6.655 1.268-3.695.55-6.715.865-6.737.718s2.982-.718 6.655-1.262 6.715-.87 6.737-.724m-.284-1.959c-.092.11-1.986-1.436-3.89-3.765s-3.064-4.478-2.944-4.55c.12-.07 1.48 1.922 3.368 4.202 1.889 2.28 3.575 3.994 3.466 4.113m3.837-12.836v.103l-.071.392-.316 1.442a222 222 0 0 1-1.153 4.718c-.941 3.673-1.73 6.644-1.872 6.611-.142-.032.397-3.069 1.344-6.747.468-1.84.936-3.499 1.311-4.685.185-.593.349-1.089.48-1.399q.073-.19.168-.37l.065-.092h.038z"/><path fill="#FAFAFC" d="M19.038 126.394a10.5 10.5 0 0 1 2.6-1.131l.545-2.574 4.353-.076.626 2.552c.922.226 1.81.575 2.639 1.039l2.177-1.442 3.128 3.02-1.36 2.247c.49.813.868 1.688 1.126 2.601l2.574.545.076 4.353-2.552.625c-.227.922-.577 1.81-1.039 2.64l1.442 2.176-3.02 3.129-2.247-1.366a10.5 10.5 0 0 1-2.596 1.154l-.544 2.574-4.353.076-.626-2.552a10.8 10.8 0 0 1-2.601-1.05l-2.177 1.442-3.128-3.026 1.36-2.242a10.8 10.8 0 0 1-1.132-2.601l-2.574-.544-.076-4.353 2.558-.626c.224-.922.572-1.81 1.033-2.639l-1.436-2.177 3.02-3.128 2.247 1.365zm2.318 5.79a4.665 4.665 0 0 0 6.012 7.072 4.663 4.663 0 1 0-6.012-7.072"/><path fill="#FAFAFC" d="M21.356 132.184c.245-.299.537-.556.865-.762a4.64 4.64 0 0 1 3.047-.718 4.73 4.73 0 0 1 3.738 2.617c.209.413.352.855.425 1.312.088.474.098.959.027 1.436a4.77 4.77 0 0 1-3.94 4.081 4.4 4.4 0 0 1-1.436 0 4.5 4.5 0 0 1-1.322-.375 4.8 4.8 0 0 1-1.943-1.632 4.72 4.72 0 0 1-.196-5.105 3.5 3.5 0 0 1 .735-.897q-.348.455-.642.946a4.65 4.65 0 0 0-.544 2.988 4.54 4.54 0 0 0 2.666 3.45c.399.18.822.299 1.257.353.45.063.908.052 1.355-.032a4.51 4.51 0 0 0 3.733-3.815 4.2 4.2 0 0 0 0-1.355 4.4 4.4 0 0 0-.392-1.246 4.6 4.6 0 0 0-1.578-1.806 4.54 4.54 0 0 0-1.965-.735 4.72 4.72 0 0 0-2.97.62c-.626.381-.898.702-.92.675"/><path fill="#FAFAFC" d="m19.038 126.394-.147-.081-.43-.245-1.692-1.001h.049l-3.004 3.145v-.087l1.447 2.176.028.038v.044a10.5 10.5 0 0 0-1.024 2.623v.049h-.054l-2.552.631.076-.093.087 4.354-.087-.104 2.574.544h.065v.066c.259.903.636 1.769 1.121 2.574l.038.059-.038.06-1.36 2.248v-.147l3.134 3.014h-.158l2.177-1.442.098-.022.065.033c.82.456 1.697.802 2.607 1.029h.076v.076c.196.8.408 1.67.626 2.552l-.13-.098 4.352-.082-.125.109c.169-.816.348-1.692.544-2.574v-.081h.076a10.3 10.3 0 0 0 2.569-1.116l.07-.038.071.038 2.259 1.35h-.17l3.026-3.129v.163l-1.442-2.177-.043-.065.038-.071c.457-.819.803-1.695 1.028-2.606v-.076h.076l2.558-.626-.098.125a649 649 0 0 1-.07-4.353l.097.12-2.574-.545h-.07v-.07a10.7 10.7 0 0 0-1.154-2.58l-.033-.059.033-.06c.473-.767.925-1.513 1.371-2.242v.136l-3.118-3.042h.125l-2.176 1.437h-.05l-.075.021a10.5 10.5 0 0 0-2.618-1.033h-.049v-.049c-.228-.931-.43-1.769-.62-2.558l.076.06-4.353.06.06-.049a207 207 0 0 0-.544 2.568v.027c-.686.195-1.353.451-1.992.768l-.468.245-.152.081.141-.103c.104-.06.25-.153.463-.261.62-.349 1.274-.632 1.953-.844v.033l.544-2.574v-.049h.05l4.353-.098h.06v.06c.195.789.402 1.632.636 2.552l-.065-.065c.93.23 1.826.579 2.666 1.039h-.141l2.176-1.447.066-.044.06.06 3.134 3.014.065.06-.049.077c-.44.729-.892 1.474-1.355 2.247v-.12c.496.822.882 1.706 1.148 2.628l-.092-.081 2.574.544h.098v.098q.037 2.123.081 4.353v.103h-.098l-2.525.67.093-.098a10.6 10.6 0 0 1-1.023 2.672v-.137l1.436 2.177.06.087-.07.076-3.058 3.156-.077.077-.092-.055-2.248-1.366h.137A10.7 10.7 0 0 1 27.537 146l.093-.098c-.185.882-.365 1.758-.544 2.574v.103h-.082l-4.353.076h-.104v-.097c-.217-.882-.43-1.758-.625-2.558l.098.098a10.8 10.8 0 0 1-2.672-1.056h.13l-2.176 1.442-.082.055-.07-.071-3.205-3.031-.066-.065.05-.082c.473-.783.94-1.551 1.365-2.242v.12a10.6 10.6 0 0 1-1.137-2.634l.081.077-2.573-.545h-.082v-.087c0-1.523-.044-2.976-.065-4.353v-.076h.07l2.558-.62-.066.065c.232-.928.588-1.821 1.056-2.656v.082l-1.43-2.204v-.043l.037-.038 3.036-3.113v-.027h.033l1.633 1.034.424.266zm179.824-41.937a7.3 7.3 0 0 1 1.78-.773l.364-1.757 2.966-.05.43 1.742a7.4 7.4 0 0 1 1.801.707l1.502-.979 2.133 2.062-.931 1.53c.336.555.596 1.154.773 1.779l1.757.364.055 2.971-1.747.425a7 7 0 0 1-.707 1.8l.985 1.503-2.063 2.138-1.534-.93a7.3 7.3 0 0 1-1.774.767l-.37 1.758-2.966.054-.43-1.741a7.4 7.4 0 0 1-1.801-.713l-1.502.985-2.133-2.062.931-1.535a7 7 0 0 1-.773-1.774l-1.757-.364-.055-2.972 1.747-.43a7.3 7.3 0 0 1 .707-1.8l-.985-1.497 2.057-2.139 1.535.931zm1.584 3.956a3.18 3.18 0 0 0-.625 3.48 3.19 3.19 0 0 0 2.976 1.91 3.185 3.185 0 0 0 2.154-5.472 3.19 3.19 0 0 0-4.505.082"/><path fill="#FAFAFC" d="M200.446 88.413a2.5 2.5 0 0 1 .593-.544 3.2 3.2 0 0 1 2.078-.49 3.22 3.22 0 0 1 2.558 1.79 3.1 3.1 0 0 1 .288 1.872 3.33 3.33 0 0 1-.881 1.84c-.486.5-1.119.832-1.807.946a3 3 0 0 1-.979 0 3 3 0 0 1-.904-.256 3.26 3.26 0 0 1-1.327-1.088 3.1 3.1 0 0 1-.544-1.393 3.2 3.2 0 0 1 .413-2.095q.201-.346.501-.61s-.191.207-.436.648a3.17 3.17 0 0 0 .191 3.363c.326.449.766.804 1.273 1.028.272.125.562.206.86.24.306.049.619.049.925 0a3.13 3.13 0 0 0 1.703-.903c.457-.473.75-1.08.838-1.73a2.8 2.8 0 0 0 0-.931 3 3 0 0 0-.267-.85 3.155 3.155 0 0 0-4.456-1.311 8 8 0 0 0-.62.474"/><path fill="#FAFAFC" d="m198.862 84.457-.098-.054-.294-.17-1.148-.68h.033l-2.052 2.15v-.06l.991 1.497v.027a7.3 7.3 0 0 0-.702 1.79v.038h-.038l-1.742.435.049-.065c0 .936.038 1.926.06 2.966l-.054-.066 1.757.36h.044v.043c.178.617.436 1.208.767 1.758l.027.038-.027.043-.925 1.535v-.103L197.649 98h-.104l1.497-.985.043-.027h.049a7.2 7.2 0 0 0 1.78.702h.054v.054c.136.544.283 1.143.43 1.741l-.093-.065 2.971-.054-.087.07.365-1.757v-.055h.054a7 7 0 0 0 1.752-.761l.049-.028.049.028 1.529.93h-.108l2.062-2.138v.114l-.985-1.502-.027-.044.027-.049a7.2 7.2 0 0 0 .702-1.779v-.049h.049l1.747-.424-.066.087a87 87 0 0 0-.049-2.971l.066.081-1.758-.364h-.049v-.05a7.3 7.3 0 0 0-.762-1.757l-.027-.043.027-.038c.321-.545.632-1.034.931-1.535v.098l-2.133-2.068h.087l-1.502.98h-.071a7 7 0 0 0-1.785-.708h-.032v-.032l-.419-1.747.054.043-2.971.038.038-.032c-.152.702-.272 1.273-.375 1.752q-.705.21-1.361.544l-.342.196-.109.054a1 1 0 0 1 .109-.054c.07-.044.174-.109.315-.185a7.2 7.2 0 0 1 1.355-.544c.098-.479.212-1.056.354-1.758v-.032h.032l2.966-.066h.044v.038l.435 1.742-.044-.044a7.4 7.4 0 0 1 1.818.713h-.071l1.502-.952.043-.033.044.038 2.139 2.063.043.038-.033.054-.925 1.535v-.082c.339.562.603 1.165.784 1.796l-.065-.06 1.757.364h.066v.071c0 .963.032 1.954.054 2.966v.07h-.071l-1.741.43.065-.065a7 7 0 0 1-.718 1.823v-.093l.985 1.502.038.06-.049.055-2.051 2.16-.049.054-.066-.038-1.534-.93h.092a7.6 7.6 0 0 1-1.795.783l.065-.07-.365 1.757v.07h-.07l-2.971.05h-.071v-.071c-.147-.604-.294-1.197-.43-1.747l.065.066a7.3 7.3 0 0 1-1.823-.719h.093l-1.502.98-.06.038-.043-.05c-.746-.712-1.464-1.414-2.139-2.061l-.043-.044.032-.06.931-1.529v.082a7.4 7.4 0 0 1-.773-1.796l.054.049-1.757-.364h-.055v-.055a85 85 0 0 0-.049-2.971v-.049h.055l1.741-.419-.043.044a7.4 7.4 0 0 1 .718-1.812v.054l-.98-1.507v-.028h.028l2.073-2.127 1.132.707.288.185.087-.016"/><path fill="#E6E6F0" d="M184.709 40.36a17.2 17.2 0 0 1 4.179-1.818l.86-4.136 6.986-.12 1.007 4.098a17.3 17.3 0 0 1 4.239 1.67l3.532-2.318 5.022 4.854-2.177 3.613a17 17 0 0 1 1.818 4.174l4.135.865.12 6.982-4.103 1.006a17 17 0 0 1-1.665 4.24l2.313 3.53-4.854 5.029-3.608-2.177a17 17 0 0 1-4.179 1.817l-.859 4.136-6.987.12-1.002-4.098a17.2 17.2 0 0 1-4.238-1.67l-3.532 2.318-5.028-4.854 2.177-3.613a17 17 0 0 1-1.812-4.174l-4.136-.865-.125-6.981 4.103-1.007a17 17 0 0 1 1.665-4.239l-2.313-3.531 4.854-5.028zm3.727 9.304a7.49 7.49 0 0 0-1.481 8.193 7.491 7.491 0 0 0 14.193-4.578 7.49 7.49 0 0 0-4.576-5.383 7.48 7.48 0 0 0-8.136 1.768"/><path fill="#E6E6F0" d="M188.436 49.664a5.6 5.6 0 0 1 1.393-1.224 7.47 7.47 0 0 1 4.898-1.16 7.6 7.6 0 0 1 3.324 1.182 7.65 7.65 0 0 1 2.688 3.03 7.69 7.69 0 0 1-1.356 8.726 7.67 7.67 0 0 1-4.237 2.24 7.3 7.3 0 0 1-2.308.037 7.1 7.1 0 0 1-2.127-.61 7.66 7.66 0 0 1-3.124-2.579 7.57 7.57 0 0 1-.31-8.205 5.6 5.6 0 0 1 1.176-1.437q-.555.733-1.029 1.518a7.48 7.48 0 0 0-.832 4.8 7.34 7.34 0 0 0 4.266 5.56 6.9 6.9 0 0 0 2.018.545 7 7 0 0 0 2.177-.044 7.27 7.27 0 0 0 5.986-6.197 6.8 6.8 0 0 0-.033-2.177 6.6 6.6 0 0 0-.631-1.997 7.3 7.3 0 0 0-5.692-4.081 7.46 7.46 0 0 0-4.761.996q-.772.5-1.486 1.077"/><path fill="#E6E6F0" d="M184.709 40.354a1 1 0 0 1-.229-.12l-.696-.403-2.721-1.605h.087l-4.821 5.055v-.136l2.329 3.52.043.066-.038.066a17.4 17.4 0 0 0-1.632 4.211v.082h-.087l-4.108 1.028.114-.152.141 6.987-.136-.164 4.136.855h.109l.027.103a17.3 17.3 0 0 0 1.801 4.13l.06.093-.06.098-2.177 3.613-.027-.24 5.028 4.849h-.245l3.526-2.318.104-.071.109.06a17 17 0 0 0 4.189 1.632l.12.028.033.125 1.006 4.097-.206-.158 6.981-.125-.201.169c.272-1.306.544-2.72.86-4.136l.027-.125.125-.038a17 17 0 0 0 4.119-1.79l.109-.07.114.07 3.608 2.176-.267.033 4.854-5.022-.027.26-2.307-3.53-.071-.104.06-.114a17 17 0 0 0 1.632-4.185l.033-.125.12-.027L214.359 58l-.152.2q-.065-3.575-.12-6.986l.158.19-4.13-.865h-.114l-.033-.114a17 17 0 0 0-1.763-4.12l-.06-.092.06-.098 2.177-3.607.032.223a2309 2309 0 0 1-5.017-4.865h.202l-3.537 2.302-.076.054-.082-.049a17.4 17.4 0 0 0-4.195-1.665h-.088v-.087c-.364-1.49-.685-2.835-.995-4.103l.125.098-6.982.093.093-.076c-.359 1.632-.648 2.998-.887 4.124v.044h-.038a18 18 0 0 0-3.194 1.23l-.757.391a1 1 0 0 1-.25.125q.112-.086.234-.157c.163-.098.403-.245.74-.425a16.5 16.5 0 0 1 3.189-1.295l-.049.049c.228-1.126.5-2.487.832-4.141v-.07h.077l6.986-.153h.098v.098l1.018 4.097-.103-.103a17.3 17.3 0 0 1 4.282 1.67h-.163l3.526-2.323.109-.07.098.092 5.033 4.843.103.098-.076.12-2.176 3.612v-.19a17.4 17.4 0 0 1 1.844 4.223l-.147-.136 4.136.854.152.033v.157q.065 3.401.131 6.987v.163l-.158.038-4.07 1.013.152-.153a17.5 17.5 0 0 1-1.687 4.294v-.218l2.318 3.526.093.147-.12.12-4.848 5.028-.12.125-.147-.093-3.608-2.176h.218c-1.32.8-2.74 1.422-4.223 1.85l.153-.164c-.294 1.42-.588 2.83-.86 4.136l-.038.169h-.169l-6.987.12h-.168l-.038-.164-1.034-4.097.152.152a17.4 17.4 0 0 1-4.288-1.692h.218l-3.532 2.307-.136.087-.114-.109-5.017-4.86-.114-.108.081-.13 2.177-3.603v.19a17.3 17.3 0 0 1-1.828-4.227l.136.125-4.136-.865-.13-.028v-.136c-.038-2.454-.077-4.788-.109-6.986v-.12l.119-.033 4.103-.99-.103.103a17.3 17.3 0 0 1 1.692-4.266v.13a850 850 0 0 0-2.301-3.542l-.044-.07.06-.066 4.897-4.995.038-.044.049.033c1.154.713 2.041 1.268 2.656 1.633l.685.43c.153.12.229.146.229.152M27.407 104.367l.598 1.002a6.93 6.93 0 0 0 2.84 2.612l1.045.516-1 .604a6.9 6.9 0 0 0-2.613 2.835l-.544 1.051-.604-1.002a6.8 6.8 0 0 0-2.835-2.611l-1.05-.545 1.001-.598a6.85 6.85 0 0 0 2.612-2.841zm137.81-80.419.299.5a3.4 3.4 0 0 0 1.421 1.306l.544.261-.501.3a3.46 3.46 0 0 0-1.306 1.42l-.261.544-.299-.5a3.46 3.46 0 0 0-1.42-1.306l-.545-.256.501-.305a3.4 3.4 0 0 0 1.306-1.415zm-8.989-15.476.931 1.54a10.54 10.54 0 0 0 4.353 4.021l1.632.795-1.54.925a10.6 10.6 0 0 0-4.021 4.353l-.794 1.632-.942-1.55a10.5 10.5 0 0 0-4.353-4.022l-1.632-.8 1.54-.925a10.55 10.55 0 0 0 4.021-4.353zm26.402 195.404.305.5a3.45 3.45 0 0 0 1.415 1.306l.544.256-.501.305a3.4 3.4 0 0 0-1.306 1.414l-.261.545-.299-.501a3.43 3.43 0 0 0-1.42-1.306l-.545-.261.501-.299a3.46 3.46 0 0 0 1.306-1.421zm31.43-88.381.925 1.54a10.6 10.6 0 0 0 4.353 4.021l1.633.795-1.54.93a10.5 10.5 0 0 0-4.016 4.354l-.8 1.632-.925-1.54a10.6 10.6 0 0 0-4.353-4.021l-1.633-.795 1.54-.93a10.5 10.5 0 0 0 4.016-4.353z"/><mask id="health-search_svg__a" width="224" height="238" x="17" y="0" maskUnits="userSpaceOnUse" style="mask-type:alpha"><path fill="#fff" fill-rule="evenodd" d="M240.932.21H17.522v190.231h26.467c14.442 28.133 45.201 47.558 80.814 47.558s66.371-19.425 80.813-47.558h35.316z" clip-rule="evenodd"/></mask><g mask="url(#health-search_svg__a)"><path fill="#E6E6F0" d="M74.767 99.497c-5.131 2.04-8.353 5.365-11.705 9.751-6.067 7.95-41.48 46.84-41.594 47.673-4.538 14.659 16.542 28.105 29.999 17.14 6.965-5.67 28.47-34.667 28.47-34.667l-1.029-41.54zm101.668-.997c-4.184-3.585-17.412-5.75-17.412-5.75l-2.128.658c1.127 5.746 8.162 41.649 8.162 42.476s57.718 37.981 57.718 37.981l6.584-25.836s-48.734-45.937-52.924-49.528"/><path fill="#E6E6F0" d="m79.557 100.435 23.246-6.17 7.542-9.697 35.021 1.104 5.871 6.634 20.531 5.659-1.534 100.721 5.469 41.524H68.397l9.277-49.49-4.07-47.411z"/><path fill="#27272E" d="M152.335 18.163c-7.378-9.022-17.287-14.213-28.943-14.41-6.573-.108-9.294 1.263-14.028 2.537-4.734 1.273-9.006 3.809-11.83 7.825-3.352 4.76-6.17 10.094-6.807 15.883-.648 5.948-1.3 11.933-.854 17.903s2.067 11.97 5.582 16.814l15.182 2.639c8.38.283 16.869.544 25.031-1.35 8.162-1.893 16.107-6.312 20.476-13.467 6.095-9.92 3.57-25.336-3.809-34.374"/><path fill="#E6E6F0" d="M100.048 73.285c.033.033-.245.376-.903.795a7.4 7.4 0 0 1-3.13 1.055 8.13 8.13 0 0 1-4.826-.974 8.097 8.097 0 0 1-2.922-10.807 8.1 8.1 0 0 1 3.679-3.264 7.5 7.5 0 0 1 3.232-.664c.778.032 1.192.185 1.18.234 0 .18-1.768-.196-4.135 1.006a7.8 7.8 0 0 0-3.227 3.113 7.45 7.45 0 0 0 2.601 9.658 7.77 7.77 0 0 0 4.354 1.062c2.671-.153 4.015-1.377 4.097-1.214"/><path fill="#27272E" d="M167.049 62.239c-.375-3.423-2.177-6.791-5.137-8.543s-7.112-1.567-9.582.832l-2.389 2.84c-3.738 1.595-6.089 5.845-5.632 9.883a10.74 10.74 0 0 0 7.444 8.787 11.9 11.9 0 0 0 11.313-2.72 13.33 13.33 0 0 0 3.983-11.08"/><path fill="#9292A9" d="M164.04 72.49c-.109-.054.941-1.022.816-3.025-.125-2.002-1.535-4.49-3.472-6.824a20.6 20.6 0 0 0-6.083-4.897c-1.78-.952-3.004-1.3-2.966-1.425.038-.126 1.306.092 3.2.952a18.3 18.3 0 0 1 6.415 4.897 17.7 17.7 0 0 1 2.454 3.733 8.2 8.2 0 0 1 .98 3.553 4.27 4.27 0 0 1-.681 2.41c-.342.485-.636.654-.663.627m-7.346 4.478c-.245 0 .789-4.604-.675-10.023-1.382-5.442-4.527-8.94-4.32-9.071.059-.06.925.718 2.007 2.253a21.1 21.1 0 0 1 3.635 13.897c-.19 1.861-.566 2.966-.647 2.944"/><path fill="#A26760" d="M144.178 23.517a5.64 5.64 0 0 0-5.349-5.441l-20.236-8.037-5.29.615c-11.895.043-20.095 13.163-20.177 22.794-.087 10.703.234 23.774 1.932 31.664 3.423 15.867 15.78 17.228 15.78 17.228a44.5 44.5 0 0 0 .735 8.706l15.155 46.829 18.06-46.606z"/><path fill="#7B4B45" d="M118.854 61.401a3.36 3.36 0 0 0-1.164-2.084 3.46 3.46 0 0 0-4.19-.24 4.63 4.63 0 0 0-1.758 4.354 4.2 4.2 0 0 0 3.009 1.74q.272.016.544 0a3.78 3.78 0 0 0 2.542-1.006 3.36 3.36 0 0 0 1.017-2.764"/><path fill="#27272E" d="M100.995 44.413a2.053 2.053 0 0 0 2.095 1.959 1.96 1.96 0 0 0 1.861-1.2 2 2 0 0 0 .152-.765 2.06 2.06 0 0 0-2.089-1.964 1.965 1.965 0 0 0-2.019 1.97m-3.929-5.028c.272.255 1.763-.98 3.972-1.089s3.886.904 4.114.62c.109-.13-.174-.598-.909-1.088a5.7 5.7 0 0 0-3.313-.827 5.44 5.44 0 0 0-3.14 1.208c-.648.572-.855 1.067-.724 1.176m13.881 16.738c0-.125-1.382-.289-3.624-.452-.544-.027-1.088-.109-1.219-.49-.13-.38.044-1.023.283-1.692.457-1.393.931-2.857 1.432-4.386 1.98-6.241 3.379-11.362 3.128-11.427s-2.062 4.897-4.043 11.16c-.473 1.54-.93 3.004-1.36 4.408-.18.653-.506 1.399-.169 2.231a1.42 1.42 0 0 0 .969.778q.48.097.968.082c2.242-.022 3.635-.082 3.635-.212"/><path fill="#7B4B45" d="M110.855 82.34a40.76 40.76 0 0 0 21.118-6.895s-4.897 11.428-20.998 10.813z"/><path fill="#27272E" d="M117.532 57.293c-.36 0-.234 2.394-2.177 4.211s-4.522 1.693-4.522 2.025c0 .152.593.435 1.671.408a6 6 0 0 0 3.809-1.557 5.22 5.22 0 0 0 1.681-3.526c0-1.006-.277-1.583-.462-1.561M97.507 31.065c.403.544 2.073.065 4.059.12s3.646.49 4.054 0c.185-.245-.06-.762-.778-1.268a6 6 0 0 0-3.265-.953 5.9 5.9 0 0 0-3.265.876c-.729.468-.98.974-.805 1.225m29.188 12.76a2.054 2.054 0 0 1-1.943 2.111 1.97 1.97 0 0 1-1.963-1.061 2 2 0 0 1-.213-.756 2.06 2.06 0 0 1 1.942-2.111 1.966 1.966 0 0 1 2.177 1.817m.637-5.224c-.251.272-1.823-.854-4.038-.81s-3.809 1.18-4.054.914c-.125-.12.131-.61.827-1.138a5.7 5.7 0 0 1 3.265-1.06 5.45 5.45 0 0 1 3.222.979c.663.511.903.99.778 1.115m1.267-4.751c-.429.512-2.143 0-4.195.033-2.051.033-3.809.403-4.19-.12-.185-.25.082-.756.833-1.245a6.33 6.33 0 0 1 3.395-.882 6.24 6.24 0 0 1 3.363.952c.74.501.985 1.012.794 1.263"/><path fill="#A26760" d="M141.43 50.41c-.065-1.192 1.16-4.076 2.329-4.327 3.113-.658 8.794-.718 9.284 7.26.669 10.882-10.415 9.331-10.459 9.021-.043-.31-.925-7.836-1.154-11.955"/><path fill="#7B4B45" d="M145.348 58.19c.049-.038.202.126.545.25.464.167.976.146 1.425-.06 1.127-.489 1.986-2.382 1.916-4.352a6.3 6.3 0 0 0-.697-2.688 2.2 2.2 0 0 0-1.524-1.372.97.97 0 0 0-1.088.588c-.125.316-.043.544-.098.544-.054 0-.25-.168-.185-.62a1.17 1.17 0 0 1 .387-.713 1.44 1.44 0 0 1 1.033-.343c.844 0 1.633.735 2.09 1.567a6.5 6.5 0 0 1 .843 3.004c.066 2.177-.936 4.326-2.481 4.897a2.04 2.04 0 0 1-1.757-.185c-.371-.25-.441-.495-.409-.517"/><path fill="#27272E" d="m144.587 45.811-3.156 3.178c-11.972-11.454-35.37-40.136-34.048-38.428 0 0 8.195-3.368 17.097-1.855s25.777 5.985 25.515 16.466c-.261 10.48-5.408 20.64-5.408 20.64"/><path fill="#E6E6F0" d="M143.95 73.285c-.033.033.245.376.903.795.95.584 2.02.944 3.129 1.055a8.16 8.16 0 0 0 4.827-.974 8.1 8.1 0 0 0 2.916-10.807 8.1 8.1 0 0 0-3.673-3.264 7.5 7.5 0 0 0-3.232-.664c-.409-.03-.819.05-1.186.234 0 .18 1.768-.196 4.141 1.006a7.8 7.8 0 0 1 3.226 3.113 7.455 7.455 0 0 1-2.617 9.67 7.77 7.77 0 0 1-4.353 1.06c-2.656-.163-4-1.387-4.081-1.224"/><path fill="#9292A9" d="M160.051 43.705a3 3 0 0 0-.169-.631 11 11 0 0 0-.74-1.72 15.9 15.9 0 0 0-4.56-5.125c-2.312-1.796-5.523-3.265-9.179-4.419s-7.76-2.111-11.797-3.852a53.5 53.5 0 0 1-10.775-6.035 56 56 0 0 1-7.618-6.65 59 59 0 0 1-4.396-5.223l-1.089-1.502a2.7 2.7 0 0 0-.408-.506q.128.29.316.544c.228.36.544.898 1.012 1.567a49 49 0 0 0 4.288 5.36 53 53 0 0 0 7.591 6.796 52.2 52.2 0 0 0 10.883 6.138c4.086 1.753 8.227 2.667 11.857 3.81 3.629 1.142 6.796 2.519 9.098 4.238a16.4 16.4 0 0 1 4.603 4.898c.784 1.463 1.029 2.345 1.083 2.312"/><path fill="#9292A9" d="M156.895 45.425a5.75 5.75 0 0 0-.424-2.384 11.2 11.2 0 0 0-4.098-5.136c-2.28-1.698-5.528-2.754-9.103-3.57a53.7 53.7 0 0 1-11.313-3.586 48.3 48.3 0 0 1-10.083-6.225 49 49 0 0 1-6.911-6.796 52 52 0 0 1-3.852-5.295c-.376-.62-.686-1.126-.925-1.529a2.5 2.5 0 0 0-.36-.544c.063.2.15.393.262.571l.832 1.584a45 45 0 0 0 3.738 5.441 47 47 0 0 0 17.07 13.277 52.5 52.5 0 0 0 11.427 3.586c3.565.784 6.748 1.774 8.99 3.385a11.3 11.3 0 0 1 4.124 4.897c.28.754.489 1.532.626 2.324"/><path fill="#27272E" d="M166.603 151.544a4 4 0 0 0-1.48-2.318c-1.181-.74-2.797-.217-3.809.735s-1.633 2.242-2.427 3.39a12.88 12.88 0 0 1-11.378 5.398c-3.064-.25-5.959-1.605-9.017-1.861-3.651-.305-7.857.653-11.296 1.899l.217 7.205c-.136 1.409 1.524 1.98 2.939 1.866 1.414-.114 2.889-.669 4.195-.114.892.375 1.502 1.191 2.177 1.893a11.085 11.085 0 0 0 12.76 2.139c1.589-.827 3.025-2.068 4.799-2.367 1.633-.278 3.292.294 4.925.081 2.127-.283 3.874-1.855 5.12-3.607a16.58 16.58 0 0 0 2.275-14.339M67.568 108.66c.958-1.338 1.339-3.352.218-4.56-2.618 2.384-6.884 2.759-8.783 5.746-.947 1.486-1.088 3.325-1.192 5.088a1092 1092 0 0 0-1.512 31.958l.5 2.721a38191 38191 0 0 1 9.12-23.741c.811-2.106 1.562-4.68.163-6.454-.805-1.023-2.176-1.524-2.84-2.65-.827-1.426-.158-3.265.898-4.549 1.055-1.284 2.465-2.22 3.428-3.559" opacity=".3"/><path fill="#E6E6F0" d="m43.473 107.43-22.005 49.491 27.99 13.309 15.803-48.489z"/><path fill="#27272E" d="M43.473 107.43s.044 0 .114.06l.327.196 1.235.784 4.582 2.96 15.606 10.192.076.054v.06c-.158.658-.354 1.213-.544 1.823s-.381 1.202-.572 1.817c-.397 1.219-.8 2.465-1.202 3.728a3550 3550 0 0 1-7.46 22.669l-2.307 6.851c-.273.794-.49 1.42-.643 1.861l-.168.479a1 1 0 0 1-.071.163 1 1 0 0 1 .038-.169l.147-.49c.142-.446.343-1.088.593-1.877.544-1.632 1.284-3.988 2.22-6.883l7.379-22.691 1.202-3.728q.295-.913.583-1.812.14-.45.272-.892l.136-.435.06-.207v-.191h.109l-.044.12-15.552-10.279-4.538-3.025-1.208-.827-.31-.218z"/><path fill="#27272E" d="M54.693 160.224q.075-.979.289-1.938c.223-1.262.5-2.867.805-4.647.305-1.779.544-3.39.746-4.657q.108-.975.348-1.927.044.272 0 .544c0 .338-.07.822-.142 1.426a92 92 0 0 1-.658 4.68 96 96 0 0 1-.887 4.641 28 28 0 0 1-.332 1.393 2.2 2.2 0 0 1-.169.485m15.841-37.933a.5.5 0 0 1 .038.163c0 .125.049.289.087.49.065.43.174 1.088.288 1.883s.223 1.834.365 2.998c.141 1.164.266 2.503.419 3.972.582 5.888 1.251 14.039 1.964 23.039s1.344 17.157 1.877 23.051c.136 1.469.267 2.802.376 3.972s.228 2.176.32 2.998c.093.822.18 1.442.235 1.888 0 .207.043.37.054.495a1 1 0 0 1 0 .169 1 1 0 0 1-.038-.163l-.082-.49a97 97 0 0 1-.288-1.883c-.114-.794-.228-1.833-.37-2.992-.141-1.159-.261-2.509-.419-3.978-.582-5.888-1.251-14.039-1.959-23.045-.707-9.005-1.35-17.151-1.883-23.044-.136-1.47-.26-2.803-.375-3.973s-.229-2.176-.316-2.998-.18-1.436-.24-1.888c0-.207-.037-.37-.053-.495a1 1 0 0 1 0-.169m56.58 35.484a1 1 0 0 1-.12-.18c-.076-.136-.179-.321-.315-.544-.278-.5-.681-1.208-1.192-2.117l-4.353-7.824-14.224-25.847-7.537-13.767-.076-.131.142-.054 5.441-2.068v.218l-8.978-5.92-.082-.055.06-.076 4.266-5.507 1.143-1.453c.125-.158.228-.278.299-.376l.109-.12s-.027.05-.087.137l-.278.386-1.088 1.486-4.2 5.556v-.131l9.01 5.871.202.125-.224.087-5.441 2.085.065-.185 7.559 13.756 14.147 25.89 4.261 7.863c.49.92.876 1.632 1.143 2.144l.294.544q.036.1.054.207m0 0a1 1 0 0 1 .082-.201c.06-.147.147-.338.261-.583l1.028-2.231 3.809-8.162c3.265-6.905 7.782-16.411 12.761-26.919l6.943-14.523.071.174-5.442-2.084-.223-.082.201-.13 9.011-5.866v.125l-4.2-5.556-1.089-1.485-.277-.381a.5.5 0 0 1-.087-.136 1 1 0 0 1 .103.12l.299.37 1.149 1.458 4.266 5.506.06.071-.082.055-8.978 5.92v-.212l5.441 2.062.131.054-.06.126c-2.122 4.462-4.451 9.375-6.9 14.534l-12.837 26.875c-1.632 3.428-2.981 6.204-3.917 8.135-.463.947-.822 1.687-1.089 2.204-.119.245-.217.43-.288.571a1.2 1.2 0 0 1-.147.191"/><path fill="#9292A9" d="M111.486 91.307s13.604 25.434 33.302 0l-17.897 54.627z"/><path fill="#27272E" d="M131.32 212.619a.6.6 0 0 1-.032-.168l-.066-.501c-.06-.462-.136-1.088-.239-1.937-.191-1.698-.468-4.125-.805-7.117-.643-6.019-1.486-14.333-2.144-23.546a490 490 0 0 1-1.089-23.627c-.06-3.025-.092-5.468-.092-7.161v-2.459a1 1 0 0 1 0-.169.7.7 0 0 1 0 .169v.506c0 .468.032 1.121.054 1.948.038 1.714.104 4.152.18 7.161.174 6.051.506 14.404 1.153 23.611.648 9.207 1.47 17.527 2.063 23.545l.713 7.128c.081.827.141 1.48.185 1.943 0 .207.032.375.038.506a.6.6 0 0 1 .081.168"/><path fill="#27272E" d="m154.593 97.946 1.072 1.306-5.479 3.667 5.322 1.943-24.269 44.239 20.878-43.891-5.446-2.073z" opacity=".3"/><path fill="#27272E" d="M170.542 116.485a1 1 0 0 1 0 .201v2.895c0 2.013 0 4.897-.032 8.451-.044 7.128-.142 16.983-.316 27.866s-.386 20.737-.615 27.865c-.114 3.564-.212 6.448-.31 8.44l-.114 2.296c0 .251 0 .447-.038.593a.8.8 0 0 1 0 .207 1 1 0 0 1 0-.207v-.598c0-.544.032-1.311.06-2.291.049-2.013.125-4.897.223-8.445.174-7.128.359-16.983.544-27.866s.294-20.721.397-27.866c.055-3.553.093-6.432.125-8.445 0-.985.033-1.757.044-2.296v-.599zm-61.107 33.329a.5.5 0 0 1 0-.12v-1.632c0-1.137-.028-2.77-.049-4.832l.087.087-26.968.054.141-.141v6.617l-.136-.136 19.203.059 5.681.044h2.084a.3.3 0 0 1-.125 0h-1.894l-5.648.038-19.3.065h-.164v-6.676l.141-.142 26.968.06h.082v.082c0 2.084-.038 3.733-.049 4.897v1.6a1 1 0 0 1-.054.076"/><path fill="#27272E" d="M83.947 149.814s12.591 4.957 24.171 0z" opacity=".3"/><path fill="#9292A9" d="M103.351 133.288h.169a2.01 2.01 0 0 1 2.008 2.008v7.934h-4.19v-7.934a2.006 2.006 0 0 1 2.013-2.008"/><path fill="#9292A9" d="M103.433 140.999h2.095v11.182a1.007 1.007 0 0 1-1.007 1.007h-.082a1.007 1.007 0 0 1-1.006-1.007z"/><path fill="#27272E" d="M105.647 154.711q.074.35.071.708c.027.457.049 1.121.065 1.937 0 1.632 0 3.891-.157 6.377a89 89 0 0 1-.289 3.505 10.5 10.5 0 0 1-.517 2.846 2.42 2.42 0 0 1-1.355 1.382 1.4 1.4 0 0 1-.544.092h-.185q.348-.038.675-.163a2.38 2.38 0 0 0 1.213-1.36 11 11 0 0 0 .441-2.792c.098-1.088.191-2.258.267-3.499a144 144 0 0 0 .239-6.361c0-.773 0-1.42.027-1.932a4 4 0 0 1 .049-.74m-5.414 11.406a43 43 0 0 1-.114-4.898 43 43 0 0 1 .163-4.897c.133 1.629.173 3.264.12 4.897q.06 2.454-.169 4.898"/><path fill="#1900AF" d="M132.713 122.743a20.4 20.4 0 0 1 4.957-2.177l1.018-4.897 8.287-.147 1.198 4.865c1.756.433 3.447 1.1 5.027 1.98l2.074-2.769h2.111l5.986 5.757-2.596 4.282a20.4 20.4 0 0 1 2.177 4.957l4.897 1.023.147 8.288-4.865 1.191a20.3 20.3 0 0 1-1.981 5.028l2.748 4.19-5.757 5.986-2.258-.109-2.024-2.487a20.2 20.2 0 0 1-4.957 2.15l-1.023 4.897-8.288.147-1.191-4.87a20.3 20.3 0 0 1-5.028-1.976l-4.19 2.721h-2.117l-3.907-5.708 2.601-4.282a20 20 0 0 1-2.176-4.958l-4.898-1.017-.141-8.288 4.864-1.191a20.3 20.3 0 0 1 1.976-5.034l-2.721-4.184 3.64-5.986h2.117l4.282 2.596zm4.419 11.04a8.89 8.89 0 0 0-1.757 9.723 8.894 8.894 0 0 0 13.224 3.757 8.891 8.891 0 1 0-11.467-13.48"/><path fill="#27272E" d="M132.713 122.743a20.4 20.4 0 0 1 4.957-2.177l1.018-4.897 8.287-.147 1.198 4.865c1.756.433 3.447 1.1 5.027 1.98l2.074-2.769h2.111l5.986 5.757-2.596 4.282a20.4 20.4 0 0 1 2.177 4.957l4.897 1.023.147 8.288-4.865 1.191a20.3 20.3 0 0 1-1.981 5.028l2.748 4.19-5.757 5.986-2.258-.109-2.024-2.487a20.2 20.2 0 0 1-4.957 2.15l-1.023 4.897-8.288.147-1.191-4.87a20.3 20.3 0 0 1-5.028-1.976l-4.19 2.721h-2.117l-3.907-5.708 2.601-4.282a20 20 0 0 1-2.176-4.958l-4.898-1.017-.141-8.288 4.864-1.191a20.3 20.3 0 0 1 1.976-5.034l-2.721-4.184 3.64-5.986h2.117l4.282 2.596zm4.419 11.04a8.89 8.89 0 0 0-1.757 9.723 8.894 8.894 0 0 0 13.224 3.757 8.891 8.891 0 1 0-11.467-13.48" opacity=".3"/><path fill="#1900AF" d="M130.597 122.721a20.4 20.4 0 0 1 4.957-2.177l1.017-4.897 8.293-.147 1.192 4.865c1.756.434 3.447 1.1 5.028 1.98l4.19-2.748 5.974 5.763-2.601 4.282a20.2 20.2 0 0 1 2.177 4.958l4.897 1.023.142 8.287-4.865 1.192a20.5 20.5 0 0 1-1.975 5.028l2.721 4.19-5.758 5.985-4.282-2.595a20.2 20.2 0 0 1-4.957 2.149l-1.018 4.897-8.287.147-1.197-4.87a20.3 20.3 0 0 1-5.028-1.975l-4.19 2.721-5.986-5.758 2.596-4.282a20.3 20.3 0 0 1-2.177-4.957l-4.897-1.018-.141-8.287 4.864-1.197a20.3 20.3 0 0 1 1.981-5.028l-2.721-4.185 5.757-5.985 4.283 2.595zm4.418 11.041a8.893 8.893 0 0 0 6.577 15.054 8.9 8.9 0 0 0 4.909-1.592 8.88 8.88 0 0 0 3.608-9.196 8.894 8.894 0 0 0-12.246-6.25 8.9 8.9 0 0 0-2.848 1.984"/><path fill="#27272E" d="M163.349 125.404c0 .081-.474.141-1.056.141s-1.061-.06-1.061-.141c0-.082.473-.142 1.061-.142s1.056.065 1.056.142m-2.53 4.217c0 .081-.458.136-1.018.136-.561 0-1.023-.077-1.023-.153s.462-.141 1.023-.136c.56.006 1.023.076 1.018.153m6.752 6.04c0 .081-.413.163-.936.19-.522.027-.946 0-.946-.087s.413-.163.93-.19c.517-.028.947.011.952.087m-.054 8.298c0 .076-.392.131-.865.114-.474-.016-.865-.087-.86-.168s.392-.131.865-.115c.474.017.865.071.86.169m-6.383 6.307c0 .076-.462.092-1.012.038-.55-.055-.985-.164-.979-.24.005-.076.462-.098 1.012-.038.549.06.985.163.979.24m2.617 4.048c0 .082-.451.158-1.017.169s-1.023-.038-1.023-.115c0-.076.451-.152 1.017-.168s1.018.038 1.023.114m-14.915 5.681c0 .076-.495.06-1.088 0s-1.061-.082-1.088-.163a1.9 1.9 0 0 1 1.088-.12c.631.06 1.099.207 1.088.283m-.571-39.532c0 .081-.463.13-1.023.119-.561-.01-1.023-.092-1.018-.168.006-.076.457-.131 1.023-.115.566.017 1.018.098 1.018.164"/><path fill="#fff" d="M126.069 121.502a36 36 0 0 1-4.609 4.478 18.6 18.6 0 0 1 2.21-2.339c.737-.78 1.54-1.496 2.399-2.139m11.683 8.891q-1.194.526-2.285 1.241a9.86 9.86 0 0 0-3.902 11.024q.403 1.242.996 2.406a3 3 0 0 1-.403-.583 9 9 0 0 1-.783-1.768 9.73 9.73 0 0 1 3.977-11.242 8.8 8.8 0 0 1 1.72-.882q.326-.145.68-.196m3.608-.44c0 .081-.283.163-.637.185s-.647 0-.653-.104c-.005-.103.283-.158.637-.179.353-.022.647.021.653.098m-4.598-12.869c.09.485.09.983 0 1.469-.009.493-.11.981-.3 1.436a3.8 3.8 0 0 1 0-1.469c.008-.493.11-.981.3-1.436m17.451 3.613c.049.06-.322.451-.833.87-.512.419-.963.719-1.012.659s.321-.452.832-.876c.512-.425.974-.713 1.013-.653m10.393 15.889a4 4 0 0 1-1.486-.202 4.1 4.1 0 0 1-1.42-.478 4 4 0 0 1 1.485.201c.499.071.981.233 1.421.479m-44.55-.191a2.9 2.9 0 0 1-1.335.664c-.496.1-1.009.068-1.489-.092 0-.082.664-.028 1.431-.185.768-.158 1.35-.457 1.393-.387m3.369 15.59a3.9 3.9 0 0 1-.545 1.371 9 9 0 0 1-.642 1.089l-.119-.076c.098-.093.168-.137.185-.12.016.016 0 .092-.076.212l-.338.588.218-.67q.233-.592.544-1.148c.179-.459.44-.882.773-1.246m14.92 11.912a4.8 4.8 0 0 1-.593-1.535 4.8 4.8 0 0 1-.326-1.632c.488.986.799 2.051.919 3.145z"/><path fill="#A26760" d="M166.325 134.001s-1.67-3.265-4.026-3.466c-2.357-.201-24.384 5.752-24.384 5.752s.512 3.21 2.966 3.085 8.07-1.497 8.07-1.497l-10.339 4.392s1.632 3.994 5.985 2.78c4.354-1.213 11.814-2.688 11.814-2.688l-13.533 5.942s.996 3.619 4.582 2.46a47 47 0 0 1 8.135-1.633l-8.435 3.76s.278 3.031 4.065 2.498 10.665-1.725 10.665-1.725a44.4 44.4 0 0 0 4.702 6.65c5.877 6.66 9.327 2.72 9.327 2.72l5.321 1.916c.213-1.089 2.988-18.131 2.988-18.131l-10.562-1.322s-4.13-9.12-4.849-10.04a4.2 4.2 0 0 0-2.492-1.453"/><path fill="#7B4B45" d="M161.014 134.289c0 .077-2.846 1.013-6.41 2.09s-6.47 1.888-6.497 1.817 2.851-1.012 6.416-2.089c3.564-1.077 6.47-1.894 6.491-1.818m.561 5.932a5 5 0 0 1-.713.37l-1.981.925a442 442 0 0 1-6.584 2.927 308 308 0 0 1-6.639 2.819c-.854.348-1.55.62-2.035.8a3.7 3.7 0 0 1-.761.245q.343-.208.718-.349l2.002-.881 6.601-2.895 6.617-2.851 2.018-.838q.363-.179.757-.272m3.733 5.604a50 50 0 0 1-5.05 1.894 52 52 0 0 1-5.142 1.633 50 50 0 0 1 5.044-1.9 54 54 0 0 1 5.148-1.627m1.567 6.704a12.3 12.3 0 0 1-5.442 1.285c0-.082 1.241-.245 2.721-.604 1.48-.36 2.688-.757 2.721-.681m10.208.305-3.613-7.558-3.597-7.547c.136-.109 1.856 3.264 3.853 7.427s3.515 7.624 3.357 7.678"/><path fill="#9292A9" d="M80.149 64.236 62.616 99.693l3.679 1.616 17.037-35.881z"/><path fill="#A26760" d="M88.779 66.957c10.118 0 18.321-8.203 18.321-18.322s-8.202-18.321-18.321-18.321-18.322 8.203-18.322 18.321S78.66 66.957 88.78 66.957"/><path fill="#27272E" d="M107.078 49.484a3.7 3.7 0 0 1-.146-1.164q0-.29-.033-.637c-.027-.234-.071-.484-.109-.762a15 15 0 0 0-.343-1.877 17.8 17.8 0 0 0-1.866-4.838 18.2 18.2 0 0 0-4.353-5.218 17.7 17.7 0 0 0-7.352-3.602 17 17 0 0 0-2.225-.348c-.381 0-.768-.082-1.154-.087H87.73l-.594.065c-.391.049-.794.076-1.197.141q-1.209.222-2.378.599-1.203.373-2.345.908c-.38.191-.75.409-1.126.61q-.57.305-1.088.691a20 20 0 0 0-2.08 1.632 21 21 0 0 0-1.811 1.965 17.1 17.1 0 0 0-2.72 4.74 17.6 17.6 0 0 0-.545 11.105 17.1 17.1 0 0 0 2.285 4.969q.743 1.119 1.633 2.127a20 20 0 0 0 1.915 1.801q.486.43 1.029.784c.353.24.702.49 1.06.713q1.09.637 2.254 1.126a18 18 0 0 0 2.317.81c.392.104.79.17 1.176.257l.588.12c.19.037.391.048.587.07l1.165.125h1.159a16 16 0 0 0 2.252-.136 18.23 18.23 0 0 0 14.796-12.341q.317-.903.511-1.84c.066-.266.136-.516.18-.745s.065-.44.098-.631a3.7 3.7 0 0 1 .25-1.148c.075.39.086.788.033 1.18 0 .196 0 .414-.033.648q-.049.352-.114.778a12 12 0 0 1-.397 1.916 17.3 17.3 0 0 1-2.177 4.897 18.66 18.66 0 0 1-12.989 8.423q-1.192.177-2.4.185h-1.235l-1.246-.114c-.212 0-.424-.027-.63-.065l-.632-.12c-.42-.087-.844-.152-1.263-.256a21 21 0 0 1-2.503-.843 20 20 0 0 1-2.432-1.137c-.392-.234-.767-.5-1.153-.757q-.573-.379-1.089-.832a22 22 0 0 1-2.079-1.927A21 21 0 0 1 73 59.165a18.3 18.3 0 0 1-2.487-5.36 18.72 18.72 0 0 1 .544-11.97 18.2 18.2 0 0 1 2.97-5.105 21 21 0 0 1 1.97-2.105 21 21 0 0 1 2.243-1.726q.567-.405 1.186-.729c.408-.217.805-.446 1.219-.642a20 20 0 0 1 5.093-1.567c.424-.065.86-.092 1.284-.141l.637-.06h1.888c.414 0 .822.076 1.23.114q1.201.12 2.372.408A18.7 18.7 0 0 1 105.3 39.87a17.2 17.2 0 0 1 1.709 5.104q.186.966.223 1.948c0 .283.038.544.043.784.006.24 0 .451-.032.647.006.384-.049.766-.164 1.132"/><path fill="#27272E" d="M94.318 51.77a3.727 3.727 0 0 1-3.7 3.656 3.565 3.565 0 0 1-3.744-3.471 3.72 3.72 0 0 1 3.695-3.657 3.565 3.565 0 0 1 3.75 3.471m1.594-9.413c-.474.468-3.265-1.698-7.248-1.807s-7.01 1.818-7.428 1.312c-.207-.223.288-1.089 1.594-1.981a10.24 10.24 0 0 1 5.986-1.633 9.8 9.8 0 0 1 5.752 2.047c1.186.957 1.578 1.85 1.343 2.062"/><path fill="#fff" d="M78.445 59.943c-.097.136-1.333-.501-2.796-2.177a14.69 14.69 0 0 1-1.954-16.26c1.028-1.963 2.079-2.872 2.204-2.763s-.544 1.235-1.284 3.172a16.14 16.14 0 0 0 1.828 15.236c1.164 1.72 2.144 2.623 2.002 2.792m4.816 3.063c-.032.19-.212.343-.511.397a1.8 1.8 0 0 1-1.823-1.023.54.54 0 0 1 .076-.642c.31-.245.854-.065 1.366.207.511.272.936.67.892 1.061"/><path fill="#A26760" d="M51.875 97.483s7.939-17.728 9.027-18.615 12.233-8.848 12.233-8.848 1.997-.223 3.319.544c1.045.626 3.515 4.533 4.495 6.133a1.78 1.78 0 0 1 .19 1.447l-1.295 3.526s1.35 2.128.963 3.608a9.6 9.6 0 0 1-1.257 2.72s1.186 2.177.36 4.213c-.828 2.035-3.086 2.889-3.086 2.889s-.947 3.668-1.088 4.391c-.142.724-4.18 2.215-4.593 2.09s-3.265-1.41-3.265-1.41-1.534 5.986-3.265 7.276a8.9 8.9 0 0 1-3.94 1.491l-1.202 8.635-13.816-8.766z"/><path fill="#7B4B45" d="M69.875 92.82a28 28 0 0 1 3.483 1.192c1.899.713 3.45 1.257 3.428 1.327a17.8 17.8 0 0 1-3.532-1.088 21.3 21.3 0 0 1-3.379-1.431m.348-7.504c.487.03.969.113 1.437.25.882.196 2.09.507 3.406.91 1.317.402 2.492.81 3.336 1.136.465.15.914.347 1.338.588a8 8 0 0 1-1.403-.403c-.86-.272-2.04-.652-3.352-1.05-1.312-.397-2.509-.74-3.374-.985a8.4 8.4 0 0 1-1.388-.446m-1.213-5.931a7.2 7.2 0 0 1 1.605.033q1.923.16 3.81.571 1.898.408 3.727 1.061c.513.157 1.008.37 1.474.637a13 13 0 0 1-1.534-.447 48 48 0 0 0-3.728-.979c-1.474-.321-2.813-.544-3.809-.647q-.78-.06-1.545-.229"/><path fill="#9292A9" d="M77.069 80.675a4.95 4.95 0 0 1-.234-2.667 3.06 3.06 0 0 1-2.34-.892c-.702.767-1.633 1.828-2.356 2.596z"/><path fill="#E6E6F0" d="m182.758 142.479 29.64-10.404 18.871 17.739c13.234 17.897-1.893 33.296-16.15 30.929-10.513-1.746-38.961-13.032-38.961-13.032z"/><path fill="#27272E" d="M176.142 167.711v-.12l.081-.353c.076-.327.191-.784.332-1.361.305-1.202.746-2.922 1.29-5.066l4.505-17.315.028-.119h.125l7.618 1.235 22.854 3.765 6.916 1.176 1.877.332.485.092a.6.6 0 0 1 .163.044h-.169l-.49-.071-1.888-.277-6.927-1.089-22.854-3.684-7.618-1.246.158-.103c-1.845 6.932-3.45 12.962-4.598 17.287-.582 2.134-1.045 3.848-1.371 5.045l-.381 1.349c-.038.142-.077.256-.104.348a.4.4 0 0 1-.032.131"/><path fill="#27272E" d="M218.384 145.493c0 .077-2.639.61-5.926 1.192s-5.986.985-5.986.909 2.661-.631 5.926-1.214c3.265-.582 5.986-.984 5.986-.887"/></g><path fill="#27272E" d="M102.229 223.275h-81.67a3.99 3.99 0 0 1-3.924-3.265l-10.11-55.841a3.99 3.99 0 0 1 3.918-4.696h81.676a3.98 3.98 0 0 1 3.918 3.265l10.116 55.835a3.983 3.983 0 0 1-3.924 4.702"/><path fill="#27272E" d="M98.05 217.942h47.341a5.12 5.12 0 0 1 5.121 5.12v.213H98.05z"/><path fill="#9292A9" d="M91.26 159.473c.076 0 2.976 14.252 6.475 31.866s6.279 31.903 6.198 31.919c-.082.017-2.977-14.251-6.476-31.865s-6.274-31.903-6.197-31.92M53.626 192.28a2.85 2.85 0 0 0-2.438-2.084h.24a2.804 2.804 0 0 0-3.313 3.202 2.803 2.803 0 1 0 5.49-1.112z"/></svg>