<svg xmlns="http://www.w3.org/2000/svg" width="769" height="248" fill="none" viewBox="0 0 769 248"><g clip-path="url(#health-team_svg__a)"><ellipse cx="611.805" cy="132.555" fill="#EEEBFF" rx="72.308" ry="71.381"/><mask id="health-team_svg__b" width="174" height="170" x="525" y="34" maskUnits="userSpaceOnUse" style="mask-type:alpha"><path fill="#fff" fill-rule="evenodd" d="M698.574 34.05H525.035v110.64h15.514A70.7 70.7 0 0 0 545 159.871a71.3 71.3 0 0 0 15.675 23.158 72.4 72.4 0 0 0 23.458 15.473 73.1 73.1 0 0 0 27.671 5.434 73.1 73.1 0 0 0 27.671-5.434 72.4 72.4 0 0 0 23.459-15.473 71.3 71.3 0 0 0 15.674-23.158 70.7 70.7 0 0 0 4.452-15.181h15.514z" clip-rule="evenodd"/></mask><g mask="url(#health-team_svg__b)"><path fill="#FAFAFC" d="M652.383 181.256c-1.567-8.615-8.422-76.277-8.422-76.277l-16.843-5.947-7.242-8.3-20.96 2.897-6.889 6.796s-13.218 4.087-16.55 6.406c0 0-7.208 4.817-9.567 12.413-1.809 5.82-10.463 34.553-10.463 34.553s-2.359 7.009-1.584 11.75c.447 2.702 2.325 8.071 6.837 10.433a17 17 0 0 0 12.159 1.198l-4.53 76.651s.388 7.723 21.15 11.045 70.026-6.585 70.026-6.585-5.555-68.452-7.122-77.033"/><path fill="#27272E" d="M652.383 181.256s.336 1.818.749 5.31.956 8.657 1.593 15.293c1.283 13.304 2.997 32.556 4.986 56.345v.145h-.138a492 492 0 0 1-20.813 3.61c-7.302 1.105-14.958 2.124-22.949 2.855s-16.361 1.283-24.912.323a58.7 58.7 0 0 1-12.727-2.982 25.7 25.7 0 0 1-5.959-3.025 13.5 13.5 0 0 1-2.515-2.277 6.43 6.43 0 0 1-1.55-3.075c1.352-22.88 2.816-47.773 4.306-73.593q.09-1.544.181-3.05l.292.221a17.7 17.7 0 0 1-7.31.417 15.3 15.3 0 0 1-3.522-.952 12.2 12.2 0 0 1-3.178-1.776 14.55 14.55 0 0 1-4.168-5.768 17.7 17.7 0 0 1-1.033-3.399 15.3 15.3 0 0 1-.19-3.534 34.7 34.7 0 0 1 1.197-6.873q1.008-3.314 1.99-6.602 1.99-6.55 3.926-12.965a5042 5042 0 0 1 3.85-12.684 59 59 0 0 1 2.058-6.194 22.8 22.8 0 0 1 3.496-5.446 29.8 29.8 0 0 1 4.624-4.426 14.4 14.4 0 0 1 2.755-1.631c.948-.451 1.921-.85 2.894-1.241 3.892-1.546 7.75-2.846 11.659-4.069l-.086.051 6.889-6.755.052-.05h.06l20.96-2.89h.094l.069.077 7.242 8.284-.077-.051 16.835 5.947h.094v.102c2.377 23.585 4.375 42.667 5.822 55.844.714 6.593 1.308 11.708 1.722 15.165.224 1.7.379 3.059.516 3.943.138.883.19 1.342.19 1.342s-.345-1.81-.801-5.268-1.076-8.572-1.817-15.165c-1.498-13.177-3.548-32.285-5.967-55.827l.103.136-16.844-5.948h-.043l-7.25-8.3.163.06-20.951 2.922.112-.05-6.889 6.796c-3.849 1.223-7.75 2.549-11.625 4.061-.964.391-1.929.79-2.867 1.24-.954.422-1.853.955-2.678 1.589a29.3 29.3 0 0 0-4.564 4.359 22.6 22.6 0 0 0-3.445 5.352 58 58 0 0 0-2.04 6.151 9158 9158 0 0 1-3.832 12.685q-1.947 6.423-3.927 12.973-.982 3.272-1.981 6.576a34 34 0 0 0-1.179 6.797 14.7 14.7 0 0 0 .18 3.398c.22 1.136.558 2.246 1.008 3.314a14 14 0 0 0 4.047 5.607c3.755 2.812 9.007 3.483 13.589 2.234l.31-.085v.315a244001 244001 0 0 0-4.539 76.642 6.1 6.1 0 0 0 1.447 2.821 13.6 13.6 0 0 0 2.429 2.217 26 26 0 0 0 5.872 2.974 58.5 58.5 0 0 0 12.624 2.965c8.508.96 16.861.365 24.826-.297 7.966-.663 15.63-1.699 22.932-2.829s14.243-2.303 20.796-3.577l-.129.17c-1.946-23.789-3.608-43.05-4.84-56.354a866 866 0 0 0-1.507-15.293c-.206-1.75-.336-3.084-.482-3.976s-.215-1.351-.215-1.351"/><path fill="#FAFAFC" d="m641.025 117.791-.164 19.32 2.204 20.093-17.48 1.937 1.214 22.871s22.492-.238 33.265-4.494 8.189-14.826 7.431-19.541c-1.274-7.842-13.562-45.981-16.06-48.682-3.005-3.263-8.154-4.563-8.154-4.563z"/><path fill="#1900AF" d="M618.308 90.749a8.15 8.15 0 0 1 1.955 6.372c-.388 4.061-3.324 11.741-5.089 14.06s-12.53 22.09-12.53 22.09l-5.485-28.275-.344-9.252 2.101-2.081z"/><path fill="#27272E" d="M605.228 132.719q.255-.132.482-.306l1.309-.943c1.18-.85 2.808-2.056 4.797-3.526l7.07-5.268 4.167-3.135a3.67 3.67 0 0 0 1.628-2.31 6.1 6.1 0 0 0-.56-2.838 35.5 35.5 0 0 0-2.885-5.327l-.258.306 7.475 3.271.301.136v-.323c-.465-3.976-.861-7.298-1.137-9.686-.146-1.121-.258-2.03-.344-2.701a6 6 0 0 0-.164-.952q-.01.48.043.96l.25 2.719c.241 2.387.577 5.718.973 9.702l.267-.187-7.474-3.33-.62-.28.361.586a35.7 35.7 0 0 1 2.833 5.259c.384.822.569 1.72.543 2.625a3.3 3.3 0 0 1-1.464 2.039l-4.142 3.144-7.018 5.352-4.71 3.636-1.266 1.003a2.4 2.4 0 0 0-.457.374m-2.583.535a3 3 0 0 0-.276-.442l-.861-1.206-3.126-4.427c-1.317-1.869-2.884-4.086-4.589-6.584a170 170 0 0 1-2.627-3.942c-.448-.688-.861-1.394-1.3-2.124a4.7 4.7 0 0 1-.861-2.269 4 4 0 0 1 .522-1.526 4 4 0 0 1 1.088-1.201 12.4 12.4 0 0 1 2.721-1.75l1.034-.501-1.146.11-8.094.748.146.289 4.96-5.803 1.352-1.623a6 6 0 0 0 .448-.595 3.5 3.5 0 0 0-.534.527l-1.421 1.555-5.072 5.709-.293.323h.44l8.111-.688-.103-.391a12.3 12.3 0 0 0-2.833 1.801c-.453.38-.85.821-1.18 1.309a3.3 3.3 0 0 0-.585 1.699q-.013.35.077.688l.086.34.138.306q.275.593.611 1.155.633 1.109 1.318 2.141c.861 1.385 1.791 2.693 2.652 3.934a290 290 0 0 0 4.676 6.542 318 318 0 0 0 3.238 4.341l.904 1.164q.165.218.379.391m-.93 132.282c.121 0 .568-29.736.999-66.379.43-36.643.68-66.388.56-66.388-.121 0-.569 29.736-.999 66.379s-.681 66.38-.56 66.388m60.467-106.191a3.2 3.2 0 0 0-.603-.518 14 14 0 0 0-1.825-1.173 18 18 0 0 0-2.963-1.283 19.1 19.1 0 0 0-7.827-.9 18 18 0 0 0-3.186.594q-1.051.277-2.041.723-.38.137-.706.373c0 .077 1.068-.382 2.824-.807a21.4 21.4 0 0 1 3.143-.484 23 23 0 0 1 3.875.068c1.289.174 2.559.458 3.798.85 1.009.316 1.991.711 2.936 1.18 1.619.765 2.523 1.445 2.575 1.377m-6.243-8.938s-.207-.077-.594-.119a10 10 0 0 0-1.662 0c-1.833.12-3.621.612-5.251 1.447a13.3 13.3 0 0 0-4.221 3.404 9 9 0 0 0-.922 1.351c-.189.34-.275.535-.249.552.025.017.499-.697 1.412-1.699a14.6 14.6 0 0 1 4.185-3.22 15.1 15.1 0 0 1 5.089-1.521c1.352-.195 2.213-.119 2.213-.195"/><path fill="#27272E" d="M627.944 158.963a7 7 0 0 0 1.145-.06l3.16-.306 10.807-1.189h.199v-.204a174 174 0 0 0-.491-4.834 338 338 0 0 0-1.921-13.9 202 202 0 0 0-.706-4.197c-.086-.459-.155-.849-.215-1.138a1.7 1.7 0 0 0-.103-.391 1.3 1.3 0 0 0 0 .408c0 .306.077.688.137 1.147.138 1.062.328 2.48.56 4.248.482 3.559 1.163 8.496 1.8 13.908.189 1.699.353 3.296.499 4.825l.19-.229-10.756 1.274-3.143.434a7 7 0 0 0-1.162.204"/><path fill="#27272E" d="M644.943 105.947a2 2 0 0 0 .344.119l1.016.298a11.9 11.9 0 0 1 3.643 1.699c1.421 1.028 2.583 2.888 3.582 5.148s1.826 4.979 2.807 7.944a981 981 0 0 1 6.485 20.968c2.127 7.944 5.735 16.559 5.063 26.168v.85a11.7 11.7 0 0 1-2.945 5.615 15.7 15.7 0 0 1-5.442 3.11 41 41 0 0 1-5.976 1.555 91 91 0 0 1-5.882.994c-1.929.272-3.815.425-5.666.527l-5.399.348-9.791.629.172.144c-.534-6.95-.964-12.583-1.266-16.508-.155-1.937-.275-3.398-.361-4.494a46 46 0 0 1-.112-1.164c-.026-.314-.052-.399-.052-.399a3 3 0 0 0 0 .399c0 .289 0 .671.06 1.172.061 1.054.155 2.549.284 4.495.259 3.925.646 9.566 1.12 16.525v.101h.155l9.774-.594 5.399-.332a67 67 0 0 0 5.7-.509 107 107 0 0 0 5.916-.986 41.5 41.5 0 0 0 6.028-1.563 15.9 15.9 0 0 0 5.606-3.212 12.1 12.1 0 0 0 3.066-5.828v-.85c.068-4.749-.138-9.498-1.516-13.823-1.18-4.341-2.42-8.496-3.6-12.463-2.385-7.918-4.615-15.021-6.578-20.96-.999-2.956-1.878-5.65-2.877-7.944s-2.23-4.146-3.711-5.182a11.4 11.4 0 0 0-3.711-1.657 17 17 0 0 0-1.025-.255 3 3 0 0 0-.31-.085"/><path fill="#936760" d="M630.786 160.823c-.259-.255-5.236-3.653-5.236-3.653s-.284-2.362-1.567-2.778a4.16 4.16 0 0 0-1.688-1.636 4.24 4.24 0 0 0-2.316-.471h-7.414l-6.39 7.069c.052.466.287.893.653 1.191s.837.444 1.31.406l-1.722 3.254s2.015 1.453 3.72.28c1.705-1.172 4.03-3.194 4.03-3.194l-3.444 5.293s.293 1.181 2.196.339a12.8 12.8 0 0 0 3.771-3.194l5.709-.595-4.787 1.598-3.755 3.398s.345 1.181 2.05.756a13.8 13.8 0 0 0 3.668-1.759l2.583.162c.108.595.357 1.158.726 1.64.37.483.85.873 1.401 1.138a9.6 9.6 0 0 0 4.349.85l5.614 1.928c.026-3.279-1.739-8.207-3.461-12.022"/><path fill="#6F4C47" d="M608.139 160.95q.723-.709 1.326-1.521.694-.827 1.489-1.563a5.34 5.34 0 0 1 2.205-1.325 21.5 21.5 0 0 1 4.736-.943q1.016-.045 2.015-.23a7 7 0 0 0-2.032-.076 17.5 17.5 0 0 0-4.866.849c-.462.14-.903.343-1.308.604a7 7 0 0 0-1.025.849 14 14 0 0 0-1.455 1.7 7.2 7.2 0 0 0-1.085 1.656m6.027.34c.061 0 .336-.263.862-.654a5.7 5.7 0 0 1 2.256-1.002 14.6 14.6 0 0 1 2.523-.264c.364.028.729-.015 1.076-.127 0-.06-.405-.128-1.068-.179a9.1 9.1 0 0 0-2.626.145 4.93 4.93 0 0 0-2.36 1.198c-.49.476-.663.849-.663.883m12.616 1.36c.043 0 .267-.128.465-.51.256-.518.31-1.111.151-1.666a2.35 2.35 0 0 0-1.012-1.342c-.371-.229-.646-.254-.663-.203s.93.535 1.248 1.699a4 4 0 0 1-.189 2.022m4.521 7c-.078-.093-.663.255-1.438.544s-1.456.4-1.447.527.749.195 1.602-.127c.852-.323 1.369-.859 1.283-.944"/><path fill="#27272E" d="M628.039 159.005s.387.128.999.518a6 6 0 0 1 1.98 2.252 32 32 0 0 1 1.722 4.197 22 22 0 0 1 1.232 5.378 11.8 11.8 0 0 1-.465 4.528 8.16 8.16 0 0 1-1.981 3.399 7.4 7.4 0 0 1-2.531 1.699 6.7 6.7 0 0 1-1.861.45h-.266l.241.085c.195.092.405.153.62.179a2.5 2.5 0 0 0-.569-.289v.11a5.6 5.6 0 0 0 1.946-.34 7.4 7.4 0 0 0 2.696-1.699 8.5 8.5 0 0 0 2.127-3.475c.475-1.516.645-3.109.499-4.69a21.2 21.2 0 0 0-1.283-5.471 28.5 28.5 0 0 0-1.808-4.248 5.77 5.77 0 0 0-2.162-2.243 3.3 3.3 0 0 0-.792-.331c-.241-.017-.344-.026-.344-.009m13.882-37.034a13.3 13.3 0 0 0-1.378 3.118 13.4 13.4 0 0 0-.965 3.262 26.5 26.5 0 0 0 2.343-6.38m-69.294 56.15a3 3 0 0 1 0-.578q0-.637.051-1.656c.052-1.487.121-3.552.198-6.075.147-5.097.25-12.226.224-20.059s-.112-14.893-.155-20.076v-7.731a2.7 2.7 0 0 1 0-.578q.06.286.052.578c0 .416.043.968.069 1.648 0 1.487.094 3.551.163 6.083.121 5.098.267 12.226.284 20.068.018 7.841-.129 14.944-.353 20.076a193 193 0 0 1-.473 7.722q.003.293-.06.578m-.974-25.497a3.86 3.86 0 0 1-1.8-.263c-.956-.255-1.722-.561-1.67-.68a3.9 3.9 0 0 1 1.791.255c.955.263 1.713.569 1.679.688"/><path fill="#936760" d="M559.528 131.444s-1.799-3.534-3.702-3.491c-1.275 0-2.136 2.931-2.136 2.931s-2.497-1.759-3.444 0 .861 4.452.861 4.452-1.903 1.053-2.144 2.548a10.4 10.4 0 0 0 0 2.931 4.48 4.48 0 0 0-.595 3.28c.483 1.64 4.874 8.318 4.874 8.318l4.866 2.701 1.067 3.603c4.65-.901 6.993-2.847 7.509-8.344 0 0 3.187-9.345 2.584-11.044-.603-1.7-3.565-4.104-3.565-4.104l-2.351-1.699a3.86 3.86 0 0 0-.939 2.404c0 1.411-.275 1.309-.275 1.309z"/><path fill="#FAFAFC" d="M562.594 134.791a4.3 4.3 0 0 1-.744 2.405 4.37 4.37 0 0 1-1.973 1.592 4.45 4.45 0 0 1-2.537.243 4.4 4.4 0 0 1-2.246-1.187 4.3 4.3 0 0 1-1.199-2.219 4.27 4.27 0 0 1 .251-2.502 4.34 4.34 0 0 1 1.618-1.944 4.44 4.44 0 0 1 5.547.543c.408.403.731.882.951 1.408.221.527.333 1.091.332 1.661"/><path fill="#27272E" d="M562.594 134.791c-.043 0 0-.39-.215-1.036a4.37 4.37 0 0 0-1.602-2.285 4.25 4.25 0 0 0-4.397-.385 4.2 4.2 0 0 0-1.693 1.529 4.1 4.1 0 0 0 0 4.355c.41.655.996 1.184 1.693 1.529a4.25 4.25 0 0 0 4.397-.385 4.4 4.4 0 0 0 1.61-2.285c.181-.654.173-1.037.216-1.037s0 .094 0 .281q.009.405-.086.798a4.3 4.3 0 0 1-1.585 2.49 4.56 4.56 0 0 1-4.305.696 4.56 4.56 0 0 1-2.153-1.571 4.47 4.47 0 0 1-.904-2.694 4.47 4.47 0 0 1 2.252-3.88 4.63 4.63 0 0 1 5.127.338 4.32 4.32 0 0 1 1.585 2.497q.096.394.086.799c0 .153-.009.246-.026.246"/><path fill="#FAFAFC" d="M558.194 138.861c-.809 0-1.6-.236-2.273-.68a4.04 4.04 0 0 1-1.506-1.811 4 4 0 0 1-.233-2.332 4 4 0 0 1 1.12-2.066 4.1 4.1 0 0 1 2.094-1.104 4.14 4.14 0 0 1 2.363.229 4.1 4.1 0 0 1 1.836 1.487 4 4 0 0 1 .689 2.242c0 1.07-.431 2.097-1.198 2.853a4.12 4.12 0 0 1-2.892 1.182m0-7.221a3.26 3.26 0 0 0-1.794.537c-.531.35-.945.847-1.19 1.43a3.14 3.14 0 0 0-.183 1.84c.124.618.432 1.186.883 1.632a3.25 3.25 0 0 0 1.654.872 3.3 3.3 0 0 0 1.866-.182 3.2 3.2 0 0 0 1.449-1.173c.355-.524.544-1.14.544-1.77a3.17 3.17 0 0 0-.952-2.242 3.25 3.25 0 0 0-2.277-.927z"/><path fill="#555567" d="M580.583 172.14a10 10 0 0 1-1.301-.068c-7.371-.74-13.33-6.559-17.222-16.814a66 66 0 0 1-3.651-15.182l1.722-.162c0 .289 3.023 28.827 19.367 30.475.482.06 11.194 1.334 14.182-10.433a123.5 123.5 0 0 0 3.049-20.866c.223-3.33 1.489-14.001 2.092-17.969l.594-3.568 1.722.272-.594 3.559c-.602 3.926-1.86 14.52-2.075 17.8a125.3 125.3 0 0 1-3.1 21.18c-2.781 10.722-11.487 11.776-14.785 11.776"/><path fill="#6F4C47" d="M550.943 135.335s.284-.161.861-.102c.339.049.662.171.948.357q.55.35 1.059.756 1.35 1.037 2.583 2.209.736.678 1.386 1.436.354.423.612.909a1.25 1.25 0 0 1 .06 1.232 1.67 1.67 0 0 1-1.136.662 4.1 4.1 0 0 1-1.206.06l.224-.306a1.46 1.46 0 0 1-.25 1.215 3.7 3.7 0 0 1-.732.807 1.64 1.64 0 0 1-1.033.314 3.7 3.7 0 0 1-.939-.11 10.3 10.3 0 0 1-2.678-1.087h.121q-.602.406-1.275.679a7 7 0 0 1 1.154-.849h.112c.835.42 1.721.737 2.635.943a2.15 2.15 0 0 0 1.645-.179c.247-.206.459-.45.628-.722.168-.235.244-.521.216-.807l-.112-.323h.336c.654.043 1.55 0 1.911-.518a.88.88 0 0 0-.077-.85 4.3 4.3 0 0 0-.56-.849q-.622-.756-1.335-1.428a43 43 0 0 0-2.454-2.26 4.9 4.9 0 0 0-1.843-1.181 5 5 0 0 0-.861-.008m15.001 7.953c-.069 0-.233-.57-.81-1.351-.577-.782-1.558-1.7-2.402-3.042a4.35 4.35 0 0 1-.681-2.09 4.7 4.7 0 0 1 .302-1.767 3.5 3.5 0 0 1 .783-1.41c.061 0-.215.577-.482 1.503a5.1 5.1 0 0 0-.189 1.649 4.14 4.14 0 0 0 .654 1.886c.784 1.232 1.783 2.217 2.282 3.101.334.44.523.971.543 1.521"/><path fill="#6F4C47" d="M556.084 142.642c-.043.051-.473-.263-1.076-.85-.155-.136-.327-.288-.517-.441l-.628-.442-1.43-1.037a2.9 2.9 0 0 0-1.567-.475c-.455.023-.893.18-1.257.45a2.56 2.56 0 0 0-.81.968s-.06-.136 0-.373c.115-.334.324-.629.603-.85a2.5 2.5 0 0 1 1.429-.612 3.08 3.08 0 0 1 1.835.518c.542.374 1.007.748 1.446 1.088l.62.484c.181.17.345.34.491.493.332.322.621.685.861 1.079m-1.447-10.4c-.12 0-.318-.297-.542-.696-.224-.4-.405-.74-.31-.85s.448.161.697.612c.25.45.267.9.155.934"/><path fill="#27272E" d="M572.17 157.552a26.7 26.7 0 0 1-2.842-3.959 26.6 26.6 0 0 1-2.471-4.248 26.6 26.6 0 0 1 2.841 3.967 26.3 26.3 0 0 1 2.472 4.24"/><path fill="#555567" d="m601.077 118.963-.258-.136c-.198-.094-4.883-2.472-7.087-5.709-2.205-3.237 2.583-17.562 3.547-20.39l1.628.551c-2.325 6.704-5.029 16.992-3.746 18.887 1.722 2.481 5.218 4.494 6.192 5.021 2.583-.476 8.611-1.801 10.29-3.075 2.394-1.793 9.403-14.061 11.901-18.632l1.515.807c-.939 1.7-9.257 16.831-12.374 19.176-2.42 1.818-10.42 3.287-11.324 3.449z"/><path fill="#27272E" d="M618.05 41.632c2.91-2.778 9.601-1.894 11.065.153a5.23 5.23 0 0 1 3.811.033 5.14 5.14 0 0 1 2.751 2.601l7.044 2.005a7.5 7.5 0 0 1 3.341 1.589c.861.85 1.223 2.413.379 3.33 2.48.85 3.22 4.571 1.231 6.236a2.66 2.66 0 0 1-.654 3.84 26.6 26.6 0 0 1 4.073 8.148 5.4 5.4 0 0 1 .112 3.739c-.525 1.163-2.17 1.886-3.169 1.07a3.11 3.11 0 0 1-.069 3.398c1.206.11 1.438 1.972.551 2.787-.887.816-2.239.85-3.444.714s-2.506-.255-3.548.365a1.08 1.08 0 0 0 .344.782 4.87 4.87 0 0 1 .663 6.754l-.43.518c-.767.935-2.583 1.7-3.677 2.21-2.825 1.223-4.435.849-7.518 1.095.706 1.997-4.538 5.947-9.928 1.377a111 111 0 0 1-31.474 2.15c-1.671-.103-3.669-.46-4.306-1.98a4.2 4.2 0 0 1-2.063-.269 4.2 4.2 0 0 1-1.674-1.218 12 12 0 0 1-2.006-3.628 7.3 7.3 0 0 1-3.496-2.648 7.15 7.15 0 0 1-1.318-4.149 8.9 8.9 0 0 1-2.183-2.959 8.8 8.8 0 0 1-.797-3.574 5.3 5.3 0 0 1-1.77-1.234 5.2 5.2 0 0 1-1.122-1.83 5.16 5.16 0 0 1 .309-4.175 31.1 31.1 0 0 1 4.125-9.507c-1.886-.535-2.446-3.126-1.533-4.851s2.721-2.744 4.443-3.679c-1.455.28-2.583-1.572-2.152-2.974.43-1.401 1.799-2.302 3.125-2.973a27 27 0 0 1 6.114-2.226c.862-2.447 4.263-5.098 6.7-6.024 9.825-3.831 16.576-4.52 28.141 5.038"/><path fill="#9292A9" d="M590.107 76.246a3.44 3.44 0 0 0-1.291-1.011h.103c-.095 0-.19-.051-.284-.077a1.4 1.4 0 0 0-1.085 0 2.58 2.58 0 0 0-1.49 1.07 2.94 2.94 0 0 0 .078 3.084c.202.422.531.772.942 1.003a2.325 2.325 0 0 0 2.631-.25 2.26 2.26 0 0 0 .732-1.16 2.77 2.77 0 0 0-.336-2.66"/><path fill="#936760" d="M590.314 57.835c1.188-6.423 6.492-13.857 12.916-12.413l19.806 7.477a3.88 3.88 0 0 1 2.327 1.552 3.78 3.78 0 0 1 .652 2.696l-6.105 41.97-15.75 11.427c-.129-.849-6.932-11.427-6.932-11.427-.353-3.126-.714-6.584-.714-6.567s-8.215-2.354-8.612-13.347c-.241-5.463 1.094-14.257 2.412-21.368"/><path fill="#27272E" d="M591.433 66.926c-.047.36.049.723.27 1.013.22.29.546.485.909.541a1.38 1.38 0 0 0 1.03-.208 1.35 1.35 0 0 0 .572-.87 1.38 1.38 0 0 0-.273-1.017 1.42 1.42 0 0 0-.915-.538 1.36 1.36 0 0 0-1.029.206 1.33 1.33 0 0 0-.564.873m.267-4.291c.155.204 1.308-.45 2.815-.272s2.524 1.062 2.713.892-.052-.416-.491-.85a3.94 3.94 0 0 0-2.144-.943 3.83 3.83 0 0 0-2.265.442c-.508.332-.706.646-.628.731m13.477 5.582c-.045.36.054.724.275 1.014s.549.484.913.54a1.365 1.365 0 0 0 1.399-.587c.097-.15.163-.317.194-.492a1.38 1.38 0 0 0-.273-1.016 1.42 1.42 0 0 0-.915-.538 1.36 1.36 0 0 0-1.029.206 1.33 1.33 0 0 0-.564.873m1.325-3.568c.147.203 1.309-.45 2.816-.272s2.523 1.053 2.712.85c.19-.205-.051-.417-.49-.85a3.95 3.95 0 0 0-2.145-.935 3.75 3.75 0 0 0-2.264.442c-.508.365-.715.671-.629.764m-6.802 10.4a10.4 10.4 0 0 0-2.403-.722c-.379-.085-.732-.204-.766-.468a1.94 1.94 0 0 1 .387-1.096l1.49-2.718c2.075-3.942 3.634-7.196 3.444-7.273s-1.98 3.042-4.055 6.975q-.752 1.464-1.438 2.787c-.299.43-.433.951-.379 1.47a.95.95 0 0 0 .568.629q.307.125.637.17c.824.186 1.669.27 2.515.246"/><path fill="#6F4C47" d="M596.539 92.55a28.4 28.4 0 0 0 15.113-2.116s-3.385 7.535-14.734 5.615zm2.989-13.934a3.7 3.7 0 0 1 1.471-1.018 3.8 3.8 0 0 1 1.784-.222 2.4 2.4 0 0 1 1.851 1.3 2.18 2.18 0 0 1-.394 2.47 2.24 2.24 0 0 1-1.16.638 2.26 2.26 0 0 1-1.322-.126 5.54 5.54 0 0 1-2.058-1.615 1.8 1.8 0 0 1-.414-.611.75.75 0 0 1 .155-.748"/><path fill="#27272E" d="M604.013 76.602c-.241-.042-.439 1.572-1.981 2.55-1.541.976-3.263.594-3.298.849 0 .093.353.357 1.085.467a4.2 4.2 0 0 0 2.747-.603 3.5 3.5 0 0 0 1.55-2.158c.147-.68.009-1.105-.103-1.105m2.559-18.164c.094.425 1.627.408 3.375.85 1.748.441 3.117 1.061 3.393.73.129-.161-.078-.578-.603-1.037a5.8 5.8 0 0 0-2.445-1.172 5.9 5.9 0 0 0-2.713 0c-.689.153-1.05.433-1.007.629m-13.727-.868c.224.375 1.309.145 2.583.273 1.275.127 2.282.501 2.584.17.129-.153 0-.519-.422-.85a3.77 3.77 0 0 0-4.125-.348c-.525.246-.715.577-.62.756"/><path fill="#27272E" d="M585 62.678c.17-1.71.934-3.31 2.162-4.529a26 26 0 0 0 2.179-1.792c1.351-1.513 1.343-3.747 2.015-5.65a8.2 8.2 0 0 1 2.15-3.208 8.36 8.36 0 0 1 3.395-1.89c2.11-.578 4.435-.306 6.441-1.18 1.481-.647 2.67-1.861 4.185-2.422 2.963-1.08 6.175.612 8.758 2.396.379 2.158-1.111 3.89-2.583 5.556a7.7 7.7 0 0 1-2.64 1.95 7.8 7.8 0 0 1-3.225.675c-1.722 0-3.694-.543-4.994.57s-1.034 3.449-2.187 4.834c-1.645 1.97-4.969.934-7.294 2.056-1.8.85-2.67 2.846-3.668 4.562s-2.635 3.399-4.616 3.203a21.5 21.5 0 0 1-.078-5.131"/><path fill="#27272E" d="M611.721 47.954a39.3 39.3 0 0 1 14.501 3.645 7.1 7.1 0 0 1 3.445 2.727 6.8 6.8 0 0 1 .482 3.806c-.345 4.053-2.377 8.896-4.22 12.532l-5.356 2.659c-3.883-1.206-1.567-7.808-1.128-11.172a8.03 8.03 0 0 1-3.168-3.094 7.9 7.9 0 0 1-1.025-4.28 8.9 8.9 0 0 1-2.552-3.016 8.8 8.8 0 0 1-.979-3.807"/><path fill="#936760" d="M620.754 71.87c.327-2.302 3.246-2.549 5.167-1.206 1.059.739 1.799 2.098 1.472 4.545-.861 6.542-7.345 4.333-7.328 4.146s.301-4.783.689-7.485"/><path fill="#6F4C47" d="M622.425 77.138s.103.093.284.203c.259.151.567.2.861.137.74-.17 1.472-1.19 1.662-2.362a3.84 3.84 0 0 0-.104-1.7 1.35 1.35 0 0 0-.757-.986.61.61 0 0 0-.724.222c-.112.178-.086.314-.12.314-.035 0-.129-.127-.043-.39a.76.76 0 0 1 .318-.374.87.87 0 0 1 .663-.085c.265.089.502.243.689.448a1.6 1.6 0 0 1 .379.724 3.8 3.8 0 0 1 .155 1.878c-.215 1.308-1.059 2.455-2.058 2.6a1.27 1.27 0 0 1-1.033-.306c-.181-.162-.198-.315-.172-.323"/><path fill="#9292A9" d="M626.042 78.871a3.5 3.5 0 0 0-1.292-1.002h.103a2 2 0 0 0-.284-.077 1.4 1.4 0 0 0-1.085 0 2.58 2.58 0 0 0-1.49 1.07 2.94 2.94 0 0 0 .069 3.076c.202.422.53.772.941 1.003a2.32 2.32 0 0 0 2.63-.244c.36-.302.616-.707.735-1.158a2.8 2.8 0 0 0-.327-2.668"/><path fill="#555567" d="M622.958 79.95a1 1 0 0 0 0 .093q.027.13.078.255c.145.32.398.58.715.74a4.1 4.1 0 0 0 1.627.45q.534.051 1.068 0a4.3 4.3 0 0 0 1.197-.264l-.078-.051c.05.563.247 1.104.571 1.57.325.466.767.84 1.282 1.088a3.35 3.35 0 0 0 3.262-.203h-.112a1.4 1.4 0 0 0 .862.638 1.9 1.9 0 0 0 1.085 0c.369-.103.693-.324.921-.63.23-.312.375-.677.422-1.061a3.3 3.3 0 0 0-.568-2.243 9.6 9.6 0 0 0-1.628-1.81v.153a2.38 2.38 0 0 0 1.171-1.495 3.36 3.36 0 0 0-.052-1.954 5.2 5.2 0 0 0-1.041-1.7 17 17 0 0 0-1.473-1.427v.145a2.45 2.45 0 0 0 .792-1.852 3.5 3.5 0 0 0-.603-2.005 8.9 8.9 0 0 0-3.082-2.473l.051.12a4.34 4.34 0 0 0-.678-4.004 4.4 4.4 0 0 0-1.645-1.318 4.5 4.5 0 0 0-2.077-.414l.095.12a3.76 3.76 0 0 0-.663-3.263 3.8 3.8 0 0 0-1.183-1.075 3.8 3.8 0 0 0-1.53-.488l.078.084a3.7 3.7 0 0 0-1.292-2.973 3.7 3.7 0 0 0-1.266-.753 3.8 3.8 0 0 0-1.464-.207l.069.076a3.54 3.54 0 0 0-.413-1.699 4.7 4.7 0 0 0-.965-1.317 3.86 3.86 0 0 0-2.204-1.13h-.25a2 2 0 0 0-.232 0 3 3 0 0 0-.422 0q-.332.04-.655.128l-.379.127-.129.051h.138l.379-.11q.318-.078.646-.11.21-.015.422 0h.473a3.8 3.8 0 0 1 2.144 1.138c.358.367.649.793.862 1.257a3.44 3.44 0 0 1 .387 1.7v.076h.069c.472-.024.944.047 1.388.207s.851.408 1.195.727c.409.355.732.795.945 1.29.213.493.311 1.028.287 1.565v.076h.086a3.65 3.65 0 0 1 1.458.48c.446.26.83.613 1.125 1.033a3.58 3.58 0 0 1 .629 3.1v.128h.138a4.3 4.3 0 0 1 1.983.395c.62.288 1.159.72 1.571 1.26a4.11 4.11 0 0 1 .639 3.826v.076h.078a8.7 8.7 0 0 1 3.005 2.412c.383.556.584 1.215.577 1.887a2.27 2.27 0 0 1-.732 1.699l-.086.068.086.076a7.8 7.8 0 0 1 2.471 3.067c.195.595.21 1.232.044 1.835a2.14 2.14 0 0 1-1.068 1.368l-.121.06.095.093a9.4 9.4 0 0 1 1.602 1.776c.432.621.624 1.375.542 2.124a1.75 1.75 0 0 1-.363.958 1.8 1.8 0 0 1-.843.597 1.5 1.5 0 0 1-1.722-.544l-.043-.077-.069.043a3.28 3.28 0 0 1-3.375.076 3.3 3.3 0 0 1-1.059-1.029 3.2 3.2 0 0 1-.491-1.383v-.111h-.069a3.9 3.9 0 0 1-1.163.263q-.525.045-1.05 0a4.3 4.3 0 0 1-1.602-.424 1.53 1.53 0 0 1-.723-.706 2 2 0 0 1-.147-.271m25.877-5.2q.166-.169.284-.374c.23-.392.382-.825.448-1.274a3.28 3.28 0 0 0-.396-2.107 3.5 3.5 0 0 0-.967-1.09c-.396-.292-.85-.5-1.332-.61l.052.077a4.4 4.4 0 0 0-.362-3.28 4.4 4.4 0 0 0-1.197-1.46 10.7 10.7 0 0 0-1.722-.978 3.6 3.6 0 0 1-.861-.577 2.1 2.1 0 0 1-.551-.85c-.25-.646-.285-1.402-.612-2.107a4 4 0 0 0-1.601-1.729 4.1 4.1 0 0 0-2.308-.548l.112.12a5.2 5.2 0 0 0-.037-2.393 5.25 5.25 0 0 0-1.104-2.13 5.34 5.34 0 0 0-1.943-1.43 5.4 5.4 0 0 0-2.385-.437l.104.12a4.6 4.6 0 0 0-.273-2.583 4.65 4.65 0 0 0-1.639-2.03 4.75 4.75 0 0 0-5.046-.23h.103a6.4 6.4 0 0 0-2.221-1.572 10 10 0 0 0-2.351-.714 11.3 11.3 0 0 0-3.961 0c-.845.133-1.662.4-2.42.79a4 4 0 0 0-.568.348l-.19.128s.267-.17.784-.433a8.5 8.5 0 0 1 2.411-.74 11.3 11.3 0 0 1 3.918.06 9.5 9.5 0 0 1 2.308.722 6.15 6.15 0 0 1 2.161 1.538l.043.05h.06a4.72 4.72 0 0 1 4.633.086 4.57 4.57 0 0 1 1.72 1.987 4.5 4.5 0 0 1 .33 2.592v.119h.12a5.2 5.2 0 0 1 2.29.428c.72.313 1.358.785 1.866 1.378a5.04 5.04 0 0 1 1.106 4.345v.136h.129a3.9 3.9 0 0 1 2.193.52 3.84 3.84 0 0 1 1.527 1.638c.31.663.353 1.41.611 2.099a2.4 2.4 0 0 0 .595.909c.256.24.546.443.861.603q.901.403 1.722.951c.484.38.88.859 1.162 1.402.527.975.66 2.11.371 3.178v.068h.069a3.43 3.43 0 0 1 2.238 1.605c.358.618.503 1.334.414 2.04a3.5 3.5 0 0 1-.414 1.265c-.189.247-.292.366-.284.374m-63.792-2.795a.63.63 0 0 0 .069-.535 1.4 1.4 0 0 0-.353-.578 2.3 2.3 0 0 0-.792-.467 3.7 3.7 0 0 1-1.007-.501 2.02 2.02 0 0 1-.672-1.105 3.9 3.9 0 0 1-.052-1.52c.061-.536.19-1.105.233-1.7a17.6 17.6 0 0 0-.56-3.95 5.4 5.4 0 0 1 .069-2.159 2.66 2.66 0 0 1 1.343-1.767 10.4 10.4 0 0 1 2.394-.611c.434-.083.85-.239 1.232-.46a2.66 2.66 0 0 0 .921-.976c.378-.817.667-1.672.861-2.55a4.4 4.4 0 0 1 .56-1.206c.25-.366.617-.641 1.042-.781a7.5 7.5 0 0 1 1.86-.11c.323-.006.643-.063.947-.17.31-.11.582-.304.784-.561a6.4 6.4 0 0 0 .861-1.623 4 4 0 0 1 .947-1.427c.392-.386.86-.688 1.376-.887a4.1 4.1 0 0 1 1.621-.269 4.14 4.14 0 0 1 2.755 1.215l.078.085.06-.102a6.3 6.3 0 0 1 1.763-1.99 6.4 6.4 0 0 1 2.439-1.094 5.9 5.9 0 0 1 2.239 0 5.4 5.4 0 0 1 1.791.637 4.67 4.67 0 0 1 1.817 1.903q.16.31.284.638l.061.17v.059-.06l-.052-.178a4 4 0 0 0-.267-.654 4.6 4.6 0 0 0-1.808-1.963 5.4 5.4 0 0 0-1.826-.67 6.1 6.1 0 0 0-2.282 0 6.5 6.5 0 0 0-2.496 1.113 6.4 6.4 0 0 0-1.809 2.03h.137a4.33 4.33 0 0 0-2.867-1.283 4.35 4.35 0 0 0-2.499.701 4.27 4.27 0 0 0-1.635 1.992 6.6 6.6 0 0 1-.792 1.572 1.97 1.97 0 0 1-1.584.654 7.7 7.7 0 0 0-1.912.127 2.27 2.27 0 0 0-1.154.85 4.6 4.6 0 0 0-.577 1.266c-.197.86-.486 1.697-.861 2.498-.203.373-.5.688-.861.917a4 4 0 0 1-1.171.434c-.836.113-1.654.327-2.437.637a2.6 2.6 0 0 0-.93.798c-.23.328-.399.693-.5 1.08a5.6 5.6 0 0 0-.06 2.234c.337 1.278.531 2.588.577 3.908 0 .603-.155 1.172-.215 1.7a4 4 0 0 0 .069 1.554c.109.452.362.857.723 1.156a4 4 0 0 0 1.042.5c.286.092.549.24.775.434.163.148.285.336.353.544a.83.83 0 0 1-.052.501"/><path fill="#555567" d="m572.876 60.85.077-.118.207-.349.792-1.376c.345-.595.741-1.342 1.292-2.15a5.86 5.86 0 0 1 2.402-2.2c.56-.246 1.197-.39 1.843-.62q.5-.178.947-.459c.313-.22.568-.511.741-.85.362-.654.431-1.427.732-2.115.143-.35.392-.647.715-.85a3.5 3.5 0 0 1 1.102-.407 7 7 0 0 0 1.205-.366c.41-.173.754-.47.982-.85.369-.796.624-1.64.758-2.506.093-.423.275-.822.534-1.172a1.65 1.65 0 0 1 1.128-.586c.861-.12 1.808.246 2.798.17a2.44 2.44 0 0 0 1.327-.578c.343-.322.65-.681.912-1.07q.375-.566.818-1.08c.275-.334.63-.594 1.034-.756a3.94 3.94 0 0 1 2.514.196 5.8 5.8 0 0 0 2.515.399 7 7 0 0 0 2.273-.85c.644-.377 1.325-.69 2.032-.934a6.9 6.9 0 0 1 3.961.161 7.3 7.3 0 0 1 2.816 1.7 8.3 8.3 0 0 1 1.481 2.005q.353.707.586 1.46c.052.162.095.298.121.392l.051.136v-.136c0-.085-.06-.238-.112-.4a8 8 0 0 0-.551-1.486 8.2 8.2 0 0 0-1.464-2.048 7.55 7.55 0 0 0-2.902-1.7 7.14 7.14 0 0 0-4.056-.186c-.72.244-1.415.557-2.075.934a6.6 6.6 0 0 1-2.213.85 5.8 5.8 0 0 1-2.428-.4 8 8 0 0 0-1.283-.314 2.76 2.76 0 0 0-1.361.11 2.85 2.85 0 0 0-1.119.85c-.31.349-.56.731-.862 1.096a6 6 0 0 1-.861 1.037 2.17 2.17 0 0 1-1.222.527c-.913.085-1.835-.29-2.799-.17-.487.06-.93.307-1.231.688a3.2 3.2 0 0 0-.569 1.249 10 10 0 0 1-.732 2.455c-.199.344-.499.62-.861.79q-.567.232-1.171.349c-.41.082-.803.231-1.162.441-.346.23-.616.555-.775.935-.31.722-.371 1.487-.715 2.107a2.74 2.74 0 0 1-1.602 1.206c-.629.221-1.266.374-1.843.638a5.9 5.9 0 0 0-2.437 2.26c-.542.85-.93 1.58-1.265 2.175-.336.594-.577 1.07-.758 1.393-.078.153-.147.272-.19.365-.043.094-.12.009-.077.009"/><path fill="#555567" d="M580.471 54.487h-.121a.66.66 0 0 0-.361.051c-.209.11-.386.27-.517.464a1.4 1.4 0 0 0-.233.65c-.026.332-.003.667.069.993.086.376.115.763.086 1.147a2.5 2.5 0 0 1-.559 1.181c-.284.383-.646.74-.948 1.198a1.89 1.89 0 0 0-.284 1.64c.173.578.551 1.07.706 1.7a2.44 2.44 0 0 1-.31 1.792c-.31.578-.723 1.138-1.024 1.784-.164.33-.263.687-.293 1.053-.02.376.038.752.172 1.105q.476 1.03 1.128 1.963c.446.618.643 1.378.551 2.132-.24.753-.567 1.477-.973 2.158a3.4 3.4 0 0 0-.336 1.19c-.018.41.058.82.224 1.197.356.702.792 1.36 1.301 1.963a5.4 5.4 0 0 1 1.024 1.946q.199 1.063.543 2.09c.136.325.345.615.611.85.27.221.575.397.904.517q.465.168.905.391c.27.154.517.345.731.57.392.451.721.95.982 1.486.276.51.517 1.011.81 1.462a4.5 4.5 0 0 0 2.195 1.852 5 5 0 0 0 2.153.365 4.5 4.5 0 0 0 1.361-.289q.223-.086.43-.204a5.2 5.2 0 0 1-1.791.417 5 5 0 0 1-2.109-.391 4.4 4.4 0 0 1-2.119-1.818c-.275-.45-.517-.952-.783-1.47a7 7 0 0 0-1.008-1.52 3.4 3.4 0 0 0-.766-.613 9 9 0 0 0-.922-.407 2.8 2.8 0 0 1-.861-.485 2.1 2.1 0 0 1-.56-.85 16 16 0 0 1-.525-2.072 5.5 5.5 0 0 0-1.059-2.014 9.5 9.5 0 0 1-1.266-1.92 2.4 2.4 0 0 1-.207-1.113c.03-.388.139-.767.319-1.113.416-.695.745-1.436.982-2.209a2.5 2.5 0 0 0-.078-1.206 5 5 0 0 0-.499-1.062 12.4 12.4 0 0 1-1.12-1.929 2.5 2.5 0 0 1-.163-1.028c.031-.342.125-.676.275-.986.284-.628.698-1.18 1.008-1.784a2.52 2.52 0 0 0 .318-1.911c-.18-.629-.559-1.122-.723-1.7a1.69 1.69 0 0 1 .267-1.52c.284-.442.637-.85.921-1.198.3-.355.497-.784.569-1.24a4 4 0 0 0-.104-1.181 3.6 3.6 0 0 1-.086-.97 1.39 1.39 0 0 1 .689-1.088c.154-.041.317-.047.474-.016"/><path fill="#27272E" d="M648.689 74.52q.262.03.525 0a3.7 3.7 0 0 0 1.447-.492 3.5 3.5 0 0 0 1.55-1.835 3.64 3.64 0 0 0-.31-3.135 8.8 8.8 0 0 0-1.232-1.453 4.35 4.35 0 0 1-1.128-1.648 2.88 2.88 0 0 1 .267-2.082c.301-.688.749-1.342 1.051-2.107a6.37 6.37 0 0 0-.236-5.217 6.5 6.5 0 0 0-1.678-2.093 6.6 6.6 0 0 0-2.392-1.245l.052.153c.337-.405.573-.882.689-1.394a4.2 4.2 0 0 0 0-1.563 4.7 4.7 0 0 0-.56-1.495 5.8 5.8 0 0 0-1.042-1.24 10.4 10.4 0 0 0-4.254-2.065 15.6 15.6 0 0 0-4.461-.518l.104.102a4.6 4.6 0 0 0-.584-2.45 4.7 4.7 0 0 0-1.784-1.798 4.9 4.9 0 0 0-2.291-.638 8 8 0 0 0-2.23.408 4.4 4.4 0 0 1-1.042.153 2.6 2.6 0 0 1-.99-.178 8 8 0 0 1-1.723-.969 7 7 0 0 0-1.627-.85 6 6 0 0 0-1.671-.348 5.6 5.6 0 0 0-2.816.544 5.7 5.7 0 0 0-1.722 1.266 5.3 5.3 0 0 0-.783 1.079 3 3 0 0 0-.198.416s.068-.144.223-.4q.343-.569.801-1.053a5.7 5.7 0 0 1 1.722-1.223 5.66 5.66 0 0 1 4.392-.153 6.8 6.8 0 0 1 1.593.85 8.3 8.3 0 0 0 1.722 1.002c.336.127.692.19 1.051.187q.552-.013 1.085-.153a7.6 7.6 0 0 1 2.187-.4 4.7 4.7 0 0 1 2.213.604 4.5 4.5 0 0 1 1.708 1.723c.399.718.592 1.529.557 2.347v.102h.103a15.7 15.7 0 0 1 4.401.518 10.2 10.2 0 0 1 4.168 2.03c.392.346.732.747 1.007 1.19.262.44.443.924.534 1.427.095.491.095.996 0 1.487a3 3 0 0 1-.646 1.308l-.095.12.147.042c.852.239 1.643.65 2.325 1.208a6.3 6.3 0 0 1 1.632 2.032c.394.783.619 1.637.66 2.51a6.2 6.2 0 0 1-.424 2.559c-.292.739-.732 1.402-1.042 2.098a3.03 3.03 0 0 0-.258 2.192 4.6 4.6 0 0 0 1.171 1.7c.456.43.865.906 1.223 1.418a3.53 3.53 0 0 1 .327 3.033 3.48 3.48 0 0 1-1.49 1.81 3.7 3.7 0 0 1-1.412.518c-.336.06-.516.051-.516.06m-70.233-24.715v-.127l.06-.366c.06-.331.138-.807.241-1.41s.258-1.351.491-2.2a12.4 12.4 0 0 1 1.085-2.77 8.4 8.4 0 0 1 2.342-2.719 6.4 6.4 0 0 1 1.783-.917 19 19 0 0 1 2.118-.442 6.1 6.1 0 0 0 2.161-.765 9.2 9.2 0 0 0 1.826-1.538c.56-.578 1.102-1.19 1.722-1.699a6.5 6.5 0 0 1 2.136-1.342 12.1 12.1 0 0 1 4.891-.663 31.5 31.5 0 0 1 4.616.527 23.9 23.9 0 0 1 7.362 2.617 16.6 16.6 0 0 1 4.125 3.262c.207.23.396.433.551.62l.37.476.233.297.077.094-.06-.102-.215-.306-.353-.501-.543-.629a16.1 16.1 0 0 0-4.107-3.33 24 24 0 0 0-7.406-2.685 32 32 0 0 0-4.65-.535 12.3 12.3 0 0 0-4.969.67 6.9 6.9 0 0 0-2.161 1.343c-.629.56-1.171 1.173-1.722 1.75a9.2 9.2 0 0 1-1.774 1.513 5.8 5.8 0 0 1-2.11.747q-1.076.165-2.127.45c-.66.216-1.28.537-1.834.952a8.6 8.6 0 0 0-2.368 2.778 12.4 12.4 0 0 0-1.077 2.813q-.286 1.096-.456 2.217c-.103.612-.164 1.087-.207 1.41v.374c0 .093-.051.136-.051.136"/></g></g><path stroke="#CDC5FF" stroke-width="2.33" d="M729.02 128.47c0 65.169-52.469 117.985-117.177 117.985-64.707 0-117.177-52.816-117.177-117.985s52.47-117.985 117.177-117.985S729.02 63.301 729.02 128.47Z"/><path stroke="#EEEBFF" stroke-width="2.33" d="M707.913 128.471c0 53.433-43.02 96.735-96.071 96.735s-96.071-43.302-96.071-96.735 43.02-96.736 96.071-96.736 96.071 43.303 96.071 96.736Z"/><circle cx="729.32" cy="132.815" r="27.961" fill="#FFEBEC"/><path fill="#FF646E" fill-rule="evenodd" d="M714.176 121.942a4.27 4.27 0 0 1 4.271-4.272h18.641a4.27 4.27 0 0 1 4.271 4.272v7.767a1.164 1.164 0 1 1-2.329 0v-7.767a1.94 1.94 0 0 0-1.942-1.942h-18.641a1.94 1.94 0 0 0-1.942 1.942v21.747c0 1.073.87 1.943 1.942 1.943h7.767a1.165 1.165 0 1 1 0 2.329h-7.767a4.27 4.27 0 0 1-4.271-4.272z" clip-rule="evenodd"/><path fill="#FF646E" fill-rule="evenodd" d="M737.363 135.327a2.72 2.72 0 0 1 3.843 0l2.464 2.464a2.72 2.72 0 0 1 0 3.843l-5.53 5.53c-.51.51-1.201.797-1.922.797h-4.017a1.166 1.166 0 0 1-1.165-1.165v-4.017c0-.721.287-1.412.796-1.922zm1.646 1.647-5.53 5.53a.4.4 0 0 0-.114.275v2.852h2.853c.103 0 .201-.04.274-.114l5.531-5.53a.39.39 0 0 0 0-.549m0 0-2.464-2.464a.39.39 0 0 0-.55 0m-10.078-4.159a1.164 1.164 0 1 0-2.329 0v1.166h-1.165a1.165 1.165 0 1 0 0 2.329h1.165v1.166a1.164 1.164 0 0 0 2.329 0v-1.166h1.166a1.165 1.165 0 1 0 0-2.329h-1.166zm-6.989-7.766c0-.643.522-1.165 1.165-1.165h9.32a1.166 1.166 0 0 1 0 2.329h-9.32a1.165 1.165 0 0 1-1.165-1.164" clip-rule="evenodd"/><g clip-path="url(#health-team_svg__c)"><ellipse cx="365.803" cy="132.555" fill="#EEEBFF" rx="72.308" ry="71.381"/><mask id="health-team_svg__d" width="175" height="172" x="279" y="32" maskUnits="userSpaceOnUse" style="mask-type:alpha"><path fill="#fff" fill-rule="evenodd" d="M453.151 32.621H279.612v105.644h14.693c1.368 16.841 8.756 32.73 20.947 44.764 13.56 13.386 31.952 20.907 51.129 20.907s37.569-7.521 51.13-20.907c12.19-12.034 19.578-27.923 20.946-44.764h14.694z" clip-rule="evenodd"/></mask><g mask="url(#health-team_svg__d)"><path fill="#FFBE9D" d="m376.46 58.554.517 40.936c.089 6.959-1.22 17.203-12.356 16.842-9.648-1.036-12.198-10.06-12.267-16.556-.042-3.087-.076-5.657-.097-5.97 0 0-10.55-.852-11.439-11.158-.435-4.982-.476-15.308-.407-24.653a19.15 19.15 0 0 1 5.261-13.037 19.57 19.57 0 0 1 12.808-6.047l1.006-.075c10.916-.13 17.119 8.936 16.974 19.718"/><path fill="#EB996E" d="M352.258 93.806a25.43 25.43 0 0 0 13.279-4.949s-2.756 7.77-13.231 7.593z"/><path fill="#27272E" d="M358.225 62.221c.207.205 1.413-.75 3.157-.797s3.052.797 3.239.58c.089-.103-.131-.485-.69-.88a4.5 4.5 0 0 0-2.598-.73 4.25 4.25 0 0 0-2.501.907c-.531.43-.703.825-.607.92m1.785 3.544c.022.357.184.691.452.93s.62.366.982.351c.365 0 .716-.143.974-.399.259-.256.404-.602.404-.964a1.36 1.36 0 0 0-.921-1.234 1.4 1.4 0 0 0-.54-.074 1.4 1.4 0 0 0-.967.418q-.19.196-.29.448a1.4 1.4 0 0 0-.094.524m-6.146 8.465c0-.095-1.006-.19-2.64-.28-.413 0-.806-.06-.896-.333a2.03 2.03 0 0 1 .186-1.22q.462-1.513.986-3.17c1.378-4.511 2.302-8.178 2.122-8.26-.179-.082-1.433 3.564-2.791 8.07l-.93 3.19a2.3 2.3 0 0 0-.096 1.601 1.03 1.03 0 0 0 .689.546q.341.061.689.04a10.6 10.6 0 0 0 2.681-.184m5.106-18.504c.172.382 1.564.095 3.239.184 1.674.088 3.052.45 3.245.082.083-.178-.172-.532-.744-.873a5.3 5.3 0 0 0-2.446-.681 5.2 5.2 0 0 0-2.495.483c-.586.294-.868.62-.799.805m-16.581 3.203c.186.306 1.55-.034 3.198-.089s3.025.157 3.197-.163c.076-.157-.2-.437-.772-.682a5.8 5.8 0 0 0-2.439-.395 6 6 0 0 0-2.433.593c-.565.286-.827.586-.751.736"/><path fill="#FFBE9D" d="M376.177 66.25c.173-.09 7.009-2.611 7.298 4.457.29 7.068-6.939 5.903-6.96 5.698s-.338-10.156-.338-10.156"/><path fill="#EB996E" d="M378.589 73.638s.125.081.338.17c.302.116.636.116.937 0 .738-.307 1.33-1.513 1.31-2.795a4.06 4.06 0 0 0-.421-1.744 1.42 1.42 0 0 0-.978-.907.63.63 0 0 0-.411.063.6.6 0 0 0-.278.305c-.09.198-.042.341-.076.355-.035.013-.159-.116-.11-.41a.75.75 0 0 1 .261-.456.94.94 0 0 1 .69-.204 1.75 1.75 0 0 1 1.343 1.042c.329.6.504 1.269.51 1.95 0 1.431-.689 2.794-1.688 3.128a1.32 1.32 0 0 1-1.144-.143c-.262-.184-.31-.34-.283-.354"/><path fill="#27272E" d="M355.545 79.124c-.083-.177 1.316-.593 2.302-1.895.413-.569.746-1.19.992-1.847.207-.51.365-.831.441-.81s.055.374-.062.926a5.2 5.2 0 0 1-.917 2.045 4.3 4.3 0 0 1-1.826 1.363c-.544.266-.916.28-.93.218m30.136-24.346c-1.495-2.487-1.84-5.452-2.653-8.247s-2.378-5.664-5.141-6.639h-.062c-2.474-.981-5.513-.995-7.581.682-.503-3.674-3.762-6.577-7.387-7.497s-9.441-.375-12.915 1.008c-2.687 1.07-5.285 3.265-8.448 6.482a34.6 34.6 0 0 0-3.646 4.37l-3.149 9.63 2.701 5.05q.234.527.531 1.023l2.432 10.64c.159-2.904-.055-12.992.097-15.895a16.5 16.5 0 0 0 6.381-1.486 16.35 16.35 0 0 0 5.279-3.844c1.606-1.752 2.86-3.953 5.003-5.003 2.757-1.363 6.058-.368 8.959.634l-.124-.11a13 13 0 0 1 4.038 2.884 39.8 39.8 0 0 0 1.758 17.04c.275.824 1.02 2.521 1.84 2.835 1.598.613 2.033-1.002 2.997-1.86.69-.635 1.772-.682 2.922-.682a62 62 0 0 0 1.964-7.334c.97.297 1.997.364 2.998.197l-.923-2.18c.383.275.819.47 1.282.572a1.16 1.16 0 0 0 1.219-.525c.304-.572-.062-1.193-.372-1.745"/><path fill="#42424F" d="M366.957 41.828q.56.435 1.047.948a7.34 7.34 0 0 1 1.599 3.407c.179.862.269 1.739.269 2.618 0 .954-.076 1.97-.152 3.04a27 27 0 0 0-.076 3.408q.048.901.235 1.785a3.7 3.7 0 0 0 .737 1.725 1.57 1.57 0 0 0 1.468.49 2.35 2.35 0 0 0 1.323-.736 5.3 5.3 0 0 0 1.006-2.624h-.22a8.7 8.7 0 0 0 1.268 2.16 3.14 3.14 0 0 0 2.033 1.091 2.1 2.1 0 0 0 1.075-.184c.304-.154.557-.39.73-.681a1.8 1.8 0 0 0 .221-.913 1.26 1.26 0 0 0-.338-.798l-.11.095a6.8 6.8 0 0 0 2.239 1.663c.297.13.531.212.69.266q.12.047.248.062l-.235-.103a11 11 0 0 1-.689-.3 6.9 6.9 0 0 1-2.164-1.683l-.11.095a1.31 1.31 0 0 1 .069 1.534c-.16.273-.4.492-.689.627a1.8 1.8 0 0 1-.979.157 2.93 2.93 0 0 1-1.881-1.036 8.6 8.6 0 0 1-1.22-2.113l-.151-.334-.069.361a5.1 5.1 0 0 1-.958 2.502 2.08 2.08 0 0 1-1.186.681 1.34 1.34 0 0 1-1.247-.409 3.6 3.6 0 0 1-.689-1.622 12 12 0 0 1-.228-1.745 27 27 0 0 1 .063-3.353c.068-1.07.137-2.093.124-3.054a12.5 12.5 0 0 0-.304-2.651 7.3 7.3 0 0 0-1.695-3.456 4.2 4.2 0 0 0-1.054-.92m-32.218 10.04.083.068.262.19q.21.156.441.28.306.185.634.328a9.3 9.3 0 0 0 4.459.79 11.8 11.8 0 0 0 6.291-2.297 20.2 20.2 0 0 0 5.403-6.134c.758-1.254 1.379-2.529 2.068-3.715a13.6 13.6 0 0 1 2.329-3.135 7.06 7.06 0 0 1 3.005-1.806 5.1 5.1 0 0 1 1.585-.177c.492.029.978.12 1.447.272a6.04 6.04 0 0 1 3.349 2.802 6.8 6.8 0 0 1 .538 1.547v-.11c0-.074 0-.183-.049-.313a5.4 5.4 0 0 0-.399-1.165 5.7 5.7 0 0 0-1.165-1.561 6 6 0 0 0-2.212-1.363 5.3 5.3 0 0 0-3.143-.13 7.35 7.35 0 0 0-3.108 1.834 13.9 13.9 0 0 0-2.377 3.183c-.689 1.192-1.309 2.467-2.068 3.7a20.2 20.2 0 0 1-5.327 6.135 11.8 11.8 0 0 1-6.202 2.31 9.4 9.4 0 0 1-4.41-.681c-.917-.505-1.413-.886-1.434-.852"/><path fill="#27272E" d="M342.313 62.868c.207.212 1.413-.75 3.157-.797s3.046.804 3.232.58c.089-.096-.124-.478-.689-.873a4.4 4.4 0 0 0-2.592-.73 4.3 4.3 0 0 0-2.508.9c-.531.436-.703.825-.6.92m2.399 2.897a1.34 1.34 0 0 0 .452.958 1.38 1.38 0 0 0 1.009.35c.365 0 .716-.143.974-.399.259-.255.404-.602.404-.964a1.36 1.36 0 0 0-.921-1.234 1.4 1.4 0 0 0-.54-.074c-.366 0-.716.143-.975.4a1.36 1.36 0 0 0-.403.963m-5.969-21.967c-.875 1.172-2.226 2.242-3.687 2.106a11 11 0 0 1-1.557-.43c-.51.307-.365 2.045 0 2.509a9.4 9.4 0 0 0 1.109 1.104c-1.702.934-3.273.504-5.106-.13a8.8 8.8 0 0 0 1.755 4.232 8.94 8.94 0 0 0 3.655 2.802 3.18 3.18 0 0 0 2.88 0 3.58 3.58 0 0 0 1.234-2.235 38.3 38.3 0 0 0 1.164-9.495z"/><path fill="#1900AF" d="m347.344 101.746 4.824-2.542s5.106 7.497 12.687 6.754 12.404-7.374 12.404-7.374l4.824 2.419-16.539 26.834z"/><path fill="#FAFAFC" d="m401.697 179.814-5.589-37.841 4.1-35.531-19.082-6.598-15.616 25.218-17.849-24.434-10.592 4.587c-9.228 4.001-17.559 12.643-19.468 22.424 0 .129-.048.259-.076.388-2.446 13.1.262 31.776.262 31.776l18.097-7.92-1.461-6.319 3.445 14.423s-14.782 53.286-12.68 70.755c0 0 27.904 6.134 53.602 1.969 25.698-4.164 32.672-5.343 32.672-5.343z"/><path fill="#FAFAFC" d="M400.208 106.442s11.102 9.542 12.329 22.799c1.226 13.257 3.494 25.102 3.494 25.102l-22.377 2.366s-.523-9.093 0-9.645c.524-.552 4.197-27.836 4.197-27.836z"/><path fill="#0A0A32" d="m333.189 178.669-.807 3.66 13.562 4.771c4.824 1.704 9.69 3.408 14.748 4.274 9.269 1.574 18.772.211 28.083-1.152 5.196-.757 11.026-1.908 13.893-6.271a257 257 0 0 1-69.479-5.282" opacity=".2"/><path fill="#1900AF" d="M319.448 159.06c.172.184 6.202 17.483 9.703 20.57 3.501 3.088 23.775 2.004 32.341-1.09s26.76-6.85 26.76-6.85l-2.757-13.952s-6.657.681-15.409 2.045c-3.17.511-32.169.184-32.169.184l-2.006-8.104z"/><path fill="#1900AF" d="M414.838 154.473c-.048 0-.551 22.792-2.998 25.709s-11.026 6.366-17.476 7.095c-6.451.729-45.808-1.043-51.576-5.8l22.742-15.676 23.169 5.657 6.485-2.761.592-12.214z"/><path fill="#27272E" d="M394.068 190.596a3 3 0 0 1-.31.382l-.937 1.057a32 32 0 0 1-1.537 1.629c-.62.613-1.296 1.363-2.116 2.044-.82.682-1.688 1.575-2.688 2.393-.999.818-2.067 1.697-3.225 2.59a77 77 0 0 1-7.911 5.207 79 79 0 0 1-8.538 4.151c-1.379.518-2.647 1.043-3.887 1.438-.614.204-1.206.416-1.778.593l-1.668.484c-1.054.32-2.033.538-2.881.743s-1.591.368-2.205.477l-1.378.252a3.5 3.5 0 0 1-.489.068q.23-.093.475-.136l1.378-.321a39 39 0 0 0 2.185-.531c.848-.232 1.812-.457 2.86-.798l1.647-.497c.572-.184 1.158-.402 1.771-.614 1.234-.402 2.509-.933 3.859-1.465a76 76 0 0 0 16.374-9.31c1.151-.88 2.254-1.711 3.232-2.556s1.889-1.616 2.702-2.352 1.523-1.431 2.15-2.044c.627-.614 1.158-1.132 1.578-1.582l.985-1.008q.164-.16.352-.294m-7.443-88.85-.09.184-.282.559-1.117 2.044-4.19 7.498-13.989 24.646-.138.245-.165-.225-.538-.729-17.228-23.351-5.19-7.102-1.378-1.936q-.216-.317-.358-.511a1.3 1.3 0 0 1-.11-.184q.08.075.144.163c.097.123.221.287.386.484l1.447 1.902 5.279 7.034 17.318 23.289.538.73h-.303c5.513-9.645 10.468-18.342 14.072-24.646l4.279-7.423 1.179-2.003.317-.518c.069-.089.11-.157.117-.15m-13.342 56.632a1.6 1.6 0 0 1-.035-.422c0-.32 0-.723-.034-1.213 0-1.104-.034-2.618-.055-4.465s0-4.137-.041-6.618v-7.15a.4.4 0 0 1 .082-.218.5.5 0 0 1 .167-.124.5.5 0 0 1 .205-.039h.552c5.823-.103 11.081 0 14.892.068l4.507.102 1.227.055q.216-.007.427.041a3 3 0 0 1-.427 0h-5.741c-3.811 0-9.083-.069-14.878.034h-.648a.05.05 0 0 0 0 .034v7.149c0 2.481 0 4.717-.042 6.619-.041 1.901-.041 3.36-.055 4.464v1.213q-.015.243-.103.47m22.473-1.888q.01.107 0 .212v.627c0 .572-.049 1.363-.076 2.385-.09 2.106-.214 5.085-.365 8.738v.089h-.09a273 273 0 0 1-9.007 3.34c-3.349 1.172-7.043 2.256-10.916 3.298-8.855 2.338-17.036 3.729-22.942 4.731l-7.001 1.158-1.902.3-.503.068h-.166s.055 0 .159-.047l.496-.103 1.895-.368 6.981-1.267c5.892-1.064 14.052-2.495 22.886-4.826 3.873-1.043 7.581-2.106 10.903-3.272a407 407 0 0 0 9.021-3.278l-.09.123c.2-3.647.365-6.632.482-8.731.062-1.009.118-1.807.152-2.386 0-.252.034-.457.048-.62a.7.7 0 0 1 .035-.171"/><path fill="#FFBE9D" d="M385.729 158.863a57 57 0 0 1 6.588-.471c1.119.057 2.231.212 3.322.464l-.476 9.849-6.981 2.76z"/><path fill="#27272E" d="M328.827 122.78q.218.568.331 1.165c.2.811.461 1.895.778 3.203.69 2.761 1.537 6.475 2.509 10.585s1.909 7.866 2.591 10.565l.813 3.197q.183.577.262 1.179a8 8 0 0 1-.393-1.145c-.241-.743-.551-1.827-.93-3.17-.744-2.685-1.702-6.413-2.695-10.544a423 423 0 0 1-2.405-10.612c-.275-1.322-.496-2.413-.689-3.231a9 9 0 0 1-.172-1.192m66.44 20.604a4 4 0 0 1-.869.088c-.558.041-1.378.075-2.356.116-1.999.068-4.755.123-7.801.123s-5.803-.068-7.795-.143c-.999-.041-1.805-.082-2.363-.116a4 4 0 0 1-.862-.096q.431-.072.869-.041h2.363l7.788.041h10.157q.436-.036.869.028m-40.383 16.692s-.173-.191-.435-.573l-1.068-1.615a115 115 0 0 0-3.673-5.235 117 117 0 0 0-3.969-5.016l-1.241-1.486a2.6 2.6 0 0 1-.427-.573q.3.202.531.478c.323.327.778.811 1.33 1.417a72 72 0 0 1 4.066 4.976c1.502 2.01 2.756 3.905 3.597 5.303.427.681.758 1.281.978 1.683q.195.301.311.641m3.955.183a8.4 8.4 0 0 1-1.702-2.815 8.4 8.4 0 0 1-.834-3.176c.103 0 .461 1.363 1.164 3.04s1.461 2.897 1.372 2.951m11.088-29.144a1.6 1.6 0 0 1-.255-.293l-.689-.866-2.433-3.237-7.911-10.735-7.835-10.81-2.344-3.306-.62-.906a1.8 1.8 0 0 1-.2-.334q.146.13.255.293l.689.866 2.433 3.237 7.925 10.749 7.836 10.81 2.343 3.305.62.907q.11.15.186.32m9.476-31.271a1.5 1.5 0 0 1-.111.355 9 9 0 0 1-.413 1.002 13 13 0 0 1-2.24 3.285 15.6 15.6 0 0 1-4.789 3.476 19.7 19.7 0 0 1-3.315 1.186c-1.23.292-2.485.467-3.749.525a16.2 16.2 0 0 1-7.126-1.418 16.7 16.7 0 0 1-4.906-3.319 15 15 0 0 1-2.467-3.115 9 9 0 0 1-.504-.954 2 2 0 0 1-.151-.348 19.4 19.4 0 0 0 3.301 4.239 16.8 16.8 0 0 0 4.865 3.197 16.2 16.2 0 0 0 6.974 1.363 18.2 18.2 0 0 0 6.94-1.649 15.8 15.8 0 0 0 4.741-3.354 14.2 14.2 0 0 0 2.302-3.176c.427-.824.606-1.308.648-1.295"/><path fill="#0A0A32" d="M342.788 181.477c18.393 1.52 37.758 1.922 52.975-13.155-16.009 6.496-35.87 10.633-52.975 13.155m52.926-22.648c-2.515-2.263-2.874-5.998-2.798-9.358.131-5.623 1.509-11.874 3.094-17.272-.323 9.583-1.047 18.021-.406 26.664" opacity=".2"/><path fill="#27272E" d="M337.889 159.987c0 .047-.331.272-.882.681a7.9 7.9 0 0 0-1.833 1.861 18 18 0 0 0-1.241 2.331 3.6 3.6 0 0 1-.537.975c.039-.371.142-.733.303-1.071.294-.854.69-1.671 1.178-2.433a6.4 6.4 0 0 1 1.985-1.867 2.75 2.75 0 0 1 1.027-.477m60.148-42.844a1.8 1.8 0 0 1-.034.422c-.042.307-.097.682-.173 1.2a308 308 0 0 0-.627 4.41 200 200 0 0 0-1.433 14.613 205 205 0 0 0-.345 14.681c0 1.881.062 3.408.09 4.451v1.213q.026.21 0 .423a3 3 0 0 1-.055-.423c0-.313-.055-.716-.09-1.206a123 123 0 0 1-.207-4.451c-.117-3.762-.103-8.97.242-14.709a163 163 0 0 1 1.543-14.633c.283-1.861.538-3.36.738-4.396q.146-.726.241-1.186.027-.212.11-.409"/></g></g><path stroke="#CDC5FF" stroke-width="2.33" d="M482.27 128.47c0 65.169-52.469 117.985-117.177 117.985S247.916 193.639 247.916 128.47 300.385 10.485 365.093 10.485 482.27 63.301 482.27 128.47Z"/><path stroke="#EEEBFF" stroke-width="2.33" d="M461.163 128.471c0 53.433-43.02 96.735-96.072 96.735s-96.071-43.302-96.071-96.735 43.02-96.736 96.071-96.736c53.052 0 96.072 43.303 96.072 96.736Z"/><g clip-path="url(#health-team_svg__e)"><ellipse cx="118.628" cy="132.84" fill="#EEEBFF" rx="72.308" ry="71.585"/><mask id="health-team_svg__f" width="175" height="173" x="31" y="32" maskUnits="userSpaceOnUse" style="mask-type:alpha"><path fill="#fff" fill-rule="evenodd" d="M205.397 32.622H31.858V137.85h14.64c1.215 17.155 8.638 33.369 21 45.607 13.56 13.425 31.953 20.967 51.13 20.967s37.569-7.542 51.129-20.967c12.363-12.238 19.786-28.452 21.002-45.607h14.638z" clip-rule="evenodd"/></mask><g mask="url(#health-team_svg__f)"><path fill="#FAFAFC" d="m147.521 189.798 2.466 2.453a1.43 1.43 0 0 0 2.015.001 1.4 1.4 0 0 0 .416-1.006 1.46 1.46 0 0 0-.416-.999l-2.466-2.453a1.42 1.42 0 0 0-1.554-.312 1.4 1.4 0 0 0-.461.312 1.4 1.4 0 0 0-.422.999c.007.376.158.736.422 1.005"/><path fill="#707683" d="M156.471 152.802a26 26 0 0 1-5.525 0 26 26 0 0 1 5.525 0"/><path fill="#B78876" d="M175.763 89.52c-.976-2.946.788-13.514-1.535-13.531-2.968-.029-2.118 11.925-2.123 13.015s-1.559 1.056-1.502.091c.08-1.385.571-15.042-2.42-14.804-1.649.13-1.438 3.112-1.438 3.112s.919 13.662-.485 13.73c-1.404.069-1.906-7.904-2.021-10.71-.114-2.685-1.249-3.753-2.494-2.838-1.244.914-.993 8.989-.924 11.686s.388 10.085-2.746 6.49c-3.133-3.594-6.849-5.212-8.173-4.957-1.324.256-1.37 2.158-.028 2.777 1.084.5 2.648 1.885 3.778 2.976.875.94 1.641 1.977 2.283 3.089a14.8 14.8 0 0 1 1.889 4.543 9.2 9.2 0 0 0 1.694 3.475 9.2 9.2 0 0 0 2.981 2.476l-.149 5.008 14.469-1.249.28-9.472c.148-7.24 1.421-12.112 2.186-16.417 1.227-6.865.336-7.075-.491-7.035-1.804.062-2.072 11.42-3.031 8.546"/><path fill="#AA6550" d="M175.762 98.81q-1.007.188-1.986.495a7.65 7.65 0 0 0-3.755 2.992 7.2 7.2 0 0 0-.668 1.329l-.086.216-.177-.148a11.9 11.9 0 0 0-3.356-1.959c-.913-.352-1.495-.471-1.484-.522.534.022 1.06.131 1.558.323a10.7 10.7 0 0 1 3.493 1.903l-.262.073q.27-.734.69-1.397a7.6 7.6 0 0 1 1.93-2.015 7.5 7.5 0 0 1 2.037-1.023 6.5 6.5 0 0 1 1.507-.29q.282-.03.559.023m-2.014 10.126a9.6 9.6 0 0 1-3.51.977 9.7 9.7 0 0 1-3.647-.086c0-.102 1.626 0 3.601-.255 1.975-.256 3.527-.733 3.556-.636"/><path fill="#FAFAFC" d="M134.914 109.367s7.54 3.833 11.507 9.353 15.947 22.635 15.947 22.635l-1.713-25.974 18.504-2.385s5.383 26.161 6.644 35.207c1.176 8.467.685 16.797-7.625 21.34-9.806 5.361-20.942-1.88-24.646-4.628-4.6-3.407-13.093-8.978-13.093-8.978z"/><path fill="#1900AF" d="m125.616 106.125-5.28-5.866-23.076-1.76-2.99 4.809 8.087 50.221-3.641 50.733h30.067z"/><path fill="#0A0A32" d="M100.108 192.194c.794-.84 2.095-2.004 3.254-2.027 8.31-.182 16.797-1.011 25.113-1.192l.32 15.286-4.047-1.885c-.228-1.704-.519-3.81-2.112-4.543-.902-.426-1.957-.261-2.933-.068-3.003.568-5.982 1.363-9.036 1.55s-6.249-.25-8.812-1.913a5.35 5.35 0 0 1-2.106-2.272 2.75 2.75 0 0 1 .359-2.936" opacity=".3"/><path fill="#FAFAFC" d="m120.337 100.259 14.782 9.517 3.128 10.21 2.991 31.834-3.299 32.578 5.696 19.863h-14.851l-.029-7.836-1.586-55.161-1.553-35.139z"/><path fill="#27272E" d="M128.299 148.868q.137-.197.246-.409c.159-.295.382-.699.656-1.21s.536-1.209.885-1.987c.159-.392.296-.824.456-1.278s.337-.931.468-1.448c1.244-4.088 2.072-9.988 1.895-16.502 0-.505-.034-1.005-.068-1.499v-.085l-.08-.034-2.318-.971.035.238 2.311-1.845.052-.04v-.057a19.9 19.9 0 0 0-1.056-6.587c-.571-1.925-1.216-3.583-1.775-4.946a61 61 0 0 0-1.399-3.157 24 24 0 0 0-.405-.824 2 2 0 0 0-.16-.278q.045.153.114.296l.371.846c.32.732.782 1.811 1.319 3.18a62 62 0 0 1 1.712 4.951 20 20 0 0 1 1.005 6.497l.051-.097-2.317 1.846-.183.147.217.091 2.312.971-.086-.119c.034.483.051.982.068 1.482.177 6.485-.61 12.362-1.803 16.468-.126.516-.297.993-.445 1.448s-.28.886-.434 1.277c-.331.778-.571 1.466-.839 1.999s-.457.926-.605 1.227a3 3 0 0 0-.2.409m10.381 20.726q.076-.212.126-.431.119-.462.314-1.238c.131-.517.291-1.204.445-1.976.154-.773.354-1.653.514-2.635.159-.983.359-2.056.508-3.214.148-1.159.296-2.402.433-3.708.24-2.618.4-5.509.4-8.547s-.183-5.922-.428-8.517c-.149-1.306-.274-2.55-.457-3.708-.182-1.159-.336-2.232-.513-3.215s-.366-1.856-.525-2.629a47 47 0 0 0-.451-1.976c-.137-.539-.24-.931-.32-1.238a2 2 0 0 0-.131-.426q.023.222.074.438c.068.312.154.732.268 1.255s.263 1.203.405 1.981.331 1.653.48 2.635c.148.983.337 2.05.479 3.209.143 1.158.291 2.39.428 3.696.229 2.612.394 5.492.406 8.518.011 3.027-.155 5.906-.377 8.518-.131 1.306-.24 2.544-.411 3.702-.171 1.159-.308 2.232-.468 3.209s-.331 1.862-.468 2.635-.28 1.442-.4 1.987c-.119.545-.194.937-.262 1.249q-.056.21-.069.426m-3.579 26.644c.156.467.371.911.639 1.323a21.8 21.8 0 0 0 4.509 5.475c.355.344.752.641 1.182.885a11 11 0 0 0-1.045-1.033 33 33 0 0 1-2.397-2.584 31 31 0 0 1-2.072-2.839 11 11 0 0 0-.816-1.227"/><path fill="#0A0A32" d="M127.722 169.583c-1.564-.812-3.476-.387-5.137.244-1.661.63-3.282 1.476-5.046 1.459-2.397 0-5.793-.891-7.043-2.919a27.2 27.2 0 0 1-3.031-7.456c-1.906-8.727-2.34-16.388-4.246-25.121-1.039-4.748-2.357-10.222-4.127-14.765-1.712-4.389-3.31-8.932-4.657-13.447.24 10.222.48 20.523 2.066 30.665 1.027 6.513 2.603 12.93 3.465 19.46.736 5.593.941 11.244 1.141 16.882l5.348 6.508 14.743.295 7.699-9.88z" opacity=".3"/><path fill="#FAFAFC" d="M74.288 108.93a18.2 18.2 0 0 0-7.21 5.057 18.1 18.1 0 0 0-3.977 7.834c-4.327 18.989-11.735 44.241-11.85 52.39-.148 10.375 4.413 17.479 10.366 18.79 4.708 1.034 47.373-1.289 47.373-1.289l2.02-17.717-34.582-3.163 4.731-26.309-4.686-36.439z"/><path fill="#FAFAFC" d="m76.485 108.084 9.56-3.884 10.92-5.871.102.318c-1.233 2.101-2.546 5.979-2.083 8.37l8.378 43.509-1.9 31.8-2.746 21.947H71.19l9.982-23.378-4.914-43.907z"/><path fill="#27272E" d="M81.45 141.866q-.06.139-.08.29c-.04.227-.096.505-.165.846-.142.772-.337 1.823-.57 3.106-.469 2.663-1.096 6.275-1.799 10.267-.701 3.992-1.272 7.615-1.712 10.284a543 543 0 0 1-.49 3.123l-.115.852a1 1 0 0 0 0 .301 1.7 1.7 0 0 0 .075-.296c.05-.221.102-.499.176-.84.143-.772.337-1.823.571-3.106.48-2.624 1.142-6.247 1.81-10.267.667-4.021 1.29-7.649 1.712-10.284l.485-3.123c.046-.347.08-.625.108-.852q.01-.15-.005-.301m10.274-40.471s0 .034-.04.102-.052.193-.091.318c-.069.284-.194.693-.303 1.238a38 38 0 0 0-.73 4.685 53 53 0 0 0-.183 7.143c.091 2.715.382 5.719.793 8.899v.102h.097l3.128.568-.109-.193c-.176.477-.365.993-.508 1.521a19.3 19.3 0 0 0 .36 10.551 33.2 33.2 0 0 0 3.67 7.865c1.301 2.101 2.483 3.719 3.293 4.844l.948 1.278.251.329c.057.068.091.108.097.102a1 1 0 0 0-.074-.119c-.057-.097-.137-.205-.229-.347l-.901-1.311c-.782-1.136-1.935-2.771-3.214-4.884a33.7 33.7 0 0 1-3.59-7.831 19.2 19.2 0 0 1-.33-10.403 17 17 0 0 1 .49-1.487l.063-.165-.166-.029-3.127-.567.114.119c-.417-3.174-.714-6.167-.828-8.876a55.5 55.5 0 0 1 .12-7.115q.193-2.357.645-4.679c.097-.568.205-.96.257-1.249 0-.125.045-.233.063-.324a.5.5 0 0 0 .034-.085m-.001 44.627v-6.939s-.091-1.703 1.358-1.351 1.176 3.061 1.176 3.061.274 10.55-.36 10.459c-.633-.09-.878-.903-.878-.903v-4.054z"/><path fill="#27272E" d="M85.669 146.454a49.4 49.4 0 0 0 7.477 0 49.4 49.4 0 0 0-7.477 0m-13.784-33.402q.381.17.782.284 1.065.385 2.078.892a16.14 16.14 0 0 1 5.604 4.759q.63.843 1.102 1.783.412.891.662 1.839a18.6 18.6 0 0 1 .57 3.283c.08.942.098 1.703.103 2.271q-.03.415 0 .829.093-.41.092-.829.06-1.136 0-2.271a17 17 0 0 0-.502-3.334 11 11 0 0 0-.663-1.891 12.4 12.4 0 0 0-1.141-1.834 15.5 15.5 0 0 0-5.748-4.781 14 14 0 0 0-2.129-.818 4.2 4.2 0 0 0-.81-.182m37.116 78.66a2 2 0 0 1 0-.335c0-.239.051-.568.091-.965.086-.864.211-2.096.371-3.64.348-3.141.834-7.564 1.404-12.794l.12.153-12.842-1.084-21.689-1.903a11.4 11.4 0 0 0-6.34 1.244q-.791.418-1.513.942l-.371.284a.6.6 0 0 1-.132.086 8.6 8.6 0 0 1 1.964-1.414 11.3 11.3 0 0 1 6.41-1.352l21.717 1.817 12.842 1.108h.137v.136c-.617 5.218-1.142 9.653-1.507 12.782l-.457 3.629c-.051.403-.097.721-.125.96a2 2 0 0 1-.08.346"/><path fill="#27272E" d="M99.715 192.184a3.7 3.7 0 0 1-.102-.744 40 40 0 0 1-.126-2.056 54.2 54.2 0 0 1 1.199-13.487c.188-.846.354-1.527.49-1.998a3.4 3.4 0 0 1 .234-.716q-.023.377-.119.744c-.109.534-.24 1.21-.4 2.01a71 71 0 0 0-.93 6.695 72 72 0 0 0-.269 6.746c0 .824.03 1.511.035 2.05q.035.379-.012.756m4.897-5.554s.143-.074.422-.074c.402.014.789.153 1.108.397a1.83 1.83 0 0 1 .759 1.568 2 2 0 0 1-1.227 1.737 1.99 1.99 0 0 1-2.072-.488 1.7 1.7 0 0 1-.411-1.704 1.76 1.76 0 0 1 .656-.971.77.77 0 0 1 .394-.181c0 .028-.126.091-.32.267a1.8 1.8 0 0 0-.525.937 1.5 1.5 0 0 0 .4 1.442 1.72 1.72 0 0 0 1.775.403 1.76 1.76 0 0 0 1.056-1.476 1.63 1.63 0 0 0-.611-1.386 2 2 0 0 0-.993-.443 4 4 0 0 1-.411-.028"/><path fill="#27272E" d="m97.084 98.18-.178.109-.57.312-2.106 1.187-8.14 4.48-13.698 5.713a14.7 14.7 0 0 0-6.9 5.678 19.6 19.6 0 0 0-2.18 4.39 22.8 22.8 0 0 0-1.216 5.014c-2.534 10.789-5.41 23.174-8.202 36.343-.57 2.839-1.141 5.633-1.712 8.398-.143.693-.257 1.386-.383 2.073-.125.687-.256 1.369-.342 2.056a22.4 22.4 0 0 0-.211 4.088 20.4 20.4 0 0 0 1.815 7.712 14.7 14.7 0 0 0 2.043 3.265 11.5 11.5 0 0 0 2.854 2.43 12.25 12.25 0 0 0 6.975 1.704l6.94-.142c4.475-.108 8.647-.239 12.454-.369l18.036-.653 4.903-.188 1.278-.039h.434l-.434.034-1.272.074-4.903.238c-4.258.199-10.417.471-18.03.75a1166 1166 0 0 1-12.46.403l-6.946.159a12.5 12.5 0 0 1-7.118-1.732 12 12 0 0 1-2.933-2.482 15.3 15.3 0 0 1-2.084-3.327 20.7 20.7 0 0 1-1.849-7.82 22.4 22.4 0 0 1 .211-4.139c.086-.699.223-1.38.343-2.067s.24-1.386.382-2.073a314 314 0 0 1 1.712-8.404c2.791-13.163 5.68-25.554 8.236-36.343a23 23 0 0 1 1.21-5.048 19.4 19.4 0 0 1 2.22-4.435 14.87 14.87 0 0 1 7.021-5.741l13.732-5.679 8.174-4.412 2.157-1.136.57-.29zm96.144 53.073-43.406 46.064-42.339.261-1.005-1.913 41.734-44.986z"/><path fill="#FAFAFC" d="M152.202 150.679s2.82 0 3.659.977c.976 1.169 2.853 3.804-1.245 10.511-1.632 2.686-9.64 11.925-12.933 21.391-3.076 8.836-1.672 11.754-1.672 11.754l30.547-.971.57-1.096s13.282-35.775 9.766-42.589c-1.621-3.106-28.909-1.124-28.692.023"/><path fill="#E6E6F0" d="m175.632 193.433-32.859.272c-.394-8.279 2.495-14.293 6.792-21.396 1.644-2.72 3.893-5.049 5.531-7.774a20.86 20.86 0 0 0 2.939-9.45c.086-1.328 0-2.765-.816-3.816s-3.75-1.107-5.017-.567a9.6 9.6 0 0 1 4.84-1.778c2.654-.221 24.377-.074 28.418-.04.976.043 1.944.199 2.883.466 2.945 1.516 3.55 5.508 3.133 8.382-.394 2.72-2.089 5.286-4.218 8.16q-.929 1.236-1.712 2.566c-2.243 3.868-8.436 14.714-9.549 18.456a17.1 17.1 0 0 0-.365 6.519"/><path fill="#27272E" d="m175.632 193.365-7.911.062-15.113.125-6.347.057h-2.123a5.6 5.6 0 0 1-1.188 0h-.177c-.017 0 .046-.608.04-.676v-.857q0-.835.052-1.67a28.6 28.6 0 0 1 1.107-6.28c1.222-4.123 3.316-7.95 5.531-11.596 1.215-2.01 2.722-3.81 4.115-5.679a23.6 23.6 0 0 0 3.23-5.786 20.2 20.2 0 0 0 1.307-6.428c.04-1.408-.165-3.339-1.655-3.975a5.6 5.6 0 0 0-2.14-.375c-.485 0-1.61-.062-2.026.273-.12.09-.057.125.028.102a1 1 0 0 0 .194-.136c.223-.148.457-.29.691-.415a10 10 0 0 1 2.54-.948c1.769-.392 3.687-.279 5.491-.296 5.627-.045 11.261 0 16.894 0l6.501.04a15.2 15.2 0 0 1 3.048.29c1.712.358 2.854 2.078 3.356 3.64.533 1.704.631 3.513.285 5.264-.434 2.22-1.661 4.208-2.933 6.047-1.142 1.659-2.335 3.26-3.351 5.009-.696 1.221-1.393 2.436-2.083 3.663-1.65 2.93-3.271 5.883-4.777 8.898-1.296 2.584-2.546 5.145-2.746 8.075a17 17 0 0 0 .12 3.645c0 .091.154.052.137-.039a15.63 15.63 0 0 1 1.227-8.694c1.29-2.925 2.82-5.753 4.355-8.552q2.1-3.833 4.292-7.609c2.129-3.663 5.554-6.86 6.027-11.267.292-2.754-.348-6.814-3.253-8.046a8.7 8.7 0 0 0-3.145-.46h-2.374c-5.531-.034-11.067-.063-16.598-.057-2.386 0-4.771 0-7.157.046-2.163.039-4.235.249-6.164 1.368a6.5 6.5 0 0 0-.759.5c-.052.04 0 .142.074.119a6.26 6.26 0 0 1 3.91-.057c1.712.568 1.912 2.612 1.843 4.174a20.87 20.87 0 0 1-3.482 10.488c-1.016 1.533-2.191 2.959-3.293 4.435a45 45 0 0 0-2.854 4.401 49 49 0 0 0-4.132 8.671 29.4 29.4 0 0 0-1.535 10.846q0 .031.021.052a.08.08 0 0 0 .053.022l11.101-.091 17.694-.147 4.058-.034a.1.1 0 0 0 .034 0 .1.1 0 0 0 .03-.015.1.1 0 0 0 .021-.027.1.1 0 0 0 .006-.033.1.1 0 0 0-.009-.033.1.1 0 0 0-.023-.025.1.1 0 0 0-.031-.012.1.1 0 0 0-.034.003"/><path fill="#27272E" d="M173.691 186.607c0 .085-5.793.148-12.945.148s-12.945-.063-12.945-.148 5.799-.148 12.945-.148 12.945.069 12.945.148m.725-4.304c0 .079-5.793.147-12.945.147-7.151 0-12.945-.068-12.945-.147 0-.08 5.799-.148 12.945-.148s12.945.062 12.945.148m3.481-4.623c0 .08-5.799.148-12.945.148s-12.944-.068-12.944-.148 5.793-.147 12.944-.147 12.945.062 12.945.147m2.141-4.224c0 .079-5.793.147-12.945.147s-12.945-.068-12.945-.147c0-.08 5.799-.148 12.945-.148s12.945.068 12.945.148m1.427-3.862c0 .08-5.793.148-12.939.148s-12.945-.068-12.945-.148 5.793-.147 12.945-.147 12.939.062 12.939.147m3.516-5.076c0 .085-5.793.147-12.945.147s-12.945-.062-12.945-.147c0-.086 5.799-.148 12.945-.148s12.945.068 12.945.148m3.31-4.856c0 .08-5.793.148-12.944.148s-12.945-.068-12.945-.148 5.799-.147 12.945-.147c7.145 0 12.944.068 12.944.147m-.24-4.616c0 .08-5.793.148-12.939.148s-12.962-.068-12.962-.148 5.793-.148 12.945-.148 12.956.063 12.956.148"/><path fill="#707683" d="M148.212 150.679a1 1 0 0 1 .177.125l.514.403 1.963 1.59.051.046-.045.051c-3.533 3.844-11.193 12.061-20.08 21.539-6.13 6.683-12.037 12.413-16.312 16.541a589 589 0 0 1-5.091 4.861l-1.404 1.306-.371.329-.131.108s.034-.045.108-.125l.354-.357 1.364-1.346 5.028-4.923c4.235-4.174 10.108-9.91 16.238-16.599 8.887-9.477 16.592-17.649 20.2-21.425v.097l-1.93-1.642-.49-.425a1 1 0 0 1-.143-.154"/><path fill="#B78876" d="M110.975 176.028h6.199s4.189-3.634 5.137-3.913c1.991-.596 7.134-1.22 7.134-1.22l-3.51 3.793c-.816.874-2.312 1.664-1.427 1.664h6.45s6.592-3.146 7.573-2.573c.822.483 1.108 1.357.269 2.573s-6.621 4.088-7.289 4.31l-1.889.568 1.775.567 8.407-2.924c.542-.097 1.302-.187 1.547.131a1.14 1.14 0 0 1 .318.818 1.13 1.13 0 0 1-.364.8 36 36 0 0 1-3.801 2.97s1.341 1.965.228 2.958-4.332 3.975-4.332 3.975-.336 1.658-1.335 2.431c-.999.772-11.986.772-12.78.772s-5.222-2.538-5.222-2.538l-4.823-.358z"/><path fill="#AA6550" d="M130.142 186.726a3.4 3.4 0 0 0 1.204.165 3.7 3.7 0 0 0 1.313-.233 7.4 7.4 0 0 0 1.432-.755 93 93 0 0 0 2.415-1.613q.52-.31.959-.727a5.7 5.7 0 0 0-1.056.568c-.64.381-1.507.931-2.46 1.545a7.7 7.7 0 0 1-1.376.749c-.393.158-.809.25-1.233.273-.73.04-1.198-.012-1.198.028m-.524 4.095c.214.251.512.416.839.465a3.1 3.1 0 0 0 2.283-.374 9.4 9.4 0 0 0 1.843-1.363c.423-.403.651-.687.622-.71q-1.246.99-2.591 1.845a3.16 3.16 0 0 1-2.106.426 5 5 0 0 1-.89-.289m-3.095-9.058a4.4 4.4 0 0 0 1.741-.136 4.3 4.3 0 0 0 1.649-.568 9.6 9.6 0 0 0-1.712.313 9 9 0 0 0-1.678.391"/><path fill="#27272E" d="M84.47 58.783c-.81-1.44-1.9-2.707-3.207-3.725a12.585 12.585 0 0 0-13.99-.977c-2.46 1.42-4.51 3.975-4.344 6.814.154 2.67 2.152 4.822 4.036 6.724-3.003 1.243-4.504 5.025-3.522 8.103s4.075 5.253 7.306 5.548 6.49-1.102 8.824-3.35a17.63 17.63 0 0 0 4.611-8.393"/><path fill="#27272E" d="M74.219 65.665a5.2 5.2 0 0 1-1.644.414 7.8 7.8 0 0 1-4.498-.93 7.9 7.9 0 0 1-2.46-2.05 7.6 7.6 0 0 1-1.501-3.351 9.04 9.04 0 0 1 .245-4.191 9.1 9.1 0 0 1 2.112-3.634 10.2 10.2 0 0 1 3.54-2.285 10.3 10.3 0 0 1 4.165-.668 9.4 9.4 0 0 1 6.279 2.572 6.2 6.2 0 0 1 1.85 4.157 5 5 0 0 1-.12 1.25c-.03.141-.075.244-.092.312s-.04.102-.046.102a7 7 0 0 0 .143-1.664 6.2 6.2 0 0 0-1.883-4.009 9.23 9.23 0 0 0-6.13-2.447 10.1 10.1 0 0 0-4.045.664 10 10 0 0 0-3.438 2.22 8.84 8.84 0 0 0-2.04 3.52 8.8 8.8 0 0 0-.243 4.056c.2 1.18.688 2.293 1.421 3.242a8 8 0 0 0 2.983 2.321 8 8 0 0 0 3.723.694q.85-.09 1.678-.295"/><path fill="#707683" d="M77.906 68.141q-.18.151-.394.25a7 7 0 0 1-1.142.517 10 10 0 0 1-1.826.454 11.4 11.4 0 0 1-2.312.08 10.8 10.8 0 0 1-2.283-.426 10 10 0 0 1-1.74-.722 8 8 0 0 1-1.068-.681c-.234-.187-.354-.295-.342-.312s.57.352 1.506.806q.83.394 1.713.647a11.24 11.24 0 0 0 6.261-.045c1.016-.307 1.598-.62 1.627-.568m-14.987-6.746q.062-.358.228-.682a3.9 3.9 0 0 1 1.21-1.556 5.7 5.7 0 0 1 2.78-.93 13.8 13.8 0 0 1 3.578.17 19 19 0 0 1 6.113 2.095q.86.474 1.655 1.05.314.192.57.455a3 3 0 0 1-.621-.364 29 29 0 0 0-1.713-.954 20.5 20.5 0 0 0-6.06-1.993 14.3 14.3 0 0 0-3.5-.187 5.66 5.66 0 0 0-2.682.829c-.52.372-.942.866-1.227 1.436q-.15.324-.331.63m17.43 11.392s0 .069-.08.193c-.08.125-.171.29-.308.511a9.4 9.4 0 0 1-1.438 1.67 9.8 9.8 0 0 1-2.751 1.772 9.7 9.7 0 0 1-3.944.778 9.5 9.5 0 0 1-3.922-.858 7.3 7.3 0 0 1-2.585-2.01 4.8 4.8 0 0 1-.953-1.987 3 3 0 0 1-.074-.597v-.204s.034.284.17.772c.2.692.545 1.335 1.011 1.885a7.35 7.35 0 0 0 2.534 1.897c1.2.53 2.5.805 3.813.806a9.8 9.8 0 0 0 3.83-.732 10 10 0 0 0 2.716-1.704 13.8 13.8 0 0 0 1.981-2.192"/><path fill="#707683" d="M81.44 75.739q-.278.407-.628.755a27 27 0 0 1-1.883 1.891c-.417.38-.89.784-1.416 1.193a9.1 9.1 0 0 1-6.57 2.095 8.17 8.17 0 0 1-4.6-1.579 8.34 8.34 0 0 1-2.414-3.151 7.3 7.3 0 0 1-.634-2.595 5.5 5.5 0 0 1 0-.733q.006-.126.04-.25a1 1 0 0 1 0 .256q-.005.359.04.715c.087.875.325 1.728.702 2.522a8.3 8.3 0 0 0 2.398 3.02 8 8 0 0 0 4.446 1.5 9.75 9.75 0 0 0 4.646-.875 10 10 0 0 0 1.758-1.135c.525-.398.999-.79 1.42-1.136a41 41 0 0 0 1.947-1.812q.354-.362.748-.681"/><path fill="#1900AF" d="m86.24 58.442.833.653c-.337-1.408-1.923-2.271-3.373-2.146a4.9 4.9 0 0 0-3.476 2.385 11.7 11.7 0 0 0-1.398 4.1c-.445 2.385-.668 4.929.285 7.155s3.425 3.975 5.776 3.407 3.67-3.129 4.024-5.514a13.32 13.32 0 0 0-2.671-10.04"/><path fill="#27272E" d="M82.97 69.243a3.65 3.65 0 0 1-2.283.488 4.8 4.8 0 0 1-1.616-.358c-.416-.164-.57-.477-.49-.482q.261.19.57.29a7 7 0 0 0 1.558.255 16 16 0 0 0 2.26-.193m1.158-4.213c-.908.123-1.827.144-2.74.062-.915.023-1.83-.055-2.728-.233a13 13 0 0 1 2.74-.062c.915-.016 1.83.062 2.728.233m-.913-4.504c0 .096-.845 0-1.838-.114a4.4 4.4 0 0 0-1.256.074c-.314.068-.502.148-.525.108-.022-.04.137-.182.463-.312a3.2 3.2 0 0 1 1.335-.165c.628.02 1.246.158 1.82.409m5.801-11.391c-.069-2.373 2.146-4.213 4.372-5.11s4.697-1.199 6.683-2.527c1.758-1.176 2.94-3.01 4.424-4.515a14.74 14.74 0 0 1 6.656-3.858 14.8 14.8 0 0 1 7.703.014 14.74 14.74 0 0 1 6.642 3.88 14.63 14.63 0 0 1 3.764 6.687c.856 3.407.274 7.383-2.409 9.654-3.116 2.612-7.739 2.033-11.729 1.22-3.989-.811-8.51-1.617-11.843.716-2.009 1.409-3.162 3.697-4.395 5.815s-2.768 4.276-5.091 5.071-5.48-.568-5.57-3.02"/><path fill="#27272E" d="M89.174 50.441c.263 1.999-1.187 3.782-2.63 5.19-1.445 1.409-3.072 2.902-3.328 4.895-.297 2.334 1.41 4.628.913 6.922-.314 1.46-1.45 2.584-2.14 3.907a8.23 8.23 0 0 0-.429 6.11c.571 2.01 1.541 6.497 2.945 8.058 3.882 4.316 10.057 8.041 15.731 9.336s11.563 1.306 17.374.948c4.754-.29 10.222-.074 14.189-6.581 2.049-3.373 3.07-7.854 4.16-11.641.936-3.266 1.753-6.758.771-10.012-.571-1.896-1.712-3.577-2.283-5.474-.702-2.368-.445-4.906-.731-7.382a16.8 16.8 0 0 0-2.748-7.46 16.9 16.9 0 0 0-5.874-5.382 17.04 17.04 0 0 0-15.515-.485"/><path fill="#B78876" d="M97.26 104.62s0 .143.03.211zm34.195-45.996c-.446-6.786-4.989-15.11-11.787-14.378l-21.226 5.389a4 4 0 0 0-2.576 1.33 3.96 3.96 0 0 0-.991 2.713l2.328 49.807c.033.846.227 1.678.571 2.453 1.575 3.452 6.815 12.237 18.184 8.682 2.786-.869 4.059-3.901 4.606-7.013 0-.369.155-.698.16-1.05.274-2.323.303-4.668.086-6.996.04-4.112.034-5.798.034-5.758s8.716-1.46 10.502-12.783c.908-5.627.599-14.855.109-22.396"/><path fill="#27272E" d="M128.036 66.007c.005.378-.14.743-.402 1.017a1.46 1.46 0 0 1-1.002.448 1.4 1.4 0 0 1-1.368-.773 1.4 1.4 0 0 1-.139-.534 1.44 1.44 0 0 1 .4-1.015c.261-.273.619-.435.998-.45a1.41 1.41 0 0 1 1.372.773c.082.167.13.348.141.534m1.415-2.579c-.183.187-1.29-.625-2.854-.619s-2.717.795-2.888.602c-.085-.085.103-.426.599-.79a4.04 4.04 0 0 1 2.312-.715 3.85 3.85 0 0 1 2.283.727c.474.363.639.71.548.795m-16.957 2.579c.007.377-.136.742-.398 1.016-.261.274-.62.435-1 .449a1.4 1.4 0 0 1-1.368-.773 1.4 1.4 0 0 1-.139-.534 1.45 1.45 0 0 1 1.399-1.465 1.4 1.4 0 0 1 1.367.773c.082.167.129.348.139.534m1.524-2.272c-.183.187-1.29-.625-2.854-.614s-2.717.79-2.888.602c-.086-.085.097-.431.571-.795.68-.47 1.489-.72 2.317-.715a3.9 3.9 0 0 1 2.283.727c.496.386.662.727.571.795m5.724 11.589c0-.09.971-.26 2.552-.465.399-.04.776-.12.845-.392a2.04 2.04 0 0 0-.269-1.181c-.382-.966-.776-1.976-1.193-3.038-1.655-4.322-2.853-7.87-2.682-7.95s1.661 3.407 3.316 7.706q.599 1.6 1.141 3.055c.256.478.331 1.032.212 1.561a1 1 0 0 1-.657.568 2.6 2.6 0 0 1-.679.097c-1.592.119-2.58.124-2.586.04"/><path fill="#AA6550" d="M120.867 93.83a29.06 29.06 0 0 1-15.222-4.037s3.847 7.83 15.234 6.746zm-1.782-14.763a2.87 2.87 0 0 0-2.54-1.04 2.6 2.6 0 0 0-1.78.954 1.63 1.63 0 0 0-.12 1.863 1.92 1.92 0 0 0 2.06.517 6 6 0 0 0 2.003-1.198 1.7 1.7 0 0 0 .446-.466.51.51 0 0 0 0-.568"/><path fill="#27272E" d="M115.126 76.415c.257 0 .263 1.704 1.712 2.879 1.45 1.175 3.276 1.01 3.288 1.25 0 .102-.405.329-1.17.351a4.24 4.24 0 0 1-2.746-.948 3.66 3.66 0 0 1-1.335-2.413c-.057-.71.131-1.13.251-1.119m-.406-15.4c-.154.425-1.712.227-3.561.454-1.85.227-3.334.727-3.579.346-.109-.181.148-.568.748-.993a6.27 6.27 0 0 1 5.439-.614c.679.273 1.01.602.953.807m14.144-2.107c-.274.352-1.359 0-2.66 0s-2.397.244-2.654-.125c-.114-.182.063-.534.542-.875a3.86 3.86 0 0 1 4.281.125c.462.335.61.699.491.875"/><path fill="#27272E" d="M90.503 86.863c1.57.31 3.19.246 4.73-.19a10.1 10.1 0 0 0 4.122-2.313 10.04 10.04 0 0 0 2.61-3.93 10 10 0 0 0 .524-4.68c-.354-2.777-1.861-5.61-.891-8.24 1.279-3.475 6.182-4.542 7.483-8.018.759-2.021.08-4.378.936-6.354.805-1.862 2.768-2.93 4.686-3.623s3.967-1.135 5.57-2.402c1.604-1.266 2.609-3.589 1.576-5.332a108.2 108.2 0 0 0-24.862 6.008c-1.855.693-3.807 1.522-4.903 3.163-1.142 1.738-1.108 3.975-1.01 6.065L92.5 87.51"/><path fill="#707683" d="M91.217 90.759a.8.8 0 0 1-.189-.12l-.502-.38c-.44-.346-1.09-.852-1.884-1.556a20 20 0 0 1-2.676-2.8 10.4 10.4 0 0 1-2.13-4.661 7.05 7.05 0 0 1 1.467-5.951 22.4 22.4 0 0 1 2.654-2.272 6.16 6.16 0 0 0 2.067-2.805c.839-2.311.468-4.98.793-7.712a15.3 15.3 0 0 1 3.225-7.802 10.6 10.6 0 0 1 3.373-2.742 21 21 0 0 1 3.995-1.335 9.25 9.25 0 0 0 3.493-1.704 13.6 13.6 0 0 0 2.54-2.782c1.427-2.016 2.483-4.168 3.847-5.962a12.7 12.7 0 0 1 2.243-2.368 8.6 8.6 0 0 1 2.654-1.443 5.74 5.74 0 0 1 5.057.5 4.63 4.63 0 0 1 1.792 3.407 3.4 3.4 0 0 1-.685 2.334 2.2 2.2 0 0 1-.462.437q-.172.136-.183.12c-.005-.012.046-.057.149-.154q.236-.207.416-.466c.459-.664.662-1.47.571-2.271a4.43 4.43 0 0 0-1.786-3.169 5.4 5.4 0 0 0-4.777-.391 8.3 8.3 0 0 0-2.529 1.402 12.8 12.8 0 0 0-2.146 2.34c-1.318 1.766-2.357 3.912-3.801 5.985a14.2 14.2 0 0 1-2.614 2.885 9.8 9.8 0 0 1-3.653 1.811 21 21 0 0 0-3.893 1.312 10.2 10.2 0 0 0-3.219 2.618 14.9 14.9 0 0 0-3.122 7.535c-.33 2.64.051 5.355-.845 7.808a6.65 6.65 0 0 1-2.22 2.981 23 23 0 0 0-2.625 2.187 6.75 6.75 0 0 0-1.427 5.621 10.3 10.3 0 0 0 2.003 4.543 21.5 21.5 0 0 0 2.58 2.84c.776.715 1.404 1.249 1.82 1.618q.338.255.629.562"/><path fill="#27272E" d="M137.391 73.059c.305-.304.532-.676.662-1.085a4.15 4.15 0 0 0-.651-3.322c-.393-.63-.924-1.255-1.461-1.965a6.8 6.8 0 0 1-1.312-2.532 8.9 8.9 0 0 1-.126-3.14c.12-1.085.337-2.187.479-3.311.28-2.123.025-4.28-.742-6.28a14.1 14.1 0 0 0-2.722-4.436c-.791-.876-1.7-1.64-2.7-2.271-.707-.449-1.141-.653-1.141-.676q.165.042.314.125.444.201.862.455a12.2 12.2 0 0 1 2.796 2.231 13.9 13.9 0 0 1 2.825 4.48 12.9 12.9 0 0 1 .782 6.412c-.142 1.135-.365 2.243-.485 3.304a8.6 8.6 0 0 0 .103 3.05 6.6 6.6 0 0 0 1.239 2.447c.525.71 1.055 1.352 1.449 2.005a4.2 4.2 0 0 1 .571 3.47 2.2 2.2 0 0 1-.508.834 1.2 1.2 0 0 1-.234.205"/></g></g><path stroke="#CDC5FF" stroke-width="2.33" d="M235.519 128.47c0 65.169-52.469 117.985-117.177 117.985-64.707 0-117.177-52.816-117.177-117.985S53.635 10.485 118.342 10.485 235.519 63.301 235.519 128.47Z"/><path stroke="#EEEBFF" stroke-width="2.33" d="M214.412 128.471c0 53.433-43.02 96.735-96.072 96.735-53.05 0-96.07-43.302-96.07-96.735s43.02-96.736 96.07-96.736c53.052 0 96.072 43.303 96.072 96.736Z"/><circle cx="246.99" cy="132.815" r="27.961" fill="#FFEBEC"/><path fill="#FF646E" fill-rule="evenodd" d="M230.292 132.816c0-.644.521-1.165 1.165-1.165h2.392a1.165 1.165 0 1 1 0 2.33h-2.392a1.165 1.165 0 0 1-1.165-1.165m28.799 0c0-.644.522-1.165 1.165-1.165h2.268a1.164 1.164 0 1 1 0 2.33h-2.268a1.166 1.166 0 0 1-1.165-1.165m-20.566 8.464a1.165 1.165 0 0 1 0 1.648l-1.694 1.693a1.164 1.164 0 1 1-1.647-1.647l1.693-1.694a1.165 1.165 0 0 1 1.648 0m20.272-20.271a1.164 1.164 0 0 1 0 1.647l-1.6 1.6a1.165 1.165 0 0 1-1.648-1.647l1.6-1.6a1.165 1.165 0 0 1 1.648 0m-11.807 23.783c.644 0 1.165.521 1.165 1.165v2.392a1.164 1.164 0 1 1-2.33 0v-2.392c0-.644.522-1.165 1.165-1.165m0-28.676c.644 0 1.165.522 1.165 1.165v2.268a1.164 1.164 0 1 1-2.33 0v-2.268c0-.643.522-1.165 1.165-1.165m8.466 25.164a1.165 1.165 0 0 1 1.648 0l1.693 1.694a1.164 1.164 0 1 1-1.648 1.647l-1.693-1.693a1.165 1.165 0 0 1 0-1.648m-20.272-20.271a1.164 1.164 0 0 1 1.647 0l1.6 1.6a1.164 1.164 0 1 1-1.647 1.647l-1.6-1.6a1.164 1.164 0 0 1 0-1.647m11.806 7.082a4.43 4.43 0 0 1 5.82-.018l.003.003.057.049c1.742 1.499 2.051 4.132.601 5.965-1.65 2.086-3.582 4.197-5.775 5.866a1.164 1.164 0 0 1-1.412 0c-2.139-1.63-4.031-3.678-5.654-5.713-1.491-1.871-1.289-4.599.552-6.182a4.43 4.43 0 0 1 5.808.03m-4.289 1.737a2.1 2.1 0 0 1 2.895.153l.546.579a1.164 1.164 0 0 0 1.697 0l.545-.579a2.1 2.1 0 0 1 2.904-.144l.001.001.056.048.004.004c.826.71.945 1.932.295 2.754-1.396 1.765-2.952 3.483-4.654 4.896-1.654-1.375-3.172-3.037-4.538-4.75m0 0c-.733-.92-.613-2.221.249-2.962z" clip-rule="evenodd"/><circle cx="493.981" cy="132.815" r="27.961" fill="#FFEBEC"/><path fill="#FF646E" fill-rule="evenodd" d="M481.216 131.651c.589-6.533 6.079-11.652 12.764-11.652 3.399 0 6.659 1.35 9.062 3.754a12.8 12.8 0 0 1 3.754 9.062c0 7.078-5.738 12.816-12.816 12.816-6.685 0-12.175-5.119-12.764-11.651h4.819c.388 0 .751-.194.968-.517l1.955-2.925 3.302 7.43a1.165 1.165 0 0 0 2.034.172l2.768-4.16h3.536a1.165 1.165 0 0 0 0-2.329h-4.16c-.39 0-.754.195-.97.519l-1.94 2.916-3.299-7.424a1.165 1.165 0 0 0-2.032-.175l-2.785 4.164zm-2.381 1.164c0 8.364 6.781 15.145 15.145 15.145s15.145-6.781 15.145-15.145a15.14 15.14 0 0 0-4.436-10.709 15.14 15.14 0 0 0-10.709-4.436c-8.364 0-15.145 6.781-15.145 15.145" clip-rule="evenodd"/><defs><clipPath id="health-team_svg__a"><path fill="#fff" d="M519.612 32.621h173.539v171.314H519.612z"/></clipPath><clipPath id="health-team_svg__c"><path fill="#fff" d="M279.612 32.621h173.539v171.314H279.612z"/></clipPath><clipPath id="health-team_svg__e"><path fill="#fff" d="M37.282 32.621H210.82v171.805H37.28z"/></clipPath></defs></svg>