<svg xmlns="http://www.w3.org/2000/svg" width="241" height="240" fill="none" viewBox="0 0 241 240"><g clip-path="url(#man-advocate_svg__a)"><circle cx="120.932" cy="140" r="100" fill="#EEEBFF"/><mask id="man-advocate_svg__b" width="241" height="240" x="0" y="0" maskUnits="userSpaceOnUse" style="mask-type:alpha"><path fill="#fff" fill-rule="evenodd" d="M240.932 0h-240v140h20c0 55.228 44.772 100 100 100s100-44.772 100-100h20z" clip-rule="evenodd"/></mask><g mask="url(#man-advocate_svg__b)"><path fill="#AA6550" d="M152.001 65.836c.813 0 11.816 1.836 11.816 1.836l14.887 18.756 2.243 3.552-20.08 12.84-8.866-13.126-7.526-4.892a7.66 7.66 0 0 1 7.947-.828 23.5 23.5 0 0 0 9.378 1.837l-2.649-7.527-8.159-1.625z"/><path fill="#27272E" d="M152.935 52.71a2.3 2.3 0 0 1 2.522.986c.174.272.289.577.338.897 1.219 7.691 4.907 30.842 6.021 37.631a2.2 2.2 0 0 1-1.596 2.499l-17.717 4.952a2.197 2.197 0 0 1-2.785-1.851l-4.847-38.43a2.32 2.32 0 0 1 1.731-2.544z"/><path fill="#E6E6F0" d="m141.043 94.933 18.063-5.042-4.787-31.972a3.1 3.1 0 0 0-1.36-2.129 3.08 3.08 0 0 0-2.493-.4L136 59.228z"/><path fill="#AA6550" d="m89.322 43.769 6.487 75.263 37.632-3.011c.225-4.395-.091-21.405-.091-21.405s15.67-2.438 15.866-18.063c.09-7.616-.994-23.331-2.138-37.496a28.99 28.99 0 0 0-30.556-26.688 28.99 28.99 0 0 0-27.2 31.4"/><path fill="#6B3B2F" d="M133.365 94.33a36.5 36.5 0 0 1-20.426-5.81s4.832 11.275 20.457 9.86z"/><path fill="#27272E" d="M141.043 50.001a2.244 2.244 0 0 1-2.168 2.258 2.137 2.137 0 0 1-2.303-2.017 2.244 2.244 0 0 1 2.153-2.258 2.154 2.154 0 0 1 2.318 2.017m2.709-3.161c-.271.301-1.972-.963-4.38-.948s-4.17 1.204-4.425.918c-.256-.286.15-.663.918-1.22a6.2 6.2 0 0 1 3.552-1.098 5.9 5.9 0 0 1 3.492 1.129c.738.557.994 1.098.843 1.219M117.922 50a2.226 2.226 0 0 1-2.152 2.259 2.154 2.154 0 0 1-2.318-2.017 2.256 2.256 0 0 1 2.167-2.258A2.15 2.15 0 0 1 117.922 50m2.167-2.709c-.271.286-1.972-.963-4.381-.948-2.408.015-4.169 1.204-4.425.903s.15-.647.918-1.204a6.02 6.02 0 0 1 3.552-1.099 5.83 5.83 0 0 1 3.493 1.13c.737.556.978 1.083.843 1.218m8.761 17.852a16 16 0 0 1 3.913-.707c.602 0 1.19-.18 1.295-.602a3.2 3.2 0 0 0-.407-1.822c-.587-1.505-1.189-3.01-1.821-4.68-2.529-6.67-4.35-12.148-4.079-12.239.271-.09 2.529 5.224 5.058 11.877.602 1.656 1.189 3.221 1.731 4.711.388.745.505 1.602.331 2.424a1.51 1.51 0 0 1-1.024.888 4 4 0 0 1-1.038.15 15.3 15.3 0 0 1-3.959 0m-7.105 1.672c.391 0 .391 2.589 2.634 4.516 2.243 1.926 5.012 1.505 5.043 1.941.03.437-.618.497-1.807.527a6.5 6.5 0 0 1-4.199-1.505 5.63 5.63 0 0 1-2.093-3.763c0-1.084.241-1.731.422-1.716m-1.024-28.961c-.241.662-2.649.346-5.479.692s-5.103 1.114-5.479.527c-.166-.286.226-.903 1.159-1.505a9.5 9.5 0 0 1 8.339-.919c1.039.377 1.55.904 1.46 1.205m22.159 2.016c-.421.557-2.092 0-4.079 0s-3.688.377-4.08-.195c-.165-.286.106-.828.843-1.355a5.92 5.92 0 0 1 6.563.21c.708.512.934 1.084.753 1.34m-36.61-13.276h-.09a12.33 12.33 0 0 0-4.516 7.977v.317c-.617 4.515-.497 9.031-1.159 13.547s-2.198 9.032-5.51 12.042c-1.354 1.265-3.747 2.138-4.861.662a3.7 3.7 0 0 1-.557-2.047c-.843-10.792-3.793-20.366-3.763-31.61a9.48 9.48 0 0 1 3.898-7.767c2.364-1.686 5.239-3.447 7.873-2.198s6.021 6.157 8.053 8.234"/><path fill="#AA6550" d="M94.605 50.86c-.27-.121-10.763-3.192-10.431 7.525.33 10.718 11.033 8.159 11.033 7.858s-.602-15.384-.602-15.384"/><path fill="#6B3B2F" d="M91.806 62.284s-.18.135-.482.286a1.87 1.87 0 0 1-1.4.075 4.62 4.62 0 0 1-2.273-4.064c-.055-.92.094-1.84.437-2.695a2.17 2.17 0 0 1 1.355-1.505.98.98 0 0 1 1.129.467c.15.3.09.512.15.527s.21-.181.12-.617a1.2 1.2 0 0 0-.451-.663 1.5 1.5 0 0 0-1.039-.24 2.68 2.68 0 0 0-1.896 1.73 6.3 6.3 0 0 0-.542 3.01c.135 2.169 1.31 4.14 2.86 4.517a2 2 0 0 0 1.7-.346c.332-.226.377-.467.332-.482"/><path fill="#27272E" d="M97.238 19.173c-2.634-4.29 4.591-10.446 9.875-12.042 5.283-1.595 12.253.903 17.506 2.65 3.327 1.098 6.623 2.634 10.13 2.498a24.5 24.5 0 0 0 6.789-1.73 17.2 17.2 0 0 1 6.849-1.356 6.44 6.44 0 0 1 5.63 3.568c.888 2.167-.376 5.148-2.71 5.464a5.255 5.255 0 0 1 7.708 3.861 5.26 5.26 0 0 1-1.608 4.59 5.25 5.25 0 0 1-4.685 1.303c1.506-1.16 3.854.753 3.658 2.65a5.52 5.52 0 0 1-3.658 4.064c-4.516 1.956-9.679 1.324-14.3-.226s-8.911-3.974-13.547-5.645-12.268-4.681-16.859-3.01c-3.387 1.204-5.75 5.283-7.662 4.38a6.53 6.53 0 0 1-3.387-4.817 18.9 18.9 0 0 1 .211-6.021"/><path fill="#555567" d="M152.586 17.879c-.09 0-.541.783-1.7 2.032a14.7 14.7 0 0 1-5.946 3.839 13.62 13.62 0 0 1-10.221-.407c-3.643-1.64-6.759-4.952-10.386-7.963a22.2 22.2 0 0 0-12.042-5.78 12.33 12.33 0 0 0-10.236 3.537 9.32 9.32 0 0 0-2.439 6.925 7 7 0 0 0 .467 1.971c.196.422.316.633.346.618a17 17 0 0 1-.406-2.604 9.26 9.26 0 0 1 2.574-6.398 11.75 11.75 0 0 1 9.694-3.1 21.66 21.66 0 0 1 11.44 5.614c3.522 3.01 6.743 6.367 10.642 8.068a14.54 14.54 0 0 0 16.874-4.049 9.6 9.6 0 0 0 1.114-1.656c.165-.406.256-.632.225-.647M91.865 50.392s.466-.3.873-1.144a7.36 7.36 0 0 0 .542-3.883c-.241-3.447-3.297-7.15-3.688-11.922a10.8 10.8 0 0 1 1.189-6.397 8.2 8.2 0 0 1 3.974-3.432 7 7 0 0 1 3.582-.497c.858.15 1.325.346 1.37.256a2.63 2.63 0 0 0-1.28-.647 6.64 6.64 0 0 0-3.928.18 8.7 8.7 0 0 0-4.516 3.643 11.44 11.44 0 0 0-1.4 7 19.8 19.8 0 0 0 2.062 6.743 20.4 20.4 0 0 1 1.882 5.193 8.1 8.1 0 0 1-.662 4.907"/><path fill="#AA6550" d="m158.73 71.541-8.113 6.021s.677 2.138 1.912 2.288a50 50 0 0 0 7.767-1.656z"/><path fill="#AA6550" d="m157.751 66.679-8.505 3.733s-.542 2.77 2.634 2.378l-2.845 2.047s.708 1.235 4.26 1.385c3.553.15 7-4.786 7-4.786z"/><path fill="#6B3B2F" d="M166.195 76.147c0 .106-1.038-.09-2.167-1.144a24 24 0 0 0-1.957-1.64 2.77 2.77 0 0 0-2.695-.332 51 51 0 0 1-7.375 3.492 36.8 36.8 0 0 1 7.104-4.23 3.4 3.4 0 0 1 1.822-.21 4.2 4.2 0 0 1 1.505.692c.705.544 1.35 1.16 1.927 1.837a17 17 0 0 0 1.836 1.535m-1.671 21.194a11.63 11.63 0 0 1-1.354-12.78 27.5 27.5 0 0 0-.467 6.503 27.3 27.3 0 0 0 1.821 6.277m-1.053-26.914c-.105.09-.556-.557-1.64-.903a5.76 5.76 0 0 0-4.32.497c-1.596.767-3.011 1.746-4.14 2.212s-1.927.572-1.942.482.663-.361 1.686-.978c1.024-.618 2.348-1.611 4.08-2.424a6.8 6.8 0 0 1 2.619-.707 4.7 4.7 0 0 1 2.212.406c1.129.557 1.445 1.385 1.445 1.415"/><path fill="#27272E" d="m162.764 123.759 44.24 28.404-11.726 33.537s-30.271-9.347-29.714-10.326c.557-.978-2.8-51.615-2.8-51.615"/><path fill="#27272E" d="M171.691 343.632s9.934-8.534 10.913-14.962c.978-6.427-11.907-109.884-11.907-109.884l-6.578-85.529c0 1.505.181-10.777-1.806-11.515-6.021-2.273-18.395-6.397-18.395-6.397l-7.074-6.353s12.704 54.31 15.173 69.152zM90.12 103.091l-10.688 7.12-40.085 15.76 17.807 67.15-2.394 39.016-2.272 24.762s-11.937 61.309-22.474 98.564c0 0 11.756 22.278 21.42 25.379l4.019 2.393 14.33-104.932 12.298-16.557a67 67 0 0 0 3.327-4.923c3.01-4.922 9.904-16.106 15.398-24.731 7.256-11.395 16.558-37.285 13.804-48.334-2.755-11.049-24.49-80.667-24.49-80.667"/><path fill="#E6E6F0" d="m90.12 103.092 9.648 61.911a89.5 89.5 0 0 1-3.898 23.332l-17.22 55.694s-13.548 30.361-8.866 34.245c4.68 3.884 41.093 0 41.093 0l49.282-7.15a4.334 4.334 0 0 0 3.688-4.696l-7.315-75.595c-2.469-5.223-3.477-15.91-4.516-19.703l-15.173-62.123-3.101-.406-6.743 4.621-3.553.286-29.82-14.435z"/><path fill="#E6E6F0" d="M81.134 235.946c7.963-24.822 18.274-65.178 18.274-65.178 3.206 21.074-.302 42.674-8.144 62.544-6.412 16.196-14.164 28.449-19.493 45.052l-.166.677s-3.01.166-2.8-4.274c.211-4.441 4.516-17.657 7.391-24.973s4.938-13.848 4.938-13.848"/><path fill="#1900AF" d="M128.715 118.475h-6.698l-2.002 9.167 5.855 7.09 5.901-.587 1.927-6.578-1.581-3.673z"/><path fill="#27272E" d="M167.776 172.002c2.107.422 25.378 16.077 33.838 14.391s15.308-9.664 16.212-10.733c4.801-5.69 1.791-17.506.406-21.961a15 15 0 0 0-1.37-3.116l-35.93-61.716-21.179 12.87 21.977 40.085zM-5.525 246.618a27.58 27.58 0 0 1 1.295-22.579c4.877-9.649 12.614-25.228 14.24-30.346 2.408-7.601 24.927-65.93 29.337-67.737l19.569 66.066-22.73 47.868 26.643 50.2-22.202 23.934s-42.012-58.585-45.474-65.825a31 31 0 0 1-.678-1.581"/><path fill="#555567" d="M167.625 173.839a8 8 0 0 1-.557-1.852c-.316-1.204-.707-3.01-1.144-5.163a168 168 0 0 1-2.453-17.235 165 165 0 0 1-.633-17.401c0-2.228.121-4.019.211-5.268q.02-.973.211-1.927c.106.641.137 1.293.09 1.942v5.253c0 4.516.256 10.537.858 17.341s1.505 12.825 2.228 17.205c.346 2.062.647 3.808.888 5.193q.241.941.301 1.912m18.425 3.567s-.181 0-.512-.12a8 8 0 0 1-1.34-.633 11.5 11.5 0 0 1-3.823-3.883 24.3 24.3 0 0 1-2.74-7.526 92 92 0 0 1-1.791-9.679 1285 1285 0 0 1-1.505-17.747c-.151-2.153-.271-3.959-.377-5.389a9.2 9.2 0 0 1 0-1.987q.254.964.331 1.957c.151 1.505.362 3.221.603 5.358.496 4.516 1.113 10.823 1.731 17.717.436 3.432 1.083 6.684 1.731 9.604a25.5 25.5 0 0 0 2.498 7.526 12.3 12.3 0 0 0 3.523 3.914c1.084.587 1.746.828 1.671.888"/><path fill="#27272E" d="M173.917 130.502a133 133 0 0 0-3.793 21.149 32.3 32.3 0 0 0 .662 12.78c1.295 4.094 4.32 7.873 8.475 9.032a1311 1311 0 0 1-5.013-41.982M50.667 265.84s7.045 14.436 10.944 21.992c8.128-33.582-2.183-68.926 1.174-103.306l-5.87 11.846-1.657 27.411-1.264 16.076s-1.204 17.296-3.327 25.981" opacity=".3"/><path fill="#555567" d="M56.357 126.588c.455.583.853 1.208 1.19 1.867a32 32 0 0 1 1.249 2.288c.451.903 1.008 1.942 1.505 3.116a75 75 0 0 1 3.176 8.429 74 74 0 0 1 3.191 21.766 69 69 0 0 1-.617 9.032c-.12 1.279-.361 2.423-.542 3.417a49 49 0 0 1-.527 2.559 11.2 11.2 0 0 1-.617 2.137c.04-.74.146-1.476.316-2.197.12-.708.271-1.506.407-2.574.135-1.069.316-2.138.42-3.402.31-2.965.456-5.945.438-8.927a87 87 0 0 0-.828-10.883 88 88 0 0 0-2.334-10.672 78 78 0 0 0-3.01-8.414c-.452-1.189-.979-2.213-1.385-3.146a35 35 0 0 0-1.129-2.333 11.2 11.2 0 0 1-.903-2.063"/><path fill="#27272E" d="M35.976 240.296c-.105.075-1.114-1.506-3.01-3.989a38.8 38.8 0 0 0-8.897-8.053 9.13 9.13 0 0 0-6.141-1.506 12.05 12.05 0 0 0-4.862 2.078c-2.544 1.746-3.929 3.115-4.034 3.01.244-.391.55-.742.903-1.039q1.321-1.319 2.815-2.438a12.2 12.2 0 0 1 5.012-2.243 9.58 9.58 0 0 1 6.654 1.505 34.6 34.6 0 0 1 8.926 8.385 31 31 0 0 1 2.047 3.101c.256.363.454.764.587 1.189m-4.968-15.82a30.6 30.6 0 0 1 4.968 15.278c-.241 0-.828-3.522-2.213-7.722s-2.92-7.421-2.755-7.556"/><path fill="#555567" d="M79.523 234.622a7.3 7.3 0 0 1 0-1.31v-3.718c.075-3.296.18-7.963.316-13.683s.286-12.644.602-20.276a110.5 110.5 0 0 1 3.372-24.656 57.7 57.7 0 0 1 4.757-11.906l.286.572a8.18 8.18 0 0 1-4.817-2.725 11.8 11.8 0 0 1-2.514-4.681 37.2 37.2 0 0 1-.783-9.754V112.68a4.7 4.7 0 0 1 0-.993q.085.493.075.993c0 .723 0 1.686.076 2.891 0 2.589.09 6.216.165 10.717s.106 10.055.166 16.197a36.5 36.5 0 0 0 .813 9.558 11.15 11.15 0 0 0 2.363 4.365 7.38 7.38 0 0 0 4.365 2.469l.542.09-.256.482a56.6 56.6 0 0 0-4.681 11.741 113 113 0 0 0-3.402 24.476c-.346 7.616-.542 14.495-.783 20.275-.24 5.781-.421 10.357-.557 13.668l-.18 3.718q.07.645.075 1.295m64.5-118.39q.225.394.361.828c.211.632.512 1.505.858 2.424l3.116 9.031c1.295 3.869 2.845 8.46 4.516 13.548.828 2.604 1.851 5.253 2.619 8.188.413 1.527.48 3.126.196 4.682a6.26 6.26 0 0 1-2.68 4.109l.121-.557c1.264 1.882 2.604 3.884 3.853 6.021a36.2 36.2 0 0 1 4.215 9.754c.704 3.241.932 6.568.677 9.875-.361 6.246-.767 11.861-1.099 16.557-.331 4.697-.617 8.46-.827 11.185-.106 1.249-.196 2.257-.256 3.01a5.4 5.4 0 0 1-.151 1.054 5.3 5.3 0 0 1 0-1.069c0-.768.075-1.791.121-3.01.135-2.74.331-6.548.572-11.2s.587-10.371.948-16.558c.208-3.233-.03-6.48-.708-9.648a35.8 35.8 0 0 0-4.154-9.529c-1.234-2.077-2.559-4.064-3.823-6.021l-.226-.331.346-.21a5.48 5.48 0 0 0 2.333-3.598 10 10 0 0 0-.165-4.365c-.723-2.83-1.747-5.555-2.559-8.129a3179 3179 0 0 0-4.411-13.652c-1.264-3.884-2.182-6.879-2.875-9.032-.316-1.008-.557-1.836-.753-2.469a6 6 0 0 1-.165-.888"/><path fill="#27272E" d="M91.219 113.101c.585.302 1.14.66 1.656 1.069l4.425 3.011c3.763 2.574 9.032 6.021 15.053 9.453 2.258 1.294 4.516 2.498 6.503 3.582l-.542.241a919 919 0 0 1 3.191-12.313c.391-1.415.722-2.589.993-3.552q.145-.651.437-1.25a5.3 5.3 0 0 1-.196 1.31c-.211.978-.466 2.167-.768 3.597-.707 3.011-1.716 7.376-3.01 12.389l-.105.451-.422-.211a175 175 0 0 1-6.548-3.567 161 161 0 0 1-14.962-9.679 118 118 0 0 1-4.29-3.281 8.6 8.6 0 0 1-1.415-1.25m49.674 11.079a51 51 0 0 1-6.654 4.516l-.331.211-.18-.361-2.032-3.959c-1.506-3.011-2.936-5.871-3.884-7.918a17.2 17.2 0 0 1-1.415-3.387 17 17 0 0 1 1.897 3.146 261 261 0 0 1 4.094 7.798l2.032 4.049-.512-.151a55 55 0 0 1 6.985-3.944"/><path fill="#27272E" d="M131.077 122.705a7.5 7.5 0 0 1-1.324 1.039c-.828.617-2.002 1.505-3.312 2.333-1.309.828-2.499 1.686-3.372 2.258a10 10 0 0 1-1.505.858 8 8 0 0 1 1.325-1.054c.843-.602 2.017-1.43 3.311-2.318l3.372-2.258q.716-.494 1.505-.858"/><path fill="#27272E" d="M126.562 125.821a26 26 0 0 1-3.011-2.77 27 27 0 0 1-2.694-3.011 25.5 25.5 0 0 1 2.92 2.77 26.6 26.6 0 0 1 2.785 3.011m9.814 105.187c.259.509.446 1.051.557 1.611.316 1.053.722 2.589 1.174 4.515.933 3.809 2.032 9.122 2.905 15.053s1.37 11.32 1.596 15.248c.105 1.957.165 3.538.165 4.637a6.5 6.5 0 0 1 0 1.701 8 8 0 0 1-.241-1.686c-.12-1.265-.256-2.8-.421-4.622a285 285 0 0 0-1.806-15.158c-.874-5.9-1.897-11.214-2.68-15.052a441 441 0 0 0-.933-4.516 8 8 0 0 1-.316-1.731"/><path fill="#E6E6F0" d="M126.351 136.267c-1.956 15.64-3.402 49.674-3.943 65.464-.452 13.186-.407 26.387-.362 39.588 0 4.26 0 8.656 1.822 12.524 3.146 6.97 10.838 10.537 17.897 13.367z"/><path fill="#1900AF" d="m143.902 264.952 8.084-19.809-20.216-110.998-5.901.587s.828 115.363.557 116.402z"/><path fill="#27272E" d="M131.559 134.145c-.911.289-1.859.446-2.814.467-.94.124-1.891.124-2.83 0a19 19 0 0 1 2.814-.271q1.41-.187 2.83-.196"/></g><path fill="#fff" d="m206.75 89.39-36.99-19.929a32.2 32.2 0 0 0 10.283-11.586l13.542-25.94a16.13 16.13 0 0 1 12.832-8.415l34.312 18.437a20.88 20.88 0 0 0-9.487 8.995l-15.324 28.373a28.26 28.26 0 0 1-9.153 10.138z"/><path fill="#27272E" d="m206.752 89.39.405-.318 1.202-.941a28.4 28.4 0 0 0 4.142-4.085 27.5 27.5 0 0 0 2.448-3.418c.782-1.318 1.535-2.897 2.404-4.345l5.794-10.833c2.158-4.012 4.504-8.4 7.024-13.123a34 34 0 0 1 2.071-3.548 22 22 0 0 1 2.781-3.244 22.1 22.1 0 0 1 5.461-3.766v.594h-.116l-.247-.13-.492-.276-.999-.521-16.569-9.154-8.85-4.707-4.49-2.433-2.274-1.216-.144-.087h-.073.174-.319l-.622.072c-.42.087-.841.145-1.246.246a15.7 15.7 0 0 0-8.386 5.229 19.7 19.7 0 0 0-2.636 4.171l-2.288 4.345-8.69 16.728a55 55 0 0 1-4.447 7.633 33.2 33.2 0 0 1-5.793 6.01c-.522.42-1.058.826-1.608 1.203l-.188.145-.102.072v-.507l.42.232.869.463 3.332 1.81 6.271 3.419 18.901 10.341 5.127 2.897 1.318.753q.236.118.449.275a2 2 0 0 1-.478-.203l-1.361-.695-5.185-2.723-19.017-10.138-6.301-3.375-3.345-1.796-.855-.463-.434-.232v-.536l.101-.072.203-.145a25 25 0 0 0 1.564-1.188 32.8 32.8 0 0 0 5.663-5.909 53 53 0 0 0 4.345-7.56l8.69-16.758 2.289-4.345a20.2 20.2 0 0 1 2.708-4.345 16.47 16.47 0 0 1 8.835-5.387c.42-.116.869-.174 1.303-.261l.652-.073h.652l.145.073 2.274 1.23 4.49 2.42 8.777 4.75 16.598 8.98.999.536.478.275.246.13h.131v.638q-.985.47-1.912 1.042a20.5 20.5 0 0 0-3.389 2.578c-1.003.952-1.91 2-2.709 3.129a34 34 0 0 0-2.056 3.49l-7.097 13.035-5.895 10.79c-.869 1.58-1.637 3.071-2.462 4.346a29 29 0 0 1-2.52 3.418 27 27 0 0 1-4.345 4.026c-.536.391-.956.695-1.246.87q-.238.276-.55.463"/><path fill="#27272E" d="M223.944 51.733c0 .13-6.126-3.042-13.542-7.083-7.415-4.04-13.354-7.415-13.281-7.545s6.126 3.056 13.542 7.082 13.354 7.43 13.281 7.546m-2.044 5.172c0 .13-6.329-3.158-13.991-7.329-7.661-4.171-13.802-7.662-13.73-7.792s6.329 3.157 13.991 7.328 13.817 7.648 13.73 7.793m-2.433 4.489c0 .116-6.343-3.157-13.991-7.328s-13.802-7.677-13.744-7.807 6.343 3.157 13.991 7.328 13.802 7.662 13.744 7.807m-2.46 4.49c-.073.13-6.33-3.157-13.991-7.328-7.662-4.171-13.803-7.662-13.731-7.792s6.33 3.157 13.991 7.328c7.662 4.172 13.803 7.662 13.731 7.792m-2.45 4.49c-.072.13-6.329-3.143-13.991-7.329s-13.803-7.662-13.73-7.792c.072-.13 6.329 3.157 13.991 7.329s13.831 7.676 13.73 7.792m-15.829-2.767a11.6 11.6 0 0 1-2.187-.984 165 165 0 0 1-5.127-2.709c-1.984-1.086-3.78-2.086-5.055-2.897-.721-.366-1.4-.808-2.028-1.318.771.239 1.51.57 2.202.985 1.332.666 3.143 1.622 5.127 2.709s3.78 2.085 5.055 2.896a11 11 0 0 1 2.013 1.318m8.776 11.631s.145-.362.29-1.029a4.34 4.34 0 0 0-.319-2.737 4.08 4.08 0 0 0-3.579-2.337 4.085 4.085 0 1 0 .436 8.13 4.34 4.34 0 0 0 2.477-1.216c.478-.478.652-.811.695-.782a2.3 2.3 0 0 1-.55.927 4.35 4.35 0 0 1-2.564 1.448 4.49 4.49 0 0 1-4.084-1.448 4.53 4.53 0 0 1-.621-5.215 4.53 4.53 0 0 1 4.72-2.302 4.45 4.45 0 0 1 3.418 2.665 4.35 4.35 0 0 1 .174 2.896c-.09.365-.258.706-.493 1m3.059-41.335-10.693-5.832-.84 1.538 10.694 5.833z"/></g><defs><clipPath id="man-advocate_svg__a"><path fill="#fff" d="M.932 0h240v240h-240z"/></clipPath></defs></svg>