<svg xmlns="http://www.w3.org/2000/svg" width="218" height="240" fill="none" viewBox="0 0 218 240"><ellipse cx="108.813" cy="131.943" fill="#EEEBFF" rx="107.671" ry="107.623"/><path fill="#27272E" d="M147.39 50.715c-1.539.875-3.657-.261-4.363-1.899-.705-1.637-.381-3.529.156-5.251.536-1.723 1.284-3.374 1.411-5.16a7.61 7.61 0 0 0-5.11-7.482c3.035-2.407 3.282-7.567.494-10.256-1.306-1.257-3.042-1.941-4.56-2.93a15.6 15.6 0 0 1-2.4-1.955 9.9 9.9 0 0 0 4.137.127 6.7 6.7 0 0 0 4.856-4.235 6.07 6.07 0 0 0 .152-3.318 6.07 6.07 0 0 0-1.62-2.9 5.565 5.565 0 0 0-6.254-.932c-1.962 1.037-3.035 3.17-3.988 5.174l-.89 1.856c-2.759-3.656-5.357-7.433-9.613-8.717-3.861-1.165-8.012.134-12.035-.156-2.929-.218-5.739-1.27-8.661-1.595s-6.247.304-7.97 2.683C90.117 5.18 89.8 6.973 88.776 8.364c-2.117 2.865-6.677 3.254-8.413 6.352-1.412 2.527-.325 5.718-.932 8.548-.657 3.078-3.198 5.33-5.273 7.694-2.075 2.365-3.89 5.612-2.725 8.534 1.03 2.576 4.03 3.96 5.005 6.55.706 1.892.198 3.988.162 6.007-.035 2.019.77 4.419 2.739 4.878l22.397 5.915c7.715 3.134 15.67 6.352 23.999 6.31s17.216-4.01 20.47-11.66a4.77 4.77 0 0 1-3.212-1.412 8.02 8.02 0 0 0 4.398-5.365"/><path fill="#27272E" d="M129.03 57.738c1.849-5.647 3.67-11.4 4.51-17.315s.664-12.084-1.411-17.646c-.311-.847-3-6.543-3.904-6.451-.642.063 1.01 5.371.706 5.936-3.106 5.336-3.953 11.752-3.452 17.914a80.7 80.7 0 0 0 3.579 17.597"/><path fill="#9B7564" d="M109.252 107.388c9.261-.197 19.764-20.47 19.764-20.47l.6-51.993c.48-14.971-7.828-27.733-22.807-27.804l-1.411.071A26.823 26.823 0 0 0 80.05 33.21c-.345 12.98-.571 27.33-.112 34.262.945 14.343 15.423 15.804 15.423 15.804s.084 3.332.126 7.553c.1 9.473 10.017 16.856 13.729 16.538z"/><path fill="#7F6358" d="M95.396 83.297s9.078.05 18.395-6.529c0 0-3.995 10.687-18.388 10.165z"/><path fill="#27272E" d="M86.282 44.497a2.054 2.054 0 0 0 2.118 1.962 1.96 1.96 0 0 0 2.011-1.956 2.054 2.054 0 0 0-2.117-1.969 1.963 1.963 0 0 0-2.012 1.962m-2.808-5.47c.268.254 1.758-.98 3.967-1.094 2.21-.113 3.882.91 4.108.621.106-.12-.176-.593-.91-1.066a5.6 5.6 0 0 0-3.304-.825 5.42 5.42 0 0 0-3.141 1.2c-.65.593-.854 1.051-.72 1.164m22.679 4.941a2.05 2.05 0 0 0 2.117 1.962 1.96 1.96 0 0 0 1.858-1.2c.102-.24.154-.5.154-.762a2.06 2.06 0 0 0-2.082-1.962 1.97 1.97 0 0 0-2.047 1.962m-1.024-5.209c.268.254 1.765-.974 3.967-1.087s3.882.903 4.108.62c.113-.126-.169-.592-.911-1.072a5.65 5.65 0 0 0-3.303-.826 5.44 5.44 0 0 0-3.141 1.2c-.642.558-.847 1.052-.72 1.165m-7.001 17.378c0-.127-1.412-.29-3.621-.452-.565 0-1.102-.113-1.222-.494a2.8 2.8 0 0 1 .29-1.687q.704-2.118 1.412-4.383c1.99-6.226 3.395-11.343 3.14-11.421s-2.068 4.94-4.051 11.145c-.473 1.532-.932 3-1.362 4.398-.321.7-.383 1.49-.177 2.23a1.41 1.41 0 0 0 .974.77c.315.07.638.098.96.084 2.266 0 3.65-.063 3.657-.19m-.194 11.536c.355.056.604-2.327 2.825-3.804 2.221-1.478 4.726-.96 4.777-1.288.025-.153-.517-.525-1.581-.665a5.98 5.98 0 0 0-3.98.942 5.2 5.2 0 0 0-2.218 3.222c-.196.97.013 1.589.177 1.593M104.77 29.8c.254.593 2.442.19 5.047.36s4.736.77 5.047.212c.141-.268-.254-.812-1.13-1.348a8.8 8.8 0 0 0-7.686-.43c-.932.43-1.384.931-1.278 1.206m-20.78 1.843c.416.48 1.912-.12 3.734-.24 1.82-.12 3.395.155 3.72-.388.148-.262-.128-.756-.826-1.193a5.43 5.43 0 0 0-6.007.508c-.621.55-.805 1.066-.621 1.313"/><path fill="#9B7564" d="M129.016 45.64c.24-.12 9.706-3.445 9.924 6.353.219 9.797-9.705 8.011-9.726 7.764s-.198-14.117-.198-14.117"/><path fill="#7F6358" d="M132.135 55.974c.042 0 .176.112.465.24.41.165.868.165 1.278 0 1.031-.403 1.871-2.076 1.885-3.847a5.8 5.8 0 0 0-.537-2.443 1.98 1.98 0 0 0-1.313-1.284.875.875 0 0 0-1.002.494c-.127.275-.056.473-.113.487-.056.014-.212-.163-.141-.565.05-.246.182-.467.374-.628a1.26 1.26 0 0 1 .939-.268 2.4 2.4 0 0 1 1.821 1.482c.44.843.665 1.781.656 2.732 0 1.983-.995 3.854-2.407 4.298a1.83 1.83 0 0 1-1.574-.226c-.31-.24-.367-.458-.331-.472"/><path fill="#27272E" d="M86.24 16.862c-1.602-.854 3.106-6.07 6.995-7.898 5.873-2.753 14.88-4.518 20.343-3.043 6.586 1.772 12.077 4.941 15.451 10.899s4.701 12.868 4.596 19.686c-.036 2.082-.219 4.235-1.313 6.028-1.341 2.188-3.96 3.593-3.805 6.593a4.1 4.1 0 0 1-.189 1.605 4.1 4.1 0 0 1-.792 1.409c-1.779 1.934-4.002.162-5.033-1.624-2.216-3.825-2.513-8.42-2.76-12.825-.176-3.134-.346-6.353.501-9.36.459-1.644 1.215-3.204 1.582-4.87s.296-3.53-.763-4.906a6 6 0 0 0-.804-.797 10.28 10.28 0 0 0-10.2-1.808c-5.513 2.033-14.929 5.083-17.42 3.233-3.586-2.66-4.462-4.411-4.462-4.411z"/><path fill="#27272E" d="M113.049 4.573c-5.42-1.736-11.576-1.56-16.594 1.13-2.668 1.411-5.068 3.684-5.845 6.6-.776 2.914.508 6.493 3.318 7.594l.198.12c4.235 1.355 6.931.763 11.096-.74 3.529-1.264 6.606-3.474 10.114-4.723a20 20 0 0 1 11.689-.487c-3.811-4.221-8.547-7.736-13.976-9.494"/><path fill="#9292A9" d="M131.734 14.314c-.084.07-.875-.868-2.47-1.976a14.3 14.3 0 0 0-2.986-1.596 9.1 9.1 0 0 0-3.995-.706 13.4 13.4 0 0 0-6.854 2.824c-1.525 1.207-2.231 2.223-2.322 2.153s.106-.304.43-.755c.463-.641.996-1.228 1.588-1.751a12.76 12.76 0 0 1 7.101-3.127 9.4 9.4 0 0 1 4.278.762 13 13 0 0 1 3.035 1.786c1.588 1.278 2.266 2.344 2.195 2.386m.995 3.48a8.4 8.4 0 0 1-.748 2.823 20.47 20.47 0 0 1-9.176 10.341 8.2 8.2 0 0 1-2.697 1.073c-.12-.19 4.129-1.8 7.694-5.88s4.722-8.449 4.927-8.357m4.002 1.602c.077.367.089.744.035 1.116a17 17 0 0 1-.423 3.02 20.57 20.57 0 0 1-12.777 14.661c-.952.363-1.935.641-2.936.833-.362.105-.74.143-1.115.113 0-.113 1.546-.381 3.875-1.412a21.64 21.64 0 0 0 12.501-14.343c.663-2.414.72-3.988.84-3.988M101.791 3.69c0 .114-1.024.354-2.605.982A21.35 21.35 0 0 0 89.1 12.987a27 27 0 0 1-1.462 2.364 7.6 7.6 0 0 1 1.06-2.604 18.7 18.7 0 0 1 4.376-5.216 18.5 18.5 0 0 1 5.957-3.29 7.9 7.9 0 0 1 2.76-.55m38.025 1.235c.162 0-.268 2.824-2.492 5.47-2.223 2.647-4.941 3.565-4.941 3.403 0-.163 2.379-1.313 4.454-3.826s2.781-5.11 2.979-5.047"/><mask id="man-holding-phone_svg__a" width="216" height="216" x="1" y="24" maskUnits="userSpaceOnUse" style="mask-type:alpha"><ellipse cx="108.813" cy="131.943" fill="#fff" rx="107.671" ry="107.623"/></mask><g mask="url(#man-holding-phone_svg__a)"><path fill="#9B7564" d="m60.307 148.568-.098 37.933-16.765-3.445-14.117-2.95s19.327 38.116 40.347 38.116 23.738-31.714 23.738-31.714l1.25-37.94z"/><path fill="#9B7564" d="m35.356 180.423 5.83-3.578a6.35 6.35 0 0 1 3.282-.925h11.294l11.66 10.623 3.48 1.736-1.298 18.353-7.581-.932s-16.186.706-17.753-.346-3.832-4.355-3.832-4.355-8.873-2.873-9.741-3.649c-3.297-2.958-1.97-3.664-1.97-3.664l-1.517-.706c-.283.537-2.492-3.063-2.259-4.87.134-1.052-.176-1.045-.176-1.045a5.8 5.8 0 0 1-2.824-4.016c-.162-1.073 4.235-.303 4.235-.303l10.962.148z"/><path fill="#9292A9" d="m45.103 182.647-10.312-14.04a4.01 4.01 0 0 0-3.247-1.644H11.159a1.482 1.482 0 0 0-1.123 2.449l11.682 13.553z"/><path fill="#7F6358" d="M40.106 188.399a9 9 0 0 1-2.301.304 38.8 38.8 0 0 1-11.125-.96 9 9 0 0 1-2.216-.706c.77.053 1.535.168 2.287.346 1.412.247 3.339.551 5.499.706s4.122.226 5.54.219a13 13 0 0 1 2.316.091m2.929 6.149c-.75.2-1.524.302-2.301.303a38 38 0 0 1-5.598-.077 38.5 38.5 0 0 1-5.534-.883 9 9 0 0 1-2.209-.706c.77.053 1.535.169 2.287.346 1.412.247 3.339.551 5.499.706s4.122.226 5.54.219a13 13 0 0 1 2.316.092"/><path fill="#7F6358" d="M21.98 183.049q.128.653.34 1.285a4.83 4.83 0 0 0 2.498 2.611l.077.036v.084a7.8 7.8 0 0 0 .798 3.586 6.76 6.76 0 0 0 3.184 3.12l.19.085-.092.176a1.63 1.63 0 0 0 0 1.412c.24.476.583.892 1.003 1.221a13 13 0 0 0 3.049 1.75 44 44 0 0 0 7.475 2.344h.099l.05.085a13.8 13.8 0 0 0 2.293 2.569 7.1 7.1 0 0 0 2.993 1.772c.87.214 1.766.304 2.661.268l2.683.07 5.173.142 9.318.261h.035l11.103 2.266 3.085.663.804.191q.146.017.276.084a1.2 1.2 0 0 1-.283 0l-.818-.127-3.113-.55-11.139-2.118h.036l-9.318-.197-5.167-.12-2.689-.064a10.3 10.3 0 0 1-2.781-.296 7.6 7.6 0 0 1-3.19-1.878 14 14 0 0 1-2.365-2.675l.148.106a43 43 0 0 1-7.546-2.407 13.4 13.4 0 0 1-3.14-1.836 4 4 0 0 1-1.109-1.411 1.99 1.99 0 0 1 .043-1.723l.098.262a7.1 7.1 0 0 1-3.331-3.332 7.95 7.95 0 0 1-.756-3.741l.078.12a4.83 4.83 0 0 1-2.527-2.824 3.5 3.5 0 0 1-.226-1.27"/><path fill="#7F6358" d="M46.374 199.947c.057.113-1.313.812-3.169 1.059s-3.353-.064-3.332-.184 1.49-.063 3.269-.31c1.778-.247 3.183-.699 3.232-.565m5.236-17.321c0 .134-2.237.324-5.018.43s-5.032.071-5.032-.07 2.237-.325 5.018-.431 5.033-.071 5.033.071m19.072 4.15s-.211.205-.706.282a3.25 3.25 0 0 1-2.032-.451 16 16 0 0 1-2.38-1.906l-2.78-2.435-5.082-4.37a16.7 16.7 0 0 1-2.062-1.87c.81.459 1.574.996 2.28 1.602a134 134 0 0 1 5.196 4.235c.988.861 1.92 1.694 2.752 2.464.696.71 1.45 1.362 2.252 1.948.544.363 1.181.56 1.835.564.466.008.713-.105.727-.063"/><path fill="#27272E" d="M42.93 182.95a2 2 0 0 1-.276-.303l-.706-.904-2.682-3.381-3.868-5.039-2.273-2.979a3.44 3.44 0 0 0-1.525-1.066 3.6 3.6 0 0 0-.946-.191h-1.016l-14.117-.056-4.285-.057h-1.164a1.8 1.8 0 0 1-.41-.035 1.4 1.4 0 0 1 .41-.035l1.164-.035 4.285-.064 14.117-.049h1.045c.354.024.703.095 1.037.211a3.83 3.83 0 0 1 1.68 1.186l2.266 3 3.805 5.089a419 419 0 0 1 2.54 3.452c.276.381.495.706.707.946q.125.142.211.31"/><path fill="#FAFAFC" d="M20.758 171.078a.83.83 0 0 1 .454-.172.83.83 0 0 1 .808.458.84.84 0 0 1-1.403.907.863.863 0 0 1 .113-1.165"/><path fill="#1900AF" d="m130.025 82.832 28.714 16.877 5.28 93.173 6.861 52.713H67.683s1.137-64.155 1.49-83.559c.254-13.602-.113-39.966 4.489-56.179 1.962-6.91 21.176-15.84 21.176-15.84 10.524 9.296 22.291 6.522 35.187-7.185"/><path fill="#fff" d="M167.844 222.302c0 .099-22.277.183-49.763.183s-49.762-.084-49.762-.183 22.276-.184 49.762-.184 49.763.078 49.763.184"/><path fill="#27272E" d="M68.255 206.448c7.99 6.699 20.406 10.327 30.627 12.395s20.66 2.824 30.909 4.701c7.165 1.334 14.682 3.219 21.592.89a19.06 19.06 0 0 0 12.607-16.284c.051-.244.05-.496-.003-.74a1.8 1.8 0 0 0-.307-.672 1.88 1.88 0 0 0-1.462-.353c-30.853 1.369-63.527 1.179-93.963.042" opacity=".3"/><path fill="#9B7564" d="M62.792 187.136h72.11l.353-37.996 33.274-4.292s.149 38.589.149 51.245c0 15.19-13.129 25.75-24.155 24.126-11.025-1.623-81.731-14.823-81.731-14.823z"/><path fill="#1900AF" d="m170.839 152.74-38.78 4.03v-45.499s3.811-15.374 17.209-14.732 21.288 15.134 21.571 28.425c.282 13.292 0 27.776 0 27.776m-93.076-52.219s-12.43 8.18-15.762 17.208c-3.494 9.466-8.4 40.128-8.4 40.128H71.03z"/><path fill="#27272E" d="M131.733 113.078a10 10 0 0 1 0 1.658c-.035 1.151-.085 2.676-.141 4.525a469 469 0 0 0-.219 14.908c.014 5.823.169 11.096.318 14.907l.169 4.525q.065.83 0 1.659a10 10 0 0 1-.198-1.652 142 142 0 0 1-.331-4.511 269 269 0 0 1-.459-14.928c-.021-5.838.155-11.111.367-14.929.099-1.906.205-3.445.296-4.511q.035-.834.198-1.651m19.525-15.805c0 .1-1.299-.247-3.402-.211a15.12 15.12 0 0 0-13.256 8.131c-.981 1.857-1.257 3.155-1.349 3.134.006-.312.059-.621.156-.917.212-.819.508-1.614.882-2.372a14.65 14.65 0 0 1 13.567-8.33 13 13 0 0 1 2.52.29c.306.046.604.139.882.275M69.78 121.95q.05.255.05.515c0 .396 0 .883.042 1.476 0 1.277.042 3.127.042 5.414 0 4.573-.07 10.891-.204 17.865s-.268 13.22-.36 17.858c-.043 2.23-.078 4.066-.106 5.414 0 .593-.043 1.08-.057 1.475q.014.258-.049.508a2 2 0 0 1-.05-.508c0-.395 0-.882-.042-1.475 0-1.278-.042-3.127-.042-5.414 0-4.574.07-10.891.204-17.872.135-6.981.262-13.221.353-17.851.05-2.238.085-4.066.113-5.414 0-.593.043-1.08.05-1.476a2 2 0 0 1 .056-.515"/><path fill="#fff" d="M69.335 137.189a48 48 0 0 1-5.9.135 48 48 0 0 1-5.902-.24 48 48 0 0 1 5.901-.135c1.97-.046 3.941.034 5.901.24m61.735-10.502c0 .098-13.411.183-29.893.183s-29.907-.085-29.907-.183c0-.099 13.411-.184 29.907-.184s29.893.064 29.893.184m38.927-6.226a1.7 1.7 0 0 1-.395 0l-1.115-.092-4.094-.353a251 251 0 0 0-13.546-.755 261 261 0 0 0-13.566 0l-4.115.127h-1.115a1.4 1.4 0 0 1-.396 0 1.7 1.7 0 0 1 .388-.057l1.116-.098c.974-.078 2.371-.163 4.115-.248 3.473-.162 8.272-.254 13.581-.112 5.308.141 10.1.508 13.559.861 1.729.176 3.127.338 4.087.473l1.108.155q.2.024.388.099m.368 26.957c0 .105-8.76 0-19.553-.255-10.792-.254-19.559-.529-19.552-.628s8.753 0 19.559.261c10.807.262 19.546.523 19.546.622m-35.229-43.397c0 .106-13.821.184-30.867.184-17.047 0-30.868-.078-30.868-.184 0-.105 13.821-.183 30.868-.183s30.867.085 30.867.183m-3.869 51.288c0 .099-13.863.184-30.966.184s-30.966-.085-30.966-.184 13.863-.183 30.966-.183 30.966.077 30.966.183m4.447 22.644c0 .099-15.077.183-33.669.183s-33.676-.084-33.676-.183 15.077-.184 33.676-.184 33.669.078 33.669.184"/><path fill="#27272E" d="M131.585 157.201c-.451-8.993-.127-17.407-.586-26.392a167 167 0 0 0-4.305 40.233c.049 3.212.204 6.48 1.242 9.522 1.038 3.043 3.91 5.647 6.847 6.946l.282-30.698c-1.32.099-2.153.325-3.48.389" opacity=".3"/></g></svg>