<svg xmlns="http://www.w3.org/2000/svg" width="241" height="240" fill="none" viewBox="0 0 241 240"><g clip-path="url(#man-talking_svg__a)"><circle cx="120.932" cy="140" r="100" fill="#EEEBFF"/><mask id="man-talking_svg__b" width="241" height="240" x="0" y="0" maskUnits="userSpaceOnUse" style="mask-type:alpha"><path fill="#fff" fill-rule="evenodd" d="M240.932 0h-240v140h20c0 55.228 44.772 100 100 100s100-44.772 100-100h20z" clip-rule="evenodd"/></mask><g mask="url(#man-talking_svg__b)"><path fill="#1900AF" d="M172.711 131.743a30.34 30.34 0 0 1 14.298 18.489c3.721 13.312 15.099 47.978 15.099 47.978s6.502 7.649 7.195 13.312-.693 19.366-2.789 21.924a5.87 5.87 0 0 1-5.069 2.134l-27.371-2.596-10.785-72.168z"/><path fill="#1900AF" d="M82.208 130.488s-19.575 6.163-24.452 11.478l16.024 74.54-.285 23.527h92.813c0-1.163.832-78.099.832-78.099l5.57-30.19-32.964-5.801-6.502-5.115-36.692 1.864-5.578 5.57z"/><path fill="#27272E" d="M89.671 195.161c-.285-.631-.7-1.317-1.379-1.456-1.117-.231-1.864 1.087-2.242 2.165a98.3 98.3 0 0 1-12.187 23.797l-.238 11.447c5.392-4.553 10.739-9.429 14.19-15.6s4.737-13.912 1.856-20.353" opacity=".3"/><path fill="#1900AF" d="M57.757 141.968s-6.448 8.79-9.12 14.529c-2.674 5.739-24.868 53.925-26.193 58.91s-4.776 20.653 5.354 24.289h20.854l20.923-42.316 1.07-49.11z"/><path fill="#27272E" d="M49.968 209.127s-.462-.408-1.425-.955a16.2 16.2 0 0 0-4.376-1.587q-1.577-.346-3.19-.447a12.7 12.7 0 0 0-3.69.262 13.6 13.6 0 0 0-7.017 4.407 19.1 19.1 0 0 0-3.975 7.387 37 37 0 0 0-1.248 6.818c-.2 1.972-.27 3.582-.34 4.684 0 .524-.06.947-.076 1.279q0 .227-.062.446a3 3 0 0 1 0-.446v-1.279c0-1.117.046-2.72.208-4.707a35.6 35.6 0 0 1 1.179-6.933 19.2 19.2 0 0 1 4.029-7.55 13.87 13.87 0 0 1 7.241-4.499 12.6 12.6 0 0 1 3.76-.208c1.087.08 2.167.247 3.227.501a15.2 15.2 0 0 1 4.391 1.726q.553.34 1.04.77.18.149.324.331m-9.883-8.428q.344-.1.701-.108.967-.075 1.934 0c.958.056 1.91.198 2.842.423a16.95 16.95 0 0 1 6.325 3.02 16 16 0 0 1 2.119 1.942q.657.723 1.194 1.54.218.285.354.617c-.062.046-.632-.771-1.756-1.942a19 19 0 0 0-2.134-1.841 19.3 19.3 0 0 0-2.959-1.772 20.4 20.4 0 0 0-3.235-1.186 18.4 18.4 0 0 0-2.773-.493c-1.603-.208-2.612-.123-2.612-.2m18.842-2.319a4.3 4.3 0 0 1-.963-.07 57 57 0 0 0-2.611-.254 44.6 44.6 0 0 0-17.048 2.042 47 47 0 0 0-2.481.863q-.444.195-.917.3a4 4 0 0 1 .855-.447c.563-.269 1.402-.608 2.45-.986a39.34 39.34 0 0 1 17.171-2.049c1.102.115 1.996.246 2.604.377q.481.068.94.224m59.388-41.177a1.1 1.1 0 0 1-.216-.254l-.57-.77-2.095-2.897a7047 7047 0 0 0-7.257-10.246l.323-.046c-1.124 3.297-2.365 6.933-3.667 10.785l-.084.239-.216-.139-.431-.277a22.2 22.2 0 0 1-4.538-3.852 27 27 0 0 1-3.243-4.483 37.8 37.8 0 0 1-3.567-8.605 60 60 0 0 1-1.348-6.163c-.123-.694-.216-1.256-.293-1.68a3 3 0 0 0-.1-.423c0-.093-.054-.139-.046-.147s.316.771.593 2.227a61 61 0 0 0 1.472 6.085 38 38 0 0 0 3.613 8.521 27.5 27.5 0 0 0 3.212 4.406 22 22 0 0 0 4.453 3.76l.423.277-.292.108c1.317-3.852 2.565-7.465 3.705-10.785l.116-.339.208.292c2.896 4.199 5.392 7.773 7.141 10.331.84 1.248 1.541 2.242 2.01 2.966l.517.77q.106.16.177.339"/><path fill="#27272E" d="M142.466 192.787a42.24 42.24 0 0 0 5.392 25.006c4.314 7.503 10.647 14.198 18.527 17.787.255-7.649-.115-16.662.139-24.312z" opacity=".3"/><path fill="#FFBE9D" d="M141.595 182.72s-3.374.932-.848 7.842 3.375 6.487 5.062 12.942c1.687 6.456 3.651 12.326 6.594 16.008 2.943 3.683 13.905 11.093 13.905 11.093l9.83-9.244s-1.618-6.933-1.233-11.602c.385-4.668 1.371-16.177 1.233-18.172-.139-1.996-2.25-6.741-2.25-6.741v-3.266l-5.053-15.546s-2.812-1.264-3.79 3.228l-1.688-4.769s-2.665-.424-3.366 5.054c-.701 5.477.562 13.057.562 13.057l-1.409 9.545-2.103 6.463-1.826.278s-2.75-.771-4.253-5.924c-1.502-5.154-5.577-11.371-9.367-10.246"/><path fill="#EB996E" d="M172.871 207.17s0-.115-.046-.346-.046-.609-.069-1.033a789 789 0 0 1-.208-3.851c-.154-3.352-.362-8.02-.609-13.466l.039.115a1.98 1.98 0 0 0-1.988-.524 2.9 2.9 0 0 0-1.818 1.341c-.863 1.379-.909 3.181-1.179 4.915-.531 3.936-1.04 7.703-1.502 11.101-.231 1.71-.477 3.328-.809 4.83a30.5 30.5 0 0 1-1.225 4.098c-.431 1.225-.816 2.311-1.055 3.336-.213.843-.319 1.71-.316 2.58.027.749.157 1.49.385 2.204a3.5 3.5 0 0 1-.231-.54 5.8 5.8 0 0 1-.308-1.656 10 10 0 0 1 .254-2.658q.405-1.716 1.01-3.374a31.5 31.5 0 0 0 1.155-4.075c.316-1.487.555-3.081.77-4.807.447-3.42.948-7.164 1.472-11.109.123-.87.216-1.741.37-2.603a6.9 6.9 0 0 1 .862-2.473 3.3 3.3 0 0 1 2.073-1.495 2.31 2.31 0 0 1 2.365.647l.038.054v.062c.193 5.446.355 10.115.47 13.473 0 1.626.069 2.928.1 3.852v1.033a2 2 0 0 1 0 .369"/><path fill="#EB996E" d="M167.48 189.451a3.8 3.8 0 0 1-.416-.878 24 24 0 0 1-.825-2.511 26 26 0 0 1-.701-3.852 11.2 11.2 0 0 1-.046-2.311 5 5 0 0 1 .848-2.404 3.45 3.45 0 0 1 1.802-1.356l.147-.038.077.131a387 387 0 0 1 3.528 6.325l1.009 1.887q.208.333.324.709a3.5 3.5 0 0 1-.447-.64l-1.11-1.825a378 378 0 0 1-3.643-6.256l.223.093c-.644.215-1.2.638-1.579 1.201a4.6 4.6 0 0 0-.771 2.219 11 11 0 0 0 0 2.265c.116 1.296.32 2.583.609 3.852.247 1.078.516 1.941.693 2.534q.182.414.278.855"/><path fill="#EB996E" d="M165.122 190.716a3.6 3.6 0 0 1-.093-.902c0-.662-.061-1.479-.1-2.442a469 469 0 0 1-.169-8.066 70 70 0 0 1 .123-8.081c.097-.816.272-1.621.524-2.403.075-.295.197-.576.362-.832a23 23 0 0 0-.609 3.266c-.192 2.042 0 4.892 0 8.043s.062 6.001.054 8.065v2.45q.004.456-.092.902m-8.312 25.891c-.054-.047.562-.771 1.317-2.088q.665-1.154 1.148-2.396c.378-1.017.672-2.063.878-3.127.18-1.07.27-2.152.27-3.236a18 18 0 0 0-.231-2.642c-.255-1.503-.578-2.396-.509-2.419q.184.284.277.608.327.858.509 1.757c.188.884.297 1.784.323 2.688a15.9 15.9 0 0 1-1.178 6.51 15 15 0 0 1-1.241 2.403 11 11 0 0 1-1.086 1.464c-.285.324-.454.493-.477.478"/><path fill="#FFBE9D" d="m174.067 211.793 8.528 2.958s8.15-4.213 13.766 0c5.616 4.214 10.493 15.315 8.952 19.806 0 0-3.852 4.792-6.826 5.493s-14.413-2.08-19.182-3.081c-4.768-1.002-12.996-6.348-12.996-6.348z"/><path fill="#EB996E" d="M175.114 224.341a3.4 3.4 0 0 1-.092-.771c0-.578-.069-1.263-.116-2.064a176 176 0 0 1-.246-6.81c-.039-2.666.038-5.077.192-6.818.077-.87.178-1.541.262-2.057.019-.264.079-.524.178-.77.061 0-.07 1.078-.155 2.819s-.115 4.137-.077 6.795.093 4.953.124 6.802v2.065c.02.271-.003.544-.07.809"/><path fill="#27272E" d="M203.239 214.396a27 27 0 0 0-2.835-2.558 15.62 15.62 0 0 0-17.287-.947 28 28 0 0 0-3.082 2.226q.307-.425.701-.77a14 14 0 0 1 2.258-1.711 15.34 15.34 0 0 1 17.61.979 13.5 13.5 0 0 1 2.049 1.949q.342.38.586.832"/><path fill="#27272E" d="M202.145 207.286a17 17 0 0 0-3.551-1.956 15.66 15.66 0 0 0-9.599-.285 22.4 22.4 0 0 0-4.968 2.064 23.6 23.6 0 0 0-3.598 2.542c-.955.817-1.687 1.541-2.188 2.027q-.37.421-.809.77.302-.467.694-.863a27 27 0 0 1 2.118-2.134c1.107-1 2.312-1.885 3.598-2.642a21.3 21.3 0 0 1 5.046-2.134c3.227-.943 6.676-.8 9.814.408a11.4 11.4 0 0 1 2.627 1.479c.285.208.477.409.624.532.146.123.192.185.192.192m.07-6.163c0 .077-1.541-.377-3.991-.708a31 31 0 0 0-4.368-.278c-1.789.02-3.574.18-5.338.478a35 35 0 0 0-5.185 1.371 31 31 0 0 0-4.014 1.757c-2.211 1.155-3.459 2.095-3.505 2.026q.394-.382.855-.678a10 10 0 0 1 1.056-.724c.423-.27.901-.586 1.456-.879a29.5 29.5 0 0 1 4.029-1.848 31.7 31.7 0 0 1 5.238-1.418 32.4 32.4 0 0 1 5.393-.454c1.478.007 2.954.128 4.414.362.624.077 1.179.223 1.664.323q.632.128 1.248.324.538.128 1.048.346m-65.349-75.434a7 7 0 0 1 .586 2.265c.23 2.209.121 4.441-.324 6.617a38 38 0 0 1-1.101 4.622 35 35 0 0 1-2.234 5.123c-1.842 3.544-4.153 7.403-6.834 11.556l-.308.485v-9.129l.301.147-7.234 5.77.062-.093a75.7 75.7 0 0 0-3.143 17.295c-.709 9.375-.139 18.342.3 26.477s.632 15.477.886 21.639c.254 6.163.462 11.14.647 14.583.108 1.711.185 3.036.239 3.96 0 .439.054.77.069 1.032s0 .355 0 .355 0-.116-.054-.347-.061-.593-.108-1.032c-.084-.902-.192-2.234-.308-3.96-.231-3.436-.5-8.42-.77-14.583s-.601-13.489-.971-21.632c-.369-8.142-1.04-17.117-.331-26.523a75.4 75.4 0 0 1 3.228-17.387v-.054h.046l7.211-5.786.3-.246v8.936l-.316-.1c5.293-8.204 9.599-15.338 10.261-21.108a22.6 22.6 0 0 0 .416-6.563 12 12 0 0 0-.315-1.711c-.154-.416-.201-.608-.201-.608"/><path fill="#fff" d="M123.046 225.059h-.246a2.166 2.166 0 0 0 .139 4.325 2.16 2.16 0 0 0 2.163-2.096 2.164 2.164 0 0 0-2.025-2.229zm-.001-29.691h-.246a2.154 2.154 0 0 0-2.017 2.222 2.16 2.16 0 0 0 3.656 1.481 2.16 2.16 0 0 0 .097-3 2.16 2.16 0 0 0-1.459-.703zm-.246-26.562a2.17 2.17 0 0 0 2.311-2.026 2.17 2.17 0 0 0-2.026-2.311h-.285a2.173 2.173 0 0 0 0 4.344z"/><path fill="#27272E" d="M48.075 205.882a16.43 16.43 0 0 0-8.914-1.117 17.15 17.15 0 0 0-8.874 3.359c-2.496 2.01-4.183 5.184-3.852 8.373l.308.039c2.15-5.809 6.417-10.015 11.925-10.546 5.508-.532 10.878 1.933 14.637 5.978-.408-3.02-2.519-4.8-5.23-6.086m155.566 5.912a14.07 14.07 0 0 0-7.951-4.091 17.82 17.82 0 0 0-14.821 4.291l1.171-.955a18.7 18.7 0 0 1 9.876-2.681 14.26 14.26 0 0 1 9.406 3.759c2.311 2.188 3.69 5.154 5.007 8.043a10.07 10.07 0 0 0-2.688-8.366" opacity=".3"/><path fill="#27272E" d="M163.974 163.492q.095-.434.278-.84c.238-.608.531-1.355.87-2.241.77-1.888 1.772-4.492 2.85-7.396a424 424 0 0 0 2.681-7.457l.771-2.272q.124-.427.339-.817a3.2 3.2 0 0 1-.193.863c-.146.554-.377 1.34-.678 2.311a144 144 0 0 1-2.573 7.511 145 145 0 0 1-2.966 7.365c-.4.932-.77 1.679-.994 2.195a3.5 3.5 0 0 1-.385.778m-97.117.753c-.108 0-.948-3.644-1.872-8.189s-1.587-8.204-1.502-8.266.94 3.644 1.864 8.189 1.618 8.243 1.51 8.266"/><path fill="#FFBE9D" d="M65.4 210.074c.247.123-2.82-24.004-2.82-24.004s1.934-18.312 3.02-19.159v-6.464s2.997-1.81 3.799 1.117c0 0 2.657-2.311 3.081 3.182s.562 11.101.562 11.101l5.909 14.775.97.493s1.272-11.555 2.011-13.281c.74-1.725 1.248-5.847 4.045-5.223s3.035 2.935 2.534 6.71c-.5 3.775-1.132 7.704-.893 10.123s1.34 7.803 1.001 12.071-2.68 8.767-5.13 11.925-7.142 9.699-9.684 11.664c-.824.693-8.405-15.03-8.405-15.03"/><path fill="#EB996E" d="M68.388 190.437a4.6 4.6 0 0 1 0-1.033c.046-.77.116-1.679.193-2.804a813 813 0 0 1 .77-9.244l.478-5.077a9 9 0 0 0 0-2.18 3.1 3.1 0 0 0-.77-1.664 3.3 3.3 0 0 0-2.412-1.055 7 7 0 0 0-1.009.123 1 1 0 0 1 .246-.123q.374-.14.77-.162a3.38 3.38 0 0 1 2.628 1.025c.466.5.764 1.132.855 1.81a8.8 8.8 0 0 1 0 2.257c-.139 1.541-.293 3.29-.447 5.085a660 660 0 0 1-.909 9.244l-.316 2.796q.004.505-.077 1.002m3.173-9.869a8.4 8.4 0 0 0-1.048 1.903 32 32 0 0 0-.978 5.208 228 228 0 0 1-.878 5.277c-.09.735-.25 1.46-.478 2.164.003-.741.07-1.481.2-2.211.17-1.355.44-3.227.77-5.292.332-2.065.548-3.952 1.118-5.246.202-.507.486-.978.84-1.394.254-.309.439-.424.454-.409"/><path fill="#EB996E" d="M69.389 161.249c.107.245.177.505.208.77.108.493.238 1.21.385 2.103.293 1.78.616 4.253.824 7.003s.247 5.246.216 7.049c0 .901-.039 1.633-.077 2.134q.009.392-.093.77a26 26 0 0 1-.115-2.912 139 139 0 0 0-.331-7.018 139 139 0 0 0-.702-6.995 25 25 0 0 1-.315-2.904m17.049 22.618a2.13 2.13 0 0 1-1.987.169c-1.133-.339-1.657-1.209-1.542-1.248q.798.507 1.672.863.92.184 1.857.216"/><path fill="#FFBE9D" d="m65.73 207.069-15.608 6.564h-9.306s-9.198 2.873-10.616 11.501-1.617 13.058 2.427 14.129 15.469 1.186 21.131-.694 20.5-13.866 20.5-13.866l1.425-8.659z"/><path fill="#EB996E" d="M69.39 216.607s-.176-.131-.446-.408a10 10 0 0 1-1.01-1.294 17.6 17.6 0 0 1-2.18-4.938 29.3 29.3 0 0 1-.962-5.3 10 10 0 0 1-.062-2.234q.25 1.085.34 2.195a39 39 0 0 0 1.07 5.231 20.7 20.7 0 0 0 2.034 4.899c.7 1.164 1.27 1.795 1.217 1.849m6.802 2.735c.413-1.08.71-2.201.886-3.344.35-2.787-.402-5.6-2.095-7.842-.948-1.325-2.019-2.48-2.92-3.605a17 17 0 0 1-2.11-3.189 8.4 8.4 0 0 1-.771-2.466 3.1 3.1 0 0 1 0-.939c.18 1.14.54 2.245 1.063 3.274a18 18 0 0 0 2.15 3.081c.9 1.094 1.979 2.249 2.95 3.605a11.2 11.2 0 0 1 1.949 4.276c.262 1.268.296 2.572.1 3.852a10.2 10.2 0 0 1-.709 2.48c-.123.277-.239.485-.316.624s-.17.2-.177.193"/><path fill="#fff" d="M52.119 181.749a78 78 0 0 1-3.806-6.933c-2.003-3.852-3.544-7.057-3.451-7.111a79 79 0 0 1 3.805 6.933 77 77 0 0 1 3.451 7.111m25.229-28.112a48 48 0 0 1 2.35-5.778 50 50 0 0 1 2.72-5.608 50 50 0 0 1-2.35 5.778 49 49 0 0 1-2.72 5.608M102.1 171.88a35.6 35.6 0 0 1-3.544-3.96 36 36 0 0 1-3.228-4.214 34.4 34.4 0 0 1 3.536 3.96 35.6 35.6 0 0 1 3.236 4.214m-5.693 25.089a31 31 0 0 1 2.666-4.021 29.3 29.3 0 0 1 2.996-3.782 30 30 0 0 1-2.665 4.021 28 28 0 0 1-2.997 3.782m-7.658 35.446a7.7 7.7 0 0 1-.902-1.541 63 63 0 0 1-1.825-3.913 54 54 0 0 1-1.541-4.029 7.8 7.8 0 0 1-.493-1.726c.317.511.575 1.056.77 1.626l1.656 3.967c.64 1.471 1.21 2.804 1.71 3.952.27.53.48 1.088.625 1.664m21.724-15.068a28.5 28.5 0 0 1-4.676-.701 28 28 0 0 1-4.622-1.094c3.126.337 6.219.938 9.244 1.795zm16.948-33.118a56 56 0 0 1 4.453-5.099 58 58 0 0 1 4.76-4.838 58 58 0 0 1-4.46 5.107 59 59 0 0 1-4.753 4.83m16.948 44.165c-.085.077-2.573-2.812-5.562-6.432s-5.339-6.625-5.254-6.695c.084-.069 2.573 2.812 5.562 6.433s5.323 6.625 5.254 6.694m-105.385-18.82c.053.108-2.22 1.263-4.7 3.166s-4.206 3.782-4.298 3.698a5.5 5.5 0 0 1 1.047-1.31 23.7 23.7 0 0 1 3.005-2.704 24 24 0 0 1 3.405-2.172c.478-.3.997-.528 1.54-.678m6.349-17.042a16.4 16.4 0 0 1-1.81 3.082 16.2 16.2 0 0 1-2.15 2.866 16.6 16.6 0 0 1 1.81-3.082 16 16 0 0 1 2.15-2.866m14.298 16.734a10.18 10.18 0 0 1-1.495-6.587c.116 0 .154 1.541.578 3.336s1.025 3.197.917 3.251m2.116-53.093c-.958.334-1.954.544-2.966.624-.994.209-2.013.284-3.027.223.96-.333 1.96-.543 2.974-.624a11.8 11.8 0 0 1 3.02-.223m10.739-19.051a23.6 23.6 0 0 1-5.392 2.989 11.8 11.8 0 0 1 2.596-1.672 12.2 12.2 0 0 1 2.796-1.317m30.206 8.051a28 28 0 0 1-2.973-3.575 27.7 27.7 0 0 1-2.65-3.813 53.7 53.7 0 0 1 5.623 7.388m38.342 19.151a18.86 18.86 0 0 1-4.661-7.488c.115-.046.94 1.749 2.234 3.805s2.519 3.606 2.427 3.683m14.636 4.822a45 45 0 0 1-3.544 7.803 24 24 0 0 1 1.595-3.982 22.5 22.5 0 0 1 1.949-3.821m2.05-19.975a41 41 0 0 1-3.898-4.36 43 43 0 0 1-3.582-4.622 85.5 85.5 0 0 1 7.48 8.982m-22.356-16.225a18 18 0 0 1-.347-3.728 17.6 17.6 0 0 1 .054-3.752c.245 1.228.361 2.477.347 3.729a17 17 0 0 1-.054 3.751m18.249-1.01c-1.561.409-3.154.69-4.761.839a29 29 0 0 1-4.807.439 29.6 29.6 0 0 1 4.761-.839 29 29 0 0 1 4.807-.439m28.68 21.086a49 49 0 0 1-2.865-5.454 48 48 0 0 1-2.496-5.632 48 48 0 0 1 2.873 5.454 48 48 0 0 1 2.488 5.632m-4.799 18.218c.323-2.942.905-5.85 1.741-8.689a25 25 0 0 1-.67 4.383 24.3 24.3 0 0 1-1.071 4.306m13.28 14.36a49 49 0 0 1-2.311-5.917 49 49 0 0 1-1.903-6.055 51 51 0 0 1 2.311 5.924 50 50 0 0 1 1.903 6.048m-1.855 8.404a10.7 10.7 0 0 1-3.89-1.394 10.3 10.3 0 0 1-3.29-2.496c.077-.093 1.495 1.078 3.482 2.141s3.737 1.633 3.698 1.749m17.078 19.151a22 22 0 0 1-2.396-5.392 22 22 0 0 1 2.396 5.392m-100.754 26.717a15.3 15.3 0 0 1-.601-3.412 15.6 15.6 0 0 1-.2-3.459c.352 1.117.566 2.274.639 3.443.185 1.133.239 2.283.162 3.428m52.33-1.325c.036-1.128.204-2.247.501-3.336a14.6 14.6 0 0 1 .902-3.251 14.2 14.2 0 0 1-.509 3.336 14.3 14.3 0 0 1-.894 3.251"/><path fill="#27272E" d="M90.445 89.518c-2.696-2.996-5.392-6.016-7.388-9.529s-3.143-7.619-2.496-11.555c.385-2.311 1.372-4.546 1.541-6.934.216-3.235-1.14-6.617 0-9.645 1.787-4.745 8.174-5.477 12.04-8.75 3.013-2.55 4.477-6.688 7.789-8.83 2.897-1.879 6.618-1.833 10.015-1.355s6.848 1.348 10.269.886c2.434-.324 4.73-1.31 7.11-1.903s5.054-.77 7.172.493c2.119 1.264 3.32 4.245 1.926 6.27 3.96-1.825 8.99 1.264 10.076 5.486s-1.086 8.79-4.445 11.555-7.703 4.083-11.979 4.892c-12.125 2.311-25.291.994-35.744-5.57"/><path fill="#FFBE9D" d="M133.099 130.294c-.593-4.622-1.078-8.42-1.109-8.898 0 0 15.346-3.451 14.498-18.966-.408-7.503-2.503-22.88-4.568-36.77a28.933 28.933 0 0 0-30.568-24.65l-1.541.092c-16.062 2.026-23.326 16.801-20.861 32.81l8.674 53.67s3.698 11.872 11.61 13.928l10.014 14.268 1.649-6.163 7.442-6.487a29.3 29.3 0 0 0 3.674-5.462 12 12 0 0 0 1.086-7.372"/><path fill="#EB996E" d="M131.999 121.178s-9.746 1.449-20.6-4.398c0 0 5.531 10.839 20.908 8.412z"/><path fill="#27272E" d="M136.937 79.003a2.23 2.23 0 0 1-1.988 2.38 2.117 2.117 0 0 1-2.411-1.848 2.213 2.213 0 0 1 1.995-2.396 2.13 2.13 0 0 1 1.597.423 2.13 2.13 0 0 1 .807 1.441m2.165-5.5c-.255.308-2.019-.824-4.399-.655-2.381.17-4.021 1.472-4.33 1.21-.131-.116.116-.655.84-1.264a6.06 6.06 0 0 1 3.436-1.317 5.8 5.8 0 0 1 3.528.886c.771.493 1.048 1.001.925 1.14m-24.675 7.109a2.214 2.214 0 0 1-1.988 2.373 2.11 2.11 0 0 1-2.411-1.841 2.226 2.226 0 0 1 1.98-2.38 2.13 2.13 0 0 1 2.419 1.848m1.286-5.099c-.261.308-2.018-.824-4.398-.655-2.381.17-4.052 1.472-4.33 1.194-.138-.115.108-.654.832-1.263a6.1 6.1 0 0 1 3.444-1.317 5.8 5.8 0 0 1 3.52.886c.771.508 1.056 1.016.932 1.155m9.822 17.094c0-.139 1.448-.493 3.851-.963.601-.1 1.171-.262 1.248-.678a3.1 3.1 0 0 0-.531-1.78l-2.111-4.514c-2.935-6.425-5.107-11.733-4.845-11.848.261-.116 2.85 5 5.793 11.432l2.033 4.545c.431.708.6 1.545.478 2.365a1.54 1.54 0 0 1-.94.955 4 4 0 0 1-1.024.216c-2.435.293-3.929.4-3.952.27m-9.838-26.477c-.193.671-2.588.517-5.393 1.04-2.804.525-4.984 1.441-5.392.887-.185-.27.169-.902 1.04-1.595a9.54 9.54 0 0 1 8.189-1.464c1.086.347 1.641.825 1.556 1.133m22.063.531c-.378.57-2.057.123-4.037.223s-3.62.609-4.044.07c-.185-.262.046-.825.77-1.387a5.87 5.87 0 0 1 6.51-.231c.708.508.97 1.017.801 1.325"/><path fill="#FFBE9D" d="M91.023 85.351c-.27-.092-10.862-2.434-9.814 8.143s12.495 7.126 12.495 6.825c0-.3-2.68-14.968-2.68-14.968"/><path fill="#EB996E" d="M89.02 96.844c-.053 0-.169.147-.47.316a1.83 1.83 0 0 1-1.37.17c-1.164-.3-2.312-1.98-2.52-3.852a6.2 6.2 0 0 1 .255-2.689 2.15 2.15 0 0 1 1.248-1.54.95.95 0 0 1 1.14.4c.17.285.123.5.177.509.054.007.208-.193.085-.624a1.2 1.2 0 0 0-.486-.624 1.43 1.43 0 0 0-1.078-.216 2.6 2.6 0 0 0-1.757 1.833 6.25 6.25 0 0 0-.346 3.013c.277 2.126 1.54 4.013 3.135 4.298a1.98 1.98 0 0 0 1.664-.447c.331-.292.385-.531.324-.547"/><path fill="#27272E" d="M141.142 51.217c-.724 4.214-9.244 8.073-16.347 7.865-6.525-.192-9.753-3.428-14.491-5.731-3.004-1.456-3.004-1.456-7.079-.77-3.29.53-5 4.421-6.849 7.194 3.52 7.704 2.096 16.61.601 24.93a4.2 4.2 0 0 1-1.07 2.526c-1.187 1.048-3.082.424-4.284-.647-1.872-1.718-2.727-4.26-3.336-6.725a43.5 43.5 0 0 1-1.047-17.202 29.8 29.8 0 0 1 7.149-15.562 28.24 28.24 0 0 1 19.259-8.774 34.67 34.67 0 0 1 20.507 5.824c2.804 1.841 5.392 4.114 7.01 7.064"/><path fill="#EB996E" d="m127.1 97.938-5.393-2.511a1.8 1.8 0 0 0-.978-.247 1.54 1.54 0 0 0-.932.632 5 5 0 0 0-.601 5.508 4.225 4.225 0 0 0 5.061 1.864c1.911-.77 2.835-3.012 2.989-5.077z"/><path fill="#27272E" d="M124.426 103.584c0 .047-.255.201-.771.316a4.66 4.66 0 0 1-2.311-.169 4.8 4.8 0 0 1-2.673-2.227 4.96 4.96 0 0 1-.331-4.252 5.15 5.15 0 0 1 1.248-1.887q.402-.38.878-.663a1.4 1.4 0 0 1 .624-.192c.214-.009.427.03.624.115q.432.218.84.478l.731.454 1.318.817c1.594 1.017 2.557 1.695 2.503 1.787-.053.093-1.117-.4-2.788-1.294l-1.364-.77-.77-.424c-.262-.131-.539-.308-.771-.4a.57.57 0 0 0-.593.06q-.384.243-.708.563a4.6 4.6 0 0 0-1.048 1.603 4.34 4.34 0 0 0 .231 3.613 4.45 4.45 0 0 0 2.226 2.049c.664.267 1.373.4 2.088.393.508.023.793-.023.817.03m-1.703-24.311a19 19 0 0 0-.424-2.681 10.92 10.92 0 0 0-5.494-6.935 10.93 10.93 0 0 0-8.827-.592 10.4 10.4 0 0 0-2.75 1.487 10 10 0 0 0-2.311 2.311 10.785 10.785 0 0 0 0 12.827 10 10 0 0 0 2.311 2.31 10.4 10.4 0 0 0 2.75 1.487 10.954 10.954 0 0 0 14.321-7.526q.306-1.322.424-2.673a.7.7 0 0 1 0 .177v.524q.01.43-.062.855-.064.585-.208 1.156a10.6 10.6 0 0 1-1.194 2.98 11.15 11.15 0 0 1-13.412 4.854 10.6 10.6 0 0 1-2.843-1.54 10.5 10.5 0 0 1-2.388-2.381 11.17 11.17 0 0 1 0-13.289 10.3 10.3 0 0 1 2.381-2.38 10.6 10.6 0 0 1 2.842-1.54 11.2 11.2 0 0 1 5.893-.463 11.13 11.13 0 0 1 7.519 5.315c.548.928.95 1.933 1.194 2.982q.144.57.208 1.155.072.425.062.855v.524a.7.7 0 0 1 .008.2m26.379-1.04a19 19 0 0 0-.408-2.612 10.74 10.74 0 0 0-3.929-5.831 10.44 10.44 0 0 0-4.468-1.965 10.62 10.62 0 0 0-8.236 1.91 10.2 10.2 0 0 0-2.234 2.25 10.55 10.55 0 0 0 0 12.496 10 10 0 0 0 2.234 2.241 10.2 10.2 0 0 0 2.674 1.448 10.7 10.7 0 0 0 5.562.47 10.44 10.44 0 0 0 4.468-1.964 10.74 10.74 0 0 0 3.929-5.832q.294-1.291.408-2.611a4.4 4.4 0 0 1 0 .686q.004.42-.062.84a8 8 0 0 1-.2 1.124 10.86 10.86 0 0 1-8.474 8.089 11 11 0 0 1-5.747-.455 11.07 11.07 0 0 1-5.1-3.805 10.9 10.9 0 0 1 0-12.958 11.07 11.07 0 0 1 5.1-3.805 11 11 0 0 1 5.747-.455 10.86 10.86 0 0 1 8.474 8.089q.138.556.2 1.125.066.416.062.84.027.342 0 .685"/><path fill="#27272E" d="M127.6 75.797c-.046.039-.301-.169-.771-.392a4.4 4.4 0 0 0-1.941-.424 4.2 4.2 0 0 0-1.918.493c-.462.239-.709.462-.77.416s.138-.34.6-.663a3.78 3.78 0 0 1 4.145-.069c.47.308.655.609.655.64M101.291 77.7a49 49 0 0 1-4.823 3.853 49 49 0 0 1-5.069 3.536 46 46 0 0 1 4.83-3.852 48 48 0 0 1 5.062-3.536"/><path fill="#27272E" d="M92.163 127.837c-1.07 10.454 2.905 21.493 11.294 27.826.655.501 1.479.994 2.257.709a2.47 2.47 0 0 0 1.171-1.202 20.43 20.43 0 0 0 2.496-13.435c-1.325 3.497-2.465 6.933-3.806 10.584-7.295-4.437-11.871-13.866-13.412-24.482m28.404 23.772 6.163-2.249 1.017 10.407s6.64-12.102 9.391-17.618c2.75-5.515 1.332-15.268 1.332-15.268s.979 8.474-5.669 19.313l-5.023 8.165v-8.55z" opacity=".3"/></g><path fill="#FAFAFC" d="m181.36 54.708 4.096-7.154a19.206 19.206 0 0 1 4.789-25.474 19.21 19.21 0 1 1-.188 30.57z"/><path fill="#27272E" d="m181.36 54.708 8.697-1.984h.088l-.056-.074-.083.08a19.8 19.8 0 0 0 3.948 2.38 19.2 19.2 0 0 0 5.263 1.502c1.007.14 2.024.192 3.04.153.523-.028 1.052-.042 1.589-.084l1.622-.245a19.36 19.36 0 0 0 11.996-7.701 19.2 19.2 0 0 0 3.243-7.413 19.7 19.7 0 0 0-.227-8.54 18.96 18.96 0 0 0-4.114-7.877l-.793-.903c-.259-.292-.565-.528-.843-.797s-.556-.538-.871-.76l-.927-.686a8 8 0 0 0-.954-.63l-.973-.593-1.02-.496a10 10 0 0 0-1.028-.463 19.7 19.7 0 0 0-8.605-1.32 18.9 18.9 0 0 0-7.877 2.316 19.47 19.47 0 0 0-9.123 11.227 20.7 20.7 0 0 0-.834 6.241 19 19 0 0 0 .927 5.389 19.6 19.6 0 0 0 1.923 4.133v-.06a3864 3864 0 0 1-4.022 7.2c.204-.348 1.492-2.58 4.119-7.145v-.056a19.3 19.3 0 0 1-1.863-4.119 19 19 0 0 1-.926-5.351 20.7 20.7 0 0 1 .848-6.181 19.33 19.33 0 0 1 9.04-11.074 18.7 18.7 0 0 1 7.807-2.317 19.4 19.4 0 0 1 8.498 1.311q.521.203 1.014.464l1.01.49.973.603q.485.279.927.621l.927.681c.31.223.57.5.857.75.287.251.579.501.834.789l.774.847a18.8 18.8 0 0 1 4.068 7.799c.696 2.76.774 5.639.227 8.432a18.9 18.9 0 0 1-3.197 7.335 19.18 19.18 0 0 1-11.852 7.64l-1.604.25c-.532.043-1.056.061-1.575.089a17.4 17.4 0 0 1-3.012-.14 19.1 19.1 0 0 1-5.235-1.454 19.6 19.6 0 0 1-3.934-2.344l-.357-.274.273.357.033-.093z"/><path fill="#27272E" d="M206.956 36.688a1.853 1.853 0 1 0 3.707-.045 1.853 1.853 0 0 0-3.707.045m-7.502 0a1.858 1.858 0 0 0 2.229 1.792 1.854 1.854 0 1 0-2.229-1.792m-7.484-.936a1.854 1.854 0 1 0 3.23 1.816 1.854 1.854 0 0 0-3.23-1.816"/></g><defs><clipPath id="man-talking_svg__a"><path fill="#fff" d="M.932 0h240v240h-240z"/></clipPath></defs></svg>