<svg xmlns="http://www.w3.org/2000/svg" width="241" height="240" fill="none" viewBox="0 0 241 240"><g clip-path="url(#man-money_svg__a)"><circle cx="120.932" cy="140" r="100" fill="#EEEBFF"/><mask id="man-money_svg__b" width="241" height="240" x="0" y="0" maskUnits="userSpaceOnUse" style="mask-type:alpha"><path fill="#fff" fill-rule="evenodd" d="M240.932 0h-240v140h20c0 55.228 44.772 100 100 100s100-44.772 100-100h20z" clip-rule="evenodd"/></mask><g mask="url(#man-money_svg__b)"><path fill="#27272E" d="M94.688 39.022a56 56 0 0 1-3.607-10.347c-.86-3.587-.639-7.35.637-10.811a11.32 11.32 0 0 1 7.911-6.962c2.213-.434 4.587-.07 6.709-.848 2.455-.91 4.092-3.163 6.002-4.951A19.1 19.1 0 0 1 123.303.11a11.34 11.34 0 0 1 6.285.91A6.37 6.37 0 0 1 133.195 6a30.3 30.3 0 0 1 7.679-1.848 10.18 10.18 0 0 1 7.396 2.192 6.2 6.2 0 0 1 1.708 7.154 5.05 5.05 0 0 1 6.507 1.839 6.52 6.52 0 0 1-.415 7.073 12.13 12.13 0 0 1-7.265 4.173c-2.465.343-5.334.576-7.689-.212"/><path fill="#B78876" d="m99.415 95.172 19.034 13.242 18.207-13.242c.223-4.132-.642-7.904-.642-7.904s14.712-2.293 14.893-17.005-2.364-48.5-2.364-48.5a51.14 51.14 0 0 0-51.39 6.457l-2.181 1.678z"/><path fill="#AA6550" d="M136.044 87.056a34.2 34.2 0 0 1-19.197-5.456s5.148 10.758 19.809 9.435z"/><path fill="#B78876" d="M96.79 45.145c-.243-.111-10.105-3.031-9.781 7.073s10.346 7.669 10.356 7.376-.575-14.449-.575-14.449"/><path fill="#AA6550" d="M94.174 55.845s-.172.122-.465.273c-.41.189-.877.21-1.303.06-1.082-.353-2.021-2.02-2.132-3.819a5.8 5.8 0 0 1 .404-2.526 2.02 2.02 0 0 1 1.283-1.384.9.9 0 0 1 1.01.445c.142.273.081.475.132.495.05.02.212-.182.121-.586-.064-.25-.21-.47-.414-.627a1.37 1.37 0 0 0-1.01-.222 2.48 2.48 0 0 0-1.779 1.617 5.86 5.86 0 0 0-.515 2.829c.121 2.02 1.222 3.89 2.687 4.264a1.86 1.86 0 0 0 1.597-.324c.374-.222.424-.495.384-.495"/><path fill="#27272E" d="M143.723 44.57a2.1 2.1 0 0 1-2.02 2.11 2.02 2.02 0 0 1-2.173-1.889 2.107 2.107 0 0 1 2.021-2.121 2.02 2.02 0 0 1 2.172 1.9m2.041-2.112c-.263.282-1.849-.9-4.113-.89-2.263.01-3.92 1.132-4.162.86-.243-.273.141-.617.869-1.152a5.8 5.8 0 0 1 3.334-1.01 5.62 5.62 0 0 1 3.274 1.01c.687.565.929 1.06.798 1.182m-24.269 2.112a2.1 2.1 0 0 1-2.021 2.11 2.02 2.02 0 0 1-2.173-1.889 2.107 2.107 0 0 1 2.021-2.121 2.02 2.02 0 0 1 1.971 1.127c.118.241.186.504.202.772"/><path fill="#27272E" d="M123.535 42.883c-.263.272-1.849-.9-4.113-.9-2.263 0-3.92 1.142-4.162.86-.122-.122.141-.617.869-1.143a5.7 5.7 0 0 1 3.334-1.01 5.55 5.55 0 0 1 3.274 1.01c.687.566.929 1.061.798 1.183m8.204 16.772a14.8 14.8 0 0 1 3.678-.667c.576-.06 1.121-.172 1.222-.566a3.03 3.03 0 0 0-.383-1.707l-1.708-4.406c-2.375-6.254-4.092-11.407-3.84-11.498.253-.091 2.385 4.91 4.749 11.114q.859 2.314 1.637 4.426a3.32 3.32 0 0 1 .303 2.263 1.44 1.44 0 0 1-.95.849c-.329.09-.669.134-1.01.131-1.225.18-2.468.2-3.698.06m-6.648 1.566c.364 0 .374 2.425 2.476 4.173s4.708 1.475 4.729 1.819c0 .151-.586.475-1.688.505a6.13 6.13 0 0 1-3.95-1.384 5.32 5.32 0 0 1-1.92-3.496c-.091-1.03.182-1.637.353-1.617m19.845-22.735c-.404.506-1.96 0-3.829 0s-3.466.344-3.83-.192c-.161-.262.091-.778.788-1.263a5.55 5.55 0 0 1 6.164.192c.667.435.879 1.01.707 1.263m-24.341-3.777c-.253.283-.828.162-1.586 0a14 14 0 0 0-5.598-.182c-.768.091-1.354.172-1.586-.121-.233-.293 0-.92.788-1.566a5.95 5.95 0 0 1 7.305.242c.738.718.92 1.374.677 1.627"/><path fill="#27272E" d="M149.281 26.28a34.53 34.53 0 0 1-21.441-1.091c-7.628-2.89-16.267-3.8-17.985-2.153s-1.354 9.165-8.326 12.075c0 0 1.94 14.216-3.799 14.277s-4.415-22.39-4.415-22.39l13.226-8.205 14.873-4.375 14.227-1.435 13.64 2.728z"/><path fill="#B78876" d="M188.012 144.052s25.624 26.381 34.657 22.461c24.563-10.609 44.528-33.081 51.399-41.134a75 75 0 0 0 .839-5.415c.212-1.833.11-3.689-.303-5.487a25 25 0 0 0-2.163-6.527c-1.121-1.809.495-3.981 2.264-3.244 1.768.738 6.062 5.517 6.961 12.247a2.758 2.758 0 0 0 3.82 1.748c4.445-1.466 19.551-7.326 22.228-7.952 2.395-.556 5.255-.415 3.658 1.333s-12.731 8.265-12.731 8.265 14.429-8.83 15.621-6.668c.818 1.495-2.223 4.931-12.347 9.821 0 0 11.943-7.184 13.984-6.952 4.587.536-9.7 9.326-9.7 9.326 10.104-6.062 9.589-6.476 10.68-5.294.818.879-.95 2.89-5.911 6.931-4.042 3.284-7.538 7.487-13.398 12.812 0 0-60.624 84.318-98.767 58.442-20.562-13.954-26.21-20.986-37.88-31.555"/><path fill="#1900AF" d="m218.243 166.592-42.265-47.166c-11.772-11.569-18.056-15.024-34.435-16.964-2.678-.314-4.809-.516-6.335-.708a62.55 62.55 0 0 1-37.719 0c-5.83.243-10.66 2.021-15.61 3.032-15.621 3.031-26.857 14.368-29.979 24.866L16.667 198.47l29.757 25.008 27.18-43.144 1.656 45.922-1.687 34.354 104.324.303-4.738-80.559 28.079 22.855z"/><path fill="#27272E" d="M74.079 151.426a6.5 6.5 0 0 1 .131 1.536c0 1.01.07 2.405.101 4.173 0 3.516.07 8.386 0 13.762-.07 5.375-.09 10.245-.172 13.761 0 1.768-.09 3.193-.131 4.173a6.2 6.2 0 0 1-.151 1.526 6 6 0 0 1-.142-1.526c0-1.01-.07-2.415-.101-4.173a516 516 0 0 1 0-13.772c.07-5.385.09-10.235.172-13.761 0-1.758.09-3.183.141-4.173a5.7 5.7 0 0 1 .152-1.526m100.846 59.04a16 16 0 0 1-.303-2.365c-.151-1.657-.343-3.839-.586-6.466-.454-5.466-1.01-13.024-1.616-21.37a1626 1626 0 0 1-1.415-21.33c-.131-2.637-.252-4.83-.333-6.487a14.4 14.4 0 0 1 0-2.384c.168.778.273 1.569.313 2.364.151 1.657.343 3.84.576 6.467.454 5.466 1.01 13.024 1.627 21.37.616 8.346 1.081 15.904 1.404 21.38.141 2.637.253 4.83.344 6.487q.086 1.167-.011 2.334"/><path fill="#E6E6F0" d="M190.395 135.302c0 .141-31.656.263-70.729.263s-70.728-.122-70.728-.263 31.656-.263 70.728-.263c39.073 0 70.729.111 70.729.263m10.922 41.91c0 .152-38.577.263-86.147.263s-86.157-.111-86.157-.263c0-.151 38.567-.262 86.157-.262s86.147.171 86.147.262m-25.542 47.793c0 .151-22.4.263-50.035.263s-50.035-.112-50.035-.263 22.4-.263 50.035-.263 50.035.121 50.035.263" opacity=".3"/><path fill="#E6E6F0" d="M86.9 260.802c-.14 0-.262-35.202-.262-78.609s.121-78.63.262-78.63.243 35.162.243 78.61-.09 78.629-.243 78.629m60.465.011v-1.607c0-1.071 0-2.617-.051-4.587 0-4.042-.081-9.791-.131-16.894-.132-14.297-.314-33.99-.505-55.744-.192-21.754-.334-41.487-.344-55.754v-16.894c0-2.021 0-3.516.05-4.587v-1.203a2.3 2.3 0 0 1 0-.404v1.607c0 1.071 0 2.617.051 4.587 0 4.042.081 9.781.131 16.894.132 14.287.314 33.99.506 55.754s.333 41.427.343 55.734v22.694a2 2 0 0 1-.05.404m42.768-67.201c-.141 0-.263-12.731-.263-28.432 0-15.702.122-28.433.263-28.433s.263 12.721.263 28.433-.111 28.432-.263 28.432m-150.558 11.65c-.152 0-.263-12.004-.263-26.816 0-14.813.111-26.827.263-26.827s.263 12.004.263 26.827c0 14.822-.121 26.816-.263 26.816" opacity=".3"/><path fill="#1900AF" d="m93.59 103.139 5.758-12.105 18.865 13.297 18.611-12.508 6.548 10.629-18.652 12.125h-12.469l-18.662-10.033"/><path fill="#27272E" d="M118.213 104.373a1.4 1.4 0 0 1-.353.101 3.7 3.7 0 0 0-1.011.273 5.93 5.93 0 0 0-2.809 2.374 30 30 0 0 0-2.596 5.052c-.445 1.011-.889 2.021-1.455 3.102a11.6 11.6 0 0 1-2.173 3.031l-.182.172-.181-.192-1.071-1.111c-3.739-3.921-6.922-7.649-9.094-10.417-1.111-1.385-2.02-2.516-2.566-3.315a7.7 7.7 0 0 1-.87-1.273q.562.521 1.01 1.142l2.689 3.213a237 237 0 0 0 9.225 10.286l1.071 1.111h-.364a10.8 10.8 0 0 0 2.081-2.899c.556-1.011 1.011-2.072 1.465-3.032a29 29 0 0 1 2.739-5.052 5.94 5.94 0 0 1 3.031-2.354 3.4 3.4 0 0 1 1.01-.182c.273-.091.404-.091.404-.03m24.825-1.688a7 7 0 0 1-.92 1.213 62 62 0 0 1-2.779 3.091 75 75 0 0 1-10.397 8.932 84 84 0 0 1-2.425 1.647l-.363.233v-.445a23.8 23.8 0 0 0-1.536-6.204 16 16 0 0 0-2.496-4.466 6.2 6.2 0 0 0-2.677-2.021c-.748-.252-1.203-.282-1.193-.333.01-.05.111 0 .324 0q.474.015.929.152a6.2 6.2 0 0 1 2.88 1.97 15.7 15.7 0 0 1 2.667 4.526 24 24 0 0 1 1.627 6.356l-.404-.202c.778-.526 1.586-1.071 2.405-1.647a84 84 0 0 0 10.427-8.76c1.253-1.223 2.223-2.254 2.9-2.961q.47-.583 1.031-1.081m-17.652 158.128v-1.586c0-1.061 0-2.587-.061-4.537 0-3.971-.111-9.669-.202-16.702a1791 1791 0 0 0-1.637-55.057c-.98-21.491-2.334-40.921-3.415-54.976-.566-7.012-1.01-12.69-1.333-16.651-.152-1.94-.273-3.456-.364-4.517 0-.505-.061-.889-.071-1.182a1.7 1.7 0 0 1 0-.404s0 .131.061.394c.06.263.07.687.131 1.182.111 1.061.263 2.577.455 4.517.394 3.92.909 9.598 1.505 16.631a1486 1486 0 0 1 3.567 54.986c.99 21.502 1.374 40.972 1.485 55.077.061 7.073.061 12.762 0 16.702v5.719a2 2 0 0 1-.121.404"/><path fill="#27272E" d="M117.77 104.371c2.293 1.304 3.142 4.204 3.152 6.831s-.616 5.254-.394 7.881a4.47 4.47 0 0 0 1.758 3.567c1.597 1.01 3.628.06 5.264-.839 3.517-1.93 7.073-3.9 9.953-6.709a14.38 14.38 0 0 0 4.041-10.761c-4.849 5.204-9.74 8.346-15.044 12.448a22 22 0 0 0-2.668-7.871c-1.374-2.384-3.324-4.85-6.062-4.547m-17.329 5.983c1.789 3.506 3.668 7.073 6.75 9.568 1.364 1.082 3.364 1.9 4.789.89 1.142-.819 1.334-2.405 1.425-3.81.242-3.556 1.293-7.648 1.536-11.215-2.819 3.183-4.365 8.79-7.336 12.64-3.031-1.91-4.779-5.173-6.962-8.012m91.582 84.894L206.3 169.13c-4.163.414-6.962 4.344-9.094 7.941s-4.749 7.589-8.882 8.306c-2.869.495-5.739-.788-8.244-2.284s-4.931-3.263-7.781-3.89zm-123.644-7.074s-9.8 10.316-16.409 11.831a24.03 24.03 0 0 1-19.319-4.041 3.6 3.6 0 0 0-1.465-.778 1.104 1.104 0 0 0-1.283.788 1.6 1.6 0 0 0 .687 1.243 308 308 0 0 0 21.057 17.904zm46.155-70.321a1037 1037 0 0 0-7.285 89.461c-.172 4.678-.293 9.498 1.374 13.873 1.94 5.052 6.063 8.992 10.104 12.69 1.708 1.577 4.042 3.274 6.123 2.294a5.7 5.7 0 0 0 1.971-1.839c2.526-3.253 4.89-6.77 5.83-10.791 2.93-12.59-8.953-25.048-6.275-37.698" opacity=".2"/><path fill="#555567" d="m113.778 107.576 8.922-.232 2.384 4.799-2.859 8.023h-7.285l-3.86-7.184z"/><path fill="#555567" d="m114.94 120.165-4.173 102.112 12.125 13.185 11.205-15.924-11.872-99.373z"/><path fill="#27272E" d="M121.8 120.307a17.6 17.6 0 0 1-3.375 0 17.4 17.4 0 0 1-3.364-.111 12.3 12.3 0 0 1 6.739.111m1.919-11.236a6 6 0 0 1-1.132 1.546 25 25 0 0 1-3.355 3.172 25.3 25.3 0 0 1-3.849 2.526c-.543.347-1.141.6-1.768.748-.071-.141 2.515-1.475 5.294-3.688s4.688-4.415 4.81-4.304m-.395 21.067a39.5 39.5 0 0 1-4.355 4.689 38.6 38.6 0 0 1-4.738 4.314 39 39 0 0 1 4.365-4.688 38 38 0 0 1 4.728-4.315"/><path fill="#E6E6F0" d="M123.941 137.493a48 48 0 0 1-4.88 5.194 47.6 47.6 0 0 1-5.244 4.829 48.5 48.5 0 0 1 4.88-5.203 48 48 0 0 1 5.244-4.82"/><path fill="#27272E" d="M125.094 144.284a65 65 0 0 1-5.678 6.001 66 66 0 0 1-6.063 5.638 64 64 0 0 1 5.679-6.011 63 63 0 0 1 6.062-5.628"/><path fill="#E6E6F0" d="M125.892 151.437a80 80 0 0 1-6.194 6.527 79 79 0 0 1-6.557 6.143 76 76 0 0 1 6.183-6.517 77 77 0 0 1 6.568-6.153"/><path fill="#27272E" d="M126.65 158.641a92 92 0 0 1-6.689 7.012 88 88 0 0 1-7.073 6.649 91 91 0 0 1 6.689-7.073 86 86 0 0 1 7.073-6.588"/><path fill="#E6E6F0" d="M127.559 165.685c.111.101-3.193 3.546-7.356 7.699s-7.639 7.427-7.74 7.326a104 104 0 0 1 7.366-7.7c4.163-4.152 7.618-7.426 7.73-7.325"/><path fill="#27272E" d="M128.316 172.878c.101.102-3.445 3.789-7.911 8.245s-8.175 7.962-8.276 7.861 3.436-3.789 7.902-8.234 8.174-7.973 8.285-7.872"/><path fill="#E6E6F0" d="M129.205 179.95c.101.101-3.688 4.042-8.457 8.781-4.769 4.738-8.72 8.507-8.821 8.406s3.678-4.041 8.457-8.78 8.71-8.508 8.821-8.407"/><path fill="#27272E" d="M129.762 187.346c.101.101-3.92 4.274-8.982 9.306s-9.245 9.043-9.356 8.942 3.92-4.274 8.982-9.306 9.255-9.063 9.356-8.942"/><path fill="#E6E6F0" d="M130.741 194.298c.101.101-4.143 4.496-9.478 9.811s-9.76 9.548-9.861 9.447 4.142-4.496 9.487-9.821 9.751-9.518 9.852-9.437"/><path fill="#27272E" d="M132.287 200.724c.101.111-4.648 5.002-10.599 10.933s-10.872 10.67-10.973 10.569 4.638-5.002 10.599-10.943 10.872-10.66 10.973-10.559"/><path fill="#E6E6F0" d="M114.565 226.409c-.101-.101 3.911-4.304 8.973-9.387 5.062-5.082 9.235-9.093 9.346-9.012s-3.92 4.304-8.972 9.386-9.245 9.114-9.347 9.013"/><path fill="#27272E" d="M119.203 231.056c-.101-.101 3.031-3.577 7.073-7.77a102 102 0 0 1 7.416-7.406 104 104 0 0 1-7.073 7.77 103 103 0 0 1-7.416 7.406"/><path fill="#E6E6F0" d="M122.427 123.297a31.4 31.4 0 0 1-3.86 4.193 31 31 0 0 1-4.234 3.829 32 32 0 0 1 3.86-4.203 31 31 0 0 1 4.234-3.819"/><path fill="#27272E" d="M51.233 214.76a9 9 0 0 1-1.253-.9c-.788-.606-1.95-1.434-3.405-2.465a50 50 0 0 1-4.9-3.88l-5.648-5.133a753 753 0 0 1-10.185-9.437l-3.032-2.91a7.6 7.6 0 0 1-1.01-1.111q.647.451 1.202 1.01l3.163 2.779c2.647 2.364 6.275 5.658 10.276 9.316 2.02 1.838 3.88 3.576 5.607 5.173a54 54 0 0 0 4.81 3.94c1.425 1.071 2.556 1.961 3.314 2.607q.578.454 1.061 1.011m-2.688 2.353a8 8 0 0 1-1.314-.748 81 81 0 0 1-3.425-2.243c-2.87-1.94-6.76-4.738-10.882-8.083-4.123-3.344-7.71-6.487-10.225-8.861-1.264-1.182-2.274-2.162-2.94-2.86a7.6 7.6 0 0 1-1.011-1.111q.62.46 1.162 1.01l3.031 2.729a271 271 0 0 0 10.306 8.729 245 245 0 0 0 10.771 8.144l3.324 2.375q.64.408 1.203.919"/><path fill="#E6E6F0" d="M30.561 197.057a22.7 22.7 0 0 1-3.223 3.587 22.4 22.4 0 0 1-3.597 3.223 44.7 44.7 0 0 1 6.82-6.81m15.831 14.186a25 25 0 0 1-3.486 3.719 25.5 25.5 0 0 1-3.85 3.344 24.2 24.2 0 0 1 3.486-3.718 25 25 0 0 1 3.85-3.345" opacity=".3"/><path fill="#E6E6F0" d="M106.672 96.744a44 44 0 0 1-3.445 5.82 43 43 0 0 1-3.88 5.537 45.4 45.4 0 0 1 3.445-5.82 42 42 0 0 1 3.88-5.537m29.981 11.731a44 44 0 0 1-3.031-5.971 42 42 0 0 1-2.557-6.194 84 84 0 0 1 5.598 12.125z" opacity=".5"/><path fill="#1900AF" d="M202.581 200.766a3.22 3.22 0 0 1-3.355 1.909c-1.475-.161-2.819-1.01-4.304-1.121-.839-.091-1.799 0-2.425-.576a2.67 2.67 0 0 1-.455-2.475c.94-5.588 3.971-10.59 7.225-15.227s6.82-9.094 9.093-14.318c1.273-2.93 2.486-6.426 5.507-7.477a5.12 5.12 0 0 1 6.315 3.234c.758 2.505-.546 5.112-1.809 7.396z"/><path fill="#27272E" d="M212.685 166.695a8.7 8.7 0 0 1-.475 1.424c-.333.9-.848 2.193-1.495 3.779a274 274 0 0 1-5.426 12.267 236 236 0 0 1-6.062 11.983 119 119 0 0 1-1.971 3.547 8.3 8.3 0 0 1-.798 1.263q.253-.703.617-1.354l1.828-3.638a454 454 0 0 0 5.891-12.024c2.233-4.728 4.183-9.093 5.567-12.195.667-1.496 1.223-2.738 1.647-3.708q.278-.704.677-1.344m-1.696-5.598a9 9 0 0 1-.768 1.364l-2.193 3.617a271 271 0 0 0-6.951 12.125 353 353 0 0 0-6.376 12.398l-1.839 3.809a9.6 9.6 0 0 1-.728 1.374q.2-.753.536-1.455c.384-.93.96-2.253 1.697-3.88a201 201 0 0 1 6.245-12.499 217 217 0 0 1 7.073-12.034c1.01-1.505 1.768-2.707 2.334-3.526.277-.463.602-.897.97-1.293"/></g><path fill="#fff" d="M216.757 57.719a3.4 3.4 0 0 1-.614-1.175 3.7 3.7 0 0 1-.133-1.362c.041-.46.167-.905.371-1.303.203-.399.478-.742.807-1.007 1.224-.907 3.215.148 4.002 1.557.378.678.506 1.5.358 2.287s-.562 1.474-1.15 1.91c-1.223.89-2.655.3-3.641-.907" opacity=".4"/><path fill="#098500" d="M211.798 19.385s-6.261 3.752-13.15-1.986c-4.257-3.567-13.326-9.076-16.136-5.757l-3.504 12.753c4.519 1.123 8.771 3.37 12.458 6.582 5.459 4.971 16.403 4.798 16.403 4.798z"/><path fill="#fff" d="M192.365 29.378a6 6 0 0 1-1.736-1.837 7 7 0 0 1-.922-2.498 7.4 7.4 0 0 1 .054-2.715 6.9 6.9 0 0 1 1.022-2.447c1.882-2.545 6.194-1.846 8.4.313 1.057 1.044 1.712 2.528 1.82 4.128s-.338 3.183-1.242 4.403c-1.878 2.521-4.895 2.343-7.396.653" opacity=".4"/><path fill="#098500" d="M192.497 26.886c.058-.085.269-.006.614.154a5.6 5.6 0 0 0 1.402.521c.297.063.603.052.897-.033.275-.059.519-.237.683-.499.075-.13.122-.279.138-.434a1.2 1.2 0 0 0-.047-.46 1.53 1.53 0 0 0-.781-.746c-.211-.123-.45-.238-.689-.397a2.9 2.9 0 0 1-.747-.646 2.2 2.2 0 0 1-.298-.496 2.3 2.3 0 0 1-.14-.6 2.24 2.24 0 0 1 .155-1.157c.131-.327.335-.608.59-.815a1.63 1.63 0 0 1 .773-.36c.44-.079.889-.035 1.31.127q.479.19.892.524.299.234.556.527c.284.312.403.53.354.612-.048.081-.266.015-.62-.142a6 6 0 0 0-1.404-.531 1.8 1.8 0 0 0-.857.042.74.74 0 0 0-.333.199.9.9 0 0 0-.211.358.8.8 0 0 0-.026.385q0 .094.041.176.051.094.117.174a4.2 4.2 0 0 0 1.139.758q.415.226.766.562.197.195.352.436c.108.164.193.348.251.543.109.361.137.747.083 1.124a2.5 2.5 0 0 1-.389 1.034 2.2 2.2 0 0 1-.645.62c-.248.154-.521.25-.802.282a2.45 2.45 0 0 1-1.279-.16 3.7 3.7 0 0 1-1.456-1.048c-.331-.386-.451-.615-.389-.634"/><path fill="#098500" d="M194.549 29.58c-.159-.062.302-2.179 1.031-4.756s1.467-4.58 1.635-4.521-.3 2.19-1.04 4.759c-.741 2.57-1.46 4.61-1.626 4.518m-.832-.553c-.159-.062.248-1.996.923-4.312.674-2.316 1.344-4.154 1.506-4.082s-.249 1.996-.923 4.312c-.675 2.317-1.338 4.141-1.506 4.082"/><path fill="#fff" d="m180.415 23.615 3.219-11.622.099-.03c4.973-1.136 11.258 3.868 15.425 7.174.71.569 1.392 1.101 1.99 1.604 1.34.935 2.862 1.464 4.426 1.54a8.3 8.3 0 0 0 4.522-1.107l.336.162-3.29 12.598-.107.034c-2.985.452-6.02.181-8.909-.795s-5.57-2.636-7.871-4.874c-3.106-3.135-9.554-4.572-9.624-4.584zm3.5-11.242-3.017 10.916c1.15.266 6.684 1.708 9.589 4.639 2.243 2.19 4.856 3.82 7.675 4.788a18.56 18.56 0 0 0 8.697.829l3.045-11.746a6.3 6.3 0 0 1-.972.411 8.7 8.7 0 0 1-4.104.424 9.1 9.1 0 0 1-3.902-1.524 53 53 0 0 1-2.008-1.599c-4.077-3.246-10.193-8.102-15.003-7.138" opacity=".5"/><path fill="#098500" d="M185.59 34.043s-2.944 1.765-6.185-.934c-2.002-1.678-6.267-4.269-7.589-2.708l-1.648 5.999c2.125.528 4.125 1.584 5.859 3.096 2.568 2.337 7.715 2.256 7.715 2.256z"/><path fill="#fff" d="M176.45 38.743a2.8 2.8 0 0 1-.816-.864 3.3 3.3 0 0 1-.434-1.175 3.5 3.5 0 0 1 .025-1.277c.088-.418.252-.81.481-1.15.885-1.197 2.913-.869 3.951.147.497.49.805 1.189.856 1.941a3.14 3.14 0 0 1-.584 2.071c-.884 1.186-2.302 1.102-3.479.307" opacity=".4"/><path fill="#098500" d="M176.512 37.571c.027-.04.127-.002.289.073q.318.168.659.245a.9.9 0 0 0 .422-.016.5.5 0 0 0 .386-.44.5.5 0 0 0-.022-.215.72.72 0 0 0-.367-.35c-.099-.059-.211-.113-.324-.188a1.3 1.3 0 0 1-.351-.303 1 1 0 0 1-.141-.233 1 1 0 0 1-.065-.283 1.06 1.06 0 0 1 .072-.544.95.95 0 0 1 .278-.383.77.77 0 0 1 .364-.17c.206-.037.418-.016.616.06q.225.09.419.246.14.111.262.248c.133.147.189.25.166.288s-.125.008-.291-.066a2.8 2.8 0 0 0-.661-.25.8.8 0 0 0-.403.02.34.34 0 0 0-.156.093.4.4 0 0 0-.1.168.4.4 0 0 0-.012.181q0 .045.019.083a.5.5 0 0 0 .056.082q.243.226.535.357.195.106.361.264.092.092.165.205a1 1 0 0 1 .118.255c.051.17.064.352.039.53a1.2 1.2 0 0 1-.183.486q-.126.18-.303.29a.9.9 0 0 1-.377.134 1.15 1.15 0 0 1-.602-.076 1.74 1.74 0 0 1-.685-.492c-.155-.182-.212-.29-.183-.299"/><path fill="#098500" d="M177.477 38.838c-.074-.029.142-1.025.485-2.237s.69-2.154.769-2.126-.141 1.03-.489 2.238c-.348 1.209-.687 2.169-.765 2.125m-.391-.26c-.075-.029.117-.939.434-2.028.317-1.09.632-1.954.708-1.92s-.117.94-.434 2.028c-.317 1.09-.629 1.948-.708 1.92"/><path fill="#fff" d="m170.83 36.033 1.514-5.466.046-.015c2.339-.534 5.295 1.82 7.255 3.375.334.267.655.518.936.754.63.44 1.346.689 2.082.724a3.9 3.9 0 0 0 2.127-.52l.158.076-1.547 5.925-.051.016a8.9 8.9 0 0 1-4.19-.374 9.8 9.8 0 0 1-3.702-2.292c-1.461-1.474-4.494-2.15-4.526-2.156zm1.646-5.288-1.419 5.134c.541.126 3.144.804 4.51 2.182a9.7 9.7 0 0 0 3.61 2.252 8.7 8.7 0 0 0 4.091.39l1.432-5.525a3 3 0 0 1-.458.194 4.1 4.1 0 0 1-1.93.2 4.3 4.3 0 0 1-1.835-.718c-.28-.21-.602-.466-.945-.751-1.917-1.527-4.794-3.811-7.056-3.358" opacity=".5"/><path fill="#098500" d="M212.073 42.319s-2.945 1.765-6.185-.934c-2.002-1.678-6.268-4.269-7.589-2.708l-1.648 5.999c2.125.528 4.125 1.584 5.859 3.095 2.568 2.338 7.715 2.257 7.715 2.257z"/><path fill="#fff" d="M202.933 47.019a2.8 2.8 0 0 1-.816-.864 3.3 3.3 0 0 1-.434-1.175 3.5 3.5 0 0 1 .025-1.277c.087-.418.251-.81.481-1.15.885-1.197 2.913-.869 3.951.147.497.49.805 1.189.856 1.941a3.14 3.14 0 0 1-.584 2.07c-.884 1.187-2.303 1.103-3.479.308" opacity=".4"/><path fill="#098500" d="M202.995 45.847c.027-.04.126-.002.289.073q.317.167.659.245a.9.9 0 0 0 .422-.016.5.5 0 0 0 .321-.235.54.54 0 0 0 .043-.42.72.72 0 0 0-.367-.35c-.1-.059-.212-.113-.324-.188a1.4 1.4 0 0 1-.352-.303 1 1 0 0 1-.14-.234 1 1 0 0 1-.065-.282 1.05 1.05 0 0 1 .35-.928.76.76 0 0 1 .363-.17 1.15 1.15 0 0 1 .617.061q.224.09.419.246.14.111.262.248c.133.147.189.25.166.288s-.125.007-.292-.066a2.8 2.8 0 0 0-.66-.25.8.8 0 0 0-.403.02.35.35 0 0 0-.157.093.4.4 0 0 0-.099.168.4.4 0 0 0-.012.181q0 .045.019.083.025.045.055.082.245.226.536.357.194.106.36.264.093.092.166.205a1 1 0 0 1 .118.255c.051.17.064.352.039.529a1.2 1.2 0 0 1-.183.486q-.126.181-.303.292a.9.9 0 0 1-.378.133 1.15 1.15 0 0 1-.601-.076 1.7 1.7 0 0 1-.685-.492c-.156-.182-.212-.29-.183-.299"/><path fill="#098500" d="M203.569 46.854c-.075-.03.116-.939.434-2.028.317-1.09.632-1.954.708-1.92s-.117.939-.434 2.028c-.317 1.09-.629 1.948-.708 1.92"/><path fill="#fff" d="m197.313 44.309 1.514-5.466.046-.015c2.339-.534 5.295 1.82 7.255 3.375.334.267.655.518.936.754.63.44 1.346.689 2.082.724a3.9 3.9 0 0 0 2.127-.52l.158.076-1.547 5.925-.051.016a8.9 8.9 0 0 1-4.19-.374 9.8 9.8 0 0 1-3.702-2.292c-1.461-1.475-4.494-2.15-4.527-2.156zm1.646-5.288-1.419 5.134c.54.126 3.143.804 4.51 2.182a9.7 9.7 0 0 0 3.609 2.252 8.7 8.7 0 0 0 4.091.39l1.433-5.525a3 3 0 0 1-.458.194 4.1 4.1 0 0 1-1.93.2 4.3 4.3 0 0 1-1.835-.718c-.28-.21-.602-.466-.945-.752-1.917-1.526-4.794-3.81-7.056-3.357" opacity=".5"/></g><defs><clipPath id="man-money_svg__a"><path fill="#fff" d="M.932 0h240v240h-240z"/></clipPath></defs></svg>