<svg xmlns="http://www.w3.org/2000/svg" width="205" height="242" fill="none" viewBox="0 0 205 242"><ellipse cx="92.935" cy="149.303" fill="#EEEBFF" rx="92.308" ry="92.352"/><mask id="man-run_svg__a" width="186" height="186" x="0" y="56" maskUnits="userSpaceOnUse" style="mask-type:alpha"><ellipse cx="92.935" cy="149.303" fill="#D9D9D9" rx="92.308" ry="92.352"/></mask><g mask="url(#man-run_svg__a)"><path fill="#B78876" d="m105.889 209.144 30.369 9.697-7.923 20.671s-34.585-1.092-40.416-2.354-5.723-10.775-5.723-10.775z"/><path fill="#B78876" d="m133.258 220.411 9.847-11.021 11.2.139s8.123 3.263 9.723 3.232a3.26 3.26 0 0 1-2.062 2.709s3.969 0 4.846 1.339c.877 1.34-.631 4.002-1.892 5.542.313 1.273.432 2.585.354 3.894a6.7 6.7 0 0 1-1.385 3.663l-2.261 1.216a3.08 3.08 0 0 1 .784 3.325 9 9 0 0 1-3.261 3.371s2.061.846 1.415 2.555c-.646 1.708-1.215 2.509-2.523 3.078-1.308.57-13.431 2.17-16.046 1.539s-13.585-5.372-13.585-5.372z"/><path fill="#995037" d="M165.058 222.857c0 .123-1.692-.215-4.415-.477a48 48 0 0 0-4.769-.215h-2.831a4.5 4.5 0 0 1-3.169-.77 2.34 2.34 0 0 1-.862-1.539 2.77 2.77 0 0 1 .431-1.662 3.96 3.96 0 0 1 2.523-1.74 15 15 0 0 1 2.6-.338l2.246-.17a24.5 24.5 0 0 1 4.446-.154 24.7 24.7 0 0 1-4.4.708c-1.338.216-3.077.262-4.708.678a3.16 3.16 0 0 0-2.03 1.416 1.675 1.675 0 0 0 .261 2.262 3.8 3.8 0 0 0 2.631.601h2.862c1.622.022 3.241.155 4.846.4 1.487.121 2.948.458 4.338 1"/><path fill="#995037" d="M161.704 230.215c0 .108-1.277-.154-3.323-.323a32.8 32.8 0 0 1-8-1.278 17 17 0 0 1-2.246-.738 2.1 2.1 0 0 1-.969-.908 3.4 3.4 0 0 1-.246-1.155 2.4 2.4 0 0 1 .107-1.124c.101-.327.257-.634.462-.908a4.6 4.6 0 0 1 1.261-1.277 4.4 4.4 0 0 1 2.416-.77c.6 0 .923.123.907.17a6.14 6.14 0 0 0-2.984 1.062 4 4 0 0 0-1.046 1.169 3.2 3.2 0 0 0-.354.77c-.049.28-.049.566 0 .847.031.3.104.596.215.877.136.246.354.437.616.539q1.042.396 2.123.677a44 44 0 0 0 7.861 1.539 8.7 8.7 0 0 1 3.2.831"/><path fill="#995037" d="M159.335 237.526a27.4 27.4 0 0 1-4.615-1.108l-4.969-1.416a11.7 11.7 0 0 1-2.954-1.108 3.27 3.27 0 0 1-1.169-1.401 2.26 2.26 0 0 1 .107-1.939 3.66 3.66 0 0 1 3.077-1.693c1.108 0 2.108 0 3.077.092 1.736.094 3.464.31 5.169.647 1.149.238 2.276.573 3.37 1 .769.308 1.169.539 1.138.585s-1.738-.57-4.615-1.016a43 43 0 0 0-5.093-.492c-.969 0-2.015-.093-3 0a2.89 2.89 0 0 0-2.446 1.292 1.77 1.77 0 0 0 .8 2.294c.855.476 1.772.833 2.723 1.062l4.923 1.539c1.539.422 3.037.978 4.477 1.662"/><path fill="#995037" d="M156.058 241.959a12 12 0 0 1-4.046-.215 28 28 0 0 1-4.308-1.047 4.45 4.45 0 0 1-2.354-1.462 3.08 3.08 0 0 1-.261-3.078 3.07 3.07 0 0 1 2.507-1.724 7.6 7.6 0 0 1 2.693.307q2.136.548 4.2 1.324c1.3.399 2.538.979 3.677 1.724a36 36 0 0 1-3.862-1.2c-1.184-.354-2.6-.77-4.184-1.139a7.7 7.7 0 0 0-2.431-.247 2.38 2.38 0 0 0-1.877 1.309 2.18 2.18 0 0 0 .184 2.231 3.76 3.76 0 0 0 1.954 1.216c1.364.481 2.757.877 4.17 1.186 2.415.569 3.953.692 3.938.815m6.17-26.489c.077.277-3.431 1.154-7.8.892-.539 0-1.077-.077-1.539-.154-.246 0-.538-.123-.738-.138h-.262a.36.36 0 0 0-.184 0c-.635.525-1.315.994-2.031 1.401a4.33 4.33 0 0 1-2.216.723c0-.123.77-.446 1.923-1.216a18 18 0 0 0 1.939-1.539c.151-.092.318-.154.492-.185h.462l.723.108c.492.077 1.015.108 1.538.138 2.123.108 4.077 0 5.462 0a12.3 12.3 0 0 1 2.231-.03"/><path fill="#995037" d="M146.027 225.505c-.107 0 .185-.585.385-1.539q.344-1.811.492-3.648a8 8 0 0 0-.477-3.51c-.338-.862-.738-1.308-.646-1.385s.631.246 1.154 1.124a6.7 6.7 0 0 1 .769 3.817 14.6 14.6 0 0 1-.754 3.771c-.353 1.077-.846 1.447-.923 1.37"/><path fill="#555567" d="m128.796 216.47-5.123 22.873 4.677.169 6.662-21.072z"/><path fill="#555567" d="m135.922 216.174-9.205-3.708-1.161 2.884 9.205 3.708zM84.735 76.387A121.4 121.4 0 0 1 80.874 55.9a42.3 42.3 0 0 1 3.077-20.44c.446-.97 4.046-7.373 5.077-7.188.738.123-1.616 6.156-1.293 6.849a35.7 35.7 0 0 1 2.539 21.118 94 94 0 0 1-5.616 20.179"/><path fill="#B78876" d="M99.212 140.556c-10.77-.985-18.6-15.069-17.846-25.843l4.615-64.831c.677-17.47 11.385-31.631 28.816-30.477l1.538.2a31.2 31.2 0 0 1 19.961 10.828 31.24 31.24 0 0 1 7.347 21.496c-.662 15.13-1.539 31.83-2.693 39.85-2.292 16.608-19.246 17.116-19.246 17.116s-.369 3.863-.769 8.773a19.84 19.84 0 0 1-13.803 17.324 19.8 19.8 0 0 1-7.735.839z"/><path fill="#995037" d="M121.72 108.894a40.44 40.44 0 0 1-20.846-9.112s3.769 12.76 20.553 13.345z"/><path fill="#555567" d="M134.32 62.488a2.39 2.39 0 0 1-2.585 2.108 2.295 2.295 0 0 1-2.066-1.547 2.3 2.3 0 0 1-.118-.9 2.38 2.38 0 0 1 2.584-2.109 2.293 2.293 0 0 1 2.185 2.448m4.923-4.11c-.323.278-1.954-1.277-4.523-1.539-2.569-.261-4.616.724-4.816.385s.247-.677 1.139-1.17a6.48 6.48 0 0 1 3.908-.692 6.24 6.24 0 0 1 3.553 1.646c.708.662.908 1.263.739 1.37m-30.308 1.941a2.4 2.4 0 0 1-2.6 2.108 2.274 2.274 0 0 1-2.169-2.447 2.386 2.386 0 0 1 2.584-2.109 2.29 2.29 0 0 1 2.066 1.547c.099.29.14.596.119.9m11.938 16.762c1.4-.263 2.827-.34 4.247-.231.661 0 1.292 0 1.538-.477a3.27 3.27 0 0 0-.2-1.986l-1.308-5.218c-1.784-7.403-3-13.468-2.707-13.53.292-.06 2 5.88 3.8 13.284.43 1.832.83 3.571 1.215 5.233a3.78 3.78 0 0 1 0 2.602 1.61 1.61 0 0 1-1.185.83 5.6 5.6 0 0 1-1.123 0 17.3 17.3 0 0 1-4.277-.507m-7.815.816c.416 0 .077 2.817 2.2 5.08s5.123 2.324 5.093 2.724c0 .17-.724.447-1.97.323a6.97 6.97 0 0 1-4.277-2.108 6.16 6.16 0 0 1-1.661-4.233c.031-1.17.431-1.817.615-1.786"/><path fill="#B78876" d="M85.75 62.32c-.261-.155-11-4.818-12.061 6.602-1.062 11.421 10.615 10.128 10.661 9.805.047-.323 1.4-16.408 1.4-16.408"/><path fill="#995037" d="M81.273 74.078s-.215.123-.569.246a2.03 2.03 0 0 1-1.538-.108 4.97 4.97 0 0 1-1.877-4.617 6.7 6.7 0 0 1 .83-2.802 2.28 2.28 0 0 1 1.631-1.385 1.03 1.03 0 0 1 1.123.662c.123.323 0 .554.093.57.092.015.261-.17.215-.647a1.3 1.3 0 0 0-.385-.754 1.54 1.54 0 0 0-1.077-.4 2.81 2.81 0 0 0-2.23 1.539 6.64 6.64 0 0 0-.985 3.078c-.154 2.294.83 4.618 2.43 5.187a2.14 2.14 0 0 0 1.847-.123c.446-.154.523-.43.492-.446"/><path fill="#555567" d="M137.797 32.38c1.938-.877-3.077-7.326-7.477-9.773-6.6-3.679-16.923-6.48-23.4-5.218-7.8 1.539-14.462 4.787-18.862 11.405a45.07 45.07 0 0 0-6.908 22.488 13.63 13.63 0 0 0 1.031 7.111c1.37 2.663 4.308 4.51 3.877 7.989a4.8 4.8 0 0 0 .893 3.586c1.907 2.401 4.615.523 5.984-1.54 2.892-4.263 3.615-9.573 4.262-14.683.657-3.608.725-7.299.2-10.928-.4-1.955-1.154-3.833-1.447-5.803a6.87 6.87 0 0 1 1.293-5.634q.459-.478 1-.862a11.96 11.96 0 0 1 12.015-1.262c6.154 2.817 16.923 7.142 20 5.203a17.6 17.6 0 0 0 5.554-4.772z"/><path fill="#1900AF" d="M49.427 110.696c1.4-.585 15.385-5.88 20.462-7.157s12.584-2.248 12.584-2.248 19.262 12.006 23.077 14.146c3.816 2.139 15.385 2.801 15.385 2.801s0 21.133-1.231 28.829a515 515 0 0 1-14.092 61.107c-8.539 28.644-14.092 37.187-14.092 37.187s1.184 12.314-2.4 20.01c-3.585 7.696-7.862 15.392-7.862 15.392l-4.692 3.417s-15.385-6.419-29.477 0-48.723 19.732-56.416 17.993-4.276-9.404-2.569-16.67c1.708-7.265 16.662-32.477 16.662-32.477l1.707-8.973 3.293-3.294 12.554-76.776s23.492-51.809 27.107-53.287"/><path fill="#B78876" d="M39.243 159.72s6.153 21.842 20.984 24.243c13 2.109 19.585-1.539 22.723-9.866 3.139-8.328 5.754-45.192 5.754-45.192s.354-13.591-3.815-16.346c-4.17-2.755-45.646 47.161-45.646 47.161m-22.985 87.626s1.539 10.236 3.892 12.622c0 0 17.847 20.579 18.708 21.441.862.862 3.77 2.37 5.277 1.539a4.62 4.62 0 0 0 1.723-3.232s4.615 3.078 6.677 1.939a2.68 2.68 0 0 0 1.4-3.078s3.554 1.831 5.815-.324a7.23 7.23 0 0 0 1.816-5.602s3.077 2.37 4.846.431a11.24 11.24 0 0 0 2.261-5.48l-2.584-4.617s-7.308-10.128-9.57-12.93c-2.26-2.801-7.692-5.064-11.63-6.357s-13.154-11.559-13.154-11.559z"/><path fill="#B78876" d="M78.474 108.818a33.83 33.83 0 0 0-25.431.384c-12.862 5.28-34.631 14.223-37.754 15.392-4.477 1.724-52.03 17.239-57.892 36.541 0 0-2.985 5.941 0 10.682 4.292 6.834 16.923 36.556 36.923 53.441l21.938 22.088 15.708-14.869s-18.662-33.755-24.17-46.853c-5.507-13.099-8.43-16.177-8.43-16.177s19.308-4.495 31.708-7.589c12.4-3.093 27.907-7.926 27.907-7.926s21.708-7.927 25.847-14.146c4.138-6.218 6.892-21.025 0-27.228a21.5 21.5 0 0 0-6.354-3.74"/><path fill="#555567" d="M-14.142 136.801s16.138 22.703 17.615 27.705l1.462 5.049a2.71 2.71 0 0 0 3.308 1.093c2.015-.909 12.846-4.772 12.846-4.772s2.338-7.85-2.77-17.424a197 197 0 0 0-12.984-20.209 20.26 20.26 0 0 0-19.477 8.558"/><path fill="#995037" d="M63.074 158.011a15.7 15.7 0 0 0-3.523-1.339 13.3 13.3 0 0 0-4.062-.139 42 42 0 0 0-4.97.893 294 294 0 0 1-9.107 1.909 18 18 0 0 1-3.815.554 19 19 0 0 1 3.707-1.108c2.293-.585 5.493-1.339 9.031-2.124a34 34 0 0 1 5.092-.862 13.1 13.1 0 0 1 4.247.323 5.95 5.95 0 0 1 3.4 1.893m15.123-43.421a14.3 14.3 0 0 1 1.815 3.309 18.14 18.14 0 0 1 1.892 8.943 18 18 0 0 1-1.276 4.925 21 21 0 0 1-1.831 3.694c-1.277 2.017-2.6 2.802-2.646 2.709a25 25 0 0 0 2.169-3.001 25.6 25.6 0 0 0 1.615-3.664 18.6 18.6 0 0 0 1.17-4.725 19.8 19.8 0 0 0-1.539-8.666 23 23 0 0 1-1.37-3.524"/><path fill="#555567" d="m-22.973 146.714 10.662 16.731a2 2 0 0 0 2.538.723l37.677-18.362a1.99 1.99 0 0 0 .816-2.848l-10.677-16.731a1.954 1.954 0 0 0-2.523-.708l-37.723 18.363a2 2 0 0 0-1.01 1.246 1.98 1.98 0 0 0 .24 1.586"/><path fill="#555567" d="m-9.803 160.381-8.923-14.13 34.261-17.624 9.339 14.654z"/><path fill="#fff" d="M12.473 132.86a23.4 23.4 0 0 1-2.646 3.309c-1.861 2.201-4.092 4.849-6.584 7.773l-6.447 7.881a25 25 0 0 1-2.784 3.202 21.7 21.7 0 0 1 2.323-3.556 163 163 0 0 1 6.292-8.035 196 196 0 0 1 6.785-7.696 20 20 0 0 1 3.061-2.878m-11.23 6.45c.184.123-.585 1.54-1.708 3.079s-2.185 2.755-2.37 2.616c-.184-.138.585-1.539 1.708-3.078s2.2-2.755 2.37-2.617"/></g><path fill="#555567" d="M99.742 17.005a7.85 7.85 0 0 1-5.469-5.625 7.85 7.85 0 0 1 2.13-7.551 16 16 0 0 1 6.415-3.217 6.8 6.8 0 0 1 4.785-.323 5.28 5.28 0 0 1 2.539 4.818c0 1.924-.431 3.848-.216 5.772.6-.6 1.739-.093 1.954.723a2.28 2.28 0 0 1-.892 2.232q-1.03.738-2.154 1.324a3.18 3.18 0 0 0-1.539 1.908"/><path fill="#13007D" d="M102.972 19.513a6.15 6.15 0 0 1-2.446.677 2.08 2.08 0 0 1-2.03-1.262 2.05 2.05 0 0 1 .692-2.078 5.5 5.5 0 0 1 2.077-1.016 32 32 0 0 1 4.815-1.093 4.45 4.45 0 0 1 2.016 0 1.62 1.62 0 0 1 1.184 1.54c0 .83-.877 1.37-1.646 1.723a22.5 22.5 0 0 1-6.046 1.755"/><path fill="#555567" d="M85.588 76.387a121.4 121.4 0 0 1-3.862-20.486 42.3 42.3 0 0 1 3.077-20.441c.446-.97 4.046-7.373 5.077-7.188.739.123-1.615 6.157-1.292 6.85a35.7 35.7 0 0 1 2.538 21.117 94 94 0 0 1-5.615 20.18"/><path fill="#B78876" d="M96.781 105.436c-10.77-.986-3.9-21.591-13.846-6.927l3.899-48.627c.677-17.47 11.384-31.631 28.815-30.477l1.539.2a31.2 31.2 0 0 1 19.961 10.828 31.24 31.24 0 0 1 7.346 21.496c-.661 15.13-1.538 31.83-2.692 39.85-2.292 16.608-19.246 17.116-19.246 17.116s-.369 3.863-.769 8.773c-.211 2.612-4.94-5.327-6.139-2.997s-3.019-1.689-5.022 0c-2.636-18.878.19-3.097-2.308-2.309s-2.006-3.233-4.615-3.467z"/><path fill="#995037" d="M122.572 108.894a40.44 40.44 0 0 1-20.846-9.112s3.769 12.76 20.554 13.345z"/><path fill="#555567" d="M135.172 62.488a2.387 2.387 0 0 1-2.584 2.108 2.29 2.29 0 0 1-2.185-2.447 2.387 2.387 0 0 1 2.585-2.109 2.3 2.3 0 0 1 1.607.764 2.3 2.3 0 0 1 .577 1.684m4.923-4.11c-.323.278-1.953-1.277-4.523-1.539-2.569-.261-4.615.724-4.815.385s.246-.677 1.138-1.17a6.48 6.48 0 0 1 3.908-.692 6.25 6.25 0 0 1 3.554 1.646c.708.662.908 1.263.738 1.37m-30.307 1.941a2.4 2.4 0 0 1-2.6 2.109 2.274 2.274 0 0 1-2.169-2.448 2.38 2.38 0 0 1 2.584-2.109 2.293 2.293 0 0 1 2.185 2.448m5.154-4.034c-.323.277-1.969-1.278-4.523-1.54-2.554-.26-4.616.74-4.816.386-.2-.355.246-.678 1.139-1.17a6.6 6.6 0 0 1 3.907-.693c1.33.168 2.573.75 3.554 1.662.708.647.908 1.232.739 1.355m6.784 20.795a16.3 16.3 0 0 1 4.246-.23c.662 0 1.293 0 1.539-.478a3.27 3.27 0 0 0-.2-1.986l-1.308-5.218c-1.784-7.403-3-13.468-2.707-13.53.292-.06 2 5.88 3.8 13.284.43 1.832.83 3.571 1.215 5.234.308.84.308 1.761 0 2.6a1.62 1.62 0 0 1-1.185.832 5.6 5.6 0 0 1-1.123 0 17.3 17.3 0 0 1-4.277-.508m-7.815.816c.415 0 .077 2.817 2.2 5.08s5.123 2.324 5.092 2.724c0 .17-.723.447-1.969.323a6.97 6.97 0 0 1-4.277-2.108 6.16 6.16 0 0 1-1.662-4.233c.031-1.17.431-1.817.616-1.786m2.185-32.001c-.339.662-2.847 0-5.893 0s-5.569.508-5.877-.17c-.138-.322.354-.923 1.416-1.538a10.23 10.23 0 0 1 8.984.138c1.046.631 1.523 1.247 1.37 1.57m24.092 3.848c-.524.524-2.216-.307-4.324-.6-2.107-.292-3.953-.092-4.292-.754-.138-.323.216-.862 1.062-1.308a6 6 0 0 1 3.631-.524 6.16 6.16 0 0 1 3.307 1.54c.616.77.769 1.4.616 1.646"/><path fill="#B78876" d="M86.603 62.32c-.261-.155-11-4.818-12.061 6.602-1.062 11.421 10.615 10.128 10.661 9.805s1.4-16.408 1.4-16.408"/><path fill="#995037" d="M82.126 74.078s-.215.123-.569.246a2.03 2.03 0 0 1-1.538-.108 4.97 4.97 0 0 1-1.877-4.617 6.7 6.7 0 0 1 .83-2.802 2.28 2.28 0 0 1 1.631-1.385 1.03 1.03 0 0 1 1.123.662c.123.323 0 .554.093.57.092.015.261-.17.215-.647a1.3 1.3 0 0 0-.385-.754 1.54 1.54 0 0 0-1.077-.4 2.81 2.81 0 0 0-2.23 1.539 6.64 6.64 0 0 0-.985 3.078c-.154 2.294.83 4.618 2.43 5.187a2.14 2.14 0 0 0 1.847-.123c.446-.154.523-.43.492-.446"/><path fill="#555567" d="M138.649 32.38c1.939-.877-3.077-7.326-7.477-9.773-6.6-3.679-16.923-6.48-23.4-5.218-7.8 1.539-14.461 4.787-18.861 11.405a45.07 45.07 0 0 0-6.908 22.488 13.6 13.6 0 0 0 1.03 7.111c1.37 2.663 4.308 4.51 3.878 7.989a4.8 4.8 0 0 0 .892 3.586c1.908 2.401 4.615.523 5.985-1.54 2.892-4.263 3.615-9.573 4.261-14.683.658-3.608.725-7.299.2-10.928-.4-1.955-1.154-3.833-1.446-5.803a6.87 6.87 0 0 1 1.292-5.634q.46-.478 1-.862a11.96 11.96 0 0 1 12.016-1.262c6.154 2.817 16.923 7.142 20 5.203a17.6 17.6 0 0 0 5.554-4.772z"/><path fill="#555567" d="M125.142 19.514s.8.585 1.83 1.8a17.6 17.6 0 0 1 3.247 5.342c.755 2.003.873 4.191.338 6.264-.461 1.54-1.185 2.34-1.246 2.278-.062-.061.4-.908.692-2.416a11.3 11.3 0 0 0-.538-5.85 23.5 23.5 0 0 0-2.939-5.279 9.2 9.2 0 0 1-1.384-2.14"/><path fill="#555567" d="M132.603 25.639c.092 0 .4.539.585 1.54a9 9 0 0 1-.308 3.97 8.7 8.7 0 0 1-2.046 3.433c-.723.723-1.292 1-1.354.923a18.6 18.6 0 0 0 2.631-4.617 18.3 18.3 0 0 0 .492-5.25M97.865 14.619s-.385-.185-.847-.739a6.16 6.16 0 0 1-.246-7.219 6.43 6.43 0 0 1 4.816-2.77 1.94 1.94 0 0 1 1.538.57c.318.445.455.995.385 1.538a23 23 0 0 1-.354 2.617 21.6 21.6 0 0 1-1.277 4.279 11.2 11.2 0 0 1-2.046 3.54c-.108-.077.677-1.416 1.538-3.755a25.5 25.5 0 0 0 1.369-6.742 1.54 1.54 0 0 0-.2-1.016 1.23 1.23 0 0 0-.984-.292 5.78 5.78 0 0 0-4.246 2.4 5.5 5.5 0 0 0-1.016 3.926 8.2 8.2 0 0 0 1.57 3.663"/><path fill="#E6E6F0" d="m201.484 77.792 2.015-1.885-18.03-19.305-18.029-19.306-2.016 1.884z"/><path fill="#555567" d="m204.551 65.442-1.941-2.079-13.415 12.54 1.941 2.08zM177.522 37.48l-1.941-2.078-13.415 12.54 1.941 2.08zm-7.23 2.864-.868-.93-2.411 2.255.868.93z"/><path fill="#555567" d="M167.883 42.597q.083-.102.179-.19a9 9 0 0 0 .494-.49c.43-.401 1.006-.979 1.688-1.624l-.003.1-.868-.93.102.006-.689.644-.643.6a38 38 0 0 1-1.085.992l.002-.072c.262.28.46.522.605.69q.121.13.226.274a1.6 1.6 0 0 1-.238-.22c-.147-.158-.384-.38-.668-.674l-.033-.036.04-.036c.309-.29.674-.63 1.062-1.017l.643-.6.343-.32.344-.323.104.004.917.981-.054.05c-.71.664-1.333 1.22-1.768 1.61-.195.182-.372.325-.509.449q-.089.076-.191.132m5.137.748-.868-.93-2.412 2.255.868.93z"/><path fill="#555567" d="M170.608 45.6q.084-.104.181-.193c.139-.13.307-.287.495-.49.42-.411 1.005-.978 1.688-1.624l-.004.1-.872-.933c.209.007.058.004.105.003l-.691.646-.643.6a38 38 0 0 1-1.088.994l.003-.072c.261.28.462.52.607.688q.12.131.223.277a2 2 0 0 1-.237-.221c-.147-.158-.383-.381-.668-.674l-.033-.035.037-.035c.311-.291.674-.63 1.065-1.019l.643-.6.34-.319.346-.323.105.003.916.982-.052.048a94 94 0 0 1-1.769 1.607c-.197.184-.371.327-.509.45a1.2 1.2 0 0 1-.188.14m26.426 23.017-.868-.93-2.412 2.255.868.93z"/><path fill="#555567" d="M194.622 70.871q.084-.104.179-.195c.139-.13.307-.287.495-.49.429-.4 1.005-.978 1.69-1.621l-.004.1-.868-.93c.209.008.056.002.102.006l-.346.324-.34.318-.643.6c-.402.377-.765.716-1.088.994l.003-.072c.261.28.462.52.605.69q.122.13.225.275a2 2 0 0 1-.237-.222c-.149-.16-.387-.38-.668-.673l-.035-.037.037-.035c.311-.291.674-.63 1.065-1.019l.643-.6.686-.643c.046 0-.102-.005.107.002l.916.981-.052.049a94 94 0 0 1-1.769 1.607 7 7 0 0 1-.509.45 1 1 0 0 1-.194.141m5.137.747-.868-.93-2.411 2.255.868.93z"/><path fill="#555567" d="M197.339 73.88a2 2 0 0 1 .178-.193c.138-.13.309-.289.494-.49.429-.4 1.005-.978 1.69-1.621l-.004.1-.868-.93.104.004-.338.316-.342.32-.643.6c-.4.375-.775.706-1.085.993l.002-.073c.262.28.46.522.605.69q.12.13.226.275a1.7 1.7 0 0 1-.238-.221c-.149-.16-.386-.381-.668-.674l-.035-.037.023-.021c.309-.29.674-.63 1.063-1.017l.643-.601.688-.644.105.004.916.981-.052.049a94 94 0 0 1-1.769 1.607c-.195.182-.371.327-.509.449a1 1 0 0 1-.186.134"/></svg>