<svg xmlns="http://www.w3.org/2000/svg" width="201" height="240" fill="none" viewBox="0 0 201 240"><g clip-path="url(#medic-ready_svg__a)"><circle cx="100.844" cy="140" r="100" fill="#E6E6F0"/><mask id="medic-ready_svg__b" width="201" height="200" x="0" y="40" maskUnits="userSpaceOnUse" style="mask-type:alpha"><circle cx="100.844" cy="140" r="100" fill="#fff"/></mask><g mask="url(#medic-ready_svg__b)"><path fill="#B78876" d="M75.758 38.28c-.271-.107-10.767-2.887-10.135 7.83s11.158 7.862 11.165 7.55c.008-.311-1.03-15.38-1.03-15.38"/><path fill="#AA6550" d="M73.304 49.802c-.052-.038-.18.137-.481.304a1.82 1.82 0 0 1-1.385.106c-1.143-.342-2.197-2.081-2.362-4.01a6.3 6.3 0 0 1 .33-2.666c.08-.342.24-.659.469-.924.228-.264.517-.469.841-.595a.93.93 0 0 1 1.121.448c.158.288.105.509.158.524s.218-.198.105-.63a1.15 1.15 0 0 0-.459-.646 1.36 1.36 0 0 0-1.038-.213 2.6 2.6 0 0 0-1.144.648c-.32.311-.556.7-.684 1.13a6.3 6.3 0 0 0-.467 3.038c.196 2.157 1.415 4.109 2.972 4.466a1.97 1.97 0 0 0 1.678-.388c.339-.334.384-.577.346-.592"/><path fill="#B78876" d="M100.097.85c3.792-.273 7.6.22 11.2 1.45a28.5 28.5 0 0 1 9.771 5.716 28.9 28.9 0 0 1 6.816 9.088 29.1 29.1 0 0 1 2.799 11.043c.692 13.422 1.301 27.936 1.158 35.243-.316 15.692-15.883 18.009-15.883 18.009s.346 4.648.752 10.42a20.9 20.9 0 0 1-1.083 8.136 20.7 20.7 0 0 1-4.134 7.068 20.5 20.5 0 0 1-6.533 4.888 20.32 20.32 0 0 1-15.795.663 20.4 20.4 0 0 1-6.808-4.226 20.7 20.7 0 0 1-4.684-6.537 20.8 20.8 0 0 1-1.848-7.85l-2.31-63.239a29.03 29.03 0 0 1 7.304-20.385A28.5 28.5 0 0 1 100.12.834z"/><path fill="#AA6550" d="M115.958 81.399s-9.555.5-19.938-6.206c0 0 4.702 11.393 20.217 10.132z"/><path fill="#27272E" d="M111.925 51.89c0-.136 1.505-.38 3.882-.675.61-.061 1.189-.175 1.294-.593a3.1 3.1 0 0 0-.391-1.83c-.557-1.52-1.151-3.038-1.768-4.702-2.453-6.699-4.221-12.198-3.95-12.297s2.475 5.249 4.921 11.948a864 864 0 0 1 1.693 4.732c.378.744.484 1.6.301 2.415a1.58 1.58 0 0 1-1.016.896q-.508.127-1.031.137c-2.423.13-3.928.13-3.935-.03m-7.042 1.633c.391 0 .369 2.597 2.573 4.473 2.205 1.876 4.974 1.61 4.989 1.975 0 .167-.625.509-1.791.532a6.44 6.44 0 0 1-4.161-1.52 5.73 5.73 0 0 1-1.993-3.751c-.091-1.064.203-1.725.383-1.71M73.674 35.637s.677 3.63.858 5.263c.067.6 0 7.246 1.587 7.596 1.377.288 4.108-.98 5.327-3.73s3.537-9.35 3.28-12.35c-.338-4.086-.526-8.249.287-12.274.812-4.026 2.716-7.945 5.914-10.482s7.825-3.41 11.466-1.572c2.257 1.14 3.92 3.152 6.019 4.557a9.27 9.27 0 0 0 6.411 1.679 6 6 0 0 0 3.065-1.33 6.07 6.07 0 0 0 1.893-2.772c.662-2.392-.556-5.013-2.46-6.6-1.904-1.588-4.349-2.317-6.772-2.803a36.1 36.1 0 0 0-20.18 1.428c-6.372 2.499-12.038 7.3-14.746 13.626-3.145 7.315-2.784 11.804-1.95 19.748"/><path fill="#27272E" d="M109.202 36.974q-.111-1.306-.406-2.583a10.64 10.64 0 0 0-3.845-5.78 10.3 10.3 0 0 0-4.386-1.945 10.4 10.4 0 0 0-5.463.464 9.6 9.6 0 0 0-2.618 1.435 9.6 9.6 0 0 0-2.197 2.226 10.5 10.5 0 0 0-2.009 6.186c0 2.226.704 4.393 2.009 6.187a9.9 9.9 0 0 0 2.197 2.225 9.6 9.6 0 0 0 2.618 1.428c1.748.643 3.633.806 5.463.471a10.26 10.26 0 0 0 4.386-1.952 10.64 10.64 0 0 0 3.853-5.773q.288-1.28.398-2.59a.4.4 0 0 1 0 .175v.51q.005.416-.067.827a7 7 0 0 1-.196 1.109 10.64 10.64 0 0 1-8.695 8.079 10.6 10.6 0 0 1-5.27-.514 9.9 9.9 0 0 1-2.723-1.466 10.1 10.1 0 0 1-2.258-2.279 10.88 10.88 0 0 1-2.092-6.418c0-2.31.734-4.56 2.092-6.418a10.86 10.86 0 0 1 5.004-3.798c1.806-.65 3.75-.805 5.635-.448a10.6 10.6 0 0 1 4.515 2.051 10.65 10.65 0 0 1 3.83 5.963q.142.55.195 1.116.074.406.068.82v.51c-.023.128-.03.181-.038.181m27.364.001a20 20 0 0 0-.406-2.583 10.64 10.64 0 0 0-3.852-5.78 10.25 10.25 0 0 0-4.387-1.945 10.36 10.36 0 0 0-5.455.464 10.46 10.46 0 0 0-4.815 3.66 10.5 10.5 0 0 0-2.016 6.187c0 2.227.707 4.395 2.016 6.187a9.9 9.9 0 0 0 2.189 2.225 9.5 9.5 0 0 0 2.626 1.428c1.745.643 3.628.806 5.455.471a10.26 10.26 0 0 0 4.387-1.952 10.64 10.64 0 0 0 3.852-5.773q.288-1.28.406-2.59.006.088 0 .175v.51q.005.415-.06.827a7 7 0 0 1-.203 1.109 10.56 10.56 0 0 1-3.83 5.97 10.54 10.54 0 0 1-4.514 2.043 10.6 10.6 0 0 1-10.639-4.246 10.84 10.84 0 0 1-2.1-6.418c0-2.311.736-4.561 2.1-6.418a10 10 0 0 1 2.257-2.279 10.1 10.1 0 0 1 2.724-1.473 10.75 10.75 0 0 1 5.643-.448 10.55 10.55 0 0 1 4.514 2.05 10.57 10.57 0 0 1 3.83 5.963q.146.55.203 1.116.065.408.06.82v.51q.015.094.015.19"/><path fill="#1900AF" d="m76.104 104.063-.587-18.616s3.664 17.036 22.858 16.816c18.336-.213 18.005-15.008 18.005-15.008l.655 7.504v30.313l-11.963 49.454-15.282 1.929-16.884-67.599z"/><path fill="#27272E" d="M114.672 98.108q-.086.211-.219.395-.344.562-.752 1.079a15.9 15.9 0 0 1-3.416 3.342 19.6 19.6 0 0 1-6.38 3.038 22.3 22.3 0 0 1-8.615.6 27.7 27.7 0 0 1-8.277-2.514 36 36 0 0 1-6.02-3.676 43 43 0 0 1-3.656-3.038c-.414-.38-.715-.7-.925-.912a2 2 0 0 1-.301-.334q.192.121.353.281l.978.85c.843.76 2.092 1.77 3.717 2.948a37.5 37.5 0 0 0 6.02 3.57 27.9 27.9 0 0 0 8.163 2.445c2.831.359 5.704.171 8.465-.554a20.1 20.1 0 0 0 6.32-2.902 17 17 0 0 0 3.454-3.205c.722-.911 1.06-1.435 1.091-1.413"/><path fill="#FAFAFC" d="m101.354 249.889-.278-80.718-24.724-64.113-.828-19.3-15.048 11.5s-21.918 76.159-22.286 73.531c-.37-2.628-.85 79.1-.85 79.1z"/><path fill="#27272E" d="M100.865 249.129c-.105 0-.301-12.123-.301-36.55s.09-44.228.196-44.228c.105 0 .196 19.801.196 44.228s.015 36.55-.091 36.55"/><path fill="#FAFAFC" d="m60.68 109.775 3.054 2.339-2.144 14.219 36.085 38.159L64.9 121.039l2.792-11.264z"/><path fill="#FAFAFC" d="m102.71 212.032-55.385-16.391-1.836-42.466L60.68 97.227s-36.206 18.237-38.674 29.858-8.404 39.815-9.028 60.209c-.565 18.229-.647 30.381 3.476 36.237 11.813 16.665 89.641 19.642 120.731 0"/><path fill="#27272E" d="M98.375 165.411s-.067-.06-.18-.205c-.113-.144-.294-.364-.497-.623l-1.88-2.43a4985 4985 0 0 1-6.863-8.993l-22.52-29.751-1.692-2.279-.06-.076v-.091c.963-3.889 1.903-7.664 2.799-11.264l.18.243H60.47V97.136l.06-.045 10.887-8.355 3.01-2.279.752-.585a1.4 1.4 0 0 1 .278-.182l-.248.22-.753.615-2.942 2.325-10.804 8.46.06-.12v12.547l-.18-.175h7.312l-.06.243-2.783 11.264-.038-.167 1.7 2.241 22.422 29.827 6.772 9.061c.752 1.064 1.392 1.892 1.82 2.477.196.273.347.493.467.653z"/><path fill="#FAFAFC" d="M123.061 93.916c-4.417-7.793-6.711-6.988-6.711-6.988l.233 2.78v5.84l-2.099 25.066-13.416 54.451.279 74.824h50.736l6.296-92.916-.572-43.119z"/><path fill="#FAFAFC" d="M157.815 113.854s13.129 9.782 14.296 25.528c.925 12.783 3.009 47.79 3.423 55.408.602 11.864-8.555 39.656-32.391 31.787-14.296-4.724-67.1-22.839-67.1-22.839l3.514-22.642 62.675 3.797 1.249-52.772z"/><path fill="#B78876" d="M78.812 183.701s-17.742-1.937-21.82-.934c-3.95.964-9.57 5.841-9.57 5.841l.082 7.071 28.54 8.059z"/><path fill="#27272E" d="M101.076 166.877q.029-.125.083-.243c.06-.174.15-.41.263-.699.248-.638.609-1.519 1.061-2.673l3.973-9.813 5.928-14.538c.565-1.36 1.122-2.78 1.821-4.17.7-1.39 1.46-2.78 2.258-4.17a93 93 0 0 1 5.628-8.203 94 94 0 0 1 3.122-3.873v.205l-2.212-5.674-.075-.19.188-.068 9.232-3.153-.098.259c-4.289-7.231-7.908-13.338-10.481-17.667-1.264-2.142-2.348-3.859-3.499-4.557a4.7 4.7 0 0 0-1.399-.57 5 5 0 0 1-.519-.13q.264.02.526.07a4.4 4.4 0 0 1 1.452.538 6.4 6.4 0 0 1 1.776 1.74q.998 1.347 1.844 2.795l10.609 17.606.112.19-.21.068-9.232 3.198.113-.251 2.219 5.674.045.106-.082.092a88 88 0 0 0-3.1 3.858 94 94 0 0 0-5.613 8.142c-.805 1.383-1.595 2.742-2.258 4.132a85 85 0 0 0-1.813 4.14c-2.257 5.453-4.304 10.367-6.019 14.507-1.716 4.139-3.115 7.436-4.086 9.76-.481 1.132-.865 2.02-1.128 2.651-.128.288-.226.509-.309.683a1 1 0 0 1-.12.228m63.938 55.295a1.4 1.4 0 0 1-.218.235l-.677.661a19.5 19.5 0 0 1-2.882 2.203 19.1 19.1 0 0 1-5.267 2.233 21 21 0 0 1-7.524.486 23.6 23.6 0 0 1-4.326-.927c-1.505-.471-2.949-1.056-4.514-1.602-3.093-1.14-6.418-2.279-9.91-3.555a1239 1239 0 0 0-22.835-7.816c-16.252-5.385-31.074-9.927-41.819-13.17l-12.73-3.798-3.462-1.041-.895-.273a2 2 0 0 1-.3-.114l.315.068.903.244 3.484.964c3.01.851 7.38 2.104 12.79 3.684 10.76 3.167 25.582 7.671 41.857 13.064 8.133 2.689 15.846 5.317 22.835 7.838 3.492 1.254 6.81 2.446 9.902 3.593 1.55.562 3.01 1.155 4.515 1.626 1.389.445 2.818.758 4.266.934 2.492.308 5.02.167 7.464-.418a19.7 19.7 0 0 0 5.266-2.149 21.3 21.3 0 0 0 2.905-2.135l.699-.63q.072-.108.158-.205m-117.54-26.364c0 .084-1-.137-2.588-.068-.928.038-1.848.191-2.739.456a12.4 12.4 0 0 0-3.085 1.42 14.5 14.5 0 0 0-4.296 4.451c-.835 1.367-1.204 2.278-1.271 2.278.04-.233.11-.461.21-.676q.343-.907.828-1.747a13.5 13.5 0 0 1 4.319-4.64 12 12 0 0 1 3.197-1.436 11 11 0 0 1 2.83-.387 9 9 0 0 1 1.91.174q.355.04.685.175m-17.448-5.545s0-.076.068-.205a2 2 0 0 1 .346-.493 3.54 3.54 0 0 1 1.971-.988 9.9 9.9 0 0 1 3.25 0c1.317.175 2.611.494 3.86.95 2.285.81 4.37 2.105 6.117 3.797q.783.778 1.422 1.679.25.32.414.691c-.067.053-.684-.919-2.024-2.165a17.9 17.9 0 0 0-6.064-3.607 20 20 0 0 0-3.762-.965 10.5 10.5 0 0 0-3.16-.091c-.7.081-1.362.366-1.904.82-.376.327-.504.593-.534.577m20.677-48.747a6 6 0 0 1-.256-1.147c-.113-.365-.271-.797-.444-1.299s-.474-1.048-.82-1.625a23.3 23.3 0 0 0-2.822-3.798 31 31 0 0 0-4.326-3.843 26 26 0 0 0-9.458-4.383 19.6 19.6 0 0 0-3.153-.41q-.586.003-1.166-.091a6.5 6.5 0 0 1 1.174-.061 16 16 0 0 1 3.198.289 24.7 24.7 0 0 1 9.63 4.337 28.6 28.6 0 0 1 4.364 3.911 22 22 0 0 1 2.8 3.905c.338.6.556 1.184.752 1.678s.3.972.391 1.344q.112.592.136 1.193m105.148 64.91a1.4 1.4 0 0 1 0-.273v-.798c0-.698-.053-1.724-.15-3.038a43 43 0 0 0-2.258-10.945 15.5 15.5 0 0 0-1.504-3.342 6.5 6.5 0 0 0-2.935-2.514c-2.52-1.094-5.553-.949-8.637-1.124l-20.195-.858c-16.688-.76-31.533-1.367-40.863-1.869l.128-.106c-.565 3.463-1.016 6.205-1.325 8.112q-.234 1.379-.368 2.142c-.038.228-.075.41-.098.554l-.045.183a1 1 0 0 1 0-.19l.075-.555c.068-.509.173-1.23.301-2.157.286-1.906.692-4.656 1.211-8.127v-.106h.113l40.863 1.716 20.195.919c1.55.076 3.062.114 4.514.236 1.448.081 2.872.404 4.214.957a6.84 6.84 0 0 1 3.085 2.605 15.5 15.5 0 0 1 1.505 3.418 41.4 41.4 0 0 1 2.136 11.013c.083 1.322.083 2.355.076 3.038v.798c-.03.213-.038.311-.038.311"/><path fill="#27272E" d="M143.896 156.889c.105 0 .196 6.13.196 13.672s-.091 13.672-.196 13.672-.196-6.13-.196-13.672.09-13.672.196-13.672M22.442 125.695s-.045.174-.15.501c-.106.327-.294.82-.452 1.519-.369 1.314-.835 3.274-1.354 5.833-1.046 5.12-2.333 12.609-3.762 21.981-.715 4.694-1.505 9.875-2.258 15.427-.383 2.787-.624 5.689-.82 8.697a336 336 0 0 0-.474 9.296c-.225 6.388-.36 13.133-.18 20.159.06 1.754.12 3.531.263 5.316.045.897.196 1.778.301 2.666q.24 1.333.64 2.628a15 15 0 0 0 2.498 4.808 10.7 10.7 0 0 0 4.273 3.327 65 65 0 0 0 11.158 4.299c3.89 1.177 7.908 2.127 11.986 2.97a163.3 163.3 0 0 0 26.936 3.311c4.29.112 8.581 0 12.859-.334 4.19-.296 8.276-.759 12.227-1.329a127.6 127.6 0 0 0 21.94-5.15 111.3 111.3 0 0 0 17.742-7.686v.25l-24.273-8.712-6.554-2.362-1.692-.623c-.384-.144-.572-.227-.572-.227l.579.19 1.708.584 6.576 2.279 24.378 8.583.293.099-.27.151a111.4 111.4 0 0 1-17.78 7.755 127.4 127.4 0 0 1-21.993 5.203c-3.957.6-8.05 1.048-12.249 1.345-4.29.339-8.594.455-12.896.349a163 163 0 0 1-27.004-3.312c-4.093-.85-8.118-1.8-12.038-2.977a66 66 0 0 1-11.226-4.337 11.1 11.1 0 0 1-4.455-3.448 15.4 15.4 0 0 1-2.55-4.937 22 22 0 0 1-.655-2.674c-.113-.911-.256-1.808-.3-2.704-.144-1.792-.204-3.577-.257-5.317-.18-7.048 0-13.793.211-20.188q.18-4.785.49-9.305c.202-3.038.45-5.924.842-8.712.752-5.582 1.55-10.74 2.257-15.426 1.505-9.373 2.814-16.854 3.905-21.966.542-2.559 1.023-4.519 1.415-5.833.165-.661.376-1.147.481-1.474s.256-.493.256-.493"/><path fill="#FAFAFC" d="M47.391 190.56c9.263-10.353 8.856-28.757 3.537-41.813-.49 14.142-2.145 26.69-3.409 40.438"/><path fill="#27272E" d="M50.95 151.39q.024.228 0 .456c0 .342-.045.759-.083 1.291-.09 1.177-.21 2.787-.368 4.747-.332 4.056-.753 9.563-1.272 15.654L48.008 189.2c-.143 1.96-.263 3.57-.354 4.747l-.112 1.284q-.015.226-.06.448a1.5 1.5 0 0 1 0-.448c0-.342 0-.76.037-1.299.038-1.124.12-2.75.226-4.755.233-4.01.61-9.555 1.106-15.669s.993-11.644 1.392-15.647l.489-4.739q.101-.784.158-1.284 0-.228.06-.448m22.83-18.7a81 81 0 0 1 .195 8.028 81 81 0 0 1-.196 8.029c-.105 0-.196-3.6-.196-8.029 0-4.428.09-8.028.196-8.028"/><path fill="#FAFAFC" d="M67.743 159.358a8.26 8.26 0 0 0 1.708 4.253c.873 1.147 2.641 2.279 4.063 2.18a6.15 6.15 0 0 0 3.098-.657 6.2 6.2 0 0 0 2.372-2.115c1.73-2.78 2.16-8.576.753-12.001-.956-2.355-3.1-4.557-5.62-4.61-3.311-.076-5.388 2.339-6.095 4.785"/><path fill="#27272E" d="M68.037 151.193c.11-.578.316-1.133.61-1.641a6.8 6.8 0 0 1 1.24-1.648 5.8 5.8 0 0 1 2.349-1.383 6 6 0 0 1 1.572-.258 4.7 4.7 0 0 1 1.723.228 6.8 6.8 0 0 1 3.07 2.225 9 9 0 0 1 1.813 3.798 16.8 16.8 0 0 1 .331 4.504c-.15 2.378-.617 4.747-1.918 6.555a5.9 5.9 0 0 1-2.498 1.899 6.65 6.65 0 0 1-2.83.478 4.2 4.2 0 0 1-2.023-.501 6.8 6.8 0 0 1-1.505-1.078 7.7 7.7 0 0 1-1.656-2.492 7 7 0 0 1-.526-1.845 4 4 0 0 1-.045-.502.5.5 0 0 1 0-.174 10.8 10.8 0 0 0 .752 2.445c.402.893.969 1.7 1.67 2.378.455.401.96.739 1.505 1.002a3.95 3.95 0 0 0 1.881.448 5.96 5.96 0 0 0 2.774-.53 6 6 0 0 0 2.23-1.748c1.211-1.694 1.678-4.026 1.82-6.35.166-3.038-.338-6.031-2.031-8.051a6.5 6.5 0 0 0-2.92-2.119 4.6 4.6 0 0 0-1.617-.236 5.6 5.6 0 0 0-3.762 1.504 6.9 6.9 0 0 0-1.257 1.557q-.419.746-.752 1.535"/><path fill="#E6E6F0" d="M65.984 159.509a8.3 8.3 0 0 0 1.708 4.254c.865 1.147 2.64 2.278 4.063 2.18a6.16 6.16 0 0 0 3.097-.659 6.2 6.2 0 0 0 2.373-2.114c1.73-2.787 2.159-8.575.752-12-.956-2.362-3.1-4.558-5.62-4.611a6.2 6.2 0 0 0-3.87 1.32 6.3 6.3 0 0 0-2.225 3.458"/><path fill="#27272E" d="M66.277 151.337c.11-.575.316-1.127.61-1.633a6.7 6.7 0 0 1 1.241-1.648 5.78 5.78 0 0 1 3.92-1.641 4.7 4.7 0 0 1 1.723.228 6.77 6.77 0 0 1 3.07 2.225 8.9 8.9 0 0 1 1.806 3.798 16.5 16.5 0 0 1 .338 4.504c-.15 2.378-.617 4.74-1.918 6.555a5.9 5.9 0 0 1-2.498 1.899 6.65 6.65 0 0 1-2.83.478 4.2 4.2 0 0 1-2.023-.508 6.6 6.6 0 0 1-1.505-1.071 7.5 7.5 0 0 1-1.656-2.499 7 7 0 0 1-.526-1.838c0-.221-.045-.388-.053-.502a.6.6 0 0 1 0-.174c.154.84.407 1.658.753 2.438a7.5 7.5 0 0 0 1.67 2.385c.454.401.96.739 1.505 1.002.582.3 1.227.453 1.88.448a6 6 0 0 0 2.77-.531 6.04 6.04 0 0 0 2.227-1.747c1.219-1.702 1.685-4.026 1.828-6.35.166-3.038-.338-6.031-2.031-8.051a6.44 6.44 0 0 0-2.897-2.142 4.6 4.6 0 0 0-1.61-.236 5.65 5.65 0 0 0-3.762 1.52 6.9 6.9 0 0 0-1.257 1.557q-.436.742-.775 1.534"/><path fill="#FAFAFC" d="M69.182 150.486a3.83 3.83 0 0 0-2.411.488 3.9 3.9 0 0 0-1.63 1.859 6.8 6.8 0 0 0 0 4.96 6.2 6.2 0 0 0 1.257 2.233 3.3 3.3 0 0 0 2.257 1.101 3.9 3.9 0 0 0 1.777-.545c.54-.322.997-.771 1.33-1.308a7.16 7.16 0 0 0 1.06-5.826c-.345-1.321-1.308-2.666-2.655-2.704"/><path fill="#27272E" d="M70.16 150.745h.3c.29.033.57.129.82.281.444.298.824.683 1.119 1.132.294.448.497.952.597 1.48a7.18 7.18 0 0 1-.467 4.649 5.9 5.9 0 0 1-1.685 2.233 3.23 3.23 0 0 1-2.904.706 4.07 4.07 0 0 1-2.318-1.914 8.6 8.6 0 0 1-.963-2.628 5.9 5.9 0 0 1 .753-4.557 4.03 4.03 0 0 1 2.618-1.686q.433-.065.865 0 .284.059.286.083-.564-.02-1.12.069a4 4 0 0 0-2.424 1.693 5.64 5.64 0 0 0-.624 4.353c.175.879.493 1.723.94 2.498a3.7 3.7 0 0 0 2.092 1.732 2.86 2.86 0 0 0 2.566-.623 5.8 5.8 0 0 0 1.595-2.081 7 7 0 0 0 .519-4.435 4 4 0 0 0-1.505-2.545 3.1 3.1 0 0 0-1.06-.44"/><path fill="#27272E" d="M72.974 162.973c-.06 0-.143-.243-.4-.547a2.8 2.8 0 0 0-1.286-.828 6.4 6.4 0 0 0-1.58-.25c-.414 0-.684-.069-.684-.122s.255-.114.684-.159a4.4 4.4 0 0 1 1.7.152 2.46 2.46 0 0 1 1.393 1.048c.233.395.218.698.173.706m.594-13.52s-.12.266-.467.547a3.6 3.6 0 0 1-1.587.699 3.7 3.7 0 0 1-1.73-.091c-.422-.145-.648-.312-.625-.357a8.8 8.8 0 0 0 2.257.061 9.4 9.4 0 0 0 2.152-.859m51.698-54.406s.09 0 .248.091q.344.155.669.35c.807.46 1.564 1.005 2.258 1.625a16.3 16.3 0 0 1 4.845 7.732 50 50 0 0 1 1.844 9.009c.135 1.169.203 2.119.248 2.772q.057.513 0 1.025a6 6 0 0 1-.166-1.01c-.098-.721-.225-1.648-.368-2.749a59 59 0 0 0-1.949-8.933 16.86 16.86 0 0 0-4.65-7.64 25 25 0 0 0-2.979-2.272m-9.375 83.603c2.182-.084 3.928-2.279 6.11-2.157a3 3 0 0 1 2.053 1.072 3.06 3.06 0 0 1 .7 2.224 3 3 0 0 1-.327 1.143 3.04 3.04 0 0 1-1.767 1.505 3 3 0 0 1-1.171.132c-2.295-.266-3.634-2.977-5.876-3.494"/><path fill="#27272E" d="M134.385 180.526a13 13 0 0 1-2.039-.167l.12-.76c2.694.433 4.959 0 6.727-1.329 2.257-1.648 3.664-4.603 4.266-8.78v-.16c.248-1.655.587-34.141.587-40.308 0-9.639-8.375-10.953-8.736-11.006s-7.953-1.345-11.993 9.175c-4.229 11.021-10.993 32.258-11.437 34.749-.06.304-.143.684-.233 1.117-.707 3.19-2.167 9.821 2.212 13.633 4.883 4.261 8.736 2.613 8.894 2.545l.308.691c-.18.076-4.424 1.937-9.691-2.658-4.725-4.117-3.198-11.044-2.46-14.378.098-.426.173-.76.226-1.087.451-2.506 7.238-23.834 11.481-34.885 4.244-11.052 12.731-9.669 12.791-9.647s9.36 1.444 9.36 11.751c0 5.081-.331 38.66-.594 40.422v.152c-.632 4.39-2.167 7.512-4.567 9.29a8.6 8.6 0 0 1-5.222 1.64"/><path fill="#27272E" d="M144.444 135.242a14 14 0 0 0-1.565-3.797 13 13 0 0 0-2.972-3.251 12.7 12.7 0 0 0-4.838-2.279 14.02 14.02 0 0 0-9.517 1.253 17 17 0 0 0-3.319 2.393q.072-.125.173-.228.259-.326.565-.608a11.3 11.3 0 0 1 2.445-1.8 13.87 13.87 0 0 1 9.744-1.397c1.807.43 3.5 1.249 4.966 2.4a12.6 12.6 0 0 1 3.009 3.395c.529.875.92 1.829 1.159 2.826q.107.404.158.82c0 .167.007.273-.008.273m19.164 60.718q-.416-1.651-1.038-3.236a14.07 14.07 0 0 0-5.101-6.182 11 11 0 0 0-4.138-1.519 35 35 0 0 0-3.65-.38l-2.475-.175a4.3 4.3 0 0 1-.903-.121q.455-.057.911 0l2.482.045a31 31 0 0 1 3.687.304c1.521.2 2.984.718 4.296 1.519a13.7 13.7 0 0 1 5.147 6.411c.313.781.545 1.593.692 2.423.07.298.1.605.09.911"/><path fill="#B78876" d="M125.649 183.291s7.404-11.31 9.292-12.791c1.889-1.481 18.058-8.849 19.932-7.664s.752 3.753.752 3.753 6.832-2.416 7.562-1.466a3.44 3.44 0 0 1 0 3.888s3.762-.584 3.762.593a4.9 4.9 0 0 1-.602 2.256 4.8 4.8 0 0 1-1.58 1.709c-1.746 1.321-13.1 8.947-14.01 11.059l-3.679-.228z"/><path fill="#AA6550" d="M146.942 180.048q.126-.378.339-.714.541-.93 1.219-1.763a20.4 20.4 0 0 1 5.364-4.557 40.4 40.4 0 0 1 6.351-3.038c.835-.327 1.504-.57 1.993-.759q.364-.152.753-.213a3 3 0 0 1-.7.357l-1.949.843a51 51 0 0 0-6.245 3.091 22.5 22.5 0 0 0-5.357 4.398c-1.173 1.405-1.7 2.393-1.768 2.355m-9.382-.183q.132-.435.361-.828c.256-.524.624-1.276 1.136-2.187a21 21 0 0 1 2.039-3.038 9.4 9.4 0 0 1 1.55-1.557 39 39 0 0 1 1.964-1.231 53 53 0 0 1 7.223-3.63q1.135-.453 2.317-.76.436-.126.888-.16c0 .069-1.226.357-3.1 1.208a68 68 0 0 0-7.133 3.714c-.677.403-1.331.805-1.941 1.208a9.4 9.4 0 0 0-1.505 1.466 22 22 0 0 0-2.076 2.962l-1.249 2.112a4 4 0 0 1-.474.721"/></g><mask id="medic-ready_svg__c" width="163" height="119" x="17" y="0" maskUnits="userSpaceOnUse" style="mask-type:alpha"><path fill="#C4C4C4" d="M17.507 0h161.735v118.244H17.507z"/></mask><g mask="url(#medic-ready_svg__c)"><path fill="#B78876" d="M75.757 38.28c-.27-.107-10.767-2.887-10.135 7.83s11.159 7.862 11.166 7.55c.008-.311-1.03-15.38-1.03-15.38"/><path fill="#AA6550" d="M73.304 49.802c-.053-.038-.18.137-.482.304a1.82 1.82 0 0 1-1.384.106c-1.144-.342-2.197-2.081-2.363-4.01a6.3 6.3 0 0 1 .331-2.666 2.16 2.16 0 0 1 1.309-1.519.93.93 0 0 1 1.122.448c.158.288.105.509.158.524.052.015.218-.198.105-.63a1.15 1.15 0 0 0-.459-.646 1.36 1.36 0 0 0-1.038-.213 2.6 2.6 0 0 0-1.144.648c-.32.311-.556.7-.685 1.13a6.3 6.3 0 0 0-.466 3.038c.195 2.157 1.414 4.109 2.972 4.466a1.97 1.97 0 0 0 1.678-.388c.338-.334.383-.577.346-.592"/><path fill="#27272E" d="M102.256.006c5.395 0 10.888 0 17.637 3.563 4.258 2.278 6.907 5.795 9.126 10.094a23.4 23.4 0 0 1 2.513 11.31c-.195 3.706-.21 6.296-1.677 9.699"/><path fill="#B78876" d="M100.097.85a28.3 28.3 0 0 1 11.2 1.45 28.5 28.5 0 0 1 9.77 5.716 28.8 28.8 0 0 1 6.816 9.088 29.1 29.1 0 0 1 2.799 11.044c.692 13.42 1.302 27.935 1.159 35.242-.316 15.692-15.883 18.009-15.883 18.009s.346 4.648.752 10.42a20.8 20.8 0 0 1-1.084 8.136 20.7 20.7 0 0 1-4.134 7.068 20.5 20.5 0 0 1-6.533 4.888 20.3 20.3 0 0 1-15.794.663 20.4 20.4 0 0 1-6.808-4.226 20.7 20.7 0 0 1-4.685-6.537 20.8 20.8 0 0 1-1.848-7.85l-2.31-63.239a29.03 29.03 0 0 1 7.305-20.385A28.5 28.5 0 0 1 100.12.834z"/><path fill="#AA6550" d="M115.958 81.399s-9.556.501-19.939-6.206c0 0 4.703 11.393 20.217 10.133z"/><path fill="#27272E" d="M124.723 36.875c.012.59-.207 1.16-.61 1.587a2.2 2.2 0 0 1-1.542.691 2.1 2.1 0 0 1-1.553-.538 2.14 2.14 0 0 1-.704-1.497c0-.587.223-1.15.624-1.575.4-.425.948-.677 1.528-.704a2.11 2.11 0 0 1 2.053 1.216c.122.257.191.535.204.82m2.16-3.175c-.278.288-1.949-.98-4.341-.995s-4.146 1.185-4.402.888c-.128-.136.158-.66.926-1.215a5.98 5.98 0 0 1 3.528-1.063 5.74 5.74 0 0 1 3.446 1.154c.73.57.979 1.102.843 1.23m-25.582 3.176a2.24 2.24 0 0 1-.613 1.59c-.405.426-.96.674-1.546.688a2.1 2.1 0 0 1-1.552-.54 2.14 2.14 0 0 1-.706-1.495c0-.588.224-1.153.627-1.578a2.25 2.25 0 0 1 1.533-.701 2.1 2.1 0 0 1 1.549.542 2.15 2.15 0 0 1 .708 1.493m2.099-2.908c-.278.288-1.956-.98-4.341-.995s-4.146 1.177-4.41.88c-.12-.128.159-.66.934-1.215a6.05 6.05 0 0 1 3.529-1.063 5.84 5.84 0 0 1 3.445 1.155c.708.577.979 1.1.843 1.238m8.525 17.924c0-.136 1.504-.38 3.882-.675.609-.061 1.189-.175 1.294-.593a3.1 3.1 0 0 0-.391-1.83c-.557-1.52-1.151-3.038-1.768-4.702-2.453-6.699-4.221-12.198-3.95-12.297.27-.098 2.475 5.249 4.92 11.948.595 1.648 1.159 3.22 1.693 4.732.378.744.485 1.6.301 2.415a1.59 1.59 0 0 1-1.016.896 4.6 4.6 0 0 1-1.03.137c-2.423.13-3.928.13-3.935-.03m-7.042 1.633c.391 0 .369 2.597 2.573 4.473 2.205 1.877 4.974 1.61 4.989 1.975 0 .167-.625.51-1.791.532a6.43 6.43 0 0 1-4.161-1.52 5.74 5.74 0 0 1-1.994-3.751c-.09-1.064.203-1.724.384-1.71m-.798-28.976c-.241.653-2.618.327-5.425.646s-5.078 1.07-5.447.478c-.158-.28.24-.896 1.159-1.519a9.42 9.42 0 0 1 8.276-.85c1.031.387 1.542.903 1.437 1.245m22.459.57c-.421.547-2.061-.038-4.04-.076s-3.657.334-4.041-.243c-.165-.281.098-.828.836-1.337a5.8 5.8 0 0 1 6.515.258c.693.57.918 1.132.73 1.398"/><path fill="#27272E" d="M73.674 35.637s.677 3.63.857 5.263c.068.6 0 7.246 1.588 7.596 1.377.288 4.108-.98 5.327-3.73s3.536-9.35 3.28-12.35c-.338-4.086-.526-8.248.286-12.274s2.716-7.945 5.914-10.482 7.825-3.41 11.467-1.572c2.257 1.14 3.92 3.152 6.019 4.557a9.27 9.27 0 0 0 6.411 1.679 6 6 0 0 0 3.065-1.33 6.1 6.1 0 0 0 1.893-2.772c.662-2.392-.557-5.013-2.46-6.6-1.904-1.588-4.349-2.317-6.772-2.803a36.1 36.1 0 0 0-20.18 1.428c-6.373 2.499-12.038 7.3-14.747 13.626-3.145 7.315-2.784 11.804-1.948 19.748"/><path fill="#27272E" d="M109.202 36.974q-.112-1.306-.406-2.583a10.64 10.64 0 0 0-3.845-5.78 10.3 10.3 0 0 0-4.387-1.944 10.4 10.4 0 0 0-5.462.463 9.6 9.6 0 0 0-2.618 1.435 9.6 9.6 0 0 0-2.197 2.226 10.5 10.5 0 0 0-2.01 6.186c0 2.226.705 4.393 2.01 6.187a9.9 9.9 0 0 0 2.197 2.225 9.6 9.6 0 0 0 2.618 1.428c1.747.643 3.632.806 5.462.471a10.26 10.26 0 0 0 4.387-1.952 10.64 10.64 0 0 0 3.852-5.772 19 19 0 0 0 .399-2.59.5.5 0 0 1 0 .174v.51q.006.416-.068.827a7 7 0 0 1-.195 1.109 10.64 10.64 0 0 1-8.695 8.079 10.6 10.6 0 0 1-5.27-.514 9.9 9.9 0 0 1-2.724-1.466 10.1 10.1 0 0 1-2.257-2.279 10.88 10.88 0 0 1-2.092-6.418c0-2.31.733-4.56 2.092-6.418a10.86 10.86 0 0 1 5.004-3.797 10.7 10.7 0 0 1 5.635-.449 10.6 10.6 0 0 1 4.515 2.051 10.64 10.64 0 0 1 3.829 5.963q.142.55.196 1.116.073.406.068.82v.51c-.023.128-.03.181-.038.181m27.364.001a20 20 0 0 0-.406-2.583 10.64 10.64 0 0 0-3.853-5.78 10.25 10.25 0 0 0-4.386-1.944 10.36 10.36 0 0 0-5.455.463 10.46 10.46 0 0 0-4.815 3.66 10.5 10.5 0 0 0-2.016 6.187c0 2.227.706 4.395 2.016 6.187a9.9 9.9 0 0 0 2.189 2.225 9.5 9.5 0 0 0 2.626 1.428c1.745.643 3.627.806 5.455.471a10.25 10.25 0 0 0 4.386-1.952 10.63 10.63 0 0 0 3.853-5.772q.287-1.282.406-2.59.004.087 0 .174v.51q.005.415-.06.827a7 7 0 0 1-.203 1.109 10.57 10.57 0 0 1-3.83 5.97 10.54 10.54 0 0 1-4.514 2.043 10.6 10.6 0 0 1-10.639-4.246 10.84 10.84 0 0 1-2.1-6.418c0-2.311.736-4.561 2.1-6.418a10 10 0 0 1 2.257-2.279 10.1 10.1 0 0 1 2.723-1.473 10.75 10.75 0 0 1 5.644-.448 10.55 10.55 0 0 1 4.514 2.05 10.58 10.58 0 0 1 3.83 5.963q.145.55.203 1.117.065.406.06.82v.509q.014.094.015.19"/><path fill="#27272E" d="M115.688 35.834c0 .061-.384-.137-.979-.334a6.3 6.3 0 0 0-2.415-.319 6.5 6.5 0 0 0-2.332.623c-.565.28-.881.524-.918.47-.038-.052.226-.356.752-.713a5.39 5.39 0 0 1 4.966-.334c.655.288.956.577.926.607m4.235-26.477c.158-.813-.112-1.269.347-1.603s1.504.623 1.85 1.018c.121.129.482-.372.625-.464.157-.325.249-.679.271-1.04-.068-.57-.948-.76-1.362-1.11a4.2 4.2 0 0 0-1.467-.842 1.4 1.4 0 0 0-1.4.083 1.4 1.4 0 0 0-.316 1.063c-.002.38.07.757.211 1.11.142.354.41.641.752.805"/><path fill="#1900AF" d="m76.104 104.063-.587-18.616s3.664 17.036 22.858 16.816c18.336-.212 18.005-15.008 18.005-15.008l.654 7.504v30.313l-11.963 49.454-15.281 1.929-16.884-67.599z"/><path fill="#27272E" d="M114.671 98.109q-.086.21-.218.394-.345.562-.752 1.079a15.9 15.9 0 0 1-3.416 3.342 19.6 19.6 0 0 1-6.381 3.038c-2.806.76-5.732.964-8.615.6a27.7 27.7 0 0 1-8.276-2.514 36 36 0 0 1-6.02-3.676 43 43 0 0 1-3.656-3.038c-.414-.38-.715-.7-.926-.912a2 2 0 0 1-.3-.334q.19.121.353.281l.978.85c.843.76 2.092 1.77 3.717 2.948a37.5 37.5 0 0 0 6.02 3.57 27.9 27.9 0 0 0 8.163 2.445c2.83.359 5.703.171 8.464-.554a20.1 20.1 0 0 0 6.321-2.902 17 17 0 0 0 3.453-3.205c.723-.911 1.061-1.435 1.091-1.412"/><path fill="#FAFAFC" d="m101.354 249.889-.279-80.718-24.724-64.113-.827-19.3-15.049 11.5s-21.917 76.159-22.286 73.531-.849 79.1-.849 79.1z"/><path fill="#FAFAFC" d="m60.679 109.775 3.055 2.339-2.145 14.219 36.086 38.159L64.9 121.039l2.791-11.264z"/><path fill="#FAFAFC" d="m102.709 212.032-55.384-16.391-1.836-42.466 15.19-55.948s-36.205 18.237-38.673 29.858-8.404 39.815-9.029 60.209c-.564 18.229-.647 30.381 3.476 36.237 11.813 16.665 89.642 19.642 120.731 0"/><path fill="#27272E" d="M98.375 165.411s-.068-.06-.18-.205c-.113-.144-.294-.364-.497-.622l-1.881-2.431c-1.64-2.142-3.98-5.21-6.862-8.993l-22.52-29.751-1.693-2.279-.06-.076v-.091c.963-3.889 1.904-7.664 2.8-11.264l.18.243h-7.193V97.136l.06-.045 10.887-8.355 3.01-2.279.752-.585q.13-.107.279-.182l-.249.22-.752.615-2.942 2.325-10.804 8.46.06-.122v12.548l-.18-.175h7.312l-.06.243-2.784 11.264-.037-.167 1.7 2.241 22.422 29.827 6.772 9.061c.752 1.064 1.392 1.892 1.82 2.477.196.273.347.493.467.653z"/><path fill="#FAFAFC" d="M123.061 93.916c-4.417-7.793-6.712-6.988-6.712-6.988l.233 2.78v5.84l-2.099 25.066-13.415 54.451.278 74.824h50.736l6.297-92.916-.572-43.119z"/><path fill="#FAFAFC" d="M157.814 113.854s13.13 9.783 14.296 25.528c.925 12.783 3.01 47.79 3.423 55.408.602 11.864-8.554 39.656-32.391 31.787-14.295-4.724-67.1-22.839-67.1-22.839l3.514-22.642 62.676 3.798 1.249-52.773z"/><path fill="#27272E" d="M101.075 166.877q.03-.125.083-.243c.06-.174.151-.41.264-.698.248-.638.609-1.52 1.06-2.674l3.973-9.813 5.929-14.538c.564-1.36 1.121-2.78 1.821-4.17s1.46-2.78 2.257-4.17a93 93 0 0 1 5.628-8.203 93 93 0 0 1 3.123-3.873v.205l-2.212-5.674-.076-.19.188-.068 9.232-3.152-.097.258c-4.289-7.231-7.908-13.338-10.481-17.667-1.264-2.142-2.348-3.859-3.499-4.557a4.7 4.7 0 0 0-1.4-.57 5 5 0 0 1-.519-.13q.266.02.527.07a4.4 4.4 0 0 1 1.452.538 6.5 6.5 0 0 1 1.776 1.74 31 31 0 0 1 1.843 2.795l10.609 17.606.113.19-.211.068-9.232 3.198.113-.251 2.22 5.674.045.106-.083.092a90 90 0 0 0-3.1 3.858 94 94 0 0 0-5.613 8.142c-.805 1.383-1.595 2.742-2.257 4.132a85 85 0 0 0-1.813 4.14c-2.257 5.453-4.304 10.368-6.02 14.507-1.715 4.14-3.114 7.436-4.085 9.76-.482 1.132-.865 2.021-1.129 2.651-.128.289-.225.509-.308.684a1 1 0 0 1-.121.227"/><path fill="#27272E" d="M125.265 95.047s.09 0 .248.092q.346.155.67.349a13.2 13.2 0 0 1 2.257 1.625 16.3 16.3 0 0 1 4.846 7.732 50 50 0 0 1 1.843 9.009c.136 1.169.203 2.119.248 2.772q.057.513 0 1.025a6 6 0 0 1-.165-1.01c-.098-.721-.226-1.648-.369-2.749a58.6 58.6 0 0 0-1.949-8.933 16.85 16.85 0 0 0-4.649-7.64 25 25 0 0 0-2.98-2.272"/><path fill="#27272E" d="M134.384 180.526a13 13 0 0 1-2.039-.167l.121-.759c2.693.433 4.958 0 6.726-1.33 2.258-1.648 3.665-4.602 4.267-8.78v-.159c.248-1.656.586-34.142.586-40.309 0-9.639-8.374-10.953-8.735-11.006s-7.953-1.344-11.993 9.175c-4.229 11.021-10.993 32.258-11.437 34.749-.06.304-.143.684-.233 1.117-.707 3.19-2.167 9.821 2.212 13.634 4.883 4.261 8.735 2.612 8.893 2.544l.309.691c-.181.076-4.424 1.937-9.691-2.658-4.725-4.117-3.198-11.044-2.461-14.378.098-.426.174-.76.226-1.087.452-2.506 7.238-23.834 11.482-34.885 4.243-11.052 12.731-9.669 12.791-9.646s9.36 1.443 9.36 11.75c0 5.081-.331 38.66-.595 40.422v.152c-.632 4.391-2.167 7.512-4.567 9.29a8.6 8.6 0 0 1-5.222 1.64"/></g></g><defs><clipPath id="medic-ready_svg__a"><path fill="#fff" d="M.844 0h200v240h-200z"/></clipPath></defs></svg>