<svg xmlns="http://www.w3.org/2000/svg" width="201" height="240" fill="none" viewBox="0 0 201 240"><g clip-path="url(#medic-screening-primary_svg__a)"><circle cx="100.116" cy="140" r="100" fill="#E6E6F0"/><mask id="medic-screening-primary_svg__b" width="201" height="200" x="0" y="40" maskUnits="userSpaceOnUse" style="mask-type:alpha"><circle cx="100.116" cy="140" r="100" fill="#fff"/></mask><g mask="url(#medic-screening-primary_svg__b)"><path fill="#27272E" d="M140.156 22.715c.09-3.28-2.915-5.808-5.98-7.011s-6.399-1.655-9.105-3.483c-2.393-1.625-4-4.153-6.026-6.214A20.03 20.03 0 0 0 109.98.693a19.94 19.94 0 0 0-10.491.019 20.03 20.03 0 0 0-9.047 5.345 20.2 20.2 0 0 0-5.127 9.21c-1.159 4.664-.366 10.178 3.29 13.285 4.245 3.596 10.532 2.798 15.967 1.677s11.595-2.256 16.133.986c2.736 1.94 4.306 5.093 5.98 8.011 1.675 2.919 3.738 5.89 6.938 6.989 3.199 1.098 7.475-.798 7.588-4.16"/><path fill="#27272E" d="M139.94 24.513c-.359 2.746 1.615 5.205 3.581 7.146s4.186 3.995 4.538 6.77c.403 3.212-1.929 6.372-1.249 9.539.426 2.008 1.981 3.55 2.923 5.378a11.53 11.53 0 0 1 .576 8.418c-.808 2.768-2.101 8.944-4.015 11.096-5.285 5.943-13.695 11.073-21.417 12.856s-15.752 1.798-23.661 1.309c-6.474-.399-13.927-.098-19.324-9.065-2.796-4.649-4.18-10.817-5.66-16.038-1.285-4.513-2.392-9.305-1.061-13.789.747-2.602 2.34-4.927 3.102-7.522.957-3.265.606-6.77.987-10.133a23.34 23.34 0 0 1 3.743-10.283 23.16 23.16 0 0 1 8.006-7.418 22.99 22.99 0 0 1 21.144-.66"/><path fill="#FFBE9D" d="M82.362 35.774c.605-9.35 6.788-20.815 16.05-19.807l28.901 7.418a5.46 5.46 0 0 1 3.509 1.836 5.52 5.52 0 0 1 1.358 3.738l-3.252 70.17.202.037s-6.586 19.792-25.702 13.751c-3.79-1.203-5.524-5.371-6.272-9.666h-.194v-1.505a46.3 46.3 0 0 1-.112-9.636c-.053-5.664-.045-7.981-.053-7.929-.007.053-11.87-2.016-14.293-17.61-1.234-7.695-.815-20.408-.142-30.797"/><path fill="#27272E" d="M87.02 45.17a2 2 0 0 0 .543 1.402c.356.378.845.601 1.363.62a1.9 1.9 0 0 0 1.403-.463 1.9 1.9 0 0 0 .653-1.334 2 2 0 0 0-.548-1.404 1.98 1.98 0 0 0-1.366-.62 1.9 1.9 0 0 0-1.4.465 1.9 1.9 0 0 0-.649 1.333m-1.935-2.776c.246.264 1.756-.857 3.894-.85s3.738 1.091 3.94.828c.112-.113-.142-.587-.822-1.083a5.37 5.37 0 0 0-3.148-.986 5.2 5.2 0 0 0-3.102.993c-.658.512-.89.978-.762 1.098m22.949 2.777a2 2 0 0 0 .548 1.403c.358.378.848.6 1.366.62a1.9 1.9 0 0 0 1.401-.465 1.9 1.9 0 0 0 .647-1.333 2 2 0 0 0-.543-1.403 1.97 1.97 0 0 0-1.363-.62 1.9 1.9 0 0 0-1.405.461 1.9 1.9 0 0 0-.651 1.336m-1.929-2.332c.247.264 1.757-.85 3.895-.842 2.138.007 3.701 1.09 3.932.827.112-.12-.134-.587-.822-1.09a5.46 5.46 0 0 0-3.147-.986 5.2 5.2 0 0 0-3.095 1c-.658.505-.882 1.008-.763 1.091m-7.796 15.94c0-.12-1.316-.353-3.469-.64-.546-.052-1.062-.165-1.159-.54a2.8 2.8 0 0 1 .374-1.626l1.622-4.182c2.243-5.95 3.888-10.848 3.648-10.93-.239-.083-2.242 4.656-4.485 10.614a530 530 0 0 0-1.555 4.205 3.18 3.18 0 0 0-.291 2.152 1.38 1.38 0 0 0 .897.804q.454.127.927.136c2.138.12 3.483.135 3.49.007"/><path fill="#EB996E" d="M96.775 84.241a39.2 39.2 0 0 0 20.76-5.53s-5.233 10.781-20.745 9.292zm2.43-20.273a3.84 3.84 0 0 1 1.543-1.166 3.8 3.8 0 0 1 1.911-.263 3.5 3.5 0 0 1 2.43 1.316 2.27 2.27 0 0 1 .157 2.558 2.54 2.54 0 0 1-2.804.707 8.1 8.1 0 0 1-2.728-1.648 2.2 2.2 0 0 1-.606-.631.76.76 0 0 1 0-.805"/><path fill="#27272E" d="M104.595 60.282c-.344 0-.351 2.317-2.347 3.964-1.996 1.648-4.485 1.392-4.485 1.723 0 .143.553.451 1.592.482a5.74 5.74 0 0 0 3.738-1.302 5.07 5.07 0 0 0 1.816-3.325c.105-.978-.149-1.557-.314-1.542m.546-21.213c.209.586 2.347.315 4.851.624 2.505.308 4.538 1 4.874.481.15-.248-.201-.805-1.024-1.369a7.95 7.95 0 0 0-3.603-1.279 8.1 8.1 0 0 0-3.798.437c-.919.376-1.383.827-1.3 1.105"/><path fill="#27272E" d="M138.13 74.68a13.7 13.7 0 0 1-6.453-.247 13.7 13.7 0 0 1-5.63-3.184 13.86 13.86 0 0 1-3.566-5.418 13.9 13.9 0 0 1-.715-6.459c.479-3.829 2.535-7.726 1.211-11.351-1.742-4.792-8.417-6.267-10.189-11.051-1.032-2.776-.105-6.018-1.271-8.749-1.099-2.565-3.775-4.04-6.384-4.987s-5.397-1.602-7.588-3.31-3.55-4.942-2.138-7.342a145.8 145.8 0 0 1 33.85 8.275c2.534.948 5.188 2.091 6.683 4.355 1.585 2.393 1.495 5.484 1.376 8.358l-1.952 41.99"/><path fill="#9292A9" d="M137.158 80.036s.097-.045.254-.158l.688-.527c.598-.474 1.495-1.173 2.564-2.144a26.6 26.6 0 0 0 3.641-3.851 14.4 14.4 0 0 0 2.901-6.424 9.83 9.83 0 0 0-1.996-8.2 31 31 0 0 0-3.611-3.099 8.43 8.43 0 0 1-2.818-3.852c-1.144-3.174-.636-6.852-1.077-10.614a21.2 21.2 0 0 0-4.396-10.742 14.4 14.4 0 0 0-4.59-3.761 28 28 0 0 0-5.42-1.836 12.6 12.6 0 0 1-4.762-2.362 19 19 0 0 1-3.453-3.829c-1.944-2.783-3.387-5.747-5.233-8.222a17.6 17.6 0 0 0-3.05-3.257 11.7 11.7 0 0 0-3.619-1.986 7.68 7.68 0 0 0-6.885.692 6.4 6.4 0 0 0-1.723 2.067 6.4 6.4 0 0 0-.721 2.597 4.7 4.7 0 0 0 .934 3.212q.27.35.628.61.116.1.254.165a2 2 0 0 0-.209-.218 3.4 3.4 0 0 1-.56-.64 4.6 4.6 0 0 1-.748-3.106 6.15 6.15 0 0 1 .735-2.447 6.1 6.1 0 0 1 1.665-1.931 7.3 7.3 0 0 1 6.503-.542 11.2 11.2 0 0 1 3.447 1.933 18 18 0 0 1 2.93 3.19c1.794 2.43 3.207 5.394 5.181 8.275a19.3 19.3 0 0 0 3.558 3.979 13.1 13.1 0 0 0 4.912 2.445 27.4 27.4 0 0 1 5.3 1.805 13.85 13.85 0 0 1 4.381 3.611 20.53 20.53 0 0 1 4.276 10.381c.456 3.633-.068 7.372 1.151 10.75a9.1 9.1 0 0 0 2.99 4.114 32 32 0 0 1 3.566 3.01 9.31 9.31 0 0 1 1.944 7.748 14.14 14.14 0 0 1-2.721 6.266 29 29 0 0 1-3.521 3.889c-1.054.993-1.907 1.722-2.475 2.257a9 9 0 0 0-.815.752"/><path fill="#27272E" d="M139.992 81.977c3.184-3.1 8.619-.407 11.295 3.144 2.677 3.55 4.568 8.14 8.627 9.93s9.33.248 12.709 3.091c4.695 3.927 2.056 13.022 7.139 16.437 2.011 1.354 4.672 1.309 6.825 2.422 5.076 2.633 5.017 9.84 4.232 15.534-1.069 8.012-2.28 16.286-6.661 23.057s-12.911 11.501-20.491 8.899c-7.289-2.505-11.034-10.419-14.002-17.573a12824 12824 0 0 0-12.305-29.691c-2.37-5.725-4.769-11.54-5.539-17.693s.261-12.788 4.156-17.618"/><path fill="#1900AF" d="M142.033 75.146c2.31-.278 4.081 2.573 3.468 4.837-.613 2.265-2.766 3.762-4.971 4.514a7.4 7.4 0 0 1-3.835.444 3.7 3.7 0 0 1-1.767-.786 3.76 3.76 0 0 1-1.141-1.569 2.23 2.23 0 0 1-.068-1.683 2.2 2.2 0 0 1 1.13-1.243c1.495-.956 2.414-1.708 3.618-2.377 1.839-1.016 1.727-1.151 3.566-2.174m-53.25 25.125 8.986-6.853 33.872-2.182 1.361 4.574-11.019 69.177 8.694 82.536H83.423z"/><path fill="#27272E" d="M125.049 218.209c-1.084-1.166-2.856-2.761-4.433-2.799-11.318-.248-22.868-1.384-34.186-1.64l-.905 33.731c2.706-4.799 5.27-9.779 5.98-15.271.315-2.392.748-5.265 2.879-6.273 1.226-.58 2.668-.354 3.992-.083 4.089.812 8.148 1.873 12.305 2.136 4.156.264 8.514-.353 12.006-2.64a7.4 7.4 0 0 0 2.87-3.122 3.84 3.84 0 0 0-.508-4.039" opacity=".3"/><path fill="#1900AF" d="m96.11 101.633-1.055-9.892a3.16 3.16 0 0 1 .694-2.325 3.13 3.13 0 0 1 2.132-1.136l31.174-2.835a1.48 1.48 0 0 1 1.104.372 1.5 1.5 0 0 1 .503 1.057l.351 11.772-9.03 15.414-9.278 2.971h-11.348l-6.526-7.011z"/><path fill="#27272E" d="M126.408 94.87q-.628-.027-1.248-.128a22 22 0 0 0-3.394-.06 33 33 0 0 0-4.994.752c-1.861.392-3.887.94-6.033 1.467A39 39 0 0 1 104.602 98a15.8 15.8 0 0 1-5.091-.346 10.5 10.5 0 0 1-3.17-1.324q-.39-.255-.747-.557c-.165-.135-.247-.218-.232-.226.015-.007.366.249 1.069.647.99.55 2.056.95 3.162 1.189 1.641.346 3.326.432 4.994.256a41 41 0 0 0 6.077-1.121c2.138-.52 4.172-1.061 6.048-1.437a30 30 0 0 1 5.054-.647 18 18 0 0 1 3.431.18q.605.105.92.18c.187.031.299.061.291.076"/><path fill="#27272E" d="M96.85 96.427c-.837 2.31-.86 5.168.837 6.936 1.376 1.445 3.596 1.806 5.547 1.415a17.4 17.4 0 0 0 5.42-2.453c4.291-2.565 8.657-5.228 13.531-6.319.32-.038.623-.166.875-.369a.585.585 0 0 0 0-.85.8.8 0 0 0-.404-.113c-4.313-.436-8.597.753-12.821 1.746-4.223.993-8.746 1.632-12.82.15" opacity=".3"/><path fill="#27272E" d="M102.808 87.964a2.87 2.87 0 0 0-1.069 1.023c-.494.798-.464 2.152-.426 3.612.082 2.926.56 5.265.448 5.265a5.2 5.2 0 0 1-.426-1.504 24 24 0 0 1-.411-3.761q-.04-1.05.045-2.1c.042-.59.227-1.16.538-1.662a2.16 2.16 0 0 1 .875-.79c.261-.105.418-.105.426-.083m8.238 8.599a46 46 0 0 0-.225-4.784c-.358-2.626-1.226-4.62-1.106-4.665.284.384.499.814.636 1.272.408 1.075.696 2.193.859 3.332.162 1.141.194 2.297.097 3.446a4.2 4.2 0 0 1-.261 1.4m10.04-10.284c.277.341.478.739.59 1.165a8.3 8.3 0 0 1 .411 3.137 8.1 8.1 0 0 1-.822 3.062 3 3 0 0 1-.747 1.076 10.44 10.44 0 0 0 .56-8.44z"/><path fill="#FAFAFC" d="M77.369 104.687s-10.63 7.161-13.457 20.1c-2.197 10.17-8.223 63.896-8.223 63.896L45.156 209.31l6.877 16.459a25.04 25.04 0 0 0 16.522-4.747l4.627-3.385 8.485-12.66z"/><path fill="#FAFAFC" d="m95.385 95.194-18.017 9.493-4.254 14.059-3.79 40.765 7.132 47.79-12.514 40.042 21.582.158.516-23.47 2.153-75.977 2.115-48.4z"/><path fill="#27272E" d="M86.661 158.533a4 4 0 0 1-.336-.572l-.897-1.662c-.374-.753-.748-1.67-1.204-2.739-.217-.541-.404-1.135-.62-1.76-.217-.624-.456-1.286-.643-1.993-1.697-5.635-2.819-13.766-2.58-22.733 0-.692.053-1.377.098-2.061v-.121l.112-.045 3.155-1.339-.045.331-3.155-2.55-.067-.053v-.075a27.6 27.6 0 0 1 1.435-9.065 75 75 0 0 1 2.422-6.822 83 83 0 0 1 1.9-4.341c.238-.504.425-.888.552-1.136q.093-.201.217-.383a1.8 1.8 0 0 1-.157.406l-.5 1.166a128 128 0 0 0-1.795 4.378c-.733 1.888-1.57 4.175-2.332 6.823a27.7 27.7 0 0 0-1.368 8.944l-.075-.128 3.162 2.535.247.203-.292.128-3.155 1.339.12-.165a60 60 0 0 0-.097 2.046c-.232 8.929.837 17.023 2.46 22.635.171.715.403 1.369.605 1.993s.381 1.227.598 1.768c.441 1.068.748 2.009 1.136 2.746l.823 1.692q.158.296.276.61m-14.144 28.54a6 6 0 0 1-.172-.587l-.426-1.715a57 57 0 0 1-.606-2.715c-.21-1.061-.486-2.257-.695-3.634-.21-1.376-.493-2.828-.695-4.423a230 230 0 0 1-.59-5.108c-.33-3.61-.547-7.59-.547-11.772s.247-8.162.584-11.766c.201-1.797.373-3.513.62-5.107s.463-3.077.703-4.424c.239-1.346.493-2.557.747-3.625s.434-1.979.62-2.716c.188-.737.322-1.286.434-1.708q.064-.303.172-.594-.021.31-.097.609l-.359 1.723c-.164.752-.366 1.663-.553 2.731s-.456 2.257-.658 3.633c-.202 1.377-.463 2.821-.65 4.416s-.396 3.302-.583 5.093a141 141 0 0 0-.553 11.742c-.015 4.175.209 8.132.508 11.735.187 1.791.336 3.506.56 5.093s.427 3.077.643 4.423.449 2.565.636 3.634a62 62 0 0 0 .546 2.73c.164.745.269 1.294.35 1.723q.063.3.06.609m4.874 36.695a7.8 7.8 0 0 1-.874 1.828 29.6 29.6 0 0 1-6.137 7.538 8 8 0 0 1-1.608 1.226q.661-.765 1.42-1.429a44 44 0 0 0 3.268-3.559 43 43 0 0 0 2.825-3.919q.496-.881 1.107-1.685"/><path fill="#FAFAFC" d="M160.206 103.521a24.8 24.8 0 0 1 9.803 6.968 25 25 0 0 1 5.402 10.785c5.899 26.148 15.983 60.932 16.148 72.163.194 14.293-5.981 24.072-14.122 25.878-6.414 1.429-64.53-1.776-64.53-1.776l-2.721-21.815 47.097-6.973-6.444-36.168 6.376-50.19z"/><path fill="#FAFAFC" d="M157.215 102.355 144.2 97.006l-13.718-8.094-.082 2.37a13.95 13.95 0 0 1 1.652 9.599l-11.437 59.924 2.586 43.788 5.315 42.878h41.273l-18.95-44.871 6.69-60.474z"/><path fill="#27272E" d="m169.274 219.683-.284.038-.83.083c-.748.075-1.817.067-3.222.105-2.796 0-6.863-.06-11.924-.226-10.115-.338-24.191-1.023-40.092-1.948h-.157v-.166c-.321-2.595-.665-5.333-1.009-8.109-.591-4.701-1.159-9.29-1.705-13.676v-.188h.18l35.943-5.266 10.555-1.504 2.834-.384.747-.097h.254l-.246.052-.748.128-2.826.451-10.533 1.618-35.883 5.393.157-.218c.553 4.393 1.129 8.975 1.712 13.676.351 2.783.688 5.522 1.009 8.117l-.179-.166c15.893.933 29.977 1.663 40.084 2.077 5.054.195 9.113.308 11.909.346 1.398 0 2.489 0 3.214-.046l.83-.045z"/><path fill="#27272E" d="M150.458 148.881q.08.196.105.407c.06.308.134.684.224 1.158.194 1.061.456 2.513.748 4.28.635 3.671 1.495 8.644 2.452 14.143s1.734 10.486 2.347 14.165c.277 1.775.501 3.227.665 4.295.068.474.12.865.165 1.173q.024.208 0 .414a1.4 1.4 0 0 1-.112-.399q-.088-.46-.232-1.158c-.194-1.068-.464-2.513-.792-4.28-.651-3.619-1.496-8.614-2.453-14.143a1015 1015 0 0 1-2.339-14.164c-.27-1.776-.494-3.235-.658-4.303a72 72 0 0 0-.157-1.174q-.004-.208.037-.414m-13.987-55.726s0 .053.053.15l.119.437c.097.39.262.955.419 1.707.456 2.127.786 4.28.987 6.447.305 3.27.387 6.558.246 9.839-.127 3.762-.515 7.876-1.076 12.262v.135h-.135l-4.283.798.142-.263c.247.662.493 1.369.688 2.098a26.84 26.84 0 0 1-.486 14.526 45.7 45.7 0 0 1-4.994 10.833c-1.779 2.903-3.379 5.13-4.485 6.672l-1.294 1.76c-.134.188-.254.331-.344.452a.6.6 0 0 1-.127.15s0-.06.097-.173l.314-.474c.299-.436.748-1.038 1.226-1.805 1.069-1.565 2.639-3.814 4.374-6.725a46.6 46.6 0 0 0 4.889-10.788c1.233-4.265 1.816-9.335.456-14.292a22 22 0 0 0-.673-2.061l-.082-.219.232-.045 4.253-.79-.157.166c.568-4.371.98-8.493 1.122-12.224.157-3.26.105-6.526-.157-9.779a61 61 0 0 0-.875-6.447c-.135-.752-.284-1.324-.351-1.715a18 18 0 0 1-.09-.444.5.5 0 0 1-.008-.188m0 61.451v-9.546s.12-2.354-1.854-1.858c-1.973.496-1.607 4.22-1.607 4.22s-.366 14.526.493 14.406c.86-.121 1.196-1.242 1.196-1.242v-5.589z"/><path fill="#27272E" d="M144.679 155.2a32.6 32.6 0 0 1-5.091.196 32.6 32.6 0 0 1-5.091-.196 34 34 0 0 1 5.091-.195 34 34 0 0 1 5.091.195m18.772-46.007a7 7 0 0 1-1.062.399q-1.452.522-2.826 1.226a22 22 0 0 0-7.64 6.552 16.4 16.4 0 0 0-1.495 2.46 16 16 0 0 0-.897 2.527 25 25 0 0 0-.748 4.514 44 44 0 0 0-.134 3.099q.033.572 0 1.143a4.6 4.6 0 0 1-.15-1.098 28 28 0 0 1 0-3.122c.074-1.548.302-3.085.681-4.588.225-.893.528-1.764.904-2.603q.655-1.332 1.533-2.528a21.15 21.15 0 0 1 7.834-6.567 19.4 19.4 0 0 1 2.893-1.128 5.6 5.6 0 0 1 1.107-.286M-4.05 188.683l67.992 25.336 57.316 8.816-68.148-33.43z"/><path fill="#FFBE9D" d="M25.046 216.005a29.2 29.2 0 0 0-3.633-10.366 7.5 7.5 0 0 1-.927-1.948 2.23 2.23 0 0 1 .381-2.039c.875-.955 2.467-.534 3.544.188a12.53 12.53 0 0 1 4.575 6.455 37.7 37.7 0 0 1 1.495 7.906"/><path fill="#FFBE9D" d="M51.548 209.49H48.17a6.6 6.6 0 0 0-2.99-1.715 2.35 2.35 0 0 0-2.243.88c1.495-2.505 3.14-5.266 3.454-6.018.605-1.467-.748-2.565-2.923-2.565s-11.804 13.713-11.804 13.713 5.98-11.035 6.556-12.72c1.45-4.213-3.132-4.513-4.792-2.49-2.063 2.52-10.398 15.21-10.398 15.21s-1.585 2.573-.494 5.018c1.092 2.445 4.261 1.504 4.261 1.504.047.715.279 1.404.672 2.001a4.1 4.1 0 0 0 1.571 1.4c2.437 1.369 5.652-.218 5.652-.218l12.462 2.813 4.485-.451a13.8 13.8 0 0 0 8.159-3.773 13.93 13.93 0 0 0 4.13-8.023z"/><path fill="#EB996E" d="M43.168 208.46c.142.09-1.496 2.708-3.663 5.852-1.077 1.573-2.071 3.009-2.811 3.987a10 10 0 0 1-1.256 1.58q.43-.92 1.031-1.738a219 219 0 0 1 2.714-4.054 216 216 0 0 1 2.781-4.003l.867-1.196q.15-.229.337-.428m-.748 13.962c.304-.715.675-1.401 1.107-2.046a716 716 0 0 1 2.93-4.777c.576-.925 1.129-1.813 1.577-2.633a3.06 3.06 0 0 0 .277-2.325 5.8 5.8 0 0 0-1.062-1.993s.202.105.479.406c.39.432.678.946.845 1.505a3.28 3.28 0 0 1-.217 2.565c-.449.85-.994 1.745-1.563 2.678a191 191 0 0 1-3.035 4.717q-.601.999-1.338 1.903"/><path fill="#EB996E" d="M48.961 223.671a7 7 0 0 1 .666-1.949l.89-2.046c.37-.814.675-1.657.911-2.52a2.98 2.98 0 0 0-.396-2.445 2.3 2.3 0 0 0-.89-.64 2.5 2.5 0 0 0-.927-.263 3.7 3.7 0 0 0-1.338.474 1.6 1.6 0 0 1-.508.211s.142-.143.434-.346a6 6 0 0 1 .56-.339c.262-.151.552-.245.852-.278.367.008.727.09 1.062.24a2.54 2.54 0 0 1 1.032.708 3.24 3.24 0 0 1 .493 2.761 14.5 14.5 0 0 1-.964 2.587c-.352.753-.688 1.437-.965 2.009q-.407.942-.912 1.836m2.295-11.841c.183.015.361.069.523.158.463.196.9.448 1.3.752a7.14 7.14 0 0 1 2.677 4.161 7.17 7.17 0 0 1-.665 4.911 6 6 0 0 1-.845 1.257c-.24.263-.396.383-.411.368s.493-.617 1.01-1.745a7.3 7.3 0 0 0 .53-4.703 7.26 7.26 0 0 0-2.467-4.031 18 18 0 0 0-1.652-1.128m-21.905-7.199a37 37 0 0 1-2.818 4.513 36 36 0 0 1-3.132 4.371 36 36 0 0 1 2.81-4.514 36.6 36.6 0 0 1 3.14-4.37"/><path fill="#FFBE9D" d="m110.014 196.566-7.775-1.767-7.476-7.079a5.33 5.33 0 0 0-3.334-1.444l-13.583-.753a5.26 5.26 0 0 0-3.738 1.249l-9.718 8.275 42.394 20.724 5.816.519z"/><path fill="#EB996E" d="M86.982 192.918c0 .06-1.002-.12-2.617-.331s-3.917-.399-6.152.647a16 16 0 0 0-2.93 1.843c-.86.647-1.63 1.249-2.31 1.708q-.803.56-1.682.985a2.4 2.4 0 0 1-.666.249c0-.061.89-.474 2.19-1.46.651-.481 1.399-1.106 2.243-1.775a15.4 15.4 0 0 1 2.99-1.911 8.8 8.8 0 0 1 3.47-.752c.963-.016 1.927.06 2.877.225.815.128 1.496.279 1.9.392.237.02.47.081.687.18m2.788 7.613c0 .06-.552-.188-1.494-.279a7.7 7.7 0 0 0-3.492.489 18 18 0 0 0-3.2 1.648 6.6 6.6 0 0 1-1.322.752 5.5 5.5 0 0 1 1.166-.978 13.8 13.8 0 0 1 3.222-1.783 7.1 7.1 0 0 1 3.663-.398c.528.039 1.034.23 1.458.549m17.484 1.264c-.097.06-1.188-1.58-2.631-3.521s-2.684-3.468-2.601-3.543a17.6 17.6 0 0 1 2.908 3.31 17.3 17.3 0 0 1 2.324 3.754"/><path fill="#FF9A6C" d="m85.86 186.298 17.195-16.135a1.67 1.67 0 0 0 .524-1.292 1.67 1.67 0 0 0-.644-1.236 1.64 1.64 0 0 0-2.101.083L80.65 185.937"/><path fill="#9292A9" d="m85.86 186.298 17.195-16.135a1.67 1.67 0 0 0 .524-1.292 1.67 1.67 0 0 0-.644-1.236 1.64 1.64 0 0 0-2.101.083L80.65 185.937"/></g><mask id="medic-screening-primary_svg__c" width="140" height="121" x="56" y="0" maskUnits="userSpaceOnUse" style="mask-type:alpha"><path fill="#C4C4C4" d="M56.003 0H195.92v120.038H56.003z"/></mask><g mask="url(#medic-screening-primary_svg__c)"><path fill="#27272E" d="M140.156 22.715c.09-3.28-2.915-5.808-5.98-7.011s-6.399-1.655-9.106-3.483c-2.392-1.625-3.999-4.153-6.025-6.214A20.04 20.04 0 0 0 109.98.693a19.94 19.94 0 0 0-10.491.019 20.03 20.03 0 0 0-9.047 5.345 20.2 20.2 0 0 0-5.127 9.21c-1.159 4.664-.367 10.178 3.289 13.285 4.246 3.596 10.533 2.798 15.968 1.677s11.595-2.256 16.133.986c2.736 1.94 4.306 5.093 5.98 8.011 1.675 2.919 3.738 5.89 6.937 6.989 3.2 1.098 7.476-.798 7.588-4.16"/><path fill="#27272E" d="M139.94 24.513c-.359 2.746 1.615 5.205 3.581 7.146s4.186 3.995 4.537 6.77c.404 3.212-1.928 6.372-1.248 9.539.426 2.008 1.981 3.55 2.923 5.378a11.54 11.54 0 0 1 .576 8.418c-.808 2.768-2.101 8.944-4.015 11.096-5.285 5.943-13.695 11.073-21.418 12.856s-15.751 1.798-23.66 1.309c-6.474-.399-13.927-.098-19.325-9.065-2.796-4.649-4.179-10.817-5.659-16.038-1.286-4.513-2.392-9.305-1.061-13.789.747-2.602 2.34-4.927 3.102-7.522.957-3.265.606-6.77.987-10.133a23.34 23.34 0 0 1 3.743-10.283 23.16 23.16 0 0 1 8.006-7.418 22.99 22.99 0 0 1 21.144-.66"/><path fill="#FFBE9D" d="M82.362 35.774c.605-9.35 6.788-20.815 16.05-19.807l28.901 7.418a5.45 5.45 0 0 1 3.508 1.836 5.52 5.52 0 0 1 1.359 3.738l-3.252 70.17.201.037s-6.586 19.792-25.701 13.751c-3.79-1.203-5.524-5.371-6.272-9.666h-.194v-1.505a46.3 46.3 0 0 1-.112-9.636c-.053-5.665-.045-7.981-.053-7.929-.007.053-11.871-2.016-14.293-17.61-1.234-7.695-.815-20.408-.142-30.797"/><path fill="#27272E" d="M87.02 45.17a2 2 0 0 0 .542 1.402c.357.378.846.601 1.364.62a1.9 1.9 0 0 0 1.403-.463 1.92 1.92 0 0 0 .652-1.334 2 2 0 0 0-.547-1.404 1.98 1.98 0 0 0-1.366-.62 1.9 1.9 0 0 0-1.401.465 1.9 1.9 0 0 0-.648 1.333m-1.936-2.776c.247.264 1.757-.857 3.895-.85s3.738 1.091 3.94.828c.112-.113-.142-.587-.823-1.083a5.37 5.37 0 0 0-3.147-.986 5.2 5.2 0 0 0-3.102.993c-.658.512-.89.978-.763 1.098m22.95 2.777c-.006.521.19 1.025.548 1.403.357.378.848.6 1.366.62a1.89 1.89 0 0 0 1.858-1.066c.111-.229.176-.478.19-.732a2 2 0 0 0-.543-1.403 1.98 1.98 0 0 0-1.363-.62 1.9 1.9 0 0 0-1.406.461 1.9 1.9 0 0 0-.65 1.336m-1.929-2.332c.247.264 1.757-.85 3.895-.842 2.138.007 3.7 1.09 3.932.827.112-.12-.134-.587-.822-1.09a5.46 5.46 0 0 0-3.147-.986 5.2 5.2 0 0 0-3.095 1c-.658.505-.883 1.008-.763 1.091m-7.796 15.94c0-.12-1.316-.353-3.47-.64-.545-.052-1.06-.165-1.158-.54a2.8 2.8 0 0 1 .374-1.626l1.622-4.182c2.243-5.95 3.887-10.848 3.648-10.93-.24-.083-2.242 4.656-4.485 10.614a526 526 0 0 0-1.555 4.205 3.18 3.18 0 0 0-.292 2.152 1.38 1.38 0 0 0 .897.804q.456.127.927.136c2.138.12 3.484.135 3.492.007"/><path fill="#EB996E" d="M96.775 84.241a39.2 39.2 0 0 0 20.76-5.53s-5.233 10.781-20.745 9.292zm2.43-20.273a3.82 3.82 0 0 1 3.454-1.43 3.5 3.5 0 0 1 2.429 1.317 2.265 2.265 0 0 1 .157 2.558 2.55 2.55 0 0 1-2.803.707 8.1 8.1 0 0 1-2.729-1.648 2.2 2.2 0 0 1-.605-.631.76.76 0 0 1 0-.805"/><path fill="#27272E" d="M104.595 60.282c-.344 0-.351 2.317-2.347 3.964-1.996 1.648-4.486 1.392-4.486 1.723 0 .143.553.451 1.593.482a5.74 5.74 0 0 0 3.737-1.302 5.07 5.07 0 0 0 1.817-3.325c.105-.978-.149-1.557-.314-1.542m.545-21.213c.21.586 2.348.315 4.852.624 2.504.308 4.538 1 4.874.481.15-.248-.202-.805-1.024-1.369a7.95 7.95 0 0 0-3.603-1.279 8.1 8.1 0 0 0-3.798.437c-.919.376-1.383.827-1.301 1.105m-19.257-2.903c.38.489 1.854 0 3.625 0 1.772 0 3.267.33 3.618-.173.15-.249-.09-.753-.747-1.204a5.21 5.21 0 0 0-5.831.166c-.62.474-.845.977-.665 1.21"/><path fill="#27272E" d="M138.13 74.68c-2.14.434-4.352.35-6.454-.247a13.7 13.7 0 0 1-5.63-3.184 13.84 13.84 0 0 1-3.565-5.418 13.9 13.9 0 0 1-.715-6.459c.478-3.829 2.534-7.726 1.211-11.351-1.742-4.792-8.418-6.267-10.19-11.051-1.031-2.776-.104-6.018-1.27-8.749-1.099-2.565-3.776-4.04-6.385-4.987s-5.397-1.602-7.587-3.31-3.551-4.942-2.138-7.342a145.8 145.8 0 0 1 33.849 8.275c2.535.948 5.188 2.091 6.684 4.355 1.584 2.393 1.495 5.484 1.375 8.358l-1.951 41.99m4.627 6.417c3.185-3.1 8.62-.407 11.296 3.144 2.676 3.55 4.568 8.14 8.627 9.93s9.33.248 12.709 3.091c4.694 3.927 2.055 13.022 7.139 16.437 2.011 1.354 4.672 1.309 6.825 2.422 5.076 2.633 5.016 9.84 4.231 15.534-1.069 8.012-2.28 16.286-6.66 23.057s-12.911 11.501-20.491 8.899c-7.289-2.505-11.034-10.419-14.002-17.573a12824 12824 0 0 0-12.305-29.691c-2.37-5.725-4.769-11.54-5.539-17.693s.261-12.788 4.156-17.618"/><path fill="#1900AF" d="M142.032 75.146c2.31-.278 4.082 2.573 3.469 4.837-.613 2.265-2.766 3.762-4.971 4.514a7.37 7.37 0 0 1-3.835.444 3.7 3.7 0 0 1-1.767-.786 3.75 3.75 0 0 1-1.141-1.569 2.22 2.22 0 0 1 1.061-2.926c1.495-.956 2.415-1.708 3.619-2.377 1.839-1.016 1.726-1.151 3.565-2.174m-53.249 25.125 8.986-6.853 33.872-2.182 1.36 4.574-11.019 69.177 8.695 82.536H83.423z"/><path fill="#1900AF" d="m96.11 101.633-1.055-9.892a3.16 3.16 0 0 1 .694-2.325 3.13 3.13 0 0 1 2.132-1.136l31.174-2.835a1.48 1.48 0 0 1 1.103.372 1.5 1.5 0 0 1 .504 1.056l.351 11.773-9.03 15.414-9.278 2.971h-11.348l-6.526-7.011z"/><path fill="#27272E" d="M126.408 94.87q-.627-.027-1.249-.128a22 22 0 0 0-3.393-.06 33 33 0 0 0-4.994.752c-1.862.392-3.888.94-6.033 1.467-2.014.53-4.066.897-6.138 1.099a15.8 15.8 0 0 1-5.09-.346 10.5 10.5 0 0 1-3.17-1.324 8 8 0 0 1-.748-.557c-.164-.135-.246-.218-.231-.226.014-.007.366.249 1.069.647.99.55 2.056.95 3.162 1.189a16 16 0 0 0 4.993.256 41 41 0 0 0 6.078-1.121c2.138-.52 4.172-1.061 6.048-1.437a30 30 0 0 1 5.054-.647 18 18 0 0 1 3.431.18q.606.105.919.18c.187.031.299.061.292.076"/><path fill="#27272E" d="M96.85 96.427c-.837 2.31-.86 5.168.837 6.936 1.376 1.445 3.596 1.806 5.547 1.415a17.5 17.5 0 0 0 5.42-2.453c4.291-2.565 8.657-5.228 13.531-6.319.32-.038.623-.166.874-.369a.57.57 0 0 0 .185-.425.58.58 0 0 0-.185-.425.8.8 0 0 0-.403-.113c-4.314-.436-8.597.753-12.821 1.746s-8.746 1.632-12.82.15" opacity=".3"/><path fill="#27272E" d="M102.808 87.964a2.87 2.87 0 0 0-1.069 1.023c-.494.798-.464 2.152-.427 3.612.083 2.926.561 5.265.449 5.265a5.1 5.1 0 0 1-.426-1.504 24 24 0 0 1-.411-3.761q-.04-1.05.045-2.1c.042-.59.226-1.16.538-1.662.213-.34.516-.613.874-.79.262-.105.419-.105.427-.083m8.237 8.599a46 46 0 0 0-.224-4.784c-.359-2.626-1.226-4.62-1.106-4.665.283.384.498.814.635 1.272a15.3 15.3 0 0 1 .957 6.778 4.2 4.2 0 0 1-.262 1.4m10.04-10.284c.278.341.479.739.591 1.165a8.3 8.3 0 0 1 .411 3.137 8.1 8.1 0 0 1-.822 3.062c-.168.41-.423.777-.748 1.076a10.44 10.44 0 0 0 .561-8.44z"/><path fill="#FAFAFC" d="M77.368 104.687s-10.63 7.161-13.456 20.1c-2.198 10.17-8.223 63.896-8.223 63.896L45.156 209.31l6.877 16.459a25.04 25.04 0 0 0 16.522-4.747l4.627-3.385 8.485-12.66z"/><path fill="#FAFAFC" d="m95.384 95.194-18.016 9.493-4.254 14.059-3.79 40.765 7.132 47.79-12.515 40.042 21.583.158.516-23.47 2.153-75.977 2.115-48.4z"/><path fill="#27272E" d="M86.66 158.533a4 4 0 0 1-.335-.572l-.898-1.662c-.373-.753-.747-1.67-1.203-2.739-.217-.541-.404-1.135-.62-1.76-.217-.624-.457-1.286-.644-1.993-1.697-5.635-2.818-13.766-2.579-22.733 0-.692.053-1.377.097-2.061v-.121l.113-.045 3.154-1.339-.044.331-3.155-2.55-.068-.053v-.075a27.6 27.6 0 0 1 1.436-9.065 75 75 0 0 1 2.422-6.822 83 83 0 0 1 1.899-4.341c.24-.504.426-.888.553-1.136q.092-.201.217-.383a1.8 1.8 0 0 1-.157.406l-.501 1.166a128 128 0 0 0-1.794 4.378c-.733 1.888-1.57 4.175-2.333 6.823a27.7 27.7 0 0 0-1.368 8.944l-.074-.128 3.162 2.535.246.203-.291.128-3.155 1.339.12-.165a59 59 0 0 0-.097 2.046c-.232 8.929.837 17.023 2.46 22.635.171.715.403 1.369.605 1.993s.38 1.227.598 1.768c.44 1.068.747 2.009 1.136 2.746l.822 1.692q.159.296.277.61"/><path fill="#FAFAFC" d="M160.206 103.521a24.8 24.8 0 0 1 9.803 6.968 25 25 0 0 1 5.402 10.785c5.898 26.148 15.983 60.932 16.147 72.163.195 14.293-5.98 24.072-14.121 25.878-6.414 1.429-64.53-1.776-64.53-1.776l-2.721-21.815 47.097-6.973-6.445-36.168 6.377-50.19z"/><path fill="#FAFAFC" d="M157.215 102.355 144.2 97.006l-13.718-8.094-.082 2.37a13.97 13.97 0 0 1 1.652 9.599l-11.438 59.924 2.587 43.788 5.315 42.878h41.273L150.838 202.6l6.691-60.474z"/><path fill="#27272E" d="M136.471 93.155s0 .053.052.15l.12.437c.097.39.262.955.419 1.707a55 55 0 0 1 .986 6.447c.305 3.27.388 6.558.247 9.839-.127 3.762-.516 7.876-1.076 12.262v.135h-.135l-4.283.798.142-.263c.246.662.493 1.369.687 2.098a26.8 26.8 0 0 1-.486 14.526 45.6 45.6 0 0 1-4.993 10.833c-1.779 2.903-3.379 5.13-4.486 6.672l-1.293 1.76c-.135.188-.254.331-.344.452a.6.6 0 0 1-.127.15s0-.06.097-.173l.314-.474c.299-.436.748-1.038 1.226-1.805 1.069-1.565 2.639-3.814 4.373-6.725a46.5 46.5 0 0 0 4.89-10.788c1.233-4.265 1.816-9.335.456-14.292a22 22 0 0 0-.673-2.061l-.082-.219.231-.045 4.254-.79-.157.166c.568-4.371.979-8.493 1.121-12.224.158-3.26.105-6.526-.157-9.779a60 60 0 0 0-.874-6.447c-.135-.752-.284-1.324-.352-1.715-.037-.18-.067-.324-.089-.444a.5.5 0 0 1-.008-.188m26.979 16.038a7 7 0 0 1-1.061.399q-1.452.522-2.826 1.226a22 22 0 0 0-7.64 6.552 16.4 16.4 0 0 0-1.495 2.46 16 16 0 0 0-.897 2.527 25 25 0 0 0-.748 4.514 43 43 0 0 0-.134 3.099q.033.572 0 1.143a4.6 4.6 0 0 1-.15-1.098 28 28 0 0 1 0-3.122c.074-1.548.302-3.085.68-4.588.226-.893.528-1.764.905-2.603q.654-1.332 1.532-2.528a21.14 21.14 0 0 1 7.835-6.567q1.402-.68 2.893-1.128a5.6 5.6 0 0 1 1.106-.286"/></g></g><defs><clipPath id="medic-screening-primary_svg__a"><path fill="#fff" d="M.116 0h200v240h-200z"/></clipPath></defs></svg>