<svg xmlns="http://www.w3.org/2000/svg" width="241" height="240" fill="none" viewBox="0 0 241 240"><g clip-path="url(#medic-error_svg__a)"><circle cx="120.932" cy="135" r="105" fill="#EEEBFF"/><mask id="medic-error_svg__b" width="241" height="240" x="0" y="0" maskUnits="userSpaceOnUse" style="mask-type:alpha"><path fill="#fff" fill-rule="evenodd" d="M240.932 0h-240v137.5h15.03a104.999 104.999 0 0 0 179.216 71.746 105 105 0 0 0 30.724-71.746h15.03z" clip-rule="evenodd"/></mask><g mask="url(#medic-error_svg__b)"><path fill="#263238" d="M88.863 25S82.478 48.87 81.9 65.78l-.18 5.629s14.074 11.686 25.86 12.402l9.946-24.338z"/><path fill="#263238" d="M151.403 39.64c-2.695-11.636-3.73-25.182-13.407-32.771-7.181-5.63-15.357-7.201-24.477-6.813-4.486.189-9.558 2.257-13.467 4.465-5.361 3.034-7.629 9.19-10.215 14.78-5.182 11.2-4.525 26.367-.994 30.584l46.746 24.716c9.349-4.864 15.207-6.793 16.699-19.255a45.8 45.8 0 0 0-.885-15.705"/><path fill="#9F6B5B" d="m136.982 16.119-29.49-8.693C98.003 6.043 91.2 17.53 90.226 27.069c-1.094 10.593-1.99 23.572-1.055 31.549 1.91 16.043 14.044 18.55 14.044 18.55s0 .238-.069 4.972l-.309 7.679a13.26 13.26 0 0 0 2.596 8.682c4.337 5.63 12.264 6.386 21.593 2.934 5.411-1.989 9.18-6.037 9.588-11.517l5.122-67.931a5.61 5.61 0 0 0-4.754-5.868"/><path fill="#263238" d="M95.706 41.62a2.05 2.05 0 0 0 1.89 2.139 1.99 1.99 0 0 0 2.188-1.76 1.99 1.99 0 0 0-1.89-2.14 1.99 1.99 0 0 0-2.188 1.761m-2.974-4.903c.238.278 1.83-.806 4.028-.716s3.769 1.253 3.978.994-.109-.606-.796-1.144a5.56 5.56 0 0 0-3.202-1.123 5.36 5.36 0 0 0-3.223.895c-.666.457-.945.935-.785 1.094m23.482 4.704a2.04 2.04 0 0 0 1.89 2.139 1.99 1.99 0 0 0 2.178-1.76 1.987 1.987 0 0 0-1.85-2.1 1.99 1.99 0 0 0-2.218 1.721m-1.85-4.485c.249.278 1.84-.806 4.039-.717s3.769 1.254 3.978.995c.209-.258-.119-.607-.796-1.144a5.66 5.66 0 0 0-3.202-1.124 5.34 5.34 0 0 0-3.233.906c-.696.487-.905.964-.786 1.084m-8.563 14.262a14.8 14.8 0 0 0-3.551-.786c-.557-.08-1.084-.209-1.164-.596a2.8 2.8 0 0 1 .438-1.651l1.83-4.218c2.546-5.967 4.416-10.94 4.168-11.04s-2.497 4.685-5.043 10.682l-1.761 4.237a3.25 3.25 0 0 0-.377 2.199 1.38 1.38 0 0 0 .885.855c.322.101.657.158.994.169 1.183.202 2.386.252 3.581.15"/><path fill="#774F44" d="M103.254 77.167c7.502.41 14.97-1.27 21.573-4.853 0 0-5.719 10.94-21.612 8.832zm10.784-20.566a4.4 4.4 0 0 0-1.53-1.498 4.5 4.5 0 0 0-2.073-.611 5.87 5.87 0 0 0-3 .455 5.73 5.73 0 0 0-2.347 1.886 3.43 3.43 0 0 0-.337 2.524c.175.44.001.22.362.524a10.2 10.2 0 0 0 4.014 2.659 4.45 4.45 0 0 0 2.546-.04 4.37 4.37 0 0 0 2.091-1.423 4.26 4.26 0 0 0 .274-4.475"/><path fill="#263238" d="M108.242 62.215c.358 0 .468-2.358 2.586-3.979 2.119-1.621 4.645-1.223 4.685-1.551 0-.15-.547-.488-1.621-.567a5.87 5.87 0 0 0-3.899 1.163 5.2 5.2 0 0 0-1.989 3.322c-.17 1.055.069 1.612.238 1.612m5.297-33.335c.149.616 2.367.556 4.914 1.113s4.545 1.462 4.973.995c.179-.239-.13-.836-.915-1.492a8.77 8.77 0 0 0-7.51-1.572c-1.014.249-1.541.667-1.462.955M92.91 30.75c.498.427 2.1-.33 4.118-.647 2.02-.319 3.77-.2 4.088-.776.14-.279-.209-.736-.994-1.094a6.6 6.6 0 0 0-6.604 1.144c-.667.616-.836 1.163-.607 1.372m15.028-25.044c0 .12-.049.239-.069.348h.049c.01-.1.01-.169.02-.348"/><path fill="#263238" d="M128.538 83.602c.447-4.177-1.234-8.374-.746-12.552.517-4.426 3.381-8.215 4.565-12.522 1.88-6.882-.706-14.203-1.651-21.314a16.9 16.9 0 0 1-10.364-5.968c-3.202-3.73-5.132-8.344-7.022-12.88a21.65 21.65 0 0 0 4.337 12.383 5.79 5.79 0 0 1-4.973-1.621 12.9 12.9 0 0 1-2.914-4.526 35.4 35.4 0 0 1-2.815-12.75 46 46 0 0 0 2.079 18.619 8 8 0 0 0-3.462.129 3.8 3.8 0 0 1-3.302-.696 4.15 4.15 0 0 1-.905-2.129 48 48 0 0 1-.527-16.222 49 49 0 0 0-3.65 8.952 17.36 17.36 0 0 0-.07 9.588 1.403 1.403 0 0 1-1.989 0 3.35 3.35 0 0 1-.875-1.99 24.9 24.9 0 0 1 .527-8.076c-1.591 2.825-2.119 6.107-2.984 9.22s-2.287 6.326-4.973 8.106a42 42 0 0 1 .398-12.233c.537-3.342 2.119-6.654 3.58-9.708a28.8 28.8 0 0 1 6.465-9c4.695-4.109 6.664-2.338 9.658-.777l.358.15a2 2 0 0 1 0-.22l.129-.636a45.04 45.04 0 0 1 23.702 1.104c5.649 1.85 12.611 7.659 15.486 12.86.049.1.109.2.169.299 6.664 12.035 11.06 25.979 11.388 56.135zm12.551 37.855a4.6 4.6 0 0 1 0-1.194c.109-1.091.305-2.172.587-3.232a22.62 22.62 0 0 1 14.054-15.476 20 20 0 0 1 3.152-.895 5 5 0 0 1 1.194-.149c0 .099-1.671.358-4.207 1.382a23.53 23.53 0 0 0-13.835 15.237c-.726 2.626-.846 4.347-.945 4.327"/><path fill="#fff" d="M71.208 208.783s-1.84 30.972 6.306 43.086l6.027-20.409v-22.468z"/><path fill="#1900AF" d="M134.048 84.637s-17.147 12.93-25.502 11.497c-6.693-1.173-5.539-11.348-5.539-11.348l-3.253 7.032-7.012 28.067 2.984 13.219 15.914-9.837z"/><path fill="#fff" d="M75.495 140.712c1.8-18.529 24.08-50.615 24.08-50.615l3.52-5.69-3.51 15.735s-3.492 22.966-3.98 23.443l19.644-19.026 22.08-23.384 4.367 6.266 19.385 10.742-1.99 60.85-6.962 17.833s20.469 56.036 23.125 75.898l4.426 37.666-104.503-.169s3.67-58.911 4.078-71.492c.407-12.582 1.382-40.411 1.382-40.411s-6.962-19.126-5.142-37.646"/><path fill="#263238" d="M179.701 290.43a1.5 1.5 0 0 1-.06-.338c0-.259-.09-.587-.149-.995l-.508-3.879c-.417-3.401-.994-8.265-1.76-14.272-.368-2.984-.766-6.316-1.194-9.857l-.656-5.49c-.219-1.89-.438-3.829-.806-5.789a257 257 0 0 0-6.624-25.213c-1.472-4.814-2.924-9.498-4.446-13.924s-2.983-8.733-4.376-12.771c-2.755-8.086-5.182-15.207-7.131-20.946v-.12l4.595-11.467 1.253-3.064.328-.786q.054-.134.13-.258a1.2 1.2 0 0 1-.08.278c-.079.209-.169.468-.288.806l-1.174 3.093-4.446 11.518v-.12c1.989 5.719 4.456 12.841 7.261 20.887 1.392 4.038 2.864 8.315 4.406 12.771 1.542 4.455 2.984 9.15 4.466 13.924a251 251 0 0 1 6.604 25.273c.358 1.989.567 3.978.786 5.828.218 1.85.427 3.72.626 5.491l1.134 9.866c.666 5.968 1.213 10.881 1.591 14.282.179 1.671.319 2.984.408 3.889l.1.995q.033.193.01.388"/><path fill="#000" d="M163.627 210.195s-14.123 18.241-17.465 17.664-6.654-6.962-6.654-6.962l-3.69-1.71-3.6-6.565 7.777-6.962z" opacity=".2"/><path fill="#fff" d="M96.353 94.782s-8.266 3.51-10.941 7.738c-2.675 4.227-4.486 22.557-4.486 22.557l13.12-22.1z"/><path fill="#9F6B5B" d="m108.487 211.23 12.93-4.814 9.886-6.664 8.424 13.487-3.819 2.287s-.099 3.263-.119 3.66-1.293 3.621-11.756 3.412-12.93-5.52-12.93-5.52-5.441 6.236-7.699 7.211-4.386-1.989-4.386-1.989zM80.4 184.127s-4.974 5.192-6.148 9.25-.497 15.485-.497 15.485l1.422.05s0 7.48 2.07 7.728c2.068.249 4.087.309 4.196-3.073a60 60 0 0 0-.944-9.3z"/><path fill="#263238" d="M90.405 290.43a2.4 2.4 0 0 1 0-.428v-1.273c0-1.144-.07-2.785-.12-4.893-.09-4.267-.219-10.404-.368-17.983-.258-15.197-.617-36.164-.995-59.318-.755-23.164-.885-44.18.388-59.338A70.7 70.7 0 0 1 93 129.613c.358-.995.716-1.88.995-2.626.278-.746.597-1.393.855-1.89.259-.497.438-.855.577-1.134q.09-.197.21-.378-.07.21-.17.408c-.12.279-.298.657-.517 1.154s-.517 1.134-.816 1.9c-.298.765-.656 1.631-.994 2.635a72 72 0 0 0-3.551 17.545c-1.174 15.128-.995 36.144-.239 59.298.328 23.155.637 44.121.856 59.328.08 7.569.149 13.706.198 17.983v6.156a2 2 0 0 1 0 .438m36.502-22.19a2 2 0 0 1-.507-.179 11 11 0 0 1-1.422-.626 21.4 21.4 0 0 1-4.715-3.203 27.9 27.9 0 0 1-5.4-6.514 35 35 0 0 1-3.979-9.569 61.3 61.3 0 0 1-1.173-18.708c.169-2.397.378-4.327.537-5.659.079-.627.139-1.134.189-1.542q.024-.27.109-.527.039.269 0 .537c0 .418-.059.925-.099 1.542-.1 1.342-.249 3.282-.368 5.669a64.6 64.6 0 0 0 1.313 18.569 35.6 35.6 0 0 0 3.859 9.449 28.6 28.6 0 0 0 5.231 6.485 28 28 0 0 0 6.425 4.276"/><path fill="#263238" d="M96.353 94.782q.025.337 0 .676c0 .477-.08 1.124-.14 1.94-.149 1.74-.348 4.207-.606 7.29v.079h-.07l-2.228 1.283.09-.159c.368 5.113.845 11.607 1.392 18.977l-.318-.209 17.644-6.375 5.63-1.989-.159.278c-.279-1.989-.557-3.829-.826-5.689l-.06-.408.388.14 6.724 2.387-.279.089 13.03-18.52 3.759-5.27.995-1.403a3 3 0 0 1 .368-.458 3.6 3.6 0 0 1-.309.508c-.228.358-.547.825-.944 1.432l-3.661 5.35-12.87 18.63-.109.149-.169-.06-6.724-2.357.328-.278c.269 1.85.548 3.749.836 5.679v.209l-.199.069-5.639 2.039-17.665 6.346-.298.109v-.318c-.487-7.38-.925-13.925-1.263-18.997v-.109l.09-.05 2.247-1.253-.08.129c.319-3.093.568-5.55.747-7.28.1-.816.169-1.463.219-1.94q.043-.337.129-.666"/><path fill="#263238" d="M80.498 204.267a2 2 0 0 1 0-.457v-1.363c0-1.233-.05-2.984-.08-5.172 0-4.495-.109-10.861-.178-18.509v.059c-1.174-4.077-2.218-8.603-3.223-13.457a250 250 0 0 1-1.432-7.489 52 52 0 0 1-.905-7.957 53.4 53.4 0 0 1 3.6-20.956 96.4 96.4 0 0 1 5.52-12.452c1.87-3.631 3.64-6.754 5.132-9.32a227 227 0 0 1 3.6-5.967l.995-1.542a3.5 3.5 0 0 1 .368-.517 6 6 0 0 1-.308.557l-1.014 1.641c-.826 1.382-1.99 3.411-3.472 5.967-1.482 2.557-3.192 5.729-5.032 9.37a99 99 0 0 0-5.42 12.422 53.5 53.5 0 0 0-3.522 20.748 51.4 51.4 0 0 0 .895 7.897q.687 3.849 1.413 7.479c.994 4.844 1.989 9.369 3.153 13.427v25.114a3 3 0 0 1-.09.477"/><path fill="#000" d="M158.297 163.807c-10.812-7.728-17.287-21.205-17.466-34.493z" opacity=".2"/><path fill="#fff" d="M153.442 94.712s9.23 1.8 12.871 9.707 27.759 67.743 28.226 71.95c.468 4.207-1.511 9.538-6.484 14.77s-42.38 31.568-42.38 31.568l-16.232-25.999 33.05-23.731-21.543-44.459s1.592-30.564 12.492-33.806"/><path fill="#263238" d="M176.268 178.865a56 56 0 0 0-6.136-3.71 58 58 0 0 0-6.754-2.427c.713-.02 1.424.07 2.109.269a23 23 0 0 1 4.864 1.691 22.8 22.8 0 0 1 4.376 2.705 6.4 6.4 0 0 1 1.541 1.472m-1.223-9.438a51 51 0 0 0-5.967.935 48 48 0 0 0-5.64 2.148 16.36 16.36 0 0 1 11.617-3.083zm13.01 21.712q.1-.138.218-.259l.657-.746q.59-.592 1.114-1.243.707-.854 1.303-1.79a18.5 18.5 0 0 0 2.546-5.441c.341-1.208.525-2.455.547-3.71a9.5 9.5 0 0 0-.726-4.087 18308 18308 0 0 0-16.908-43.475c-2.566-6.206-5.043-12.193-7.38-17.823-1.154-2.815-2.288-5.54-3.362-8.156a17 17 0 0 0-5.112-6.067L142.333 87.92l-3.74-4.973-.995-1.293a3 3 0 0 1-.298-.458s.129.14.358.418l.995 1.253 3.839 4.914L161.2 97.994a17.46 17.46 0 0 1 5.282 6.226 2722 2722 0 0 0 3.391 8.146l7.4 17.843c6.614 16.978 12.472 32.395 16.729 43.544a9.65 9.65 0 0 1 .716 4.227 14.5 14.5 0 0 1-.596 3.78 18.3 18.3 0 0 1-2.656 5.48 18 18 0 0 1-1.353 1.76q-.505.644-1.094 1.214l-.706.706c-.159.149-.258.229-.258.219m-23.553 18.131a3 3 0 0 1-.318.259l-.995.726-3.729 2.725-13.706 9.946-.159.119-.11-.179-16.251-26.018-.13-.199.189-.13 14.919-10.731 18.172-13.069-.08.308-15.804-32.056-4.525-9.28-1.194-2.476a17 17 0 0 0-.298-.647l-.09-.229a1 1 0 0 1 .129.209l.339.627 1.253 2.447c1.104 2.168 2.675 5.291 4.654 9.21l15.984 31.976.089.189-.169.119-18.151 13.089-14.919 10.712.059-.328 16.192 26.029-.278-.05 13.805-9.767 3.789-2.646.995-.676q.16-.12.338-.209"/><path fill="#263238" d="M141.089 121.457a4.6 4.6 0 0 1 0-1.194c.109-1.091.305-2.172.587-3.232a22.62 22.62 0 0 1 14.054-15.476 20 20 0 0 1 3.152-.895 5 5 0 0 1 1.194-.149c0 .099-1.671.358-4.207 1.382a23.53 23.53 0 0 0-13.835 15.237c-.726 2.626-.846 4.347-.945 4.327m23.413 87.813a3 3 0 0 1-.318.259l-.995.726-3.729 2.725-13.706 9.946-.159.119-.11-.179-16.251-26.018-.13-.199.189-.13 14.919-10.731 18.172-13.069-.08.308-15.804-32.056-4.525-9.28-1.194-2.476a17 17 0 0 0-.298-.647l-.09-.229a1 1 0 0 1 .129.209l.339.627 1.253 2.447c1.104 2.168 2.675 5.291 4.654 9.21l15.984 31.976.089.189-.169.119-18.151 13.089-14.919 10.712.059-.328 16.192 26.029-.278-.05 13.805-9.767 3.789-2.646.995-.676q.16-.12.338-.209"/><path fill="#000" d="m123.704 113.222-5.511-.18 1.154 5.58-24.825 6.306 23.284-8.394-.826-5.68z" opacity=".2"/><path fill="#263238" d="M75.197 290.261a4 4 0 0 1 0-.766c0-.547.06-1.273.09-2.198.1-1.989.239-4.725.418-8.136l1.561-27.332.06.179a18.3 18.3 0 0 1-2.298-4.267 55 55 0 0 1-2.904-12.273c-.527-3.978-.805-7.688-.995-11.09-.318-6.793-.198-12.253 0-15.615v-.109h.11l2.984.159.756.059h.258-1.014l-2.984-.059.11-.1c-.07 3.352-.11 8.812.258 15.586.189 3.391.487 7.111.995 11.04a55 55 0 0 0 2.904 12.233 17.7 17.7 0 0 0 2.218 4.138l.06.079v.1a50739 50739 0 0 0-1.731 27.312c-.249 3.411-.438 6.166-.577 8.126-.07.925-.13 1.651-.18 2.198a5 5 0 0 1-.099.736"/><path fill="#0A0A32" d="m136.912 109.84-1.343-.567c0-.07 2.984-7.281 5.968-14.92 1.173-3.033 1.591-5.559 1.253-7.518A3.48 3.48 0 0 0 139.259 84l-.915-1.313a5.24 5.24 0 0 1 5.888 3.9c.378 2.217-.069 4.972-1.333 8.294-2.944 7.659-5.957 14.879-5.987 14.959"/><path fill="#0A0A32" d="m139.09 126.688-1.86-.716c1.522-3.918 3.601-10.861 2.706-12.81a5.72 5.72 0 0 0-3.979-2.636 6.68 6.68 0 0 0-5.818 1.194c-2.129 1.8-5.331 8.145-6.386 10.433l-1.81-.835c.159-.348 3.979-8.673 6.963-11.12a8.67 8.67 0 0 1 7.539-1.611 7.59 7.59 0 0 1 5.36 3.749c1.492 3.283-2.009 12.532-2.715 14.352"/><path fill="#263238" d="M119.049 156.954c-2.297 0-4.545-1.223-6.703-3.66l.736-.666c2.387 2.685 4.833 3.749 7.27 3.182 9.946-2.337 17.475-29.907 17.555-30.186l.994.259c-.308 1.163-7.787 28.425-18.28 30.892a6.7 6.7 0 0 1-1.572.179"/><path fill="#263238" d="M114.255 154.428a1.2 1.2 0 0 1-1.552.109l-2.158-1.601a1.43 1.43 0 0 1-.616-.911 1.4 1.4 0 0 1 .218-1.078 1.41 1.41 0 0 1 1.047-.633 1.41 1.41 0 0 1 1.151.414l1.93 1.989a1.197 1.197 0 0 1-.02 1.711m9.011 3.431c-3.064 0-5.341-.994-6.774-2.984-6.096-8.553 5.401-32.304 5.898-33.319l.896.438c-.12.239-11.737 24.228-5.968 32.305 1.502 2.098 4.138 2.983 7.837 2.476l.13.995q-1.007.108-2.019.089"/><path fill="#263238" d="M123.087 157.322a1.194 1.194 0 0 0 1.084 1.104l2.675.219c.187.026.376.016.559-.031.182-.048.353-.131.503-.244.149-.114.275-.257.37-.419a1.45 1.45 0 0 0 .126-1.152 1.42 1.42 0 0 0-.831-.891 1.4 1.4 0 0 0-.617-.098l-2.785.239a1.184 1.184 0 0 0-1.084 1.273m-44.868-16.104a7.788 7.788 0 1 0-5.988-14.378 7.788 7.788 0 0 0 5.988 14.378"/><path fill="#263238" d="M78.219 141.218a7.788 7.788 0 1 0-5.988-14.378 7.788 7.788 0 0 0 5.988 14.378"/><path fill="#fff" d="M80.995 134.009a5.758 5.758 0 1 1-5.758-5.759 5.75 5.75 0 0 1 5.323 3.553c.288.7.437 1.449.435 2.206"/><path fill="#0A0A32" d="m78.44 126.987-1.293-.667c.656-1.273 16.052-31.22 16.977-32.573.16-.239.359-.577.577-.945q.695-1.21 1.542-2.317c1.552-1.92 3.401-3.69 5.619-4.088l-1.293 2.089c-1.183.457-1.81 1.203-3.192 2.914q-.78 1.034-1.422 2.158c-.24.398-.448.746-.627.995-.766 1.074-12.433 23.771-16.888 32.434"/></g><rect width="40.5" height="40.5" x="23.946" y="48.219" fill="#FEE6E6" rx="20.25"/><path fill="#BD0700" fill-rule="evenodd" d="M38.95 63.224a.87.87 0 0 1 1.228 0l9.263 9.263a.868.868 0 1 1-1.228 1.228l-9.263-9.263a.87.87 0 0 1 0-1.228" clip-rule="evenodd"/><path fill="#BD0700" fill-rule="evenodd" d="M49.441 63.224c.34.339.34.889 0 1.228l-9.263 9.263a.868.868 0 0 1-1.228-1.228l9.263-9.263a.87.87 0 0 1 1.228 0" clip-rule="evenodd"/></g><defs><clipPath id="medic-error_svg__a"><path fill="#fff" d="M.932 0h240v240h-240z"/></clipPath></defs></svg>