<svg xmlns="http://www.w3.org/2000/svg" width="201" height="241" fill="none" viewBox="0 0 201 241"><g clip-path="url(#medic-crossed-arms-primary_svg__a)"><circle cx="100.627" cy="140.655" r="100" fill="#E6E6F0"/><mask id="medic-crossed-arms-primary_svg__b" width="201" height="201" x="0" y="40" maskUnits="userSpaceOnUse" style="mask-type:alpha"><circle cx="100.627" cy="140.655" r="100" fill="#fff"/></mask><g mask="url(#medic-crossed-arms-primary_svg__b)"><path fill="#FFBE9D" d="m114.566 36.985.715 57.348c.124 9.749-1.687 24.101-17.089 23.595-13.342-1.452-16.869-14.094-16.964-23.194-.057-4.325-.105-7.925-.133-8.364 0 0-14.592-1.194-15.821-15.631-.6-6.98-.658-21.446-.563-34.537a27.02 27.02 0 0 1 7.276-18.264 26.92 26.92 0 0 1 17.714-8.472l1.391-.105c15.097-.181 23.674 12.518 23.474 27.624"/><path fill="#EB996E" d="M81.095 86.37a34.9 34.9 0 0 0 18.365-6.932s-3.812 10.885-18.298 10.637z"/><path fill="#27272E" d="M89.348 42.122c.286.286 1.954-1.05 4.365-1.117s4.222 1.117 4.48.811c.123-.143-.182-.678-.954-1.231a6.14 6.14 0 0 0-3.593-1.022 5.83 5.83 0 0 0-3.46 1.27c-.733.602-.971 1.155-.838 1.289m2.469 4.965a1.91 1.91 0 0 0 1.982 1.795 1.904 1.904 0 0 0 1.906-1.91 1.91 1.91 0 0 0-1.273-1.728 1.9 1.9 0 0 0-.748-.105 1.9 1.9 0 0 0-1.737 1.214 1.9 1.9 0 0 0-.13.734m-8.501 11.859c0-.133-1.392-.267-3.65-.391-.572 0-1.116-.086-1.24-.468a2.87 2.87 0 0 1 .258-1.71q.638-2.118 1.363-4.44c1.906-6.32 3.183-11.457 2.935-11.572S81 45.359 79.122 51.67l-1.286 4.47a3.25 3.25 0 0 0-.134 2.243 1.44 1.44 0 0 0 .953.764c.314.058.635.077.953.057a14.4 14.4 0 0 0 3.708-.258"/><path fill="#FFBE9D" d="M114.175 47.765c.239-.124 9.693-3.657 10.093 6.245s-9.597 8.269-9.626 7.982-.467-14.227-.467-14.227"/><path fill="#EB996E" d="M117.511 58.116s.172.114.467.239c.417.162.879.162 1.296 0 1.02-.43 1.84-2.12 1.811-3.915a5.74 5.74 0 0 0-.581-2.445 1.98 1.98 0 0 0-1.354-1.27.86.86 0 0 0-.953.516c-.124.277-.057.477-.105.496s-.219-.162-.152-.573c.041-.25.169-.476.362-.64a1.3 1.3 0 0 1 .953-.286 2.42 2.42 0 0 1 1.859 1.461 5.9 5.9 0 0 1 .705 2.731c0 2.005-.953 3.915-2.335 4.383a1.8 1.8 0 0 1-1.582-.2c-.362-.258-.429-.478-.391-.497"/><path fill="#27272E" d="M85.641 65.802c-.114-.248 1.82-.83 3.183-2.654a11 11 0 0 0 1.373-2.588c.286-.716.505-1.165.61-1.136s.076.525-.086 1.298a7.3 7.3 0 0 1-1.267 2.865 5.97 5.97 0 0 1-2.526 1.91c-.753.372-1.268.391-1.287.305m41.678-34.107c-2.068-3.485-2.545-7.639-3.67-11.554s-3.288-7.934-7.109-9.3h-.086c-3.422-1.375-7.625-1.394-10.484.955-.696-5.147-5.204-9.214-10.217-10.503C90.74.003 82.696.767 77.893 2.706c-3.717 1.499-7.31 4.573-11.685 9.08a48.4 48.4 0 0 0-5.041 6.121L56.81 31.399l3.736 7.075q.324.738.734 1.433l3.364 14.905c.22-4.068-.076-18.2.134-22.267a22.6 22.6 0 0 0 16.126-7.467c2.22-2.454 3.955-5.538 6.919-7.009 3.812-1.91 8.377-.515 12.39.888l-.172-.152a18 18 0 0 1 5.585 4.039 56.45 56.45 0 0 0 2.43 23.87c.382 1.156 1.411 3.534 2.545 3.973 2.211.86 2.812-1.404 4.146-2.607.953-.888 2.449-.954 4.041-.954a89 89 0 0 0 2.716-10.275 8.96 8.96 0 0 0 4.146.277l-1.277-3.055c.529.386 1.133.66 1.772.802a1.61 1.61 0 0 0 1.687-.736c.42-.802-.085-1.67-.514-2.444"/><path fill="#27272E" d="M67.342 43.03c.286.295 1.954-1.051 4.365-1.118s4.213 1.127 4.47.812c.124-.134-.172-.669-.953-1.223a6.03 6.03 0 0 0-3.584-1.021 5.9 5.9 0 0 0-3.469 1.26c-.734.611-.972 1.155-.829 1.29m3.317 4.057a1.91 1.91 0 0 0 1.273 1.73c.24.084.494.12.747.104a1.904 1.904 0 0 0 1.906-1.91 1.91 1.91 0 0 0-1.273-1.73 1.9 1.9 0 0 0-.747-.103 1.904 1.904 0 0 0-1.906 1.91"/><path fill="#1900AF" d="m74.3 97.494 6.67-3.562s7.063 10.504 17.546 9.463 17.156-10.332 17.156-10.332l6.671 3.39-22.873 37.593z"/><path fill="#FAFAFC" d="m149.467 206.863-7.729-53.014 5.671-49.776-26.39-9.243-21.597 35.329-24.684-34.231-14.649 6.426c-12.761 5.605-24.284 17.713-26.924 31.415 0 .181-.067.362-.105.544-3.383 18.352.362 44.515.362 44.515l25.028-11.095-2.02-8.852 4.765 20.205s-20.443 74.65-17.537 99.123c0 0 38.59 8.594 74.13 2.759s45.184-7.486 45.184-7.486z"/><path fill="#FAFAFC" d="M147.409 104.073s15.354 13.368 17.051 31.94c1.696 18.571 4.832 35.167 4.832 35.167l-30.946 3.313s-.725-12.738 0-13.511c.724-.773 5.804-38.996 5.804-38.996z"/><path fill="#27272E" d="m54.723 205.258-1.115 5.128 18.756 6.684c6.671 2.387 13.4 4.774 20.396 5.987 12.818 2.206 25.961.296 38.837-1.614 7.186-1.06 15.249-2.673 19.214-8.785a351 351 0 0 1-96.088-7.4" opacity=".2"/><path fill="#1900AF" d="M35.72 177.787c.238.258 8.577 24.492 13.419 28.818 4.841 4.325 32.88 2.807 44.727-1.528s37.007-9.596 37.007-9.596l-3.812-19.546s-9.207.955-21.31 2.864c-4.385.716-44.49.258-44.49.258l-2.773-11.353z"/><path fill="#1900AF" d="M167.642 171.361c-.067 0-.763 31.93-4.146 36.017s-15.249 8.918-24.17 9.94c-8.92 1.022-63.35-1.461-71.327-8.126l31.451-21.961 32.042 7.925 8.968-3.867.82-17.111z"/><path fill="#27272E" d="M138.917 221.968q-.192.285-.429.535l-1.296 1.48a44 44 0 0 1-2.125 2.282c-.858.859-1.792 1.91-2.926 2.865-1.134.954-2.335 2.205-3.717 3.351s-2.859 2.378-4.46 3.629a107 107 0 0 1-10.941 7.295 108 108 0 0 1-11.809 5.815c-1.906.725-3.66 1.461-5.375 2.014-.848.287-1.668.583-2.459.831l-2.306.678c-1.459.449-2.812.754-3.984 1.041a53 53 0 0 1-3.05.668l-1.906.353q-.336.072-.677.096.32-.13.658-.191l1.906-.449c.839-.181 1.849-.42 3.021-.745 1.172-.324 2.507-.639 3.955-1.117l2.278-.697c.791-.258 1.601-.563 2.45-.859 1.706-.563 3.469-1.308 5.337-2.053a105 105 0 0 0 22.644-13.043c1.592-1.232 3.117-2.397 4.47-3.581 1.354-1.184 2.612-2.263 3.736-3.294a102 102 0 0 0 2.974-2.865c.867-.859 1.601-1.585 2.182-2.215l1.363-1.413q.226-.225.486-.411M128.624 97.494l-.124.258-.391.783-1.544 2.864-5.794 10.504-19.347 34.527-.191.344-.229-.315-.743-1.022-23.827-32.713-7.176-9.95-1.906-2.712c-.2-.296-.362-.534-.496-.716a2 2 0 0 1-.152-.258q.11.105.2.23c.133.172.305.4.533.678l2.002 2.664 7.3 9.854 23.951 32.627.743 1.022h-.419c7.624-13.512 14.477-25.695 19.461-34.528l5.919-10.398 1.63-2.807.438-.726c.095-.124.153-.22.162-.21m-18.451 79.338a2.3 2.3 0 0 1-.048-.592c0-.448 0-1.012-.048-1.699 0-1.547-.047-3.667-.076-6.254-.029-2.588 0-5.796-.057-9.272v-10.016a.6.6 0 0 1 .114-.306.65.65 0 0 1 .515-.229h.762c8.054-.143 15.326 0 20.596.095l6.233.144 1.697.076q.299-.008.59.057a3.4 3.4 0 0 1-.59 0h-7.939c-5.271 0-12.562-.095-20.577.048h-.896a.1.1 0 0 0 0 .048v10.016c0 3.476 0 6.608-.057 9.272s-.057 4.707-.076 6.254v1.7a2.3 2.3 0 0 1-.143.658m31.079-2.645q.015.149 0 .296v.879c0 .802-.067 1.91-.105 3.342-.124 2.95-.296 7.123-.505 12.241v.124h-.124a371 371 0 0 1-12.457 4.679c-4.632 1.642-9.74 3.16-15.096 4.621-12.247 3.276-23.56 5.223-31.728 6.627l-9.683 1.623-2.63.42-.696.096h-.229s.076 0 .22-.067l.686-.143 2.62-.516 9.655-1.776c8.149-1.489 19.433-3.495 31.651-6.76 5.356-1.461 10.484-2.951 15.078-4.583a559 559 0 0 0 12.475-4.593l-.124.172c.277-5.109.505-9.291.667-12.232.086-1.413.163-2.53.21-3.342 0-.353.048-.64.067-.869a1 1 0 0 1 .048-.239"/><path fill="#FFBE9D" d="M127.385 177.51a78 78 0 0 1 9.111-.658c1.548.079 3.085.296 4.594.649l-.657 13.797-9.655 3.868z"/><path fill="#27272E" d="M48.69 126.961a9.5 9.5 0 0 1 .458 1.632c.277 1.137.639 2.655 1.077 4.488.953 3.867 2.126 9.071 3.47 14.829a1002 1002 0 0 0 3.583 14.8l1.125 4.478q.252.811.362 1.652a11 11 0 0 1-.544-1.604c-.333-1.041-.762-2.559-1.286-4.44-1.03-3.762-2.354-8.985-3.727-14.771a597 597 0 0 1-3.326-14.867c-.381-1.853-.686-3.381-.953-4.526a13 13 0 0 1-.238-1.671m91.884 28.865a5.4 5.4 0 0 1-1.201.124c-.772.057-1.906.105-3.259.162-2.764.096-6.576.172-10.789.172-4.212 0-8.025-.096-10.779-.201a165 165 0 0 1-3.269-.162 5.6 5.6 0 0 1-1.191-.134 5 5 0 0 1 1.201-.057h3.269l10.769.057h14.048q.604-.05 1.201.039M84.726 179.21s-.238-.267-.6-.802l-1.477-2.263a161 161 0 0 0-5.08-7.333 163 163 0 0 0-5.49-7.028l-1.715-2.082a3.7 3.7 0 0 1-.591-.802q.414.282.734.669a67 67 0 0 1 1.84 1.986c1.524 1.709 3.544 4.153 5.622 6.97s3.812 5.471 4.975 7.429a45 45 0 0 1 1.353 2.358q.27.423.43.898m5.47.258a11.8 11.8 0 0 1-2.354-3.944 12 12 0 0 1-1.154-4.449c.143 0 .639 1.909 1.611 4.258s2.02 4.058 1.897 4.135m15.334-40.83a2.2 2.2 0 0 1-.352-.41l-.953-1.213-3.365-4.535-10.94-15.039-10.837-15.144-3.24-4.631-.858-1.27a2.4 2.4 0 0 1-.277-.468q.203.183.353.41l.953 1.213 3.364 4.536 10.96 15.058 10.837 15.144 3.24 4.631.858 1.27q.153.21.257.448m13.105-43.808q-.045.258-.153.496-.242.72-.572 1.404a18.3 18.3 0 0 1-3.097 4.602 21.6 21.6 0 0 1-6.624 4.87 27 27 0 0 1-4.584 1.661 27.6 27.6 0 0 1-5.185.736 22.2 22.2 0 0 1-9.854-1.986 23 23 0 0 1-6.786-4.65 21 21 0 0 1-3.412-4.364q-.387-.647-.696-1.337a2.6 2.6 0 0 1-.21-.487 27.2 27.2 0 0 0 4.566 5.939 23.3 23.3 0 0 0 6.728 4.478 22.1 22.1 0 0 0 9.645 1.91 24.9 24.9 0 0 0 9.598-2.311 21.9 21.9 0 0 0 6.557-4.697 20 20 0 0 0 3.183-4.45c.591-1.155.839-1.833.896-1.814"/><path fill="#27272E" d="M68 209.192c25.436 2.13 52.217 2.693 73.261-18.428-22.14 9.099-49.607 14.895-73.262 18.428m73.195-31.729c-3.478-3.171-3.974-8.403-3.869-13.111.181-7.877 2.087-16.633 4.279-24.195-.448 13.425-1.449 25.246-.562 37.353" opacity=".2"/><path fill="#27272E" d="M61.223 179.086c0 .067-.457.382-1.22.955a11 11 0 0 0-2.535 2.606 25 25 0 0 0-1.715 3.266 5 5 0 0 1-.744 1.365 4.7 4.7 0 0 1 .42-1.499 16 16 0 0 1 1.63-3.408 8.9 8.9 0 0 1 2.744-2.617 3.8 3.8 0 0 1 1.42-.668m83.184-60.022a2.6 2.6 0 0 1-.048.592c-.057.43-.133.955-.238 1.68a435 435 0 0 0-.868 6.178 284 284 0 0 0-1.982 20.472c-.476 8.059-.543 15.278-.476 20.568 0 2.635.085 4.774.123 6.235v1.7q.038.295 0 .592a4 4 0 0 1-.076-.592c0-.44-.076-1.003-.124-1.69-.105-1.471-.2-3.6-.286-6.236-.162-5.27-.143-12.565.334-20.605a232 232 0 0 1 2.135-20.501c.391-2.607.743-4.707 1.02-6.159.133-.678.247-1.232.333-1.661q.038-.297.153-.573"/></g><mask id="medic-crossed-arms-primary_svg__c" width="80" height="85" x="49" y="0" maskUnits="userSpaceOnUse" style="mask-type:alpha"><path fill="#C4C4C4" d="M49.349.655h79.249v84.174H49.349z"/></mask><g mask="url(#medic-crossed-arms-primary_svg__c)"><path fill="#FFBE9D" d="m114.566 36.985.715 57.348c.124 9.749-1.687 24.101-17.088 23.595-13.343-1.452-16.87-14.094-16.965-23.194-.057-4.325-.105-7.925-.133-8.364 0 0-14.592-1.194-15.821-15.631-.6-6.98-.658-21.446-.562-34.537a27.02 27.02 0 0 1 7.275-18.264 26.92 26.92 0 0 1 17.714-8.472l1.391-.105c15.097-.181 23.674 12.518 23.474 27.624"/><path fill="#EB996E" d="M81.095 86.37a34.9 34.9 0 0 0 18.366-6.932s-3.813 10.885-18.3 10.637z"/><path fill="#27272E" d="M89.348 42.122c.286.286 1.954-1.05 4.365-1.117s4.222 1.117 4.48.811c.124-.143-.181-.678-.953-1.231a6.14 6.14 0 0 0-3.593-1.022 5.83 5.83 0 0 0-3.46 1.27c-.734.602-.972 1.155-.839 1.289m2.469 4.965a1.91 1.91 0 0 0 1.982 1.795 1.904 1.904 0 0 0 1.906-1.91 1.91 1.91 0 0 0-1.273-1.728 1.9 1.9 0 0 0-.747-.105 1.9 1.9 0 0 0-1.738 1.214 1.9 1.9 0 0 0-.13.734m-8.501 11.859c0-.133-1.392-.267-3.65-.391-.572 0-1.115-.086-1.24-.468a2.87 2.87 0 0 1 .258-1.71q.639-2.118 1.363-4.44c1.906-6.32 3.183-11.457 2.935-11.572S81 45.359 79.122 51.67l-1.286 4.47a3.25 3.25 0 0 0-.134 2.243 1.44 1.44 0 0 0 .953.764q.474.087.954.057a14.4 14.4 0 0 0 3.707-.258m7.062-25.924c.238.535 2.163.134 4.48.258 2.315.124 4.221.63 4.488.115.114-.249-.238-.745-1.03-1.223a7.3 7.3 0 0 0-3.383-.954 7.14 7.14 0 0 0-3.45.678c-.81.41-1.2.868-1.105 1.126M67.447 37.51c.257.43 2.144-.048 4.422-.124s4.184.22 4.422-.23c.105-.219-.276-.61-1.067-.954a8 8 0 0 0-3.374-.554 8.3 8.3 0 0 0-3.364.83c-.782.402-1.144.822-1.039 1.032"/><path fill="#FFBE9D" d="M114.176 47.765c.238-.124 9.692-3.657 10.093 6.245s-9.598 8.269-9.626 7.982c-.029-.286-.467-14.227-.467-14.227"/><path fill="#EB996E" d="M117.511 58.116s.172.114.467.239c.417.162.88.162 1.296 0 1.02-.43 1.84-2.12 1.811-3.915a5.74 5.74 0 0 0-.581-2.445 1.98 1.98 0 0 0-1.353-1.27.856.856 0 0 0-.953.516c-.124.277-.058.477-.105.496-.048.02-.22-.162-.153-.573.041-.25.169-.476.362-.64a1.3 1.3 0 0 1 .953-.286 2.42 2.42 0 0 1 1.859 1.461c.454.84.696 1.777.705 2.731 0 2.005-.953 3.915-2.335 4.383a1.8 1.8 0 0 1-1.582-.2c-.362-.258-.429-.478-.391-.497"/><path fill="#27272E" d="M85.641 65.802c-.114-.248 1.82-.83 3.184-2.654a11 11 0 0 0 1.372-2.588c.286-.716.505-1.165.61-1.136s.076.525-.086 1.298a7.3 7.3 0 0 1-1.267 2.865 5.97 5.97 0 0 1-2.526 1.91c-.753.372-1.267.391-1.287.305m41.678-34.107c-2.068-3.485-2.545-7.639-3.669-11.554s-3.289-7.934-7.11-9.3h-.086c-3.422-1.375-7.625-1.394-10.484.955-.695-5.147-5.203-9.214-10.217-10.503C90.74.003 82.697.767 77.893 2.706c-3.717 1.499-7.31 4.573-11.684 9.08a48.4 48.4 0 0 0-5.042 6.121L56.81 31.399l3.736 7.075q.324.738.734 1.433l3.364 14.905c.22-4.068-.076-18.2.134-22.267a22.6 22.6 0 0 0 16.126-7.467c2.22-2.454 3.955-5.538 6.919-7.009 3.812-1.91 8.377-.515 12.39.888l-.172-.152a18 18 0 0 1 5.585 4.039 56.45 56.45 0 0 0 2.43 23.87c.382 1.156 1.411 3.534 2.545 3.973 2.211.86 2.812-1.404 4.146-2.607.953-.888 2.449-.954 4.041-.954a89 89 0 0 0 2.716-10.275 8.96 8.96 0 0 0 4.146.277l-1.277-3.055a4.8 4.8 0 0 0 1.773.802 1.61 1.61 0 0 0 1.687-.736c.419-.802-.086-1.67-.515-2.444"/><path fill="#27272E" d="M67.342 43.03c.286.295 1.954-1.051 4.365-1.118s4.213 1.127 4.47.812c.124-.134-.171-.669-.953-1.223a6.04 6.04 0 0 0-3.584-1.021 5.9 5.9 0 0 0-3.469 1.26c-.734.611-.972 1.155-.829 1.29m3.317 4.057a1.91 1.91 0 0 0 1.273 1.73c.24.084.494.12.747.104a1.904 1.904 0 0 0 1.906-1.91 1.91 1.91 0 0 0-1.273-1.73 1.9 1.9 0 0 0-.747-.103 1.904 1.904 0 0 0-1.906 1.91m-8.254-30.776c-1.21 1.643-3.078 3.142-5.099 2.95a15 15 0 0 1-2.154-.6c-.705.429-.505 2.864 0 3.513q.702.838 1.535 1.547c-2.354 1.308-4.527.707-7.063-.181a12.4 12.4 0 0 0 2.427 5.928 12.4 12.4 0 0 0 5.055 3.926 4.35 4.35 0 0 0 3.984 0 5.04 5.04 0 0 0 1.706-3.132 54.4 54.4 0 0 0 1.61-13.301z"/></g></g><defs><clipPath id="medic-crossed-arms-primary_svg__a"><path fill="#fff" d="M.627 0h200v241h-200z"/></clipPath></defs></svg>