<svg xmlns="http://www.w3.org/2000/svg" width="201" height="240" fill="none" viewBox="0 0 201 240"><g clip-path="url(#medic-prepared_svg__a)"><circle cx="100.019" cy="140" r="100" fill="#E6E6F0"/><mask id="medic-prepared_svg__b" width="201" height="200" x="0" y="40" maskUnits="userSpaceOnUse" style="mask-type:alpha"><circle cx="100.019" cy="140" r="100" fill="#fff"/></mask><g mask="url(#medic-prepared_svg__b)"><path fill="#27272E" d="M64.443 27.729s-7.082 26.466-7.722 45.213l-.198 6.242s15.61 12.957 28.682 13.751l11.031-26.984z"/><path fill="#27272E" d="M133.81 43.961c-2.989-12.902-4.136-27.922-14.87-36.336-7.965-6.242-17.033-7.984-27.149-7.554-4.975.21-10.601 2.503-14.937 4.951-5.946 3.364-8.46 10.19-11.329 16.388-5.748 12.417-5.02 29.234-1.103 33.91l51.848 27.404c10.37-5.393 16.867-7.532 18.522-21.35a50.8 50.8 0 0 0-.982-17.413"/><path fill="#9F6B5B" d="M117.814 17.88 85.106 8.244c-10.524-1.533-18.07 11.204-19.151 21.78-1.214 11.744-2.206 26.135-1.17 34.98C66.904 82.791 80.362 85.57 80.362 85.57s0 .264-.077 5.514l-.342 8.513a14.7 14.7 0 0 0 2.88 9.627c4.809 6.242 13.601 7.08 23.949 3.253 6.001-2.205 10.182-6.693 10.634-12.77l5.681-75.319a6.22 6.22 0 0 0-5.273-6.506"/><path fill="#27272E" d="M72.034 46.156a2.27 2.27 0 0 0 2.095 2.37 2.207 2.207 0 0 0 2.427-1.951 2.204 2.204 0 0 0-2.096-2.371 2.21 2.21 0 0 0-2.426 1.952m-3.299-5.436c.264.308 2.03-.894 4.467-.795 2.438.1 4.181 1.39 4.413 1.103s-.121-.673-.882-1.268a6.17 6.17 0 0 0-3.553-1.246 5.95 5.95 0 0 0-3.574.992c-.739.507-1.048 1.037-.871 1.213m26.045 5.216a2.26 2.26 0 0 0 2.096 2.371 2.206 2.206 0 0 0 2.416-1.952 2.205 2.205 0 0 0-2.052-2.326 2.206 2.206 0 0 0-2.46 1.907m-2.052-4.973c.276.308 2.041-.894 4.48-.794 2.437.099 4.18 1.39 4.412 1.102.231-.286-.133-.672-.883-1.268a6.3 6.3 0 0 0-3.552-1.246A5.93 5.93 0 0 0 93.6 39.76c-.772.54-1.004 1.07-.872 1.202M83.23 56.776a16.4 16.4 0 0 0-3.938-.872c-.618-.088-1.203-.231-1.29-.661a3.13 3.13 0 0 1 .485-1.83l2.03-4.677c2.824-6.616 4.897-12.13 4.622-12.24s-2.77 5.194-5.593 11.843l-1.953 4.698a3.6 3.6 0 0 0-.42 2.437 1.52 1.52 0 0 0 .983.949c.357.112.728.175 1.103.187 1.311.224 2.646.28 3.971.166"/><path fill="#774F44" d="M80.406 85.569a45.03 45.03 0 0 0 23.928-5.382s-6.343 12.13-23.972 9.793zm10.701-23.897a3.93 3.93 0 0 0-3.188-1.908 5.1 5.1 0 0 0-4.733 2.117 3.15 3.15 0 0 0-.298 2.283c.155.397 0 .198.32.474a9 9 0 0 0 3.552 2.404 3.86 3.86 0 0 0 4.104-1.323 3.91 3.91 0 0 0 .243-4.047"/><path fill="#27272E" d="M90.776 58.849c-.397 0-.519 2.613-2.868 4.41-2.35 1.798-5.152 1.357-5.196 1.721 0 .165.606.54 1.798.629a6.5 6.5 0 0 0 4.324-1.29 5.78 5.78 0 0 0 2.206-3.684c.188-1.169-.077-1.786-.264-1.786"/><path fill="#27272E" d="M108.449 92.704c.496-4.632-1.368-9.286-.828-13.917.574-4.908 3.751-9.11 5.064-13.884 2.085-7.631-.783-15.748-1.831-23.633a18.75 18.75 0 0 1-11.495-6.616c-3.552-4.136-5.693-9.252-7.789-14.281a24 24 0 0 0 4.81 13.73 6.42 6.42 0 0 1-5.516-1.798 14.3 14.3 0 0 1-3.232-5.018A39.3 39.3 0 0 1 84.51 13.15a51 51 0 0 0 2.306 20.644 8.8 8.8 0 0 0-3.84.143 4.22 4.22 0 0 1-3.662-.772 4.6 4.6 0 0 1-1.004-2.36 53.2 53.2 0 0 1-.584-17.986 54 54 0 0 0-4.049 9.925 19.25 19.25 0 0 0-.077 10.63 1.557 1.557 0 0 1-2.206 0 3.7 3.7 0 0 1-.971-2.205 27.6 27.6 0 0 1 .584-8.954c-1.765 3.131-2.35 6.77-3.309 10.222s-2.537 7.014-5.516 8.988a46.6 46.6 0 0 1 .441-13.564c.596-3.706 2.35-7.378 3.972-10.763a32 32 0 0 1 7.17-9.98c5.207-4.555 7.391-2.592 10.712-.86l.397.165a2 2 0 0 1 0-.243l.144-.705a49.97 49.97 0 0 1 26.288 1.224c6.266 2.05 13.988 8.491 17.176 14.259.055.11.121.22.187.33 7.392 13.344 12.268 28.805 12.632 62.24zm13.921 41.971a5 5 0 0 1 0-1.323 23 23 0 0 1 .651-3.584 25.09 25.09 0 0 1 15.588-17.159 22 22 0 0 1 3.497-.993 5.6 5.6 0 0 1 1.324-.165c0 .11-1.854.397-4.667 1.533a26.1 26.1 0 0 0-15.345 16.894c-.805 2.911-.937 4.819-1.048 4.797"/><path fill="#FAFAFC" d="M44.863 231.498s-2.041 34.341 6.994 47.772l6.685-22.629V231.73z"/><path fill="#1900AF" d="M114.56 93.85s-19.018 14.338-28.285 12.75c-7.424-1.302-6.144-12.583-6.144-12.583l-3.608 7.797-7.777 31.12 3.31 14.656 17.65-10.907z"/><path fill="#FAFAFC" d="M49.617 156.025c1.997-20.545 26.708-56.12 26.708-56.12l3.905-6.308-3.894 17.446s-3.872 25.463-4.413 25.992l21.787-21.096 24.491-25.926 4.843 6.947 21.5 11.91-2.206 67.468-7.722 19.772s22.703 62.13 25.648 84.153l4.909 41.762-115.909-.188s4.071-65.317 4.523-79.267c.453-13.95 1.534-44.805 1.534-44.805s-7.722-21.207-5.704-41.74"/><path fill="#27272E" d="M165.195 322.025a1.6 1.6 0 0 1-.066-.375c0-.287-.1-.651-.166-1.103l-.562-4.301c-.464-3.771-1.104-9.164-1.953-15.825-.408-3.308-.849-7.002-1.324-10.928l-.728-6.087c-.243-2.096-.485-4.246-.893-6.418a285 285 0 0 0-7.347-27.956c-1.633-5.337-3.244-10.531-4.932-15.438-1.687-4.908-3.309-9.683-4.853-14.16-3.056-8.966-5.748-16.861-7.91-23.224v-.133l5.096-12.715 1.39-3.396.365-.871q.059-.15.143-.287a1.3 1.3 0 0 1-.088.309c-.089.231-.188.518-.32.893l-1.302 3.43-4.931 12.77v-.133c2.206 6.341 4.942 14.237 8.053 23.158 1.544 4.478 3.177 9.22 4.887 14.16s3.309 10.146 4.953 15.439a278 278 0 0 1 7.325 28.021c.397 2.206.629 4.411.872 6.462.242 2.052.474 4.125.695 6.088l1.257 10.939c.739 6.617 1.346 12.064 1.765 15.836.199 1.853.353 3.308.453 4.312l.11 1.103q.037.214.011.43"/><path fill="#27272E" d="M147.368 233.064s-15.665 20.225-19.372 19.585c-3.706-.639-7.38-7.719-7.38-7.719l-4.092-1.897-3.994-7.278 8.627-7.719z" opacity=".2"/><path fill="#FAFAFC" d="M72.75 105.099s-9.167 3.893-12.134 8.579-4.976 25.011-4.976 25.011l14.551-24.503z"/><path fill="#9F6B5B" d="m86.209 234.211 14.341-5.337 10.965-7.389 9.344 14.954-4.236 2.536s-.111 3.617-.133 4.058-1.434 4.014-13.039 3.783-14.341-6.121-14.341-6.121-6.034 6.915-8.538 7.995-4.865-2.205-4.865-2.205zm-31.153-30.05s-5.516 5.756-6.818 10.255-.551 17.171-.551 17.171l1.577.055s0 8.292 2.295 8.568 4.534.342 4.655-3.407a66.6 66.6 0 0 0-1.048-10.311z"/><path fill="#27272E" d="M66.153 322.025a2.7 2.7 0 0 1 0-.475v-1.411c0-1.268-.077-3.088-.132-5.426-.1-4.731-.243-11.535-.408-19.938-.287-16.85-.684-40.097-1.103-65.769-.839-25.683-.982-48.985.43-65.791a78.3 78.3 0 0 1 4.093-19.497c.397-1.103.794-2.084 1.103-2.911.309-.828.662-1.544.948-2.096.287-.551.486-.948.64-1.257q.101-.218.232-.419a3 3 0 0 1-.188.452c-.132.309-.33.728-.573 1.279-.243.552-.574 1.258-.905 2.107-.33.849-.728 1.808-1.103 2.922a79.7 79.7 0 0 0-3.938 19.453c-1.302 16.773-1.103 40.075-.265 65.747.364 25.672.706 48.919.949 65.78.088 8.392.165 15.196.22 19.938v6.826a2.4 2.4 0 0 1 0 .486"/><path fill="#27272E" d="M72.75 105.099q.03.374 0 .75c0 .529-.088 1.246-.154 2.15-.166 1.93-.386 4.665-.673 8.083v.089h-.077l-2.471 1.422.099-.176c.408 5.668.938 12.869 1.544 21.041l-.353-.232 19.57-7.069 6.244-2.205-.176.309c-.31-2.206-.618-4.246-.916-6.308l-.066-.452.43.154 7.458 2.647-.309.099 14.451-20.534 4.17-5.844 1.103-1.555q.18-.274.408-.508a4 4 0 0 1-.342.563c-.253.397-.606.915-1.048 1.588l-4.059 5.933-14.275 20.655-.121.165-.188-.066-7.457-2.614.364-.308c.298 2.051.606 4.157.926 6.296v.232l-.22.077-6.255 2.261-19.592 7.035-.331.122v-.353c-.54-8.183-1.026-15.439-1.401-21.063v-.121l.1-.055 2.492-1.39-.088.143c.353-3.429.629-6.153.827-8.072.11-.904.188-1.621.243-2.15q.048-.374.143-.739"/><path fill="#27272E" d="M55.166 226.492a2.3 2.3 0 0 1 0-.508v-1.51c0-1.368-.055-3.309-.088-5.735 0-4.984-.122-12.042-.199-20.522v.066c-1.301-4.521-2.46-9.539-3.574-14.921a277 277 0 0 1-1.588-8.303 57.6 57.6 0 0 1-1.004-8.823 59.2 59.2 0 0 1 3.993-23.235 107 107 0 0 1 6.122-13.807 229 229 0 0 1 5.693-10.333 252 252 0 0 1 3.993-6.616l1.103-1.71q.178-.305.409-.573a6 6 0 0 1-.342.618l-1.126 1.819c-.915 1.533-2.206 3.783-3.85 6.617-1.643 2.834-3.54 6.352-5.582 10.388a110 110 0 0 0-6.012 13.773 59.3 59.3 0 0 0-3.905 23.004c.104 2.94.436 5.868.993 8.756q.761 4.268 1.566 8.293c1.103 5.371 2.207 10.388 3.497 14.887v27.845q-.026.27-.099.53"/><path fill="#27272E" d="M141.455 181.631c-11.991-8.568-19.173-23.511-19.372-38.244z" opacity=".2"/><path fill="#FAFAFC" d="M136.072 105.022s10.237 1.996 14.274 10.763c4.038 8.767 30.79 75.109 31.308 79.774s-1.677 10.576-7.193 16.376c-5.515 5.801-47.005 35.002-47.005 35.002l-18.004-28.826 36.658-26.312-23.894-49.294s1.765-33.888 13.856-37.483"/><path fill="#27272E" d="M161.389 198.327a62 62 0 0 0-6.807-4.113 65 65 0 0 0-7.49-2.691 7.6 7.6 0 0 1 2.339.298 25.6 25.6 0 0 1 5.394 1.874 25.3 25.3 0 0 1 4.854 3 7.1 7.1 0 0 1 1.71 1.632m-1.357-10.465c-2.225.214-4.435.56-6.619 1.036a53 53 0 0 0-6.255 2.382 18.15 18.15 0 0 1 12.885-3.418zm14.429 24.073q.111-.152.243-.287l.728-.827q.655-.656 1.236-1.378a20 20 0 0 0 1.445-1.985 20.5 20.5 0 0 0 2.824-6.032c.379-1.34.583-2.722.607-4.114a10.5 10.5 0 0 0-.806-4.532c-4.798-12.373-11.406-29.4-18.753-48.202-2.846-6.881-5.593-13.52-8.186-19.762-1.279-3.121-2.537-6.142-3.728-9.042a18.8 18.8 0 0 0-5.671-6.727L123.749 97.49l-4.148-5.514-1.103-1.434a3.3 3.3 0 0 1-.331-.507s.144.154.397.463l1.104 1.39 4.258 5.447 20.75 11.326a19.3 19.3 0 0 1 5.858 6.903c1.202 2.9 2.46 5.922 3.762 9.032l8.207 19.783c7.336 18.825 13.834 35.918 18.555 48.28a10.7 10.7 0 0 1 .795 4.686 16 16 0 0 1-.662 4.191 20.3 20.3 0 0 1-2.946 6.076q-.692 1.021-1.5 1.952-.561.714-1.213 1.346l-.784.783c-.176.165-.287.253-.287.242m-26.123 20.104q-.165.156-.353.286l-1.103.805-4.137 3.022-15.201 11.028-.177.132-.121-.199-18.026-28.848-.143-.221.21-.143 16.547-11.899 20.155-14.49-.089.342-17.529-35.543-5.019-10.288-1.324-2.746a18 18 0 0 0-.331-.717l-.099-.254q.084.108.143.232l.375.695 1.39 2.712c1.225 2.404 2.968 5.867 5.163 10.212l17.728 35.454.099.21-.187.132-20.133 14.512-16.547 11.877.066-.364 17.959 28.86-.309-.055 15.312-10.83 4.203-2.933 1.103-.75q.177-.133.375-.231"/><path fill="#27272E" d="M122.37 134.675a5 5 0 0 1 0-1.323 23 23 0 0 1 .651-3.584 25.09 25.09 0 0 1 15.588-17.159 22 22 0 0 1 3.497-.993 5.6 5.6 0 0 1 1.324-.165c0 .11-1.854.397-4.667 1.533a26.1 26.1 0 0 0-15.345 16.894c-.805 2.911-.937 4.819-1.048 4.797m25.968 97.364q-.165.156-.353.286l-1.103.805-4.137 3.022-15.201 11.028-.177.132-.121-.199-18.026-28.848-.143-.221.21-.143 16.547-11.899 20.155-14.49-.089.342-17.529-35.543-5.019-10.288-1.324-2.746a18 18 0 0 0-.331-.717l-.099-.254q.084.108.143.232l.375.695 1.39 2.712c1.225 2.404 2.968 5.867 5.163 10.212l17.728 35.454.099.21-.187.132-20.133 14.512-16.547 11.877.066-.364 17.959 28.86-.309-.055 15.312-10.83 4.203-2.933 1.103-.75q.177-.133.375-.231"/><path fill="#27272E" d="m103.087 125.544-6.111-.198 1.28 6.186-27.535 6.992 25.824-9.308-.915-6.296z" opacity=".2"/><path fill="#27272E" d="M49.287 321.837a4.5 4.5 0 0 1 0-.849c0-.606.066-1.411.099-2.437.11-2.206.264-5.238.463-9.021l1.732-30.304.066.199a20.3 20.3 0 0 1-2.548-4.731 61 61 0 0 1-3.221-13.608c-.585-4.411-.894-8.525-1.103-12.296-.353-7.532-.221-13.586 0-17.314v-.121h.12l3.31.176.839.067h.287-1.126l-3.31-.067.122-.11c-.077 3.716-.121 9.771.287 17.281.21 3.76.54 7.884 1.103 12.24a61 61 0 0 0 3.221 13.564 19.6 19.6 0 0 0 2.46 4.588l.067.088v.11a57785 57785 0 0 0-1.92 30.282c-.276 3.783-.485 6.838-.64 9.01a162 162 0 0 1-.198 2.437 6 6 0 0 1-.11.816"/><path fill="#9292A9" d="m117.737 121.795-1.489-.629c0-.077 3.31-8.072 6.619-16.541 1.302-3.364 1.765-6.165 1.39-8.337a3.86 3.86 0 0 0-3.916-3.143l-1.015-1.456a5.817 5.817 0 0 1 6.531 4.323c.419 2.46-.078 5.514-1.479 9.197-3.265 8.491-6.608 16.498-6.641 16.586"/><path fill="#9292A9" d="m120.153 140.476-2.063-.794c1.688-4.345 3.994-12.043 3.001-14.204a6.35 6.35 0 0 0-4.413-2.922 7.42 7.42 0 0 0-6.453 1.323c-2.361 1.996-5.913 9.032-7.083 11.568l-2.007-.926c.176-.386 4.412-9.616 7.722-12.329a9.6 9.6 0 0 1 8.362-1.787 8.43 8.43 0 0 1 5.946 4.158c1.654 3.639-2.229 13.895-3.012 15.913"/><path fill="#27272E" d="M97.924 174.033c-2.548 0-5.041-1.356-7.435-4.058l.816-.739c2.648 2.977 5.362 4.157 8.064 3.529 11.032-2.592 19.383-33.161 19.471-33.469l1.103.286c-.342 1.291-8.637 31.518-20.276 34.252a7.4 7.4 0 0 1-1.743.199"/><path fill="#27272E" d="M92.607 171.232a1.325 1.325 0 0 1-1.72.121l-2.395-1.775a1.58 1.58 0 0 1-.44-2.206 1.58 1.58 0 0 1 1.16-.702 1.57 1.57 0 0 1 1.277.46l2.14 2.205a1.33 1.33 0 0 1 .39.953 1.33 1.33 0 0 1-.412.944m9.995 3.804c-3.398 0-5.924-1.102-7.513-3.308-6.762-9.484 5.99-35.818 6.542-36.943l.993.486c-.133.264-13.018 26.863-6.62 35.818 1.666 2.326 4.59 3.308 8.694 2.745l.143 1.103q-1.117.12-2.239.099"/><path fill="#27272E" d="M102.403 174.441a1.32 1.32 0 0 0 1.202 1.224l2.968.243a1.6 1.6 0 0 0 1.177-.305 1.57 1.57 0 0 0 .61-1.052 1.57 1.57 0 0 0-.981-1.678 1.6 1.6 0 0 0-.685-.108l-3.089.265a1.313 1.313 0 0 0-1.202 1.411m-49.765-17.856a8.633 8.633 0 0 0 4.653-11.29 8.64 8.64 0 0 0-11.295-4.652 8.634 8.634 0 1 0 6.642 15.942"/><path fill="#27272E" d="M52.638 156.585a8.633 8.633 0 0 0 4.653-11.29 8.64 8.64 0 0 0-11.295-4.652 8.634 8.634 0 1 0 6.642 15.942"/><path fill="#FAFAFC" d="M55.718 148.592a6.38 6.38 0 0 1-3.943 5.899 6.386 6.386 0 0 1-5.993-11.208 6.4 6.4 0 0 1 3.548-1.076 6.374 6.374 0 0 1 6.387 6.385"/><path fill="#9292A9" d="m52.883 140.807-1.435-.739c.728-1.412 17.805-34.616 18.831-36.116.177-.265.397-.64.64-1.048a24 24 0 0 1 1.71-2.569c1.721-2.128 3.773-4.091 6.233-4.532l-1.434 2.315c-1.313.508-2.008 1.335-3.541 3.231a23 23 0 0 0-1.578 2.393c-.265.442-.496.827-.695 1.103-.85 1.191-13.79 26.356-18.732 35.962"/></g><mask id="medic-prepared_svg__c" width="101" height="92" x="48" y="0" maskUnits="userSpaceOnUse" style="mask-type:alpha"><path fill="#C4C4C4" d="M48.468.314h99.876v91.358H48.468z"/></mask><g mask="url(#medic-prepared_svg__c)"><path fill="#27272E" d="M64.444 27.729s-7.083 26.466-7.722 45.213l-.199 6.242s15.61 12.957 28.682 13.751l11.032-26.984z"/><path fill="#27272E" d="M133.811 43.961c-2.99-12.902-4.137-27.922-14.871-36.336-7.965-6.242-17.033-7.984-27.149-7.554-4.975.21-10.6 2.503-14.936 4.951-5.946 3.364-8.461 10.19-11.33 16.388-5.747 12.417-5.02 29.234-1.103 33.91l51.848 27.404c10.37-5.393 16.868-7.532 18.522-21.35a50.8 50.8 0 0 0-.981-17.413"/><path fill="#9F6B5B" d="M117.815 17.88 85.106 8.244c-10.524-1.533-18.07 11.204-19.15 21.78-1.214 11.744-2.207 26.135-1.17 34.98C66.904 82.791 80.362 85.57 80.362 85.57s0 .264-.077 5.514l-.342 8.513a14.7 14.7 0 0 0 2.88 9.627c4.81 6.242 13.601 7.08 23.949 3.253 6.001-2.205 10.182-6.694 10.634-12.77l5.682-75.319a6.22 6.22 0 0 0-5.273-6.506"/><path fill="#27272E" d="M72.034 46.156a2.27 2.27 0 0 0 2.096 2.37 2.206 2.206 0 0 0 2.427-1.951 2.204 2.204 0 0 0-2.096-2.371 2.207 2.207 0 0 0-2.427 1.952m-3.299-5.436c.265.308 2.03-.894 4.468-.795 2.438.1 4.18 1.39 4.412 1.103s-.121-.673-.882-1.268a6.17 6.17 0 0 0-3.552-1.246 5.95 5.95 0 0 0-3.575.992c-.739.507-1.048 1.037-.871 1.213m26.045 5.216a2.26 2.26 0 0 0 2.097 2.371 2.206 2.206 0 0 0 2.416-1.952 2.205 2.205 0 0 0-2.052-2.326 2.206 2.206 0 0 0-2.46 1.907m-2.052-4.973c.275.308 2.04-.894 4.478-.794s4.181 1.39 4.413 1.102c.232-.286-.132-.672-.882-1.268a6.3 6.3 0 0 0-3.553-1.246A5.93 5.93 0 0 0 93.6 39.76c-.772.54-1.004 1.07-.871 1.202M83.23 56.776a16.4 16.4 0 0 0-3.938-.872c-.618-.088-1.202-.231-1.29-.661a3.13 3.13 0 0 1 .485-1.83l2.03-4.677c2.824-6.616 4.898-12.13 4.622-12.24s-2.769 5.194-5.593 11.843l-1.953 4.698a3.6 3.6 0 0 0-.419 2.437 1.52 1.52 0 0 0 .982.949c.357.112.729.175 1.103.187 1.311.224 2.646.28 3.971.166"/><path fill="#774F44" d="M80.407 85.569a45.03 45.03 0 0 0 23.927-5.382s-6.343 12.13-23.971 9.793zm10.7-23.897a3.93 3.93 0 0 0-3.188-1.908 5.1 5.1 0 0 0-4.733 2.117 3.15 3.15 0 0 0-.297 2.283c.154.397 0 .198.32.474a9 9 0 0 0 3.552 2.404 3.86 3.86 0 0 0 4.103-1.323 3.91 3.91 0 0 0 .243-4.047"/><path fill="#27272E" d="M90.776 58.849c-.397 0-.518 2.613-2.868 4.41s-5.152 1.357-5.196 1.721c0 .165.607.54 1.798.629a6.5 6.5 0 0 0 4.325-1.29 5.78 5.78 0 0 0 2.206-3.684c.187-1.169-.077-1.786-.265-1.786m1.037-26.819c.166.683 2.626.617 5.45 1.234 2.824.618 5.041 1.621 5.516 1.103.198-.264-.144-.926-1.015-1.654a9.72 9.72 0 0 0-8.33-1.742c-1.124.275-1.709.738-1.62 1.058m-22.88 2.074c.551.474 2.327-.364 4.567-.717s4.18-.22 4.534-.86c.154-.31-.232-.817-1.103-1.214a7.33 7.33 0 0 0-7.325 1.269c-.74.683-.927 1.29-.673 1.521M85.602 6.335c0 .132-.055.264-.077.386h.055c.011-.11.011-.188.022-.386"/><path fill="#27272E" d="M108.449 92.704c.496-4.632-1.368-9.286-.827-13.917.573-4.908 3.75-9.11 5.063-13.884 2.085-7.631-.783-15.748-1.831-23.633a18.75 18.75 0 0 1-11.495-6.616c-3.552-4.136-5.692-9.252-7.788-14.281a24 24 0 0 0 4.81 13.73 6.42 6.42 0 0 1-5.516-1.798 14.3 14.3 0 0 1-3.233-5.018A39.3 39.3 0 0 1 84.51 13.15a51 51 0 0 0 2.306 20.644 8.8 8.8 0 0 0-3.839.143 4.22 4.22 0 0 1-3.662-.772 4.6 4.6 0 0 1-1.004-2.36 53.2 53.2 0 0 1-.585-17.986 54 54 0 0 0-4.049 9.925 19.25 19.25 0 0 0-.077 10.63 1.557 1.557 0 0 1-2.206 0 3.7 3.7 0 0 1-.97-2.205 27.6 27.6 0 0 1 .584-8.954c-1.765 3.131-2.35 6.77-3.31 10.222s-2.537 7.014-5.515 8.988a46.6 46.6 0 0 1 .44-13.564c.596-3.706 2.35-7.378 3.972-10.763a32 32 0 0 1 7.17-9.98c5.208-4.555 7.392-2.592 10.712-.86l.397.165a2 2 0 0 1 0-.243l.144-.705a49.97 49.97 0 0 1 26.288 1.224c6.266 2.05 13.988 8.491 17.176 14.259.055.11.122.22.188.33 7.391 13.344 12.267 28.805 12.631 62.24z"/><path fill="#FAFAFC" d="M49.618 156.025c1.996-20.545 26.707-56.12 26.707-56.12l3.905-6.308-3.894 17.446s-3.872 25.463-4.412 25.992l21.787-21.096 24.49-25.926 4.843 6.947 21.5 11.91-2.206 67.468-7.722 19.772s22.703 62.13 25.648 84.153l4.909 41.762-115.908-.188s4.07-65.317 4.523-79.267 1.533-44.805 1.533-44.805-7.722-21.207-5.703-41.74"/><path fill="#27272E" d="M174.462 211.935q.11-.152.242-.287l.729-.827q.654-.656 1.235-1.378a20 20 0 0 0 1.445-1.985 20.5 20.5 0 0 0 2.824-6.032c.379-1.34.583-2.722.607-4.114a10.5 10.5 0 0 0-.805-4.532c-4.799-12.373-11.407-29.4-18.754-48.202a15476 15476 0 0 0-8.185-19.762c-1.28-3.121-2.538-6.142-3.729-9.042a18.8 18.8 0 0 0-5.67-6.727L123.75 97.49l-4.148-5.514-1.103-1.434a3 3 0 0 1-.331-.507s.143.154.397.463l1.103 1.39 4.258 5.447 20.751 11.326a19.34 19.34 0 0 1 5.857 6.903c1.203 2.9 2.46 5.922 3.762 9.032l8.208 19.783c7.336 18.825 13.833 35.918 18.555 48.28.612 1.483.884 3.084.794 4.686a16 16 0 0 1-.662 4.191 20.3 20.3 0 0 1-2.945 6.076q-.692 1.021-1.501 1.952a13 13 0 0 1-1.213 1.346l-.783.783c-.177.165-.287.253-.287.242"/><path fill="#9292A9" d="m117.738 121.795-1.49-.629c0-.077 3.31-8.072 6.619-16.541 1.302-3.364 1.765-6.165 1.39-8.337a3.86 3.86 0 0 0-3.916-3.143l-1.015-1.456a5.815 5.815 0 0 1 6.531 4.323c.419 2.46-.077 5.514-1.478 9.197-3.266 8.491-6.608 16.498-6.641 16.586"/></g></g><defs><clipPath id="medic-prepared_svg__a"><path fill="#fff" d="M.02 0h200v240H.02z"/></clipPath></defs></svg>