<svg xmlns="http://www.w3.org/2000/svg" width="240" height="240" fill="none" viewBox="0 0 240 240"><g clip-path="url(#medic-negative_svg__a)"><circle cx="119.779" cy="135.305" r="104.468" fill="#EEEBFF"/><mask id="medic-negative_svg__b" width="240" height="240" x="0" y="0" maskUnits="userSpaceOnUse" style="mask-type:alpha"><path fill="#fff" fill-rule="evenodd" d="M239.171.99H.388v136.802H15.34a104.469 104.469 0 0 0 208.876 0h14.954z" clip-rule="evenodd"/></mask><g mask="url(#medic-negative_svg__b)"><path fill="#27272E" d="M160.578 30.34c-2.053-2.315-4.556-4.512-5.232-7.546-.617-2.789.409-5.915-.993-8.45-1.735-3.051-6.182-3.38-8.277-6.203-1.018-1.36-1.343-3.144-2.344-4.513-1.669-2.332-4.957-2.906-7.81-2.535-2.854.372-5.574 1.42-8.436 1.69-3.922.33-7.985-.904-11.74.288-4.172 1.31-6.633 5.07-9.295 8.72l-3.471 4.226c-.709.73-1.485 1.39-2.32 1.969-1.468.988-3.162 1.69-4.422 2.94a7.05 7.05 0 0 0-1.446 2.409 7.1 7.1 0 0 0 .322 5.513 7 7 0 0 0 1.717 2.219 7.44 7.44 0 0 0-3.669 2.906 7.6 7.6 0 0 0-1.238 4.547c.267 1.742.74 3.444 1.41 5.07.543 1.69.885 3.55.21 5.18-.677 1.631-2.704 2.772-4.231 1.919a8 8 0 0 0 1.583 3.106 7.86 7.86 0 0 0 2.747 2.116 4.66 4.66 0 0 1-3.129 1.454c3.288 7.529 12.007 11.382 20.134 11.306s15.854-3.312 23.363-6.49l21.794-6.084c1.919-.473 2.679-2.848 2.62-4.842s-.584-4.065.092-5.915c.935-2.535 3.847-3.972 4.814-6.524 1.093-2.966-.7-6.16-2.753-8.476"/><path fill="#FFBE9D" d="m129.155 6.628-1.202-.05c-13.024.202-20.125 11.518-19.566 24.692l-.484 45.379a15.54 15.54 0 0 0 4.069 10.672 15.16 15.16 0 0 0 10.207 4.902c2.018.13 4.041-.148 5.952-.818s3.67-1.718 5.177-3.083a15.4 15.4 0 0 0 3.598-4.87 15.6 15.6 0 0 0 1.461-5.9c.116-2.382.2-4.056.208-4.056s12.566-1.42 13.259-14.053c.333-6.1 0-18.726-.418-30.15a23.7 23.7 0 0 0-6.756-15.74 23.14 23.14 0 0 0-15.505-6.925"/><path fill="#EB996E" d="M138.575 73.497a29.94 29.94 0 0 1-16.045-5.57s3.338 9.398 15.853 8.798z"/><path fill="#27272E" d="M146.185 39.4c-.015.47-.211.916-.546 1.243a1.78 1.78 0 0 1-1.248.505 1.65 1.65 0 0 1-1.245-.457 1.7 1.7 0 0 1-.524-1.233c.015-.47.211-.917.546-1.243a1.77 1.77 0 0 1 1.248-.506 1.65 1.65 0 0 1 1.245.458 1.7 1.7 0 0 1 .524 1.232m2.344-4.977c-.234.228-1.535-.845-3.454-.921s-3.338.845-3.563.583c-.1-.11.142-.524.776-.947a4.83 4.83 0 0 1 2.862-.76c.997.04 1.956.401 2.737 1.03.575.482.751.88.642 1.015M127.987 39.4a1.83 1.83 0 0 1-.551 1.243 1.78 1.78 0 0 1-1.251.505 1.7 1.7 0 0 1-1.23-.473 1.74 1.74 0 0 1-.539-1.216 1.83 1.83 0 0 1 .554-1.24 1.78 1.78 0 0 1 1.248-.502 1.65 1.65 0 0 1 1.242.455 1.7 1.7 0 0 1 .527 1.227m1.718-5.003c-.234.22-1.544-.845-3.454-.93-1.911-.084-3.338.846-3.563.592-.1-.11.142-.532.776-.955a4.9 4.9 0 0 1 2.862-.76 4.7 4.7 0 0 1 2.745 1.03c.567.483.751.914.634 1.023m6.249 15.22a12.8 12.8 0 0 1 3.138-.431c.492 0 .959-.11 1.059-.44a2.56 2.56 0 0 0-.267-1.487l-1.285-3.845c-1.785-5.459-3.054-9.946-2.837-10.014s1.844 4.301 3.622 9.76q.65 2.029 1.226 3.862a2.87 2.87 0 0 1 .175 1.96 1.25 1.25 0 0 1-.834.693q-.413.09-.834.077c-1.953.025-3.163-.017-3.163-.135m-6.784 4.819c.155.27 1.912-.855 4.123-.137 2.211.717 3.198 2.736 3.419 2.616.115-.067.078-.64-.408-1.459a5.2 5.2 0 0 0-2.804-2.264 4.46 4.46 0 0 0-3.381.22c-.744.436-1.038.9-.949 1.024m.753-27.931c-.217.524-2.12.186-4.381.363s-4.114.718-4.389.237c-.125-.237.217-.719.968-1.2a7.3 7.3 0 0 1 3.288-1.006 7.1 7.1 0 0 1 3.387.558c.835.38 1.235.803 1.127 1.048m18.087 1.428c-.358.422-1.668-.093-3.245-.178s-2.954.17-3.238-.304c-.125-.237.1-.668.709-1.056a4.37 4.37 0 0 1 2.671-.609 4.5 4.5 0 0 1 2.553.997c.542.482.709.939.55 1.15"/><path fill="#FFBE9D" d="M109.013 40.675c-.209-.101-8.469-2.94-8.561 5.713s8.502 6.963 8.519 6.71.042-12.423.042-12.423"/><path fill="#EB996E" d="M106.4 49.793c-.041 0-.15.101-.409.22a1.45 1.45 0 0 1-1.109 0c-.901-.347-1.669-1.809-1.669-3.38a5 5 0 0 1 .442-2.155 1.72 1.72 0 0 1 1.127-1.15.74.74 0 0 1 .514.05c.16.077.289.209.362.373.117.245.058.422.1.43.042.01.183-.134.125-.498a.94.94 0 0 0-.334-.54 1.1 1.1 0 0 0-.834-.237 2.1 2.1 0 0 0-.954.457 2.1 2.1 0 0 0-.615.87 5.1 5.1 0 0 0-.542 2.408c0 1.74.893 3.38 2.128 3.76a1.57 1.57 0 0 0 1.36-.21c.283-.187.333-.381.308-.398"/><path fill="#27272E" d="M108.728 15.307a18.1 18.1 0 0 1 5.557-6.203 25.6 25.6 0 0 1 8.219-4.707 18.56 18.56 0 0 1 14.435.845 11.2 11.2 0 0 1 4.08 3.524c3.062 1.927 6.108 5.518 4.898 6.194l-1.669-1.816s-.734 1.546-3.83 3.92q-.106.083-.225.144a4.2 4.2 0 0 1-.893.507l-.175.11c-3.646 1.234-6.016.735-9.646-.55-2.503-.844-4.797-2.331-7.234-3.38a8.8 8.8 0 0 0-5.84 2.206 5.5 5.5 0 0 0-.701.71 5.23 5.23 0 0 0-.609 4.318c.333 1.47 1.001 2.831 1.418 4.276.759 2.654.642 5.476.517 8.23-.175 3.888-.392 7.936-2.278 11.316-.834 1.589-2.795 3.169-4.355 1.479a3.68 3.68 0 0 1-.884-2.645c.108-2.637-2.178-3.854-3.338-5.763a10.5 10.5 0 0 1-1.285-5.341 34.4 34.4 0 0 1 3.838-17.374"/><path fill="#1900AF" d="M109.012 75.803s10.272 9.65 18.549 9.6 10.263-4.445 10.263-4.445l4.664 6.008s.434 39.202.951 39.878c.518.676-4.864 4.098-4.864 4.098l-27.468-39.928z"/><path fill="#fff" d="M167.186 219.815s3.889-1.293 4.948-4.943c1.06-3.651-1.844-40.14-1.844-40.14l-2.186-2.197 1.669-1.36v-11.586l-3.888-24.405s-3.83-33.522-8.478-35.922l-7.209 33.193 5.299 77.845z"/><path fill="#fff" d="m137.824 80.958.542-3.38c1.252.989 4.573 6.253 4.573 6.253 4.564 3.904 14.084 13.774 15.812 17.636 2.503 5.485 2.711 30.658 2.711 30.658l-1.218 124.509-82.22.126 1.326-56.406L81.962 89.07l20.184-10.284 5.406-6.025 34.002 56.119-.242-37.79a16.68 16.68 0 0 0-3.488-10.132"/><path fill="#fff" d="M51.123 183.056a18.57 18.57 0 0 1-1.202-13.681c4.623-15.65 19.008-64.088 21.628-70.139 2.878-6.616 11.08-10.554 11.08-10.554l12.625 33.582-3.213 15.65-11.564 33.447 33.842 40.097-24.197 20.146s-36.471-43.689-38.932-48.43z"/><path fill="#FFBE9D" d="M139.934 215.176c-.259-.093-8.844 1.479-10.471 1.048a54 54 0 0 0-9.179-1.741c-3.946-.346-8.277-1.082-8.277-1.082l-16.688 13.91 6.867 2.467a25.4 25.4 0 0 0 10.555-1.217c6.183-1.909 16.221-7.123 16.221-7.123a38.6 38.6 0 0 0 6.867-.347c2.912-.524 7.718-4.521 4.105-5.915"/><path fill="#27272E" d="M142.922 256.735a1.5 1.5 0 0 1 0-.338v-4.842c0-3.38.05-8.188.083-14.138.084-11.932.284-28.418.25-46.629 0-9.101-.1-17.746-.25-25.664-.083-3.946-.167-7.698-.25-11.205-.084-3.507-.301-6.76-.434-9.743-.25-5.916-.459-10.766-.601-14.121-.058-1.648-.108-2.941-.142-3.845v-.997a1.4 1.4 0 0 1 0-.338v.338c0 .228 0 .575.067.997.058.896.134 2.189.225 3.837.176 3.38.434 8.171.743 14.112.15 2.983.309 6.245.492 9.751.184 3.507.184 7.259.284 11.206.167 7.884.267 16.563.284 25.672 0 18.211-.217 34.697-.376 46.629-.092 5.916-.167 10.775-.225 14.138 0 1.648-.059 2.941-.075 3.836v1.006q-.022.173-.075.338M102.146 78.761q.162.17.284.372l.759 1.132c.668 1.023 1.611 2.468 2.795 4.268l9.621 14.923-.117-.093 7.209 1.826.259.067-.117.245a225 225 0 0 0-2.503 4.969c-.125.262-.259.524-.384.761v-.229l15.812 20.771c1.977 2.637 3.588 4.783 4.731 6.296l1.268 1.69.317.456q.113.155.1.169a.7.7 0 0 1-.133-.143l-.359-.423-1.327-1.69-4.839-6.219-15.912-20.695-.083-.11.066-.119c.117-.245.251-.507.384-.769l2.503-4.968.134.312-7.201-1.842h-.083l-.042-.068-9.495-15.007-2.696-4.335-.7-1.158a3 3 0 0 1-.251-.389"/><path fill="#27272E" d="M142.138 136.418q.061-.293.184-.566c.125-.363.359-.845.592-1.58.493-1.378 1.127-3.38 1.811-5.915 1.36-5.071 2.912-12.237 4.272-20.281v.143l-.634-1.039-3.404-5.628-.267-.44.492.119 4.047.988-.242.262c-1.794-5.425-3.338-10.072-4.439-13.41l-1.235-3.87-.292-1.057a.187.187 0 0 1-.09-.32.183.183 0 0 1 .247 0 .2.2 0 0 1 .059.12.184.184 0 0 1-.149.2c.1.27.217.6.375 1.014.325.938.784 2.222 1.343 3.828 1.144 3.33 2.737 7.96 4.59 13.369l.125.346-.359-.084-4.047-.964.225-.321c1.102 1.8 2.245 3.684 3.421 5.62l.635 1.039v.152a203 203 0 0 1-4.406 20.281c-.726 2.535-1.41 4.555-1.952 5.915-.251.693-.509 1.2-.66 1.555a5 5 0 0 1-.242.524"/><path fill="#FFBE9D" d="M165.726 204.292s-6.216.422-8.185 1.335-3.338 3.997-4.907 5.273-3.896 1.91-3.337 3.499a3.7 3.7 0 0 0 1.947 1.918c.868.365 1.839.38 2.717.042a43 43 0 0 0 4.314-1.96h9.871s1.977-7.91 2.161-7.792-2.796-2.324-4.581-2.315"/><path fill="#27272E" d="M161.019 119.484c.117 0 .217 19.081.217 42.615s-.1 42.624-.217 42.624-.217-19.081-.217-42.624.092-42.615.217-42.615m-91.264 87.47s.141.135.383.422l1.102 1.285c.96 1.157 2.361 2.822 4.172 4.943 3.57 4.301 8.686 10.445 14.885 17.915h-.242l24.156-20.179v.312l-7.793-9.228-26.025-30.894-.067-.085v-.101c3.513-10.039 6.425-18.388 8.47-24.245l2.394-6.76.642-1.766c.15-.406.234-.608.234-.608s-.05.219-.184.625l-.584 1.791c-.542 1.581-1.318 3.879-2.302 6.761l-8.344 24.295v-.186l26.074 30.852 7.785 9.228.142.169-.167.144-24.197 20.12-.134.11-.108-.135-14.777-18.016-4.064-5.003-1.06-1.318c-.3-.288-.392-.448-.392-.448m7.151-113.658q.174-.03.35 0h1.018c1.247.05 2.488.217 3.705.498A21.97 21.97 0 0 1 92.7 99.716a22.4 22.4 0 0 1 5.964 10.793c.299 1.228.48 2.481.543 3.744v1.031q.03.177 0 .355-.12-.68-.15-1.369a25.6 25.6 0 0 0-.668-3.685 22.8 22.8 0 0 0-5.983-10.562 22.4 22.4 0 0 0-10.504-5.924 23.6 23.6 0 0 0-3.638-.634 10 10 0 0 1-1.36-.17"/><path fill="#27272E" d="M67.443 173.887a6 6 0 0 1 1.668-1.14 14.6 14.6 0 0 1 9.354-1.564 5.7 5.7 0 0 1 1.919.549 18.42 18.42 0 0 0-12.941 2.164z"/><path fill="#fff" d="M160.652 214.399h8.319l-10.388 31.579-3.088-22.039z"/><path fill="#27272E" d="M158.292 214.399q.38-.068.767-.059l2.178-.051 7.768-.076h.259l-.084.253c-1.009 3.102-2.202 6.761-3.471 10.656a1853 1853 0 0 1-4.931 14.78l-1.544 4.47-.442 1.2a1.8 1.8 0 0 1-.175.414q.014-.226.092-.439l.367-1.234c.35-1.124.834-2.653 1.41-4.504 1.21-3.803 2.904-9.05 4.806-14.83l3.529-10.631.184.245-7.768-.076-2.178-.051a4 4 0 0 1-.767-.067"/><path fill="#27272E" d="M161.021 204.723c.307-.146.633-.248.967-.305a12.3 12.3 0 0 1 2.771-.338 8 8 0 0 1 4.03.972 7.64 7.64 0 0 1 3.129 4.023c1.293 3.498.317 7.183-1.427 8.873a7.5 7.5 0 0 1-2.328 1.555 3.3 3.3 0 0 1-.976.312q.435-.263.901-.465a8.6 8.6 0 0 0 2.186-1.622c1.577-1.631 2.503-5.163 1.235-8.493a7.24 7.24 0 0 0-2.929-3.828 7.77 7.77 0 0 0-3.83-1.014 27 27 0 0 0-3.729.33m-62.805 24.126c1.485.556 3.043.886 4.623.98a19 19 0 0 0 5.098-.481 46 46 0 0 0 6.033-1.893c4.222-1.589 8.051-3.009 10.847-4.006l3.296-1.174a8 8 0 0 1 1.234-.372 6.5 6.5 0 0 1-1.176.532l-3.254 1.301a996 996 0 0 1-10.789 4.133 43 43 0 0 1-6.099 1.876c-1.706.376-3.456.51-5.199.397a12.3 12.3 0 0 1-3.437-.735 8 8 0 0 1-.885-.381c-.233-.101-.292-.16-.292-.177m1.761 27.565c-.117 0-.718-5.205-1.335-11.653-.618-6.448-1.027-11.687-.91-11.695s.718 5.205 1.343 11.653c.626 6.447 1.027 11.678.902 11.695m22.261-1.056c0-.043.442-.178 1.21-.516a10.4 10.4 0 0 0 2.929-1.926 13.7 13.7 0 0 0 2.995-4.285 25 25 0 0 0 1.852-6.194c.63-3.909.842-7.875.635-11.831a140 140 0 0 0-.209-3.591 8 8 0 0 1-.058-1.327q.172.64.225 1.302c.117.845.242 2.079.35 3.6a51.3 51.3 0 0 1-.509 11.906 25 25 0 0 1-1.927 6.287 13.7 13.7 0 0 1-3.146 4.369 9.6 9.6 0 0 1-3.079 1.859 7 7 0 0 1-.926.288 1.3 1.3 0 0 1-.342.059m-23.972-24.532c.058-.05.725.845 1.952 2.054a28 28 0 0 0 11.44 7.064c1.668.533 2.711.744 2.703.845a2.8 2.8 0 0 1-.759-.076 16 16 0 0 1-2.028-.448 24.4 24.4 0 0 1-6.283-2.754 25 25 0 0 1-5.298-4.395q-.705-.769-1.319-1.614a2.8 2.8 0 0 1-.408-.676"/><path fill="#FFB0B5" d="M127.561 136.891a2.7 2.7 0 0 1 .968 2.13c-.083 1.31 0 10.233 0 10.233s.325 1.31-.968 1.31z"/><path fill="#FFB0B5" d="M127.82 135.438h-2.704v4.479h2.704z"/><path fill="#FFB0B5" d="M125.659 135.953h1.669v-1.69a.85.85 0 0 0-.245-.597.825.825 0 0 0-1.18 0 .85.85 0 0 0-.244.597z"/><path fill="#27272E" d="M104.723 139.646c0-.127 6.066-.219 13.542-.219s13.551.092 13.551.219-6.066.22-13.551.22c-7.484 0-13.542-.101-13.542-.22"/><path fill="#27272E" d="m139.828 133.384-1.252-1.199-22.796-22.073 2.495-7.233h-3.955l-7.926-17.476 9.044 14.163 7.209 1.834-2.903 5.729m1.075 56.001a12.8 12.8 0 0 0 6.374-1.978 11.14 11.14 0 0 0 3.613-5.425 29.2 29.2 0 0 1-1.059 5.789 8.36 8.36 0 0 1-3.196 4.326c-1.769 1.116-3.98 1.234-6.058 1.065a25.1 25.1 0 0 1-8.093-2.053c-1.828-.803-3.738-2.071-4.114-4.048a24.95 24.95 0 0 0 12.533 2.324" opacity=".2"/></g><rect width="40.295" height="40.295" x="170.023" y="45.264" fill="#FFE6E5" rx="20.147"/><path fill="#BD0700" fill-rule="evenodd" d="M186.072 61.312a.68.68 0 0 1 .959 0l7.239 7.238a.679.679 0 1 1-.96.96l-7.238-7.238a.68.68 0 0 1 0-.96" clip-rule="evenodd"/><path fill="#BD0700" fill-rule="evenodd" d="M194.27 61.312a.68.68 0 0 1 0 .96l-7.239 7.238a.678.678 0 1 1-.959-.96l7.238-7.238a.68.68 0 0 1 .96 0" clip-rule="evenodd"/></g><defs><clipPath id="medic-negative_svg__a"><path fill="#fff" d="M.388 0H239.17v240H.388z"/></clipPath></defs></svg>