<svg xmlns="http://www.w3.org/2000/svg" width="208" height="240" fill="none" viewBox="0 0 208 240"><ellipse cx="104.03" cy="136.343" fill="#EEEBFF" rx="103.597" ry="103.249"/><mask id="medic-happy-secondary_svg__a" width="208" height="207" x="0" y="33" maskUnits="userSpaceOnUse" style="mask-type:alpha"><ellipse cx="104.03" cy="136.343" fill="#fff" rx="103.597" ry="103.249"/></mask><g mask="url(#medic-happy-secondary_svg__a)"><path fill="#FF646E" d="M147.537 35.214c-2.46-2.732-5.461-5.323-6.271-8.902-.74-3.29.49-6.978-1.19-9.968-2.08-3.599-7.411-3.987-9.922-7.317-1.22-1.605-1.61-3.708-2.81-5.323-2.001-2.75-5.941-3.429-9.362-2.99s-6.681 1.675-10.112 1.994c-4.701.388-9.571-1.067-14.072.338-5.001 1.546-7.952 5.981-11.142 10.288l-4.16 4.984c-.85.861-1.781 1.64-2.781 2.322-1.76 1.166-3.791 1.994-5.301 3.47a8.3 8.3 0 0 0-2.208 6.131 8.27 8.27 0 0 0 2.918 5.83 8.9 8.9 0 0 0-4.397 3.428 8.85 8.85 0 0 0-1.484 5.364c.32 2.054.887 4.062 1.69 5.98.65 1.994 1.06 4.187.25 6.111s-3.24 3.27-5.07 2.263a9.36 9.36 0 0 0 1.898 3.663 9.4 9.4 0 0 0 3.292 2.497 5.63 5.63 0 0 1-3.75 1.715c3.94 8.881 14.392 13.427 24.134 13.337 9.741-.09 19.003-3.908 28.005-7.656l26.124-7.177c2.301-.558 3.211-3.359 3.141-5.711s-.7-4.795.11-6.978c1.12-2.99 4.611-4.685 5.771-7.695 1.31-3.5-.84-7.267-3.301-9.998"/><path fill="#FFBE9D" d="m109.871 7.243-1.44-.06c-15.613.24-24.124 13.587-23.454 29.127l-.58 53.529a18.17 18.17 0 0 0 4.877 12.589 18.3 18.3 0 0 0 12.236 5.782 18.3 18.3 0 0 0 13.339-4.601 18.2 18.2 0 0 0 4.313-5.744 18.15 18.15 0 0 0 1.751-6.96c.14-2.81.24-4.784.25-4.784s15.063-1.675 15.893-16.577c.4-7.197 0-22.09-.5-35.566a27.76 27.76 0 0 0-8.099-18.566 27.94 27.94 0 0 0-18.586-8.169"/><path fill="#EB996E" d="M121.163 86.12a36.27 36.27 0 0 1-19.233-6.568s4.001 11.084 19.003 10.377z"/><path fill="#27272E" d="M130.285 45.9a2.13 2.13 0 0 1-.655 1.466c-.402.386-.938.6-1.496.597a2.01 2.01 0 0 1-1.957-1.202 2 2 0 0 1-.163-.792 2.13 2.13 0 0 1 .655-1.467c.401-.385.938-.6 1.495-.596a2 2 0 0 1 1.493.54 2 2 0 0 1 .628 1.453m2.81-5.871c-.28.27-1.84-.997-4.141-1.086-2.3-.09-4 .996-4.27.687-.12-.13.17-.618.93-1.116a5.85 5.85 0 0 1 3.43-.897 5.64 5.64 0 0 1 3.281 1.216c.69.568.9 1.037.77 1.196M108.471 45.9a2.14 2.14 0 0 1-.661 1.467 2.15 2.15 0 0 1-1.499.596 2.07 2.07 0 0 1-1.475-.56 2.05 2.05 0 0 1-.646-1.434 2.15 2.15 0 0 1 2.161-2.053 2 2 0 0 1 1.489.536 2 2 0 0 1 .631 1.447m2.061-5.901c-.28.26-1.851-.997-4.141-1.096s-4.001.997-4.271.697c-.12-.13.17-.627.93-1.126a5.96 5.96 0 0 1 3.431-.897 5.7 5.7 0 0 1 3.29 1.216c.681.568.901 1.077.761 1.206m7.491 17.952a15.5 15.5 0 0 1 3.76-.508c.59 0 1.15-.13 1.27-.518a2.97 2.97 0 0 0-.32-1.754l-1.54-4.536c-2.14-6.44-3.661-11.732-3.4-11.812.26-.08 2.21 5.074 4.34 11.513q.78 2.393 1.471 4.556c.344.72.419 1.541.21 2.312a1.5 1.5 0 0 1-1.001.818q-.494.105-1 .09c-2.34.03-3.79-.02-3.79-.16m-6.831 1.296c.37 0 .27 2.482 2.331 4.346s4.721 1.694 4.731 1.993c0 .16-.611.459-1.741.439a6.22 6.22 0 0 1-4.001-1.565 5.4 5.4 0 0 1-1.8-3.628c0-1.027.3-1.605.48-1.585"/><path fill="#FFBE9D" d="M85.728 47.405c-.25-.12-10.152-3.47-10.262 6.738s10.192 8.214 10.212 7.915.05-14.653.05-14.653"/><path fill="#EB996E" d="M82.596 58.16c-.05 0-.18.12-.49.26a1.77 1.77 0 0 1-1.33 0c-1.08-.41-2-2.134-2-3.988a5.8 5.8 0 0 1 .53-2.542 2.05 2.05 0 0 1 1.35-1.355.9.9 0 0 1 1.05.498c.14.289.07.498.12.508s.22-.16.15-.588a1.1 1.1 0 0 0-.4-.638 1.33 1.33 0 0 0-1-.279 2.52 2.52 0 0 0-1.88 1.565 6 6 0 0 0-.65 2.841c0 2.053 1.07 3.987 2.55 4.436a1.92 1.92 0 0 0 1.63-.25c.34-.219.4-.448.37-.468"/><path fill="#27272E" d="M85.387 17.48a21.44 21.44 0 0 1 6.661-7.316 30.8 30.8 0 0 1 9.852-5.552 22.58 22.58 0 0 1 17.303.996 13.36 13.36 0 0 1 4.891 4.157c3.67 2.273 7.321 6.51 5.871 7.307l-2.001-2.143s-.88 1.824-4.59 4.625a2 2 0 0 1-.27.17 5 5 0 0 1-1.071.597l-.21.13c-4.37 1.455-7.211.867-11.562-.648-3-.997-5.751-2.751-8.671-3.987a10.65 10.65 0 0 0-7.002 2.601 6.6 6.6 0 0 0-.84.838 6.1 6.1 0 0 0-.73 5.093c.4 1.735 1.2 3.34 1.7 5.044.91 3.13.77 6.46.62 9.71-.21 4.585-.47 9.36-2.73 13.347-1 1.874-3.35 3.738-5.22 1.744a4.3 4.3 0 0 1-1.061-3.12c.13-3.11-2.61-4.546-4-6.798a12.26 12.26 0 0 1-1.54-6.3 40 40 0 0 1 4.6-20.495"/><path fill="#FF646E" d="M85.727 88.842s12.312 11.384 22.233 11.324 12.303-5.243 12.303-5.243l5.591 7.087s.52 46.242 1.14 47.039-5.831 4.835-5.831 4.835l-32.926-47.099z"/><path fill="#FAFAFC" d="M155.459 258.719s4.661-1.526 5.931-5.832-2.21-47.348-2.21-47.348l-2.621-2.592 2.001-1.605v-13.666l-4.661-28.788s-4.591-39.544-10.162-42.375l-8.641 39.155 6.351 91.826z"/><path fill="#FAFAFC" d="m120.263 94.923.65-3.988c1.5 1.167 5.481 7.377 5.481 7.377 5.471 4.605 16.883 16.248 18.953 20.803 3.001 6.47 3.251 36.165 3.251 36.165l-1.461 146.87-98.557.149 1.59-66.537 3.13-131.27 24.195-12.131 6.481-7.108 40.757 66.199-.29-44.578a19.47 19.47 0 0 0-4.18-11.951"/><path fill="#FAFAFC" d="M16.335 215.357a21.58 21.58 0 0 1-1.44-16.138c5.54-18.461 22.784-75.598 25.924-82.735 3.45-7.805 13.282-12.451 13.282-12.451l15.133 39.614-3.85 18.461-13.863 39.453 40.567 47.299-29.005 23.764s-43.718-51.535-46.668-57.127z"/><path fill="#27272E" d="M126.374 302.269a1.8 1.8 0 0 1 0-.398v-5.712c0-3.987.06-9.659.1-16.677.1-14.075.34-33.523.3-55.004 0-10.736-.12-20.933-.3-30.273-.1-4.655-.2-9.081-.3-13.218s-.36-7.974-.52-11.493c-.3-6.978-.55-12.699-.72-16.657-.07-1.944-.13-3.469-.17-4.535v-1.176a1.6 1.6 0 0 1 0-.399v.399c0 .269 0 .677.08 1.176.07 1.056.16 2.582.27 4.525.21 3.988.52 9.639.89 16.647.18 3.519.37 7.366.59 11.503s.22 8.563.34 13.218c.201 9.3.321 19.537.341 30.283 0 21.481-.26 40.929-.451 55.004-.11 6.978-.2 12.709-.27 16.677 0 1.944-.07 3.469-.09 4.525v1.187a2 2 0 0 1-.09.398"/><path fill="#27272E" d="M77.496 92.33q.195.201.34.44l.91 1.335c.8 1.206 1.93 2.91 3.35 5.034l11.533 17.604-.14-.11 8.641 2.153.31.08-.14.289c-1 1.884-2 3.858-3 5.861-.15.309-.31.618-.46.897v-.269l18.953 24.502c2.371 3.11 4.301 5.642 5.671 7.426l1.52 1.994.38.538c.09.12.13.189.12.199a.8.8 0 0 1-.16-.169l-.43-.498-1.59-1.994-5.801-7.337-19.073-24.412-.1-.129.08-.14c.14-.289.3-.598.46-.907l3-5.861.16.369-8.631-2.173h-.1l-.05-.08-11.382-17.703-3.23-5.114-.841-1.366a4 4 0 0 1-.3-.458"/><path fill="#27272E" d="M125.435 160.343a3 3 0 0 1 .22-.668c.15-.428.43-.996.71-1.864.59-1.624 1.35-3.987 2.17-6.977 1.631-5.981 3.491-14.434 5.121-23.924v.17l-.76-1.226-4.081-6.639-.32-.519.59.14 4.851 1.166-.29.309c-2.15-6.399-4.001-11.882-5.321-15.819l-1.48-4.565-.35-1.247a.219.219 0 0 1 .04-.435.22.22 0 0 1 .219.2.22.22 0 0 1-.179.236c.12.319.26.707.45 1.196.39 1.106.94 2.621 1.61 4.515 1.371 3.928 3.281 9.39 5.501 15.77l.15.408-.43-.099-4.851-1.137.27-.378c1.321 2.123 2.691 4.346 4.101 6.628l.76 1.227v.179a236 236 0 0 1-5.281 23.923c-.87 2.991-1.69 5.373-2.34 6.978-.3.817-.61 1.416-.79 1.834a6 6 0 0 1-.29.618m22.633-19.976c.14 0 .26 22.508.26 50.269 0 27.762-.12 50.279-.26 50.279s-.26-22.508-.26-50.279.11-50.269.26-50.269M38.669 243.547s.17.16.46.499l1.32 1.515a562 562 0 0 0 5 5.831c4.282 5.074 10.413 12.321 17.844 21.132h-.29l28.955-23.803v.368l-9.342-10.885-31.195-36.443-.08-.1v-.12c4.21-11.842 7.701-21.69 10.152-28.598l2.87-7.975.77-2.083c.18-.478.28-.718.28-.718s-.06.26-.22.738c-.16.479-.4 1.206-.7 2.113-.65 1.864-1.58 4.576-2.76 7.975L51.73 201.651v-.219l31.256 36.393 9.331 10.886.17.199-.2.169-29.005 23.734-.16.13-.13-.159-17.713-21.252-4.871-5.902-1.27-1.555c-.36-.339-.47-.528-.47-.528m8.572-134.071q.21-.036.42 0h1.22c1.496.059 2.983.256 4.441.588a26.45 26.45 0 0 1 12.854 6.985 26.3 26.3 0 0 1 7.15 12.732c.357 1.448.575 2.927.65 4.416v1.216q.036.21 0 .419a12 12 0 0 1-.18-1.615 30 30 0 0 0-.8-4.346 26.8 26.8 0 0 0-7.172-12.46 26.96 26.96 0 0 0-12.592-6.988 29 29 0 0 0-4.36-.748 12 12 0 0 1-1.63-.199"/><path fill="#27272E" d="M35.898 204.542a7.3 7.3 0 0 1 2-1.346 17.75 17.75 0 0 1 11.212-1.844c.8.08 1.578.3 2.3.648a22.4 22.4 0 0 0-15.512 2.552zm72.063-43.64a3.15 3.15 0 0 1 1.16 2.511c-.1 1.546 0 12.072 0 12.072s.39 1.545-1.16 1.545z"/><path fill="#27272E" d="M108.27 159.187h-3.24v5.283h3.24z"/><path fill="#27272E" d="M105.68 159.795h2v-1.994a1 1 0 0 0-2 0zm-25.093 4.356c0-.149 7.27-.259 16.232-.259s16.243.11 16.243.259-7.271.259-16.243.259-16.233-.119-16.233-.259"/><path fill="#27272E" d="m122.664 156.765-1.5-1.416-27.325-26.036 2.99-8.533h-4.74l-9.502-20.614 10.842 16.706 8.642 2.163-3.481 6.759m1.29 66.058a15.53 15.53 0 0 0 7.641-2.332 13.14 13.14 0 0 0 4.33-6.4 34 34 0 0 1-1.27 6.828 9.87 9.87 0 0 1-3.83 5.104c-2.121 1.316-4.771 1.455-7.262 1.256a30.5 30.5 0 0 1-9.701-2.422c-2.19-.947-4.481-2.442-4.931-4.775a30.3 30.3 0 0 0 15.022 2.741" opacity=".2"/></g><mask id="medic-happy-secondary_svg__b" width="94" height="99" x="58" y="0" maskUnits="userSpaceOnUse" style="mask-type:alpha"><path fill="#fff" d="M58.332.612h92.677v97.763H58.332z"/></mask><g mask="url(#medic-happy-secondary_svg__b)"><path fill="#27272E" d="M147.537 35.214c-2.46-2.732-5.461-5.323-6.271-8.902-.74-3.29.49-6.978-1.19-9.968-2.08-3.599-7.411-3.987-9.922-7.317-1.22-1.605-1.61-3.708-2.81-5.323-2.001-2.75-5.941-3.429-9.362-2.99s-6.681 1.675-10.112 1.994c-4.701.388-9.571-1.067-14.072.338-5.001 1.546-7.952 5.981-11.142 10.288l-4.161 4.984a19 19 0 0 1-2.78 2.322c-1.76 1.166-3.791 1.994-5.302 3.47a8.3 8.3 0 0 0-2.207 6.131 8.27 8.27 0 0 0 2.918 5.83 8.9 8.9 0 0 0-4.397 3.428 8.85 8.85 0 0 0-1.484 5.364 25.7 25.7 0 0 0 1.69 5.98c.65 1.994 1.06 4.187.25 6.111s-3.24 3.27-5.07 2.263a9.36 9.36 0 0 0 1.897 3.663 9.4 9.4 0 0 0 3.293 2.497 5.63 5.63 0 0 1-3.75 1.715c3.94 8.881 14.392 13.427 24.134 13.337 9.741-.09 19.003-3.908 28.005-7.656l26.124-7.177c2.301-.558 3.211-3.359 3.141-5.711s-.7-4.795.11-6.978c1.12-2.99 4.611-4.685 5.771-7.695 1.31-3.5-.84-7.267-3.301-9.998"/><path fill="#FFBE9D" d="m109.871 7.243-1.44-.06c-15.613.24-24.124 13.587-23.454 29.127l-.58 53.529a18.17 18.17 0 0 0 4.877 12.589 18.28 18.28 0 0 0 12.236 5.782 18.3 18.3 0 0 0 13.339-4.601 18.2 18.2 0 0 0 4.313-5.744 18.2 18.2 0 0 0 1.751-6.96c.14-2.81.24-4.784.25-4.784s15.063-1.675 15.893-16.577c.4-7.197 0-22.09-.5-35.566a27.76 27.76 0 0 0-8.099-18.566 27.94 27.94 0 0 0-18.586-8.169"/><path fill="#EB996E" d="M121.163 86.12a36.26 36.26 0 0 1-19.233-6.568s4 11.084 19.003 10.376z"/><path fill="#27272E" d="M130.285 45.9a2.13 2.13 0 0 1-.655 1.466c-.402.386-.938.6-1.496.597a2.01 2.01 0 0 1-1.957-1.202 2 2 0 0 1-.163-.792 2.13 2.13 0 0 1 .655-1.467c.401-.385.938-.6 1.495-.596a2 2 0 0 1 1.493.54 2 2 0 0 1 .628 1.453m2.81-5.871c-.28.27-1.84-.997-4.141-1.086-2.3-.09-4 .996-4.27.687-.121-.13.17-.618.93-1.116a5.85 5.85 0 0 1 3.43-.897 5.64 5.64 0 0 1 3.281 1.216c.69.568.9 1.037.77 1.196M108.471 45.9a2.14 2.14 0 0 1-.661 1.467 2.15 2.15 0 0 1-1.5.596 2.07 2.07 0 0 1-1.474-.56 2.04 2.04 0 0 1-.646-1.434 2.14 2.14 0 0 1 .664-1.461c.403-.383.94-.595 1.496-.592a2.01 2.01 0 0 1 1.955 1.195 2 2 0 0 1 .166.788m2.06-5.901c-.28.26-1.85-.997-4.14-1.096-2.291-.1-4.001.997-4.271.697-.12-.13.17-.627.93-1.126a5.96 5.96 0 0 1 3.431-.897 5.7 5.7 0 0 1 3.29 1.216c.68.568.901 1.077.76 1.206m7.491 17.952a15.6 15.6 0 0 1 3.761-.508c.59 0 1.15-.13 1.27-.518a3 3 0 0 0-.32-1.754l-1.54-4.536c-2.14-6.44-3.661-11.732-3.401-11.812s2.211 5.074 4.341 11.513q.78 2.393 1.47 4.556c.345.72.419 1.541.21 2.312a1.5 1.5 0 0 1-1 .818 4.2 4.2 0 0 1-1 .09c-2.34.03-3.791-.02-3.791-.16m-6.83 1.296c.37 0 .27 2.482 2.331 4.346s4.72 1.694 4.73 1.993c0 .16-.61.459-1.74.439a6.22 6.22 0 0 1-4.001-1.565 5.4 5.4 0 0 1-1.8-3.628c0-1.027.3-1.605.48-1.585m-.401-28.559c-.26.618-2.541.22-5.251.429s-4.931.847-5.261.279c-.15-.28.26-.848 1.16-1.416a8.86 8.86 0 0 1 3.941-1.186 8.6 8.6 0 0 1 4.06.658c1.001.449 1.481.947 1.351 1.236m21.684 1.685c-.43.498-2-.11-3.89-.21s-3.541.2-3.881-.359c-.15-.279.12-.787.85-1.246a5.3 5.3 0 0 1 3.201-.717 5.43 5.43 0 0 1 3.06 1.176c.65.568.85 1.106.66 1.356"/><path fill="#FFBE9D" d="M85.727 47.405c-.25-.12-10.151-3.47-10.261 6.738s10.191 8.214 10.211 7.915.05-14.653.05-14.653"/><path fill="#EB996E" d="M82.596 58.16c-.05 0-.18.12-.49.26a1.77 1.77 0 0 1-1.33 0c-1.08-.41-2-2.134-2-3.988a5.8 5.8 0 0 1 .53-2.542 2.05 2.05 0 0 1 1.35-1.355.9.9 0 0 1 1.05.498c.14.289.07.498.12.508s.22-.16.15-.588a1.1 1.1 0 0 0-.4-.638 1.33 1.33 0 0 0-1-.279 2.52 2.52 0 0 0-1.88 1.565 6 6 0 0 0-.65 2.841c0 2.053 1.07 3.987 2.55 4.436a1.92 1.92 0 0 0 1.63-.25c.34-.219.4-.448.37-.468"/><path fill="#27272E" d="M85.388 17.48a21.44 21.44 0 0 1 6.66-7.316 30.8 30.8 0 0 1 9.852-5.552 22.6 22.6 0 0 1 17.304.996 13.35 13.35 0 0 1 4.89 4.157c3.671 2.273 7.322 6.51 5.871 7.307l-2-2.143s-.88 1.824-4.591 4.625a2 2 0 0 1-.27.17 5 5 0 0 1-1.07.597l-.21.13c-4.371 1.455-7.211.867-11.562-.648-3.001-.997-5.751-2.751-8.672-3.987a10.65 10.65 0 0 0-7 2.601 6.5 6.5 0 0 0-.84.838 6.1 6.1 0 0 0-.731 5.093c.4 1.735 1.2 3.34 1.7 5.044.91 3.13.77 6.46.62 9.71-.21 4.585-.47 9.36-2.73 13.347-1 1.874-3.35 3.738-5.221 1.744a4.3 4.3 0 0 1-1.06-3.12c.13-3.11-2.61-4.546-4-6.798a12.26 12.26 0 0 1-1.541-6.3 40 40 0 0 1 4.6-20.495"/><path fill="#FF646E" d="M85.727 88.842s12.312 11.384 22.233 11.324 12.303-5.243 12.303-5.243l5.591 7.087s.52 46.242 1.14 47.039-5.831 4.835-5.831 4.835l-32.926-47.099z"/><path fill="#FAFAFC" d="m120.262 94.923.651-3.988c1.5 1.167 5.481 7.377 5.481 7.377 5.471 4.605 16.883 16.248 18.953 20.803 3 6.47 3.25 36.165 3.25 36.165l-1.46 146.87-98.557.149 1.59-66.537 3.13-131.27 24.195-12.131 6.481-7.108 40.757 66.199-.29-44.578a19.47 19.47 0 0 0-4.181-11.951"/><path fill="#27272E" d="M77.496 92.33q.195.201.34.44l.91 1.335c.8 1.206 1.93 2.91 3.35 5.034l11.533 17.604-.14-.11 8.641 2.153.31.08-.14.289c-1 1.884-2 3.858-3 5.861-.15.309-.31.618-.46.897v-.269l18.953 24.502c2.37 3.11 4.301 5.642 5.671 7.426l1.52 1.994.38.538c.09.12.13.189.12.199a.8.8 0 0 1-.16-.169l-.43-.498-1.59-1.994-5.801-7.337-19.073-24.412-.1-.129.08-.14c.14-.289.3-.598.46-.907l3-5.861.16.369-8.631-2.173h-.1l-.05-.08-11.382-17.703-3.23-5.114-.841-1.366a4 4 0 0 1-.3-.458"/><path fill="#FF646E" d="M125.435 160.343a3 3 0 0 1 .22-.668c.15-.428.43-.996.71-1.864.59-1.624 1.35-3.987 2.17-6.977 1.63-5.981 3.491-14.434 5.121-23.924v.17l-.76-1.226-4.081-6.639-.32-.519.59.14 4.851 1.166-.29.309c-2.15-6.399-4.001-11.882-5.321-15.819l-1.48-4.565-.35-1.247a.219.219 0 0 1 .04-.435.22.22 0 0 1 .219.2.22.22 0 0 1-.179.236c.12.319.26.707.45 1.196.39 1.106.94 2.621 1.61 4.515 1.37 3.928 3.281 9.39 5.501 15.77l.15.408-.43-.099-4.851-1.137.27-.378c1.32 2.123 2.691 4.346 4.101 6.628l.76 1.227v.179a236 236 0 0 1-5.281 23.923c-.87 2.991-1.69 5.373-2.34 6.978-.3.817-.61 1.416-.79 1.834a6 6 0 0 1-.29.618"/></g></svg>