<svg xmlns="http://www.w3.org/2000/svg" width="211" height="240" fill="none" viewBox="0 0 211 240"><g clip-path="url(#medic-explaining_svg__a)"><circle cx="110.627" cy="140" r="100" fill="#E6E6F0"/><mask id="medic-explaining_svg__b" width="201" height="200" x="10" y="40" maskUnits="userSpaceOnUse" style="mask-type:alpha"><circle cx="110.627" cy="140" r="100" fill="#fff"/></mask><g mask="url(#medic-explaining_svg__b)"><path fill="#FFBE9D" d="M104.081 33.448a27.76 27.76 0 0 1 9.071-18.01 27.6 27.6 0 0 1 18.841-7.078h1.432c15.411 1.122 23.074 14.884 21.519 30.31l-2.978 51.508-.171 2.501-35.717 6.657.238-13.134s-14.805-2.53-14.767-17.404c.029-7.18 1.262-21.969 2.532-35.35"/><path fill="#EB996E" d="M116.211 86.193a35.96 35.96 0 0 0 19.518-5.421s-4.742 10.633-19.508 9.082z"/><path fill="#27272E" d="M109.914 47.22c-.013.553.19 1.09.565 1.497s.894.65 1.446.68a2.03 2.03 0 0 0 2.007-1.12 2.1 2.1 0 0 0 .212-.782 2.14 2.14 0 0 0-2.011-2.178 2.03 2.03 0 0 0-2.007 1.12 2.1 2.1 0 0 0-.212.782m-2.74-6.448c.256.285 1.896-.884 4.153-.846 2.258.038 3.936 1.208 4.183.95.123-.123-.133-.627-.854-1.169a5.75 5.75 0 0 0-3.347-1.084 5.54 5.54 0 0 0-3.31 1.017c-.664.514-.958 1.009-.825 1.132m23.946 6.999a2.13 2.13 0 0 0 .562 1.501c.376.407.896.65 1.449.678a2.03 2.03 0 0 0 2.001-1.121c.121-.244.192-.51.209-.781a2.124 2.124 0 0 0-2.011-2.178 2.03 2.03 0 0 0-2.001 1.12c-.121.244-.192.51-.209.782m-1.546-6.248c.256.285 1.897-.885 4.154-.847s3.936 1.208 4.192.951c.123-.123-.142-.628-.863-1.17a5.9 5.9 0 0 0-3.348-1.084 5.6 5.6 0 0 0-3.31 1.018c-.711.513-.957 1.008-.825 1.132m-8.526 16.804a15.6 15.6 0 0 0-3.689-.722c-.579-.067-1.129-.19-1.223-.59a2.94 2.94 0 0 1 .417-1.721c.569-1.408 1.157-2.853 1.783-4.423 2.485-6.296 4.287-11.47 4.03-11.574s-2.465 4.927-4.95 11.222a1081 1081 0 0 1-1.717 4.442 3.4 3.4 0 0 0-.332 2.292 1.45 1.45 0 0 0 .949.866c.308.092.627.143.948.151 2.343.19 3.775.22 3.784.057m6.686 1.713c-.37 0-.408 2.453-2.551 4.184-2.143 1.73-4.742 1.417-4.799 1.769 0 .152.579.485 1.698.532a6.15 6.15 0 0 0 4.002-1.331 5.4 5.4 0 0 0 1.982-3.51c.133-1.036-.161-1.654-.332-1.645"/><path fill="#E6E6F0" d="M105.608 26.648s4.05-9.263 8.536-11.365c5.463-2.558 7.71 3.453 12.898 2.074s10.432-3.804 15.62.266c5.69 4.46 2.969 7.504 3.225 14.104 1.062 26.781 5.823 34.418 7.397 21.874.171-1.38 4.012-2.416 4.657-8.246.844-7.551 1.271-16.738-.332-22.13-1.356-4.546-3.889-7.713-8.45-11.223-7.199-5.544-17.204-5.81-24.014-5.22s-19.982 8.197-19.537 19.866"/><path fill="#FFBE9D" d="M152.373 53.144a4.024 4.024 0 0 1 4.401-3.804c2.769.304 5.823 1.902 5.558 7.656-.475 10.157-10.556 7.608-10.556 7.294 0-.313.36-6.914.597-11.146"/><path fill="#EB996E" d="M154.157 60.553s.17.133.464.285c.413.195.884.226 1.319.086 1.09-.343 2.067-2.007 2.2-3.804a5.9 5.9 0 0 0-.37-2.559 2.04 2.04 0 0 0-1.271-1.426.944.944 0 0 0-1.062.437c-.152.276-.095.485-.152.504s-.208-.18-.104-.599c.066-.25.217-.468.427-.618.277-.19.616-.269.948-.219a2.51 2.51 0 0 1 1.774 1.664 6.1 6.1 0 0 1 .483 2.854c-.161 2.044-1.299 3.918-2.778 4.27a1.9 1.9 0 0 1-1.603-.343c-.266-.285-.313-.513-.275-.532m-22.951 1.017c-.171 0-.219-1.074-1.063-1.968s-1.896-1.075-1.896-1.236.284-.153.749-.067a2.84 2.84 0 0 1 1.546.903 3 3 0 0 1 .768 1.627c.066.466-.038.751-.104.742m.938-2.797c-.142.086-.502-.275-1.043-.523-.54-.247-1.034-.323-1.053-.494s.598-.38 1.309 0 .93.95.787 1.017m11.77 23.966s.142-.066.266-.256a.88.88 0 0 0 0-.951c-.152-.38-.607-.733-.949-1.389a1.32 1.32 0 0 1 0-1.189q.299-.453.664-.855c.787-1.009-1.498-1.722-1.195-3.015a1.55 1.55 0 0 1 .56-1.084c.227-.172.388-.19.407-.162-.322.347-.52.792-.559 1.265 0 .428.246.79.74 1.208.281.231.51.52.673.846a1.26 1.26 0 0 1-.152 1.274c-.246.343-.512.561-.645.8a.79.79 0 0 0 0 .713c.19.494.636.95.806 1.436a1.08 1.08 0 0 1-.256 1.208c-.18.256-.369.18-.36.152m3.139-.438s0-.152-.123-.37a3.7 3.7 0 0 0-.559-.857 4.3 4.3 0 0 1-.427-.656c-.15-.293-.2-.627-.142-.951.18-.732.787-1.18 1.071-1.702.285-.523 0-.951-.389-1.408a3.3 3.3 0 0 1-.54-.751 1.9 1.9 0 0 1-.152-.828c.104-1.065.816-1.37.816-1.293a2.66 2.66 0 0 0-.399 1.293 1.72 1.72 0 0 0 .664 1.208c.263.237.476.525.626.847a1.4 1.4 0 0 1-.114 1.217c-.407.666-.948 1.075-1.052 1.55s.161.951.379 1.284c.219.313.368.67.436 1.046.019.238-.066.38-.095.371"/><path fill="#FFBE9D" d="M39.44 127.325s2.266 9.187 3.793 11.708a12.3 12.3 0 0 1 1.716 4.622l.949 14.712-12.007 11.888L10.6 152.832s-8.346-8.179-6.09-11.279c0 0 1.11-1.512 3.055 0 0 0-8.707-6.762-6.696-9.415 2.01-2.654 5.017 1.188 8.166 3.87s4.182 3.434 4.182 3.434l-9.057-8.778s-2.551-2.264-.285-4.099 5.615 2.767 7.199 3.728c1.584.96 10.499 9.51 10.499 9.51s-6.175-7.884-6.64-8.312-6.031-4.632-3.945-7.057c2.087-2.425 7.417 3.472 9.18 4.813 1.765 1.34 8.394 9.291 9.874 10.1s4.153 3.128 5.804 2.387c1.65-.742-1.726-6.895-1.195-9.111s1.46-6.439 4.79-5.298"/><path fill="#EB996E" d="M33.74 155.752a12.6 12.6 0 0 1-.845-2.168 9.3 9.3 0 0 1 .645-5.469c.797-2.073 1.897-3.804 2.494-5.164.26-.548.401-1.144.418-1.75 0-.428-.105-.656-.133-.647a6.4 6.4 0 0 1-.683 2.216 42 42 0 0 0-2.674 5.117 8.83 8.83 0 0 0-.494 5.801 3.5 3.5 0 0 0 1.271 2.064m-16.217-4.784c.066 0-.294-.856-1.432-1.617-1.139-.76-2.902-1.35-4.183-2.729a14 14 0 0 1-1.489-2.311 9 9 0 0 0-1.375-1.902c-.948-.951-1.897-1.065-1.897-.951a7 7 0 0 1 1.556 1.246c.47.586.87 1.224 1.195 1.902.413.871.925 1.691 1.527 2.444a7.3 7.3 0 0 0 2.399 1.626c.778.39 1.48.704 2.039 1.018q.876.576 1.66 1.274"/><path fill="#1900AF" d="m116.24 91.528 5.377 3.395 30.965-13.343 1.404 6.867-28.016 58.261-1.669 111.1-30.32-2.492 18.74-150.045z"/><path fill="#27272E" d="M145.213 94.467a6 6 0 0 1-1.081.666l-3.025 1.693a664 664 0 0 0-9.92 5.639l-4.866 2.853-.208.114-.105-.199c-1.517-2.73-2.399-5.221-3.177-6.905-.379-.856-.683-1.522-.948-1.978a2.8 2.8 0 0 1-.304-.723q.26.298.446.647a36 36 0 0 1 1.024 1.902c.854 1.664 1.802 4.137 3.32 6.79l-.323-.076c1.489-.903 3.13-1.902 4.856-2.853 3.86-2.235 7.407-4.175 10.006-5.525a100 100 0 0 1 3.101-1.55 6.3 6.3 0 0 1 1.204-.495"/><path fill="#FAFAFC" d="m109.905 99.917-15.848 6.077a13.06 13.06 0 0 0-5.216 3.661c-3.452 3.975-9.57 12.563-13.278 26.629-4.96 19.021-10.252 33.401-10.252 33.401L47.7 156.56l-24.554 24.309s41.33 36.082 54.456 35.921l-8.895 70.653h25.35l20.969-187.526 1.195-8.389c-.417.171-5.093 6.743-6.316 8.388"/><path fill="#27272E" d="M86.47 123.54a.8.8 0 0 1 0 .257c0 .2 0 .447-.066.761-.076.704-.19 1.674-.323 2.91-.294 2.558-.702 6.201-1.214 10.68-1.024 9.026-2.333 21.503-3.632 35.303-1.3 13.799-2.37 26.296-3.149 35.35a2073 2073 0 0 1-.948 10.709c-.114 1.236-.209 2.206-.275 2.91 0 .314-.057.561-.085.761q.015.128 0 .257a1.2 1.2 0 0 1 0-.267v-.751c0-.713.104-1.683.18-2.92.19-2.577.455-6.229.778-10.728.692-9.063 1.707-21.569 3.006-35.369 1.3-13.799 2.665-26.277 3.793-35.293.55-4.508 1.025-8.15 1.376-10.67.17-1.227.313-2.197.417-2.854l.114-.751a1 1 0 0 1 .028-.295m75.805 70.9a34 34 0 0 0-5.188-3.49 34 34 0 0 0-5.918-2.007 5.3 5.3 0 0 1 1.897.133 16.6 16.6 0 0 1 8.004 3.966c.483.389.891.863 1.205 1.398"/><path fill="#FAFAFC" d="M184.704 111.976s-6.297-4.927-12.642-10.053-16.9-12.744-16.9-12.744l-1.897-6.4s-5.586 5.896-10.432 16.567c-7.037 15.331-15.174 37.699-16.806 47.362l-9.787 140.639h72.571l-16.881-99.973z"/><path fill="#27272E" d="M125.525 155.723q.144-.358.332-.694l1.043-1.902 3.888-7.047a18456 18456 0 0 0 13.012-23.158l.693-1.217v.19a853 853 0 0 0-1.594-5.44l-.047-.162.142-.104 3.889-2.749-.086.114c2.4-7.066 4.467-13.153 5.956-17.518.74-2.111 1.328-3.804 1.755-5.04.199-.552.36-.951.493-1.332q.076-.236.19-.456a2.7 2.7 0 0 1-.114.475c-.114.352-.247.809-.418 1.37a1234 1234 0 0 0-1.631 5.078l-5.785 17.576v.066l-.057.048-3.888 2.767.095-.266c.521 1.759 1.062 3.576 1.602 5.43v.105l-.057.086-.692 1.217c-5.112 8.997-9.749 17.119-13.135 23.091l-4.031 6.971-1.119 1.902a4.6 4.6 0 0 1-.436.599m-17.1 3.415a2.7 2.7 0 0 1-.142-.628c-.086-.476-.19-1.084-.323-1.845-.265-1.655-.635-3.956-1.081-6.771-.882-5.773-2.077-13.657-3.405-22.369q-.198-1.36-.398-2.682v-.152l3.301-5.992.132.333-3.291-1.084-.218-.076.076-.219 4.837-12.791a737 737 0 0 1 1.413-3.633c.152-.39.285-.704.389-.951q.062-.171.161-.324-.023.183-.095.352l-.322.951c-.323.904-.749 2.14-1.29 3.681l-4.628 12.848-.142-.294 3.291 1.065.275.085-.133.257-3.291 6.001v-.152c.133.884.265 1.778.408 2.682 1.261 8.711 2.409 16.605 3.253 22.387.388 2.854.701 5.136.948 6.791.095.77.171 1.379.228 1.902q.056.311.047.628m6.553-58.632a20 20 0 0 1 1.698 3.329h-.398c.417-.809.948-1.693 1.545-2.616 1.006-1.569 1.964-2.948 2.646-3.956.332-.573.716-1.115 1.148-1.617a6.1 6.1 0 0 1-.854 1.798c-.607 1.065-1.517 2.482-2.522 4.042-.598.951-1.138 1.788-1.575 2.558l-.227.399-.171-.418a21 21 0 0 1-1.29-3.519m-8.364 155.847a2 2 0 0 1 0-.419c0-.294.057-.694.095-1.217.085-1.094.218-2.663.388-4.669.361-4.08.882-9.948 1.527-17.176 1.338-14.523 3.187-34.542 5.236-56.654 2.048-22.111 3.992-42.14 5.377-56.653.702-7.228 1.28-13.086 1.679-17.166l.483-4.66c.057-.514.105-.952.142-1.208q.01-.213.067-.419v.419c0 .275 0 .703-.085 1.217-.095 1.094-.228 2.663-.399 4.67-.36 4.08-.882 9.947-1.527 17.175-1.337 14.523-3.186 34.552-5.225 56.673s-4.003 42.121-5.378 56.634c-.711 7.228-1.29 13.087-1.688 17.167-.209 2.006-.37 3.575-.484 4.66a41 41 0 0 1-.142 1.217 2 2 0 0 1-.066.409"/><path fill="#27272E" d="m154.479 91.224-6.895 24.917-2.883 1.103 1.982 6.239-19.764 29.768 17.782-31.451-1.593-5.44 3.879-2.758zm-32.056 5.916 1.812 12.972 17.602-13.686-15.629 8.693zM76.768 223.437l-.75 5.897s3.557 4.584 7.019 3.623c3.461-.96 17.943-7.304 17.943-7.304l-.218-2.216s-8.45-3.48-8.934-3.357c-.484.124-15.06 3.357-15.06 3.357m27.892 13.134.436 5.431s26.223-3.015 37.519-7.323c0 0 22.05-8.198 28.309-15.93a232 232 0 0 1-30.671 9.929z" opacity=".2"/><path fill="#555567" d="m125.269 198.996-32.872-43.558a2.695 2.695 0 0 0-3.016-.951l-50.33 17.242a2.7 2.7 0 0 0-1.723 1.823 2.71 2.71 0 0 0 .518 2.457l40.932 49.397a2.68 2.68 0 0 0 2.988.809l47.05-17.186a2.7 2.7 0 0 0 1.678-1.815 2.71 2.71 0 0 0-.493-2.426z"/><path fill="#27272E" d="M58.54 170.274a1.41 1.41 0 0 0 .905 1.269 1.402 1.402 0 0 0 1.88-1.077 1.41 1.41 0 0 0-1.41-1.647 1.4 1.4 0 0 0-.991.439 1.4 1.4 0 0 0-.384 1.016m10.167-3.452a1.4 1.4 0 0 0 1.717 1.302 1.396 1.396 0 0 0 .944-1.94 1.395 1.395 0 0 0-2.29-.371 1.4 1.4 0 0 0-.371 1.009"/><path fill="#FFBE9D" d="m97.85 206.69-2.636-.599s-1.08-4.385-2.276-5.269-12.974-5.783-15.573-7.085c-2.598-1.303-12.717-5.507-13.884-3.044-1.318 2.787 2.845 4.898 5.055 5.868s8.602 3.186 7.379 4.755c-1.224 1.57-15.839 1.465-15.839 1.465l-1.678-1.959s-2.59 2.596-2.153 5.135a11.2 11.2 0 0 0 1.536 4.137h1.044a2.93 2.93 0 0 0 0 3.025 28 28 0 0 0 2.902 3.385s1.764 3.415 6.771 4.603c.588.134 23.824 1.341 23.824 1.341l8.44 1.903z"/><path fill="#FAFAFC" d="M158.946 123.693c-.266.57-7.17 64.889-7.17 64.889l-54.134 16.453 5.169 31.888s73.121-13.134 80.67-26.886c6.42-11.697 7.957-61.437 8.27-76.083a38.5 38.5 0 0 0-1.205-10.575c-1.071-4.128-2.911-9.102-5.842-11.413-5.491-4.318-25.758 11.727-25.758 11.727"/><path fill="#27272E" d="M157.428 137.121s0 .323-.076.951-.151 1.56-.265 2.749c-.256 2.425-.626 5.953-1.091 10.461-.948 9.006-2.352 21.874-4.012 37.347v.143h-.132l-54.115 16.491.17-.276c0 .21.067.438.105.657 1.773 10.937 3.48 21.493 5.045 31.232l-.275-.2c22.022-4.194 40.781-8.769 53.916-12.877 1.641-.485 3.168-1.046 4.628-1.522l2.115-.713 1.963-.732c1.252-.485 2.428-.904 3.49-1.332l2.845-1.255a19 19 0 0 0 2.239-1.056l1.602-.846.949-.514.332-.161q-.15.11-.313.199l-.949.542-1.583.885q-1.08.62-2.229 1.093l-2.845 1.294c-1.062.447-2.239.875-3.49 1.369l-1.954.752-2.115.723c-1.451.485-2.978 1.065-4.628 1.55-13.078 4.203-31.885 8.844-53.916 13.067l-.237.048v-.238c-1.575-9.739-3.291-20.286-5.065-31.223 0-.228-.076-.456-.104-.656v-.219l.209-.057 54.134-16.424-.142.171c1.735-15.464 3.177-28.322 4.182-37.328.522-4.48.948-8.008 1.204-10.462.143-1.189.256-2.102.332-2.748s.076-.885.076-.885m23.824-26.553c0 .105-1.527 0-3.945.295a25 25 0 0 0-4.173.951 27 27 0 0 0-4.742 2.13 26.7 26.7 0 0 0-4.211 3.101 23.5 23.5 0 0 0-2.845 3.157c-1.48 1.902-2.134 3.338-2.22 3.291q.149-.502.418-.951.268-.577.607-1.113.431-.728.948-1.398a22 22 0 0 1 2.845-3.281 26 26 0 0 1 4.278-3.196 25.3 25.3 0 0 1 4.884-2.13 21.3 21.3 0 0 1 4.258-.865 14 14 0 0 1 1.669-.105q.63-.039 1.262 0 .49-.001.967.114"/></g><path fill="#FFBE9D" d="M39.5 127.517s2.266 9.187 3.793 11.708a12.3 12.3 0 0 1 1.717 4.622l.948 14.712-12.007 11.888-23.292-17.423s-8.346-8.179-6.089-11.279c0 0 1.11-1.512 3.054 0 0 0-8.706-6.762-6.696-9.415 2.011-2.654 5.017 1.188 8.166 3.87s4.182 3.434 4.182 3.434l-9.057-8.779s-2.55-2.263-.284-4.099c2.266-1.835 5.614 2.768 7.198 3.729 1.584.96 10.499 9.51 10.499 9.51s-6.174-7.884-6.639-8.312-6.032-4.632-3.945-7.057c2.086-2.425 7.416 3.471 9.18 4.812s8.393 9.292 9.873 10.1c1.48.809 4.154 3.129 5.804 2.388s-1.726-6.896-1.195-9.111 1.46-6.439 4.79-5.298"/><path fill="#EB996E" d="M33.8 155.944a12.5 12.5 0 0 1-.845-2.169 9.3 9.3 0 0 1 .645-5.468c.797-2.073 1.897-3.804 2.495-5.164.258-.548.4-1.144.417-1.75 0-.428-.104-.656-.133-.647a6.4 6.4 0 0 1-.683 2.216 42 42 0 0 0-2.674 5.117 8.83 8.83 0 0 0-.493 5.801c.164.818.614 1.55 1.27 2.064m-16.217-4.784c.066 0-.294-.856-1.432-1.617s-2.902-1.35-4.182-2.729a14 14 0 0 1-1.49-2.311 9 9 0 0 0-1.375-1.902c-.948-.951-1.896-1.065-1.896-.951a7 7 0 0 1 1.555 1.246c.47.585.87 1.224 1.195 1.902.413.871.926 1.691 1.527 2.444a7.3 7.3 0 0 0 2.4 1.626c.777.39 1.479.704 2.038 1.018q.877.576 1.66 1.274"/><mask id="medic-explaining_svg__c" width="86" height="97" x="94" y="0" maskUnits="userSpaceOnUse" style="mask-type:alpha"><path fill="#C4C4C4" d="M94.12 0h85.574v96.014H94.12z"/></mask><g mask="url(#medic-explaining_svg__c)"><path fill="#9292A9" d="M139.02 5.421a6.64 6.64 0 0 0-2.881-2.862 6.62 6.62 0 0 0-4.004-.647 9.096 9.096 0 0 0-11.229.057 8.085 8.085 0 0 0-11.051 2.52 8.13 8.13 0 0 0-1.278 3.947 6.75 6.75 0 0 0-4.169.556 6.78 6.78 0 0 0-3.038 2.917 6.81 6.81 0 0 0 1.118 7.94 6.52 6.52 0 0 0-3.675 2.905 6.55 6.55 0 0 0 1.726 8.587 6.5 6.5 0 0 0 4.51 1.251l32.634-19.553a6.67 6.67 0 0 0 1.337-7.618"/><path fill="#FFBE9D" d="M104.081 33.448a27.76 27.76 0 0 1 9.071-18.01 27.6 27.6 0 0 1 18.84-7.078h1.432c15.412 1.122 23.075 14.884 21.519 30.31l-2.978 51.508-.17 2.501-35.717 6.657.237-13.134s-14.804-2.53-14.766-17.404c.028-7.18 1.261-21.969 2.532-35.35"/><path fill="#EB996E" d="M116.211 86.193a35.96 35.96 0 0 0 19.518-5.421s-4.742 10.633-19.508 9.082z"/><path fill="#27272E" d="M109.914 47.22a2.13 2.13 0 0 0 2.011 2.177 2.03 2.03 0 0 0 2.007-1.12 2.1 2.1 0 0 0 .212-.782 2.15 2.15 0 0 0-.568-1.495 2.13 2.13 0 0 0-1.443-.683 2.03 2.03 0 0 0-2.007 1.12 2.1 2.1 0 0 0-.212.782m-2.741-6.448c.256.285 1.897-.884 4.154-.846s3.936 1.208 4.183.95c.123-.123-.133-.627-.854-1.169a5.75 5.75 0 0 0-3.348-1.084 5.55 5.55 0 0 0-3.31 1.017c-.663.514-.957 1.009-.825 1.132m23.947 6.999a2.12 2.12 0 0 0 2.01 2.179 2.02 2.02 0 0 0 1.506-.483 2.04 2.04 0 0 0 .704-1.42 2.13 2.13 0 0 0-2.01-2.177 2.025 2.025 0 0 0-2.002 1.12c-.121.244-.191.51-.208.782m-1.546-6.248c.256.285 1.897-.885 4.154-.847s3.936 1.208 4.192.951c.123-.123-.142-.628-.863-1.17a5.9 5.9 0 0 0-3.348-1.084 5.6 5.6 0 0 0-3.31 1.018c-.711.513-.958 1.008-.825 1.132m-8.526 16.804a15.6 15.6 0 0 0-3.689-.722c-.579-.067-1.129-.19-1.224-.59a2.94 2.94 0 0 1 .418-1.721c.569-1.408 1.157-2.853 1.783-4.423 2.484-6.296 4.286-11.47 4.03-11.574s-2.466 4.927-4.95 11.222a1247 1247 0 0 1-1.717 4.442 3.4 3.4 0 0 0-.332 2.292 1.44 1.44 0 0 0 .948.865q.464.14.949.152c2.342.19 3.774.22 3.784.057m6.686 1.713c-.37 0-.408 2.453-2.551 4.184-2.144 1.73-4.742 1.417-4.799 1.769 0 .152.578.485 1.697.532a6.16 6.16 0 0 0 4.003-1.331 5.4 5.4 0 0 0 1.982-3.51c.133-1.036-.161-1.654-.332-1.645"/><path fill="#9292A9" d="M129.147 32.564c.218.618 2.494.361 5.169.722 2.674.362 4.818 1.123 5.188.571.161-.266-.209-.856-1.072-1.464a9.06 9.06 0 0 0-7.891-.951c-1.024.342-1.527.817-1.394 1.122m-21.044 1.607c.398.523 1.972 0 3.859 0s3.481.4 3.86-.133c.162-.266-.075-.79-.768-1.294a5.4 5.4 0 0 0-3.129-.893 5.28 5.28 0 0 0-3.092.998c-.674.533-.901 1.065-.73 1.322"/><path fill="#9292A9" d="M105.608 26.648s4.05-9.263 8.536-11.365c5.462-2.558 7.71 3.453 12.898 2.074s10.432-3.804 15.62.266c5.69 4.46 2.968 7.504 3.224 14.104 1.063 26.781 5.823 34.418 7.398 21.874.171-1.38 4.012-2.416 4.656-8.246.844-7.551 1.271-16.738-.332-22.13-1.356-4.546-3.888-7.713-8.45-11.223-7.198-5.544-17.203-5.81-24.013-5.22-6.809.589-19.983 8.197-19.537 19.866"/><path fill="#FFBE9D" d="M152.373 53.144a4.04 4.04 0 0 1 2.798-3.633 4 4 0 0 1 1.603-.17c2.769.303 5.823 1.901 5.557 7.655-.474 10.157-10.555 7.608-10.555 7.294 0-.313.36-6.914.597-11.146"/><path fill="#EB996E" d="M154.156 60.553s.171.133.465.285c.413.195.884.226 1.318.086 1.091-.343 2.068-2.007 2.201-3.804a5.9 5.9 0 0 0-.37-2.559 2.06 2.06 0 0 0-1.271-1.426.95.95 0 0 0-1.062.437c-.152.276-.095.485-.152.504s-.209-.18-.104-.599c.065-.25.216-.468.427-.618.277-.19.616-.269.948-.219a2.5 2.5 0 0 1 1.773 1.664c.387.899.553 1.877.484 2.854-.161 2.044-1.299 3.918-2.779 4.27a1.89 1.89 0 0 1-1.602-.343c-.266-.285-.313-.513-.276-.532"/><path fill="#9292A9" d="M152.459 33.439a9.66 9.66 0 0 1-4.325 1.902c-1.583.133-3.385-.809-3.632-2.387-.114-.714.076-1.531-.379-2.083-.456-.552-1.575-.476-2.428-.4a6.46 6.46 0 0 1-4.162-1.195 6.5 6.5 0 0 1-2.477-3.56c-.768 1.113-2.523 1.037-3.651.286a15 15 0 0 1-2.722-2.996 4.15 4.15 0 0 0-3.452-1.797 9.6 9.6 0 0 1-2.21.446c-1.328-.133-1.963-1.712-2.143-3.033-.181-1.322-.313-2.854-1.432-3.614-1.12-.761-2.4-.324-3.623-.153s-2.846-.152-3.111-1.36a2.46 2.46 0 0 1 .484-1.835 6.54 6.54 0 0 1 7.786-2.378 8.93 8.93 0 0 1 2.905-4.29A8.89 8.89 0 0 1 137.37 7.79a9.03 9.03 0 0 1 8.11-2.007 9 9 0 0 1 3.817 1.987 9.1 9.1 0 0 1 2.47 3.53 6.54 6.54 0 0 1 6.805 2.43 6.58 6.58 0 0 1 .44 7.232c1.802 1.075 3.339 2.91 3.348 5.012.01 2.102-2.067 4.175-4.087 3.595.382.833.437 1.78.154 2.653a3.64 3.64 0 0 1-1.684 2.052 3.624 3.624 0 0 1-4.796-1.167"/><path fill="#EB996E" d="M131.205 61.57c-.17 0-.218-1.074-1.062-1.968s-1.897-1.075-1.897-1.236.285-.153.75-.067c.598.127 1.14.443 1.545.903.416.451.684 1.019.769 1.627.066.466-.038.751-.105.742m.939-2.797c-.142.086-.503-.275-1.043-.523-.541-.247-1.034-.323-1.053-.494s.598-.38 1.309 0 .929.95.787 1.017m11.77 23.966s.142-.066.265-.256a.87.87 0 0 0 0-.951c-.151-.38-.607-.733-.948-1.389a1.32 1.32 0 0 1 0-1.189q.299-.452.664-.855c.787-1.009-1.499-1.722-1.195-3.015a1.55 1.55 0 0 1 .559-1.084c.228-.172.389-.19.408-.162a2.1 2.1 0 0 0-.559 1.265c0 .428.246.79.739 1.208.282.231.511.52.674.846a1.26 1.26 0 0 1-.152 1.274c-.247.343-.512.561-.645.8a.79.79 0 0 0 0 .713c.19.494.636.95.806 1.436a1.085 1.085 0 0 1-.256 1.207c-.18.257-.37.181-.36.153m3.139-.438s0-.152-.123-.37a3.6 3.6 0 0 0-.56-.857 4.4 4.4 0 0 1-.426-.656c-.15-.293-.2-.627-.143-.951.181-.732.788-1.18 1.072-1.702.285-.523 0-.951-.389-1.408a3.3 3.3 0 0 1-.54-.751 1.9 1.9 0 0 1-.152-.828c.104-1.065.816-1.37.816-1.293a2.66 2.66 0 0 0-.399 1.293 1.7 1.7 0 0 0 .664 1.208c.263.237.476.525.626.847a1.4 1.4 0 0 1-.114 1.217c-.408.666-.948 1.075-1.052 1.55s.161.951.379 1.284c.219.313.368.67.436 1.046.019.238-.066.38-.095.371"/><path fill="#1900AF" d="m116.239 91.528 5.378 3.395 30.965-13.343 1.403 6.867-28.015 58.261-1.669 111.1-30.32-2.492 18.74-150.045z"/><path fill="#27272E" d="M145.213 94.467a6.2 6.2 0 0 1-1.081.666l-3.026 1.693a669 669 0 0 0-9.92 5.639l-4.865 2.853-.209.114-.104-.199c-1.517-2.73-2.399-5.221-3.177-6.905-.379-.856-.683-1.522-.948-1.978a2.7 2.7 0 0 1-.304-.723q.259.298.446.647c.256.437.616 1.094 1.024 1.902.854 1.664 1.802 4.137 3.319 6.79l-.322-.076c1.489-.903 3.13-1.902 4.856-2.853 3.86-2.235 7.407-4.175 10.005-5.525a100 100 0 0 1 3.102-1.55 6.3 6.3 0 0 1 1.204-.495"/><path fill="#FAFAFC" d="m109.904 99.917-15.847 6.077a13.06 13.06 0 0 0-5.216 3.661c-3.453 3.975-9.57 12.563-13.278 26.629-4.96 19.021-10.252 33.401-10.252 33.401L47.699 156.56l-24.553 24.309s41.33 36.082 54.456 35.921l-8.896 70.653h25.35l20.97-187.526 1.195-8.389c-.418.171-5.093 6.743-6.317 8.388m74.8 12.06s-6.297-4.927-12.642-10.053-16.9-12.744-16.9-12.744l-1.897-6.4s-5.586 5.896-10.432 16.567c-7.037 15.331-15.175 37.699-16.806 47.362l-9.787 140.639h72.571l-16.882-99.973z"/><path fill="#27272E" d="M125.525 155.723q.143-.358.332-.694l1.043-1.902 3.888-7.047a18456 18456 0 0 0 13.012-23.158l.692-1.217v.19a794 794 0 0 0-1.593-5.44l-.047-.162.142-.104 3.888-2.749-.085.114c2.4-7.066 4.467-13.153 5.956-17.518.74-2.111 1.328-3.804 1.755-5.04.199-.552.36-.951.493-1.332q.076-.236.189-.456a2.7 2.7 0 0 1-.113.475c-.114.352-.247.809-.418 1.37a1234 1234 0 0 0-1.631 5.078l-5.785 17.576v.066l-.057.048-3.888 2.767.094-.266c.522 1.759 1.063 3.576 1.603 5.43v.105l-.057.086-.692 1.217c-5.112 8.997-9.75 17.119-13.135 23.091l-4.031 6.971c-.465.79-.835 1.417-1.119 1.902a4.6 4.6 0 0 1-.436.599m-10.547-55.217a20 20 0 0 1 1.698 3.329h-.399c.418-.809.949-1.693 1.546-2.616 1.005-1.569 1.963-2.948 2.646-3.956.332-.573.716-1.115 1.148-1.617a6.2 6.2 0 0 1-.854 1.798c-.607 1.065-1.517 2.482-2.523 4.042-.597.951-1.138 1.788-1.574 2.558l-.227.399-.171-.418a21 21 0 0 1-1.29-3.519"/><path fill="#27272E" d="m154.479 91.224-6.895 24.917-2.883 1.103 1.982 6.239-19.765 29.768 17.783-31.451-1.593-5.44 3.878-2.758z" opacity=".2"/></g></g><defs><clipPath id="medic-explaining_svg__a"><path fill="#fff" d="M.627 0h210v240h-210z"/></clipPath></defs></svg>