<svg xmlns="http://www.w3.org/2000/svg" width="240" height="240" fill="none" viewBox="0 0 240 240"><g clip-path="url(#medic-calendar_svg__a)"><circle cx="120" cy="135" r="105" fill="#EEEBFF"/><mask id="medic-calendar_svg__b" width="240" height="240" x="0" y="0" maskUnits="userSpaceOnUse" style="mask-type:alpha"><path fill="#fff" fill-rule="evenodd" d="M240 0H0v137.5h15.03a105 105 0 0 0 209.94 0H240z" clip-rule="evenodd"/></mask><g mask="url(#medic-calendar_svg__b)"><path fill="#27272E" d="M161.006 29.5c-2.063-2.327-4.579-4.535-5.258-7.584-.621-2.803.411-5.946-.998-8.494-1.745-3.066-6.215-3.397-8.32-6.234-1.023-1.367-1.35-3.16-2.356-4.535-1.678-2.345-4.982-2.922-7.85-2.548-2.868.373-5.602 1.427-8.479 1.698-3.941.332-8.025-.909-11.799.29-4.193 1.316-6.667 5.095-9.343 8.764l-3.488 4.247a16 16 0 0 1-2.332 1.98c-1.476.993-3.178 1.698-4.445 2.955a7.1 7.1 0 0 0-1.453 2.42 7.15 7.15 0 0 0 .324 5.542 7.1 7.1 0 0 0 1.725 2.23 7.48 7.48 0 0 0-3.687 2.92 7.63 7.63 0 0 0-1.245 4.571c.268 1.75.744 3.462 1.418 5.096.545 1.699.889 3.568.21 5.207-.68 1.639-2.718 2.786-4.252 1.928a8 8 0 0 0 1.591 3.121 7.9 7.9 0 0 0 2.761 2.128 4.7 4.7 0 0 1-3.145 1.46c3.305 7.568 12.068 11.441 20.237 11.365s15.934-3.33 23.482-6.523l21.905-6.115c1.929-.476 2.692-2.863 2.633-4.867-.058-2.005-.587-4.085.093-5.946.939-2.548 3.866-3.992 4.838-6.556 1.099-2.982-.704-6.192-2.767-8.52"/><path fill="#FFBE9D" d="m129.423 5.668-1.207-.051c-13.092.204-20.228 11.576-19.667 24.818l-.486 45.61a15.62 15.62 0 0 0 4.09 10.727 15.24 15.24 0 0 0 10.259 4.926 15.1 15.1 0 0 0 5.982-.822 15.3 15.3 0 0 0 5.203-3.098 15.5 15.5 0 0 0 3.617-4.895 15.7 15.7 0 0 0 1.468-5.93c.117-2.395.201-4.077.209-4.077.009 0 12.63-1.426 13.326-14.124.336-6.132 0-18.822-.419-30.305a23.83 23.83 0 0 0-6.791-15.819 23.25 23.25 0 0 0-15.584-6.96"/><path fill="#EB996E" d="M138.891 72.877a30.1 30.1 0 0 1-16.127-5.597s3.355 9.444 15.934 8.841z"/><path fill="#27272E" d="M146.54 38.606a1.83 1.83 0 0 1-.549 1.25c-.337.328-.787.51-1.254.508a1.66 1.66 0 0 1-1.252-.46 1.72 1.72 0 0 1-.526-1.239c.015-.473.212-.922.549-1.25s.787-.51 1.254-.508a1.66 1.66 0 0 1 1.252.46 1.72 1.72 0 0 1 .526 1.239m2.356-5.003c-.235.23-1.543-.85-3.472-.926s-3.354.85-3.581.586c-.1-.11.143-.526.78-.951a4.85 4.85 0 0 1 2.877-.765 4.7 4.7 0 0 1 2.751 1.037c.578.484.754.883.645 1.019m-20.647 5.003a1.84 1.84 0 0 1-.554 1.25c-.338.328-.789.51-1.257.508a1.7 1.7 0 0 1-1.237-.476 1.76 1.76 0 0 1-.541-1.223c.019-.472.219-.919.557-1.245a1.8 1.8 0 0 1 1.254-.505 1.66 1.66 0 0 1 1.249.458 1.7 1.7 0 0 1 .529 1.233m1.727-5.029c-.234.221-1.551-.849-3.472-.934-1.92-.085-3.354.85-3.581.595-.1-.11.143-.535.78-.96a4.94 4.94 0 0 1 2.877-.764 4.7 4.7 0 0 1 2.759 1.036c.57.484.755.917.637 1.027m6.282 15.297a12.8 12.8 0 0 1 3.153-.433c.495 0 .965-.11 1.065-.442a2.6 2.6 0 0 0-.268-1.495l-1.292-3.864c-1.794-5.487-3.069-9.997-2.851-10.065s1.853 4.323 3.64 9.81a671 671 0 0 1 1.233 3.882c.288.614.351 1.313.176 1.97-.08.172-.197.324-.342.444a1.25 1.25 0 0 1-.497.252q-.414.09-.839.077c-1.962.025-3.178-.017-3.178-.136m.88 6.796c-.155-.272-1.922.859-4.144.138s-3.214-2.75-3.436-2.63c-.116.068-.078.644.41 1.467a5.22 5.22 0 0 0 2.818 2.275 4.48 4.48 0 0 0 3.398-.222c.748-.437 1.044-.904.954-1.028m-6.943-30.026c-.219.527-2.131.187-4.403.366-2.273.178-4.135.722-4.412.237-.125-.237.218-.721.973-1.206a7.34 7.34 0 0 1 3.304-1.01 7.1 7.1 0 0 1 3.405.56c.839.383 1.242.807 1.133 1.053m18.181 1.436c-.361.424-1.678-.094-3.263-.179s-2.969.17-3.254-.305c-.125-.238.101-.671.713-1.062a4.4 4.4 0 0 1 2.684-.612 4.5 4.5 0 0 1 2.566 1.003c.545.484.713.942.554 1.155"/><path fill="#FFBE9D" d="M109.178 39.888c-.209-.102-8.512-2.956-8.604 5.742-.092 8.697 8.546 6.998 8.563 6.743.016-.254.041-12.485.041-12.485"/><path fill="#EB996E" d="M106.553 49.053c-.042 0-.151.101-.411.22a1.46 1.46 0 0 1-1.115 0c-.906-.348-1.677-1.817-1.677-3.397a5 5 0 0 1 .444-2.166 1.75 1.75 0 0 1 1.132-1.155.755.755 0 0 1 .881.425c.117.246.059.424.101.433.042.008.184-.136.125-.501a.94.94 0 0 0-.335-.544 1.1 1.1 0 0 0-.839-.238 2.1 2.1 0 0 0-.959.46 2.14 2.14 0 0 0-.617.874 5.14 5.14 0 0 0-.545 2.42c0 1.75.897 3.398 2.138 3.78a1.58 1.58 0 0 0 1.367-.212c.285-.187.335-.383.31-.4"/><path fill="#27272E" d="M108.893 14.39a18.16 18.16 0 0 1 5.586-6.234 25.7 25.7 0 0 1 8.26-4.73 18.66 18.66 0 0 1 14.509.849 11.25 11.25 0 0 1 4.101 3.542c3.077 1.936 6.138 5.546 4.922 6.225l-1.677-1.826s-.738 1.555-3.849 3.941a1.5 1.5 0 0 1-.227.145 4.2 4.2 0 0 1-.897.51l-.176.11c-3.665 1.24-6.047.738-9.695-.553-2.516-.849-4.822-2.344-7.271-3.397a8.85 8.85 0 0 0-5.87 2.217 5.5 5.5 0 0 0-.705.713 5.26 5.26 0 0 0-.612 4.34c.335 1.478 1.006 2.846 1.426 4.298.763 2.667.645 5.504.52 8.273-.176 3.907-.395 7.975-2.29 11.373-.838 1.596-2.809 3.185-4.378 1.486a3.7 3.7 0 0 1-.889-2.658c.11-2.65-2.188-3.873-3.354-5.793a10.6 10.6 0 0 1-1.292-5.368 34.56 34.56 0 0 1 3.858-17.463"/><path fill="#1900AF" d="M109.178 75.195s10.324 9.7 18.643 9.649 10.315-4.468 10.315-4.468l4.689 6.04s.436 39.4.956 40.08-4.89 4.119-4.89 4.119l-27.608-40.131z"/><path fill="#fff" d="M167.649 219.941s3.908-1.299 4.973-4.969c1.065-3.669-1.854-40.344-1.854-40.344l-2.197-2.208 1.677-1.367v-11.645l-3.908-24.529s-3.849-33.694-8.52-36.106l-7.246 33.363 5.325 78.241z"/><path fill="#fff" d="m138.137 80.376.545-3.397c1.258.994 4.596 6.285 4.596 6.285 4.587 3.924 14.156 13.845 15.892 17.726 2.516 5.512 2.725 30.814 2.725 30.814l-1.224 125.143-82.64.128 1.334-56.694 2.625-111.85 20.286-10.338 5.435-6.055 34.175 56.405-.244-37.983a16.76 16.76 0 0 0-3.505-10.184"/><path fill="#fff" d="M50.993 182.995a18.66 18.66 0 0 1-1.207-13.751c4.646-15.73 19.104-64.415 21.737-70.496 2.894-6.65 11.138-10.608 11.138-10.608l12.688 33.753-3.229 15.73-11.623 33.617 34.015 40.301-24.32 20.249s-36.657-43.911-39.131-48.676z"/><path fill="#FFBE9D" d="M140.258 215.278c-.26-.093-8.89 1.486-10.525 1.053a54.4 54.4 0 0 0-9.225-1.749c-3.967-.349-8.319-1.088-8.319-1.088l-16.773 13.981 6.902 2.48a25.6 25.6 0 0 0 10.609-1.223c6.214-1.92 16.303-7.16 16.303-7.16 2.306.09 4.616-.027 6.902-.349 2.927-.526 7.757-4.544 4.126-5.945"/><path fill="#27272E" d="M143.261 257.049a1.5 1.5 0 0 1 0-.34v-4.867c0-3.397.05-8.23.084-14.209.083-11.993.285-28.564.251-46.867 0-9.148-.1-17.836-.251-25.795-.084-3.966-.168-7.737-.252-11.262s-.302-6.795-.436-9.793l-.604-14.193c-.059-1.656-.109-2.955-.142-3.864v-1.002a1.3 1.3 0 0 1 0-.34v.34c0 .229 0 .577.067 1.002.058.9.134 2.2.226 3.856.176 3.397.436 8.213.746 14.184.151 2.998.311 6.277.495 9.801.185 3.525.185 7.296.285 11.263.168 7.924.269 16.647.286 25.803 0 18.303-.218 34.874-.378 46.867-.092 5.945-.168 10.829-.226 14.209 0 1.657-.059 2.956-.076 3.857v1.01a2 2 0 0 1-.075.34"/><path fill="#27272E" d="M102.276 78.168q.164.171.286.374l.763 1.138c.671 1.028 1.618 2.48 2.809 4.29l9.67 14.999-.118-.094 7.246 1.835.26.068-.117.246a223 223 0 0 0-2.516 4.994c-.126.264-.26.527-.386.765v-.23l15.892 20.877c1.988 2.65 3.606 4.808 4.755 6.328l1.275 1.699.319.458c.075.102.109.162.1.17a.7.7 0 0 1-.134-.144l-.36-.425-1.334-1.699-4.864-6.251-15.993-20.8-.084-.111.067-.119c.118-.246.252-.509.386-.773l2.516-4.994.134.315-7.237-1.852h-.084l-.042-.068-9.544-15.084-2.709-4.358-.704-1.163a3 3 0 0 1-.252-.39"/><path fill="#27272E" d="M142.472 136.119q.062-.295.185-.569c.126-.365.361-.849.595-1.588.495-1.385 1.132-3.398 1.82-5.946 1.367-5.096 2.927-12.298 4.294-20.384v.144l-.637-1.044-3.422-5.657-.268-.442.494.119 4.068.994-.243.263c-1.803-5.452-3.355-10.124-4.462-13.479l-1.241-3.89-.294-1.061a.189.189 0 0 1-.09-.322.18.18 0 0 1 .248 0 .19.19 0 0 1 .023.25.18.18 0 0 1-.114.072c.101.271.218.603.378 1.019.327.943.788 2.234 1.35 3.847 1.149 3.347 2.751 8.001 4.613 13.437l.125.348-.36-.085-4.068-.968.227-.323c1.107 1.809 2.256 3.703 3.438 5.648l.638 1.045v.153a205 205 0 0 1-4.428 20.384c-.73 2.548-1.418 4.578-1.963 5.946-.251.696-.511 1.206-.662 1.563q-.108.27-.244.526"/><path fill="#FFBE9D" d="M166.181 204.339s-6.248.424-8.227 1.342c-1.98.917-3.355 4.017-4.932 5.3-1.576 1.282-3.916 1.919-3.354 3.516a3.72 3.72 0 0 0 1.957 1.928 3.65 3.65 0 0 0 2.731.042 43 43 0 0 0 4.336-1.97h9.921s1.987-7.95 2.172-7.831c.184.119-2.81-2.336-4.604-2.327"/><path fill="#27272E" d="M161.45 119.098c.118 0 .218 19.178.218 42.833s-.1 42.841-.218 42.841-.218-19.178-.218-42.841.092-42.833.218-42.833m-91.73 87.916s.143.136.386.425l1.107 1.291a471 471 0 0 0 4.193 4.968c3.59 4.324 8.73 10.498 14.962 18.007h-.243l24.278-20.283v.314l-7.833-9.274-26.157-31.053-.067-.085v-.101c3.53-10.091 6.457-18.482 8.512-24.368l2.407-6.795.646-1.775c.15-.408.235-.612.235-.612s-.05.221-.185.629l-.587 1.8c-.545 1.589-1.325 3.899-2.315 6.795l-8.386 24.419v-.187l26.208 31.01 7.824 9.275.143.17-.168.144-24.32 20.223-.135.11-.109-.136-14.852-18.108-4.084-5.028-1.065-1.325c-.302-.289-.395-.45-.395-.45m7.187-114.237q.177-.03.352 0h1.023c1.254.05 2.5.218 3.724.501a22.1 22.1 0 0 1 10.778 5.951 22.5 22.5 0 0 1 5.995 10.849c.3 1.234.482 2.494.545 3.763v1.036q.03.178 0 .357-.12-.683-.151-1.376a26 26 0 0 0-.67-3.703 22.94 22.94 0 0 0-6.014-10.617 22.5 22.5 0 0 0-10.558-5.954 24 24 0 0 0-3.657-.637 10 10 0 0 1-1.367-.17"/><path fill="#27272E" d="M67.397 173.779a6.1 6.1 0 0 1 1.677-1.147 14.68 14.68 0 0 1 9.401-1.571c.67.069 1.323.255 1.929.552a18.52 18.52 0 0 0-13.007 2.175z"/><path fill="#fff" d="M161.081 214.497h8.361l-10.441 31.74-3.103-22.151z"/><path fill="#27272E" d="M158.708 214.497q.383-.067.772-.06l2.189-.051 7.808-.076h.26l-.084.255-3.489 10.71a1885 1885 0 0 1-4.956 14.855l-1.552 4.493-.444 1.206a1.8 1.8 0 0 1-.177.416q.015-.227.093-.441l.369-1.24c.352-1.13.838-2.667 1.417-4.527a1606 1606 0 0 1 4.831-14.906l3.547-10.685.185.246-7.808-.076-2.189-.051a4 4 0 0 1-.772-.068"/><path fill="#27272E" d="M161.451 204.772c.309-.147.636-.249.972-.306a12.3 12.3 0 0 1 2.785-.34 8 8 0 0 1 4.05.977 7.67 7.67 0 0 1 3.145 4.043c1.3 3.516.319 7.219-1.434 8.918a7.6 7.6 0 0 1-2.34 1.563c-.309.155-.64.261-.981.314q.438-.264.906-.467a8.6 8.6 0 0 0 2.197-1.631c1.585-1.639 2.516-5.189 1.241-8.536a7.27 7.27 0 0 0-2.943-3.847 7.8 7.8 0 0 0-3.85-1.02 27 27 0 0 0-3.748.332m-63.124 24.249c1.492.559 3.057.891 4.646.985a19.3 19.3 0 0 0 5.124-.484 46 46 0 0 0 6.063-1.903 742 742 0 0 1 10.902-4.026l3.313-1.18a8 8 0 0 1 1.241-.374 6.6 6.6 0 0 1-1.182.535l-3.271 1.308a1000 1000 0 0 1-10.844 4.153 43 43 0 0 1-6.13 1.886 18.6 18.6 0 0 1-5.225.399 12.3 12.3 0 0 1-3.455-.739 7 7 0 0 1-.889-.382c-.235-.102-.294-.161-.294-.178m1.77 27.705c-.117 0-.721-5.231-1.342-11.712-.62-6.481-1.031-11.746-.914-11.755.117-.008.721 5.232 1.35 11.713s1.032 11.737.906 11.754m22.375-1.061c0-.043.445-.179 1.216-.518a10.5 10.5 0 0 0 2.944-1.937 13.8 13.8 0 0 0 3.011-4.306 25 25 0 0 0 1.861-6.226c.633-3.929.846-7.915.638-11.891-.067-1.528-.151-2.76-.21-3.609a8.4 8.4 0 0 1-.059-1.334q.173.644.227 1.308c.117.85.243 2.09.352 3.618a51.6 51.6 0 0 1-.512 11.968 25 25 0 0 1-1.937 6.319 13.7 13.7 0 0 1-3.161 4.391 9.7 9.7 0 0 1-3.095 1.869 7 7 0 0 1-.931.288 1.3 1.3 0 0 1-.344.06m-24.094-24.657c.058-.051.73.85 1.962 2.064a28.2 28.2 0 0 0 11.498 7.101c1.677.535 2.725.747 2.717.849a3 3 0 0 1-.763-.076 16 16 0 0 1-2.038-.451 24.5 24.5 0 0 1-6.315-2.768 25 25 0 0 1-5.325-4.417 18 18 0 0 1-1.325-1.622 2.8 2.8 0 0 1-.411-.68"/><path fill="#FF646E" d="M127.821 136.595a2.72 2.72 0 0 1 .973 2.14c-.084 1.317 0 10.286 0 10.286s.327 1.316-.973 1.316z"/><path fill="#FF646E" d="M128.081 135.134h-2.717v4.501h2.717z"/><path fill="#FF646E" d="M125.909 135.652h1.678v-1.699a.86.86 0 0 0-.246-.6.84.84 0 0 0-.593-.249.84.84 0 0 0-.593.249.86.86 0 0 0-.246.6z"/><path fill="#27272E" d="M104.867 139.363c0-.127 6.097-.22 13.611-.22s13.62.093 13.62.22c0 .128-6.097.221-13.62.221s-13.611-.102-13.611-.221"/><path fill="#27272E" d="m140.15 133.07-1.258-1.206-22.912-22.185 2.508-7.27h-3.976l-7.967-17.565 9.091 14.235 7.246 1.843-2.918 5.759m1.081 56.286a12.9 12.9 0 0 0 6.407-1.988 11.2 11.2 0 0 0 3.631-5.452 29.4 29.4 0 0 1-1.065 5.818 8.4 8.4 0 0 1-3.212 4.348c-1.778 1.121-4 1.24-6.089 1.07a25.2 25.2 0 0 1-8.134-2.063c-1.837-.807-3.757-2.081-4.135-4.069a25.1 25.1 0 0 0 12.597 2.336" opacity=".2"/></g><rect width="40.5" height="40.5" x="170.5" y="44.5" fill="#1900AF" rx="20.25"/><path fill="#fff" fill-rule="evenodd" d="M181.812 59.249a3.437 3.437 0 0 1 3.437-3.437h11.002a3.437 3.437 0 0 1 3.437 3.437V70.25a3.437 3.437 0 0 1-3.437 3.436h-11.002a3.437 3.437 0 0 1-3.437-3.436zm3.437-2.062a2.06 2.06 0 0 0-2.062 2.062V70.25c0 1.139.923 2.062 2.062 2.062h11.002a2.06 2.06 0 0 0 2.062-2.062v-11a2.06 2.06 0 0 0-2.062-2.062z" clip-rule="evenodd"/><path fill="#fff" fill-rule="evenodd" d="M181.812 61.083c0-.38.308-.687.688-.687H199a.688.688 0 1 1 0 1.374h-16.5a.69.69 0 0 1-.688-.687m14.259 2.7a.7.7 0 0 0-.508-.224.733.733 0 1 0 .733.733.7.7 0 0 0-.225-.509" clip-rule="evenodd"/><path fill="#fff" fill-rule="evenodd" d="M194.875 64.246c0-.38.308-.687.688-.687.405 0 .733.328.733.733a.688.688 0 0 1-1.196.462.7.7 0 0 1-.225-.508m-2.013-.463a.7.7 0 0 0-.509-.224.733.733 0 1 0 .733.733.7.7 0 0 0-.224-.509" clip-rule="evenodd"/><path fill="#fff" fill-rule="evenodd" d="M191.666 64.246c0-.38.308-.687.687-.687.405 0 .733.328.733.733a.687.687 0 0 1-1.195.462.7.7 0 0 1-.225-.508m-2.013-.463a.7.7 0 0 0-.508-.224.733.733 0 1 0 .733.733.7.7 0 0 0-.225-.509" clip-rule="evenodd"/><path fill="#fff" fill-rule="evenodd" d="M188.458 64.246c0-.38.307-.687.687-.687.405 0 .733.328.733.733a.687.687 0 0 1-1.196.462.7.7 0 0 1-.224-.508m-2.013 2.287a.7.7 0 0 0-.509-.224.734.734 0 1 0 .733.733.7.7 0 0 0-.224-.509" clip-rule="evenodd"/><path fill="#fff" fill-rule="evenodd" d="M185.249 66.996c0-.38.308-.687.687-.687.405 0 .733.328.733.733a.687.687 0 0 1-1.195.462.7.7 0 0 1-.225-.508m4.404-.463a.7.7 0 0 0-.508-.224.733.733 0 1 0 .733.733.7.7 0 0 0-.225-.509" clip-rule="evenodd"/><path fill="#fff" fill-rule="evenodd" d="M188.458 66.996c0-.38.307-.687.687-.687.405 0 .733.328.733.733a.687.687 0 0 1-1.196.462.7.7 0 0 1-.224-.508m4.404-.463a.7.7 0 0 0-.509-.224.733.733 0 1 0 .733.733.7.7 0 0 0-.224-.509" clip-rule="evenodd"/><path fill="#fff" fill-rule="evenodd" d="M191.666 66.996c0-.38.308-.687.687-.687.405 0 .733.328.733.733a.687.687 0 0 1-1.195.462.7.7 0 0 1-.225-.508m4.405-.463a.7.7 0 0 0-.508-.224.733.733 0 1 0 .733.733.7.7 0 0 0-.225-.509" clip-rule="evenodd"/><path fill="#fff" fill-rule="evenodd" d="M194.875 66.996c0-.38.308-.687.688-.687.405 0 .733.328.733.733a.688.688 0 0 1-1.196.462.7.7 0 0 1-.225-.508m1.196 2.288a.7.7 0 0 0-.508-.225.733.733 0 1 0 .733.733.7.7 0 0 0-.225-.508" clip-rule="evenodd"/><path fill="#fff" fill-rule="evenodd" d="M194.875 69.746c0-.38.308-.687.688-.687.405 0 .733.328.733.733a.688.688 0 0 1-1.196.462.7.7 0 0 1-.225-.508m-2.013-.462a.7.7 0 0 0-.509-.225.733.733 0 1 0 .733.733.7.7 0 0 0-.224-.508" clip-rule="evenodd"/><path fill="#fff" fill-rule="evenodd" d="M191.666 69.746c0-.38.308-.687.687-.687.405 0 .733.328.733.733a.687.687 0 0 1-1.195.462.7.7 0 0 1-.225-.508m-2.013-.462a.7.7 0 0 0-.508-.225.733.733 0 1 0 .733.733.7.7 0 0 0-.225-.508" clip-rule="evenodd"/><path fill="#fff" fill-rule="evenodd" d="M188.458 69.746c0-.38.307-.687.687-.687.405 0 .733.328.733.733a.687.687 0 0 1-1.196.462.7.7 0 0 1-.224-.508m-2.013-.462a.7.7 0 0 0-.509-.225.734.734 0 1 0 .733.733.7.7 0 0 0-.224-.508" clip-rule="evenodd"/><path fill="#fff" fill-rule="evenodd" d="M185.249 69.746c0-.38.308-.687.687-.687.405 0 .733.328.733.733a.687.687 0 0 1-1.195.462.7.7 0 0 1-.225-.508" clip-rule="evenodd"/></g><defs><clipPath id="medic-calendar_svg__a"><path fill="#fff" d="M0 0h240v240H0z"/></clipPath></defs></svg>