<svg xmlns="http://www.w3.org/2000/svg" width="201" height="240" fill="none" viewBox="0 0 201 240"><g clip-path="url(#medic-hello-paper-primary_svg__a)"><circle cx="100.311" cy="140" r="100" fill="#E6E6F0"/><mask id="medic-hello-paper-primary_svg__b" width="201" height="200" x="0" y="40" maskUnits="userSpaceOnUse" style="mask-type:alpha"><circle cx="100.311" cy="140" r="100" fill="#fff"/></mask><g mask="url(#medic-hello-paper-primary_svg__b)"><path fill="#FAFAFC" d="m140.27 219.567 3.41 3.427c.372.365.869.572 1.389.579a1.96 1.96 0 0 0 1.825-1.223c.099-.241.149-.499.148-.76a2.04 2.04 0 0 0-.576-1.396l-3.41-3.427a1.93 1.93 0 0 0-1.393-.589 1.95 1.95 0 0 0-1.393.589 2 2 0 0 0-.584 1.396c.009.526.218 1.028.584 1.404"/><path fill="#9292A9" d="M152.647 167.886c-2.54.275-5.102.275-7.641 0a35.5 35.5 0 0 1 7.641 0"/><path fill="#B78876" d="M179.327 79.485c-1.35-4.117 1.09-18.88-2.123-18.904-4.105-.04-2.929 16.659-2.936 18.182s-2.155 1.475-2.076.127c.11-1.936.789-21.014-3.347-20.68-2.281.182-1.989 4.347-1.989 4.347s1.27 19.085-.671 19.18c-1.942.096-2.637-11.041-2.795-14.96-.158-3.752-1.728-5.244-3.449-3.967-1.721 1.278-1.374 12.558-1.279 16.326s.537 14.088-3.797 9.067c-4.333-5.022-9.472-7.282-11.303-6.925s-1.894 3.014-.039 3.879c1.499.698 3.662 2.633 5.225 4.156a23.8 23.8 0 0 1 3.157 4.316 20.8 20.8 0 0 1 2.613 6.346 12.9 12.9 0 0 0 2.343 4.855 12.8 12.8 0 0 0 4.122 3.458l-.205 6.997 20.01-1.745.386-13.232c.206-10.114 1.966-16.92 3.023-22.933 1.698-9.59.466-9.884-.678-9.829-2.495.087-2.866 15.953-4.192 11.939"/><path fill="#AA6550" d="M179.326 92.463a24 24 0 0 0-2.747.69 10.6 10.6 0 0 0-5.193 4.18c-.371.586-.68 1.208-.924 1.856l-.118.302-.245-.206a16.4 16.4 0 0 0-4.641-2.737c-1.263-.492-2.069-.659-2.053-.73a6.7 6.7 0 0 1 2.155.452 14.7 14.7 0 0 1 4.831 2.658l-.363.103a10.3 10.3 0 0 1 .955-1.952 10.6 10.6 0 0 1 2.668-2.816 10.4 10.4 0 0 1 2.818-1.428 9 9 0 0 1 2.084-.404 2.6 2.6 0 0 1 .773.032m-2.786 14.143a13.1 13.1 0 0 1-4.854 1.365 13.3 13.3 0 0 1-5.044-.119c0-.143 2.249 0 4.98-.357s4.879-1.023 4.918-.889"/><path fill="#FAFAFC" d="M122.834 107.209s10.427 5.355 15.913 13.065c5.486 7.711 22.055 31.62 22.055 31.62l-2.368-36.284 25.59-3.332s7.444 36.546 9.188 49.183c1.626 11.827.947 23.464-10.545 29.81-13.561 7.489-28.962-2.625-34.084-6.465-6.362-4.759-18.108-12.541-18.108-12.541z"/><path fill="#1900AF" d="m109.975 102.68-7.302-8.195-31.913-2.459-4.136 6.72L77.809 168.9l-5.036 70.87h41.583z"/><path fill="#27272E" d="M74.699 222.915c1.097-1.174 2.897-2.801 4.499-2.832 11.493-.254 23.23-1.412 34.731-1.666l.442 21.355-5.596-2.634c-.316-2.38-.719-5.323-2.921-6.346-1.247-.595-2.707-.365-4.057-.095-4.152.793-8.272 1.903-12.495 2.165s-8.644-.349-12.188-2.673a7.44 7.44 0 0 1-2.913-3.173 3.87 3.87 0 0 1 .498-4.101" opacity=".3"/><path fill="#FAFAFC" d="m102.673 94.486 20.445 13.295 4.325 14.262 4.136 44.471-4.562 45.509 7.878 27.749h-20.539l-.04-10.948-2.194-77.057-2.147-49.087z"/><path fill="#27272E" d="M113.686 162.389q.188-.275.339-.571c.221-.413.529-.976.908-1.69s.742-1.69 1.223-2.776c.221-.548.411-1.151.632-1.785.221-.635.466-1.301.647-2.023 1.721-5.712 2.865-13.954 2.621-23.052 0-.706-.048-1.404-.095-2.094v-.119l-.111-.048-3.204-1.357.047.334 3.197-2.578.071-.056v-.079a28.1 28.1 0 0 0-1.46-9.202c-.79-2.689-1.682-5.006-2.455-6.91a86 86 0 0 0-1.934-4.41 33 33 0 0 0-.561-1.15 2.5 2.5 0 0 0-.221-.389q.062.213.158.413l.513 1.181a126 126 0 0 1 1.824 4.443 87 87 0 0 1 2.368 6.917 28.2 28.2 0 0 1 1.389 9.075l.071-.135-3.205 2.578-.252.206.3.127 3.197 1.357-.119-.167c.048.675.071 1.373.095 2.071.245 9.059-.845 17.269-2.494 23.004-.174.722-.411 1.388-.616 2.023s-.387 1.238-.6 1.785c-.458 1.087-.789 2.047-1.16 2.792-.371.746-.632 1.293-.837 1.714q-.161.273-.276.571m14.357 28.954q.104-.297.173-.603c.111-.428.253-1.008.434-1.729a56 56 0 0 0 .616-2.761c.213-1.079.489-2.308.71-3.681.221-1.372.498-2.871.703-4.49.205-1.618.41-3.355.6-5.18.331-3.657.552-7.694.552-11.938s-.252-8.274-.592-11.899c-.205-1.825-.378-3.562-.631-5.18s-.466-3.118-.71-4.49c-.245-1.372-.506-2.594-.727-3.673a65 65 0 0 0-.623-2.76c-.19-.754-.332-1.301-.442-1.73a2.8 2.8 0 0 0-.182-.595q.032.31.103.611c.095.437.213 1.024.371 1.753.158.73.363 1.682.56 2.769s.458 2.308.663 3.681c.206 1.372.466 2.863.663 4.481.198 1.619.403 3.34.592 5.165.316 3.649.545 7.67.561 11.899s-.213 8.249-.521 11.898c-.182 1.825-.332 3.554-.569 5.173-.236 1.618-.426 3.117-.647 4.481-.221 1.365-.458 2.602-.647 3.681a67 67 0 0 1-.553 2.777c-.165.761-.268 1.309-.363 1.745a3 3 0 0 0-.094.595m-4.95 37.22c.215.651.512 1.272.884 1.848a30.2 30.2 0 0 0 6.236 7.647c.49.481 1.039.897 1.634 1.238q-.676-.77-1.445-1.444a45 45 0 0 1-3.315-3.61 43 43 0 0 1-2.865-3.966 16 16 0 0 0-1.129-1.713"/><path fill="#27272E" d="M112.887 191.327c-2.163-1.134-4.807-.539-7.104.341s-4.539 2.063-6.978 2.039c-3.315 0-8.012-1.246-9.74-4.078a38.2 38.2 0 0 1-4.192-10.415C82.237 167.021 81.637 156.32 79 144.12c-1.436-6.632-3.26-14.279-5.707-20.625-2.368-6.132-4.578-12.478-6.44-18.784.331 14.278.663 28.668 2.857 42.836 1.42 9.099 3.6 18.062 4.791 27.185 1.018 7.814 1.303 15.706 1.579 23.584l7.396 9.09 20.389.413 10.648-13.803z" opacity=".3"/><path fill="#FAFAFC" d="M38.99 106.599a25.2 25.2 0 0 0-9.971 7.064 25.4 25.4 0 0 0-5.5 10.943c-5.984 26.526-16.23 61.803-16.388 73.186-.205 14.493 6.102 24.417 14.335 26.249 6.512 1.444 65.515-1.801 65.515-1.801l2.795-24.749-47.827-4.419 6.544-36.752-6.48-50.903z"/><path fill="#FAFAFC" d="m42.028 105.417 13.222-5.426 15.1-8.203.142.445c-1.705 2.935-3.52 8.353-2.881 11.692l11.587 60.78-2.628 44.423-3.797 30.659h-38.07l13.806-32.658-6.797-61.335z"/><path fill="#27272E" d="M48.895 152.608a1.5 1.5 0 0 0-.11.405c-.055.317-.134.706-.23 1.181-.196 1.079-.465 2.547-.788 4.34-.648 3.72-1.516 8.765-2.487 14.342-.97 5.576-1.76 10.637-2.368 14.366-.276 1.8-.505 3.276-.679 4.363l-.158 1.19a1.3 1.3 0 0 0 0 .42q.07-.201.103-.412c.071-.31.142-.699.245-1.174.197-1.079.465-2.547.79-4.34a886 886 0 0 0 2.501-14.342c.924-5.616 1.784-10.685 2.368-14.366.277-1.8.505-3.276.671-4.363.063-.484.11-.872.15-1.19q.015-.21-.008-.42m14.209-56.536s0 .048-.055.143-.07.27-.126.444c-.095.397-.269.968-.419 1.73a54 54 0 0 0-1.01 6.544 75 75 0 0 0-.252 9.979c.126 3.792.529 7.988 1.097 12.43v.143h.134l4.326.793-.15-.269c-.245.666-.506 1.388-.703 2.126a27.23 27.23 0 0 0 .497 14.738 46.6 46.6 0 0 0 5.076 10.987c1.8 2.935 3.433 5.196 4.554 6.767l1.31 1.785.348.46c.079.095.126.15.134.142a2 2 0 0 0-.102-.166c-.08-.135-.19-.286-.316-.484l-1.247-1.833c-1.082-1.586-2.676-3.871-4.444-6.822a47.4 47.4 0 0 1-4.965-10.939 27.05 27.05 0 0 1-.458-14.532c.19-.722.442-1.428.679-2.079l.087-.23-.23-.039-4.325-.794.158.167c-.576-4.434-.987-8.615-1.145-12.399-.155-3.313-.1-6.633.166-9.939.178-2.194.475-4.376.892-6.537.134-.793.284-1.34.355-1.745 0-.174.063-.325.087-.452a1 1 0 0 0 .047-.119m-.001 62.343v-9.694s-.126-2.38 1.879-1.888 1.626 4.276 1.626 4.276.379 14.738-.498 14.611c-.876-.126-1.215-1.261-1.215-1.261v-5.664z"/><path fill="#27272E" d="M54.729 159.017c3.441.265 6.898.265 10.34 0a67.6 67.6 0 0 0-10.34 0m-19.062-46.659a8 8 0 0 0 1.081.396q1.473.537 2.873 1.246a22.4 22.4 0 0 1 7.752 6.647c.58.784 1.09 1.618 1.523 2.491.38.829.685 1.689.916 2.57a26.3 26.3 0 0 1 .789 4.585c.11 1.317.134 2.38.142 3.174a8 8 0 0 0 0 1.158c.085-.38.127-.769.126-1.158a31 31 0 0 0 0-3.174 24 24 0 0 0-.694-4.656 15.5 15.5 0 0 0-.916-2.642 17.4 17.4 0 0 0-1.578-2.562 21.5 21.5 0 0 0-7.95-6.679 20 20 0 0 0-2.943-1.142 5.6 5.6 0 0 0-1.121-.254m51.33 109.882a4 4 0 0 1 0-.468c0-.333.071-.793.126-1.348.119-1.206.292-2.927.513-5.085.482-4.387 1.153-10.566 1.942-17.872l.166.214-17.76-1.515-29.995-2.658a15.6 15.6 0 0 0-8.77 1.738q-1.092.585-2.092 1.316l-.513.397a.8.8 0 0 1-.181.119 12 12 0 0 1 2.715-1.975 15.47 15.47 0 0 1 8.864-1.888l30.035 2.538 17.76 1.547h.19v.191c-.853 7.29-1.58 13.485-2.084 17.856l-.632 5.069c-.07.563-.134 1.007-.174 1.34q-.035.247-.11.484"/><path fill="#27272E" d="M74.155 222.899a5.3 5.3 0 0 1-.142-1.039 56 56 0 0 1-.174-2.872 76.5 76.5 0 0 1 1.658-18.84c.26-1.182.49-2.134.679-2.792.07-.344.179-.68.323-1a5.5 5.5 0 0 1-.165 1.039c-.15.746-.332 1.69-.553 2.809a100 100 0 0 0-1.286 9.352 101 101 0 0 0-.371 9.424c0 1.15.04 2.11.047 2.864q.048.528-.016 1.055m6.772-7.758s.198-.103.585-.103c.555.02 1.09.214 1.53.555a2.55 2.55 0 0 1 1.05 2.189 2.81 2.81 0 0 1-1.696 2.428 2.74 2.74 0 0 1-2.866-.683 2.38 2.38 0 0 1-.568-2.379c.14-.544.46-1.022.908-1.357a1.05 1.05 0 0 1 .544-.254c0 .04-.173.127-.442.373a2.55 2.55 0 0 0-.726 1.309 2.12 2.12 0 0 0 .553 2.015 2.36 2.36 0 0 0 2.455.563 2.45 2.45 0 0 0 1.46-2.062 2.29 2.29 0 0 0-.845-1.936 2.76 2.76 0 0 0-1.373-.619 5 5 0 0 1-.569-.039"/><path fill="#27272E" d="m70.515 91.582-.244.15-.79.437-2.912 1.658-11.257 6.259-18.944 7.98a20.37 20.37 0 0 0-9.543 7.933 27.5 27.5 0 0 0-3.015 6.132 32 32 0 0 0-1.681 7.004c-3.505 15.072-7.484 32.373-11.343 50.769-.79 3.966-1.58 7.869-2.368 11.732-.198.968-.356 1.936-.53 2.896-.173.96-.355 1.911-.473 2.871a31.5 31.5 0 0 0-.292 5.712c.133 3.72.985 7.379 2.51 10.772a20.5 20.5 0 0 0 2.826 4.562 16 16 0 0 0 3.947 3.395 16.8 16.8 0 0 0 9.646 2.38l9.598-.199c6.188-.151 11.959-.333 17.224-.515l24.943-.913 6.78-.261 1.768-.056h.6l-.6.048-1.76.103-6.78.333c-5.889.278-14.406.658-24.936 1.047-5.265.198-11.05.397-17.231.563l-9.606.222a17.16 17.16 0 0 1-9.844-2.419 16.7 16.7 0 0 1-4.057-3.467 21.4 21.4 0 0 1-2.881-4.648 29.2 29.2 0 0 1-2.557-10.923c-.08-1.933.018-3.869.292-5.783.118-.976.307-1.928.473-2.888s.332-1.935.53-2.895a442 442 0 0 1 2.367-11.74c3.86-18.388 7.854-35.697 11.39-50.769a32.5 32.5 0 0 1 1.674-7.052 27.3 27.3 0 0 1 3.07-6.196 20.63 20.63 0 0 1 9.71-8.02l18.99-7.932L66.514 93.7l2.984-1.586.79-.405zm132.966 74.139-60.03 64.349-58.554.365-1.389-2.673 57.717-62.843z"/><path fill="#FAFAFC" d="M146.743 164.919s3.899 0 5.06 1.365c1.349 1.634 3.946 5.315-1.721 14.683-2.258 3.752-13.332 16.659-17.887 29.882-4.254 12.343-2.313 16.421-2.313 16.421l42.246-1.357.79-1.531s18.368-49.975 13.505-59.494c-2.242-4.34-39.98-1.571-39.68.031"/><path fill="#EEEBFF" d="m179.146 224.644-45.443.381c-.545-11.566 3.45-19.967 9.393-29.89 2.274-3.8 5.384-7.052 7.649-10.86a29.34 29.34 0 0 0 4.065-13.2c.119-1.856 0-3.863-1.129-5.331-1.128-1.467-5.186-1.547-6.938-.793a13.2 13.2 0 0 1 6.694-2.483c3.67-.309 33.713-.103 39.301-.055 1.35.059 2.688.277 3.986.65 4.073 2.118 4.91 7.695 4.334 11.709-.545 3.799-2.889 7.385-5.833 11.399a38 38 0 0 0-2.368 3.585c-3.103 5.402-11.667 20.554-13.206 25.781a24.1 24.1 0 0 0-.505 9.107"/><path fill="#27272E" d="m179.146 224.549-10.94.087-20.902.175-8.778.079h-2.936a7.6 7.6 0 0 1-1.642 0h-.245c-.023 0 .064-.849.056-.944v-1.198q0-1.166.071-2.332a40.4 40.4 0 0 1 1.531-8.774c1.689-5.759 4.586-11.105 7.649-16.198 1.681-2.808 3.765-5.323 5.691-7.933a33 33 0 0 0 4.468-8.083 28.5 28.5 0 0 0 1.807-8.98c.056-1.967-.229-4.664-2.289-5.552a7.7 7.7 0 0 0-2.96-.524c-.671 0-2.226-.087-2.802.381-.166.127-.079.174.039.143q.147-.078.269-.191c.308-.206.631-.404.955-.579a13.7 13.7 0 0 1 3.512-1.325c2.447-.547 5.1-.388 7.594-.412 7.783-.064 15.574 0 23.365 0l8.99.055a21 21 0 0 1 4.215.405c2.368.5 3.947 2.903 4.642 5.085a15.1 15.1 0 0 1 .394 7.353c-.6 3.102-2.297 5.878-4.057 8.449-1.579 2.316-3.228 4.553-4.633 6.996-.963 1.706-1.926 3.403-2.881 5.117-2.282 4.093-4.523 8.218-6.607 12.43-1.792 3.609-3.521 7.187-3.797 11.28a24 24 0 0 0 .166 5.093c0 .127.213.071.189-.056a22.03 22.03 0 0 1 1.697-12.144c1.784-4.086 3.9-8.036 6.023-11.947a498 498 0 0 1 5.936-10.63c2.944-5.116 7.68-9.582 8.335-15.738.403-3.847-.481-9.519-4.499-11.24a11.8 11.8 0 0 0-4.349-.643h-3.284c-7.649-.048-15.305-.087-22.954-.079-3.299 0-6.599 0-9.898.063-2.992.056-5.857.349-8.525 1.912a9 9 0 0 0-1.05.698c-.071.055 0 .198.102.167a8.57 8.57 0 0 1 5.407-.08c2.368.793 2.645 3.649 2.55 5.831a29.35 29.35 0 0 1-4.815 14.651c-1.405 2.142-3.031 4.133-4.555 6.196a63 63 0 0 0-3.946 6.147 68.6 68.6 0 0 0-5.715 12.114 41.5 41.5 0 0 0-2.123 15.151.1.1 0 0 0 .102.103l15.353-.127 24.47-.206 5.612-.048a.1.1 0 0 0 .047 0 .1.1 0 0 0 .07-.058.1.1 0 0 0 .009-.046.1.1 0 0 0-.012-.046.1.1 0 0 0-.032-.035.1.1 0 0 0-.043-.017.1.1 0 0 0-.047.004"/><path fill="#27272E" d="M176.461 215.109c0 .119-8.012.206-17.902.206s-17.903-.087-17.903-.206 8.02-.206 17.903-.206 17.902.095 17.902.206m1.003-6.013c0 .111-8.012.206-17.902.206s-17.903-.095-17.903-.206 8.02-.206 17.903-.206 17.902.087 17.902.206m4.815-6.457c0 .111-8.02.206-17.903.206s-17.902-.095-17.902-.206 8.012-.206 17.902-.206 17.903.087 17.903.206m2.96-5.902c0 .111-8.012.206-17.902.206s-17.903-.095-17.903-.206 8.02-.206 17.903-.206 17.902.095 17.902.206m1.974-5.394c0 .111-8.012.206-17.895.206s-17.902-.095-17.902-.206 8.012-.206 17.902-.206 17.895.087 17.895.206m4.862-7.092c0 .119-8.012.206-17.902.206s-17.902-.087-17.902-.206 8.019-.206 17.902-.206c9.882 0 17.902.095 17.902.206m4.578-6.782c0 .111-8.012.206-17.902.206s-17.902-.095-17.902-.206 8.019-.207 17.902-.207 17.902.096 17.902.207m-.332-6.449c0 .111-8.011.206-17.894.206s-17.926-.095-17.926-.206c0-.112 8.012-.207 17.902-.207s17.918.088 17.918.207"/><path fill="#9292A9" d="M141.225 164.919q.132.073.244.175l.711.563 2.715 2.221.071.064-.063.071c-4.886 5.37-15.479 16.849-27.769 30.088-8.478 9.337-16.648 17.341-22.56 23.108a836 836 0 0 1-7.04 6.791l-1.943 1.824-.512.46-.182.151s.047-.064.15-.175l.49-.499 1.886-1.88 6.954-6.878c5.857-5.831 13.979-13.842 22.457-23.187 12.29-13.24 22.946-24.655 27.935-29.93v.135l-2.668-2.293-.679-.594a1.3 1.3 0 0 1-.197-.215"/><path fill="#B78876" d="M89.727 200.331H98.3s5.794-5.077 7.105-5.466c2.754-.833 9.866-1.706 9.866-1.706l-4.854 5.299c-1.129 1.222-3.197 2.325-1.973 2.325h8.919s9.117-4.395 10.475-3.594c1.136.675 1.531 1.896.371 3.594-1.161 1.697-9.157 5.711-10.08 6.021l-2.613.793 2.455.793 11.627-4.085c.75-.135 1.8-.262 2.139.182.145.152.259.331.334.528a1.58 1.58 0 0 1-.034 1.225c-.086.192-.21.365-.363.508a49 49 0 0 1-5.257 4.149s1.855 2.745.316 4.133c-1.54 1.388-5.991 5.553-5.991 5.553s-.466 2.316-1.848 3.395c-1.381 1.079-16.576 1.079-17.673 1.079s-7.222-3.546-7.222-3.546l-6.67-.5z"/><path fill="#AA6550" d="M116.234 215.275a4.6 4.6 0 0 0 1.666.231 5 5 0 0 0 1.815-.326 10.2 10.2 0 0 0 1.981-1.055 127 127 0 0 0 3.339-2.253 7.5 7.5 0 0 0 1.326-1.015 8 8 0 0 0-1.46.793c-.884.532-2.084 1.301-3.402 2.158a10.7 10.7 0 0 1-1.902 1.047 5.3 5.3 0 0 1-1.705.381c-1.011.055-1.658-.016-1.658.039m-.725 5.72a1.9 1.9 0 0 0 1.161.651 4.25 4.25 0 0 0 3.157-.524 13 13 0 0 0 2.55-1.904c.584-.563.899-.96.86-.991a42 42 0 0 1-3.584 2.578 4.34 4.34 0 0 1-2.912.595 7 7 0 0 1-1.232-.405m-4.279-12.653a6.1 6.1 0 0 0 2.407-.19 6 6 0 0 0 2.282-.793c-.801.072-1.594.218-2.368.436-.79.105-1.567.289-2.321.547"/><path fill="#27272E" d="M53.071 36.546a17.4 17.4 0 0 0-4.435-5.204 17.3 17.3 0 0 0-6.09-3.08 17.24 17.24 0 0 0-13.258 1.715c-3.402 1.983-6.236 5.553-6.007 9.52.213 3.728 2.976 6.734 5.58 9.392-4.151 1.737-6.227 7.02-4.87 11.32s5.637 7.337 10.104 7.75c4.468.412 8.975-1.54 12.203-4.68a24.7 24.7 0 0 0 6.378-11.725"/><path fill="#27272E" d="M38.893 46.16a7.2 7.2 0 0 1-2.273.58 10.7 10.7 0 0 1-6.22-1.302 11 11 0 0 1-3.402-2.864 10.64 10.64 0 0 1-2.076-4.68 12.75 12.75 0 0 1 .339-5.854 12.7 12.7 0 0 1 2.92-5.077 14.1 14.1 0 0 1 4.896-3.191 14.1 14.1 0 0 1 5.761-.934 12.93 12.93 0 0 1 8.683 3.594 8.7 8.7 0 0 1 2.557 5.806 7 7 0 0 1-.165 1.745c-.04.199-.103.342-.127.437-.023.095-.055.142-.063.142a9.8 9.8 0 0 0 .197-2.324 8.7 8.7 0 0 0-2.604-5.6 12.7 12.7 0 0 0-8.478-3.42 13.8 13.8 0 0 0-5.593.929 13.8 13.8 0 0 0-4.755 3.102 12.4 12.4 0 0 0-2.82 4.917 12.4 12.4 0 0 0-.338 5.665 10.26 10.26 0 0 0 1.966 4.53 11.06 11.06 0 0 0 4.126 3.242 11 11 0 0 0 5.149.97 17 17 0 0 0 2.32-.413"/><path fill="#9292A9" d="M43.993 49.619q-.248.211-.545.349a9.7 9.7 0 0 1-1.578.722c-.82.292-1.666.505-2.526.634-1.06.147-2.13.184-3.197.111a14.8 14.8 0 0 1-3.158-.595 14 14 0 0 1-2.407-1.007 10.6 10.6 0 0 1-1.476-.952c-.324-.262-.49-.413-.474-.436s.79.492 2.084 1.126a15.3 15.3 0 0 0 2.368.904c2.005.573 4.105.732 6.173.468a15.6 15.6 0 0 0 2.486-.531c1.405-.428 2.21-.865 2.25-.793m-20.727-9.424c.057-.332.163-.653.316-.952a5.5 5.5 0 0 1 1.673-2.174 7.87 7.87 0 0 1 3.844-1.3 19 19 0 0 1 4.95.237 26 26 0 0 1 8.453 2.927 22 22 0 0 1 2.29 1.468q.433.267.789.634a4.3 4.3 0 0 1-.86-.507 40 40 0 0 0-2.369-1.333 28.2 28.2 0 0 0-8.383-2.784 19.6 19.6 0 0 0-4.838-.262 7.8 7.8 0 0 0-3.71 1.158 5.5 5.5 0 0 0-1.697 2.007q-.207.452-.458.88m24.106 15.913s0 .096-.11.27-.237.405-.427.714a13 13 0 0 1-1.989 2.332 13.6 13.6 0 0 1-3.804 2.475 13.4 13.4 0 0 1-5.455 1.087 13.1 13.1 0 0 1-5.423-1.198 10.1 10.1 0 0 1-3.575-2.808 6.7 6.7 0 0 1-1.319-2.776 4.5 4.5 0 0 1-.102-.833v-.286s.047.397.237 1.079a7.15 7.15 0 0 0 1.397 2.634 10.2 10.2 0 0 0 3.504 2.65c1.66.74 3.457 1.123 5.273 1.125 1.816.02 3.618-.328 5.297-1.023a13.7 13.7 0 0 0 3.757-2.38 19.2 19.2 0 0 0 2.74-3.062"/><path fill="#9292A9" d="M48.88 60.233a7.3 7.3 0 0 1-.868 1.055 37 37 0 0 1-2.605 2.641 33 33 0 0 1-1.957 1.666 12.5 12.5 0 0 1-9.086 2.927 11.2 11.2 0 0 1-6.362-2.205 11.6 11.6 0 0 1-3.338-4.403 10.3 10.3 0 0 1-.877-3.625 8 8 0 0 1 0-1.023q.008-.177.056-.35.026.18 0 .358-.007.502.055 1a10.7 10.7 0 0 0 .97 3.521 11.6 11.6 0 0 0 3.316 4.22 11 11 0 0 0 6.149 2.095 13.36 13.36 0 0 0 6.425-1.222A13.8 13.8 0 0 0 43.19 65.3c.727-.555 1.382-1.102 1.966-1.586a57 57 0 0 0 2.691-2.53q.49-.507 1.035-.953"/><path fill="#1900AF" d="m55.519 36.07 1.152.912c-.465-1.967-2.66-3.173-4.665-2.999a6.74 6.74 0 0 0-2.78 1.117 6.8 6.8 0 0 0-2.027 2.215 16.5 16.5 0 0 0-1.934 5.727c-.615 3.332-.923 6.886.395 9.996s4.736 5.553 7.988 4.76 5.075-4.372 5.565-7.703a18.8 18.8 0 0 0-.438-7.388 18.7 18.7 0 0 0-3.256-6.637"/><path fill="#27272E" d="M50.996 51.158a5 5 0 0 1-3.157.682 6.6 6.6 0 0 1-2.234-.5c-.576-.23-.79-.666-.679-.674q.362.266.79.404a9.8 9.8 0 0 0 2.154.357 22 22 0 0 0 3.126-.27m1.602-5.885a16.8 16.8 0 0 1-3.79.087 17 17 0 0 1-3.772-.325 18 18 0 0 1 3.788-.088 18.3 18.3 0 0 1 3.773.326m6.758-22.204c-.095-3.316 2.968-5.886 6.046-7.14s6.496-1.673 9.243-3.53c2.432-1.641 4.066-4.204 6.118-6.306A20.34 20.34 0 0 1 89.967.703a20.27 20.27 0 0 1 10.653.019 20.35 20.35 0 0 1 9.186 5.422 20.5 20.5 0 0 1 5.206 9.34c1.184 4.76.378 10.313-3.332 13.486-4.309 3.649-10.703 2.84-16.22 1.706-5.518-1.135-11.77-2.261-16.38.999-2.778 1.967-4.373 5.164-6.077 8.123-1.705 2.959-3.829 5.973-7.041 7.084s-7.578-.793-7.704-4.22"/><path fill="#27272E" d="M59.577 24.893c.363 2.792-1.642 5.283-3.64 7.25-1.996 1.967-4.246 4.054-4.6 6.838-.411 3.26 1.949 6.465 1.262 9.67-.434 2.039-2.005 3.61-2.96 5.458a11.6 11.6 0 0 0-.592 8.535c.79 2.808 2.131 9.075 4.073 11.256 5.368 6.03 13.908 11.233 21.754 13.042s15.992 1.824 24.028 1.325c6.575-.405 14.137-.104 19.623-9.194 2.834-4.712 4.247-10.971 5.754-16.262 1.295-4.562 2.424-9.44 1.066-13.986-.789-2.649-2.368-4.997-3.157-7.647-.971-3.307-.616-6.853-1.011-10.312a23.64 23.64 0 0 0-3.8-10.421 23.5 23.5 0 0 0-8.124-7.52 23.36 23.36 0 0 0-21.457-.678"/><path fill="#B78876" d="M70.76 100.578s0 .198.04.293zm47.29-64.254c-.616-9.48-6.899-21.11-16.3-20.086l-29.356 7.528a5.52 5.52 0 0 0-3.562 1.858 5.57 5.57 0 0 0-1.371 3.79l3.22 69.577a9.4 9.4 0 0 0 .79 3.427c2.178 4.823 9.424 17.095 25.148 12.129 3.852-1.214 5.612-5.45 6.37-9.797 0-.515.213-.975.221-1.467a47 47 0 0 0 .118-9.773c.056-5.743.048-8.1.048-8.044s12.053-2.038 14.524-17.856c1.255-7.861.829-20.752.15-31.286"/><path fill="#27272E" d="M113.322 46.636a2.03 2.03 0 0 1-.556 1.42 2 2 0 0 1-1.386.627 1.9 1.9 0 0 1-1.426-.47 1.94 1.94 0 0 1-.658-1.355 2.03 2.03 0 0 1 .553-1.418 2 2 0 0 1 1.381-.629 1.92 1.92 0 0 1 1.429.47 1.94 1.94 0 0 1 .663 1.355m1.956-3.601c-.252.261-1.783-.873-3.946-.865s-3.758 1.11-3.994.84c-.119-.118.142-.594.828-1.102a5.55 5.55 0 0 1 3.197-1 5.3 5.3 0 0 1 3.158 1.016c.655.508.884.992.757 1.11m-23.449 3.602a2.02 2.02 0 0 1-.551 1.42 2 2 0 0 1-1.384.627 1.92 1.92 0 0 1-1.425-.47 1.94 1.94 0 0 1-.658-1.355 2.02 2.02 0 0 1 .55-1.42 2 2 0 0 1 1.384-.627 1.92 1.92 0 0 1 1.425.47 1.93 1.93 0 0 1 .659 1.355m2.106-3.173c-.253.262-1.784-.873-3.947-.857s-3.757 1.103-3.994.841c-.118-.119.134-.603.79-1.11a5.55 5.55 0 0 1 3.204-1 5.33 5.33 0 0 1 3.157 1.015c.687.54.916 1.016.79 1.11m7.917 16.191c0-.127 1.342-.364 3.529-.65.552-.056 1.073-.167 1.168-.547a2.9 2.9 0 0 0-.371-1.65c-.529-1.349-1.074-2.761-1.65-4.244-2.289-6.037-3.947-10.995-3.71-11.106s2.297 4.76 4.586 10.764l1.579 4.268a3.2 3.2 0 0 1 .292 2.182 1.38 1.38 0 0 1-.908.793 3.6 3.6 0 0 1-.939.135c-2.202.166-3.568.174-3.576.055"/><path fill="#AA6550" d="M103.408 85.506a39.9 39.9 0 0 1-21.052-5.64s5.32 10.939 21.068 9.424zm-2.465-20.626a3.94 3.94 0 0 0-3.512-1.45 3.58 3.58 0 0 0-2.463 1.332 2.29 2.29 0 0 0-.166 2.602 2.64 2.64 0 0 0 2.85.722 8.3 8.3 0 0 0 2.77-1.674c.246-.174.455-.395.616-.65a.72.72 0 0 0 0-.794"/><path fill="#27272E" d="M95.467 61.177c.356 0 .363 2.38 2.368 4.021s4.531 1.412 4.547 1.746c0 .142-.56.46-1.618.491a5.82 5.82 0 0 1-3.797-1.325 5.12 5.12 0 0 1-1.847-3.37c-.079-.992.181-1.58.347-1.564m-.561-21.513c-.213.595-2.368.317-4.925.635-2.558.317-4.61 1.015-4.95.483-.15-.253.206-.793 1.034-1.388a8.6 8.6 0 0 1 7.523-.856c.94.38 1.397.84 1.318 1.126"/><path fill="#27272E" d="M61.414 75.773c2.17.433 4.413.342 6.541-.266a13.94 13.94 0 0 0 5.702-3.232 14.04 14.04 0 0 0 3.61-5.488 14.1 14.1 0 0 0 .723-6.539c-.489-3.879-2.573-7.837-1.23-11.51 1.767-4.855 8.548-6.346 10.347-11.2 1.05-2.825.11-6.117 1.295-8.877 1.113-2.602 3.828-4.094 6.48-5.061 2.653-.968 5.486-1.587 7.704-3.356s3.608-5.013 2.179-7.449a148.4 148.4 0 0 0-34.384 8.393c-2.565.968-5.265 2.126-6.78 4.419-1.579 2.427-1.532 5.552-1.398 8.472l1.974 42.598"/><path fill="#9292A9" d="M62.402 81.214a1.1 1.1 0 0 1-.26-.166l-.696-.532c-.607-.484-1.507-1.19-2.604-2.173a27.6 27.6 0 0 1-3.702-3.911 14.55 14.55 0 0 1-2.945-6.513 9.94 9.94 0 0 1 2.029-8.313 31 31 0 0 1 3.67-3.173 8.6 8.6 0 0 0 2.858-3.92c1.16-3.228.647-6.956 1.097-10.772a21.5 21.5 0 0 1 4.46-10.899 14.7 14.7 0 0 1 4.665-3.831 29 29 0 0 1 5.525-1.865 12.75 12.75 0 0 0 4.831-2.38 19 19 0 0 0 3.513-3.886c1.973-2.816 3.433-5.823 5.32-8.33a17.7 17.7 0 0 1 3.102-3.308 11.8 11.8 0 0 1 3.67-2.014 7.86 7.86 0 0 1 6.994.698 6.47 6.47 0 0 1 2.479 4.76 4.78 4.78 0 0 1-.948 3.26 3 3 0 0 1-.639.61c-.158.127-.245.183-.253.167-.007-.016.064-.08.206-.214q.326-.291.576-.65a4.7 4.7 0 0 0 .789-3.174 6.22 6.22 0 0 0-2.47-4.426 7.41 7.41 0 0 0-6.607-.547 11.5 11.5 0 0 0-3.497 1.959 17.7 17.7 0 0 0-2.968 3.268c-1.823 2.467-3.26 5.466-5.257 8.361a19.7 19.7 0 0 1-3.615 4.03 13.4 13.4 0 0 1-5.052 2.53 28.5 28.5 0 0 0-5.383 1.833 14.1 14.1 0 0 0-4.452 3.657 20.93 20.93 0 0 0-4.318 10.526c-.458 3.689.071 7.48-1.168 10.908a9.3 9.3 0 0 1-3.07 4.164 32 32 0 0 0-3.632 3.054 9.5 9.5 0 0 0-1.973 7.853 14.45 14.45 0 0 0 2.77 6.347 30 30 0 0 0 3.568 3.966c1.074 1 1.942 1.745 2.518 2.26q.465.359.869.786"/><path fill="#27272E" d="M126.26 56.488c.421-.424.735-.944.915-1.515a5.85 5.85 0 0 0-.9-4.64c-.544-.881-1.278-1.754-2.02-2.745a9.5 9.5 0 0 1-1.816-3.538 12.5 12.5 0 0 1-.174-4.387c.166-1.515.466-3.054.664-4.625a18.1 18.1 0 0 0-1.027-8.773 19.7 19.7 0 0 0-3.765-6.195 18 18 0 0 0-3.733-3.174c-.979-.626-1.579-.912-1.579-.944q.229.058.434.175.616.28 1.192.635a16.9 16.9 0 0 1 3.868 3.117 19.5 19.5 0 0 1 3.907 6.259 18.25 18.25 0 0 1 1.081 8.956c-.197 1.586-.505 3.133-.671 4.617a12.1 12.1 0 0 0 .143 4.26 9.3 9.3 0 0 0 1.712 3.418c.727.992 1.461 1.888 2.005 2.8a5.9 5.9 0 0 1 .79 4.847 3.1 3.1 0 0 1-.703 1.167q-.143.164-.323.285"/></g><mask id="medic-hello-paper-primary_svg__c" width="174" height="147" x="19" y="0" maskUnits="userSpaceOnUse" style="mask-type:alpha"><path fill="#C4C4C4" d="M19.987 0h172.285v146.949H19.987z"/></mask><g mask="url(#medic-hello-paper-primary_svg__c)"><path fill="#B78876" d="M179.327 79.485c-1.349-4.117 1.09-18.88-2.123-18.903-4.105-.04-2.929 16.658-2.936 18.181s-2.155 1.475-2.076.127c.11-1.936.789-21.013-3.347-20.68-2.281.182-1.989 4.347-1.989 4.347s1.27 19.086-.671 19.18c-1.942.096-2.637-11.041-2.795-14.96-.157-3.752-1.728-5.244-3.449-3.966s-1.373 12.557-1.279 16.325.537 14.088-3.797 9.067c-4.333-5.022-9.472-7.282-11.303-6.925s-1.894 3.014-.039 3.879c1.499.698 3.662 2.633 5.225 4.157a23.8 23.8 0 0 1 3.157 4.315 20.8 20.8 0 0 1 2.613 6.346 12.9 12.9 0 0 0 2.343 4.855 12.8 12.8 0 0 0 4.122 3.458l-.205 6.997 20.01-1.745.386-13.232c.206-10.114 1.966-16.92 3.024-22.933 1.697-9.59.465-9.884-.679-9.829-2.495.088-2.866 15.953-4.192 11.939"/><path fill="#AA6550" d="M179.326 92.463a24 24 0 0 0-2.747.69 10.6 10.6 0 0 0-5.193 4.18c-.371.586-.68 1.208-.924 1.856l-.118.302-.245-.206a16.4 16.4 0 0 0-4.641-2.737c-1.263-.492-2.068-.659-2.053-.73a6.7 6.7 0 0 1 2.155.452 14.7 14.7 0 0 1 4.831 2.658l-.363.103a10.3 10.3 0 0 1 .955-1.952 10.6 10.6 0 0 1 2.668-2.816 10.4 10.4 0 0 1 2.818-1.428 9 9 0 0 1 2.084-.404 2.6 2.6 0 0 1 .773.032m-2.786 14.144a13.1 13.1 0 0 1-4.854 1.364 13.3 13.3 0 0 1-5.044-.119c0-.143 2.249 0 4.981-.357s4.878-1.023 4.917-.888"/><path fill="#FAFAFC" d="M122.834 107.209s10.427 5.355 15.913 13.066c5.486 7.71 22.055 31.619 22.055 31.619l-2.368-36.284 25.59-3.332s7.444 36.546 9.188 49.183c1.626 11.827.947 23.464-10.545 29.81-13.561 7.489-28.961-2.625-34.084-6.465-6.362-4.759-18.108-12.541-18.108-12.541z"/><path fill="#1900AF" d="m109.975 102.68-7.302-8.195-31.913-2.459-4.136 6.72L77.81 168.9l-5.036 70.871h41.583z"/><path fill="#FAFAFC" d="m102.674 94.486 20.444 13.295 4.325 14.263 4.136 44.47-4.562 45.509 7.878 27.749h-20.539l-.04-10.947-2.194-77.058-2.147-49.087z"/><path fill="#27272E" d="M113.686 162.389q.188-.275.339-.571c.221-.413.529-.976.908-1.69s.742-1.69 1.223-2.776c.221-.548.411-1.151.632-1.785.221-.635.466-1.301.647-2.023 1.721-5.712 2.865-13.954 2.621-23.052 0-.706-.048-1.404-.095-2.094v-.119l-.11-.048-3.205-1.357.047.334 3.197-2.578.071-.056v-.079a28 28 0 0 0-1.46-9.202c-.79-2.689-1.682-5.006-2.455-6.909a85 85 0 0 0-1.934-4.411 35 35 0 0 0-.56-1.15 3 3 0 0 0-.221-.389q.06.213.157.413l.513 1.182c.443 1.023 1.082 2.53 1.824 4.442a87 87 0 0 1 2.368 6.917 28.1 28.1 0 0 1 1.389 9.075l.071-.135-3.205 2.578-.252.206.3.127 3.197 1.357-.119-.167c.048.675.071 1.373.095 2.071.245 9.059-.845 17.269-2.494 23.004-.174.722-.411 1.389-.616 2.023s-.387 1.238-.6 1.785c-.458 1.087-.789 2.047-1.16 2.792-.371.746-.632 1.293-.837 1.714q-.161.273-.276.571m14.357 28.954q.104-.297.173-.603c.111-.428.253-1.007.434-1.729a56 56 0 0 0 .616-2.761c.213-1.079.49-2.308.711-3.681.221-1.372.497-2.871.702-4.489.205-1.619.411-3.356.6-5.18.331-3.657.552-7.695.552-11.939s-.252-8.274-.592-11.899c-.205-1.825-.378-3.562-.631-5.18s-.466-3.118-.71-4.49c-.245-1.372-.506-2.594-.727-3.673a65 65 0 0 0-.623-2.76c-.19-.754-.332-1.301-.442-1.73a2.8 2.8 0 0 0-.182-.595q.032.31.103.611c.095.437.213 1.024.371 1.753.158.73.363 1.682.56 2.769s.458 2.308.663 3.681c.206 1.372.466 2.863.663 4.482.198 1.618.403 3.339.592 5.164.316 3.649.545 7.671.561 11.899s-.213 8.25-.521 11.899c-.182 1.824-.332 3.553-.568 5.172-.237 1.618-.427 3.117-.648 4.482-.221 1.364-.458 2.601-.647 3.68a67 67 0 0 1-.553 2.777c-.165.761-.268 1.309-.363 1.745a3 3 0 0 0-.094.595"/><path fill="#27272E" d="M112.887 191.327c-2.163-1.134-4.807-.539-7.104.341s-4.539 2.063-6.978 2.039c-3.315 0-8.012-1.246-9.74-4.078a38.2 38.2 0 0 1-4.192-10.415c-2.636-12.193-3.236-22.894-5.872-35.094-1.437-6.632-3.26-14.279-5.707-20.625-2.368-6.132-4.578-12.478-6.441-18.784.331 14.278.663 28.668 2.857 42.836 1.42 9.099 3.6 18.062 4.791 27.185 1.019 7.814 1.303 15.707 1.58 23.584l7.395 9.09 20.389.413 10.648-13.803z" opacity=".3"/><path fill="#FAFAFC" d="M38.99 106.599a25.2 25.2 0 0 0-9.97 7.064 25.4 25.4 0 0 0-5.502 10.943c-5.983 26.526-16.229 61.803-16.387 73.186-.205 14.493 6.102 24.417 14.335 26.249 6.512 1.444 65.516-1.801 65.516-1.801l2.794-24.749-47.827-4.419 6.544-36.752-6.48-50.903z"/><path fill="#FAFAFC" d="m42.028 105.417 13.222-5.426 15.1-8.202.142.444c-1.705 2.935-3.52 8.353-2.881 11.692l11.587 60.78-2.628 44.423-3.797 30.659h-38.07l13.806-32.658-6.797-61.335z"/><path fill="#27272E" d="M63.105 96.072s0 .048-.056.143c-.055.095-.07.27-.126.444-.095.397-.268.968-.418 1.73a54 54 0 0 0-1.01 6.544 75 75 0 0 0-.253 9.979c.126 3.792.529 7.988 1.097 12.43v.143h.134l4.326.793-.15-.269c-.245.666-.506 1.388-.703 2.126a27.23 27.23 0 0 0 .497 14.738 46.6 46.6 0 0 0 5.076 10.987c1.8 2.935 3.434 5.196 4.554 6.767l1.31 1.785.348.46c.079.095.126.15.134.142a2 2 0 0 0-.102-.166c-.08-.135-.19-.286-.316-.484l-1.247-1.832c-1.082-1.587-2.676-3.872-4.444-6.823a47.4 47.4 0 0 1-4.965-10.939 27.05 27.05 0 0 1-.458-14.532c.19-.722.442-1.428.679-2.079l.087-.23-.23-.039-4.325-.794.158.167c-.576-4.434-.987-8.615-1.145-12.399-.155-3.313-.1-6.633.166-9.939.178-2.194.476-4.376.892-6.537.134-.793.284-1.34.355-1.745 0-.174.063-.325.087-.452a1 1 0 0 0 .047-.119m-.001 62.343v-9.694s-.126-2.38 1.879-1.888 1.626 4.276 1.626 4.276.379 14.738-.497 14.612c-.877-.127-1.216-1.262-1.216-1.262v-5.664zm-27.436-46.057a8 8 0 0 0 1.081.396q1.474.537 2.874 1.246a22.4 22.4 0 0 1 7.75 6.647c.58.784 1.09 1.618 1.524 2.491.38.829.686 1.689.916 2.57.398 1.502.663 3.037.79 4.586.11 1.316.134 2.379.141 3.173a8 8 0 0 0 0 1.158c.085-.38.127-.769.127-1.158a31 31 0 0 0 0-3.173 24 24 0 0 0-.695-4.657 15.5 15.5 0 0 0-.915-2.642 17.4 17.4 0 0 0-1.58-2.562 21.5 21.5 0 0 0-7.948-6.679 20 20 0 0 0-2.944-1.142 5.6 5.6 0 0 0-1.121-.254"/><path fill="#27272E" d="m70.515 91.582-.244.15-.79.437-2.912 1.658-11.256 6.259-18.945 7.98a20.37 20.37 0 0 0-9.543 7.933 27.5 27.5 0 0 0-3.015 6.132 32 32 0 0 0-1.681 7.004c-3.505 15.072-7.484 32.373-11.343 50.769-.79 3.966-1.58 7.869-2.368 11.732-.198.968-.356 1.936-.53 2.896-.173.96-.354 1.912-.473 2.871a31.5 31.5 0 0 0-.292 5.712c.133 3.72.985 7.379 2.51 10.772a20.5 20.5 0 0 0 2.826 4.562 16 16 0 0 0 3.947 3.395 16.8 16.8 0 0 0 9.646 2.38l9.598-.199c6.189-.15 11.959-.333 17.224-.515l24.943-.913 6.78-.261 1.768-.056h.6l-.6.048-1.76.103-6.78.333c-5.889.278-14.406.658-24.936 1.047-5.265.198-11.05.397-17.231.563l-9.606.222a17.16 17.16 0 0 1-9.843-2.419 16.7 16.7 0 0 1-4.058-3.467 21.4 21.4 0 0 1-2.88-4.648 29.2 29.2 0 0 1-2.558-10.923c-.08-1.933.018-3.869.292-5.783.118-.976.308-1.928.473-2.888.166-.96.332-1.935.53-2.895.725-3.871 1.515-7.79 2.367-11.74 3.86-18.388 7.854-35.697 11.39-50.769a32.5 32.5 0 0 1 1.674-7.052 27.3 27.3 0 0 1 3.07-6.196 20.63 20.63 0 0 1 9.71-8.02l18.991-7.932L66.513 93.7l2.984-1.586.79-.405zM53.071 36.546a17.4 17.4 0 0 0-4.435-5.204 17.3 17.3 0 0 0-6.09-3.08 17.24 17.24 0 0 0-13.258 1.715c-3.402 1.984-6.236 5.553-6.007 9.52.213 3.728 2.976 6.734 5.58 9.392-4.151 1.737-6.227 7.02-4.87 11.32s5.637 7.337 10.104 7.75c4.468.412 8.975-1.54 12.203-4.68a24.7 24.7 0 0 0 6.378-11.725"/><path fill="#27272E" d="M38.893 46.16a7.2 7.2 0 0 1-2.273.58 10.7 10.7 0 0 1-6.22-1.302 11 11 0 0 1-3.402-2.864 10.64 10.64 0 0 1-2.076-4.68 12.75 12.75 0 0 1 .339-5.854 12.7 12.7 0 0 1 2.921-5.077 14.1 14.1 0 0 1 4.896-3.191 14.1 14.1 0 0 1 5.76-.934 12.93 12.93 0 0 1 8.683 3.594 8.7 8.7 0 0 1 2.557 5.806 7 7 0 0 1-.165 1.745c-.04.199-.103.342-.127.437-.023.095-.055.143-.063.143a9.8 9.8 0 0 0 .198-2.325 8.7 8.7 0 0 0-2.605-5.6 12.7 12.7 0 0 0-8.478-3.42 13.8 13.8 0 0 0-5.593.929c-1.78.693-3.4 1.75-4.755 3.102a12.4 12.4 0 0 0-2.82 4.917 12.4 12.4 0 0 0-.338 5.665 10.26 10.26 0 0 0 1.966 4.53 11.06 11.06 0 0 0 4.126 3.242 11 11 0 0 0 5.149.97 17 17 0 0 0 2.32-.413"/><path fill="#9292A9" d="M48.88 60.233a7.3 7.3 0 0 1-.868 1.055 37 37 0 0 1-2.605 2.641 33 33 0 0 1-1.957 1.666 12.5 12.5 0 0 1-9.085 2.927 11.2 11.2 0 0 1-6.363-2.205 11.6 11.6 0 0 1-3.338-4.403 10.3 10.3 0 0 1-.877-3.625 8 8 0 0 1 0-1.023q.008-.177.056-.35.025.18 0 .358-.007.502.055 1c.12 1.22.448 2.412.97 3.521a11.6 11.6 0 0 0 3.316 4.22 11 11 0 0 0 6.149 2.095 13.4 13.4 0 0 0 6.425-1.222 13.8 13.8 0 0 0 2.432-1.587c.726-.555 1.38-1.102 1.965-1.586a57 57 0 0 0 2.692-2.53q.488-.507 1.034-.953"/><path fill="#1900AF" d="m55.519 36.07 1.152.912c-.465-1.967-2.66-3.173-4.665-2.998a6.7 6.7 0 0 0-2.78 1.116 6.8 6.8 0 0 0-2.027 2.215 16.5 16.5 0 0 0-1.934 5.728c-.615 3.331-.923 6.885.395 9.995s4.736 5.553 7.988 4.76 5.076-4.372 5.565-7.703a18.8 18.8 0 0 0-.438-7.387 18.7 18.7 0 0 0-3.256-6.638"/><path fill="#27272E" d="M50.996 51.158a5 5 0 0 1-3.157.682 6.6 6.6 0 0 1-2.234-.5c-.576-.23-.79-.666-.679-.674q.362.267.79.404a9.8 9.8 0 0 0 2.155.357 22 22 0 0 0 3.125-.27m1.602-5.885a16.8 16.8 0 0 1-3.79.087 17 17 0 0 1-3.772-.325 18 18 0 0 1 3.788-.088 18.3 18.3 0 0 1 3.774.326m-1.264-6.291c0 .135-1.168 0-2.542-.159a6 6 0 0 0-1.736.103c-.434.096-.695.207-.726.151s.19-.254.639-.436a4.4 4.4 0 0 1 1.847-.23c.868.027 1.723.22 2.518.571m8.021-15.913c-.095-3.316 2.968-5.886 6.046-7.14s6.497-1.673 9.243-3.53c2.432-1.641 4.066-4.204 6.118-6.306A20.34 20.34 0 0 1 89.967.703a20.27 20.27 0 0 1 10.653.019 20.34 20.34 0 0 1 9.186 5.422 20.5 20.5 0 0 1 5.206 9.34c1.184 4.76.378 10.313-3.331 13.486-4.31 3.649-10.704 2.84-16.221 1.706-5.518-1.135-11.77-2.261-16.38.999-2.778 1.967-4.372 5.164-6.077 8.123s-3.829 5.973-7.041 7.084-7.578-.793-7.704-4.22"/><path fill="#27272E" d="M59.577 24.893c.363 2.792-1.642 5.283-3.639 7.25-1.997 1.968-4.247 4.054-4.602 6.838-.41 3.26 1.95 6.465 1.263 9.67-.434 2.039-2.005 3.61-2.96 5.458a11.6 11.6 0 0 0-.592 8.535c.79 2.808 2.131 9.075 4.073 11.257 5.368 6.028 13.908 11.232 21.754 13.04 7.847 1.81 15.993 1.825 24.028 1.325 6.575-.404 14.137-.103 19.623-9.193 2.834-4.712 4.247-10.971 5.754-16.262 1.295-4.562 2.424-9.44 1.066-13.986-.789-2.649-2.368-4.997-3.157-7.647-.971-3.307-.616-6.853-1.011-10.312a23.64 23.64 0 0 0-3.8-10.421 23.5 23.5 0 0 0-8.124-7.52 23.36 23.36 0 0 0-21.457-.678"/><path fill="#B78876" d="M70.76 100.578s0 .198.04.294zm47.29-64.254c-.616-9.48-6.899-21.11-16.3-20.086l-29.356 7.528a5.52 5.52 0 0 0-3.562 1.858 5.57 5.57 0 0 0-1.371 3.79l3.22 69.577a9.4 9.4 0 0 0 .79 3.427c2.178 4.823 9.424 17.095 25.148 12.129 3.852-1.213 5.612-5.45 6.37-9.797 0-.515.213-.975.221-1.467a47 47 0 0 0 .119-9.773c.055-5.743.047-8.1.047-8.044s12.053-2.038 14.524-17.856c1.255-7.861.829-20.752.15-31.286"/><path fill="#27272E" d="M113.322 46.636a2.03 2.03 0 0 1-.556 1.421c-.363.382-.86.607-1.386.626a1.92 1.92 0 0 1-1.426-.47 1.94 1.94 0 0 1-.658-1.355 2.03 2.03 0 0 1 .553-1.418 2 2 0 0 1 1.381-.628 1.93 1.93 0 0 1 1.897 1.079c.114.233.18.486.195.745m1.956-3.601c-.252.261-1.783-.873-3.946-.865s-3.758 1.11-3.994.84c-.119-.118.142-.594.829-1.102a5.54 5.54 0 0 1 3.196-1 5.3 5.3 0 0 1 3.158 1.016c.655.508.884.992.757 1.11m-23.449 3.602a2.02 2.02 0 0 1-.551 1.42 2 2 0 0 1-1.383.627 1.92 1.92 0 0 1-1.892-1.08 1.9 1.9 0 0 1-.192-.745 2.02 2.02 0 0 1 .55-1.42 2 2 0 0 1 1.384-.626 1.92 1.92 0 0 1 1.891 1.08c.113.232.179.485.193.744m2.106-3.173c-.253.262-1.784-.873-3.947-.857s-3.757 1.103-3.994.841c-.118-.119.134-.603.79-1.11a5.55 5.55 0 0 1 3.204-1 5.33 5.33 0 0 1 3.158 1.015c.686.54.915 1.016.789 1.111m7.917 16.191c0-.128 1.342-.365 3.529-.651.552-.056 1.073-.167 1.168-.547a2.9 2.9 0 0 0-.371-1.65c-.529-1.349-1.074-2.76-1.65-4.244-2.289-6.037-3.947-10.995-3.71-11.106s2.297 4.76 4.586 10.765q.83 2.236 1.579 4.267a3.2 3.2 0 0 1 .292 2.182 1.38 1.38 0 0 1-.908.793 3.6 3.6 0 0 1-.939.135c-2.202.166-3.568.175-3.576.056"/><path fill="#AA6550" d="M103.408 85.506a39.9 39.9 0 0 1-21.052-5.64s5.32 10.939 21.068 9.424zm-2.465-20.626a3.94 3.94 0 0 0-3.512-1.45 3.58 3.58 0 0 0-2.463 1.332 2.29 2.29 0 0 0-.166 2.602 2.64 2.64 0 0 0 2.85.722 8.3 8.3 0 0 0 2.77-1.674c.246-.174.456-.395.616-.65a.72.72 0 0 0 0-.794"/><path fill="#27272E" d="M95.467 61.177c.356 0 .363 2.38 2.368 4.021s4.531 1.412 4.547 1.746c0 .142-.56.46-1.618.491a5.82 5.82 0 0 1-3.797-1.324 5.12 5.12 0 0 1-1.847-3.372c-.079-.991.181-1.578.347-1.562m-.561-21.514c-.213.595-2.368.317-4.925.635-2.558.317-4.61 1.015-4.95.484-.15-.254.206-.794 1.034-1.389a8.61 8.61 0 0 1 7.523-.856c.94.38 1.397.84 1.318 1.126m19.56-2.943c-.379.492-1.878 0-3.678 0s-3.315.341-3.671-.174c-.158-.254.087-.746.75-1.222a5.3 5.3 0 0 1 5.92.175c.64.468.845.975.679 1.221"/><path fill="#27272E" d="M61.414 75.773c2.17.433 4.413.342 6.541-.266a13.95 13.95 0 0 0 5.702-3.232 14.04 14.04 0 0 0 3.61-5.488 14.1 14.1 0 0 0 .724-6.539c-.49-3.879-2.574-7.837-1.232-11.51 1.768-4.855 8.549-6.346 10.348-11.2 1.05-2.825.11-6.117 1.295-8.877 1.113-2.602 3.828-4.094 6.48-5.061 2.653-.968 5.486-1.587 7.704-3.356s3.608-5.013 2.179-7.448a148.4 148.4 0 0 0-34.384 8.392c-2.565.968-5.265 2.126-6.78 4.419-1.579 2.427-1.532 5.553-1.397 8.472l1.973 42.598m62.083-20.189c.421-.424.735-.944.915-1.515a5.85 5.85 0 0 0-.9-4.64c-.544-.881-1.278-1.754-2.02-2.745a9.5 9.5 0 0 1-1.816-3.538 12.5 12.5 0 0 1-.173-4.387c.165-1.515.465-3.054.663-4.625a18.1 18.1 0 0 0-1.027-8.773 19.7 19.7 0 0 0-3.765-6.195 18 18 0 0 0-3.733-3.174c-.979-.626-1.579-.912-1.579-.944q.229.058.434.175.616.28 1.192.635a17 17 0 0 1 3.868 3.117 19.5 19.5 0 0 1 3.907 6.259 18.25 18.25 0 0 1 1.081 8.956c-.197 1.587-.505 3.133-.67 4.617a12.1 12.1 0 0 0 .142 4.26 9.3 9.3 0 0 0 1.712 3.419c.727.991 1.461 1.888 2.005 2.8.472.703.786 1.5.922 2.336a5.9 5.9 0 0 1-.132 2.51 3.1 3.1 0 0 1-.703 1.167q-.143.164-.323.285"/></g></g><defs><clipPath id="medic-hello-paper-primary_svg__a"><path fill="#fff" d="M.31 0h200v240H.31z"/></clipPath></defs></svg>