<svg xmlns="http://www.w3.org/2000/svg" width="209" height="240" fill="none" viewBox="0 0 209 240"><ellipse cx="104.533" cy="135.553" fill="#EEEBFF" rx="102.864" ry="104.033"/><mask id="medic-accompanying-secondary_svg__a" width="207" height="209" x="1" y="31" maskUnits="userSpaceOnUse" style="mask-type:alpha"><ellipse cx="104.533" cy="135.553" fill="#fff" rx="102.864" ry="104.033"/></mask><g mask="url(#medic-accompanying-secondary_svg__a)"><path fill="#FAFAFC" d="M154.096 178.342s22.403-5.42 23.146-6.357l-18.429-48.011a35.2 35.2 0 0 0-8.366-13.063 34.64 34.64 0 0 0-13.127-8.123 60.3 60.3 0 0 0-21.76-3.4l-31.109-1.665a61.1 61.1 0 0 0-24.547 6.869c-10.458 5.514-18.628 14.622-23.039 25.685l-13.95 35.242 35.22 7.441 1.34 37.867-5.306 52.246h97.132l-.673-82.81z"/><path fill="#fff" d="M173.405 165.712c0 .109-5.78 2.029-13.016 4.283-7.235 2.253-13.07 4.003-13.1 3.871-.031-.131 5.773-2.028 13.016-4.29s13.07-3.972 13.1-3.864" opacity=".3"/><path fill="#27272E" d="M71.75 131.965a5.2 5.2 0 0 1-.598-.828 40 40 0 0 0-1.6-2.246 37 37 0 0 0-2.642-3.097 41 41 0 0 0-3.644-3.407 43 43 0 0 0-4.066-2.897 39 39 0 0 0-3.576-1.943 39 39 0 0 0-2.51-1.115 4.4 4.4 0 0 1-.927-.418q.5.092.98.271 1.31.434 2.572.998a35 35 0 0 1 3.653 1.89 39 39 0 0 1 4.119 2.896 38 38 0 0 1 3.667 3.469 35 35 0 0 1 2.596 3.206 25 25 0 0 1 1.531 2.323q.27.426.444.898m-4.587 11.461c.107 0-.98 11.569-2.427 25.817-1.447 14.249-2.71 25.795-2.818 25.779-.107-.015.973-11.569 2.427-25.817 1.455-14.249 2.734-25.794 2.818-25.779m76.484-21.388a22 22 0 0 1-.498-2.323c-.389-1.88-.9-3.732-1.531-5.544a43 43 0 0 0-2.297-5.281 22 22 0 0 1-1.087-2.13s.168.163.406.503c.237.341.558.852.934 1.487a33 33 0 0 1 2.419 5.281 32.4 32.4 0 0 1 1.447 5.63c.115.736.184 1.332.215 1.75.026.208.023.42-.008.627m1.959 40.383a7 7 0 0 1-.184-1.138 98 98 0 0 1-.344-3.097 173 173 0 0 1-.659-10.323 179 179 0 0 1-.061-10.353c.038-1.324.077-2.393.123-3.097q0-.579.115-1.147.066.572.046 1.147v3.112c0 2.641.038 6.296.176 10.33.137 4.035.359 7.674.543 10.315.084 1.262.153 2.323.215 3.097q.07.576.03 1.154"/><path fill="#FF646E" d="M98.563 155.661a158 158 0 0 1-24.501-.464v3.236h24.5z"/><path fill="#27272E" d="M122.971 102.122q.078.238.1.487l.214 1.425c.153 1.255.368 3.098.544 5.421.367 4.646.689 11.267.765 19.08v.294l-.268-.124c-4.884-2.408-10.359-5.025-16.078-7.906L80.4 106.706l-8.422-4.313-2.297-1.185-.582-.325a1 1 0 0 1-.199-.117.8.8 0 0 1 .214.086l.605.278 2.297 1.123 8.469 4.197 27.939 13.985c5.696 2.881 11.163 5.506 16.079 7.93l-.261.162c-.084-7.797-.352-14.411-.658-19.064-.138-2.324-.322-4.159-.437-5.421q-.103-.908-.16-1.433a5 5 0 0 1-.016-.487" opacity=".3"/><path fill="#fff" d="M64.437 169.011a1.4 1.4 0 0 1-.406-.07l-1.14-.271-4.189-1.076a992 992 0 0 0-13.827-3.492 1022 1022 0 0 0-13.882-3.291l-4.211-.976-1.141-.279a2 2 0 0 1-.39-.124q.202-.029.405 0l1.157.209c1.003.186 2.45.48 4.241.852 3.576.774 8.5 1.851 13.912 3.175a427 427 0 0 1 13.782 3.608c1.761.496 3.186.906 4.158 1.201l1.125.348q.213.07.406.186" opacity=".3"/><path fill="#27272E" d="M118.662 96.26c0-.117 2.105.998 4.134 4.042s3.875 7.743 4.924 13.164c.482 2.556.781 5.144.895 7.744 0 1.192.054 2.323 0 3.384-.053 1.06-.069 2.044-.16 2.942-.092.898-.184 1.696-.261 2.416-.076.72-.214 1.309-.298 1.804a5.6 5.6 0 0 1-.368 1.549 6 6 0 0 1 .061-1.549l.161-1.812c.046-.72.092-1.548.138-2.408s0-1.866.069-2.911c.069-1.046-.054-2.169-.092-3.338a61 61 0 0 0-.942-7.589 41.6 41.6 0 0 0-4.594-12.986 17.8 17.8 0 0 0-2.549-3.283q-.591-.555-1.118-1.17m-34.815.225a17 17 0 0 1-1.616 2.323 33.3 33.3 0 0 0-3.606 6.815 46.8 46.8 0 0 0-2.672 11.127c-.56 4.29-.766 9.091-1.11 14.117s-.269 9.811-.276 14.171 0 8.293 0 11.615-.084 5.986-.176 7.837c.008.962-.087 1.923-.284 2.865a13.6 13.6 0 0 1-.183-2.873c-.054-1.882-.115-4.545-.2-7.821-.084-3.276-.191-7.233-.252-11.615s-.077-9.184.184-14.249c.26-5.064.581-9.842 1.21-14.202a44.8 44.8 0 0 1 2.985-11.305 28.5 28.5 0 0 1 4.02-6.76 10.5 10.5 0 0 1 1.976-2.045"/><path fill="#27272E" d="M135.33 161.213a15 15 0 0 1-.153-2.555c-.046-1.65-.084-4.035-.115-6.969 0-1.479 0-3.098-.046-4.817s0-3.593-.099-5.498a9.17 9.17 0 0 0-1.953-5.421 7.4 7.4 0 0 0-2.411-1.862 7.3 7.3 0 0 0-2.948-.724 8.37 8.37 0 0 0-5.643 2.215 9.86 9.86 0 0 0-2.849 5.025c-.474 1.843-.673 3.694-.957 5.421l-.765 4.755c-.46 2.903-.85 5.258-1.134 6.876a16 16 0 0 1-.52 2.509c-.004-.857.068-1.712.214-2.556.192-1.633.49-3.995.881-6.915.199-1.463.421-3.058.651-4.77.229-1.711.428-3.554.903-5.49a10.5 10.5 0 0 1 3.063-5.42 9.13 9.13 0 0 1 6.117-2.447 8 8 0 0 1 3.289.793 8.1 8.1 0 0 1 2.683 2.079 9.83 9.83 0 0 1 2.098 5.87c.115 1.982 0 3.818 0 5.552 0 1.735-.038 3.346-.061 4.817 0 2.942-.084 5.327-.138 6.969q.05 1.286-.107 2.563"/><path fill="#27272E" d="M127.941 125.809c-.253 2.711-1.11 5.754-2.971 7.744a10.64 10.64 0 0 1 4.939.093c-1.164-2.323-1.348-5.188-1.317-7.813m6.761 17.593c-.145 0-.229-1.301-1.209-3.097a9.6 9.6 0 0 0-2.228-2.695 8.2 8.2 0 0 0-3.767-1.812 7.96 7.96 0 0 0-4.15.418 9 9 0 0 0-2.963 1.812c-1.486 1.363-1.976 2.602-2.106 2.532s.23-1.37 1.715-2.942a8.9 8.9 0 0 1 3.063-2.091 8.34 8.34 0 0 1 4.548-.527c1.526.293 2.944 1 4.104 2.045a9.2 9.2 0 0 1 2.251 2.996c.942 1.983.811 3.369.742 3.361"/><path fill="#FFBE9D" d="M155.842 231.146c4.594 0 8.637-3.322 10.781-7.387 2.144-4.066 2.695-8.797 2.902-13.405a110 110 0 0 0-4.38-36.162l-19.968 3.523 5.443 54.43z"/><path fill="#27272E" d="m75.018 237.922 65.066-2.393 15.78-77.111-68.534 3.848z"/><path fill="#555567" d="m108.508 160.942.98-1.967 5.192-.379s1.317-3.446 8.743-3.802c6.646-.31 6.891 3.097 6.891 3.097h3.584v1.65z"/><path fill="#FFBE9D" d="m144.786 213.072 4.931-1.448a5.99 5.99 0 0 1 5.918 1.503c1.631 1.626 4.265 4.313 4.64 5.118.551 1.169.551 3.198 0 3.942-.551.743 1.21 4.592.988 5.869a8.1 8.1 0 0 1-.988 3.098c-.444.534 0 2.362-1.102 3.74a18.4 18.4 0 0 1-2.091 2.23s-13.552.643-14.869 0-3.637-3.097-3.637-3.097-1.21-2.238.659-2.455l-7.711-2.981a1.85 1.85 0 0 1-1.023-.933 1.88 1.88 0 0 1-.094-1.39 1.3 1.3 0 0 1 .681-.775s-3.461-1.107-4.265-1.463c-1.6-.713-2.205-4.476 1.11-3.996 1.746.256 4.112.774 4.112.774s-1.263-2.075.505-3.314c1.072-.774 5.896.163 5.896.163l6.34-4.577z"/><path fill="#EB996E" d="M146.501 233.64a11.3 11.3 0 0 1-4.004-.604 9.9 9.9 0 0 1-3.691-1.689c.054-.092 1.669.705 3.829 1.301 2.159.597 3.882.899 3.866.992m-2.948-4.871a52 52 0 0 1-6.287-1.417 50 50 0 0 1-6.186-1.805 104 104 0 0 1 12.473 3.222m1.623-4.848a118 118 0 0 1-13.445-3.182c4.539.796 9.028 1.859 13.445 3.182m4.999-6.241a8.8 8.8 0 0 1-1.738.565l-1.914.496-1.133.286a4.3 4.3 0 0 1-1.302.124 7 7 0 0 1-1.271-.209l-1.141-.263-1.914-.465a8.3 8.3 0 0 1-1.753-.534c.61.017 1.216.103 1.807.255l1.945.38q1.164.279 2.35.434a8.5 8.5 0 0 0 2.297-.364l1.937-.419a8.5 8.5 0 0 1 1.83-.286m.866 2.625c.046 0 .23.139.375.511.197.494.216 1.042.054 1.549a2.32 2.32 0 0 1-.904 1.231c-.329.217-.574.248-.597.201s.766-.526 1.118-1.548a4.34 4.34 0 0 0-.046-1.944m-.275 5.297c.092-.047.398.503.352 1.254s-.398 1.27-.49 1.208.061-.573.092-1.231c.03-.658-.069-1.193.046-1.231"/><path fill="#FF646E" d="M150.842 231.347c.099-.038.306.333.206.821-.099.488-.421.775-.505.674s.046-.372.115-.774c.069-.403.076-.69.184-.721"/><path fill="#EB996E" d="M152.319 217.362a4.1 4.1 0 0 1-1.302-.062l-1.393-.185a5.4 5.4 0 0 0-1.662-.086 4.1 4.1 0 0 0-1.47.674c-.428.287-.765.612-1.156.821-.362.27-.798.422-1.248.434 0-.07.467-.202 1.095-.674a6.64 6.64 0 0 1 2.726-1.649q.466-.047.934 0c.314 0 .566.092.834.139l1.386.263c.432.048.855.158 1.256.325m7.825 14.04a7 7 0 0 1 .345-.953 6.8 6.8 0 0 0 .252-4.646c-.153-.681-.467-1.363-.635-2.176a6.9 6.9 0 0 1 .168-2.532 4.53 4.53 0 0 0-.444-2.486 11.6 11.6 0 0 0-1.409-2.207c-.528-.674-1.041-1.332-1.531-1.92a9.1 9.1 0 0 0-3.208-2.532 5.1 5.1 0 0 0-2.695-.419c-.643.093-.98.264-.995.233s.076-.062.237-.147q.37-.162.766-.24a5.1 5.1 0 0 1 2.825.302 9.1 9.1 0 0 1 3.369 2.555 42 42 0 0 1 1.592 1.92 12.2 12.2 0 0 1 1.463 2.323c.413.839.575 1.781.467 2.711a7 7 0 0 0-.192 2.408c.146.774.452 1.464.598 2.161.169.649.254 1.318.252 1.99a7.2 7.2 0 0 1-.681 2.787 4 4 0 0 1-.544.868"/><path fill="#FFBE9D" d="m114.596 193.28-53.42 8.58 2.373-28.195-29.708-5.808-3.614 41.746-.628 9.571a18.9 18.9 0 0 0 1.756 9.262 18.65 18.65 0 0 0 6 7.217 18.4 18.4 0 0 0 7.904 3.233c2.847.441 5.756.204 8.497-.693l11.485-3.787 55.985-20.133"/><path fill="#FFBE9D" d="M146.922 187.449a1.56 1.56 0 0 0-.881-1.668 1.5 1.5 0 0 0-.651-.137c-3.009 0-11.14 0-14.011.86-3.553 1.014-16.791 6.76-16.791 6.76l5.612 20.908 20.313.217s7.419-3.446 7.511-4.941a24 24 0 0 0-.184-2.795l2.244-1.216c3.338-2.137 1.194-6.249 1.194-6.249s2.297-1.301 2.42-3.655a3.7 3.7 0 0 0-.4-1.993 3.64 3.64 0 0 0-1.392-1.468s.919-3.315-.766-4.205c-1.684-.891-4.594.248-4.594.248.194-.175.326-.409.376-.666"/><path fill="#EB996E" d="M148.093 187.789a2 2 0 0 1-.628.225c-.406.116-1.01.248-1.753.379-1.531.271-3.568.496-5.858.775a47 47 0 0 0-5.803.898c-1.463.341-2.297.774-2.297.774q.252-.225.559-.364a10 10 0 0 1 1.684-.658 35.5 35.5 0 0 1 5.827-1.022c2.297-.248 4.372-.426 5.857-.619 1.486-.194 2.389-.442 2.412-.388m3.821 4.197a4.9 4.9 0 0 1-1.432.736c-1.2.469-2.437.834-3.698 1.092-1.478.31-2.817.511-3.828.643a6.5 6.5 0 0 1-1.585.124c0-.132 2.374-.566 5.298-1.162a38 38 0 0 0 3.691-.96 9 9 0 0 1 1.554-.473m-.612 7.28a21.8 21.8 0 0 1-8.913 2.044c0-.124 2.022-.38 4.472-.945s4.441-1.216 4.441-1.099m-1.21 6.21a15.2 15.2 0 0 1-6.891 1.68 549 549 0 0 0 6.891-1.68m-10.597-3.678c0 .046-.207.178-.62.217a2.28 2.28 0 0 1-1.531-.426 2.38 2.38 0 0 1-.911-1.325c-.1-.41-.046-.665 0-.665.045 0 .214.998 1.133 1.657.59.335 1.252.521 1.929.542m-.444 6.458c0 .108-.766.155-1.493-.472-.728-.628-.766-1.449-.636-1.441s.314.62.904 1.139c.589.518 1.225.658 1.225.774m-2.297-13.188c.046.109-.513.287-1.034-.116-.52-.402-.505-.991-.39-.975.115.015.245.379.628.658.382.279.742.325.796.433"/><path fill="#EB996E" d="m114.595 193.28.161-.093.482-.225 1.884-.844c1.654-.72 4.05-1.765 7.09-3.028 1.531-.619 3.185-1.308 5.023-1.998a19 19 0 0 1 2.909-.913 31 31 0 0 1 3.231-.403c2.221-.178 4.594-.255 7.029-.286h2.81c.35-.018.698.056 1.011.216.333.165.601.439.758.779s.195.723.107 1.088a.57.57 0 0 1-.23.263l-.229.147-.46.217a8 8 0 0 1-.965.341.2.2 0 0 1-.237-.14.2.2 0 0 1-.005-.077.2.2 0 0 1 .074-.13.2.2 0 0 1 .069-.033q1.246-.366 2.527-.573a9 9 0 0 1 2.679-.093c.486.055.944.254 1.317.573.345.358.572.815.651 1.309a6.9 6.9 0 0 1-.176 2.826l-.099-.24c.438.256.821.598 1.125 1.007a4.08 4.08 0 0 1 .582 3.663 5.4 5.4 0 0 1-2.297 2.811l.077-.271a6.47 6.47 0 0 1 .643 3.577 4.15 4.15 0 0 1-.633 1.681 4.1 4.1 0 0 1-1.281 1.246l-2.236 1.216.099-.194c.054.542.108 1.084.146 1.619 0 .263 0 .534.038.774v.411a1.1 1.1 0 0 1-.161.441c-.322.433-.713.81-1.156 1.115-.413.31-.842.589-1.263.852a55 55 0 0 1-5.046 2.671h-.069l-14.785-.232-4.088-.085-1.072-.039a1.6 1.6 0 0 1-.368 0q.183-.018.368 0h5.16l14.785.085h-.069a54 54 0 0 0 5-2.679c.414-.255.835-.534 1.233-.836.405-.277.762-.62 1.056-1.015a.7.7 0 0 0 .115-.271v-1.153a39 39 0 0 0-.153-1.596.18.18 0 0 1 .1-.186l2.235-1.223a3.73 3.73 0 0 0 1.738-2.656 6.14 6.14 0 0 0-.612-3.338.2.2 0 0 1 .084-.263 5.04 5.04 0 0 0 2.144-2.586 3.69 3.69 0 0 0-.528-3.299 3.3 3.3 0 0 0-.988-.883.21.21 0 0 1-.1-.232 6.6 6.6 0 0 0 .169-2.641 1.75 1.75 0 0 0-.538-1.079c-.3-.284-.69-.45-1.101-.469a8.6 8.6 0 0 0-2.557.092q-1.258.192-2.481.55l-.099-.379a6.6 6.6 0 0 0 1.332-.511c.13-.07.268-.209.314-.194a1.66 1.66 0 0 0-.123-.813 1.4 1.4 0 0 0-.589-.596 1.6 1.6 0 0 0-.835-.171h-2.802a96 96 0 0 0-7.014.256 31 31 0 0 0-3.192.379q-1.469.332-2.872.883c-1.829.674-3.506 1.348-5.03 1.952l-7.128 2.919-1.907.774-.497.202zm-53.205 8.518a21.2 21.2 0 0 0-3.944 3.446 21 21 0 0 0-2.633 4.553 4.4 4.4 0 0 1 .398-1.549 12.15 12.15 0 0 1 4.77-5.8 4.4 4.4 0 0 1 1.409-.65"/><path fill="#FFBE9D" d="M131.15 34.729a27.4 27.4 0 0 0-8.562-17.882 26.82 26.82 0 0 0-18.282-7.27h-1.402c-15.068.86-22.77 14.28-21.5 29.496L84 100.054c.02.498.174.981.443 1.398.27.417.646.753 1.088.971l33.828 16.053-.981-32.004s14.494-2.246 14.701-16.897c.061-7.07-.919-21.659-1.929-34.847"/><path fill="#EB996E" d="M118.463 86.417a34.8 34.8 0 0 1-18.966-5.653s4.441 10.547 18.897 9.293z"/><path fill="#27272E" d="M126.034 43.827a2.1 2.1 0 0 1-.577 1.462 2.07 2.07 0 0 1-1.421.645 1.95 1.95 0 0 1-1.461-.488 2 2 0 0 1-.668-1.402 2.1 2.1 0 0 1 .571-1.464 2.05 2.05 0 0 1 1.42-.642 1.96 1.96 0 0 1 1.462.49 2 2 0 0 1 .674 1.4"/><path fill="#27272E" d="M128.025 41.891c-.26.271-1.822-.906-4.05-.906s-3.828 1.131-4.096.852c-.123-.124.137-.612.849-1.138a5.66 5.66 0 0 1 3.285-1.014 5.4 5.4 0 0 1 3.224 1.06c.681.527.911 1.023.788 1.146m-23.888 2.618c.006.546-.2 1.072-.574 1.466a2.05 2.05 0 0 1-1.425.64 1.95 1.95 0 0 1-1.459-.49 2 2 0 0 1-.669-1.4 2.1 2.1 0 0 1 .575-1.464 2.06 2.06 0 0 1 1.423-.642 1.96 1.96 0 0 1 1.459.49 2 2 0 0 1 .67 1.4m1.99-2.23c-.252.27-1.822-.899-4.042-.899s-3.829 1.123-4.104.844c-.115-.123.145-.611.857-1.13a5.6 5.6 0 0 1 3.285-1.022 5.44 5.44 0 0 1 3.216 1.06c.697.52.934 1.015.788 1.147m8.063 16.695c0-.124 1.37-.364 3.614-.65.566-.062 1.11-.17 1.202-.566a2.93 2.93 0 0 0-.375-1.703l-1.67-4.383c-2.297-6.195-4.004-11.36-3.751-11.453s2.297 4.886 4.655 11.127l1.6 4.407c.357.693.46 1.49.291 2.253a1.42 1.42 0 0 1-.942.836 4 4 0 0 1-.964.14c-2.251.116-3.653.124-3.66-.008m-6.532 1.549c.36 0 .36 2.416 2.427 4.158s4.633 1.471 4.656 1.812c0 .155-.575.48-1.662.503a5.97 5.97 0 0 1-3.89-1.378 5.3 5.3 0 0 1-1.875-3.485c-.115-1.022.153-1.626.344-1.61m-.918-27.08c-.223.612-2.443.318-5.054.635-2.61.318-4.724 1.03-5.076.48-.153-.263.214-.844 1.072-1.432a8.45 8.45 0 0 1 3.759-1.324 8.34 8.34 0 0 1 3.951.48c.957.395 1.439.875 1.348 1.161m20.481 1.936c-.398.503-1.929 0-3.774-.054-1.846-.054-3.4.333-3.76-.202-.161-.255.092-.774.766-1.254a5.42 5.42 0 0 1 6.064.201c.658.527.873 1.053.704 1.309"/><path fill="#FFBE9D" d="M83.57 49.914c-.245-.109-9.953-2.997-9.647 7.023S84.1 64.58 84.106 64.294c.008-.287-.536-14.38-.536-14.38"/><path fill="#EB996E" d="M81.84 60.592c-.046 0-.168.124-.459.271-.404.19-.865.215-1.286.07-1.057-.364-1.991-2.013-2.09-3.818a5.9 5.9 0 0 1 .405-2.509 2 2 0 0 1 .463-.847c.22-.24.495-.422.8-.53a.88.88 0 0 1 .595.034c.188.08.344.224.44.407.137.278.084.48.13.495.045.016.214-.17.122-.58a1.17 1.17 0 0 0-.413-.62c-.278-.2-.622-.28-.958-.225a2.4 2.4 0 0 0-1.087.57c-.308.28-.54.636-.674 1.033a6 6 0 0 0-.513 2.811c.123 2.021 1.203 3.872 2.642 4.251a1.82 1.82 0 0 0 1.531-.317c.337-.225.383-.48.353-.496"/><path fill="#27272E" d="m90.05 20.147 41.284.922a19 19 0 0 0-6.064-7.093 32 32 0 0 0-18.698-6.807c-6.73-.124-20.443 8.177-25.32 12.87-3.905 3.756-3.874 7.008-3.874 7.008-.62 5.42 2.373 11.569 3.567 16.889.613 2.741 1.8 11.035 1.8 11.035 2.297 0 3.116-1.836 2.771-4.112l-.42-8.929s7.733-5.56 4.065-15.735c-.567-.813-1.822-4.53.888-6.048"/><path fill="#EB996E" d="M98.731 51.819a.25.25 0 0 1-.238-.15.3.3 0 0 1-.022-.098.26.26 0 0 1 .184-.317.27.27 0 0 1 .194.05.27.27 0 0 1 .104.174.27.27 0 0 1-.03.224.26.26 0 0 1-.192.117m4.257-.969a.31.31 0 0 1-.306-.255.296.296 0 0 1 .183-.356.283.283 0 0 1 .299.263.277.277 0 0 1-.176.349m2.864-.054c-.138 0-.268-.147-.299-.372s.061-.418.199-.434c.138-.015.261.147.291.372.031.225-.061.434-.191.434m-5.038 3.724c-.131 0-.245-.07-.245-.154 0-.086.114-.163.245-.163.13 0 .245.077.245.163 0 .085-.108.154-.245.154m3.904-.906a.27.27 0 0 1-.201-.065.28.28 0 0 1 .156-.492.26.26 0 0 1 .268.255.27.27 0 0 1-.223.302m20.298-2.408a.253.253 0 0 1-.291-.224.273.273 0 0 1 .184-.325.266.266 0 0 1 .298.224.264.264 0 0 1-.191.325m2.902-.263a.313.313 0 0 1-.412-.29.3.3 0 0 1 .051-.185.313.313 0 0 1 .5-.035.32.32 0 0 1 .075.177.29.29 0 0 1-.214.333m-5.459.333a.237.237 0 0 1-.283-.163.247.247 0 0 1 .376-.258.25.25 0 0 1 .106.157.24.24 0 0 1-.048.172.24.24 0 0 1-.151.092m2.143 2.935a.29.29 0 0 1-.436-.154.3.3 0 0 1-.002-.176.29.29 0 0 1 .261-.21.29.29 0 0 1 .284.176.273.273 0 0 1-.107.364m2.473-.496a.23.23 0 0 1-.144-.094.23.23 0 0 1-.04-.17.25.25 0 0 1 .426-.03.26.26 0 0 1 .049.162.23.23 0 0 1-.291.132"/><path fill="#27272E" d="M80.998 20.596a12.5 12.5 0 0 1-.087-5.647 12.4 12.4 0 0 1 2.41-5.095 12.2 12.2 0 0 1 4.402-3.476 12.1 12.1 0 0 1 5.472-1.13c1.93.078 3.828.628 5.757.419 3.576-.395 6.332-3.291 9.648-4.7a12.45 12.45 0 0 1 8.19-.333c2.69.817 5.033 2.52 6.656 4.84 1.256 1.896 2.075 4.243 4.004 5.42 1.662 1.03 3.76.944 5.628 1.548 3.782 1.146 6.37 5.212 6.171 9.2a11 11 0 0 1-2.022 5.534 10.83 10.83 0 0 1-4.57 3.665 13.1 13.1 0 0 1-11.408-.774c-3.117-1.758-5.904-4.747-9.472-4.646-3.69.108-6.891 3.624-10.535 2.896-1.9-.38-3.362-1.859-4.755-3.221-1.394-1.363-2.986-2.75-4.923-2.866s-2.94 2.571-2.244 4.399z"/><path fill="#FAFAFC" d="M67.57 177.258a8.43 8.43 0 0 0 1.73 4.337c.888 1.169 2.687 2.323 4.134 2.222a6.26 6.26 0 0 0 3.152-.67 6.35 6.35 0 0 0 2.415-2.156c1.768-2.835 2.197-8.743.765-12.235-.972-2.401-3.162-4.647-5.727-4.701-3.369-.077-5.482 2.385-6.202 4.879"/><path fill="#27272E" d="M67.845 168.934c.112-.59.324-1.156.627-1.673a6.7 6.7 0 0 1 1.264-1.68 5.8 5.8 0 0 1 2.38-1.41 6 6 0 0 1 1.601-.263 4.8 4.8 0 0 1 1.754.232 6.9 6.9 0 0 1 3.131 2.269 9.25 9.25 0 0 1 1.838 3.872 17 17 0 0 1 .344 4.592c-.16 2.424-.628 4.84-1.96 6.683a5.9 5.9 0 0 1-2.542 1.936 6.75 6.75 0 0 1-2.871.488 4.3 4.3 0 0 1-2.067-.511 7 7 0 0 1-1.532-1.1 7.8 7.8 0 0 1-1.692-2.54 8 8 0 0 1-.536-1.882 4 4 0 0 1-.046-.511.4.4 0 0 1 0-.178c.148.861.406 1.699.766 2.494.412.908.988 1.73 1.7 2.423.462.41.977.754 1.531 1.022a4 4 0 0 0 1.914.457 6.06 6.06 0 0 0 2.823-.54 6.1 6.1 0 0 0 2.269-1.783c1.233-1.727 1.707-4.104 1.86-6.473.161-3.098-.344-6.149-2.067-8.209a6.7 6.7 0 0 0-2.948-2.183 4.7 4.7 0 0 0-1.646-.24 5.67 5.67 0 0 0-3.828 1.533 6.8 6.8 0 0 0-1.302 1.58q-.427.775-.766 1.595"/><path fill="#27272E" d="M66.067 169.081a5.3 5.3 0 0 1 .628-1.665 6.5 6.5 0 0 1 1.264-1.68 5.85 5.85 0 0 1 3.981-1.673 4.8 4.8 0 0 1 1.753.232 6.85 6.85 0 0 1 3.132 2.269 9.25 9.25 0 0 1 1.837 3.872c.326 1.507.44 3.053.337 4.592-.153 2.424-.62 4.832-1.952 6.683a5.9 5.9 0 0 1-2.542 1.936c-.911.37-1.89.536-2.871.487a4.3 4.3 0 0 1-2.068-.518 6.5 6.5 0 0 1-1.53-1.092 7.7 7.7 0 0 1-1.693-2.548 7.5 7.5 0 0 1-.536-1.874 4 4 0 0 1-.046-.511.4.4 0 0 1 0-.178c.149.858.406 1.694.766 2.486a7.8 7.8 0 0 0 1.7 2.431c.462.41.977.753 1.53 1.022.593.306 1.25.462 1.915.457a6.06 6.06 0 0 0 2.823-.54 6.1 6.1 0 0 0 2.269-1.783c1.232-1.734 1.707-4.104 1.853-6.474.168-3.097-.337-6.148-2.068-8.208a6.6 6.6 0 0 0-2.94-2.184 4.7 4.7 0 0 0-1.646-.24 5.8 5.8 0 0 0-1.531.225 5.6 5.6 0 0 0-2.297 1.309 6.9 6.9 0 0 0-1.287 1.587q-.43.77-.78 1.58"/><path fill="#FF646E" d="M69.023 168.214a3.9 3.9 0 0 0-2.452.499 3.97 3.97 0 0 0-1.66 1.893 6.98 6.98 0 0 0 0 5.057c.267.84.702 1.615 1.28 2.277a3.4 3.4 0 0 0 2.296 1.122 3.94 3.94 0 0 0 1.822-.548 4 4 0 0 0 1.363-1.341 7.3 7.3 0 0 0 1.182-2.85 7.3 7.3 0 0 0-.102-3.089c-.352-1.348-1.325-2.718-2.695-2.757"/><path fill="#27272E" d="M70.026 168.5h.299c.295.034.58.132.835.287a4.1 4.1 0 0 1 1.753 2.663 7.43 7.43 0 0 1-.475 4.739 6.2 6.2 0 0 1-1.715 2.277 3.31 3.31 0 0 1-2.955.72 4.2 4.2 0 0 1-2.366-1.951 8.8 8.8 0 0 1-.98-2.679 6.02 6.02 0 0 1 .766-4.647 4.1 4.1 0 0 1 2.672-1.719c.289-.043.583-.043.872 0 .192.039.291.07.291.085a6 6 0 0 0-1.14.07 4.08 4.08 0 0 0-2.466 1.727 5.78 5.78 0 0 0-.635 4.437c.181.896.505 1.756.957 2.548a3.8 3.8 0 0 0 2.136 1.765 2.89 2.89 0 0 0 2.603-.635 5.8 5.8 0 0 0 1.623-2.121 7.23 7.23 0 0 0 .536-4.523 4.1 4.1 0 0 0-1.531-2.594 3.2 3.2 0 0 0-1.08-.449"/><path fill="#27272E" d="M72.882 180.944c-.054 0-.138-.248-.406-.558a2.8 2.8 0 0 0-1.302-.844 7 7 0 0 0-1.607-.255c-.43 0-.697-.07-.705-.124-.007-.054.26-.116.697-.163a4.4 4.4 0 0 1 1.73.155c.585.17 1.089.55 1.417 1.069.245.403.222.712.176.72m.604-13.784s-.114.271-.474.558a3.66 3.66 0 0 1-1.616.712 3.7 3.7 0 0 1-1.753-.093c-.437-.147-.666-.317-.643-.364.76.12 1.531.14 2.297.062a9.5 9.5 0 0 0 2.19-.875"/></g><mask id="medic-accompanying-secondary_svg__b" width="81" height="95" x="65" y="0" maskUnits="userSpaceOnUse" style="mask-type:alpha"><path fill="#fff" d="M65.641.097h79.714v94.165H65.641z"/></mask><g mask="url(#medic-accompanying-secondary_svg__b)"><path fill="#FFBE9D" d="M131.149 34.729a27.4 27.4 0 0 0-8.562-17.882 26.82 26.82 0 0 0-18.282-7.27h-1.401c-15.068.86-22.77 14.28-21.5 29.496L84 100.054c.02.498.173.981.443 1.398s.645.753 1.088.971l33.827 16.053-.98-32.004s14.494-2.246 14.701-16.897c.061-7.07-.919-21.659-1.93-34.847"/><path fill="#EB996E" d="M118.462 86.417a34.8 34.8 0 0 1-18.965-5.653s4.441 10.547 18.896 9.293z"/><path fill="#27272E" d="M126.034 43.827a2.1 2.1 0 0 1-.578 1.462 2.06 2.06 0 0 1-1.42.645 1.95 1.95 0 0 1-1.461-.488 2 2 0 0 1-.668-1.402 2.1 2.1 0 0 1 .571-1.464 2.05 2.05 0 0 1 1.42-.642 1.96 1.96 0 0 1 1.461.49 2 2 0 0 1 .675 1.4"/><path fill="#27272E" d="M128.025 41.891c-.261.271-1.822-.906-4.051-.906s-3.828 1.131-4.096.852c-.122-.124.138-.612.85-1.138a5.66 5.66 0 0 1 3.285-1.014 5.38 5.38 0 0 1 3.223 1.06c.682.527.911 1.023.789 1.146m-23.889 2.618a2.1 2.1 0 0 1-.573 1.466 2.05 2.05 0 0 1-1.425.64 1.96 1.96 0 0 1-1.459-.49 2 2 0 0 1-.67-1.4 2.1 2.1 0 0 1 .576-1.464 2.06 2.06 0 0 1 1.423-.642 1.95 1.95 0 0 1 1.458.49 2 2 0 0 1 .67 1.4m1.991-2.23c-.253.27-1.822-.899-4.043-.899s-3.828 1.123-4.104.844c-.115-.123.146-.611.858-1.13a5.6 5.6 0 0 1 3.285-1.022 5.44 5.44 0 0 1 3.215 1.06c.697.52.935 1.015.789 1.147m8.062 16.695c0-.124 1.371-.364 3.614-.65.567-.062 1.11-.17 1.202-.566a2.93 2.93 0 0 0-.375-1.703l-1.669-4.383c-2.297-6.195-4.004-11.36-3.752-11.453.253-.093 2.297 4.886 4.656 11.127l1.6 4.407c.356.693.459 1.49.291 2.253a1.43 1.43 0 0 1-.942.836 4 4 0 0 1-.965.14c-2.251.116-3.652.124-3.66-.008m-6.531 1.549c.36 0 .36 2.416 2.427 4.158s4.632 1.471 4.655 1.812c0 .155-.574.48-1.661.503a5.97 5.97 0 0 1-3.89-1.378 5.3 5.3 0 0 1-1.876-3.485c-.115-1.022.153-1.626.345-1.61m-.919-27.08c-.222.612-2.442.318-5.053.635-2.611.318-4.724 1.03-5.077.48-.153-.263.215-.844 1.072-1.432a8.45 8.45 0 0 1 3.76-1.324 8.34 8.34 0 0 1 3.951.48c.957.395 1.439.875 1.347 1.161m20.482 1.936c-.398.503-1.93 0-3.775-.054s-3.399.333-3.759-.202c-.161-.255.092-.774.765-1.254a5.42 5.42 0 0 1 6.064.201c.659.527.873 1.053.705 1.309"/><path fill="#FFBE9D" d="M83.57 49.914c-.245-.109-9.954-2.997-9.647 7.023.306 10.02 10.175 7.643 10.183 7.357.008-.287-.536-14.38-.536-14.38"/><path fill="#EB996E" d="M81.84 60.592c-.046 0-.168.124-.46.271a1.7 1.7 0 0 1-1.286.07c-1.056-.364-1.99-2.013-2.09-3.818a5.9 5.9 0 0 1 .406-2.509 2 2 0 0 1 .463-.847c.22-.24.495-.422.8-.53a.88.88 0 0 1 .595.034c.188.08.343.224.439.407.138.278.084.48.13.495s.214-.17.123-.58a1.17 1.17 0 0 0-.414-.62 1.28 1.28 0 0 0-.957-.225 2.4 2.4 0 0 0-1.087.57c-.308.28-.54.636-.674 1.033a6 6 0 0 0-.513 2.811c.123 2.021 1.202 3.872 2.642 4.251a1.82 1.82 0 0 0 1.53-.317c.338-.225.384-.48.353-.496"/><path fill="#27272E" d="m90.049 20.147 41.284.922a18.96 18.96 0 0 0-6.064-7.093 32 32 0 0 0-18.697-6.807c-6.73-.124-20.443 8.177-25.32 12.87-3.905 3.756-3.875 7.008-3.875 7.008-.62 5.42 2.374 11.569 3.568 16.889.613 2.741 1.8 11.035 1.8 11.035 2.296 0 3.116-1.836 2.771-4.112l-.421-8.929s7.733-5.56 4.066-15.735c-.567-.813-1.823-4.53.888-6.048"/><path fill="#EB996E" d="M98.73 51.819a.25.25 0 0 1-.237-.15.3.3 0 0 1-.022-.098.27.27 0 0 1 .028-.197.26.26 0 0 1 .155-.12.27.27 0 0 1 .195.05.27.27 0 0 1 .104.174.27.27 0 0 1-.031.224.26.26 0 0 1-.191.117m4.256-.969a.31.31 0 0 1-.306-.255.296.296 0 0 1 .184-.356.29.29 0 0 1 .299.263.28.28 0 0 1-.018.211.28.28 0 0 1-.159.138m2.864-.054c-.137 0-.268-.147-.298-.372-.031-.225.061-.418.199-.434.138-.015.26.147.291.372s-.061.434-.192.434m-5.038 3.724c-.13 0-.245-.07-.245-.154 0-.086.115-.163.245-.163s.245.077.245.163c0 .085-.107.154-.245.154m3.905-.906a.275.275 0 0 1-.299-.255.28.28 0 0 1 .065-.204.28.28 0 0 1 .188-.098.26.26 0 0 1 .268.255.27.27 0 0 1-.222.302m20.297-2.408a.25.25 0 0 1-.259-.127.24.24 0 0 1-.031-.097.273.273 0 0 1 .183-.326.27.27 0 0 1 .299.225q.013.052.007.104a.27.27 0 0 1-.104.177.3.3 0 0 1-.095.044m2.902-.263a.31.31 0 0 1-.347-.108.32.32 0 0 1 .134-.489.31.31 0 0 1 .352.087q.065.077.076.177a.3.3 0 0 1-.041.21.28.28 0 0 1-.174.123m-5.459.333a.23.23 0 0 1-.173-.025.24.24 0 0 1-.11-.138.25.25 0 0 1 .036-.187.244.244 0 0 1 .341-.071.26.26 0 0 1 .106.157.25.25 0 0 1-.048.172.24.24 0 0 1-.152.092m2.144 2.935a.29.29 0 0 1-.436-.154.3.3 0 0 1 .095-.323.29.29 0 0 1 .448.113.273.273 0 0 1-.107.364m2.473-.496a.23.23 0 0 1-.184-.263.25.25 0 0 1 .426-.03.26.26 0 0 1 .049.161.23.23 0 0 1-.12.125.23.23 0 0 1-.171.007"/><path fill="#27272E" d="M80.997 20.596a12.5 12.5 0 0 1-.086-5.647 12.4 12.4 0 0 1 2.41-5.095 12.2 12.2 0 0 1 4.401-3.476 12.1 12.1 0 0 1 5.472-1.13c1.93.078 3.828.628 5.758.419 3.576-.395 6.332-3.291 9.647-4.7a12.46 12.46 0 0 1 8.191-.333c2.69.817 5.033 2.52 6.656 4.84 1.255 1.896 2.075 4.243 4.004 5.42 1.661 1.03 3.759.944 5.628 1.548 3.782 1.146 6.37 5.212 6.171 9.2a11 11 0 0 1-2.022 5.534 10.84 10.84 0 0 1-4.57 3.665 13.1 13.1 0 0 1-11.409-.774c-3.116-1.758-5.903-4.747-9.471-4.646-3.691.108-6.891 3.624-10.536 2.896-1.898-.38-3.361-1.859-4.754-3.221-1.394-1.363-2.986-2.75-4.924-2.866-1.937-.116-2.94 2.571-2.243 4.399z"/><path fill="#555567" d="M130.552 15.764q-.03.075-.069.148a4 4 0 0 1-.237.402 7 7 0 0 1-1.187 1.363 7.4 7.4 0 0 1-2.458 1.44 6.95 6.95 0 0 1-3.744.225 7.43 7.43 0 0 1-3.951-2.277c-1.125-1.246-1.799-2.927-2.848-4.398a5.8 5.8 0 0 0-1.999-1.828 5.8 5.8 0 0 0-2.741-.611 6.2 6.2 0 0 0-2.81.774 5.3 5.3 0 0 0-2.067 2.153c-.498.921-.857 1.928-1.455 2.818a3.4 3.4 0 0 1-1.131 1.135 3.4 3.4 0 0 1-1.518.492 5.1 5.1 0 0 1-2.879-.837 11 11 0 0 1-2.19-1.835c-1.278-1.3-2.534-2.602-4.096-2.95a5.15 5.15 0 0 0-4.15.983 7.2 7.2 0 0 0-2.297 2.85c-.39.858-.677 1.76-.857 2.687a20 20 0 0 0-.268 1.773q-.026.317-.092.627a.6.6 0 0 1 0-.162v-.473q.047-.904.207-1.796c.14-.945.397-1.869.765-2.75a7.4 7.4 0 0 1 2.297-2.988 5.4 5.4 0 0 1 2.079-1.02 5.4 5.4 0 0 1 2.309-.056c1.692.363 3 1.726 4.272 3.012.633.677 1.348 1.27 2.128 1.765.793.52 1.721.789 2.665.775a3.04 3.04 0 0 0 1.342-.447c.407-.253.75-.599 1.001-1.01.559-.835.919-1.834 1.432-2.787a5.7 5.7 0 0 1 2.228-2.323 6.6 6.6 0 0 1 2.993-.813 6.2 6.2 0 0 1 2.925.666 6.15 6.15 0 0 1 2.121 1.951c1.08 1.55 1.723 3.19 2.795 4.399a7.16 7.16 0 0 0 3.767 2.214 6.7 6.7 0 0 0 3.614-.162 7.3 7.3 0 0 0 2.427-1.34 9.4 9.4 0 0 0 1.677-1.789m7.48.186c.099.247.156.509.168.775a6.6 6.6 0 0 1-.207 2.237 7.8 7.8 0 0 1-1.531 2.943 9 9 0 0 1-3.262 2.408 13.24 13.24 0 0 1-7.205.821 20 20 0 0 1-2.159-.433 2.6 2.6 0 0 1-.765-.264c0-.062 1.125.217 2.963.41 2.373.313 4.786 0 7.006-.905a8.9 8.9 0 0 0 3.146-2.277 7.8 7.8 0 0 0 1.532-2.788c.265-.95.371-1.94.314-2.927"/></g></svg>