<svg xmlns="http://www.w3.org/2000/svg" width="208" height="240" fill="none" viewBox="0 0 208 240"><ellipse cx="103.714" cy="135.586" fill="#EEEBFF" rx="103.597" ry="104.006"/><mask id="medic-hello-paper-secondary_svg__a" width="208" height="209" x="0" y="31" maskUnits="userSpaceOnUse" style="mask-type:alpha"><ellipse cx="103.714" cy="135.586" fill="#fff" rx="103.597" ry="104.006"/></mask><g mask="url(#medic-hello-paper-secondary_svg__a)"><path fill="#FF646E" d="m143.519 219.246 3.396 3.412c.371.363.867.57 1.384.577a1.95 1.95 0 0 0 1.393-.576 2 2 0 0 0 .573-1.399 2.03 2.03 0 0 0-.574-1.39l-3.397-3.413a1.93 1.93 0 0 0-2.14-.433c-.239.1-.454.248-.635.433a1.97 1.97 0 0 0-.582 1.391c.009.523.217 1.023.582 1.398"/><path fill="#555567" d="M155.848 167.784c-2.53.274-5.082.274-7.612 0a35.5 35.5 0 0 1 7.612 0"/><path fill="#B78876" d="M182.425 79.759c-1.345-4.1 1.085-18.8-2.115-18.823-4.089-.04-2.918 16.588-2.925 18.104-.008 1.517-2.147 1.47-2.068.127.11-1.928.786-20.925-3.334-20.593-2.273.182-1.982 4.329-1.982 4.329s1.266 19.005-.668 19.1c-1.934.094-2.626-10.996-2.783-14.898-.158-3.736-1.722-5.221-3.437-3.95-1.714 1.272-1.368 12.504-1.273 16.257.094 3.751.534 14.028-3.782 9.028-4.317-5-9.436-7.251-11.26-6.896s-1.887 3.002-.039 3.863c1.494.695 3.648 2.622 5.205 4.139a23.7 23.7 0 0 1 3.145 4.297 20.7 20.7 0 0 1 2.603 6.319 12.8 12.8 0 0 0 6.439 8.278l-.204 6.967 19.932-1.738.386-13.175c.204-10.071 1.957-16.849 3.011-22.836 1.691-9.55.464-9.842-.676-9.787-2.485.087-2.854 15.885-4.175 11.888"/><path fill="#AA6550" d="M182.424 92.682q-1.389.26-2.737.687a10.55 10.55 0 0 0-5.173 4.162 10 10 0 0 0-.92 1.849l-.118.3-.244-.205a16.4 16.4 0 0 0-4.623-2.725c-1.259-.49-2.061-.656-2.045-.727a6.7 6.7 0 0 1 2.147.45 14.7 14.7 0 0 1 4.812 2.646l-.362.103c.248-.68.567-1.331.952-1.943a10.6 10.6 0 0 1 2.657-2.804 10.3 10.3 0 0 1 2.807-1.422 9 9 0 0 1 2.076-.403c.257-.028.517-.018.771.032m-2.776 14.083a13.1 13.1 0 0 1-4.836 1.359 13.2 13.2 0 0 1-5.024-.119c0-.142 2.241 0 4.962-.355s4.859-1.019 4.898-.885"/><path fill="#FAFAFC" d="M126.15 107.366s10.387 5.331 15.852 13.009 21.969 31.485 21.969 31.485l-2.359-36.129 25.491-3.318s7.415 36.39 9.153 48.973c1.619 11.778.943 23.365-10.505 29.684-13.509 7.457-28.849-2.614-33.952-6.437-6.338-4.74-18.037-12.488-18.037-12.488z"/><path fill="#FF646E" d="m113.34 102.855-7.273-8.16-31.79-2.448-4.12 6.69L81.3 168.796l-5.016 70.569h41.421z"/><path fill="#27272E" d="M78.202 222.579c1.093-1.169 2.885-2.788 4.481-2.82 11.449-.253 23.141-1.406 34.597-1.659l.441 21.264-5.575-2.622c-.315-2.37-.716-5.3-2.91-6.319-1.242-.593-2.696-.364-4.041-.095-4.136.79-8.24 1.896-12.447 2.156s-8.61-.347-12.14-2.662a7.4 7.4 0 0 1-2.902-3.159 3.85 3.85 0 0 1 .496-4.084" opacity=".3"/><path fill="#FAFAFC" d="m106.067 94.696 20.365 13.238 4.309 14.203 4.12 44.281-4.544 45.316 7.847 27.63h-20.459l-.04-10.9-2.186-76.73-2.138-48.879z"/><path fill="#27272E" d="M117.037 162.311q.188-.273.338-.569c.22-.411.527-.972.905-1.683.377-.711.739-1.682 1.218-2.764.22-.545.409-1.146.629-1.778.22-.631.464-1.295.645-2.014 1.714-5.687 2.854-13.894 2.611-22.954 0-.703-.048-1.398-.095-2.085v-.119l-.11-.047-3.192-1.351.047.332 3.184-2.567.071-.056v-.079a28 28 0 0 0-1.454-9.162c-.787-2.678-1.675-4.984-2.446-6.88a84 84 0 0 0-1.926-4.392 35 35 0 0 0-.558-1.145 2.6 2.6 0 0 0-.221-.387q.061.212.158.41l.511 1.177c.44 1.019 1.077 2.52 1.816 4.424a86 86 0 0 1 2.359 6.888 28 28 0 0 1 1.384 9.036l.071-.134-3.193 2.567-.251.205.298.126 3.185 1.351-.118-.166c.047.672.071 1.367.094 2.062.244 9.02-.841 17.196-2.484 22.907-.173.719-.409 1.382-.614 2.014-.204.632-.385 1.232-.597 1.777-.456 1.082-.787 2.038-1.156 2.781-.37.742-.629 1.287-.834 1.706a4 4 0 0 0-.275.569m14.301 28.83q.105-.295.173-.6c.111-.426.252-1.003.433-1.722s.401-1.674.613-2.749c.212-1.074.488-2.298.708-3.665s.495-2.859.7-4.471c.204-1.611.409-3.341.597-5.158.33-3.641.551-7.661.551-11.887s-.252-8.239-.59-11.849c-.205-1.817-.377-3.546-.629-5.158-.252-1.611-.464-3.104-.708-4.471s-.503-2.582-.723-3.657a66 66 0 0 0-.621-2.749c-.189-.75-.331-1.295-.441-1.721a2.8 2.8 0 0 0-.18-.593q.031.308.102.608c.094.435.212 1.019.369 1.746.158.727.362 1.675.559 2.757.196 1.082.456 2.298.66 3.665s.464 2.851.661 4.463a284 284 0 0 1 .589 5.142c.315 3.633.543 7.638.558 11.848s-.212 8.215-.518 11.849c-.181 1.816-.331 3.538-.567 5.15-.235 1.611-.424 3.104-.644 4.462-.22 1.359-.456 2.591-.645 3.666a67 67 0 0 1-.551 2.764c-.165.759-.267 1.304-.361 1.738a3 3 0 0 0-.095.592m-4.93 37.062c.215.649.511 1.267.881 1.841a30.6 30.6 0 0 0 2.791 4.06 30 30 0 0 0 3.421 3.554 8 8 0 0 0 1.627 1.232q-.673-.766-1.439-1.437a45 45 0 0 1-3.302-3.594 43 43 0 0 1-2.854-3.95 16 16 0 0 0-1.125-1.706"/><path fill="#27272E" d="M116.241 191.126c-2.154-1.13-4.788-.538-7.076.339s-4.521 2.054-6.951 2.03c-3.302 0-7.98-1.24-9.703-4.06a38 38 0 0 1-4.175-10.371c-2.626-12.141-3.224-22.796-5.85-34.945-1.43-6.603-3.247-14.218-5.685-20.537-2.359-6.106-4.56-12.425-6.416-18.704.33 14.218.66 28.546 2.846 42.654 1.416 9.06 3.586 17.985 4.773 27.069 1.015 7.781 1.298 15.64 1.573 23.484l7.367 9.052 20.31.41 10.607-13.744z" opacity=".3"/><path fill="#FAFAFC" d="M42.63 106.758a25.1 25.1 0 0 0-9.931 7.034 25.26 25.26 0 0 0-5.48 10.896c-5.96 26.414-16.166 61.54-16.323 72.875-.205 14.432 6.078 24.313 14.279 26.138 6.487 1.437 65.262-1.793 65.262-1.793l2.783-24.645-47.641-4.4 6.518-36.595-6.455-50.687z"/><path fill="#FAFAFC" d="m45.658 105.581 13.17-5.403L73.87 92.01l.141.443c-1.698 2.922-3.507 8.317-2.87 11.643l11.543 60.521-2.618 44.234-3.782 30.529H38.36l13.752-32.52-6.77-61.074z"/><path fill="#27272E" d="M52.498 152.571a1.5 1.5 0 0 0-.11.403c-.055.316-.134.703-.228 1.177a1797 1797 0 0 0-.786 4.321c-.645 3.704-1.51 8.728-2.477 14.281s-1.754 10.592-2.36 14.305a768 768 0 0 1-.675 4.344l-.158 1.185q-.033.21 0 .419.07-.201.103-.411c.07-.308.141-.695.243-1.169.197-1.074.464-2.536.787-4.321.66-3.649 1.572-8.689 2.492-14.281s1.777-10.64 2.359-14.305c.275-1.793.503-3.262.668-4.344.063-.482.11-.869.15-1.185q.015-.21-.008-.419m14.154-56.295s0 .047-.055.142-.07.268-.125.442c-.095.395-.268.964-.417 1.722a53 53 0 0 0-1.007 6.517 74 74 0 0 0-.251 9.937c.126 3.775.527 7.954 1.093 12.377v.142h.133l4.31.79-.15-.268c-.244.663-.503 1.382-.7 2.117a27.1 27.1 0 0 0 .495 14.676 46.5 46.5 0 0 0 5.056 10.94c1.793 2.922 3.42 5.173 4.537 6.737l1.305 1.778.346.458c.079.095.126.15.134.142a2 2 0 0 0-.102-.166c-.079-.134-.189-.284-.315-.482l-1.242-1.824c-1.077-1.58-2.666-3.855-4.427-6.793a47.2 47.2 0 0 1-4.946-10.893 26.93 26.93 0 0 1-.456-14.471c.189-.719.44-1.422.677-2.069l.086-.229-.228-.04-4.309-.79.157.166c-.574-4.415-.983-8.578-1.14-12.346a78 78 0 0 1 .165-9.897q.266-3.28.889-6.509c.133-.79.283-1.335.354-1.738 0-.173.063-.323.086-.45a1 1 0 0 0 .047-.118m-.001 62.077v-9.652s-.126-2.37 1.871-1.88c1.998.489 1.62 4.257 1.62 4.257s.378 14.676-.495 14.55-1.211-1.256-1.211-1.256v-5.64z"/><path fill="#27272E" d="M58.309 158.953a67 67 0 0 0 10.3 0 67 67 0 0 0-10.3 0M39.32 112.492q.526.234 1.078.395 1.467.535 2.862 1.24a22.3 22.3 0 0 1 7.72 6.62 16.5 16.5 0 0 1 1.519 2.48c.377.825.682 1.681.912 2.559.396 1.495.66 3.023.786 4.566.11 1.311.133 2.369.141 3.159q-.042.577 0 1.153.128-.569.126-1.153a31 31 0 0 0 0-3.159 24 24 0 0 0-.692-4.637 15.4 15.4 0 0 0-.912-2.63 17 17 0 0 0-1.572-2.552 21.4 21.4 0 0 0-7.918-6.651 19.6 19.6 0 0 0-2.933-1.137 5.6 5.6 0 0 0-1.117-.253m51.132 109.416a4 4 0 0 1 0-.466c0-.332.07-.79.126-1.343.118-1.201.29-2.915.51-5.063.48-4.369 1.149-10.522 1.935-17.797l.165.214-17.691-1.509-29.88-2.646a15.54 15.54 0 0 0-8.735 1.73q-1.087.581-2.084 1.311l-.51.395a.8.8 0 0 1-.181.118 12 12 0 0 1 2.704-1.967 15.4 15.4 0 0 1 8.83-1.88l29.919 2.528 17.691 1.54h.189v.19c-.85 7.259-1.573 13.428-2.076 17.78l-.629 5.048c-.07.561-.134 1.003-.173 1.335q-.035.245-.11.482"/><path fill="#27272E" d="M77.66 222.563a5.2 5.2 0 0 1-.141-1.034 56 56 0 0 1-.174-2.86 76.2 76.2 0 0 1 1.652-18.76c.26-1.177.487-2.125.676-2.78q.105-.516.322-.995a5.4 5.4 0 0 1-.165 1.034c-.15.743-.33 1.683-.55 2.797a100 100 0 0 0-1.282 9.312 101 101 0 0 0-.37 9.384c0 1.146.04 2.101.048 2.852.032.349.027.702-.016 1.05m6.746-7.725s.197-.103.582-.103a2.66 2.66 0 0 1 1.525.553 2.55 2.55 0 0 1 1.046 2.18 2.8 2.8 0 0 1-1.69 2.418 2.73 2.73 0 0 1-2.854-.68 2.37 2.37 0 0 1-.567-2.369 2.44 2.44 0 0 1 .905-1.351c.152-.135.34-.223.542-.253 0 .04-.173.126-.44.371a2.53 2.53 0 0 0-.724 1.304 2.11 2.11 0 0 0 .55 2.006 2.36 2.36 0 0 0 2.446.561 2.45 2.45 0 0 0 1.455-2.054 2.28 2.28 0 0 0-.841-1.927 2.74 2.74 0 0 0-1.369-.616 6 6 0 0 1-.566-.04"/><path fill="#27272E" d="m74.034 91.805-.244.15-.786.434-2.901 1.651-11.213 6.233-18.87 7.946a20.3 20.3 0 0 0-9.507 7.899 27.3 27.3 0 0 0-3.004 6.106 32 32 0 0 0-1.674 6.974c-3.491 15.008-7.454 32.236-11.3 50.553-.786 3.95-1.572 7.836-2.358 11.683-.197.963-.354 1.927-.527 2.883s-.354 1.903-.472 2.859a31.4 31.4 0 0 0-.29 5.687 28.6 28.6 0 0 0 2.5 10.727 20.4 20.4 0 0 0 2.815 4.542 16 16 0 0 0 3.931 3.381 16.75 16.75 0 0 0 9.609 2.369l9.56-.197a1647 1647 0 0 0 17.158-.514l24.846-.908 6.754-.261 1.762-.055h.597l-.597.048-1.754.102-6.754.332a2432 2432 0 0 1-24.839 1.043c-5.244.197-11.008.395-17.164.56l-9.57.222a17.1 17.1 0 0 1-9.804-2.41 16.7 16.7 0 0 1-4.042-3.451 21.3 21.3 0 0 1-2.87-4.629 29 29 0 0 1-2.547-10.877c-.08-1.924.017-3.852.29-5.758.118-.972.307-1.92.472-2.875s.33-1.928.527-2.883a440 440 0 0 1 2.359-11.691c3.845-18.309 7.823-35.545 11.346-50.553a32.3 32.3 0 0 1 1.667-7.022 27.2 27.2 0 0 1 3.059-6.169 20.54 20.54 0 0 1 9.67-7.986l18.919-7.899 11.26-6.137 2.972-1.58.786-.403zm132.451 73.823-59.798 64.076-58.326.363-1.384-2.662 57.493-62.575z"/><path fill="#FAFAFC" d="M149.966 164.83s3.885 0 5.04 1.359c1.345 1.627 3.932 5.292-1.714 14.621-2.249 3.736-13.28 16.587-17.817 29.755-4.238 12.291-2.304 16.351-2.304 16.351l42.082-1.351.787-1.525s18.296-49.763 13.453-59.241c-2.233-4.321-39.825-1.564-39.527.031"/><path fill="#E6E6F0" d="m182.243 224.301-45.266.379c-.543-11.516 3.436-19.881 9.357-29.763 2.264-3.783 5.362-7.022 7.619-10.813a29.2 29.2 0 0 0 4.049-13.144c.118-1.849 0-3.847-1.124-5.308-1.125-1.462-5.166-1.541-6.912-.79a13.16 13.16 0 0 1 6.668-2.473c3.656-.308 33.582-.102 39.149-.055 1.344.059 2.677.276 3.971.648 4.057 2.109 4.891 7.662 4.317 11.659-.543 3.783-2.878 7.354-5.811 11.35a38 38 0 0 0-2.359 3.571c-3.09 5.379-11.621 20.466-13.154 25.671a24 24 0 0 0-.504 9.068"/><path fill="#27272E" d="m182.244 224.206-10.898.087-20.821.174-8.744.079h-2.925a7.6 7.6 0 0 1-1.635 0h-.244c-.024 0 .063-.845.055-.94v-1.193q0-1.161.071-2.322c.185-2.96.696-5.89 1.525-8.736 1.683-5.735 4.569-11.059 7.619-16.13 1.675-2.796 3.751-5.3 5.669-7.899a33 33 0 0 0 4.451-8.049 28.3 28.3 0 0 0 1.8-8.941c.055-1.959-.228-4.645-2.28-5.529a7.6 7.6 0 0 0-2.948-.522c-.669 0-2.218-.087-2.792.379-.165.127-.078.174.04.143q.146-.078.267-.19c.307-.205.629-.403.951-.577a13.6 13.6 0 0 1 3.499-1.319c2.438-.545 5.08-.387 7.564-.41 7.753-.064 15.514 0 23.275 0l8.955.055c1.41-.008 2.817.127 4.199.403 2.359.497 3.932 2.891 4.623 5.063.735 2.37.87 4.886.394 7.322-.598 3.089-2.288 5.853-4.042 8.412-1.572 2.307-3.216 4.534-4.615 6.967-.96 1.699-1.919 3.389-2.87 5.095-2.273 4.076-4.506 8.183-6.582 12.378-1.784 3.594-3.506 7.156-3.782 11.232a24 24 0 0 0 .166 5.071c0 .126.212.071.188-.055a21.93 21.93 0 0 1 1.691-12.094c1.777-4.067 3.884-8.001 5.999-11.895q2.894-5.332 5.913-10.585c2.933-5.095 7.651-9.542 8.303-15.671.401-3.831-.479-9.479-4.482-11.193a11.8 11.8 0 0 0-4.332-.64h-3.271c-7.619-.047-15.246-.087-22.865-.079-3.287 0-6.574 0-9.86.063-2.98.056-5.835.348-8.492 1.904a9 9 0 0 0-1.046.695c-.071.055 0 .198.102.166a8.54 8.54 0 0 1 5.386-.079c2.359.79 2.634 3.634 2.54 5.806a29.2 29.2 0 0 1-4.796 14.589c-1.4 2.133-3.02 4.115-4.537 6.169a63 63 0 0 0-3.932 6.122 68.4 68.4 0 0 0-5.692 12.061 41.3 41.3 0 0 0-2.115 15.087q0 .042.029.073.031.03.073.03l15.293-.126 24.375-.206 5.59-.047a.1.1 0 0 0 .089-.021.1.1 0 0 0 .029-.037.1.1 0 0 0 .008-.046.1.1 0 0 0-.012-.045.1.1 0 0 0-.075-.053.1.1 0 0 0-.046.004"/><path fill="#27272E" d="M179.57 214.807c0 .118-7.981.205-17.833.205s-17.833-.087-17.833-.205c0-.119 7.989-.206 17.833-.206s17.833.095 17.833.206m.999-5.988c0 .111-7.981.206-17.833.206s-17.833-.095-17.833-.206 7.989-.205 17.833-.205 17.833.087 17.833.205m4.795-6.43c0 .111-7.988.206-17.833.206s-17.833-.095-17.833-.206 7.981-.205 17.833-.205 17.833.087 17.833.205m2.949-5.876c0 .11-7.98.205-17.833.205s-17.833-.095-17.833-.205c0-.111 7.989-.206 17.833-.206 9.845 0 17.833.095 17.833.206m1.967-5.372c0 .111-7.981.206-17.825.206s-17.833-.095-17.833-.206 7.981-.205 17.833-.205 17.825.087 17.825.205m4.843-7.061c0 .118-7.981.205-17.833.205s-17.833-.087-17.833-.205c0-.119 7.989-.205 17.833-.205s17.833.094 17.833.205m4.56-6.754c0 .111-7.981.206-17.833.206s-17.833-.095-17.833-.206 7.989-.205 17.833-.205 17.833.095 17.833.205m-.33-6.421c0 .11-7.981.205-17.825.205s-17.857-.095-17.857-.205c0-.111 7.981-.206 17.833-.206 9.853 0 17.849.087 17.849.206"/><path fill="#555567" d="M144.47 164.83q.132.072.244.174l.707.561 2.705 2.212.071.063-.063.071c-4.867 5.347-15.419 16.777-27.662 29.96-8.444 9.297-16.582 17.267-22.472 23.01a818 818 0 0 1-7.013 6.761l-1.935 1.817-.51.458-.182.15s.047-.063.15-.173l.487-.498 1.88-1.872 6.927-6.848c5.834-5.806 13.925-13.784 22.37-23.089 12.242-13.183 22.857-24.55 27.826-29.803v.135l-2.657-2.283-.677-.592a1.3 1.3 0 0 1-.196-.214"/><path fill="#B78876" d="M93.172 200.091h8.539s5.771-5.055 7.077-5.442c2.744-.83 9.828-1.699 9.828-1.699l-4.835 5.277c-1.125 1.216-3.185 2.314-1.966 2.314h8.885s9.081-4.376 10.434-3.578c1.132.671 1.525 1.888.369 3.578-1.155 1.691-9.12 5.687-10.04 5.996l-2.603.789 2.445.79 11.582-4.068c.747-.134 1.793-.26 2.131.182a1.57 1.57 0 0 1 .438 1.139 1.6 1.6 0 0 1-.501 1.112 49 49 0 0 1-5.236 4.131s1.847 2.733.314 4.116-5.968 5.529-5.968 5.529-.464 2.306-1.84 3.381-16.512 1.074-17.605 1.074-7.194-3.531-7.194-3.531l-6.644-.498z"/><path fill="#AA6550" d="M119.576 214.972a4.6 4.6 0 0 0 1.659.229 5 5 0 0 0 1.809-.323 10.2 10.2 0 0 0 1.973-1.051 130 130 0 0 0 3.326-2.243q.718-.432 1.321-1.011a8 8 0 0 0-1.455.79c-.88.529-2.075 1.295-3.388 2.148-.595.411-1.23.761-1.895 1.043a5.3 5.3 0 0 1-1.699.379c-1.006.055-1.651-.016-1.651.039m-.722 5.696a1.88 1.88 0 0 0 1.156.647 4.23 4.23 0 0 0 3.145-.521 13 13 0 0 0 2.539-1.896c.582-.56.897-.955.858-.987a42 42 0 0 1-3.57 2.567 4.33 4.33 0 0 1-2.902.593 7 7 0 0 1-1.226-.403m-4.263-12.599a6.1 6.1 0 0 0 2.398-.19 6 6 0 0 0 2.272-.79c-.797.072-1.587.218-2.358.435-.787.105-1.561.287-2.312.545"/><path fill="#27272E" d="M56.658 37.002a17.3 17.3 0 0 0-4.418-5.181 17.2 17.2 0 0 0-6.066-3.067 17.17 17.17 0 0 0-13.207 1.708c-3.39 1.975-6.212 5.53-5.984 9.479.212 3.712 2.964 6.706 5.56 9.352-4.137 1.73-6.205 6.99-4.852 11.272 1.352 4.28 5.614 7.306 10.064 7.717s8.94-1.532 12.156-4.66a24.6 24.6 0 0 0 6.353-11.675"/><path fill="#27272E" d="M42.535 46.576a7.2 7.2 0 0 1-2.265.577 10.66 10.66 0 0 1-6.196-1.296 10.9 10.9 0 0 1-3.388-2.851 10.6 10.6 0 0 1-2.068-4.66 12.7 12.7 0 0 1 .337-5.83 12.65 12.65 0 0 1 2.91-5.055 14.1 14.1 0 0 1 4.876-3.178 14 14 0 0 1 5.739-.93 12.88 12.88 0 0 1 8.649 3.578 8.66 8.66 0 0 1 2.547 5.782 7 7 0 0 1-.165 1.738c-.039.197-.102.34-.125.434-.024.095-.055.143-.063.143a9.8 9.8 0 0 0 .196-2.315 8.66 8.66 0 0 0-2.594-5.576 12.65 12.65 0 0 0-8.445-3.405 13.7 13.7 0 0 0-5.572.924 13.8 13.8 0 0 0-4.736 3.089 12.3 12.3 0 0 0-2.81 4.896 12.4 12.4 0 0 0-.336 5.641c.276 1.642.949 3.19 1.958 4.51a11 11 0 0 0 4.11 3.23c1.608.73 3.367 1.06 5.13.965q1.168-.125 2.31-.411"/><path fill="#555567" d="M47.615 50.02q-.248.211-.543.347a9.6 9.6 0 0 1-1.572.72c-.817.29-1.66.502-2.516.631a15.5 15.5 0 0 1-3.185.11 14.7 14.7 0 0 1-3.145-.592 14 14 0 0 1-2.398-1.003 10.6 10.6 0 0 1-1.47-.948c-.323-.26-.488-.41-.472-.434.015-.024.786.49 2.075 1.121.76.365 1.55.666 2.36.9 1.997.57 4.088.73 6.148.467a15.5 15.5 0 0 0 2.477-.53c1.4-.426 2.201-.86 2.24-.79m-20.646-9.383c.056-.33.163-.65.314-.948a5.46 5.46 0 0 1 1.667-2.164 7.84 7.84 0 0 1 3.83-1.296 19 19 0 0 1 4.93.237 25.9 25.9 0 0 1 8.42 2.915q1.186.66 2.28 1.461c.288.177.553.389.787.632a4.3 4.3 0 0 1-.857-.505 40 40 0 0 0-2.359-1.327 28 28 0 0 0-8.35-2.773 19.6 19.6 0 0 0-4.82-.26 7.75 7.75 0 0 0-3.696 1.153 5.46 5.46 0 0 0-1.69 1.998q-.206.45-.456.877M50.98 56.481s0 .095-.11.269c-.11.173-.236.402-.424.71a13 13 0 0 1-1.982 2.323 13.5 13.5 0 0 1-3.79 2.464 13.3 13.3 0 0 1-5.433 1.082 13 13 0 0 1-5.402-1.192 10.1 10.1 0 0 1-3.562-2.797 6.7 6.7 0 0 1-1.313-2.764 4.5 4.5 0 0 1-.102-.83v-.284s.047.395.236 1.074a7.1 7.1 0 0 0 1.392 2.623 10.1 10.1 0 0 0 3.49 2.638 12.95 12.95 0 0 0 5.253 1.122c1.809.02 3.603-.327 5.276-1.02a13.7 13.7 0 0 0 3.743-2.369 19 19 0 0 0 2.728-3.049"/><path fill="#555567" d="M52.483 60.589a7 7 0 0 1-.865 1.05 37 37 0 0 1-2.595 2.63c-.574.53-1.226 1.09-1.95 1.66a12.46 12.46 0 0 1-9.05 2.914 11.2 11.2 0 0 1-6.337-2.196 11.6 11.6 0 0 1-3.326-4.384 10.2 10.2 0 0 1-.873-3.61 8 8 0 0 1 0-1.019q.009-.176.055-.347.025.178 0 .355-.006.5.055.995a10.7 10.7 0 0 0 .967 3.508 11.6 11.6 0 0 0 3.303 4.202 11 11 0 0 0 6.125 2.085c2.2.131 4.4-.287 6.4-1.216.86-.44 1.672-.97 2.422-1.58.724-.553 1.376-1.098 1.958-1.58a57 57 0 0 0 2.681-2.52q.488-.504 1.03-.947"/><path fill="#FF646E" d="m59.096 36.528 1.148.909c-.464-1.96-2.65-3.16-4.647-2.986a6.7 6.7 0 0 0-2.77 1.112 6.75 6.75 0 0 0-2.019 2.206 16.4 16.4 0 0 0-1.926 5.703c-.613 3.317-.92 6.856.393 9.952s4.718 5.53 7.957 4.74c3.24-.79 5.056-4.353 5.544-7.67a18.7 18.7 0 0 0-.437-7.356 18.7 18.7 0 0 0-3.243-6.61"/><path fill="#27272E" d="M54.591 51.552a4.98 4.98 0 0 1-3.145.68 6.6 6.6 0 0 1-2.225-.498c-.574-.23-.786-.664-.676-.672.238.177.504.313.786.403.7.198 1.42.317 2.146.356a22 22 0 0 0 3.114-.269m1.595-5.861c-1.251.172-2.517.2-3.775.087a17 17 0 0 1-3.758-.324 18 18 0 0 1 3.774-.087 18.2 18.2 0 0 1 3.759.324m-1.259-6.264c0 .135-1.164 0-2.532-.158a6 6 0 0 0-1.73.103c-.432.095-.692.205-.723.15s.188-.253.637-.434a4.4 4.4 0 0 1 1.84-.23c.864.027 1.716.22 2.508.57m7.99-15.846c-.095-3.302 2.956-5.86 6.023-7.109s6.471-1.667 9.207-3.515c2.422-1.635 4.05-4.186 6.094-6.28a20.27 20.27 0 0 1 9.17-5.366 20.2 20.2 0 0 1 10.611.019 20.27 20.27 0 0 1 9.151 5.398 20.4 20.4 0 0 1 5.185 9.302c1.179 4.74.377 10.268-3.318 13.428-4.293 3.633-10.662 2.828-16.158 1.698s-11.724-2.251-16.316.995c-2.768 1.96-4.356 5.143-6.054 8.089s-3.814 5.948-7.014 7.054-7.548-.79-7.674-4.203"/><path fill="#27272E" d="M63.138 25.399c.362 2.78-1.636 5.26-3.625 7.22s-4.23 4.036-4.584 6.808c-.409 3.247 1.942 6.438 1.258 9.63-.432 2.03-1.997 3.593-2.948 5.434a11.55 11.55 0 0 0-.59 8.499c.786 2.796 2.123 9.036 4.057 11.208 5.347 6.004 13.855 11.185 21.67 12.986s15.93 1.817 23.935 1.32c6.55-.404 14.082-.103 19.547-9.156 2.823-4.692 4.23-10.924 5.732-16.192 1.289-4.542 2.414-9.4 1.061-13.926-.786-2.638-2.358-4.976-3.145-7.615-.967-3.293-.613-6.824-1.006-10.268a23.54 23.54 0 0 0-3.786-10.377 23.4 23.4 0 0 0-8.092-7.487 23.29 23.29 0 0 0-21.374-.675"/><path fill="#B78876" d="M74.278 100.762s0 .198.04.293zm47.106-63.981c-.613-9.439-6.872-21.019-16.237-20l-29.242 7.496a5.5 5.5 0 0 0-3.548 1.85 5.54 5.54 0 0 0-1.366 3.774L74.2 99.183a9.4 9.4 0 0 0 .786 3.412c2.17 4.802 9.389 17.022 25.052 12.077 3.837-1.208 5.59-5.426 6.345-9.755 0-.513.212-.971.22-1.461a47 47 0 0 0 .118-9.732c.055-5.719.047-8.064.047-8.01 0 .056 12.007-2.03 14.468-17.78 1.25-7.827.825-20.663.149-31.153"/><path fill="#27272E" d="M116.675 47.05a2.02 2.02 0 0 1-.554 1.415c-.362.38-.857.604-1.381.623a1.91 1.91 0 0 1-1.884-1.076 1.9 1.9 0 0 1-.191-.741 2.02 2.02 0 0 1 .551-1.412 2 2 0 0 1 1.375-.626 1.92 1.92 0 0 1 1.889 1.075c.114.232.18.484.195.742m1.948-3.586c-.251.26-1.777-.87-3.931-.861-2.155.008-3.743 1.105-3.979.837-.118-.119.142-.593.826-1.098a5.5 5.5 0 0 1 3.184-.995 5.27 5.27 0 0 1 3.145 1.01c.653.506.881.988.755 1.107M95.265 47.05a2 2 0 0 1-.55 1.414c-.36.381-.854.605-1.377.624a1.9 1.9 0 0 1-1.42-.468 1.93 1.93 0 0 1-.656-1.349 2 2 0 0 1 .55-1.415c.36-.38.854-.604 1.377-.623a1.91 1.91 0 0 1 1.884 1.075c.113.232.178.484.192.742m2.098-3.16c-.251.26-1.777-.869-3.931-.853s-3.743 1.098-3.979.837c-.118-.118.134-.6.787-1.105a5.53 5.53 0 0 1 3.192-.996 5.3 5.3 0 0 1 3.145 1.011c.684.537.912 1.011.786 1.106m7.887 16.122c0-.127 1.337-.364 3.515-.648.55-.055 1.069-.166 1.163-.545a2.86 2.86 0 0 0-.369-1.643c-.527-1.343-1.07-2.749-1.644-4.226-2.28-6.01-3.931-10.948-3.695-11.058s2.288 4.74 4.568 10.719q.826 2.227 1.573 4.25c.352.665.455 1.436.291 2.171a1.37 1.37 0 0 1-.904.79 3.6 3.6 0 0 1-.936.135c-2.194.166-3.554.173-3.562.055"/><path fill="#AA6550" d="M106.8 85.754a39.73 39.73 0 0 1-20.97-5.616s5.299 10.893 20.985 9.384zm-2.456-20.537a3.93 3.93 0 0 0-3.499-1.445 3.57 3.57 0 0 0-2.453 1.327 2.28 2.28 0 0 0-.165 2.59 2.63 2.63 0 0 0 2.838.72 8.3 8.3 0 0 0 2.76-1.667c.245-.174.453-.394.613-.648a.71.71 0 0 0 0-.79"/><path fill="#27272E" d="M98.89 61.528c.353 0 .36 2.37 2.358 4.005 1.997 1.635 4.513 1.406 4.529 1.738 0 .142-.558.458-1.612.49a5.8 5.8 0 0 1-3.782-1.32 5.1 5.1 0 0 1-1.84-3.357c-.079-.987.181-1.571.346-1.556m-.559-21.421c-.212.592-2.358.316-4.906.631-2.548.316-4.592 1.011-4.93.482-.15-.252.204-.79 1.03-1.382a8.58 8.58 0 0 1 7.493-.853c.936.379 1.392.837 1.314 1.121m19.484-2.93c-.378.49-1.872 0-3.665 0s-3.302.34-3.656-.174c-.157-.253.087-.742.747-1.216a5.28 5.28 0 0 1 5.897.174c.637.466.842.971.677 1.216"/><path fill="#27272E" d="M64.968 76.063c2.162.431 4.395.34 6.516-.265a13.9 13.9 0 0 0 5.68-3.218 14 14 0 0 0 3.595-5.465c.75-2.082.998-4.314.721-6.51-.487-3.863-2.563-7.805-1.226-11.462 1.761-4.834 8.515-6.32 10.308-11.153 1.046-2.812.11-6.09 1.29-8.84 1.108-2.59 3.813-4.075 6.455-5.039s5.465-1.58 7.674-3.34c2.209-1.762 3.593-4.993 2.17-7.418a148 148 0 0 0-34.25 8.357c-2.556.964-5.245 2.117-6.755 4.4-1.572 2.417-1.525 5.529-1.392 8.436l1.966 42.417"/><path fill="#555567" d="M65.952 81.481a1.1 1.1 0 0 1-.26-.166l-.692-.53c-.605-.48-1.501-1.184-2.594-2.163a27.5 27.5 0 0 1-3.688-3.895 14.5 14.5 0 0 1-2.933-6.485 9.9 9.9 0 0 1 2.02-8.278 31 31 0 0 1 3.657-3.16 8.56 8.56 0 0 0 2.846-3.901c1.156-3.215.645-6.928 1.093-10.727a21.4 21.4 0 0 1 4.443-10.853 14.6 14.6 0 0 1 4.647-3.815 28.8 28.8 0 0 1 5.504-1.856 12.7 12.7 0 0 0 4.812-2.37 19 19 0 0 0 3.499-3.87c1.966-2.805 3.42-5.798 5.3-8.294a17.6 17.6 0 0 1 3.09-3.294 11.8 11.8 0 0 1 3.656-2.007 7.83 7.83 0 0 1 6.966.696 6.4 6.4 0 0 1 1.747 2.1 6.5 6.5 0 0 1 .722 2.639 4.75 4.75 0 0 1-.943 3.246 3 3 0 0 1-.637.609c-.157.126-.244.181-.252.165s.063-.079.205-.213q.325-.29.574-.648a4.68 4.68 0 0 0 .786-3.16 6.2 6.2 0 0 0-.763-2.467 6.2 6.2 0 0 0-1.698-1.94 7.4 7.4 0 0 0-6.581-.545 11.4 11.4 0 0 0-3.484 1.951 17.7 17.7 0 0 0-2.956 3.255c-1.816 2.456-3.247 5.442-5.237 8.325a19.6 19.6 0 0 1-3.6 4.013 13.4 13.4 0 0 1-5.033 2.52 28.4 28.4 0 0 0-5.363 1.824 14 14 0 0 0-4.434 3.641A20.84 20.84 0 0 0 66.07 42.31c-.456 3.673.07 7.449-1.164 10.861a9.25 9.25 0 0 1-3.059 4.147 31.6 31.6 0 0 0-3.617 3.041 9.45 9.45 0 0 0-1.966 7.82c.395 2.3 1.343 4.47 2.76 6.32a30 30 0 0 0 3.555 3.949c1.069.995 1.934 1.738 2.508 2.251q.464.356.865.782"/><path fill="#27272E" d="M129.563 56.86c.419-.422.732-.94.912-1.509a5.82 5.82 0 0 0-.897-4.62c-.542-.877-1.273-1.746-2.012-2.733a9.5 9.5 0 0 1-1.809-3.523 12.5 12.5 0 0 1-.173-4.369c.165-1.508.464-3.04.661-4.605a18 18 0 0 0-1.023-8.736 19.6 19.6 0 0 0-3.75-6.169 18 18 0 0 0-3.719-3.16c-.975-.623-1.573-.908-1.573-.94q.228.059.433.174.612.28 1.187.632a16.9 16.9 0 0 1 3.853 3.105 19.4 19.4 0 0 1 3.892 6.232 18.2 18.2 0 0 1 1.077 8.918c-.197 1.58-.503 3.12-.668 4.597a12.1 12.1 0 0 0 .141 4.242 9.25 9.25 0 0 0 1.706 3.404c.724.987 1.455 1.88 1.998 2.788a5.88 5.88 0 0 1 .786 4.826 3.1 3.1 0 0 1-.7 1.162 1.6 1.6 0 0 1-.322.284"/></g><mask id="medic-hello-paper-secondary_svg__b" width="173" height="147" x="23" y="0" maskUnits="userSpaceOnUse" style="mask-type:alpha"><path fill="#fff" d="M23.701.612h171.618v146.324H23.701z"/></mask><g mask="url(#medic-hello-paper-secondary_svg__b)"><path fill="#B78876" d="M182.425 79.76c-1.345-4.1 1.085-18.8-2.116-18.824-4.088-.04-2.917 16.588-2.925 18.104-.007 1.517-2.146 1.47-2.067.127.11-1.928.786-20.925-3.334-20.593-2.273.182-1.982 4.329-1.982 4.329s1.266 19.005-.668 19.1c-1.934.094-2.626-10.996-2.784-14.898-.157-3.736-1.722-5.221-3.436-3.95-1.714 1.272-1.368 12.505-1.273 16.257.094 3.751.534 14.028-3.782 9.028-4.317-5-9.436-7.251-11.26-6.896s-1.887 3.002-.039 3.863c1.494.695 3.648 2.622 5.205 4.139a23.7 23.7 0 0 1 3.145 4.297 20.7 20.7 0 0 1 2.603 6.319 12.8 12.8 0 0 0 6.439 8.278l-.204 6.967 19.932-1.738.386-13.175c.204-10.071 1.957-16.849 3.011-22.836 1.69-9.55.464-9.842-.676-9.787-2.485.087-2.854 15.885-4.175 11.888"/><path fill="#AA6550" d="M182.423 92.682q-1.388.26-2.736.687a10.56 10.56 0 0 0-5.174 4.162 10 10 0 0 0-.92 1.849l-.117.3-.244-.205a16.4 16.4 0 0 0-4.624-2.725c-1.258-.49-2.06-.656-2.044-.727.735.03 1.46.183 2.147.45a14.7 14.7 0 0 1 4.812 2.646l-.362.103c.248-.68.567-1.331.951-1.943a10.6 10.6 0 0 1 2.658-2.804 10.3 10.3 0 0 1 2.807-1.422 9 9 0 0 1 2.076-.403 2.6 2.6 0 0 1 .77.032m-2.775 14.083a13.1 13.1 0 0 1-4.836 1.359 13.2 13.2 0 0 1-5.024-.118c0-.143 2.241 0 4.961-.356 2.721-.355 4.86-1.019 4.899-.885"/><path fill="#FAFAFC" d="M126.15 107.366s10.387 5.332 15.852 13.009 21.969 31.485 21.969 31.485l-2.359-36.129 25.491-3.318s7.415 36.39 9.153 48.973c1.619 11.778.943 23.365-10.505 29.684-13.509 7.457-28.849-2.614-33.952-6.437-6.338-4.74-18.038-12.488-18.038-12.488z"/><path fill="#FF646E" d="m113.34 102.855-7.273-8.16-31.79-2.448-4.12 6.69L81.3 168.796l-5.017 70.569h41.422z"/><path fill="#FAFAFC" d="m106.067 94.696 20.365 13.239 4.309 14.202 4.12 44.281-4.545 45.316 7.848 27.63h-20.46l-.039-10.9-2.186-76.73-2.139-48.878z"/><path fill="#27272E" d="M117.037 162.311q.188-.273.338-.569c.22-.411.527-.972.904-1.683.378-.711.74-1.682 1.219-2.764.22-.545.409-1.146.629-1.777.22-.632.464-1.296.645-2.015 1.714-5.687 2.854-13.894 2.61-22.954 0-.703-.047-1.398-.094-2.085v-.119l-.11-.047-3.192-1.351.047.332 3.184-2.567.071-.056v-.078a28 28 0 0 0-1.455-9.163c-.786-2.678-1.674-4.984-2.445-6.88a85 85 0 0 0-1.926-4.392 33 33 0 0 0-.559-1.145 2.5 2.5 0 0 0-.22-.387q.061.212.157.41l.512 1.177c.44 1.019 1.077 2.52 1.816 4.424a87 87 0 0 1 2.359 6.888 28 28 0 0 1 1.384 9.036l.07-.134-3.192 2.567-.252.205.299.127 3.185 1.35-.118-.166c.047.672.071 1.367.094 2.062.244 9.021-.841 17.196-2.485 22.907-.173.719-.408 1.382-.613 2.014-.204.632-.385 1.232-.597 1.777-.456 1.082-.787 2.038-1.156 2.781-.37.742-.629 1.287-.834 1.706a4 4 0 0 0-.275.569m14.301 28.83q.105-.295.173-.6c.11-.426.252-1.003.433-1.722s.401-1.674.613-2.749c.212-1.074.488-2.298.708-3.665s.495-2.859.7-4.47c.204-1.612.408-3.342.597-5.158.33-3.642.55-7.662.55-11.888s-.251-8.239-.589-11.849c-.205-1.816-.378-3.546-.629-5.158-.252-1.611-.464-3.104-.708-4.47-.244-1.367-.503-2.583-.723-3.658a65 65 0 0 0-.621-2.748c-.189-.751-.331-1.296-.441-1.722a2.7 2.7 0 0 0-.181-.593q.033.308.103.608c.094.435.212 1.019.369 1.746s.362 1.675.558 2.757.456 2.298.661 3.665c.204 1.366.464 2.851.66 4.463.197 1.611.401 3.325.59 5.142.315 3.633.543 7.638.558 11.848s-.212 8.215-.519 11.849c-.18 1.816-.33 3.538-.566 5.15-.236 1.611-.424 3.104-.644 4.463s-.457 2.59-.645 3.665a69 69 0 0 1-.551 2.764c-.165.759-.267 1.304-.361 1.738a3 3 0 0 0-.095.592"/><path fill="#27272E" d="M116.241 191.126c-2.154-1.13-4.788-.537-7.076.339s-4.521 2.054-6.951 2.03c-3.302 0-7.98-1.24-9.703-4.06a38 38 0 0 1-4.175-10.371c-2.626-12.141-3.224-22.796-5.85-34.945-1.431-6.603-3.247-14.218-5.685-20.537-2.359-6.106-4.56-12.425-6.416-18.704.33 14.218.66 28.546 2.846 42.654 1.416 9.06 3.586 17.985 4.773 27.069 1.014 7.781 1.297 15.64 1.573 23.484l7.367 9.052 20.31.411 10.607-13.745z" opacity=".3"/><path fill="#FAFAFC" d="M42.63 106.758a25.1 25.1 0 0 0-9.931 7.034 25.26 25.26 0 0 0-5.48 10.896c-5.96 26.414-16.166 61.54-16.323 72.875-.205 14.432 6.078 24.313 14.279 26.138 6.486 1.437 65.262-1.793 65.262-1.793l2.783-24.645-47.641-4.399 6.518-36.596-6.455-50.687z"/><path fill="#FAFAFC" d="m45.658 105.581 13.17-5.403L73.87 92.01l.141.443c-1.698 2.922-3.507 8.317-2.87 11.643l11.543 60.521-2.618 44.234-3.783 30.529H38.361l13.752-32.52-6.77-61.074z"/><path fill="#27272E" d="M66.652 96.276s0 .047-.055.142-.07.268-.126.442c-.094.395-.267.964-.416 1.722a53 53 0 0 0-1.007 6.517 74 74 0 0 0-.251 9.937c.125 3.775.526 7.954 1.093 12.377v.142h.133l4.31.79-.15-.268c-.244.663-.504 1.382-.7 2.117a27.1 27.1 0 0 0 .495 14.676 46.5 46.5 0 0 0 5.056 10.94c1.793 2.922 3.42 5.173 4.537 6.737l1.305 1.778.346.458c.079.095.126.15.134.142a2 2 0 0 0-.102-.166c-.079-.134-.19-.284-.315-.482l-1.242-1.824c-1.078-1.58-2.666-3.855-4.427-6.793a47.2 47.2 0 0 1-4.946-10.893 26.93 26.93 0 0 1-.456-14.471c.189-.719.44-1.422.676-2.069l.087-.229-.228-.04-4.309-.79.157.166c-.574-4.415-.983-8.578-1.14-12.346a78 78 0 0 1 .165-9.897 60 60 0 0 1 .889-6.509c.133-.79.283-1.335.354-1.738 0-.173.063-.323.086-.45a1 1 0 0 0 .047-.118m-.002 62.077v-9.652s-.125-2.37 1.872-1.88 1.62 4.257 1.62 4.257.377 14.676-.495 14.55c-.873-.126-1.211-1.256-1.211-1.256v-5.64zm-27.33-45.861q.526.234 1.077.395 1.468.536 2.863 1.24a22.3 22.3 0 0 1 7.72 6.62 16.5 16.5 0 0 1 1.518 2.48c.378.825.683 1.681.912 2.559.397 1.495.66 3.023.787 4.566.11 1.311.133 2.369.141 3.159q-.042.577 0 1.153a5.3 5.3 0 0 0 .126-1.153 31 31 0 0 0 0-3.159 24 24 0 0 0-.692-4.637 15.4 15.4 0 0 0-.912-2.63 17 17 0 0 0-1.572-2.552 21.4 21.4 0 0 0-7.918-6.651 19.6 19.6 0 0 0-2.933-1.137 5.6 5.6 0 0 0-1.117-.253"/><path fill="#27272E" d="m74.034 91.805-.244.15-.786.434-2.901 1.651-11.213 6.233-18.87 7.946a20.3 20.3 0 0 0-9.507 7.899 27.3 27.3 0 0 0-3.004 6.106 32 32 0 0 0-1.674 6.974c-3.492 15.008-7.454 32.236-11.3 50.553-.786 3.95-1.572 7.836-2.358 11.683-.197.963-.354 1.927-.527 2.883s-.354 1.904-.472 2.859a31.4 31.4 0 0 0-.29 5.688 28.7 28.7 0 0 0 2.5 10.726 20.4 20.4 0 0 0 2.815 4.542 16 16 0 0 0 3.931 3.381 16.75 16.75 0 0 0 9.608 2.369l9.562-.197c6.164-.15 11.912-.332 17.157-.513l24.846-.909 6.754-.26 1.762-.056h.597l-.597.048-1.754.102-6.754.332c-5.866.277-14.35.656-24.839 1.043-5.244.197-11.008.395-17.164.561l-9.57.221a17.1 17.1 0 0 1-9.805-2.409 16.7 16.7 0 0 1-4.041-3.452 21.3 21.3 0 0 1-2.87-4.629 29 29 0 0 1-2.548-10.877c-.08-1.924.018-3.852.291-5.758.118-.972.307-1.92.472-2.875s.33-1.928.527-2.883a440 440 0 0 1 2.359-11.691c3.845-18.309 7.823-35.545 11.346-50.553a32.3 32.3 0 0 1 1.667-7.022 27.2 27.2 0 0 1 3.058-6.169 20.54 20.54 0 0 1 9.672-7.986l18.918-7.899 11.26-6.137 2.972-1.58.786-.403zM56.657 37.002a17.3 17.3 0 0 0-4.417-5.181 17.2 17.2 0 0 0-6.066-3.067 17.18 17.18 0 0 0-13.207 1.708c-3.39 1.975-6.212 5.53-5.984 9.479.212 3.712 2.964 6.706 5.559 9.352-4.136 1.73-6.204 6.99-4.852 11.272 1.353 4.281 5.615 7.306 10.065 7.717s8.94-1.532 12.156-4.66a24.6 24.6 0 0 0 6.353-11.675"/><path fill="#27272E" d="M42.535 46.576a7.2 7.2 0 0 1-2.265.577 10.66 10.66 0 0 1-6.196-1.296 10.9 10.9 0 0 1-3.389-2.851 10.6 10.6 0 0 1-2.068-4.66 12.7 12.7 0 0 1 .338-5.83 12.65 12.65 0 0 1 2.91-5.055 14.1 14.1 0 0 1 4.876-3.178 14 14 0 0 1 5.739-.93 12.88 12.88 0 0 1 8.649 3.578 8.66 8.66 0 0 1 2.547 5.782 7 7 0 0 1-.165 1.738c-.039.198-.102.34-.126.435-.023.094-.055.142-.062.142a9.8 9.8 0 0 0 .196-2.315 8.66 8.66 0 0 0-2.595-5.576 12.65 12.65 0 0 0-8.444-3.405 13.8 13.8 0 0 0-5.572.924 13.8 13.8 0 0 0-4.737 3.089 12.3 12.3 0 0 0-2.808 4.896 12.4 12.4 0 0 0-.337 5.641c.276 1.642.949 3.19 1.958 4.51a11 11 0 0 0 4.11 3.23 10.96 10.96 0 0 0 5.129.965q1.171-.125 2.312-.411"/><path fill="#555567" d="M47.615 50.02a2.4 2.4 0 0 1-.543.347 9.6 9.6 0 0 1-1.572.72c-.817.29-1.66.502-2.517.631a15.5 15.5 0 0 1-3.184.11 14.7 14.7 0 0 1-3.145-.592 14 14 0 0 1-2.398-1.003 10.6 10.6 0 0 1-1.47-.948c-.323-.26-.488-.41-.472-.434.015-.024.786.49 2.075 1.121.76.365 1.55.666 2.36.9 1.997.57 4.088.73 6.148.467a15.5 15.5 0 0 0 2.477-.53c1.4-.426 2.201-.86 2.24-.79m-20.646-9.383c.056-.33.162-.65.314-.948a5.45 5.45 0 0 1 1.667-2.164 7.84 7.84 0 0 1 3.83-1.296 19 19 0 0 1 4.93.237 25.9 25.9 0 0 1 8.42 2.915q1.186.66 2.28 1.461c.288.177.553.389.787.632a4.3 4.3 0 0 1-.857-.505 40 40 0 0 0-2.359-1.327 28 28 0 0 0-8.35-2.773 19.6 19.6 0 0 0-4.82-.26 7.75 7.75 0 0 0-3.696 1.153 5.46 5.46 0 0 0-1.69 1.998q-.207.45-.456.877M50.98 56.481s0 .095-.11.269c-.11.173-.236.402-.425.71a13 13 0 0 1-1.981 2.323 13.5 13.5 0 0 1-3.79 2.464 13.3 13.3 0 0 1-5.433 1.082 13 13 0 0 1-5.402-1.192 10.1 10.1 0 0 1-3.562-2.797 6.7 6.7 0 0 1-1.313-2.764 4.5 4.5 0 0 1-.102-.83v-.284s.047.395.236 1.074a7.1 7.1 0 0 0 1.391 2.623 10.1 10.1 0 0 0 3.492 2.638 12.95 12.95 0 0 0 5.252 1.122c1.809.02 3.603-.327 5.276-1.02a13.7 13.7 0 0 0 3.743-2.369 19 19 0 0 0 2.728-3.049"/><path fill="#555567" d="M52.483 60.589a7 7 0 0 1-.865 1.05 37 37 0 0 1-2.595 2.63c-.574.53-1.226 1.09-1.95 1.66a12.46 12.46 0 0 1-9.05 2.914 11.2 11.2 0 0 1-6.337-2.196 11.6 11.6 0 0 1-3.326-4.384 10.2 10.2 0 0 1-.873-3.61 8 8 0 0 1 0-1.019 1.6 1.6 0 0 1 .055-.347q.026.178 0 .355-.006.5.055.995c.12 1.217.447 2.403.967 3.508a11.6 11.6 0 0 0 3.303 4.202 11 11 0 0 0 6.125 2.085c2.2.131 4.4-.287 6.4-1.216.86-.44 1.672-.97 2.422-1.58.723-.553 1.376-1.098 1.958-1.58a57 57 0 0 0 2.681-2.52q.487-.504 1.03-.947"/><path fill="#FF646E" d="m59.096 36.529 1.148.908c-.464-1.96-2.65-3.16-4.648-2.986a6.7 6.7 0 0 0-2.769 1.112 6.75 6.75 0 0 0-2.019 2.206 16.4 16.4 0 0 0-1.926 5.703c-.614 3.317-.92 6.856.393 9.952s4.718 5.53 7.957 4.74c3.24-.79 5.056-4.353 5.543-7.67a18.7 18.7 0 0 0-.436-7.356 18.7 18.7 0 0 0-3.243-6.61"/><path fill="#27272E" d="M54.591 51.552a5 5 0 0 1-3.145.68 6.6 6.6 0 0 1-2.225-.498c-.574-.23-.787-.664-.676-.672.238.177.504.313.786.403.7.198 1.42.318 2.146.356a22 22 0 0 0 3.114-.269m1.595-5.861a16.7 16.7 0 0 1-3.775.087 17 17 0 0 1-3.758-.324 18 18 0 0 1 3.774-.087 18.2 18.2 0 0 1 3.759.324m-1.259-6.264c0 .135-1.164 0-2.532-.158a6 6 0 0 0-1.73.103c-.432.095-.692.205-.723.15s.188-.253.637-.434a4.4 4.4 0 0 1 1.84-.23c.864.028 1.716.22 2.508.57m7.99-15.846c-.095-3.302 2.956-5.86 6.023-7.109s6.47-1.667 9.207-3.515c2.422-1.635 4.05-4.186 6.094-6.28a20.27 20.27 0 0 1 9.17-5.366 20.2 20.2 0 0 1 10.611.019 20.27 20.27 0 0 1 9.151 5.399 20.4 20.4 0 0 1 5.185 9.3c1.179 4.74.377 10.27-3.318 13.429-4.293 3.633-10.662 2.828-16.159 1.698s-11.723-2.251-16.315.995c-2.768 1.96-4.356 5.143-6.054 8.089s-3.814 5.948-7.014 7.054-7.548-.79-7.674-4.203"/><path fill="#27272E" d="M63.138 25.399c.362 2.78-1.636 5.26-3.625 7.22s-4.23 4.036-4.584 6.809c-.409 3.246 1.942 6.437 1.258 9.628-.432 2.03-1.997 3.594-2.948 5.435a11.55 11.55 0 0 0-.59 8.499c.786 2.796 2.123 9.036 4.057 11.208 5.347 6.004 13.854 11.185 21.67 12.986s15.93 1.817 23.935 1.32c6.549-.404 14.082-.103 19.547-9.156 2.823-4.691 4.23-10.924 5.732-16.192 1.289-4.542 2.414-9.4 1.061-13.926-.786-2.638-2.359-4.976-3.145-7.614-.967-3.294-.613-6.825-1.006-10.27a23.55 23.55 0 0 0-3.786-10.376 23.4 23.4 0 0 0-8.092-7.487 23.28 23.28 0 0 0-21.374-.675"/><path fill="#B78876" d="M74.278 100.762s0 .198.04.293zm47.106-63.981c-.613-9.439-6.872-21.019-16.237-20l-29.242 7.496a5.5 5.5 0 0 0-3.548 1.85 5.55 5.55 0 0 0-1.366 3.774l3.208 69.282a9.4 9.4 0 0 0 .786 3.412c2.17 4.802 9.389 17.022 25.051 12.077 3.837-1.208 5.591-5.426 6.346-9.755 0-.513.212-.971.22-1.461.377-3.231.417-6.493.118-9.732.055-5.718.047-8.064.047-8.01 0 .056 12.007-2.03 14.468-17.78 1.25-7.827.825-20.663.149-31.153"/><path fill="#27272E" d="M116.675 47.05a2.02 2.02 0 0 1-.554 1.415c-.362.38-.857.604-1.381.623a1.9 1.9 0 0 1-1.42-.468 1.93 1.93 0 0 1-.655-1.349 2.02 2.02 0 0 1 .55-1.412c.36-.38.854-.605 1.376-.626a1.92 1.92 0 0 1 1.889 1.075c.114.232.18.484.195.742m1.948-3.586c-.251.26-1.777-.87-3.931-.861-2.155.008-3.743 1.105-3.979.837-.118-.118.142-.593.826-1.098a5.5 5.5 0 0 1 3.184-.995 5.27 5.27 0 0 1 3.145 1.01c.653.506.881.988.755 1.107M95.265 47.05a2 2 0 0 1-.55 1.414c-.36.381-.854.605-1.377.624a1.9 1.9 0 0 1-1.42-.468 1.93 1.93 0 0 1-.656-1.349 2 2 0 0 1 .549-1.414c.36-.382.855-.605 1.378-.624a1.9 1.9 0 0 1 1.42.468 1.93 1.93 0 0 1 .656 1.349m2.098-3.16c-.251.261-1.777-.869-3.931-.853s-3.743 1.098-3.979.837c-.118-.118.134-.6.786-1.105a5.54 5.54 0 0 1 3.193-.996 5.3 5.3 0 0 1 3.145 1.011c.684.538.912 1.011.786 1.106m7.887 16.122c0-.126 1.337-.363 3.515-.648.55-.055 1.069-.166 1.163-.545a2.86 2.86 0 0 0-.369-1.643c-.527-1.343-1.07-2.749-1.644-4.226-2.28-6.01-3.931-10.948-3.695-11.058s2.288 4.74 4.568 10.719q.826 2.227 1.573 4.25c.352.665.455 1.436.291 2.172a1.37 1.37 0 0 1-.905.79c-.304.085-.619.13-.935.134-2.194.166-3.554.173-3.562.055"/><path fill="#AA6550" d="M106.8 85.754a39.73 39.73 0 0 1-20.97-5.616s5.299 10.893 20.985 9.384zm-2.456-20.537a3.92 3.92 0 0 0-3.499-1.446 3.56 3.56 0 0 0-2.453 1.328 2.28 2.28 0 0 0-.165 2.59 2.63 2.63 0 0 0 2.838.72 8.3 8.3 0 0 0 2.76-1.667c.245-.174.453-.394.613-.648a.71.71 0 0 0 0-.79"/><path fill="#27272E" d="M98.889 61.529c.354 0 .362 2.37 2.359 4.004 1.997 1.635 4.513 1.406 4.529 1.738 0 .142-.558.458-1.612.49a5.8 5.8 0 0 1-3.782-1.32 5.1 5.1 0 0 1-1.84-3.356c-.079-.988.18-1.572.346-1.556m-.559-21.422c-.212.592-2.358.316-4.906.632-2.548.315-4.592 1.01-4.93.481-.15-.252.204-.79 1.03-1.382a8.58 8.58 0 0 1 7.493-.853c.936.38 1.392.837 1.313 1.122m19.484-2.931c-.377.49-1.871 0-3.664 0-1.792 0-3.302.34-3.656-.174-.157-.252.087-.742.747-1.216a5.28 5.28 0 0 1 5.897.174c.637.466.842.971.676 1.216"/><path fill="#27272E" d="M64.968 76.063c2.162.431 4.395.34 6.516-.265a13.9 13.9 0 0 0 5.68-3.218 14 14 0 0 0 3.595-5.465c.75-2.082.998-4.314.721-6.51-.487-3.863-2.563-7.805-1.226-11.462 1.76-4.834 8.515-6.32 10.308-11.153 1.046-2.812.11-6.09 1.29-8.839 1.108-2.59 3.813-4.076 6.455-5.04 2.642-.963 5.464-1.58 7.674-3.34 2.209-1.762 3.593-4.993 2.17-7.418a148 148 0 0 0-34.25 8.357c-2.556.964-5.245 2.117-6.755 4.4-1.572 2.417-1.525 5.53-1.392 8.436l1.966 42.417"/><path fill="#555567" d="M65.952 81.481a1.1 1.1 0 0 1-.26-.166L65 80.786c-.605-.482-1.502-1.185-2.594-2.164a27.5 27.5 0 0 1-3.688-3.894 14.5 14.5 0 0 1-2.933-6.485 9.9 9.9 0 0 1 2.02-8.278 31 31 0 0 1 3.657-3.16 8.56 8.56 0 0 0 2.846-3.902c1.156-3.215.645-6.928 1.093-10.727a21.4 21.4 0 0 1 4.443-10.853 14.6 14.6 0 0 1 4.647-3.815 28.8 28.8 0 0 1 5.504-1.856 12.7 12.7 0 0 0 4.812-2.37 19 19 0 0 0 3.499-3.87c1.966-2.805 3.42-5.798 5.3-8.294a17.6 17.6 0 0 1 3.09-3.294 11.8 11.8 0 0 1 3.656-2.007 7.83 7.83 0 0 1 6.966.696 6.4 6.4 0 0 1 1.747 2.1 6.5 6.5 0 0 1 .722 2.639 4.75 4.75 0 0 1-.943 3.246 3 3 0 0 1-.637.609q-.238.189-.252.166c-.008-.016.063-.08.205-.214q.325-.29.574-.647a4.68 4.68 0 0 0 .786-3.16 6.2 6.2 0 0 0-2.461-4.408 7.4 7.4 0 0 0-6.581-.545 11.4 11.4 0 0 0-3.484 1.951 17.7 17.7 0 0 0-2.956 3.255c-1.816 2.456-3.248 5.442-5.237 8.325a19.6 19.6 0 0 1-3.601 4.013 13.4 13.4 0 0 1-5.032 2.52 28.4 28.4 0 0 0-5.363 1.824 14 14 0 0 0-4.434 3.642A20.84 20.84 0 0 0 66.07 42.31c-.456 3.673.07 7.45-1.164 10.861a9.25 9.25 0 0 1-3.059 4.147 31.6 31.6 0 0 0-3.617 3.041 9.45 9.45 0 0 0-1.966 7.82c.395 2.3 1.343 4.47 2.76 6.32a30 30 0 0 0 3.554 3.949c1.07.995 1.935 1.738 2.509 2.251q.463.356.865.782"/><path fill="#27272E" d="M129.563 56.86c.419-.422.732-.94.912-1.509a5.82 5.82 0 0 0-.897-4.62c-.542-.877-1.273-1.746-2.013-2.733a9.5 9.5 0 0 1-1.808-3.523 12.5 12.5 0 0 1-.173-4.369c.165-1.508.464-3.04.66-4.605a18 18 0 0 0-1.022-8.736 19.6 19.6 0 0 0-3.75-6.169 18 18 0 0 0-3.719-3.16c-.975-.623-1.573-.908-1.573-.94q.228.058.432.175.613.28 1.188.631a16.9 16.9 0 0 1 3.853 3.105 19.4 19.4 0 0 1 3.892 6.232 18.2 18.2 0 0 1 1.077 8.918c-.197 1.58-.503 3.12-.668 4.597a12.1 12.1 0 0 0 .141 4.242 9.25 9.25 0 0 0 1.706 3.404c.724.987 1.455 1.88 1.997 2.788a5.87 5.87 0 0 1 .787 4.827c-.145.434-.384.83-.7 1.16a1.6 1.6 0 0 1-.322.285"/></g></svg>