<svg xmlns="http://www.w3.org/2000/svg" width="213" height="240" fill="none" viewBox="0 0 213 240"><g clip-path="url(#medic-attending-primary_svg__a)"><circle cx="112.019" cy="140" r="100" fill="#E6E6F0"/><mask id="medic-attending-primary_svg__b" width="201" height="200" x="12" y="40" maskUnits="userSpaceOnUse" style="mask-type:alpha"><circle cx="112.019" cy="140" r="100" fill="#fff"/></mask><g mask="url(#medic-attending-primary_svg__b)"><path fill="#FAFAFC" d="m114.341 98.674-15.926 6.108a13.36 13.36 0 0 0-5.219 3.691c-3.48 4.006-9.637 12.653-13.325 26.833-5.002 19.198-10.333 33.639-10.333 33.639l-17.831-13.22-24.711 24.494s41.61 36.345 54.797 36.179l-8.698 59.006h25.546l20.875-176.721 1.192-8.456c-.426.157-5.184 6.806-6.367 8.447"/><path fill="#FFBF9D" d="M43.4 126.274s2.288 9.259 3.801 11.789a12.35 12.35 0 0 1 1.74 4.66l.948 14.835-12.09 11.981-23.45-17.575s-8.402-8.237-6.132-11.344c0 0 1.113-1.518 3.07 0 0 0-8.759-6.815-6.732-9.485s5.045 1.204 8.22 3.901c3.174 2.696 4.2 3.49 4.2 3.49l-9.106-8.84s-2.61-2.277-.296-4.136 5.654 2.793 7.254 3.761c1.6.969 10.568 9.547 10.568 9.547s-6.219-7.95-6.662-8.378c-.444-.427-6.089-4.668-3.967-7.111 2.123-2.444 7.472 3.49 9.246 4.851 1.775 1.362 8.455 9.355 9.942 10.166 1.487.812 4.184 3.159 5.837 2.417 1.652-.741-1.74-6.98-1.2-9.188.538-2.208 1.452-6.492 4.81-5.341"/><path fill="#FF9A6C" d="M37.66 154.914a12.5 12.5 0 0 1-.87-2.191 9.3 9.3 0 0 1 .644-5.506c.808-2.085 1.913-3.804 2.522-5.235a4.6 4.6 0 0 0 .417-1.746c0-.436-.104-.663-.139-.654a6.6 6.6 0 0 1-.678 2.234 43 43 0 0 0-2.705 5.148 8.93 8.93 0 0 0-.487 5.855c.174.829.633 1.57 1.296 2.095m-16.335-4.826c.07 0-.287-.872-1.435-1.623-1.148-.75-2.923-1.361-4.21-2.757a14 14 0 0 1-1.505-2.322 9 9 0 0 0-1.383-1.928c-.991-.995-1.94-1.065-1.93-.995a7.4 7.4 0 0 1 1.608 1.3c.469.588.871 1.226 1.2 1.903a12.3 12.3 0 0 0 1.54 2.46 7.4 7.4 0 0 0 2.392 1.685c.792.392 1.496.706 2.053 1.029q.879.565 1.67 1.248"/><path fill="#FFBF9D" d="M109.035 33.123a27.37 27.37 0 0 1 8.942-17.763 27.2 27.2 0 0 1 18.578-6.975h1.409c15.196 1.108 22.745 14.677 21.215 29.887l-2.94 50.786-.166 2.46-35.2 6.615.243-12.958s-14.595-2.487-14.56-17.156c.017-7.12 1.209-21.71 2.479-34.896"/><path fill="#FF9A6C" d="M120.995 85.122a35.36 35.36 0 0 0 19.231-5.314s-4.653 10.471-19.223 8.962z"/><path fill="#27272E" d="M114.776 46.701a2.1 2.1 0 0 0 .558 1.476c.37.4.881.641 1.425.67a2 2 0 0 0 1.97-1.093 2 2 0 0 0 .213-.765 2.1 2.1 0 0 0-.558-1.476c-.37-.4-.881-.641-1.425-.67a2 2 0 0 0-1.482.467 2 2 0 0 0-.701 1.391m-2.662-6.361c.253.279 1.853-.873 4.097-.873s3.879 1.187 4.123.916c.122-.122-.131-.62-.87-1.152a5.73 5.73 0 0 0-3.296-1.073 5.5 5.5 0 0 0-3.271 1.004c-.704.567-.948 1.056-.783 1.178m23.815 6.361a2.1 2.1 0 0 0 .558 1.476c.37.4.881.641 1.425.67a2 2 0 0 0 1.482-.467 2 2 0 0 0 .701-1.39 2.1 2.1 0 0 0-.558-1.477c-.37-.4-.881-.641-1.425-.67a2 2 0 0 0-1.482.467 2 2 0 0 0-.701 1.39m-1.774-5.619c.252.28 1.852-.872 4.096-.872s3.88 1.187 4.123.916c.122-.122-.13-.62-.87-1.152a5.73 5.73 0 0 0-3.296-1.073 5.57 5.57 0 0 0-3.271 1.003c-.669.568-.904 1.056-.782 1.178m-8.394 16.598c0-.123-1.383-.385-3.644-.707-.574-.07-1.114-.192-1.201-.585-.04-.596.103-1.19.409-1.702l1.74-4.363c2.444-6.204 4.227-11.344 3.975-11.405s-2.436 4.852-4.88 11.065q-.87 2.295-1.687 4.363a3.3 3.3 0 0 0-.331 2.251 1.44 1.44 0 0 0 .931.873q.473.139.965.157c2.297.149 3.706.183 3.723.053m6.584 1.657c-.365 0-.4 2.418-2.513 4.128s-4.706 1.396-4.732 1.745c0 .157.574.489 1.67.532a6.08 6.08 0 0 0 3.949-1.317 5.28 5.28 0 0 0 1.948-3.49c.113-.995-.156-1.606-.322-1.598"/><path fill="#27272E" d="M110.54 26.413s3.992-9.128 8.437-11.204c5.384-2.514 7.593 3.403 12.708 2.05 5.114-1.352 10.255-3.77 15.404.253 5.636 4.363 2.922 7.4 3.174 13.918 1.044 26.397 5.741 33.928 7.289 21.528.166-1.361 3.949-2.391 4.593-8.133.87-7.452 1.252-16.501-.331-21.815-1.339-4.477-3.827-7.6-8.324-11.065-7.106-5.471-16.961-5.724-23.667-5.148s-19.727 8.106-19.283 19.616"/><path fill="#FFBF9D" d="M156.621 52.539a4 4 0 0 1 1.369-2.82 3.97 3.97 0 0 1 2.98-.95c2.723.297 5.741 1.894 5.48 7.548-.47 10.018-10.437 7.487-10.437 7.2 0-.289.382-6.78.608-10.978"/><path fill="#FF9A6C" d="M158.387 59.843s.165.13.452.279c.405.196.869.227 1.297.087 1.078-.34 2.044-1.98 2.174-3.778a5.8 5.8 0 0 0-.365-2.522 2.05 2.05 0 0 0-1.253-1.405.87.87 0 0 0-1.044.427c-.147.28-.095.48-.147.498-.053.017-.209-.183-.114-.594.07-.243.22-.456.427-.602.283-.198.633-.276.974-.218a2.49 2.49 0 0 1 1.739 1.64c.384.89.545 1.861.47 2.828-.156 2.016-1.279 3.857-2.74 4.206a1.85 1.85 0 0 1-1.574-.34c-.296-.262-.331-.489-.296-.506m-22.623 1.003c-.165 0-.209-1.056-1.044-1.946s-1.852-1.047-1.844-1.213c.009-.165.279-.148.74-.07a2.95 2.95 0 0 1 1.522.873 2.9 2.9 0 0 1 .756 1.606c.044.515-.06.759-.13.75m.922-2.757c-.139.087-.496-.27-1.027-.515-.53-.244-1.017-.323-1.035-.48-.017-.157.592-.375 1.288-.044.696.332.922.943.774 1.039"/><path fill="#1900AF" d="m120.432 90.504 5.458 3.413L157.287 80.5l1.428 6.904-28.41 58.546-1.699 111.652-30.74-2.498 19.01-150.794z"/><path fill="#27272E" d="M149.898 93.185c-.339.264-.707.49-1.096.672l-3.044 1.745a860 860 0 0 0-9.994 5.69l-4.888 2.853-.209.122-.113-.201c-1.522-2.748-2.418-5.235-3.201-6.98-.374-.873-.687-1.528-.87-1.99a4 4 0 0 1-.322-.716s.192.21.453.646c.26.437.617 1.1 1.035 1.946.869 1.676 1.818 4.171 3.34 6.841l-.322-.087c1.496-.872 3.148-1.885 4.888-2.888 3.888-2.251 7.454-4.206 10.072-5.567a98 98 0 0 1 3.123-1.562q.55-.316 1.148-.524m-59.12 29.276a1 1 0 0 1 0 .262c0 .201-.044.454-.07.768q-.115 1.063-.322 2.923c-.295 2.618-.713 6.248-1.226 10.768-1.026 9.084-2.349 21.658-3.662 35.55s-2.374 26.493-3.166 35.612c-.391 4.52-.713 8.202-.94 10.785-.121 1.248-.208 2.225-.278 2.932 0 .314-.06.567-.087.768a1 1 0 0 1 0 .253 1.2 1.2 0 0 1 0-.262v-.759c0-.715.105-1.693.183-2.941.183-2.617.452-6.274.783-10.811.696-9.119 1.74-21.72 3.018-35.629a1175 1175 0 0 1 3.81-35.541 589 589 0 0 1 1.383-10.751c.174-1.23.313-2.208.417-2.915.044-.305.087-.558.113-.759q.009-.128.044-.253m76.29 71.415c-.105.122-2.088-1.981-5.219-3.491-3.131-1.509-5.984-1.867-5.958-2.024a5 5 0 0 1 1.87.139c1.495.277 2.944.762 4.306 1.44a16.7 16.7 0 0 1 3.757 2.548c.492.387.913.856 1.244 1.388"/><path fill="#FAFAFC" d="M189.648 110.812s-6.332-4.956-12.725-10.122-16.97-12.836-16.97-12.836l-1.914-6.45s-5.627 5.943-10.559 16.694c-7.089 15.437-15.265 37.967-16.918 47.697l-6.636 129.53 67.844-.043-14.978-88.527z"/><path fill="#27272E" d="M130.067 154.853q.144-.361.339-.699l1.044-1.945 3.922-7.095 13.1-23.333c.234-.411.46-.821.695-1.222v.192l-1.609-5.48-.052-.166.148-.096 3.914-2.784-.087.123c2.427-7.121 4.506-13.247 6.002-17.645l1.739-5.078.496-1.344q.072-.237.191-.454-.029.248-.121.48l-.418 1.37c-.391 1.24-.948 2.967-1.635 5.122l-5.828 17.697v.07l-.061.052-3.914 2.784.096-.262 1.618 5.471v.096l-.052.096-.688 1.222-13.229 23.264-4.062 6.981-1.122 1.902q-.18.36-.426.681m-17.213 3.438a3.7 3.7 0 0 1-.148-.637 117 117 0 0 0-.322-1.85c-.261-1.667-.635-3.988-1.087-6.824-.87-5.82-2.097-13.752-3.427-22.531-.14-.873-.27-1.806-.4-2.696v-.088l.043-.069 3.323-6.039.13.34-3.305-1.09-.226-.079.087-.218 4.862-12.897 1.418-3.656c.165-.384.287-.707.4-.96q.053-.175.156-.323-.023.18-.087.349c-.087.262-.2.585-.33.986-.322.916-.757 2.155-1.305 3.7-1.165 3.22-2.783 7.696-4.697 12.958l-.139-.297 3.314 1.074.278.087-.139.253c-1.052 1.928-2.166 3.953-3.305 6.047v-.157c.13.873.27 1.798.4 2.705 1.279 8.779 2.435 16.728 3.288 22.549.383 2.844.704 5.174.931 6.85q.139 1.151.234 1.858.059.325.053.655m6.601-59.024a20 20 0 0 1 1.74 3.342h-.4c.417-.811.957-1.701 1.548-2.617 1.018-1.58 1.983-2.976 2.67-3.997q.5-.861 1.148-1.614a6.3 6.3 0 0 1-.869 1.806c-.609 1.073-1.531 2.496-2.54 4.075-.6.873-1.148 1.745-1.583 2.565l-.226.402-.174-.41a20.7 20.7 0 0 1-1.314-3.552m-8.428 156.974a2 2 0 0 1 0-.419c0-.296.043-.706.087-1.221.087-1.108.226-2.688.391-4.712.365-4.11.87-10.018 1.54-17.304 1.348-14.625 3.209-34.791 5.271-57.069s4.027-42.435 5.41-57.06c.713-7.278 1.296-13.176 1.739-17.286.209-2.025.374-3.596.487-4.695l.14-1.222q.016-.21.061-.419.02.21 0 .42c0 .305-.053.706-.087 1.23-.096 1.1-.227 2.678-.401 4.703-.365 4.11-.869 10.018-1.539 17.304-1.348 14.625-3.21 34.791-5.219 57.077s-4.027 42.427-5.419 57.052c-.713 7.286-1.287 13.185-1.739 17.286l-.487 4.704c-.053.514-.105.924-.14 1.221a3 3 0 0 1-.095.41"/><path fill="#27272E" d="m159.222 89.913-6.941 25.105-2.896 1.108 1.983 6.283-19.892 29.983 17.909-31.685-1.618-5.471 3.914-2.792zm-32.278 5.96 1.827 13.063 17.718-13.788-15.735 8.753zM80.976 223.082l-.748 5.951s3.574 4.608 7.062 3.639 18.075-7.347 18.075-7.347l-.227-2.243s-8.506-3.49-8.993-3.377-15.17 3.377-15.17 3.377m28.086 13.237.435 5.463s26.407-3.037 37.784-7.374c0 0 22.197-8.254 28.503-16.047-9.028 3.805-19.588 7.042-30.886 10.009z" opacity=".2"/><path fill="#FAFAFC" d="m52.585 184.059-3.035-4.084 2.644-5.943 5.819-4.363 6.436-1.335 3.262 4.381zm-.817-12.208 9.698-6.981zm7.785 9.852 9.689-6.981zm7.775 9.86 9.69-6.981zm-32.582-42.967 9.698-6.981z"/><path fill="#9292A9" d="M140.076 202.193 103.345 153.5a3 3 0 0 0-3.37-1.063l-56.24 19.275a3.01 3.01 0 0 0-1.925 2.038 3.03 3.03 0 0 0 .579 2.746l45.738 55.221a2.99 2.99 0 0 0 3.338.904l52.574-19.212a3.033 3.033 0 0 0 1.325-4.741z"/><path fill="#27272E" d="M65.512 170.085a1.57 1.57 0 0 0 1.917 1.481 1.575 1.575 0 0 0-.38-3.107 1.566 1.566 0 0 0-1.537 1.626m11.361-3.859a1.57 1.57 0 0 0 1.017 1.402 1.557 1.557 0 0 0 2.077-1.217 1.57 1.57 0 0 0-.717-1.578 1.552 1.552 0 0 0-2.282.788 1.6 1.6 0 0 0-.095.605"/><path fill="#FFBF9D" d="m102.216 206.188-2.662-.602s-1.087-4.415-2.279-5.305-13.047-5.829-15.656-7.138-12.803-5.55-13.978-3.063c-1.33 2.81 2.827 4.93 5.08 5.907s8.698 3.212 7.428 4.774-15.943 1.474-15.943 1.474l-1.67-1.963s-2.61 2.618-2.166 5.175a11.4 11.4 0 0 0 1.548 4.162l1.053-.044a2.94 2.94 0 0 0 0 3.046 28 28 0 0 0 2.922 3.412s1.783 3.446 6.82 4.633c.59.14 23.988 1.353 23.988 1.353l8.498 1.911z"/><path fill="#FAFAFC" d="M163.719 122.618c-.269.576-7.219 65.359-7.219 65.359l-54.502 16.58 5.219 32.112s73.62-13.22 81.222-27.051c6.462-11.781 8.011-61.886 8.333-76.624a39.4 39.4 0 0 0-1.218-10.664c-1.079-4.153-2.931-9.162-5.889-11.492-5.54-4.38-25.946 11.78-25.946 11.78"/><path fill="#27272E" d="M162.188 136.144s0 .323-.069.951c-.07.628-.157 1.571-.279 2.766-.252 2.443-.617 5.995-1.096 10.515-.974 9.075-2.365 22.033-4.035 37.618v.14l-.131.044-54.493 16.579.174-.279c0 .209.07.436.113.663 1.74 11.013 3.48 21.65 5.08 31.458l-.278-.201c22.162-4.223 41.106-8.831 54.275-12.976 1.661-.48 3.201-1.056 4.671-1.527l2.131-.715 1.966-.742c1.261-.489 2.444-.873 3.479-1.344l2.879-1.265a19 19 0 0 0 2.253-1.065l1.609-.872c.426-.218.756-.384.991-.515q.17-.088.348-.157l-.322.192-.974.558-1.592.873a23 23 0 0 1-2.244 1.099l-2.87 1.301c-1.07.445-2.253.872-3.479 1.378l-1.966.759-2.122.733c-1.47.489-3.01 1.065-4.662 1.562-13.178 4.224-32.105 8.901-54.284 13.159l-.244.044v-.236c-1.592-9.808-3.314-20.445-5.106-31.457 0-.227-.069-.454-.104-.663v-.21l.209-.07 54.51-16.579-.148.183c1.74-15.576 3.192-28.526 4.21-37.601.522-4.52.931-8.063 1.218-10.471.139-1.196.252-2.112.33-2.758s.052-.872.052-.872m23.989-26.746c0 .105-1.539 0-3.975.297a24 24 0 0 0-4.192.96 26.7 26.7 0 0 0-4.81 2.146 27 27 0 0 0-4.245 3.116 25 25 0 0 0-2.913 3.159c-1.488 1.963-2.14 3.368-2.227 3.315a4.2 4.2 0 0 1 .426-.994q.262-.58.6-1.117c.27-.419.539-.873.922-1.414a22 22 0 0 1 2.888-3.281 25 25 0 0 1 4.349-3.22 25.6 25.6 0 0 1 4.914-2.147 22 22 0 0 1 4.288-.872 15 15 0 0 1 1.679-.096 10 10 0 0 1 1.27 0q.522.013 1.026.148"/><path fill="#FAFAFC" d="M157.805 154.914h-24.711v6.151h24.711z"/><path fill="#27272E" d="M157.805 161.065a3 3 0 0 1 0-.436v-1.221c0-1.091-.044-2.618-.07-4.494l.13.139c-5.54.053-14.551.087-24.702.087.096-.096-.235.227.218-.226v6.108l-.227-.218 17.57.096 5.219.061h1.931q-.226.018-.452 0h-1.374l-5.158.061-17.727.105h-.217v-6.37c.452-.454.13-.123.235-.227 10.15 0 19.135 0 24.702.096h.139v.131c0 1.928-.061 3.49-.078 4.581v1.186a2 2 0 0 1-.139.541"/></g><mask id="medic-attending-primary_svg__c" width="176" height="170" x="0" y="0" maskUnits="userSpaceOnUse" style="mask-type:alpha"><path fill="#C4C4C4" d="M.535 0H175.89v169.515H.535z"/></mask><g mask="url(#medic-attending-primary_svg__c)"><path fill="#FAFAFC" d="m114.341 98.674-15.926 6.108a13.36 13.36 0 0 0-5.219 3.691c-3.48 4.006-9.637 12.653-13.325 26.833-5.002 19.198-10.333 33.639-10.333 33.639l-17.831-13.22-24.711 24.495s41.61 36.344 54.797 36.178l-8.698 59.006h25.546l20.875-176.721 1.192-8.456c-.426.157-5.184 6.806-6.367 8.447"/><path fill="#FFBF9D" d="M43.4 126.275s2.288 9.258 3.801 11.789a12.35 12.35 0 0 1 1.74 4.659l.948 14.835-12.09 11.981-23.45-17.575s-8.402-8.237-6.132-11.344c0 0 1.113-1.518 3.07 0 0 0-8.759-6.815-6.732-9.485s5.045 1.204 8.22 3.901c3.174 2.696 4.2 3.49 4.2 3.49l-9.106-8.839s-2.61-2.278-.296-4.137 5.654 2.793 7.254 3.761c1.6.969 10.568 9.547 10.568 9.547s-6.219-7.95-6.662-8.377c-.444-.428-6.089-4.669-3.967-7.112s7.472 3.49 9.246 4.852c1.775 1.361 8.455 9.354 9.942 10.165 1.487.812 4.184 3.159 5.837 2.418 1.652-.742-1.74-6.981-1.2-9.189.538-2.208 1.452-6.492 4.81-5.34"/><path fill="#FF9A6C" d="M37.66 154.914a12.6 12.6 0 0 1-.87-2.19 9.3 9.3 0 0 1 .644-5.507c.808-2.085 1.913-3.804 2.522-5.235a4.6 4.6 0 0 0 .417-1.746c0-.436-.104-.663-.139-.654a6.6 6.6 0 0 1-.678 2.234 43 43 0 0 0-2.705 5.148 8.93 8.93 0 0 0-.487 5.856 3.63 3.63 0 0 0 1.296 2.094m-16.335-4.826c.07 0-.287-.872-1.435-1.623-1.148-.75-2.923-1.361-4.21-2.757a14 14 0 0 1-1.505-2.321 9 9 0 0 0-1.383-1.929c-.991-.995-1.94-1.064-1.93-.995a7.4 7.4 0 0 1 1.608 1.301c.469.588.871 1.226 1.2 1.902.415.878.932 1.704 1.54 2.461a7.4 7.4 0 0 0 2.392 1.684c.792.392 1.496.707 2.053 1.029q.879.565 1.67 1.248"/><path fill="#27272E" d="M143.427 5.488a6.56 6.56 0 0 0-2.83-2.835 6.53 6.53 0 0 0-3.946-.656 8.975 8.975 0 0 0-11.072 0 7.977 7.977 0 0 0-10.918 2.486 8.04 8.04 0 0 0-1.26 3.902 6.66 6.66 0 0 0-4.067.575 6.7 6.7 0 0 0-2.962 2.855 6.72 6.72 0 0 0 1.028 7.774 6.42 6.42 0 0 0-3.636 2.86 6.46 6.46 0 0 0-.78 4.57 6.44 6.44 0 0 0 2.482 3.91 6.4 6.4 0 0 0 4.456 1.226l32.183-19.198a6.6 6.6 0 0 0 1.322-7.47"/><path fill="#FFBF9D" d="M109.035 33.123a27.37 27.37 0 0 1 8.942-17.763 27.2 27.2 0 0 1 18.578-6.975h1.409c15.196 1.108 22.745 14.677 21.215 29.887l-2.94 50.786-.166 2.46-35.2 6.615.243-12.958s-14.595-2.487-14.56-17.156c.017-7.12 1.209-21.71 2.479-34.896"/><path fill="#FF9A6C" d="M120.995 85.122a35.36 35.36 0 0 0 19.231-5.314s-4.653 10.471-19.223 8.962z"/><path fill="#27272E" d="M114.776 46.701a2.1 2.1 0 0 0 .558 1.476c.37.401.881.641 1.425.67a2 2 0 0 0 1.97-1.093 2 2 0 0 0 .213-.765 2.1 2.1 0 0 0-.558-1.476c-.37-.4-.881-.641-1.425-.67a2 2 0 0 0-1.482.467 2 2 0 0 0-.701 1.391m-2.662-6.361c.253.279 1.853-.873 4.097-.873s3.879 1.187 4.123.916c.122-.122-.131-.62-.87-1.152a5.73 5.73 0 0 0-3.296-1.073 5.5 5.5 0 0 0-3.271 1.004c-.704.567-.948 1.056-.783 1.178m23.815 6.361a2.1 2.1 0 0 0 .558 1.476c.37.401.881.641 1.425.67a2 2 0 0 0 1.482-.467 2.02 2.02 0 0 0 .701-1.39 2.1 2.1 0 0 0-.558-1.477c-.37-.4-.881-.641-1.425-.67a2 2 0 0 0-1.482.467 2 2 0 0 0-.701 1.39m-1.774-5.618c.252.279 1.852-.873 4.096-.873s3.88 1.187 4.123.916c.122-.122-.13-.62-.87-1.152a5.73 5.73 0 0 0-3.296-1.073 5.57 5.57 0 0 0-3.271 1.004c-.669.567-.904 1.055-.782 1.178m-8.394 16.597c0-.123-1.383-.384-3.644-.707-.574-.07-1.114-.192-1.201-.585-.04-.596.103-1.19.409-1.702l1.74-4.363c2.444-6.204 4.227-11.344 3.975-11.405s-2.436 4.852-4.88 11.065q-.87 2.295-1.687 4.363a3.3 3.3 0 0 0-.331 2.252 1.44 1.44 0 0 0 .931.872q.473.14.965.157c2.297.149 3.706.184 3.723.053m6.584 1.658c-.365 0-.4 2.417-2.513 4.127s-4.706 1.396-4.732 1.745c0 .157.574.489 1.67.532a6.08 6.08 0 0 0 3.949-1.317 5.28 5.28 0 0 0 1.948-3.49c.113-.995-.156-1.606-.322-1.597m1.357-27.095c.209.62 2.462.358 5.089.716 2.626.357 4.757 1.108 5.114.567.157-.262-.209-.873-1.052-1.449a8.94 8.94 0 0 0-7.776-.977c-.975.384-1.47.855-1.375 1.143m-20.718 1.588c.383.524 1.94 0 3.801 0s3.479.393 3.801-.14c.165-.261-.078-.776-.757-1.265a5.2 5.2 0 0 0-3.079-.872 5.3 5.3 0 0 0-3.053.986c-.643.515-.87 1.02-.713 1.291"/><path fill="#27272E" d="M110.54 26.413s3.992-9.128 8.437-11.204c5.384-2.513 7.593 3.403 12.708 2.05 5.114-1.352 10.255-3.77 15.404.253 5.636 4.363 2.922 7.4 3.174 13.919 1.044 26.396 5.741 33.927 7.289 21.527.166-1.361 3.949-2.391 4.593-8.133.87-7.452 1.252-16.5-.331-21.815-1.339-4.477-3.827-7.6-8.324-11.065-7.106-5.471-16.961-5.724-23.667-5.148s-19.727 8.106-19.283 19.616"/><path fill="#FFBF9D" d="M156.621 52.539a4 4 0 0 1 1.369-2.82 3.97 3.97 0 0 1 2.98-.95c2.723.297 5.741 1.894 5.48 7.548-.47 10.018-10.437 7.487-10.437 7.2 0-.289.382-6.78.608-10.978"/><path fill="#FF9A6C" d="M158.387 59.843s.165.13.452.279c.405.196.869.227 1.297.087 1.078-.34 2.044-1.98 2.174-3.778a5.8 5.8 0 0 0-.365-2.522 2.05 2.05 0 0 0-1.253-1.405.87.87 0 0 0-1.044.428c-.147.279-.095.48-.147.497-.053.017-.209-.183-.114-.593.07-.244.22-.457.427-.602a1.3 1.3 0 0 1 .974-.219 2.49 2.49 0 0 1 1.739 1.64c.384.89.545 1.861.47 2.828-.156 2.016-1.279 3.857-2.74 4.206a1.85 1.85 0 0 1-1.574-.34c-.296-.262-.331-.489-.296-.506"/><path fill="#27272E" d="M156.708 33.115a9.5 9.5 0 0 1-4.262 1.893c-1.565.14-3.34-.794-3.583-2.347-.104-.707.078-1.51-.374-2.06s-1.548-.462-2.383-.383a6.37 6.37 0 0 1-4.109-1.175 6.4 6.4 0 0 1-2.45-3.511c-.756 1.1-2.479 1.03-3.592.288a14.2 14.2 0 0 1-2.679-2.959c-.87-1.02-2.087-1.945-3.41-1.745-.706.228-1.435.377-2.174.445-1.313-.14-1.931-1.684-2.114-2.993s-.313-2.845-1.409-3.569-2.366-.314-3.575-.148-2.766-.149-3.061-1.335a2.4 2.4 0 0 1 .478-1.815 6.46 6.46 0 0 1 7.672-2.347 8.8 8.8 0 0 1 2.865-4.222 8.75 8.75 0 0 1 9.704-.881 8.8 8.8 0 0 1 3.574 3.636 8.87 8.87 0 0 1 11.763-.002 8.94 8.94 0 0 1 2.424 3.493 6.43 6.43 0 0 1 3.712.184 6.46 6.46 0 0 1 2.995 2.208 6.49 6.49 0 0 1 .434 7.128c1.783 1.056 3.296 2.87 3.305 4.948.009 2.077-2.044 4.11-4.027 3.534.407.825.483 1.776.211 2.656a3.6 3.6 0 0 1-1.672 2.069 3.566 3.566 0 0 1-4.776-1.235"/><path fill="#FF9A6C" d="M135.764 60.846c-.165 0-.209-1.056-1.044-1.946s-1.852-1.047-1.844-1.213c.009-.165.279-.148.74-.07.583.13 1.114.434 1.522.873a2.9 2.9 0 0 1 .756 1.606c.044.515-.06.759-.13.75m.922-2.757c-.139.087-.496-.27-1.027-.515-.53-.244-1.017-.323-1.035-.48-.017-.157.592-.375 1.288-.044.696.332.922.943.774 1.039"/><path fill="#1900AF" d="m120.716 90.218 5.419 3.421 31.173-13.447 1.418 6.92-28.207 58.683-1.688 111.912-30.521-2.504 18.875-151.145z"/><path fill="#27272E" d="M149.898 93.185c-.339.264-.707.49-1.096.672l-3.044 1.745a861 861 0 0 0-9.994 5.69l-4.888 2.853-.209.122-.113-.2c-1.522-2.749-2.418-5.236-3.201-6.981-.374-.873-.687-1.527-.87-1.99a4 4 0 0 1-.322-.715s.192.209.453.645c.26.437.617 1.1 1.035 1.946.869 1.676 1.818 4.171 3.34 6.842l-.322-.088c1.496-.872 3.148-1.885 4.888-2.888 3.888-2.251 7.454-4.206 10.072-5.567a98 98 0 0 1 3.123-1.562 7 7 0 0 1 1.148-.524m-59.12 29.276a1 1 0 0 1 0 .262c0 .201-.044.454-.07.768q-.115 1.063-.322 2.923c-.295 2.618-.713 6.248-1.226 10.768-1.026 9.084-2.349 21.658-3.662 35.55s-2.374 26.493-3.166 35.612c-.391 4.52-.713 8.202-.94 10.785-.121 1.248-.208 2.225-.278 2.932 0 .314-.06.567-.087.768a1 1 0 0 1 0 .253 1.2 1.2 0 0 1 0-.262v-.759c0-.715.105-1.693.183-2.941.183-2.617.452-6.274.783-10.811a2403 2403 0 0 1 3.018-35.629 1176 1176 0 0 1 3.81-35.541 589 589 0 0 1 1.383-10.751c.174-1.23.313-2.208.417-2.914.044-.306.087-.559.113-.76q.009-.128.044-.253"/><path fill="#FAFAFC" d="M189.648 110.812s-6.332-4.956-12.725-10.122-16.97-12.836-16.97-12.836l-1.914-6.449s-5.627 5.942-10.559 16.693c-7.089 15.437-15.265 37.967-16.918 47.697l-6.636 129.531 67.844-.044-14.978-88.527z"/><path fill="#27272E" d="M130.067 154.853q.144-.362.339-.698l1.044-1.946 3.922-7.095 13.1-23.333c.234-.41.46-.821.695-1.222v.192l-1.609-5.48-.052-.166.148-.096 3.914-2.783-.087.122c2.427-7.121 4.506-13.246 6.002-17.644l1.739-5.08.496-1.343q.072-.237.191-.454-.029.248-.121.48l-.418 1.37c-.391 1.24-.948 2.967-1.635 5.122l-5.828 17.697v.07l-.061.052-3.914 2.784.096-.262 1.618 5.471v.096l-.052.096-.688 1.222-13.229 23.264-4.062 6.981-1.122 1.902q-.18.36-.426.681m-17.213 3.438a3.7 3.7 0 0 1-.148-.637c-.079-.471-.183-1.091-.322-1.85-.261-1.667-.635-3.988-1.087-6.824-.87-5.82-2.097-13.752-3.427-22.531-.14-.872-.27-1.806-.4-2.696v-.087l.043-.07 3.323-6.039.13.341-3.305-1.091-.226-.079.087-.218 4.862-12.897 1.418-3.656c.165-.384.287-.707.4-.96q.053-.174.156-.323-.023.18-.087.349c-.087.262-.2.585-.33.986-.322.916-.757 2.155-1.305 3.7-1.165 3.22-2.783 7.696-4.697 12.958l-.139-.296 3.314 1.073.278.087-.139.253c-1.052 1.929-2.166 3.953-3.305 6.047v-.157c.13.873.27 1.798.4 2.705 1.279 8.779 2.435 16.728 3.288 22.549.383 2.844.704 5.174.931 6.85q.139 1.152.234 1.858.059.325.053.655m6.601-59.024a20 20 0 0 1 1.74 3.342h-.4c.417-.811.957-1.701 1.548-2.617 1.018-1.58 1.983-2.976 2.67-3.997q.5-.861 1.148-1.614a6.3 6.3 0 0 1-.869 1.806c-.609 1.073-1.531 2.496-2.54 4.075-.6.873-1.148 1.745-1.583 2.566l-.226.401-.174-.41a20.7 20.7 0 0 1-1.314-3.552m-8.428 156.974a1.8 1.8 0 0 1 0-.418c0-.297.043-.707.087-1.222.087-1.108.226-2.688.391-4.712.365-4.11.87-10.018 1.54-17.304 1.348-14.625 3.209-34.791 5.271-57.069s4.027-42.435 5.41-57.06c.713-7.278 1.296-13.176 1.739-17.286.209-2.025.374-3.596.487-4.695l.14-1.222q.016-.21.061-.419.02.21 0 .42c0 .305-.053.706-.087 1.23-.096 1.1-.227 2.679-.401 4.703-.365 4.11-.869 10.018-1.539 17.304-1.348 14.625-3.21 34.791-5.219 57.077s-4.027 42.427-5.419 57.052c-.713 7.286-1.287 13.185-1.739 17.286l-.487 4.704c-.053.514-.105.925-.14 1.221a3 3 0 0 1-.095.41"/><path fill="#27272E" d="m159.222 89.913-6.941 25.105-2.896 1.108 1.983 6.283-19.892 29.983 17.909-31.685-1.618-5.471 3.914-2.792zm-32.278 5.96 1.827 13.063 17.718-13.787-15.735 8.752z" opacity=".2"/><path fill="#FAFAFC" d="m52.585 184.059-3.035-4.084 2.644-5.942 5.819-4.363 6.436-1.336 3.262 4.381zm-.817-12.208 9.698-6.981zm-17.022-23.255 9.698-6.981zm128.973-25.978c-.269.576-7.219 65.359-7.219 65.359l-54.502 16.58 5.219 32.112s73.62-13.22 81.222-27.051c6.462-11.78 8.011-61.886 8.333-76.624a39.4 39.4 0 0 0-1.218-10.664c-1.079-4.153-2.931-9.162-5.889-11.492-5.54-4.38-25.946 11.78-25.946 11.78"/><path fill="#27272E" d="M162.188 136.144s0 .323-.069.951c-.07.628-.157 1.571-.279 2.766-.252 2.443-.617 5.995-1.096 10.515-.974 9.075-2.365 22.034-4.035 37.618v.14l-.131.044-54.493 16.579.174-.279c0 .209.07.436.113.663 1.74 11.013 3.48 21.65 5.08 31.458l-.278-.201c22.162-4.223 41.106-8.831 54.275-12.976 1.661-.48 3.201-1.055 4.671-1.527l2.131-.715 1.966-.742c1.261-.489 2.444-.873 3.479-1.344l2.879-1.265a19 19 0 0 0 2.253-1.065l1.609-.872c.426-.218.756-.384.991-.515q.17-.088.348-.157l-.322.192-.974.558-1.592.873a23 23 0 0 1-2.244 1.099l-2.87 1.301c-1.07.445-2.253.872-3.479 1.378l-1.966.76-2.122.733c-1.47.488-3.01 1.064-4.662 1.561-13.178 4.224-32.105 8.901-54.284 13.159l-.244.044v-.235c-1.592-9.809-3.314-20.446-5.106-31.458 0-.227-.069-.454-.104-.663v-.21l.209-.07 54.51-16.579-.148.183c1.74-15.576 3.192-28.526 4.21-37.601.522-4.52.931-8.063 1.218-10.471.139-1.196.252-2.112.33-2.758s.052-.872.052-.872m23.989-26.746c0 .105-1.539 0-3.975.297a24 24 0 0 0-4.192.96 26.7 26.7 0 0 0-4.81 2.147 27 27 0 0 0-4.245 3.115 25 25 0 0 0-2.913 3.159c-1.488 1.963-2.14 3.368-2.227 3.316a4.2 4.2 0 0 1 .426-.995q.262-.58.6-1.117c.27-.419.539-.873.922-1.414a22 22 0 0 1 2.888-3.281 25 25 0 0 1 4.349-3.22 25.5 25.5 0 0 1 4.914-2.146 22 22 0 0 1 4.288-.873 15 15 0 0 1 1.679-.096 10 10 0 0 1 1.27 0q.522.013 1.026.148"/><path fill="#FAFAFC" d="M157.805 154.914h-24.711v6.152h24.711z"/><path fill="#27272E" d="M157.805 161.066a3 3 0 0 1 0-.437v-1.221c0-1.091-.044-2.618-.07-4.494l.13.139c-5.54.053-14.551.088-24.702.088.096-.096-.235.227.218-.227v6.108l-.227-.218 17.57.096 5.219.061h1.931q-.226.018-.452 0h-1.374l-5.158.061-17.727.105h-.217v-6.37c.452-.454.13-.122.235-.227 10.15 0 19.135 0 24.702.096h.139v.131c0 1.928-.061 3.49-.078 4.581v1.187a2 2 0 0 1-.139.541"/></g></g><defs><clipPath id="medic-attending-primary_svg__a"><path fill="#fff" d="M.535 0H212.02v240H.535z"/></clipPath></defs></svg>