<svg xmlns="http://www.w3.org/2000/svg" width="209" height="240" fill="none" viewBox="0 0 209 240"><ellipse cx="104.716" cy="135.847" fill="#EEEBFF" rx="103.971" ry="104.127"/><mask id="medic-crossed-arms-secondary_svg__a" width="209" height="209" x="0" y="31" maskUnits="userSpaceOnUse" style="mask-type:alpha"><ellipse cx="104.716" cy="135.847" fill="#fff" rx="103.971" ry="104.127"/></mask><g mask="url(#medic-crossed-arms-secondary_svg__a)"><path fill="#FFBE9D" d="m118.651 36.438.715 57.31c.124 9.743-1.686 24.085-17.084 23.579-13.339-1.45-16.864-14.084-16.96-23.178-.057-4.323-.104-7.92-.133-8.36 0 0-14.587-1.192-15.816-15.62-.6-6.975-.658-21.432-.562-34.514a27 27 0 0 1 7.273-18.252 26.92 26.92 0 0 1 17.709-8.466l1.391-.105c15.092-.182 23.668 12.51 23.467 27.606"/><path fill="#EB996E" d="M85.19 85.79a34.9 34.9 0 0 0 18.36-6.928s-3.811 10.879-18.294 10.63z"/><path fill="#27272E" d="M93.44 41.571c.286.286 1.953-1.05 4.364-1.116s4.221 1.116 4.478.81c.124-.142-.181-.677-.953-1.23a6.14 6.14 0 0 0-3.592-1.021 5.83 5.83 0 0 0-3.458 1.269c-.734.601-.972 1.155-.839 1.288m2.468 4.962a1.91 1.91 0 0 0 1.981 1.794 1.904 1.904 0 0 0 1.906-1.908 1.91 1.91 0 0 0-1.273-1.728 1.9 1.9 0 0 0-.747-.105 1.9 1.9 0 0 0-1.737 1.214 1.9 1.9 0 0 0-.13.733M87.41 58.385c0-.134-1.392-.268-3.65-.392-.572 0-1.115-.086-1.238-.467a2.87 2.87 0 0 1 .257-1.708q.638-2.119 1.362-4.437c1.906-6.317 3.183-11.451 2.935-11.566-.248-.114-1.982 4.991-3.859 11.298l-1.286 4.466a3.25 3.25 0 0 0-.134 2.243 1.44 1.44 0 0 0 .953.763q.473.087.953.057a14.4 14.4 0 0 0 3.706-.257m7.061-25.908c.238.535 2.162.134 4.478.258s4.22.63 4.487.115c.115-.248-.238-.745-1.029-1.222a7.3 7.3 0 0 0-3.382-.954 7.14 7.14 0 0 0-3.45.678c-.81.41-1.2.868-1.105 1.125m-22.924 4.485c.257.43 2.144-.047 4.42-.124 2.278-.076 4.183.22 4.422-.229.105-.22-.277-.61-1.067-.954a8 8 0 0 0-3.373-.553 8.3 8.3 0 0 0-3.364.83c-.781.4-1.143.82-1.038 1.03"/><path fill="#FFBE9D" d="M118.261 47.21c.238-.123 9.689-3.654 10.09 6.241.4 9.896-9.595 8.264-9.624 7.978-.028-.287-.466-14.218-.466-14.218"/><path fill="#EB996E" d="M121.595 57.554s.172.115.467.239c.417.162.879.162 1.296 0 1.02-.43 1.839-2.118 1.81-3.912a5.7 5.7 0 0 0-.581-2.443 1.97 1.97 0 0 0-1.353-1.27.86.86 0 0 0-.953.516c-.123.277-.057.477-.104.496-.048.02-.22-.162-.153-.572.041-.25.169-.477.362-.64a1.28 1.28 0 0 1 .953-.286 2.42 2.42 0 0 1 1.858 1.46c.454.839.696 1.775.705 2.73 0 2.003-.953 3.911-2.334 4.379a1.81 1.81 0 0 1-1.582-.2c-.362-.258-.429-.477-.391-.497"/><path fill="#FF646E" d="M89.734 65.236c-.114-.248 1.82-.83 3.183-2.653a11 11 0 0 0 1.372-2.586c.285-.715.505-1.164.61-1.135s.076.524-.086 1.297a7.3 7.3 0 0 1-1.268 2.863 5.97 5.97 0 0 1-2.525 1.909c-.752.372-1.267.39-1.286.305"/><path fill="#27272E" d="M131.4 31.151c-2.067-3.483-2.544-7.634-3.668-11.546s-3.287-7.93-7.108-9.294h-.086c-3.42-1.374-7.622-1.393-10.48.954-.696-5.143-5.203-9.208-10.214-10.496S86.79.244 81.988 2.18c-3.716 1.498-7.308 4.57-11.681 9.075a48.4 48.4 0 0 0-5.04 6.116l-4.355 13.483 3.735 7.071q.324.738.734 1.431l3.363 14.896c.22-4.065-.076-18.188.134-22.253a22.6 22.6 0 0 0 16.121-7.462c2.22-2.452 3.954-5.534 6.917-7.004 3.812-1.908 8.375-.515 12.387.888l-.172-.153c2.104.972 4 2.343 5.584 4.036a56.4 56.4 0 0 0 2.429 23.856c.381 1.155 1.41 3.53 2.544 3.97 2.211.858 2.811-1.403 4.145-2.605.953-.888 2.449-.955 4.04-.955a89 89 0 0 0 2.715-10.267 9 9 0 0 0 4.145.277l-1.277-3.054c.53.386 1.133.66 1.772.802a1.61 1.61 0 0 0 1.687-.735c.419-.802-.086-1.67-.515-2.443"/><path fill="#FF646E" d="M105.512 13.02q.775.61 1.448 1.327a10.3 10.3 0 0 1 2.211 4.771c.248 1.206.372 2.434.372 3.665 0 1.335-.105 2.757-.21 4.255a38 38 0 0 0-.105 4.771c.044.84.152 1.677.324 2.5.128.88.479 1.71 1.02 2.415a2.16 2.16 0 0 0 2.029.687 3.23 3.23 0 0 0 1.829-1.03 7.43 7.43 0 0 0 1.391-3.675h-.304a12.1 12.1 0 0 0 1.753 3.025 4.33 4.33 0 0 0 2.811 1.527 2.86 2.86 0 0 0 1.486-.258c.42-.215.77-.546 1.01-.954.211-.392.316-.833.305-1.279a1.78 1.78 0 0 0-.467-1.116l-.153.134a9.4 9.4 0 0 0 3.097 2.328c.41.181.734.296.953.372q.165.065.343.086l-.324-.143c-.219-.086-.534-.22-.953-.42a9.5 9.5 0 0 1-2.992-2.357l-.152.134a1.85 1.85 0 0 1 .095 2.147 2.17 2.17 0 0 1-.953.878 2.5 2.5 0 0 1-1.353.219 4.04 4.04 0 0 1-2.601-1.45 12 12 0 0 1-1.686-2.959l-.21-.467-.095.506a7.16 7.16 0 0 1-1.325 3.502 2.86 2.86 0 0 1-1.638.954 1.84 1.84 0 0 1-1.725-.573 5 5 0 0 1-.953-2.27 16.6 16.6 0 0 1-.314-2.443 38 38 0 0 1 .086-4.695c.095-1.498.19-2.93.171-4.275a17.8 17.8 0 0 0-.419-3.712 10.3 10.3 0 0 0-2.344-4.838 5.9 5.9 0 0 0-1.458-1.288"/><path fill="#27272E" d="M71.44 42.478c.286.295 1.954-1.05 4.364-1.117s4.212 1.126 4.469.811c.124-.133-.172-.668-.953-1.221a6.04 6.04 0 0 0-3.582-1.021 5.9 5.9 0 0 0-3.469 1.26c-.733.61-.972 1.154-.829 1.288m3.316 4.055a1.91 1.91 0 0 0 1.273 1.728c.24.084.493.12.747.104a1.904 1.904 0 0 0 1.905-1.908 1.91 1.91 0 0 0-1.273-1.728 1.9 1.9 0 0 0-.747-.104 1.904 1.904 0 0 0-1.905 1.908m-8.252-30.754c-1.21 1.64-3.077 3.139-5.097 2.948a15 15 0 0 1-2.153-.601c-.706.43-.505 2.862 0 3.511q.702.838 1.534 1.546c-2.354 1.308-4.526.706-7.06-.181a12.4 12.4 0 0 0 2.426 5.924 12.4 12.4 0 0 0 5.053 3.924 4.35 4.35 0 0 0 3.982 0 5.03 5.03 0 0 0 1.706-3.13 54.3 54.3 0 0 0 1.61-13.293z"/><path fill="#FF646E" d="m78.396 96.907 6.67-3.56s7.06 10.497 17.54 9.457 17.151-10.325 17.151-10.325l6.669 3.388-22.867 37.567z"/><path fill="#FAFAFC" d="m153.543 206.203-7.727-52.978 5.669-49.744-26.383-9.237-21.591 35.307-24.677-34.21-14.645 6.423c-12.758 5.601-24.277 17.7-26.916 31.394 0 .181-.067.362-.105.544-3.383 18.34.362 44.485.362 44.485l25.02-11.088-2.02-8.845 4.765 20.191s-20.438 74.601-17.532 99.058c0 0 38.579 8.588 74.109 2.758s45.172-7.481 45.172-7.481z"/><path fill="#FAFAFC" d="M151.485 103.481s15.35 13.359 17.045 31.919 4.831 35.144 4.831 35.144l-30.937 3.311s-.724-12.729 0-13.502 5.802-38.97 5.802-38.97z"/><path fill="#27272E" d="m58.825 204.6-1.115 5.125 18.751 6.679c6.67 2.386 13.396 4.771 20.39 5.983 12.815 2.204 25.954.296 38.826-1.612 7.184-1.06 15.245-2.672 19.209-8.779a351.2 351.2 0 0 1-96.061-7.396" opacity=".2"/><path fill="#FF646E" d="M39.826 177.147c.239.258 8.576 24.476 13.416 28.799 4.84 4.322 32.871 2.805 44.715-1.527 11.843-4.332 36.997-9.59 36.997-9.59l-3.811-19.533s-9.204.954-21.305 2.863c-4.383.715-44.477.257-44.477.257l-2.772-11.345z"/><path fill="#FF646E" d="M171.712 170.725c-.067 0-.762 31.91-4.145 35.994s-15.244 8.912-24.162 9.933c-8.919 1.021-63.333-1.46-71.308-8.12l31.442-21.947 32.034 7.92 8.965-3.865.82-17.1zm-28.716 50.574q-.193.285-.429.535l-1.296 1.479a44 44 0 0 1-2.125 2.28c-.857.859-1.791 1.909-2.925 2.863s-2.334 2.204-3.716 3.349c-1.381 1.145-2.858 2.376-4.459 3.626a106 106 0 0 1-10.938 7.291 108 108 0 0 1-11.805 5.811c-1.906.725-3.659 1.46-5.374 2.013-.848.287-1.667.582-2.458.83l-2.306.678c-1.458.448-2.81.754-3.983 1.04a53 53 0 0 1-3.048.668l-1.906.353q-.336.07-.676.095.318-.13.657-.19l1.906-.449a54 54 0 0 0 3.02-.744c1.172-.325 2.506-.639 3.954-1.117l2.277-.696c.791-.258 1.6-.563 2.449-.859 1.705-.563 3.468-1.307 5.336-2.052a105 105 0 0 0 22.638-13.034c1.591-1.231 3.116-2.395 4.469-3.579 1.353-1.183 2.61-2.261 3.735-3.292s2.105-2.004 2.972-2.862 1.601-1.584 2.182-2.214l1.363-1.412q.226-.225.486-.411"/><path fill="#27272E" d="m132.705 96.907-.124.257-.39.783-1.544 2.862-5.793 10.497-19.342 34.505-.19.343-.229-.315-.743-1.021-23.82-32.691-7.175-9.943-1.905-2.71c-.2-.296-.362-.535-.496-.716a2 2 0 0 1-.152-.258q.11.105.2.23c.133.171.305.4.533.677l2.001 2.662 7.299 9.848 23.944 32.605.743 1.021h-.419c7.622-13.502 14.473-25.678 19.456-34.504l5.917-10.392 1.629-2.805.438-.725c.095-.124.153-.22.162-.21m-18.446 79.286a2.3 2.3 0 0 1-.048-.591c0-.449 0-1.012-.048-1.699 0-1.546-.047-3.664-.076-6.25s0-5.792-.057-9.266v-10.009a.6.6 0 0 1 .114-.306.66.66 0 0 1 .515-.229h.762c8.051-.143 15.321 0 20.59.096l6.231.143 1.696.076q.3-.008.591.057a3.4 3.4 0 0 1-.591 0h-7.936c-5.269 0-12.558-.095-20.571.048h-.896a.1.1 0 0 0 0 .048v10.01c0 3.473 0 6.603-.057 9.265s-.057 4.704-.076 6.25v1.699a2.3 2.3 0 0 1-.143.658m31.07-2.643q.016.147 0 .296v.878c0 .801-.067 1.908-.105 3.339-.123 2.949-.295 7.119-.505 12.233v.125h-.123a371 371 0 0 1-12.454 4.675c-4.63 1.642-9.737 3.159-15.092 4.619-12.243 3.273-23.553 5.219-31.718 6.622l-9.681 1.622-2.63.42-.695.095h-.229s.076 0 .22-.066l.685-.143 2.62-.516 9.652-1.775c8.147-1.488 19.428-3.492 31.643-6.756 5.354-1.459 10.481-2.948 15.073-4.58a555 555 0 0 0 12.472-4.59l-.124.172c.277-5.105.505-9.284.667-12.223.086-1.413.162-2.529.21-3.34 0-.353.047-.64.067-.869q.01-.122.047-.238"/><path fill="#FFBE9D" d="M131.467 176.871a78 78 0 0 1 9.109-.659c1.547.079 3.084.297 4.592.649l-.657 13.789-9.652 3.864z"/><path fill="#27272E" d="M52.794 126.354q.3.795.457 1.632c.277 1.135.639 2.653 1.077 4.485.953 3.864 2.125 9.065 3.468 14.819a1012 1012 0 0 0 3.583 14.79l1.124 4.476c.168.538.29 1.091.362 1.65a11 11 0 0 1-.543-1.603c-.334-1.04-.762-2.557-1.286-4.437-1.03-3.759-2.354-8.979-3.726-14.762a594 594 0 0 1-3.325-14.857c-.381-1.851-.686-3.378-.953-4.523a13 13 0 0 1-.238-1.67m91.859 28.846a5.4 5.4 0 0 1-1.201.124c-.771.058-1.905.105-3.258.163-2.763.095-6.574.171-10.786.171s-8.022-.095-10.776-.2a174 174 0 0 1-3.268-.162 5.6 5.6 0 0 1-1.191-.134 5 5 0 0 1 1.201-.057h3.268l10.766.057h14.044a5.2 5.2 0 0 1 1.201.038M88.82 178.569s-.239-.267-.601-.801l-1.477-2.262a161 161 0 0 0-5.078-7.328 164 164 0 0 0-5.488-7.024l-1.715-2.08a3.7 3.7 0 0 1-.591-.801q.414.282.733.668a68 68 0 0 1 1.84 1.984c1.524 1.709 3.544 4.151 5.621 6.966s3.811 5.468 4.974 7.424a45 45 0 0 1 1.353 2.357c.179.28.323.582.428.897m5.469.258a11.8 11.8 0 0 1-2.353-3.941 12 12 0 0 1-1.153-4.447c.143 0 .638 1.909 1.61 4.256s2.02 4.055 1.896 4.132m15.331-40.803a2.2 2.2 0 0 1-.353-.41l-.952-1.212-3.364-4.532-10.938-15.03-10.833-15.134-3.24-4.627-.857-1.27a2.4 2.4 0 0 1-.277-.467q.203.183.353.41l.953 1.212 3.363 4.533 10.957 15.048 10.834 15.134 3.239 4.628.858 1.269q.152.21.257.448m13.101-43.78q-.046.258-.153.497-.242.719-.572 1.402a18.3 18.3 0 0 1-3.096 4.6 21.6 21.6 0 0 1-6.622 4.866 27 27 0 0 1-4.583 1.661 27.6 27.6 0 0 1-5.183.734 22.15 22.15 0 0 1-9.852-1.985 23 23 0 0 1-6.784-4.647 21 21 0 0 1-3.411-4.36q-.387-.647-.696-1.336a2.6 2.6 0 0 1-.21-.487 27.2 27.2 0 0 0 4.565 5.935 23.3 23.3 0 0 0 6.726 4.476 22.1 22.1 0 0 0 9.643 1.908 24.95 24.95 0 0 0 9.594-2.309 21.9 21.9 0 0 0 6.556-4.695 20 20 0 0 0 3.182-4.447c.591-1.154.838-1.832.896-1.813"/><path fill="#27272E" d="M72.097 208.532c25.43 2.128 52.204 2.691 73.242-18.417-22.134 9.094-49.593 14.886-73.242 18.417m73.175-31.709c-3.478-3.168-3.973-8.397-3.868-13.102.181-7.872 2.086-16.622 4.278-24.18-.448 13.417-1.449 25.23-.563 37.33" opacity=".2"/><path fill="#27272E" d="M65.323 178.445c0 .067-.457.382-1.22.954a11 11 0 0 0-2.534 2.605 25 25 0 0 0-1.715 3.264 5 5 0 0 1-.743 1.364 4.7 4.7 0 0 1 .42-1.498 16 16 0 0 1 1.629-3.406 8.9 8.9 0 0 1 2.744-2.615 3.8 3.8 0 0 1 1.42-.668m83.159-59.982q.012.298-.047.591c-.057.43-.134.954-.238 1.68-.22 1.45-.515 3.559-.867 6.173a283 283 0 0 0-1.982 20.459 291 291 0 0 0-.477 20.554c0 2.634.086 4.771.124 6.231v1.699q.037.295 0 .591a4 4 0 0 1-.076-.591c0-.439-.076-1.002-.124-1.689-.105-1.47-.2-3.598-.286-6.231-.162-5.268-.143-12.558.334-20.593a232 232 0 0 1 2.134-20.487c.391-2.605.743-4.704 1.02-6.155.133-.677.247-1.231.333-1.66q.038-.296.152-.572"/></g><mask id="medic-crossed-arms-secondary_svg__b" width="80" height="85" x="53" y="0" maskUnits="userSpaceOnUse" style="mask-type:alpha"><path fill="#fff" d="M53.452.132h79.227v84.119H53.452z"/></mask><g mask="url(#medic-crossed-arms-secondary_svg__b)"><path fill="#FFBE9D" d="m118.651 36.438.715 57.31c.124 9.743-1.686 24.085-17.084 23.579-13.339-1.45-16.864-14.084-16.96-23.178-.057-4.323-.104-7.92-.133-8.36 0 0-14.587-1.192-15.816-15.62-.6-6.975-.658-21.432-.562-34.514a27 27 0 0 1 7.273-18.252 26.92 26.92 0 0 1 17.709-8.466l1.391-.105c15.092-.182 23.668 12.51 23.467 27.606"/><path fill="#EB996E" d="M85.19 85.79a34.9 34.9 0 0 0 18.36-6.928s-3.811 10.879-18.294 10.63z"/><path fill="#27272E" d="M93.44 41.571c.286.286 1.953-1.05 4.364-1.116s4.221 1.116 4.478.81c.124-.142-.181-.677-.953-1.23a6.14 6.14 0 0 0-3.592-1.021 5.83 5.83 0 0 0-3.458 1.269c-.734.601-.972 1.155-.839 1.288m2.467 4.962a1.91 1.91 0 0 0 1.982 1.794 1.904 1.904 0 0 0 1.906-1.908 1.91 1.91 0 0 0-2.02-1.832 1.9 1.9 0 0 0-1.737 1.213 1.9 1.9 0 0 0-.13.733M87.41 58.385c0-.134-1.392-.268-3.65-.392-.572 0-1.115-.086-1.238-.467a2.87 2.87 0 0 1 .257-1.708q.638-2.119 1.362-4.437c1.906-6.317 3.183-11.451 2.935-11.566-.248-.114-1.982 4.991-3.859 11.298l-1.286 4.466a3.25 3.25 0 0 0-.134 2.243 1.44 1.44 0 0 0 .953.763q.473.087.953.057a14.4 14.4 0 0 0 3.706-.257m7.061-25.908c.237.535 2.162.134 4.478.258s4.22.63 4.487.115c.115-.248-.238-.745-1.029-1.222a7.3 7.3 0 0 0-3.382-.954 7.14 7.14 0 0 0-3.45.678c-.81.41-1.2.868-1.105 1.125m-22.924 4.485c.257.43 2.144-.047 4.42-.124 2.278-.076 4.183.22 4.422-.229.105-.22-.277-.61-1.067-.954a8 8 0 0 0-3.373-.553 8.3 8.3 0 0 0-3.364.83c-.781.4-1.143.82-1.038 1.03"/><path fill="#FFBE9D" d="M118.261 47.21c.238-.123 9.689-3.654 10.09 6.241.4 9.896-9.595 8.264-9.624 7.978-.028-.287-.466-14.218-.466-14.218"/><path fill="#EB996E" d="M121.595 57.554s.172.115.467.239c.417.162.879.162 1.296 0 1.02-.43 1.839-2.118 1.81-3.912a5.7 5.7 0 0 0-.581-2.443 1.97 1.97 0 0 0-1.353-1.27.86.86 0 0 0-.953.516c-.124.277-.057.477-.104.496-.048.02-.22-.162-.153-.572.041-.25.169-.477.362-.64a1.28 1.28 0 0 1 .953-.286 2.42 2.42 0 0 1 1.858 1.46c.454.839.696 1.775.705 2.73 0 2.003-.953 3.911-2.334 4.379a1.81 1.81 0 0 1-1.582-.2c-.362-.258-.429-.477-.391-.497"/><path fill="#FF646E" d="M89.734 65.236c-.114-.248 1.82-.83 3.183-2.653a11 11 0 0 0 1.372-2.586c.285-.715.505-1.164.61-1.135s.076.524-.086 1.297a7.3 7.3 0 0 1-1.268 2.863 5.97 5.97 0 0 1-2.525 1.909c-.752.372-1.267.39-1.286.305"/><path fill="#27272E" d="M131.4 31.151c-2.067-3.483-2.544-7.634-3.668-11.546s-3.287-7.93-7.108-9.294h-.086c-3.42-1.374-7.622-1.393-10.48.954-.696-5.143-5.203-9.208-10.214-10.496S86.79.244 81.988 2.18c-3.716 1.498-7.308 4.57-11.681 9.075a48.4 48.4 0 0 0-5.04 6.116l-4.355 13.483 3.735 7.071q.324.738.734 1.431l3.363 14.896c.22-4.065-.076-18.188.134-22.253a22.6 22.6 0 0 0 16.121-7.462c2.22-2.452 3.954-5.534 6.917-7.004 3.812-1.908 8.375-.515 12.387.888l-.172-.153c2.104.972 4 2.343 5.584 4.036a56.4 56.4 0 0 0 2.429 23.856c.381 1.155 1.41 3.53 2.544 3.97 2.211.858 2.811-1.403 4.145-2.605.953-.888 2.449-.955 4.04-.955a89 89 0 0 0 2.715-10.267 9 9 0 0 0 4.145.277l-1.277-3.054c.53.386 1.133.66 1.772.802a1.61 1.61 0 0 0 1.687-.735c.419-.802-.086-1.67-.515-2.443"/><path fill="#27272E" d="M71.44 42.478c.286.295 1.954-1.05 4.364-1.117s4.212 1.126 4.469.811c.124-.133-.172-.668-.953-1.221a6.03 6.03 0 0 0-3.582-1.021 5.9 5.9 0 0 0-3.469 1.26c-.733.61-.972 1.154-.829 1.288m3.316 4.055a1.91 1.91 0 0 0 1.273 1.728c.24.084.493.12.747.104a1.904 1.904 0 0 0 1.905-1.908 1.91 1.91 0 0 0-2.02-1.832 1.904 1.904 0 0 0-1.905 1.908m-8.252-30.754c-1.21 1.64-3.077 3.139-5.097 2.948a15 15 0 0 1-2.153-.601c-.706.43-.505 2.862 0 3.511q.702.838 1.534 1.546c-2.354 1.308-4.526.706-7.06-.181a12.4 12.4 0 0 0 2.426 5.924 12.4 12.4 0 0 0 5.053 3.924 4.35 4.35 0 0 0 3.982 0 5.03 5.03 0 0 0 1.706-3.13 54.3 54.3 0 0 0 1.61-13.293z"/></g></svg>