<svg xmlns="http://www.w3.org/2000/svg" width="212" height="240" fill="none" viewBox="0 0 212 240"><g clip-path="url(#medic-clock_svg__a)"><g clip-path="url(#medic-clock_svg__b)"><ellipse cx="111.114" cy="139.892" fill="#E6E6F0" rx="98.886" ry="99.923"/><mask id="medic-clock_svg__c" width="198" height="201" x="12" y="39" maskUnits="userSpaceOnUse" style="mask-type:alpha"><ellipse cx="111.114" cy="139.892" fill="#fff" rx="98.886" ry="99.923"/></mask><g mask="url(#medic-clock_svg__c)"><path fill="#FAFAFC" d="M113.41 98.598 97.661 104.7a13.2 13.2 0 0 0-5.16 3.689c-3.441 4.002-9.53 12.643-13.177 26.812-4.946 19.183-10.218 33.613-10.218 33.613l-17.633-13.21-24.435 24.476s41.147 36.316 54.186 36.15l-8.6 58.961h25.26l20.643-176.585 1.179-8.45c-.422.157-5.127 6.802-6.296 8.44"/><path fill="#FFBF9D" d="M43.26 126.177s2.261 9.252 3.758 11.78a12.4 12.4 0 0 1 1.72 4.656l.938 14.823-11.956 11.972-23.188-17.561s-8.309-8.231-6.064-11.335c0 0 1.1-1.517 3.036 0 0 0-8.661-6.81-6.657-9.478s4.989 1.203 8.128 3.898c3.14 2.694 4.154 3.487 4.154 3.487l-9.005-8.832s-2.58-2.276-.293-4.133 5.591 2.79 7.174 3.758c1.582.967 10.45 9.539 10.45 9.539s-6.15-7.944-6.588-8.371c-.439-.427-6.021-4.665-3.923-7.106 2.1-2.442 7.389 3.487 9.143 4.848s8.36 9.347 9.832 10.158c1.47.811 4.137 3.156 5.77 2.415 1.635-.741-1.72-6.975-1.186-9.181.533-2.206 1.436-6.488 4.756-5.337"/><path fill="#FF9A6C" d="M37.583 154.794c-.354-.7-.642-1.433-.86-2.188a9.37 9.37 0 0 1 .636-5.502c.8-2.084 1.892-3.802 2.494-5.232.25-.548.39-1.14.413-1.744 0-.436-.103-.662-.137-.654a6.7 6.7 0 0 1-.671 2.233 43 43 0 0 0-2.675 5.144 9 9 0 0 0-.482 5.851 3.62 3.62 0 0 0 1.282 2.092m-16.153-4.821c.069 0-.284-.872-1.42-1.622s-2.89-1.36-4.162-2.756a14 14 0 0 1-1.488-2.319 8.8 8.8 0 0 0-1.368-1.927c-.98-.994-1.918-1.064-1.91-.994a7.3 7.3 0 0 1 1.592 1.299c.463.588.861 1.225 1.187 1.901.41.878.921 1.703 1.522 2.459a7.3 7.3 0 0 0 2.366 1.683c.782.392 1.48.706 2.03 1.029q.87.563 1.65 1.247"/><path fill="#FFBF9D" d="M108.163 33.098c.643-6.833 3.8-13.17 8.843-17.75a26.74 26.74 0 0 1 18.371-6.97h1.393c15.026 1.108 22.492 14.666 20.978 29.864l-2.907 50.747-.164 2.459-34.808 6.61.241-12.949s-14.433-2.485-14.399-17.142c.018-7.115 1.196-21.694 2.452-34.87"/><path fill="#FF9A6C" d="M119.989 85.057a34.7 34.7 0 0 0 19.017-5.31s-4.601 10.463-19.008 8.954z"/><path fill="#27272E" d="M113.84 46.665a2.12 2.12 0 0 0 .552 1.475c.366.4.871.64 1.409.67a1.96 1.96 0 0 0 1.463-.47 2.04 2.04 0 0 0 .696-1.387 2.12 2.12 0 0 0-.552-1.475c-.366-.4-.872-.64-1.409-.67a1.96 1.96 0 0 0-1.466.467 2 2 0 0 0-.693 1.39m-2.632-6.356c.249.279 1.832-.872 4.051-.872s3.836 1.186 4.077.915c.12-.122-.129-.619-.86-1.15a5.63 5.63 0 0 0-3.26-1.073 5.4 5.4 0 0 0-3.234 1.003c-.697.566-.937 1.055-.774 1.177m23.549 6.356a2.12 2.12 0 0 0 .552 1.475c.366.4.872.64 1.409.67a1.96 1.96 0 0 0 1.466-.468 2 2 0 0 0 .693-1.39 2.12 2.12 0 0 0-.552-1.474 2.06 2.06 0 0 0-1.409-.67 1.95 1.95 0 0 0-1.465.467 2.02 2.02 0 0 0-.694 1.39m-1.754-5.615c.249.279 1.832-.872 4.051-.872s3.836 1.186 4.077.916c.12-.123-.129-.62-.86-1.151a5.63 5.63 0 0 0-3.26-1.073 5.46 5.46 0 0 0-3.234 1.003c-.662.567-.895 1.055-.774 1.177m-8.3 16.584c0-.122-1.368-.384-3.604-.706-.568-.07-1.101-.192-1.187-.584a2.95 2.95 0 0 1 .404-1.7l1.721-4.36c2.416-6.2 4.18-11.336 3.93-11.397s-2.408 4.848-4.825 11.057a326 326 0 0 1-1.669 4.36 3.33 3.33 0 0 0-.326 2.249 1.4 1.4 0 0 0 .92.872q.467.139.955.157c2.27.148 3.664.183 3.681.052m6.511 1.656c-.362 0-.396 2.416-2.486 4.125s-4.653 1.395-4.679 1.744c0 .157.568.488 1.651.532a5.97 5.97 0 0 0 3.905-1.317 5.3 5.3 0 0 0 1.927-3.488c.112-.994-.155-1.604-.318-1.595"/><path fill="#27272E" d="M109.651 26.393s3.948-9.12 8.343-11.196c5.324-2.511 7.509 3.4 12.566 2.049 5.058-1.352 10.141-3.767 15.233.253 5.573 4.36 2.89 7.394 3.139 13.907 1.032 26.376 5.677 33.901 7.208 21.511.163-1.36 3.905-2.39 4.541-8.126.86-7.447 1.239-16.489-.327-21.799-1.324-4.473-3.784-7.595-8.231-11.056-7.027-5.467-16.772-5.72-23.403-5.145s-19.508 8.1-19.069 19.602"/><path fill="#FFBF9D" d="M155.219 52.498a4 4 0 0 1 .391-1.55c.233-.484.56-.916.963-1.268a3.88 3.88 0 0 1 2.947-.949c2.692.297 5.677 1.893 5.418 7.543-.464 10.01-10.321 7.481-10.321 7.193 0-.287.379-6.774.602-10.969"/><path fill="#FF9A6C" d="M156.965 59.797s.164.13.448.279a1.7 1.7 0 0 0 1.281.087c1.067-.34 2.021-1.98 2.15-3.776a5.8 5.8 0 0 0-.361-2.52 2.05 2.05 0 0 0-.45-.855 2 2 0 0 0-.788-.548.85.85 0 0 0-1.032.427c-.147.279-.095.48-.147.497s-.206-.183-.112-.593c.069-.244.218-.456.422-.602.28-.198.626-.276.963-.218.4.105.766.31 1.067.597.301.286.525.645.653 1.042.38.89.539 1.86.465 2.826-.155 2.014-1.264 3.854-2.709 4.202a1.81 1.81 0 0 1-1.557-.34c-.293-.261-.327-.488-.293-.505M134.594 60.8c-.163 0-.206-1.056-1.032-1.945-.826-.89-1.832-1.046-1.823-1.212.008-.166.275-.148.731-.07a2.9 2.9 0 0 1 1.505.872c.409.442.671 1.003.748 1.604.043.515-.06.759-.129.75m.912-2.755c-.138.087-.491-.27-1.015-.514-.525-.245-1.007-.323-1.024-.48s.585-.375 1.273-.044c.688.332.912.942.766 1.038"/><path fill="#1900AF" d="m119.433 90.434 5.397 3.41 31.048-13.405 1.412 6.898-28.094 58.502-1.68 111.566-30.398-2.497 18.798-150.677z"/><path fill="#27272E" d="M148.571 93.113q-.505.397-1.084.672l-3.01 1.744a846 846 0 0 0-9.883 5.685l-4.834 2.851-.206.122-.112-.201c-1.505-2.746-2.391-5.231-3.165-6.975-.37-.872-.68-1.526-.86-1.988a4 4 0 0 1-.319-.715s.19.21.448.645.61 1.099 1.023 1.944c.86 1.675 1.798 4.168 3.303 6.837l-.318-.088c1.479-.872 3.113-1.883 4.834-2.886 3.844-2.25 7.371-4.203 9.96-5.563a100 100 0 0 1 3.087-1.56q.544-.315 1.136-.524m-58.462 29.254a1 1 0 0 1 0 .261c0 .201-.043.454-.069.768-.077.706-.18 1.683-.318 2.921-.292 2.616-.705 6.243-1.213 10.759-1.015 9.077-2.322 21.642-3.62 35.523-1.3 13.882-2.349 26.472-3.132 35.584a9888 9888 0 0 1-.929 10.777c-.12 1.247-.206 2.224-.275 2.93 0 .314-.06.567-.086.767a1 1 0 0 1 0 .253 1.2 1.2 0 0 1 0-.261v-.759c0-.715.103-1.692.18-2.938.181-2.616.448-6.27.775-10.804a2416 2416 0 0 1 2.984-35.601 1187 1187 0 0 1 3.768-35.514 595 595 0 0 1 1.367-10.742c.172-1.23.31-2.206.413-2.913.043-.305.086-.558.112-.758q.009-.129.043-.253m75.44 71.359c-.103.122-2.064-1.979-5.16-3.487s-5.918-1.866-5.892-2.023a4.9 4.9 0 0 1 1.849.139 16 16 0 0 1 4.258 1.439 16.5 16.5 0 0 1 3.715 2.546c.487.386.903.855 1.23 1.386"/><path fill="#FAFAFC" d="M187.878 110.727s-6.262-4.953-12.584-10.115-16.78-12.826-16.78-12.826l-1.893-6.444s-5.565 5.938-10.441 16.68c-7.01 15.425-15.095 37.939-16.729 47.661l-6.563 129.43 67.088-.043-14.811-88.458z"/><path fill="#27272E" d="M128.96 154.733q.144-.36.336-.697l1.032-1.945 3.879-7.089 12.953-23.315c.232-.41.456-.82.688-1.221v.192q-.817-2.808-1.591-5.476l-.052-.166.147-.095 3.87-2.782-.086.122c2.4-7.115 4.455-13.236 5.935-17.63l1.72-5.075.49-1.343q.071-.237.19-.453-.03.247-.121.48l-.413 1.368c-.387 1.238-.937 2.965-1.617 5.118l-5.762 17.683v.07l-.061.052-3.87 2.782.094-.262 1.6 5.467v.096l-.051.096-.68 1.221-13.082 23.246-4.017 6.975-1.109 1.901q-.179.361-.422.68m-17.021 3.436a4 4 0 0 1-.146-.637c-.078-.471-.181-1.09-.318-1.848-.259-1.666-.628-3.985-1.076-6.819-.86-5.816-2.072-13.742-3.388-22.513-.138-.872-.267-1.805-.396-2.695v-.087l.043-.07 3.286-6.033.129.34-3.269-1.09-.223-.079.085-.218 4.809-12.887 1.401-3.653c.164-.384.284-.707.396-.96q.053-.174.155-.322a1.6 1.6 0 0 1-.086.349c-.086.261-.198.584-.327.985-.318.916-.748 2.154-1.29 3.697-1.153 3.217-2.752 7.69-4.645 12.948l-.137-.296 3.277 1.072.275.088-.138.252c-1.04 1.927-2.141 3.95-3.268 6.043v-.157c.129.872.267 1.796.396 2.703 1.264 8.772 2.408 16.715 3.251 22.531.378 2.842.697 5.171.92 6.845q.138 1.15.232 1.857.058.325.052.654m6.528-58.979a20 20 0 0 1 1.72 3.34h-.395c.413-.811.946-1.7 1.531-2.615 1.006-1.579 1.961-2.974 2.64-3.994a10.7 10.7 0 0 1 1.136-1.613 6.3 6.3 0 0 1-.861 1.805c-.602 1.072-1.513 2.494-2.511 4.072a27 27 0 0 0-1.566 2.563l-.223.401-.172-.409a21 21 0 0 1-1.299-3.55m-8.334 156.854a2 2 0 0 1 0-.419c0-.296.042-.706.086-1.22.086-1.108.223-2.686.387-4.709.361-4.107.86-10.01 1.522-17.29 1.333-14.614 3.174-34.765 5.212-57.025 2.039-22.261 3.982-42.403 5.35-57.016.705-7.272 1.282-13.167 1.72-17.273l.482-4.691c.06-.524.103-.925.138-1.221q.015-.21.06-.419.02.21 0 .419c0 .305-.052.706-.086 1.23-.095 1.098-.224 2.676-.396 4.699-.361 4.107-.86 10.01-1.522 17.291-1.333 14.613-3.174 34.764-5.161 57.033-1.987 22.27-3.982 42.394-5.358 57.008-.706 7.28-1.273 13.175-1.721 17.273l-.481 4.699c-.052.515-.103.925-.138 1.221a3 3 0 0 1-.094.41"/><path fill="#27272E" d="m157.791 89.844-6.864 25.085-2.864 1.108 1.961 6.278-19.67 29.959 17.709-31.66-1.6-5.467 3.871-2.79zm-31.918 5.955 1.806 13.053 17.52-13.777-15.559 8.746zM80.416 222.91l-.74 5.947s3.535 4.604 6.984 3.636c3.45-.968 17.873-7.342 17.873-7.342l-.223-2.241s-8.412-3.488-8.894-3.374-15 3.374-15 3.374m27.773 13.228.43 5.458s26.113-3.034 37.363-7.368c0 0 21.95-8.249 28.186-16.035-8.928 3.802-19.37 7.037-30.543 10.001z" opacity=".2"/><path fill="#FAFAFC" d="m52.342 183.917-3.002-4.081 2.615-5.938 5.754-4.359 6.365-1.334 3.225 4.377zm-.808-12.198 9.59-6.976Zm7.698 9.844 9.581-6.976Zm7.688 9.853 9.582-6.976Zm-32.219-42.935 9.59-6.975Z"/><path fill="#9292A9" d="m138.858 202.037-36.322-48.655a2.97 2.97 0 0 0-1.496-1.079 2.94 2.94 0 0 0-1.836.016L43.59 171.58a2.96 2.96 0 0 0-1.2.78 3 3 0 0 0-.703 1.256 3.05 3.05 0 0 0 .572 2.744l45.23 55.179a2.96 2.96 0 0 0 1.508.982 2.93 2.93 0 0 0 1.792-.079l51.988-19.197a3 3 0 0 0 1.169-.787 3 3 0 0 0 .686-1.241 3.1 3.1 0 0 0 .051-1.422 3.04 3.04 0 0 0-.596-1.288z"/><path fill="#27272E" d="M65.125 169.954c.01.31.111.61.289.862s.425.445.712.555a1.53 1.53 0 0 0 1.675-.389 1.58 1.58 0 0 0 .293-1.716 1.57 1.57 0 0 0-.585-.691 1.53 1.53 0 0 0-1.96.244 1.58 1.58 0 0 0-.424 1.135m11.234-3.856c.012.308.115.606.294.855s.427.439.712.546a1.52 1.52 0 0 0 1.662-.403 1.58 1.58 0 0 0 .272-1.711 1.56 1.56 0 0 0-.59-.679 1.52 1.52 0 0 0-1.45-.093 1.5 1.5 0 0 0-.49.358 1.57 1.57 0 0 0-.41 1.127"/><path fill="#FFBF9D" d="m101.42 206.029-2.632-.601s-1.075-4.412-2.254-5.302c-1.178-.889-12.901-5.824-15.482-7.132s-12.66-5.546-13.822-3.061c-1.316 2.808 2.796 4.927 5.023 5.904 2.228.976 8.602 3.208 7.346 4.769s-15.766 1.474-15.766 1.474l-1.651-1.962s-2.58 2.616-2.142 5.17a11.4 11.4 0 0 0 1.53 4.159l1.042-.043a2.96 2.96 0 0 0 0 3.043 28 28 0 0 0 2.89 3.409s1.763 3.444 6.743 4.63c.585.14 23.722 1.352 23.722 1.352l8.403 1.909z"/><path fill="#FAFAFC" d="M162.238 122.524c-.267.575-7.139 65.308-7.139 65.308l-53.894 16.567 5.16 32.087s72.8-13.209 80.317-27.03c6.391-11.771 7.922-61.838 8.24-76.565a39.7 39.7 0 0 0-1.204-10.655c-1.067-4.15-2.899-9.155-5.823-11.483-5.479-4.377-25.657 11.771-25.657 11.771"/><path fill="#27272E" d="M160.724 136.039s0 .323-.069.95c-.069.628-.155 1.57-.275 2.764a3647 3647 0 0 1-1.084 10.507c-.963 9.068-2.339 22.017-3.991 37.59v.139l-.129.044-53.885 16.567.172-.279c0 .209.069.436.112.662 1.72 11.004 3.44 21.633 5.023 31.434l-.276-.201c21.916-4.22 40.649-8.824 53.671-12.966 1.643-.479 3.165-1.055 4.619-1.526l2.107-.715 1.944-.741c1.247-.488 2.417-.872 3.44-1.342l2.847-1.265q1.149-.458 2.228-1.064l1.591-.871c.422-.218.748-.384.981-.515q.168-.087.344-.157l-.319.192-.963.558-1.574.872q-1.081.608-2.219 1.099l-2.838 1.299c-1.058.444-2.228.872-3.441 1.377l-1.944.759-2.098.732c-1.454.489-2.976 1.064-4.61 1.561-13.031 4.22-31.747 8.894-53.68 13.149l-.24.044v-.236c-1.574-9.8-3.277-20.429-5.049-31.433 0-.227-.069-.454-.103-.663v-.209l.206-.07 53.903-16.567-.146.183c1.72-15.564 3.156-28.503 4.162-37.572.517-4.516.921-8.056 1.205-10.463.137-1.194.249-2.11.327-2.755.077-.645.051-.872.051-.872m23.722-26.725c0 .105-1.523 0-3.931.296a23.4 23.4 0 0 0-4.146.96 26.2 26.2 0 0 0-4.756 2.145 26.7 26.7 0 0 0-4.197 3.112 25.3 25.3 0 0 0-2.882 3.157c-1.47 1.962-2.115 3.366-2.201 3.313q.147-.524.421-.994a9 9 0 0 1 .593-1.116c.267-.418.534-.872.912-1.412a22 22 0 0 1 2.856-3.279 25 25 0 0 1 4.3-3.217 25 25 0 0 1 4.86-2.145 21.3 21.3 0 0 1 4.24-.872 14 14 0 0 1 1.66-.096 9 9 0 0 1 1.256 0c.343.008.684.058 1.015.148"/><path fill="#FAFAFC" d="M156.389 154.794h-24.436v6.147h24.436z"/><path fill="#27272E" d="M156.389 160.942a3 3 0 0 1 0-.436v-1.221c0-1.09-.043-2.616-.069-4.491l.129.14c-5.479.052-14.389.087-24.427.087.095-.096-.232.227.215-.227v6.104l-.223-.218 17.374.096 5.161.061h1.909a3 3 0 0 1-.447 0h-1.359l-5.101.061-17.529.105h-.215v-6.366c.448-.453.129-.122.233-.226 10.037 0 18.922 0 24.427.096h.137v.13c0 1.927-.06 3.488-.077 4.578v1.186q-.03.28-.138.541"/></g><mask id="medic-clock_svg__d" width="175" height="170" x="0" y="0" maskUnits="userSpaceOnUse" style="mask-type:alpha"><path fill="#C4C4C4" d="M.872 0h173.401v169.384H.872z"/></mask><g mask="url(#medic-clock_svg__d)"><path fill="#FAFAFC" d="m113.41 98.598-15.749 6.104a13.2 13.2 0 0 0-5.16 3.688c-3.441 4.002-9.53 12.643-13.177 26.812-4.946 19.183-10.218 33.613-10.218 33.613l-17.633-13.21-24.435 24.476s41.147 36.316 54.186 36.15l-8.6 58.961h25.26l20.643-176.585 1.179-8.45c-.422.158-5.127 6.802-6.296 8.441"/><path fill="#FFBF9D" d="M43.26 126.177s2.261 9.252 3.758 11.78a12.4 12.4 0 0 1 1.72 4.656l.938 14.823-11.956 11.972-23.188-17.561s-8.309-8.231-6.064-11.335c0 0 1.1-1.517 3.036 0 0 0-8.661-6.81-6.657-9.478s4.989 1.203 8.128 3.898c3.14 2.694 4.154 3.487 4.154 3.487l-9.005-8.832s-2.58-2.276-.293-4.133 5.591 2.79 7.174 3.758c1.582.968 10.45 9.539 10.45 9.539s-6.15-7.944-6.588-8.371c-.439-.427-6.021-4.665-3.923-7.106 2.1-2.442 7.389 3.488 9.143 4.848s8.36 9.347 9.832 10.158c1.47.811 4.137 3.156 5.77 2.415 1.635-.741-1.72-6.975-1.186-9.181.533-2.206 1.436-6.488 4.756-5.337"/><path fill="#FF9A6C" d="M37.583 154.795a12.6 12.6 0 0 1-.86-2.189 9.37 9.37 0 0 1 .636-5.502c.8-2.084 1.892-3.802 2.494-5.232.25-.548.39-1.14.413-1.743 0-.436-.103-.663-.137-.654a6.7 6.7 0 0 1-.671 2.232 43 43 0 0 0-2.675 5.144 9 9 0 0 0-.482 5.851 3.63 3.63 0 0 0 1.282 2.093m-16.153-4.822c.069 0-.284-.872-1.42-1.622s-2.89-1.36-4.162-2.755a14 14 0 0 1-1.488-2.32 9 9 0 0 0-1.368-1.927c-.98-.994-1.918-1.064-1.91-.994a7.3 7.3 0 0 1 1.592 1.299c.463.588.861 1.225 1.187 1.901.41.878.921 1.703 1.522 2.459a7.3 7.3 0 0 0 2.366 1.683c.782.392 1.48.706 2.03 1.029q.87.563 1.65 1.247"/><path fill="#27272E" d="M142.172 5.483a6.53 6.53 0 0 0-2.799-2.832 6.4 6.4 0 0 0-3.902-.655 8.8 8.8 0 0 0-5.474-1.91 8.82 8.82 0 0 0-5.475 1.91 7.82 7.82 0 0 0-7.811-.28 7.94 7.94 0 0 0-2.984 2.764 8.1 8.1 0 0 0-1.246 3.898 6.53 6.53 0 0 0-4.022.576 6.65 6.65 0 0 0-2.93 2.852 6.8 6.8 0 0 0-.729 4.05 6.73 6.73 0 0 0 1.746 3.718 6.36 6.36 0 0 0-3.596 2.858 6.5 6.5 0 0 0-.77 4.566 6.44 6.44 0 0 0 2.454 3.907 6.28 6.28 0 0 0 4.406 1.225l31.824-19.183a6.6 6.6 0 0 0 1.82-3.522 6.67 6.67 0 0 0-.512-3.942"/><path fill="#FFBF9D" d="M108.163 33.098c.643-6.833 3.8-13.17 8.843-17.75a26.74 26.74 0 0 1 18.371-6.97h1.393c15.026 1.108 22.492 14.666 20.978 29.864l-2.907 50.747-.164 2.46-34.808 6.608.241-12.948s-14.433-2.485-14.399-17.142c.018-7.115 1.196-21.694 2.452-34.87"/><path fill="#FF9A6C" d="M119.989 85.057a34.7 34.7 0 0 0 19.017-5.31s-4.601 10.463-19.008 8.954z"/><path fill="#27272E" d="M113.84 46.665a2.12 2.12 0 0 0 .552 1.475c.366.4.871.64 1.409.67a1.96 1.96 0 0 0 1.463-.47 2.04 2.04 0 0 0 .696-1.387 2.12 2.12 0 0 0-.552-1.475c-.366-.4-.872-.64-1.409-.67a1.96 1.96 0 0 0-1.466.468 2 2 0 0 0-.693 1.39m-2.632-6.357c.249.279 1.832-.872 4.051-.872s3.836 1.186 4.077.915c.12-.122-.129-.619-.86-1.15a5.63 5.63 0 0 0-3.26-1.073 5.4 5.4 0 0 0-3.234 1.003c-.697.566-.937 1.055-.774 1.177m23.549 6.356a2.12 2.12 0 0 0 .552 1.475c.366.4.872.64 1.409.67a1.96 1.96 0 0 0 1.466-.467 2 2 0 0 0 .693-1.39 2.12 2.12 0 0 0-.552-1.475 2.06 2.06 0 0 0-1.409-.67 1.95 1.95 0 0 0-1.465.468 2.02 2.02 0 0 0-.694 1.39m-1.754-5.616c.249.279 1.832-.872 4.051-.872s3.836 1.186 4.077.916c.12-.123-.129-.62-.86-1.151a5.63 5.63 0 0 0-3.26-1.073 5.46 5.46 0 0 0-3.234 1.003c-.662.567-.895 1.055-.774 1.177m-8.3 16.584c0-.122-1.368-.383-3.604-.706-.568-.07-1.101-.192-1.187-.584a2.95 2.95 0 0 1 .404-1.7l1.721-4.36c2.416-6.2 4.18-11.335 3.93-11.396-.249-.062-2.408 4.848-4.825 11.056a326 326 0 0 1-1.669 4.36 3.33 3.33 0 0 0-.326 2.249 1.4 1.4 0 0 0 .92.872q.467.139.955.157c2.27.148 3.664.183 3.681.052m6.511 1.656c-.362 0-.396 2.416-2.486 4.125s-4.653 1.395-4.679 1.744c0 .157.568.488 1.651.532a5.97 5.97 0 0 0 3.905-1.317 5.3 5.3 0 0 0 1.927-3.487c.112-.995-.155-1.605-.318-1.596m1.342-27.074c.206.62 2.434.358 5.031.715 2.598.358 4.705 1.107 5.058.567.154-.262-.207-.872-1.041-1.448a8.8 8.8 0 0 0-3.734-1.386 8.7 8.7 0 0 0-3.955.41c-.964.384-1.454.854-1.359 1.142m-20.488 1.587c.378.523 1.918 0 3.759 0s3.44.393 3.758-.14c.164-.26-.077-.775-.748-1.264a5.1 5.1 0 0 0-3.045-.871 5.2 5.2 0 0 0-3.019.985c-.636.514-.86 1.02-.705 1.29"/><path fill="#27272E" d="M109.651 26.393s3.948-9.12 8.343-11.196c5.324-2.511 7.509 3.4 12.566 2.05 5.058-1.352 10.141-3.768 15.233.252 5.573 4.36 2.89 7.394 3.139 13.907 1.032 26.377 5.677 33.901 7.208 21.511.163-1.36 3.905-2.389 4.541-8.126.86-7.447 1.239-16.489-.327-21.799-1.324-4.473-3.784-7.594-8.231-11.056-7.027-5.467-16.772-5.72-23.403-5.144s-19.508 8.1-19.069 19.6"/><path fill="#FFBF9D" d="M155.219 52.499a4 4 0 0 1 .391-1.55 4 4 0 0 1 .963-1.269 3.88 3.88 0 0 1 2.947-.948c2.692.296 5.677 1.892 5.418 7.542-.464 10.01-10.321 7.481-10.321 7.194 0-.288.379-6.775.602-10.97"/><path fill="#FF9A6C" d="M156.965 59.797s.164.13.448.279a1.7 1.7 0 0 0 1.281.087c1.067-.34 2.021-1.98 2.15-3.776a5.8 5.8 0 0 0-.361-2.52 2.05 2.05 0 0 0-.45-.855 2 2 0 0 0-.788-.548.85.85 0 0 0-1.032.427c-.147.279-.095.48-.147.497s-.206-.183-.112-.593c.069-.244.218-.456.422-.602.28-.198.626-.276.963-.218.4.105.766.31 1.067.597.301.286.525.645.653 1.043a6 6 0 0 1 .465 2.825c-.155 2.014-1.264 3.854-2.709 4.202a1.81 1.81 0 0 1-1.557-.34c-.293-.261-.327-.488-.293-.505"/><path fill="#27272E" d="M155.305 33.09a9.34 9.34 0 0 1-4.214 1.891c-1.548.14-3.303-.793-3.544-2.345-.103-.707.078-1.509-.37-2.058-.447-.55-1.531-.462-2.356-.384a6.25 6.25 0 0 1-4.063-1.174 6.4 6.4 0 0 1-2.423-3.508c-.748 1.099-2.451 1.029-3.552.288a14.2 14.2 0 0 1-2.649-2.956c-.86-1.02-2.064-1.945-3.372-1.744a10 10 0 0 1-2.15.445c-1.299-.14-1.909-1.683-2.09-2.991s-.31-2.843-1.393-3.566c-1.084-.724-2.34-.314-3.535-.149-1.196.166-2.736-.148-3.028-1.334a2.4 2.4 0 0 1 .473-1.813 6.4 6.4 0 0 1 3.392-2.506 6.33 6.33 0 0 1 4.194.16 8.8 8.8 0 0 1 2.833-4.218 8.58 8.58 0 0 1 9.597-.88 8.74 8.74 0 0 1 3.534 3.633 8.76 8.76 0 0 1 3.718-1.97 8.7 8.7 0 0 1 4.195 0 8.76 8.76 0 0 1 3.718 1.968 8.9 8.9 0 0 1 2.397 3.49 6.3 6.3 0 0 1 3.671.184 6.4 6.4 0 0 1 2.962 2.206 6.54 6.54 0 0 1 .429 7.123c1.763 1.055 3.259 2.869 3.268 4.944s-2.021 4.107-3.982 3.531a3.63 3.63 0 0 1 .209 2.654 3.57 3.57 0 0 1-1.654 2.068 3.5 3.5 0 0 1-2.605.34 3.54 3.54 0 0 1-2.117-1.574"/><path fill="#FF9A6C" d="M134.594 60.8c-.163 0-.206-1.056-1.032-1.945-.826-.89-1.832-1.046-1.823-1.212.008-.166.275-.148.731-.07.577.13 1.102.434 1.505.872.409.442.671 1.004.748 1.605.043.514-.06.758-.129.75m.912-2.756c-.138.087-.491-.27-1.015-.514-.525-.245-1.007-.323-1.024-.48s.585-.375 1.273-.044c.688.332.912.942.766 1.038"/><path fill="#1900AF" d="m119.714 90.149 5.358 3.418 30.826-13.437 1.402 6.915-27.893 58.638-1.668 111.826-30.182-2.502 18.665-151.029z"/><path fill="#27272E" d="M148.571 93.113q-.505.397-1.084.672l-3.01 1.744a849 849 0 0 0-9.883 5.685l-4.834 2.851-.206.122-.112-.201c-1.505-2.746-2.391-5.231-3.165-6.975-.37-.872-.68-1.526-.86-1.988a4 4 0 0 1-.319-.715s.19.21.448.645.61 1.099 1.023 1.945c.86 1.674 1.798 4.167 3.303 6.836l-.318-.088c1.479-.872 3.113-1.883 4.834-2.886 3.844-2.25 7.371-4.203 9.96-5.563a100 100 0 0 1 3.087-1.56q.544-.315 1.136-.524m-58.462 29.254a1 1 0 0 1 0 .262c0 .2-.043.453-.069.767-.077.706-.18 1.683-.318 2.921-.292 2.616-.705 6.243-1.213 10.76-1.015 9.077-2.322 21.641-3.62 35.522-1.3 13.882-2.349 26.473-3.132 35.584-.387 4.517-.705 8.197-.929 10.777-.12 1.247-.206 2.224-.275 2.93 0 .314-.06.567-.086.767a1 1 0 0 1 0 .253 1.2 1.2 0 0 1 0-.261v-.759c0-.715.103-1.691.18-2.938.181-2.616.448-6.27.775-10.804a2416 2416 0 0 1 2.984-35.601 1187 1187 0 0 1 3.768-35.514 595 595 0 0 1 1.367-10.742c.172-1.23.31-2.206.413-2.913.043-.305.086-.558.112-.758q.009-.129.043-.253"/><path fill="#FAFAFC" d="M187.878 110.727s-6.262-4.953-12.584-10.115-16.78-12.826-16.78-12.826l-1.893-6.444s-5.565 5.938-10.441 16.68c-7.01 15.425-15.095 37.939-16.729 47.661l-6.563 129.43 67.088-.043-14.811-88.458z"/><path fill="#27272E" d="M128.96 154.733q.144-.36.336-.697l1.032-1.945 3.879-7.088 12.953-23.316c.232-.41.456-.82.688-1.221v.192q-.817-2.808-1.591-5.476l-.052-.165.147-.096 3.87-2.782-.086.122c2.4-7.115 4.455-13.236 5.935-17.63l1.72-5.075.49-1.343q.071-.237.19-.453-.03.247-.121.48l-.413 1.368c-.387 1.238-.937 2.965-1.617 5.118l-5.762 17.683v.07l-.061.053-3.87 2.781.094-.262 1.6 5.467v.096l-.051.096-.68 1.221-13.082 23.246-4.017 6.975-1.109 1.901q-.179.361-.422.68m-17.021 3.436a4 4 0 0 1-.146-.637 127 127 0 0 0-.318-1.848c-.259-1.665-.628-3.985-1.076-6.819-.86-5.815-2.072-13.741-3.388-22.513-.138-.872-.267-1.805-.396-2.694v-.088l.043-.069 3.286-6.034.129.34-3.269-1.09-.223-.079.085-.218 4.809-12.887 1.401-3.653c.164-.384.284-.706.396-.96q.053-.174.155-.322-.023.18-.086.349c-.086.261-.198.584-.327.985-.318.916-.748 2.154-1.29 3.697-1.153 3.218-2.752 7.691-4.645 12.948l-.137-.296 3.277 1.072.275.088-.138.252c-1.04 1.927-2.141 3.95-3.268 6.043v-.157c.129.872.267 1.796.396 2.703 1.264 8.772 2.408 16.715 3.251 22.531.378 2.843.697 5.171.92 6.845q.138 1.15.232 1.857.058.325.052.654m6.528-58.979a20 20 0 0 1 1.72 3.34h-.395c.413-.81.946-1.7 1.531-2.615 1.006-1.579 1.961-2.974 2.64-3.994a10.7 10.7 0 0 1 1.136-1.613 6.3 6.3 0 0 1-.861 1.805c-.602 1.072-1.513 2.494-2.511 4.072a27 27 0 0 0-1.566 2.563l-.223.402-.172-.41a21 21 0 0 1-1.299-3.55m-8.334 156.854a1.8 1.8 0 0 1 0-.418c0-.297.042-.707.086-1.221.086-1.108.223-2.686.387-4.709.361-4.106.86-10.009 1.522-17.29 1.333-14.614 3.174-34.764 5.212-57.025 2.039-22.261 3.982-42.402 5.35-57.016.705-7.272 1.282-13.166 1.72-17.273l.482-4.691c.06-.523.103-.925.138-1.221q.015-.21.06-.419.02.21 0 .419c0 .305-.052.706-.086 1.23-.095 1.098-.224 2.676-.396 4.699-.361 4.107-.86 10.01-1.522 17.291-1.333 14.613-3.174 34.764-5.161 57.033-1.987 22.27-3.982 42.394-5.358 57.008-.706 7.28-1.273 13.175-1.721 17.273l-.481 4.7c-.052.514-.103.924-.138 1.22a3 3 0 0 1-.094.41"/><path fill="#27272E" d="m157.791 89.844-6.864 25.085-2.864 1.108 1.961 6.278-19.67 29.96 17.709-31.661-1.6-5.467 3.871-2.79zm-31.918 5.955 1.806 13.053 17.52-13.777-15.559 8.746z" opacity=".2"/><path fill="#FAFAFC" d="m52.342 183.917-3.002-4.08 2.615-5.938 5.754-4.36 6.365-1.334 3.225 4.377zm-.808-12.198 9.59-6.976Zm-16.833-23.238 9.59-6.975Zm127.537-25.957c-.267.575-7.139 65.308-7.139 65.308l-53.894 16.567 5.16 32.088s72.8-13.21 80.317-27.031c6.391-11.771 7.922-61.838 8.24-76.565a39.7 39.7 0 0 0-1.204-10.655c-1.067-4.15-2.899-9.155-5.823-11.483-5.479-4.377-25.657 11.771-25.657 11.771"/><path fill="#27272E" d="M160.724 136.039s0 .323-.069.95c-.069.628-.155 1.57-.275 2.764a3647 3647 0 0 1-1.084 10.507c-.963 9.069-2.339 22.017-3.991 37.59v.139l-.129.044-53.885 16.567.172-.279c0 .209.069.436.112.662 1.72 11.004 3.44 21.633 5.023 31.434l-.276-.201c21.916-4.22 40.649-8.824 53.671-12.966 1.643-.479 3.165-1.055 4.619-1.525l2.107-.715 1.944-.742c1.247-.488 2.417-.872 3.44-1.342l2.847-1.265q1.149-.458 2.228-1.063l1.591-.872c.422-.218.748-.384.981-.515q.168-.087.344-.157l-.319.192-.963.558-1.574.872q-1.081.608-2.219 1.099l-2.838 1.299c-1.058.445-2.228.872-3.441 1.377l-1.944.759-2.098.732c-1.454.489-2.976 1.064-4.61 1.561-13.031 4.22-31.747 8.894-53.68 13.149l-.24.044v-.236c-1.574-9.8-3.277-20.429-5.049-31.433 0-.227-.069-.454-.103-.663v-.209l.206-.07 53.903-16.567-.146.183c1.72-15.564 3.156-28.503 4.162-37.571.517-4.517.921-8.057 1.205-10.464.137-1.194.249-2.11.327-2.755.077-.645.051-.872.051-.872m23.722-26.725c0 .105-1.523 0-3.931.297a23.3 23.3 0 0 0-4.146.959 26.2 26.2 0 0 0-4.756 2.145 26.7 26.7 0 0 0-4.197 3.113 25 25 0 0 0-2.882 3.156c-1.47 1.962-2.115 3.366-2.201 3.313.097-.348.239-.682.421-.994a9 9 0 0 1 .593-1.116c.267-.418.534-.872.912-1.412a22 22 0 0 1 2.856-3.279 25 25 0 0 1 4.3-3.217 25 25 0 0 1 4.86-2.145 21.3 21.3 0 0 1 4.24-.872 14 14 0 0 1 1.66-.096 10 10 0 0 1 1.256 0c.343.008.684.058 1.015.148"/><path fill="#FAFAFC" d="M156.389 154.794h-24.436v6.148h24.436z"/><path fill="#27272E" d="M156.389 160.942a3 3 0 0 1 0-.436v-1.221c0-1.09-.043-2.616-.069-4.491l.129.14c-5.479.052-14.389.087-24.427.087.095-.096-.232.227.215-.227v6.104l-.223-.218 17.374.096 5.161.061h1.909a3 3 0 0 1-.447 0h-1.359l-5.101.061-17.529.105h-.215v-6.365c.448-.454.129-.123.233-.227 10.037 0 18.922 0 24.427.096h.137v.131c0 1.927-.06 3.487-.077 4.577v1.186q-.03.28-.138.541"/></g></g><path fill="#1900AF" d="M44.271 83.025c18.801 0 34.043-15.401 34.043-34.4S63.072 14.227 44.27 14.227s-34.04 15.4-34.04 34.399 15.24 34.399 34.04 34.399"/><path fill="#fff" d="M44.378 79.145c16.68 0 30.203-13.664 30.203-30.52 0-16.855-13.523-30.519-30.203-30.519S14.175 31.77 14.175 48.626c0 16.855 13.522 30.52 30.203 30.52"/><path fill="#263238" d="M74.58 48.626s0-.177-.048-.5-.048-.823-.097-1.45l-.058-1.068c0-.382-.126-.813-.194-1.274a23 23 0 0 0-.63-3.145 29.2 29.2 0 0 0-3.345-8.093 30.4 30.4 0 0 0-8.63-9.33 30 30 0 0 0-11.654-4.945 27 27 0 0 0-3.8-.45c-.65 0-1.3-.079-1.94-.069l-1.988.098c-.33 0-.669 0-.97.069l-.969.156c-.669.108-1.348.186-2.026.333q-2.036.461-3.995 1.186a31 31 0 0 0-3.878 1.734c-.63.353-1.242.755-1.862 1.127-.31.206-.64.372-.97.598l-.882.666a33 33 0 0 0-3.403 2.939 34 34 0 0 0-2.909 3.517l-.688.98-.611.98-.601.98q-.318.499-.563 1.038-.495 1.06-1.018 2.136c-.349.715-.533 1.5-.814 2.244a32.8 32.8 0 0 0-1.542 9.562c0 3.24.483 6.46 1.435 9.553l.814 2.253 1.019 2.136q.234.54.562 1.029l.601.98.601.98.698.98a34 34 0 0 0 2.91 3.517 33 33 0 0 0 3.402 2.939l.883.666c.29.225.62.392.92.598.631.372 1.242.774 1.872 1.126a31 31 0 0 0 3.878 1.735 31.5 31.5 0 0 0 3.995 1.185c.679.147 1.358.225 2.027.333l.97.157c.329 0 .668 0 .969.069l1.987.097c.66 0 1.31 0 1.94-.068a27 27 0 0 0 3.8-.45c4.584-.86 8.903-2.8 12.605-5.664a30.2 30.2 0 0 0 7.65-8.612 29.2 29.2 0 0 0 3.345-8.093c.285-1.031.495-2.083.63-3.145.069-.46.156-.891.195-1.273l.058-1.068c.048-.627.077-1.107.097-1.45q.012-.246.048-.49v.49c0 .343 0 .823-.058 1.45v1.077c0 .392-.116.814-.175 1.274a23.5 23.5 0 0 1-.591 3.174 29.3 29.3 0 0 1-3.306 8.172 30.5 30.5 0 0 1-8.613 9.432 30.15 30.15 0 0 1-11.68 5.039q-1.923.37-3.88.46c-.649 0-1.308.088-1.939.079l-2.007-.098c-.339 0-.678 0-1.018-.069l-1.018-.147c-.669-.117-1.357-.196-2.046-.333a35 35 0 0 1-4.052-1.195 32 32 0 0 1-3.966-1.754c-.64-.353-1.26-.764-1.94-1.146-.31-.196-.64-.373-.969-.598l-.892-.676a33 33 0 0 1-3.452-2.94 34 34 0 0 1-2.986-3.556l-.698-.98-.61-.98-.612-.98a9 9 0 0 1-.572-1.047L16.3 60.637c-.282-.754-.553-1.508-.834-2.273a33.4 33.4 0 0 1-1.571-9.7c.05-3.309.593-6.592 1.61-9.738.28-.764.552-1.529.833-2.283s.689-1.44 1.028-2.165a8.4 8.4 0 0 1 .572-1.049l.61-.98.612-.979.698-.98a28.1 28.1 0 0 1 6.467-6.584l.902-.676q.468-.325.97-.598c.63-.382 1.25-.793 1.89-1.146a32 32 0 0 1 3.966-1.753q1.99-.722 4.053-1.196c.688-.137 1.367-.215 2.046-.323l1.017-.157c.34 0 .68 0 1.019-.069l2.007-.098c.669 0 1.328.06 1.939.079 1.302.06 2.598.214 3.878.46 4.23.814 8.24 2.529 11.762 5.03a30.5 30.5 0 0 1 8.667 9.48 29.2 29.2 0 0 1 3.239 8.211 23 23 0 0 1 .591 3.174c.059.46.136.882.175 1.274s0 .755 0 1.078c0 .627 0 1.107.058 1.45z"/><path fill="#263238" d="M58.456 47.763q-.596.228-1.221.353l-3.365.813a922 922 0 0 1-11.247 2.548l-.252.059V50.36c0-4.791 0-9.112.058-12.247 0-1.51.048-2.763.068-3.713q-.01-.684.077-1.362.099.677.088 1.362c0 .98 0 2.204.068 3.713 0 3.135.058 7.456.058 12.247v.882l-.252-.206a941 941 0 0 1 11.266-2.43l3.404-.676c.41-.095.83-.15 1.25-.167m20.682 12.394a3.3 3.3 0 0 1 .135-.5c.088-.323.272-.783.437-1.39.52-1.713.915-3.462 1.183-5.233a35.7 35.7 0 0 0-1.605-17.427 35.4 35.4 0 0 0-9.681-14.513 37 37 0 0 0-4.199-3.292c-.514-.372-.97-.607-1.212-.803a2.6 2.6 0 0 1-.417-.294q.24.09.456.225c.29.167.737.383 1.26.735A31.5 31.5 0 0 1 69.8 20.87a34.76 34.76 0 0 1 9.89 14.598 35.1 35.1 0 0 1 1.493 17.626 32.6 32.6 0 0 1-1.318 5.242c-.194.608-.398 1.058-.514 1.372q-.08.239-.213.45m5.788-15.011c-.068 0-.106-1.215-.349-3.154a37.3 37.3 0 0 0-4.848-14.364c-.97-1.685-1.697-2.665-1.638-2.714q.316.294.562.647a20 20 0 0 1 1.328 1.96 32.8 32.8 0 0 1 3.316 6.946 32.6 32.6 0 0 1 1.59 7.544c.088.98.117 1.783.117 2.332q.01.407-.078.803M11.974 32.156a1.8 1.8 0 0 1-.204.47c-.145.304-.397.725-.659 1.303a39 39 0 0 0-1.988 4.977 36.25 36.25 0 0 0-.506 20.08 35.96 35.96 0 0 0 10.25 17.21c.447.45.835.754 1.077.98q.198.162.359.362-.226-.122-.417-.294c-.262-.205-.66-.5-1.125-.92a31.6 31.6 0 0 1-3.742-3.86 34.9 34.9 0 0 1-7.475-16.001 35.07 35.07 0 0 1 1.298-17.645 33 33 0 0 1 2.124-4.957c.29-.569.562-.98.727-1.274q.126-.225.281-.431M3.868 46.059c.068 0-.087 1.214-.145 3.174a38 38 0 0 0 .504 7.613 38.7 38.7 0 0 0 2.036 7.348c.708 1.822 1.26 2.94 1.193 2.94A3.2 3.2 0 0 1 7 66.407c-.262-.48-.62-1.195-.97-2.097a32.7 32.7 0 0 1-2.162-7.387 33.5 33.5 0 0 1-.388-7.7c.068-.98.175-1.784.262-2.323.004-.285.047-.569.126-.843m64.779 7.605c-1.144-.236-2.065-.441-2.065-.451s.97.176 2.074.411c1.106.236 2.056.431 2.056.441s-.912-.166-2.065-.401"/><path fill="#263238" d="M68.647 53.662c0-.07.484 0 1.24.068l.621.088h.262s-.213 0-.223.147a.23.23 0 0 0 .107.265l-.359-.069-1.61-.323-1.6-.343-.348-.078a.22.22 0 0 0 .184-.226c0-.108-.165-.235-.146-.206h.214l.6.167c.738.206 1.184.362 1.174.431a3 3 0 0 1-1.25-.078l-.612-.108h-.252s-.184-.098-.165-.216c.02-.117.078-.215.204-.215h.146l.368.059c.504.078 1.047.186 1.62.303.571.118 1.114.245 1.6.363l.358.088h.135a.244.244 0 0 1 .117.284c0 .108-.233.177-.242.147h-.243l-.746-.127c-.718-.196-1.174-.353-1.154-.422m-2.928 7.692c-.97-.598-1.814-1.088-1.804-1.098s.824.46 1.823 1.058 1.813 1.088 1.803 1.098-.824-.46-1.822-1.058"/><path fill="#263238" d="M65.719 61.353c0-.06.475.127 1.153.47l.553.294.145.068s-.213 0-.252.069a.22.22 0 0 0 0 .284h-.048l-.31-.186-1.416-.823-1.406-.852-.31-.187a.22.22 0 0 0 .252-.147c.068-.098-.078-.274-.068-.235l.145.089.514.352c.63.441.97.735.97.794s-.475-.128-1.154-.48l-.552-.304-.156-.088s-.155-.157-.087-.255a.225.225 0 0 1 .262-.147l.136.059.33.176q.667.373 1.425.823c.504.294.97.588 1.406.862l.31.206.106.079a.26.26 0 0 1 0 .303c-.048.098-.28.089-.28.06h-.05l-.145-.09-.533-.342c-.601-.49-.98-.794-.94-.852m-5.256 6.309c-.746-.901-1.328-1.626-1.328-1.626s.63.715 1.387 1.607a59 59 0 0 1 1.347 1.626c-.01 0-.65-.715-1.406-1.607"/><path fill="#263238" d="M60.463 67.662c.059 0 .408.275.97.823l.436.45.117.128s-.194-.098-.262 0a.215.215 0 0 0-.078.284l-.242-.284-1.067-1.244-1.057-1.264-.232-.284a.22.22 0 0 0 .28-.059c.098-.068 0-.294 0-.255l.108.138.368.5c.456.617.718.98.66 1.067-.059.088-.408-.274-.97-.842l-.427-.46-.116-.138s-.087-.186 0-.274a.23.23 0 0 1 .3 0 .6.6 0 0 1 .107.098l.252.274c.35.372.708.794 1.086 1.244s.737.882 1.047 1.284l.233.294.078.107c.077.108 0 .285-.078.294s-.291 0-.281 0l-.107-.137-.398-.5c-.513-.793-.775-1.205-.727-1.244m-6.981 4.252c-.426-1.087-.766-1.96-.756-1.96s.368.873.795 1.96c.427 1.088.766 1.96.756 1.96s-.368-.872-.795-1.96"/><path fill="#263238" d="M53.482 71.914c.068 0 .3.392.63 1.088l.262.568.068.157s-.155-.167-.242-.108a.217.217 0 0 0-.165.245l-.146-.333c-.203-.51-.407-.98-.61-1.538l-.592-1.538-.136-.343a.22.22 0 0 0 .282 0c.116 0 .106-.275.097-.245v.088l.058.157.194.597c.232.735.349 1.196.28 1.225-.067.03-.3-.392-.62-1.097-.077-.196-.164-.382-.252-.578l-.068-.157v-.147s0-.216.088-.255c.087-.039.223 0 .29 0q.045.063.068.137l.155.343c.204.46.418.98.63 1.529.214.548.418 1.068.583 1.548l.126.362v.128c0 .127-.097.264-.156.254s-.28-.108-.261-.127l-.059-.167a23 23 0 0 0-.213-.597 3.3 3.3 0 0 1-.29-1.196m-7.923 1.725c-.048-1.176-.087-2.126-.077-2.126s.068.98.117 2.116c.048 1.136.087 2.126.077 2.126s-.116-.901-.116-2.116"/><path fill="#263238" d="M45.56 73.639c.069 0 .156.47.243 1.234l.068.627v.206s-.087-.206-.194-.176-.233.059-.233.166v-.372c0-.549-.058-1.087-.087-1.646s0-1.107-.058-1.656v-.401a.234.234 0 0 0 .262.137c.116 0 .184-.226.165-.196v.842c.04.423-.002.849-.127 1.255a3.2 3.2 0 0 1-.232-1.245v-.882s0-.215.165-.215.223 0 .261.147a.7.7 0 0 1 0 .147v.372c0 .51.078 1.068.097 1.656s.049 1.146.049 1.666v.372a.6.6 0 0 1 0 .137c0 .108-.184.216-.242.186-.059-.03-.224-.196-.194-.206v-.881a3.3 3.3 0 0 1 .058-1.274m-8.145-.989c.32-1.127.592-2.039.601-2.039s-.242.921-.562 2.048-.601 2.038-.61 2.038.242-.921.571-2.048"/><path fill="#263238" d="M37.416 72.65c.068 0 0 .49-.174 1.243-.049.206-.088.412-.136.618v.216s0-.226-.126-.236a.23.23 0 0 0-.272.088l.097-.352c.146-.53.291-1.049.446-1.588.155-.538.31-1.058.466-1.587l.106-.353a.236.236 0 0 0 .194.216c.117 0 .252-.157.223-.137l-.058.166-.213.588c-.262.725-.446 1.166-.514 1.147-.068-.02 0-.5.175-1.255l.155-.607v-.176s.106-.186.223-.147c.116.039.203.088.203.215a1 1 0 0 1 0 .147l-.087.373a31 31 0 0 1-.427 1.597 67 67 0 0 1-.485 1.587l-.126.353a.4.4 0 0 1-.048.127.224.224 0 0 1-.281.098c-.107 0-.155-.245-.126-.255v-.069l.048-.176.204-.597c.271-.824.465-1.264.533-1.245m-7.369-3.586c.67-.98 1.222-1.734 1.232-1.724s-.524.793-1.203 1.754a92 92 0 0 1-1.231 1.724c-.01 0 .553-.794 1.202-1.754"/><path fill="#263238" d="M30.047 69.063c.058 0-.165.47-.562 1.127-.116.176-.223.353-.33.53l-.087.146s.058-.225 0-.264a.22.22 0 0 0-.29 0l.212-.304.97-1.362c.33-.45.64-.892.97-1.342l.213-.294a.23.23 0 0 0 .126.264c.097.069.281-.058.242-.049l-.106.128-.388.49c-.485.597-.805.98-.863.91-.058-.068.165-.47.572-1.116.116-.186.223-.363.34-.53l.096-.146s.165-.137.262-.069a.234.234 0 0 1 .116.284c-.058.118-.048.079-.067.128l-.204.323c-.271.421-.591.882-.97 1.362-.378.48-.669.98-.97 1.342l-.232.294-.087.108a.23.23 0 0 1-.3 0c-.098-.05-.069-.284 0-.284l.096-.147.388-.5c.495-.715.853-1.068.853-1.029m-5.769-5.8 1.716-1.234s-.746.578-1.687 1.263c-.94.686-1.716 1.235-1.726 1.225z"/><path fill="#263238" d="M24.278 63.263c0 .059-.3.382-.892.872l-.485.402-.126.108s.117-.196 0-.275a.22.22 0 0 0-.271-.098l.29-.215 1.32-.98 1.337-.98.301-.206a.236.236 0 0 0 0 .294c.068.108.29 0 .252 0l-.145.089-.524.343c-.64.401-1.067.636-1.105.578-.04-.06.3-.392.901-.872l.495-.392.136-.108s.194-.078.261 0c.068.078.107.206 0 .294l-.106.108-.291.235c-.407.313-.844.646-1.319.98s-.97.666-1.347.98l-.31.205-.117.069c-.097.058-.281 0-.281-.098s0-.294.048-.275l.146-.108.514-.342c.863-.441 1.27-.667 1.318-.608m-3.616-7.387c1.115-.343 2.016-.608 2.016-.598s-.892.294-2.007.637-2.017.607-2.017.598.893-.275 2.008-.637"/><path fill="#263238" d="M20.662 55.876c0 .068-.417.264-1.125.538l-.582.216-.165.059s.175-.137.126-.245-.116-.206-.223-.176c-.106.029 0 0 .049 0l.34-.118 1.57-.49 1.561-.47.349-.098a.226.226 0 0 0-.068.284c0 .118.262.137.233.118h-.223l-.601.147c-.747.176-1.212.254-1.232.186-.02-.069.407-.265 1.125-.53.204-.068.398-.146.601-.205l.165-.059h.068s.213 0 .252.108a.24.24 0 0 1-.078.294l-.135.059-.35.127c-.474.166-.969.333-1.56.51-.592.176-1.096.323-1.58.45l-.36.098h-.135c-.107 0-.252-.127-.233-.186.02-.059.126-.274.136-.245h.048l.165-.049.61-.157c.757-.157 1.232-.235 1.252-.166m-1.048-8.171c1.164 0 2.104.088 2.104.098s-.97 0-2.104-.06l-2.104-.097s.902.01 2.104.059"/><path fill="#263238" d="M19.614 47.705a3.1 3.1 0 0 1-1.24.137h-.844s.213-.069.194-.177a.217.217 0 0 0-.146-.254h2.047l1.638.068h.358a.23.23 0 0 0-.145.255c0 .118.204.206.175.176h-.223l-.621-.068a3.3 3.3 0 0 1-1.222-.225 3.05 3.05 0 0 1 1.241-.128h.883s.203.069.194.186a.24.24 0 0 1-.165.255.4.4 0 0 1-.146 0h-2.016c-.582 0-1.135 0-1.639-.088h-.504c-.107 0-.204-.196-.165-.255s.204-.216.213-.186h.873c.437.01.866.113 1.26.304m1.639-8.123c1.086.422 1.94.774 1.94.784s-.893-.323-1.94-.744c-1.047-.422-1.94-.765-1.94-.774s.854.362 1.94.734"/><path fill="#263238" d="M21.253 39.582c0 .069-.485 0-1.212-.264l-.601-.196h-.155s.223 0 .232-.118a.21.21 0 0 0-.058-.274h.049l.34.127 1.531.578 1.522.608.34.127a.22.22 0 0 0-.214.186c-.048.118.126.265.107.226l-.155-.069-.562-.264c-.689-.324-1.116-.55-1.086-.618.418.017.829.113 1.212.285l.6.205.156.059h.048s.175.127.126.245a.225.225 0 0 1-.232.176h-.146l-.358-.117-1.542-.569-1.522-.617-.34-.157-.116-.058a.235.235 0 0 1-.078-.294c0-.108.252-.137.262-.108l.165.069.572.245c.727.333 1.183.587 1.115.587m4.14-7.054c.892.754 1.61 1.372 1.6 1.382s-.737-.598-1.62-1.353c-.882-.754-1.609-1.371-1.599-1.381s.727.568 1.62 1.352"/><path fill="#263238" d="M25.393 32.528c0 .05-.446-.206-1.057-.666a10 10 0 0 1-.504-.372l-.136-.098s.214.068.262 0a.22.22 0 0 0 0-.285l.281.236 1.26 1.048 1.252 1.078.271.235a.22.22 0 0 0-.271.098c-.078.088 0 .294 0 .255l-.117-.118-.455-.431c-.543-.539-.863-.892-.824-.98.038-.088.445.196 1.056.666l.495.382.136.118s.126.176.048.274a.23.23 0 0 1-.281.088.4.4 0 0 1-.126-.078l-.3-.225a41 41 0 0 1-1.27-1.049 59 59 0 0 1-1.242-1.087l-.271-.255-.098-.098a.25.25 0 0 1 0-.303c.059-.089.291 0 .282 0l.126.117.465.421c.747.618 1.067.97 1.018 1.03m6.206-5.35c.6.98 1.076 1.822 1.066 1.832s-.504-.804-1.105-1.813-1.076-1.822-1.067-1.832.524.803 1.106 1.813"/><path fill="#263238" d="M31.599 27.179c-.068 0-.36-.343-.796-.98l-.358-.52-.097-.137s.174.138.262.069c.087-.069.174-.176.116-.265l.194.314.853 1.401c.291.49.563.98.834 1.43l.194.314a.21.21 0 0 0-.281 0c-.107.059-.059.284-.059.245l-.077-.147-.29-.558c-.35-.686-.544-1.127-.476-1.157.068-.029.349.334.785.98l.34.53.097.156s.058.206 0 .265a.23.23 0 0 1-.3 0 .5.5 0 0 1-.088-.118l-.204-.314a30 30 0 0 1-.872-1.41c-.301-.5-.582-.98-.825-1.43l-.184-.334a1 1 0 0 1-.058-.118.26.26 0 0 1 .116-.284c.088-.059.291.06.272.088l.087.157.3.549c.379.793.573 1.234.515 1.274m7.572-3.038c.242 1.147.436 2.077.427 2.087s-.223-.93-.466-2.077c-.242-1.146-.436-2.087-.426-2.087s.223.931.465 2.077"/><path fill="#263238" d="M39.171 24.141c-.068 0-.233-.44-.436-1.175l-.175-.608v-.166s.126.186.223.147.214-.108.204-.216l.077.353c.127.539.243 1.068.36 1.616.115.549.222 1.088.339 1.617l.067.363a.214.214 0 0 0-.271-.089c-.126 0-.145.245-.136.216v-.225l-.097-.618a3.3 3.3 0 0 1-.077-1.254c.067 0 .232.431.426 1.176.058.215.107.411.165.617v.245s0 .216-.126.245c-.126.03-.233 0-.281-.098s0-.098 0-.147l-.097-.363a46 46 0 0 1-.378-1.616c-.126-.578-.223-1.127-.32-1.626l-.058-.373v-.127c0-.128.145-.245.203-.226.058.02.252.147.233.157v.255l.116.617c.1.427.114.87.04 1.303m8.144-.381c-.136 1.165-.262 2.115-.272 2.115s.097-.98.233-2.116.262-2.116.271-2.116-.048.95-.232 2.116"/><path fill="#263238" d="M47.316 23.76a3.4 3.4 0 0 1 0-1.255v-.852s.048.215.164.206a.21.21 0 0 0 .253-.128v.363c-.059.548-.127 1.087-.185 1.646s-.135 1.097-.203 1.636l-.049.372a.22.22 0 0 0-.078-.13.2.2 0 0 0-.145-.046c-.126 0-.223.186-.194.166v-.225c0-.196.078-.402.107-.617.145-.755.262-1.225.33-1.215.084.417.084.847 0 1.264v.921s-.078.196-.204.186-.213-.059-.233-.186a.6.6 0 0 1 0-.147v-.382c0-.51.097-1.068.165-1.646a46 46 0 0 1 .223-1.646l.068-.373v-.127c0-.127.213-.186.262-.147.048.04.194.215.174.225v.255c0 .206-.058.412-.097.627-.174.803-.29 1.264-.358 1.254m7.834 2.313c-.504 1.058-.921 1.91-.97 1.91s.388-.872.892-1.96c.505-1.087.921-1.91.97-1.91s-.388.901-.892 1.96"/><path fill="#263238" d="M55.15 26.071c.048-.42.172-.83.368-1.205.078-.196.165-.392.233-.578l.068-.157s0 .216.087.245a.2.2 0 0 0 .282 0l-.156.334c-.232.49-.465.98-.698 1.489l-.727 1.489-.155.333a.24.24 0 0 0-.165-.235c-.107-.059-.271.108-.233.088l.088-.147.3-.548c.378-.667.64-1.068.698-1.039.059.03-.087.49-.378 1.205l-.252.578-.068.157v.049s-.136.166-.242.108c-.107-.06-.194-.128-.165-.245l.049-.147.145-.343c.203-.47.436-.98.688-1.509s.495-.98.737-1.49l.175-.323a.6.6 0 0 1 .068-.117c.058-.098.261-.108.3 0s.107.265.078.265l-.078.156-.29.559c-.427.656-.65 1.058-.757 1.028m6.661 4.762c-.824.833-1.493 1.5-1.503 1.49s.65-.686 1.474-1.52c.824-.832 1.484-1.508 1.493-1.498s-.65.686-1.464 1.528"/><path fill="#263238" d="M61.811 30.833c-.048-.059.233-.44.737-.98l.407-.47.117-.127s-.088.196 0 .264a.21.21 0 0 0 .28.05l-.251.264c-.379.392-.747.784-1.145 1.185l-1.153 1.166-.262.255a.24.24 0 0 0-.078-.284c-.077-.088-.29 0-.252 0l.126-.118.466-.411c.572-.51.97-.813.97-.755 0 .06-.243.431-.747.98-.146.157-.282.314-.427.46l-.116.128s-.184.108-.272 0a.235.235 0 0 1-.068-.294l.088-.118.252-.274a40 40 0 0 1 2.317-2.361l.272-.255a.5.5 0 0 1 .096-.088.25.25 0 0 1 .301 0c.087.069 0 .294 0 .284l-.126.128-.456.43c-.65.696-1.027.99-1.076.941m4.771 6.672c-1.048.53-1.891.98-1.94.98s.834-.44 1.881-.98c1.047-.539 1.891-.98 1.891-.93 0 .048-.795.411-1.832.93"/><path fill="#263238" d="M66.582 37.505c0-.059.358-.323 1.018-.715l.543-.313.145-.089s-.145.167-.078.255a.225.225 0 0 0 .253.147h-.049l-.32.167-1.464.744-1.464.725-.33.157a.236.236 0 0 0 0-.294c0-.108-.271-.078-.242-.069h.058l.145-.068.582-.245a3.3 3.3 0 0 1 1.183-.392c0 .069-.368.333-1.028.715l-.552.304-.156.078h-.048s-.213 0-.262-.068a.227.227 0 0 1 0-.304q.06-.044.126-.078l.33-.186q.668-.363 1.454-.765c.524-.254 1.028-.5 1.484-.705l.34-.157h.125c.107 0 .272.079.262.137-.01.06-.078.294-.097.275l-.155.078-.572.265c-.756.313-1.202.519-1.231.401m2.365 7.887c-1.154.147-2.084.265-2.084.255s.97-.147 2.084-.294 2.085-.274 2.085-.264-.93.147-2.085.303"/><path fill="#263238" d="M68.947 45.392c0-.078.456-.196 1.203-.352l.61-.118h.165s-.194.108-.155.216c.039.107.078.225.184.215h-.368l-1.62.225-1.618.206h-.369a.215.215 0 0 0 .107-.274c0-.118-.233-.167-.204-.147h.843c.757-.049 1.232-.049 1.242 0s-.446.196-1.203.333l-.61.108h-.262s-.214 0-.223-.147 0-.225.116-.274h.145l.369-.06a42 42 0 0 1 1.62-.244 29 29 0 0 1 1.638-.186h.504c.107 0 .223.157.204.215-.02.059-.165.245-.185.226h-.252l-.62.058a3.15 3.15 0 0 1-1.26 0"/></g><defs><clipPath id="medic-clock_svg__a"><path fill="#fff" d="M.02 0h211.483v240H.02z"/></clipPath><clipPath id="medic-clock_svg__b"><path fill="#fff" d="M.872 0H210v239.815H.872z"/></clipPath></defs></svg>