<svg xmlns="http://www.w3.org/2000/svg" width="201" height="240" fill="none" viewBox="0 0 201 240"><g clip-path="url(#medic-happy-primary_svg__a)"><circle cx="100.627" cy="140" r="100" fill="#E6E6F0"/><mask id="medic-happy-primary_svg__b" width="201" height="200" x="0" y="40" maskUnits="userSpaceOnUse" style="mask-type:alpha"><circle cx="100.627" cy="140" r="100" fill="#fff"/></mask><g mask="url(#medic-happy-primary_svg__b)"><path fill="#27272E" d="M144.304 34.75c-2.47-2.744-5.482-5.346-6.295-8.94-.743-3.304.492-7.008-1.195-10.011-2.089-3.614-7.44-4.004-9.961-7.348-1.225-1.612-1.616-3.724-2.821-5.345-2.008-2.763-5.964-3.444-9.398-3.004s-6.707 1.682-10.151 2.002c-4.72.39-9.61-1.07-14.127.34-5.02 1.552-7.983 6.007-11.186 10.332l-4.177 5.005a19 19 0 0 1-2.79 2.333c-1.768 1.17-3.806 2.002-5.323 3.483a8.33 8.33 0 0 0-2.216 6.159 8.3 8.3 0 0 0 2.93 5.854 8.93 8.93 0 0 0-4.415 3.443 8.9 8.9 0 0 0-1.49 5.387c.321 2.063.89 4.08 1.697 6.006.653 2.002 1.065 4.204.251 6.137-.813 1.932-3.253 3.283-5.09 2.272a9.4 9.4 0 0 0 1.906 3.68 9.4 9.4 0 0 0 3.305 2.507 5.65 5.65 0 0 1-3.765 1.721c3.956 8.92 14.448 13.485 24.228 13.395s19.077-3.925 28.114-7.689l26.226-7.207c2.309-.56 3.223-3.374 3.153-5.736-.071-2.363-.703-4.815.11-7.008 1.125-3.003 4.629-4.705 5.793-7.728 1.316-3.514-.843-7.298-3.313-10.04"/><path fill="#FFBE9D" d="m106.491 6.66-1.446-.06C89.372 6.84 80.827 20.243 81.5 35.85l-.582 53.758a18.25 18.25 0 0 0 4.896 12.643 18.35 18.35 0 0 0 12.283 5.806 18.4 18.4 0 0 0 7.162-.968 18.4 18.4 0 0 0 6.229-3.652 18.3 18.3 0 0 0 4.33-5.77 18.2 18.2 0 0 0 1.758-6.988c.141-2.823.241-4.805.251-4.805s15.121-1.682 15.955-16.648c.401-7.228 0-22.184-.502-35.718a27.88 27.88 0 0 0-8.131-18.645 28.04 28.04 0 0 0-18.658-8.204"/><path fill="#EB996E" d="M117.827 85.874a36.4 36.4 0 0 1-19.308-6.597s4.016 11.132 19.077 10.42z"/><path fill="#27272E" d="M126.984 45.48a2.14 2.14 0 0 1-.657 1.474 2.15 2.15 0 0 1-1.502.599 2.01 2.01 0 0 1-1.965-1.207 2 2 0 0 1-.163-.795 2.14 2.14 0 0 1 .657-1.474 2.15 2.15 0 0 1 1.501-.599 2.02 2.02 0 0 1 1.499.543 2 2 0 0 1 .63 1.46m-21.898-.001a2.15 2.15 0 0 1-.664 1.475 2.16 2.16 0 0 1-1.505.598 2.07 2.07 0 0 1-1.948-1.217 2.1 2.1 0 0 1-.181-.785 2.154 2.154 0 0 1 2.169-2.062 2.01 2.01 0 0 1 1.962 1.2 2 2 0 0 1 .167.792m9.588 12.103a15.6 15.6 0 0 1 3.776-.511c.592 0 1.154-.13 1.275-.52a3 3 0 0 0-.321-1.762l-1.547-4.555c-2.148-6.467-3.675-11.783-3.414-11.863.262-.08 2.22 5.096 4.358 11.562a772 772 0 0 1 1.476 4.575c.346.725.421 1.548.211 2.323a1.5 1.5 0 0 1-1.004.82q-.497.105-1.004.09c-2.35.03-3.806-.02-3.806-.16m-6.857 1.302c.371 0 .271 2.492 2.339 4.365 2.069 1.871 4.74 1.701 4.75 2.002 0 .16-.613.46-1.747.44a6.25 6.25 0 0 1-4.017-1.571 5.4 5.4 0 0 1-1.807-3.644c0-1.031.301-1.612.482-1.592"/><path fill="#FFBE9D" d="M82.253 46.992c-.25-.12-10.191-3.483-10.301 6.768s10.231 8.248 10.251 7.948.05-14.716.05-14.716"/><path fill="#EB996E" d="M79.11 57.794c-.05 0-.181.12-.492.26a1.77 1.77 0 0 1-1.336 0c-1.084-.41-2.008-2.142-2.008-4.004a5.8 5.8 0 0 1 .532-2.553 2.06 2.06 0 0 1 1.356-1.361.906.906 0 0 1 1.054.5c.14.29.07.5.12.51s.222-.16.151-.59a1.1 1.1 0 0 0-.401-.64 1.34 1.34 0 0 0-1.004-.281 2.53 2.53 0 0 0-1.888 1.572 6 6 0 0 0-.653 2.853c0 2.062 1.075 4.004 2.56 4.454a1.92 1.92 0 0 0 1.637-.25c.342-.22.402-.45.372-.47"/><path fill="#27272E" d="M81.912 16.94A21.5 21.5 0 0 1 88.6 9.592a30.9 30.9 0 0 1 9.89-5.575 22.66 22.66 0 0 1 17.371 1 13.4 13.4 0 0 1 4.91 4.175c3.685 2.283 7.349 6.537 5.893 7.338l-2.008-2.153s-.883 1.832-4.608 4.646a2 2 0 0 1-.271.17 5 5 0 0 1-1.075.6l-.211.13c-4.387 1.462-7.239.871-11.607-.65-3.012-1.001-5.773-2.763-8.705-4.004a10.7 10.7 0 0 0-7.028 2.612 6.6 6.6 0 0 0-.844.841 6.13 6.13 0 0 0-.733 5.116c.402 1.741 1.205 3.353 1.707 5.065.914 3.143.773 6.487.623 9.75-.211 4.605-.472 9.4-2.741 13.405-1.005 1.882-3.364 3.754-5.242 1.752a4.33 4.33 0 0 1-1.064-3.134c.13-3.123-2.62-4.565-4.016-6.827a12.3 12.3 0 0 1-1.547-6.327 40.2 40.2 0 0 1 4.62-20.582"/><path fill="#1900AF" d="M82.253 88.607s12.36 11.432 22.32 11.372 12.35-5.266 12.35-5.266l5.613 7.118s.522 46.439 1.144 47.24c.623.801-5.853 4.855-5.853 4.855l-33.054-47.3z"/><path fill="#FAFAFC" d="M152.257 259.208s4.679-1.531 5.954-5.856c1.275-4.324-2.219-47.551-2.219-47.551l-2.631-2.602 2.008-1.612v-13.725l-4.679-28.91s-4.608-39.713-10.201-42.556l-8.675 39.322 6.376 92.218z"/><path fill="#FAFAFC" d="m116.923 94.713.653-4.004c1.506 1.171 5.502 7.408 5.502 7.408 5.493 4.625 16.949 16.317 19.027 20.892 3.013 6.497 3.264 36.319 3.264 36.319l-1.466 147.497-98.941.15 1.596-66.821 3.143-131.831L73.99 92.141l6.506-7.138 40.916 66.481-.292-44.768a19.56 19.56 0 0 0-4.197-12.003"/><path fill="#FAFAFC" d="M12.591 215.662a21.68 21.68 0 0 1-1.446-16.207c5.563-18.54 22.873-75.921 26.025-83.089 3.465-7.838 13.334-12.503 13.334-12.503l15.192 39.782-3.866 18.54-13.916 39.622 40.725 47.501-29.118 23.865s-43.888-51.755-46.85-57.371z"/><path fill="#27272E" d="M123.058 302.945a1.8 1.8 0 0 1 0-.4v-5.737c0-4.004.061-9.7.101-16.747.1-14.135.341-33.666.301-55.239 0-10.782-.121-21.023-.301-30.403-.101-4.675-.201-9.119-.302-13.274s-.361-8.008-.522-11.542c-.301-7.008-.552-12.754-.723-16.728-.07-1.952-.13-3.484-.17-4.555v-1.181a1.5 1.5 0 0 1 0-.4v.4c0 .27 0 .681.08 1.181.07 1.061.161 2.593.271 4.545.211 4.004.522 9.68.894 16.718.181 3.534.371 7.398.592 11.552.221 4.155.221 8.599.342 13.274.2 9.34.321 19.621.341 30.413 0 21.573-.261 41.104-.452 55.239-.11 7.007-.201 12.763-.271 16.747 0 1.953-.07 3.484-.09 4.545v1.192q-.026.204-.091.4"/><path fill="#27272E" d="M73.99 92.11q.195.202.341.44l.914 1.342c.803 1.212 1.938 2.923 3.364 5.056l11.577 17.678-.141-.11 8.675 2.163.311.08-.14.29a267 267 0 0 0-3.013 5.886c-.15.311-.31.621-.461.901v-.27l19.027 24.606c2.379 3.124 4.317 5.666 5.693 7.458l1.526 2.002.381.541c.091.12.131.19.121.2a1 1 0 0 1-.161-.17l-.431-.501-1.597-2.002-5.823-7.368-19.148-24.516-.1-.13.08-.14c.14-.29.301-.601.462-.911l3.012-5.886.16.37-8.665-2.182h-.1l-.05-.08-11.426-17.78-3.243-5.135-.844-1.371a4 4 0 0 1-.301-.46"/><path fill="#27272E" d="M122.115 160.413q.074-.347.221-.671c.15-.43.432-1.001.713-1.872.592-1.631 1.355-4.004 2.179-7.007 1.636-6.006 3.504-14.496 5.14-24.026v.171l-.763-1.232-4.096-6.667-.322-.52.593.14 4.87 1.171-.292.31c-2.158-6.427-4.016-11.932-5.341-15.887l-1.486-4.584-.352-1.252a.22.22 0 0 1-.18-.237.224.224 0 0 1 .22-.2.22.22 0 0 1 .22.2.22.22 0 0 1-.179.237c.12.32.261.71.451 1.201.392 1.112.944 2.633 1.617 4.535 1.376 3.944 3.293 9.43 5.522 15.837l.151.411-.432-.101-4.869-1.141.271-.38c1.325 2.132 2.701 4.364 4.116 6.657l.763 1.231v.18a238 238 0 0 1-5.301 24.026c-.874 3.003-1.697 5.396-2.35 7.007-.301.821-.612 1.422-.793 1.842a6 6 0 0 1-.291.621m22.721-20.061c.141 0 .261 22.604.261 50.483 0 27.88-.12 50.494-.261 50.494-.14 0-.261-22.604-.261-50.494 0-27.889.111-50.483.261-50.483M35.012 243.972s.17.16.461.501l1.326 1.521a554 554 0 0 0 5.02 5.857c4.297 5.095 10.452 12.373 17.913 21.222h-.292l29.068-23.905v.37l-9.378-10.931-31.317-36.599-.08-.101v-.12c4.227-11.892 7.731-21.783 10.191-28.72l2.882-8.009.773-2.092c.18-.481.281-.721.281-.721s-.06.26-.22.741c-.161.48-.402 1.211-.704 2.122-.652 1.872-1.586 4.595-2.77 8.009l-10.041 28.78v-.22l31.377 36.549 9.368 10.932.17.2-.2.17-29.119 23.836-.16.13-.13-.16-17.783-21.343-4.89-5.927-1.275-1.561c-.361-.341-.471-.531-.471-.531m8.605-134.643q.211-.036.422 0h1.225c1.5.059 2.993.257 4.458.59a26.55 26.55 0 0 1 12.903 7.015 26.43 26.43 0 0 1 7.178 12.786 23.5 23.5 0 0 1 .653 4.435v1.221q.036.211 0 .421a12 12 0 0 1-.181-1.622 30 30 0 0 0-.803-4.364 26.93 26.93 0 0 0-7.2-12.513 27.05 27.05 0 0 0-12.64-7.018 29 29 0 0 0-4.378-.751 12 12 0 0 1-1.637-.2"/><path fill="#27272E" d="M32.23 204.8a7.3 7.3 0 0 1 2.009-1.351 17.8 17.8 0 0 1 11.255-1.852 6.9 6.9 0 0 1 2.31.651 22.47 22.47 0 0 0-15.573 2.562zm72.344-43.826a3.18 3.18 0 0 1 1.165 2.522c-.101 1.552 0 12.123 0 12.123s.391 1.552-1.165 1.552z"/><path fill="#27272E" d="M104.885 159.252h-3.254v5.306h3.254z"/><path fill="#27272E" d="M102.284 159.863h2.008v-2.002a1.007 1.007 0 0 0-1.714-.708 1 1 0 0 0-.294.708zm-25.192 4.374c0-.15 7.3-.26 16.296-.26s16.306.11 16.306.26-7.299.261-16.306.261c-9.006 0-16.296-.121-16.296-.261"/><path fill="#27272E" d="m119.334 156.819-1.507-1.421-27.43-26.148 3.001-8.569H88.64l-9.538-20.702 10.884 16.778 8.675 2.172-3.494 6.787m1.293 66.341a15.6 15.6 0 0 0 7.672-2.343 13.2 13.2 0 0 0 4.347-6.427 34 34 0 0 1-1.275 6.858 9.9 9.9 0 0 1-3.845 5.125c-2.129 1.322-4.79 1.462-7.29 1.262a30.6 30.6 0 0 1-9.74-2.433c-2.198-.951-4.498-2.453-4.95-4.795a30.45 30.45 0 0 0 15.082 2.753" opacity=".2"/></g><mask id="medic-happy-primary_svg__c" width="94" height="99" x="54" y="0" maskUnits="userSpaceOnUse" style="mask-type:alpha"><path fill="#C4C4C4" d="M54.751 0h93.038v98.181H54.751z"/></mask><g mask="url(#medic-happy-primary_svg__c)"><path fill="#27272E" d="M144.303 34.75c-2.47-2.744-5.482-5.346-6.295-8.94-.743-3.304.492-7.008-1.195-10.011-2.089-3.614-7.44-4.004-9.96-7.348-1.225-1.612-1.617-3.724-2.822-5.345-2.008-2.763-5.964-3.444-9.398-3.004s-6.707 1.682-10.151 2.002c-4.72.39-9.609-1.07-14.127.34-5.02 1.552-7.983 6.007-11.186 10.332l-4.176 5.005a19 19 0 0 1-2.792 2.333c-1.767 1.17-3.805 2.002-5.321 3.483a8.32 8.32 0 0 0-2.217 6.159 8.3 8.3 0 0 0 2.93 5.854 8.93 8.93 0 0 0-4.415 3.443 8.9 8.9 0 0 0-1.49 5.387c.321 2.063.891 4.08 1.697 6.006.653 2.002 1.065 4.204.252 6.137-.814 1.932-3.254 3.283-5.091 2.272a9.4 9.4 0 0 0 1.906 3.68 9.4 9.4 0 0 0 3.305 2.507 5.65 5.65 0 0 1-3.765 1.721c3.956 8.92 14.448 13.485 24.228 13.395s19.077-3.925 28.114-7.689l26.226-7.207c2.309-.56 3.223-3.374 3.153-5.736-.071-2.363-.703-4.815.11-7.008 1.125-3.003 4.629-4.705 5.794-7.728 1.315-3.514-.844-7.298-3.314-10.04"/><path fill="#FFBE9D" d="m106.49 6.66-1.445-.06c-15.674.24-24.219 13.644-23.546 29.25l-.582 53.758a18.25 18.25 0 0 0 4.896 12.643 18.35 18.35 0 0 0 12.283 5.806 18.4 18.4 0 0 0 7.162-.968 18.32 18.32 0 0 0 10.56-9.421 18.2 18.2 0 0 0 1.757-6.99c.141-2.822.241-4.804.251-4.804s15.122-1.682 15.955-16.648c.402-7.228 0-22.184-.502-35.718a27.88 27.88 0 0 0-8.131-18.645A28.04 28.04 0 0 0 106.49 6.66"/><path fill="#EB996E" d="M117.826 85.874a36.4 36.4 0 0 1-19.308-6.597s4.016 11.132 19.077 10.42z"/><path fill="#27272E" d="M126.983 45.48a2.14 2.14 0 0 1-.657 1.474 2.15 2.15 0 0 1-1.501.599 2.02 2.02 0 0 1-1.499-.542 2 2 0 0 1-.63-1.46 2.14 2.14 0 0 1 .657-1.473 2.15 2.15 0 0 1 1.502-.6 2.01 2.01 0 0 1 1.965 1.208c.108.25.164.521.163.795m2.822-5.897c-.282.27-1.848-1-4.157-1.09s-4.017 1-4.288.69c-.12-.13.171-.62.934-1.121a5.9 5.9 0 0 1 3.444-.901 5.66 5.66 0 0 1 3.293 1.221c.693.57.904 1.041.774 1.201m-24.72 5.896a2.15 2.15 0 0 1-.664 1.475 2.16 2.16 0 0 1-1.505.598 2.07 2.07 0 0 1-2.129-2.002 2.154 2.154 0 0 1 2.169-2.062 2.01 2.01 0 0 1 1.962 1.2 2 2 0 0 1 .167.792m2.068-5.927c-.281.26-1.857-1-4.156-1.1-2.3-.101-4.017 1-4.288.7-.12-.13.17-.63.934-1.131a6 6 0 0 1 3.444-.901 5.7 5.7 0 0 1 3.303 1.221c.683.57.904 1.081.763 1.211m7.521 18.03c1.232-.324 2.5-.496 3.775-.511.592 0 1.155-.13 1.275-.52a3 3 0 0 0-.321-1.762l-1.547-4.555c-2.148-6.467-3.674-11.783-3.413-11.863s2.219 5.096 4.357 11.562a772 772 0 0 1 1.476 4.575c.346.725.421 1.548.211 2.323a1.5 1.5 0 0 1-1.004.82q-.497.105-1.004.09c-2.35.03-3.805-.02-3.805-.16m-6.858 1.302c.372 0 .271 2.492 2.34 4.365 2.068 1.871 4.739 1.701 4.749 2.002 0 .16-.613.46-1.747.44a6.25 6.25 0 0 1-4.017-1.571 5.4 5.4 0 0 1-1.807-3.644c0-1.031.301-1.612.482-1.592m-.402-28.681c-.261.621-2.55.22-5.271.43-2.721.211-4.95.852-5.282.281-.15-.28.261-.85 1.165-1.421a8.9 8.9 0 0 1 3.956-1.192 8.64 8.64 0 0 1 4.077.661c1.004.45 1.486.951 1.355 1.241m21.768 1.692c-.431.5-2.008-.11-3.906-.21-1.897-.1-3.554.2-3.895-.36-.151-.28.12-.791.853-1.252a5.33 5.33 0 0 1 3.213-.72 5.46 5.46 0 0 1 3.073 1.18c.652.571.853 1.112.662 1.362"/><path fill="#FFBE9D" d="M82.252 46.992c-.25-.12-10.19-3.483-10.301 6.768-.11 10.25 10.231 8.248 10.251 7.948s.05-14.716.05-14.716"/><path fill="#EB996E" d="M79.109 57.794c-.05 0-.18.12-.492.26a1.77 1.77 0 0 1-1.336 0c-1.084-.41-2.008-2.142-2.008-4.004a5.8 5.8 0 0 1 .532-2.553 2.06 2.06 0 0 1 1.356-1.361.906.906 0 0 1 1.054.5c.14.29.07.5.12.51s.222-.16.151-.59a1.1 1.1 0 0 0-.401-.64 1.34 1.34 0 0 0-1.004-.281 2.53 2.53 0 0 0-1.888 1.572 6 6 0 0 0-.653 2.853c0 2.062 1.075 4.004 2.56 4.454a1.92 1.92 0 0 0 1.637-.25c.342-.22.402-.45.372-.47"/><path fill="#27272E" d="M81.911 16.94A21.5 21.5 0 0 1 88.6 9.592a30.9 30.9 0 0 1 9.89-5.575 22.67 22.67 0 0 1 17.37 1 13.4 13.4 0 0 1 4.91 4.175c3.685 2.283 7.349 6.537 5.894 7.338l-2.009-2.152s-.883 1.831-4.608 4.645a2 2 0 0 1-.271.17 5 5 0 0 1-1.075.6l-.21.13c-4.388 1.462-7.24.871-11.608-.65-3.012-1.001-5.773-2.763-8.705-4.004a10.7 10.7 0 0 0-7.028 2.612 6.6 6.6 0 0 0-.844.841 6.12 6.12 0 0 0-.733 5.116c.402 1.741 1.205 3.353 1.707 5.065.914 3.143.773 6.487.623 9.75-.211 4.605-.472 9.4-2.741 13.405-1.004 1.882-3.364 3.754-5.242 1.752a4.33 4.33 0 0 1-1.064-3.134c.13-3.123-2.62-4.565-4.016-6.827a12.3 12.3 0 0 1-1.546-6.327A40.2 40.2 0 0 1 81.91 16.94"/><path fill="#1900AF" d="M82.252 88.607s12.36 11.432 22.32 11.372 12.35-5.266 12.35-5.266l5.613 7.118s.522 46.439 1.145 47.24c.622.801-5.854 4.855-5.854 4.855l-33.054-47.3z"/><path fill="#FAFAFC" d="m116.923 94.713.652-4.004c1.506 1.171 5.503 7.408 5.503 7.408 5.492 4.625 16.948 16.317 19.027 20.892 3.012 6.497 3.263 36.319 3.263 36.319l-1.466 147.497-98.94.15 1.596-66.821L49.7 104.323l24.29-12.182 6.506-7.138 40.916 66.481-.291-44.768a19.57 19.57 0 0 0-4.197-12.003"/><path fill="#27272E" d="M73.99 92.11q.195.202.34.44l.914 1.342c.803 1.212 1.938 2.923 3.364 5.056l11.577 17.678-.14-.11 8.674 2.163.312.08-.141.29a267 267 0 0 0-3.012 5.886c-.15.311-.311.621-.462.901v-.27l19.027 24.606c2.38 3.124 4.317 5.666 5.693 7.458l1.526 2.002.382.541c.09.12.13.19.12.2a.8.8 0 0 1-.16-.17l-.432-.501-1.597-2.002-5.823-7.368-19.148-24.516-.1-.13.08-.14c.14-.29.301-.601.462-.911l3.012-5.886.16.37-8.664-2.182h-.1l-.05-.08-11.427-17.78-3.243-5.135-.844-1.371a4 4 0 0 1-.3-.46"/><path fill="#27272E" d="M122.114 160.413q.074-.347.221-.671c.151-.43.432-1.001.713-1.872.592-1.631 1.356-4.004 2.179-7.007 1.636-6.006 3.504-14.495 5.141-24.026v.171l-.763-1.232-4.097-6.667-.321-.52.592.14 4.87 1.171-.291.31c-2.159-6.427-4.017-11.932-5.342-15.887l-1.486-4.584-.351-1.252a.22.22 0 0 1-.136-.084.22.22 0 0 1 .027-.296.22.22 0 0 1 .298 0 .221.221 0 0 1-.109.38c.12.32.261.71.452 1.201.391 1.112.944 2.633 1.616 4.535 1.376 3.944 3.294 9.43 5.523 15.837l.15.411-.432-.101-4.869-1.141.271-.38c1.325 2.132 2.701 4.364 4.117 6.657l.763 1.231v.18a238 238 0 0 1-5.302 24.026c-.873 3.003-1.697 5.396-2.349 7.007-.302.821-.613 1.422-.794 1.842a6 6 0 0 1-.291.621"/></g></g><defs><clipPath id="medic-happy-primary_svg__a"><path fill="#fff" d="M.627 0h200v240h-200z"/></clipPath></defs></svg>