<svg xmlns="http://www.w3.org/2000/svg" width="213" height="240" fill="none" viewBox="0 0 213 240"><ellipse cx="112.161" cy="136.287" fill="#EEEBFF" rx="99.547" ry="103.672"/><mask id="medic-attending-secondary_svg__a" width="200" height="208" x="12" y="32" maskUnits="userSpaceOnUse" style="mask-type:alpha"><ellipse cx="112.161" cy="136.287" fill="#fff" rx="99.547" ry="103.672"/></mask><g mask="url(#medic-attending-secondary_svg__a)"><path fill="#FAFAFC" d="m109.923 98.657-15.34 6.107a12.9 12.9 0 0 0-5.026 3.691c-3.35 4.004-9.282 12.65-12.834 26.828-4.817 19.194-9.953 33.633-9.953 33.633l-17.174-13.218-23.8 24.49s40.078 36.339 52.778 36.173l-8.377 58.996h24.605l20.106-176.691 1.147-8.454c-.41.156-4.993 6.805-6.132 8.445"/><path fill="#FFBF9D" d="M41.596 126.253s2.203 9.257 3.66 11.787a12.6 12.6 0 0 1 1.676 4.659l.913 14.832-11.644 11.978-22.586-17.571s-8.093-8.236-5.907-11.342c0 0 1.073-1.518 2.958 0 0 0-8.436-6.814-6.484-9.484s4.859 1.204 7.916 3.9 4.047 3.49 4.047 3.49l-8.772-8.838s-2.513-2.277-.284-4.135c2.228-1.859 5.445 2.792 6.986 3.76 1.542.968 10.18 9.545 10.18 9.545s-5.99-7.948-6.418-8.376-5.864-4.668-3.82-7.11 7.196 3.489 8.905 4.85c1.71 1.361 8.143 9.353 9.576 10.165s4.03 3.158 5.621 2.416c1.592-.741-1.675-6.979-1.156-9.187s1.399-6.491 4.633-5.339"/><path fill="#FF9A6C" d="M36.067 154.887a13 13 0 0 1-.838-2.19 9.6 9.6 0 0 1 .62-5.505c.779-2.085 1.843-3.804 2.43-5.235a4.8 4.8 0 0 0 .401-1.745c0-.436-.1-.663-.134-.654a6.8 6.8 0 0 1-.653 2.233 44 44 0 0 0-2.605 5.148 9.24 9.24 0 0 0-.47 5.854c.169.829.61 1.57 1.249 2.094m-15.733-4.825c.067 0-.277-.872-1.383-1.622s-2.815-1.361-4.054-2.757a14 14 0 0 1-1.45-2.321 8.8 8.8 0 0 0-1.332-1.928c-.955-.995-1.868-1.065-1.86-.995a7.2 7.2 0 0 1 1.55 1.3c.451.588.84 1.226 1.156 1.902.4.878.898 1.704 1.483 2.46a7.1 7.1 0 0 0 2.304 1.684c.762.393 1.441.707 1.977 1.03q.847.564 1.609 1.247"/><path fill="#FFBF9D" d="M104.813 33.118c.627-6.837 3.702-13.178 8.613-17.76 4.912-4.584 11.3-7.074 17.894-6.975h1.357c14.636 1.108 21.907 14.675 20.433 29.882l-2.832 50.777-.159 2.46-33.904 6.614.235-12.956s-14.058-2.486-14.024-17.153c.016-7.119 1.164-21.707 2.387-34.89"/><path fill="#FF9A6C" d="M116.332 85.108c6.535.111 12.964-1.733 18.522-5.314 0 0-4.482 10.47-18.514 8.96z"/><path fill="#27272E" d="M110.343 46.693a2.15 2.15 0 0 0 .537 1.476c.357.4.849.64 1.373.67.255.024.513-.005.757-.086.245-.08.472-.212.668-.384.195-.173.356-.385.472-.623a2.1 2.1 0 0 0 .205-.765 2.15 2.15 0 0 0-.537-1.476 2 2 0 0 0-1.373-.67 1.9 1.9 0 0 0-.759.083 1.9 1.9 0 0 0-.668.385 2 2 0 0 0-.473.624 2.1 2.1 0 0 0-.202.766m-2.564-6.36c.243.279 1.784-.873 3.945-.873 2.162 0 3.737 1.187 3.971.916.118-.122-.125-.62-.837-1.151a5.4 5.4 0 0 0-3.175-1.073 5.16 5.16 0 0 0-3.15 1.003c-.679.567-.914 1.056-.754 1.178"/><path fill="#FF646E" d="M130.716 46.693a2.15 2.15 0 0 0 .538 1.476c.356.4.848.64 1.372.67a1.9 1.9 0 0 0 1.427-.468c.196-.173.357-.385.473-.624s.185-.5.203-.766a2.15 2.15 0 0 0-.538-1.476 2 2 0 0 0-1.372-.67 1.9 1.9 0 0 0-.759.083 1.9 1.9 0 0 0-.669.385 2 2 0 0 0-.472.624 2.1 2.1 0 0 0-.203.766"/><path fill="#27272E" d="M129.007 41.074c.243.28 1.784-.872 3.946-.872s3.736 1.187 3.971.916c.117-.122-.126-.62-.838-1.152a5.4 5.4 0 0 0-3.175-1.073 5.22 5.22 0 0 0-3.15 1.004c-.645.567-.871 1.055-.754 1.177m-8.084 16.595c0-.123-1.332-.384-3.51-.707-.553-.07-1.072-.192-1.156-.585a3 3 0 0 1 .394-1.701l1.675-4.362c2.354-6.203 4.072-11.342 3.829-11.403-.243-.062-2.346 4.85-4.7 11.062q-.838 2.295-1.625 4.363a3.4 3.4 0 0 0-.319 2.25c.074.209.194.395.35.547.155.151.342.263.547.326q.455.139.929.157c2.212.148 3.569.183 3.586.053m6.341 1.657c-.351 0-.385 2.417-2.421 4.127s-4.532 1.396-4.557 1.745c0 .157.553.489 1.608.532a5.72 5.72 0 0 0 3.804-1.317 5.33 5.33 0 0 0 1.876-3.49c.109-.995-.15-1.605-.31-1.597m1.307-27.09c.201.62 2.371.358 4.901.716 2.53.357 4.583 1.108 4.926.567.151-.262-.201-.873-1.013-1.448a8.4 8.4 0 0 0-3.637-1.388 8.3 8.3 0 0 0-3.853.41c-.938.384-1.416.855-1.324 1.143m-19.955 1.588c.369.524 1.868 0 3.661 0s3.351.393 3.661-.14c.159-.261-.075-.776-.729-1.264a4.88 4.88 0 0 0-2.965-.873 4.97 4.97 0 0 0-2.941.986c-.62.515-.838 1.02-.687 1.291"/><path fill="#27272E" d="M106.262 26.408s3.845-9.126 8.126-11.202c5.186-2.513 7.314 3.403 12.24 2.05 4.926-1.352 9.877-3.769 14.836.253 5.429 4.363 2.815 7.399 3.058 13.916 1.005 26.392 5.529 33.921 7.021 21.524.159-1.361 3.803-2.39 4.423-8.132.838-7.45 1.206-16.498-.318-21.811-1.291-4.476-3.687-7.6-8.018-11.063-6.844-5.47-16.336-5.723-22.795-5.148s-19 8.106-18.573 19.613"/><path fill="#FFBF9D" d="M150.646 52.53a4.1 4.1 0 0 1 .381-1.551 4 4 0 0 1 .937-1.27 3.8 3.8 0 0 1 1.342-.78 3.7 3.7 0 0 1 1.529-.168c2.622.296 5.529 1.893 5.278 7.547-.453 10.015-10.053 7.485-10.053 7.197s.368-6.779.586-10.975"/><path fill="#FF9A6C" d="M152.347 59.832s.159.131.435.28c.39.195.837.227 1.249.087 1.039-.34 1.969-1.98 2.094-3.778a6 6 0 0 0-.352-2.521 2.1 2.1 0 0 0-.438-.856 1.96 1.96 0 0 0-.768-.55.8.8 0 0 0-.578.022.85.85 0 0 0-.427.406c-.143.28-.093.48-.143.498-.05.017-.201-.184-.109-.593a1.1 1.1 0 0 1 .411-.602c.273-.199.61-.277.938-.219.389.105.746.31 1.039.597s.512.646.637 1.044c.369.89.525 1.86.452 2.826-.151 2.016-1.232 3.857-2.639 4.206a1.7 1.7 0 0 1-.795.01 1.75 1.75 0 0 1-.721-.35c-.285-.262-.319-.49-.285-.507"/><path fill="#27272E" d="M150.73 33.109a9 9 0 0 1-4.105 1.893c-1.508.14-3.217-.794-3.451-2.347-.101-.707.075-1.51-.361-2.059-.435-.55-1.491-.462-2.295-.384a5.97 5.97 0 0 1-3.957-1.175 6.4 6.4 0 0 1-2.36-3.51c-.729 1.1-2.387 1.03-3.46.288a14 14 0 0 1-2.58-2.958c-.838-1.02-2.011-1.945-3.284-1.744a9.5 9.5 0 0 1-2.094.444c-1.265-.14-1.86-1.683-2.036-2.992s-.302-2.844-1.357-3.569c-1.056-.724-2.279-.314-3.444-.148-1.164.166-2.664-.148-2.948-1.335a2.5 2.5 0 0 1 .052-.956c.079-.312.218-.604.408-.858a6.26 6.26 0 0 1 3.304-2.507 6 6 0 0 1 4.085.16 8.8 8.8 0 0 1 2.76-4.221 8.27 8.27 0 0 1 4.545-1.916 8.17 8.17 0 0 1 4.802 1.034 8.64 8.64 0 0 1 3.442 3.637 8.46 8.46 0 0 1 3.621-1.971 8.24 8.24 0 0 1 4.086 0 8.46 8.46 0 0 1 3.622 1.969 8.95 8.95 0 0 1 2.335 3.492 6 6 0 0 1 3.575.184 6.24 6.24 0 0 1 2.885 2.207 6.64 6.64 0 0 1 1.238 3.498 6.7 6.7 0 0 1-.82 3.63c1.717 1.055 3.175 2.87 3.183 4.946.009 2.077-1.968 4.11-3.879 3.534a3.72 3.72 0 0 1 .204 2.655 3.56 3.56 0 0 1-1.611 2.069 3.32 3.32 0 0 1-2.537.34 3.46 3.46 0 0 1-2.062-1.575"/><path fill="#FF646E" d="M130.557 60.836c-.16 0-.201-1.056-1.006-1.946s-1.784-1.047-1.776-1.213c.009-.165.268-.148.712-.07a2.8 2.8 0 0 1 1.466.873 2.94 2.94 0 0 1 .729 1.605c.042.515-.058.76-.125.75"/><path fill="#FF9A6C" d="M131.446 58.079c-.135.087-.478-.27-.989-.515-.511-.244-.98-.323-.997-.48s.57-.375 1.24-.044c.67.332.888.943.746 1.039"/><path fill="#FF646E" d="m115.791 90.488 5.256 3.412 30.241-13.413 1.375 6.903-27.363 58.536-1.637 111.633-29.608-2.498 18.31-150.768z"/><path fill="#27272E" d="M144.17 93.169q-.492.397-1.056.672l-2.932 1.745a840 840 0 0 0-9.626 5.688l-4.708 2.853-.201.122-.109-.2c-1.466-2.749-2.329-5.235-3.083-6.98-.36-.873-.662-1.527-.838-1.99a4 4 0 0 1-.309-.715s.184.21.435.646.595 1.1.997 1.945c.838 1.676 1.751 4.171 3.217 6.841l-.31-.088c1.441-.872 3.033-1.884 4.708-2.888 3.745-2.25 7.18-4.205 9.702-5.566a95 95 0 0 1 3.007-1.562q.529-.316 1.106-.523M87.228 122.44a1 1 0 0 1 0 .262c0 .201-.042.454-.067.768-.075.706-.176 1.684-.31 2.922-.285 2.618-.687 6.247-1.181 10.767a2109 2109 0 0 0-3.527 35.544c-1.265 13.889-2.287 26.488-3.05 35.605-.377 4.519-.687 8.201-.904 10.784-.118 1.247-.201 2.224-.268 2.931 0 .314-.06.567-.084.768a1 1 0 0 1 0 .253 1.3 1.3 0 0 1 0-.262v-.759c0-.715.1-1.693.176-2.94.175-2.618.435-6.273.754-10.81.67-9.117 1.675-21.716 2.907-35.623a1218 1218 0 0 1 3.669-35.535c.528-4.537.989-8.21 1.332-10.749.168-1.23.302-2.207.402-2.914.042-.305.084-.558.11-.759q.008-.128.04-.253m73.48 71.402c-.1.123-2.01-1.98-5.026-3.489-3.016-1.51-5.764-1.867-5.739-2.025a4.7 4.7 0 0 1 1.801.14c1.44.277 2.836.761 4.147 1.44 1.312.673 2.53 1.53 3.619 2.547.474.386.879.856 1.198 1.387"/><path fill="#FAFAFC" d="M182.455 110.793s-6.099-4.956-12.256-10.121c-6.158-5.165-16.345-12.833-16.345-12.833l-1.843-6.448s-5.42 5.941-10.17 16.69c-6.828 15.434-14.703 37.961-16.295 47.689l-6.392 129.508 65.345-.043-14.426-88.512z"/><path fill="#27272E" d="M125.07 154.826q.14-.361.327-.698l1.005-1.946 3.779-7.093 12.616-23.329c.226-.41.444-.82.67-1.222v.192l-1.549-5.479-.051-.166.143-.096 3.77-2.783-.084.122c2.337-7.119 4.339-13.244 5.78-17.64l1.676-5.079.477-1.343q.07-.237.185-.454a2 2 0 0 1-.118.48l-.402 1.37c-.377 1.239-.913 2.966-1.575 5.121l-5.613 17.694v.069l-.058.053-3.77 2.783.092-.262 1.558 5.471v.096l-.05.096-.662 1.221-12.742 23.26-3.913 6.98-1.08 1.901a4 4 0 0 1-.411.681m-16.579 3.438a4 4 0 0 1-.142-.637c-.076-.471-.176-1.091-.31-1.85-.252-1.666-.612-3.987-1.048-6.823-.837-5.819-2.019-13.75-3.3-22.527-.134-.872-.26-1.806-.386-2.696v-.087l.042-.07 3.2-6.037.126.34-3.183-1.09-.218-.079.084-.218 4.683-12.895 1.365-3.656c.159-.383.277-.706.386-.96q.05-.173.15-.322-.021.18-.083.349c-.084.262-.193.585-.319.986-.31.916-.729 2.155-1.256 3.699-1.123 3.219-2.681 7.695-4.524 12.956l-.134-.297 3.191 1.074.269.087-.134.253c-1.014 1.928-2.086 3.952-3.184 6.046v-.157c.126.872.26 1.797.385 2.705 1.232 8.777 2.346 16.725 3.167 22.544.369 2.844.679 5.174.897 6.849q.133 1.152.226 1.858a3.5 3.5 0 0 1 .05.655m6.358-59.014a20.4 20.4 0 0 1 1.676 3.342h-.386c.402-.812.922-1.702 1.491-2.618.981-1.579 1.911-2.975 2.572-3.996q.481-.86 1.106-1.614a6.4 6.4 0 0 1-.838 1.806c-.586 1.073-1.474 2.496-2.446 4.075a27 27 0 0 0-1.525 2.565l-.217.401-.168-.41a21 21 0 0 1-1.265-3.55m-8.118 156.946a2 2 0 0 1 0-.418c0-.297.042-.707.084-1.222.084-1.108.218-2.687.377-4.711.352-4.109.838-10.016 1.483-17.301 1.298-14.623 3.091-34.785 5.077-57.059s3.878-42.428 5.21-57.05c.687-7.277 1.249-13.175 1.676-17.284.201-2.024.36-3.594.469-4.694.059-.523.101-.924.134-1.221q.015-.211.059-.419.02.21 0 .419c0 .305-.051.707-.084 1.23-.092 1.1-.218 2.678-.385 4.703-.352 4.109-.838 10.015-1.483 17.3-1.299 14.623-3.092 34.786-5.027 57.068-1.935 22.283-3.879 42.419-5.219 57.042-.687 7.285-1.24 13.183-1.676 17.283l-.469 4.703c-.05.515-.1.925-.134 1.221a3 3 0 0 1-.092.41"/><path fill="#27272E" d="m153.151 89.897-6.685 25.101-2.79 1.108 1.91 6.282-19.159 29.978 17.249-31.679-1.558-5.471 3.77-2.792zm-31.088 5.959 1.759 13.061 17.065-13.785-15.155 8.751zM77.787 223.044l-.72 5.95s3.443 4.607 6.802 3.638c3.36-.968 17.409-7.346 17.409-7.346l-.218-2.242s-8.193-3.49-8.663-3.377c-.469.114-14.61 3.377-14.61 3.377m27.051 13.235.419 5.462s25.435-3.037 36.392-7.373c0 0 21.38-8.253 27.454-16.044-8.696 3.804-18.867 7.04-29.749 10.007z" opacity=".2"/><path fill="#FAFAFC" d="m50.443 184.027-2.924-4.083 2.547-5.941 5.604-4.363 6.2-1.335 3.141 4.38zm-.788-12.205 9.34-6.98zm7.498 9.85 9.333-6.98zm7.49 9.858 9.332-6.979zM33.26 148.57l9.342-6.979z"/><path fill="#555567" d="m134.71 202.158-35.378-48.685a2.9 2.9 0 0 0-1.457-1.079 2.8 2.8 0 0 0-1.788.016l-54.17 19.272a2.9 2.9 0 0 0-1.167.781 3.05 3.05 0 0 0-.686 1.257c-.128.47-.144.966-.047 1.444.098.479.305.925.604 1.302l44.054 55.212c.38.477.894.821 1.47.982a2.78 2.78 0 0 0 1.745-.079l50.637-19.208a2.9 2.9 0 0 0 1.139-.787c.314-.353.543-.779.668-1.242a3.14 3.14 0 0 0-.531-2.712z"/><path fill="#27272E" d="M62.893 170.056c.01.31.108.61.282.862.173.253.414.446.693.556s.582.131.872.062.555-.226.76-.451a1.6 1.6 0 0 0 .392-.814c.05-.306.013-.62-.107-.904a1.56 1.56 0 0 0-.57-.691 1.465 1.465 0 0 0-1.908.244 1.6 1.6 0 0 0-.414 1.136m10.942-3.858c.012.308.112.605.286.855.175.249.416.439.694.546s.58.125.868.054.55-.231.751-.457a1.6 1.6 0 0 0 .382-.814 1.6 1.6 0 0 0-.117-.898 1.54 1.54 0 0 0-.574-.679 1.454 1.454 0 0 0-1.89.265 1.62 1.62 0 0 0-.4 1.128"/><path fill="#FFBF9D" d="m98.245 206.153-2.564-.602s-1.047-4.415-2.195-5.305-12.566-5.828-15.08-7.136c-2.513-1.309-12.331-5.549-13.462-3.063-1.282 2.81 2.723 4.93 4.892 5.907s8.378 3.21 7.155 4.772-15.356 1.475-15.356 1.475l-1.609-1.963s-2.513 2.617-2.086 5.173a11.6 11.6 0 0 0 1.491 4.162l1.014-.044a3.02 3.02 0 0 0 0 3.045 28 28 0 0 0 2.815 3.411s1.717 3.447 6.568 4.633c.57.14 23.105 1.353 23.105 1.353l8.185 1.91z"/><path fill="#FAFAFC" d="M157.482 122.597c-.26.576-6.953 65.348-6.953 65.348l-52.494 16.576 5.026 32.107s70.908-13.218 78.23-27.046c6.224-11.779 7.716-61.875 8.026-76.611a40.8 40.8 0 0 0-1.173-10.662c-1.039-4.153-2.824-9.161-5.672-11.49-5.336-4.38-24.99 11.778-24.99 11.778"/><path fill="#27272E" d="M156.008 136.12s0 .323-.067.951c-.067.629-.151 1.571-.268 2.766-.243 2.443-.595 5.994-1.056 10.513-.938 9.074-2.278 22.03-3.887 37.612v.14l-.126.043-52.485 16.577.168-.279c0 .209.067.436.109.663 1.675 11.01 3.351 21.646 4.892 31.452l-.268-.2c21.346-4.223 39.592-8.83 52.276-12.974 1.6-.48 3.083-1.056 4.499-1.527l2.052-.715 1.894-.742c1.214-.488 2.354-.872 3.351-1.343l2.772-1.265q1.119-.459 2.17-1.065l1.55-.872c.411-.218.729-.384.955-.515q.164-.088.335-.157l-.31.192-.938.558-1.533.873a23 23 0 0 1-2.161 1.099l-2.765 1.3c-1.03.445-2.17.872-3.351 1.378l-1.893.759-2.045.733c-1.415.489-2.898 1.065-4.49 1.562-12.692 4.223-30.921 8.899-52.284 13.157l-.235.043v-.235c-1.533-9.807-3.192-20.442-4.917-31.452 0-.227-.067-.454-.101-.664v-.209l.201-.07 52.502-16.576-.142.183c1.675-15.574 3.074-28.521 4.055-37.595.502-4.519.896-8.061 1.172-10.469q.203-1.791.319-2.757c.075-.646.05-.873.05-.873m23.105-26.741c0 .105-1.483 0-3.828.297a22 22 0 0 0-4.038.96 25.3 25.3 0 0 0-4.633 2.146 26 26 0 0 0-4.088 3.115 25 25 0 0 0-2.807 3.158c-1.432 1.963-2.061 3.368-2.144 3.315q.144-.524.41-.994.252-.58.578-1.117c.26-.419.52-.872.888-1.413a21.7 21.7 0 0 1 2.782-3.281 24.2 24.2 0 0 1 4.188-3.219 24 24 0 0 1 4.734-2.146 20.4 20.4 0 0 1 4.13-.873 14 14 0 0 1 1.617-.096 9 9 0 0 1 1.223 0q.503.013.988.148"/><path fill="#FAFAFC" d="M151.786 154.887h-23.801v6.151h23.801z"/><path fill="#27272E" d="M151.785 161.038a3 3 0 0 1 0-.436v-1.222c0-1.09-.042-2.617-.067-4.493l.126.14c-5.337.052-14.016.087-23.792.087.092-.096-.227.227.209-.227v6.107l-.218-.218 16.923.096 5.026.061h1.86a2.4 2.4 0 0 1-.435 0h-1.324l-4.968.061-17.073.105h-.21v-6.369c.436-.454.126-.122.226-.227 9.777 0 18.431 0 23.793.096h.134v.131c0 1.928-.059 3.49-.076 4.58v1.187a2 2 0 0 1-.134.541"/></g><mask id="medic-attending-secondary_svg__b" width="170" height="170" x="0" y="0" maskUnits="userSpaceOnUse" style="mask-type:alpha"><path fill="#fff" d="M.311 0h168.895v169.485H.311z"/></mask><g mask="url(#medic-attending-secondary_svg__b)"><path fill="#FAFAFC" d="m109.923 98.657-15.34 6.107a12.9 12.9 0 0 0-5.026 3.691c-3.35 4.004-9.282 12.65-12.834 26.828-4.817 19.194-9.953 33.633-9.953 33.633l-17.174-13.217-23.8 24.49s40.078 36.338 52.778 36.172l-8.377 58.996h24.605l20.106-176.691 1.147-8.454c-.41.157-4.993 6.805-6.132 8.445"/><path fill="#FFBF9D" d="M41.596 126.253s2.203 9.257 3.66 11.787a12.6 12.6 0 0 1 1.676 4.659l.913 14.832-11.644 11.979-22.586-17.572s-8.093-8.236-5.906-11.342c0 0 1.072-1.518 2.957 0 0 0-8.436-6.814-6.484-9.483s4.859 1.204 7.916 3.899 4.047 3.49 4.047 3.49l-8.772-8.838s-2.513-2.277-.284-4.135c2.228-1.859 5.445 2.792 6.986 3.76 1.542.969 10.18 9.545 10.18 9.545s-5.99-7.948-6.418-8.376-5.864-4.667-3.82-7.11 7.196 3.489 8.905 4.851c1.71 1.361 8.143 9.352 9.576 10.164s4.03 3.158 5.621 2.416c1.592-.741-1.675-6.979-1.156-9.187s1.4-6.491 4.633-5.339"/><path fill="#FF9A6C" d="M36.067 154.887a13 13 0 0 1-.838-2.19 9.6 9.6 0 0 1 .62-5.505c.779-2.085 1.843-3.804 2.43-5.235a4.8 4.8 0 0 0 .401-1.745c0-.436-.1-.663-.133-.654a6.8 6.8 0 0 1-.654 2.234 43.5 43.5 0 0 0-2.605 5.147 9.24 9.24 0 0 0-.47 5.854c.169.829.61 1.57 1.249 2.094m-15.733-4.824c.067 0-.277-.873-1.383-1.623-1.105-.751-2.814-1.361-4.054-2.757a14 14 0 0 1-1.45-2.321 9 9 0 0 0-1.332-1.928c-.955-.995-1.868-1.065-1.86-.995a7.2 7.2 0 0 1 1.55 1.3c.452.588.84 1.226 1.156 1.902.4.878.898 1.704 1.483 2.461a7.1 7.1 0 0 0 2.304 1.683c.762.393 1.441.707 1.977 1.03q.847.563 1.609 1.248"/><path fill="#27272E" d="M137.938 5.487a6.44 6.44 0 0 0-2.726-2.835 6.1 6.1 0 0 0-3.8-.655A8.45 8.45 0 0 0 126.08.085c-1.933 0-3.81.673-5.333 1.912a7.5 7.5 0 0 0-3.768-1.188 7.45 7.45 0 0 0-3.84.907 7.8 7.8 0 0 0-2.907 2.766 8.25 8.25 0 0 0-1.213 3.901 6.2 6.2 0 0 0-3.918.576 6.56 6.56 0 0 0-2.853 2.854 6.94 6.94 0 0 0-.711 4.053 6.8 6.8 0 0 0 1.701 3.72 6.23 6.23 0 0 0-3.502 2.86 6.67 6.67 0 0 0-.75 4.568 6.47 6.47 0 0 0 2.39 3.91 6 6 0 0 0 4.292 1.225l30.997-19.194a6.7 6.7 0 0 0 1.772-3.524 6.83 6.83 0 0 0-.499-3.944"/><path fill="#FFBF9D" d="M104.813 33.118c.627-6.837 3.702-13.178 8.613-17.76 4.912-4.584 11.3-7.074 17.894-6.975h1.357c14.636 1.108 21.907 14.675 20.433 29.882l-2.832 50.778-.159 2.46-33.904 6.613.235-12.956s-14.058-2.486-14.024-17.153c.016-7.119 1.164-21.706 2.387-34.89"/><path fill="#FF9A6C" d="M116.332 85.108c6.535.112 12.964-1.733 18.522-5.314 0 0-4.482 10.47-18.514 8.96z"/><path fill="#27272E" d="M110.343 46.693a2.15 2.15 0 0 0 .537 1.476c.357.4.849.641 1.373.67a1.9 1.9 0 0 0 .758-.086c.244-.08.471-.211.667-.384.195-.173.356-.385.472-.623a2.1 2.1 0 0 0 .205-.765 2.15 2.15 0 0 0-.537-1.476 2 2 0 0 0-1.373-.67 1.9 1.9 0 0 0-.759.084c-.245.08-.472.21-.668.384a2 2 0 0 0-.473.624c-.116.239-.185.5-.202.766m-2.564-6.36c.243.28 1.784-.872 3.946-.872s3.736 1.186 3.97.916c.118-.123-.125-.62-.837-1.152a5.4 5.4 0 0 0-3.175-1.073 5.16 5.16 0 0 0-3.15 1.003c-.679.567-.913 1.056-.754 1.178m22.937 6.36a2.15 2.15 0 0 0 .538 1.476c.356.4.848.641 1.372.67.256.026.514-.003.759-.083s.472-.211.668-.385c.196-.173.357-.385.473-.624.116-.238.185-.499.203-.766a2.15 2.15 0 0 0-.538-1.476 1.98 1.98 0 0 0-1.372-.67 1.9 1.9 0 0 0-.759.084 1.9 1.9 0 0 0-.668.384 2 2 0 0 0-.473.624c-.116.239-.185.5-.203.766m-1.709-5.618c.243.279 1.785-.873 3.946-.873s3.736 1.187 3.971.916c.117-.122-.126-.62-.838-1.151a5.4 5.4 0 0 0-3.175-1.074 5.22 5.22 0 0 0-3.15 1.004c-.645.567-.871 1.055-.754 1.178m-8.084 16.594c0-.122-1.332-.384-3.51-.707-.553-.07-1.072-.192-1.156-.585a3 3 0 0 1 .394-1.7l1.675-4.363c2.354-6.203 4.072-11.342 3.829-11.403s-2.346 4.85-4.7 11.063q-.838 2.294-1.625 4.362a3.4 3.4 0 0 0-.319 2.25c.075.209.194.396.35.547s.343.263.547.326c.302.092.615.145.93.157 2.211.149 3.568.184 3.585.053m6.341 1.657c-.351 0-.385 2.417-2.421 4.127s-4.532 1.396-4.557 1.745c0 .157.553.489 1.608.532a5.72 5.72 0 0 0 3.804-1.317 5.33 5.33 0 0 0 1.876-3.49c.109-.995-.15-1.605-.31-1.597m1.307-27.09c.202.62 2.371.358 4.901.716s4.583 1.108 4.926.567c.151-.262-.201-.872-1.013-1.448a8.4 8.4 0 0 0-3.637-1.388 8.3 8.3 0 0 0-3.853.41c-.938.384-1.416.855-1.324 1.143m-19.955 1.589c.369.523 1.869 0 3.661 0s3.351.392 3.661-.14c.16-.262-.075-.777-.728-1.265a4.9 4.9 0 0 0-2.966-.873 4.97 4.97 0 0 0-2.941.986c-.62.515-.837 1.021-.687 1.291"/><path fill="#27272E" d="M106.262 26.409s3.845-9.126 8.126-11.203c5.186-2.513 7.314 3.403 12.24 2.05 4.926-1.352 9.877-3.769 14.836.253 5.429 4.363 2.815 7.399 3.058 13.916 1.006 26.392 5.529 33.922 7.021 21.524.159-1.361 3.803-2.39 4.423-8.132.838-7.45 1.206-16.498-.318-21.811-1.29-4.476-3.686-7.6-8.018-11.063-6.844-5.47-16.336-5.723-22.795-5.147s-19 8.105-18.573 19.612"/><path fill="#FFBF9D" d="M150.646 52.53a4.1 4.1 0 0 1 .381-1.551c.227-.485.546-.917.938-1.27a3.8 3.8 0 0 1 1.341-.78 3.7 3.7 0 0 1 1.529-.168c2.622.296 5.529 1.893 5.278 7.547-.452 10.016-10.053 7.485-10.053 7.197 0-.287.369-6.779.586-10.975"/><path fill="#FF9A6C" d="M152.347 59.832s.159.131.436.28c.389.195.837.227 1.248.087 1.039-.34 1.969-1.98 2.094-3.778a5.95 5.95 0 0 0-.352-2.521 2.1 2.1 0 0 0-.438-.856 1.96 1.96 0 0 0-.768-.549.8.8 0 0 0-.578.021.85.85 0 0 0-.427.407c-.143.279-.092.48-.143.497s-.201-.183-.109-.593a1.1 1.1 0 0 1 .411-.602c.273-.199.61-.277.938-.218.389.105.746.31 1.039.597.293.286.512.645.637 1.043.369.89.525 1.86.452 2.827-.151 2.015-1.231 3.856-2.639 4.205-.261.066-.533.07-.795.01a1.75 1.75 0 0 1-.721-.35c-.285-.262-.319-.49-.285-.507"/><path fill="#27272E" d="M150.73 33.109a9 9 0 0 1-4.105 1.893c-1.508.14-3.217-.794-3.451-2.347-.101-.706.075-1.51-.361-2.059-.435-.55-1.491-.462-2.295-.384a5.97 5.97 0 0 1-3.957-1.174 6.4 6.4 0 0 1-2.36-3.51c-.729 1.099-2.387 1.029-3.46.287a14 14 0 0 1-2.58-2.957c-.838-1.021-2.011-1.946-3.284-1.745a9.5 9.5 0 0 1-2.094.445c-1.265-.14-1.86-1.684-2.036-2.993s-.302-2.844-1.357-3.568c-1.056-.724-2.279-.315-3.443-.149s-2.665-.148-2.949-1.335a2.5 2.5 0 0 1 .052-.956c.079-.312.218-.604.408-.858a6.27 6.27 0 0 1 3.304-2.507 6 6 0 0 1 4.085.16 8.83 8.83 0 0 1 2.76-4.221 8.27 8.27 0 0 1 4.545-1.916 8.17 8.17 0 0 1 4.802 1.035 8.64 8.64 0 0 1 3.442 3.636 8.46 8.46 0 0 1 3.621-1.97 8.24 8.24 0 0 1 4.086-.002 8.46 8.46 0 0 1 3.622 1.97 8.95 8.95 0 0 1 2.335 3.492 6 6 0 0 1 3.575.184 6.24 6.24 0 0 1 2.885 2.207 6.64 6.64 0 0 1 1.238 3.499 6.7 6.7 0 0 1-.82 3.629c1.717 1.055 3.175 2.87 3.183 4.946.009 2.077-1.968 4.11-3.878 3.534.392.825.465 1.776.203 2.655a3.56 3.56 0 0 1-1.611 2.069 3.32 3.32 0 0 1-2.537.34 3.46 3.46 0 0 1-2.062-1.574"/><path fill="#FF9A6C" d="M130.557 60.836c-.159 0-.201-1.056-1.006-1.946s-1.784-1.047-1.776-1.212.268-.149.712-.07a2.8 2.8 0 0 1 1.466.872 2.94 2.94 0 0 1 .729 1.606c.042.514-.058.759-.125.75m.889-2.757c-.134.087-.478-.27-.989-.515-.511-.244-.98-.323-.997-.48s.57-.375 1.24-.043c.67.331.888.942.746 1.038"/><path fill="#FF646E" d="m116.063 90.203 5.219 3.42 30.025-13.445 1.366 6.919-27.169 58.673-1.625 111.893-29.397-2.504 18.18-151.119z"/><path fill="#27272E" d="M144.17 93.17a5.5 5.5 0 0 1-1.056.67l-2.932 1.746a840 840 0 0 0-9.626 5.688l-4.708 2.853-.201.122-.109-.2c-1.466-2.749-2.329-5.235-3.083-6.98-.36-.872-.661-1.527-.837-1.99a4 4 0 0 1-.31-.715s.184.21.435.646c.252.436.595 1.1.997 1.946.838 1.675 1.751 4.17 3.217 6.84l-.31-.088c1.441-.872 3.033-1.884 4.708-2.887 3.745-2.251 7.18-4.206 9.702-5.567a95 95 0 0 1 3.007-1.561q.53-.315 1.106-.524M87.228 122.44a1 1 0 0 1 0 .262c0 .201-.042.454-.067.768-.075.707-.176 1.684-.31 2.923-.285 2.617-.687 6.246-1.181 10.766a2109 2109 0 0 0-3.527 35.544c-1.265 13.889-2.287 26.488-3.05 35.605-.377 4.519-.687 8.201-.904 10.784-.118 1.247-.201 2.224-.268 2.931 0 .314-.059.567-.084.768a1 1 0 0 1 0 .253 1.3 1.3 0 0 1 0-.262v-.759c0-.715.1-1.692.176-2.94.176-2.617.435-6.273.754-10.81.67-9.117 1.675-21.715 2.907-35.623a1218 1218 0 0 1 3.67-35.535c.527-4.537.988-8.21 1.331-10.749.168-1.23.302-2.207.402-2.914.042-.305.084-.558.11-.759q.008-.128.041-.253"/><path fill="#FAFAFC" d="M182.455 110.793s-6.099-4.956-12.256-10.12c-6.158-5.166-16.345-12.834-16.345-12.834l-1.843-6.448s-5.42 5.942-10.17 16.69c-6.828 15.434-14.703 37.961-16.294 47.689l-6.393 129.508 65.345-.043-14.426-88.512z"/><path fill="#27272E" d="M125.07 154.826q.14-.361.327-.698l1.005-1.945 3.779-7.094 12.616-23.329c.226-.41.444-.82.67-1.222v.192l-1.549-5.479-.051-.166.143-.095 3.77-2.784-.084.123c2.337-7.12 4.339-13.244 5.78-17.642l1.676-5.077.477-1.344q.07-.238.185-.454a2 2 0 0 1-.118.48l-.402 1.37c-.377 1.239-.913 2.966-1.575 5.121l-5.613 17.694v.07l-.058.052-3.77 2.783.092-.262 1.558 5.471v.096l-.05.096-.662 1.221-12.742 23.26-3.912 6.98-1.081 1.902q-.173.361-.411.68m-16.579 3.438a4 4 0 0 1-.142-.637c-.076-.471-.176-1.091-.31-1.85-.252-1.666-.612-3.987-1.047-6.822-.838-5.82-2.019-13.75-3.301-22.527-.134-.873-.26-1.806-.386-2.696v-.088l.042-.069 3.201-6.038.125.34-3.183-1.09-.218-.079.084-.218 4.683-12.895 1.365-3.655c.159-.384.277-.707.386-.96a1.2 1.2 0 0 1 .15-.323q-.021.18-.083.35c-.084.26-.193.584-.319.985-.31.916-.729 2.155-1.256 3.699-1.123 3.22-2.681 7.695-4.524 12.956l-.134-.296 3.192 1.073.268.087-.134.253c-1.014 1.928-2.086 3.952-3.184 6.046v-.157c.126.873.26 1.797.386 2.705 1.231 8.777 2.345 16.725 3.166 22.544.369 2.844.679 5.174.897 6.849q.133 1.152.226 1.858a3.5 3.5 0 0 1 .05.655m6.358-59.014a20.4 20.4 0 0 1 1.676 3.342h-.386c.402-.812.922-1.701 1.492-2.617.98-1.58 1.91-2.976 2.571-3.996q.482-.861 1.106-1.614a6.4 6.4 0 0 1-.837 1.806c-.587 1.073-1.475 2.495-2.447 4.074a27 27 0 0 0-1.524 2.565l-.218.401-.168-.41a21 21 0 0 1-1.265-3.55m-8.118 156.946a2 2 0 0 1 0-.418c0-.297.042-.707.084-1.222.084-1.108.218-2.687.377-4.711.352-4.109.838-10.016 1.483-17.301 1.298-14.622 3.091-34.785 5.077-57.059s3.878-42.428 5.21-57.05c.687-7.277 1.249-13.174 1.676-17.284.201-2.024.36-3.594.469-4.694.059-.523.101-.924.134-1.221q.016-.21.059-.419.02.21 0 .419c0 .305-.051.707-.084 1.23-.092 1.1-.218 2.679-.385 4.703-.352 4.109-.838 10.016-1.483 17.301-1.299 14.622-3.092 34.785-5.027 57.067s-3.879 42.419-5.219 57.042c-.687 7.285-1.24 13.183-1.675 17.283l-.47 4.703c-.05.515-.1.925-.134 1.221a3 3 0 0 1-.092.41"/><path fill="#27272E" d="m153.151 89.898-6.685 25.1-2.79 1.108 1.91 6.282-19.159 29.978 17.249-31.679-1.558-5.471 3.77-2.792zm-31.088 5.958 1.759 13.061 17.065-13.785-15.155 8.751z" opacity=".2"/><path fill="#FAFAFC" d="m50.443 184.027-2.924-4.083 2.547-5.941 5.604-4.363 6.2-1.334 3.141 4.379zm-.788-12.205 9.341-6.98zM33.26 148.57l9.342-6.979zm124.222-25.973c-.26.576-6.953 65.348-6.953 65.348l-52.494 16.577 5.026 32.106s70.908-13.218 78.23-27.046c6.225-11.778 7.716-61.875 8.026-76.611a40.8 40.8 0 0 0-1.173-10.661c-1.039-4.153-2.823-9.161-5.672-11.491-5.336-4.38-24.99 11.778-24.99 11.778"/><path fill="#27272E" d="M156.008 136.12s0 .323-.067.951c-.067.629-.151 1.571-.268 2.766-.243 2.443-.595 5.994-1.056 10.513-.938 9.074-2.278 22.03-3.887 37.612v.14l-.125.043-52.486 16.577.168-.279c0 .209.067.436.109.663 1.675 11.011 3.351 21.646 4.892 31.452l-.268-.2c21.346-4.223 39.592-8.83 52.276-12.974 1.6-.48 3.083-1.056 4.499-1.527l2.052-.715 1.894-.742c1.214-.488 2.354-.872 3.351-1.343l2.773-1.265a18 18 0 0 0 2.169-1.065l1.55-.872c.411-.218.729-.384.955-.515q.164-.088.335-.157l-.31.192-.938.558-1.533.873q-1.053.609-2.161 1.099l-2.765 1.3c-1.03.445-2.17.872-3.351 1.379l-1.893.759-2.044.732c-1.416.489-2.899 1.065-4.491 1.562-12.692 4.223-30.921 8.899-52.284 13.157l-.235.043v-.235c-1.533-9.807-3.192-20.442-4.917-31.452 0-.227-.067-.454-.1-.663v-.21l.2-.07 52.502-16.576-.142.183c1.675-15.574 3.074-28.521 4.055-37.595.502-4.519.896-8.061 1.173-10.469.134-1.195.242-2.111.318-2.757.075-.646.05-.873.05-.873m23.105-26.74c0 .104-1.482 0-3.828.296a22 22 0 0 0-4.038.96 25.3 25.3 0 0 0-4.633 2.146 26 26 0 0 0-4.088 3.115 25 25 0 0 0-2.807 3.158c-1.432 1.963-2.061 3.368-2.144 3.316a4.3 4.3 0 0 1 .41-.995q.252-.58.578-1.117c.26-.419.52-.872.888-1.413a21.7 21.7 0 0 1 2.782-3.281 24.2 24.2 0 0 1 4.188-3.219 24 24 0 0 1 4.734-2.146 20.4 20.4 0 0 1 4.13-.873 14 14 0 0 1 1.617-.096 9 9 0 0 1 1.223 0c.334.008.666.058.988.149"/><path fill="#FAFAFC" d="M151.786 154.887h-23.8v6.151h23.8z"/><path fill="#27272E" d="M151.785 161.038a3 3 0 0 1 0-.436v-1.222c0-1.09-.042-2.617-.067-4.493l.126.14c-5.337.052-14.016.087-23.792.087.092-.096-.227.227.209-.227v6.107l-.218-.218 16.923.096 5.027.061h1.859a2.4 2.4 0 0 1-.435 0h-1.324l-4.968.061-17.073.105h-.21v-6.369c.436-.454.126-.122.226-.227 9.777 0 18.431 0 23.793.096h.134v.131c0 1.928-.059 3.49-.076 4.581v1.186a2 2 0 0 1-.134.541"/></g></svg>