<svg xmlns="http://www.w3.org/2000/svg" width="201" height="240" fill="none" viewBox="0 0 201 240"><g clip-path="url(#medic-accompanying-primary_svg__a)"><circle cx="100.019" cy="140" r="100" fill="#E6E6F0"/><mask id="medic-accompanying-primary_svg__b" width="201" height="200" x="0" y="40" maskUnits="userSpaceOnUse" style="mask-type:alpha"><circle cx="100.019" cy="140" r="100" fill="#fff"/></mask><g mask="url(#medic-accompanying-primary_svg__b)"><path fill="#FAFAFC" d="M150.13 180.422s22.65-5.483 23.401-6.431l-18.633-48.559a35.55 35.55 0 0 0-8.458-13.212 35.04 35.04 0 0 0-13.271-8.217 60.9 60.9 0 0 0-22.001-3.438l-31.452-1.684a61.7 61.7 0 0 0-24.819 6.947c-10.574 5.578-18.833 14.79-23.293 25.98L17.5 167.452l35.61 7.526 1.354 38.299-5.365 52.844h98.205l-.681-83.757z"/><path fill="#fff" d="M169.653 167.647c0 .11-5.845 2.052-13.16 4.332s-13.214 4.049-13.245 3.916 5.836-2.052 13.16-4.339 13.214-4.018 13.245-3.909" opacity=".3"/><path fill="#27272E" d="M66.873 133.515a5.3 5.3 0 0 1-.604-.838 41 41 0 0 0-1.618-2.272 38 38 0 0 0-2.67-3.132 41 41 0 0 0-3.685-3.447 43 43 0 0 0-4.11-2.929 40 40 0 0 0-3.616-1.966 39 39 0 0 0-2.54-1.127 4.4 4.4 0 0 1-.936-.423q.508.094.991.274 1.326.438 2.601 1.01c1.266.565 2.5 1.203 3.693 1.911a40 40 0 0 1 4.165 2.929 38 38 0 0 1 3.708 3.509 35 35 0 0 1 2.624 3.243q.84 1.13 1.548 2.349.273.43.449.909m-4.637 11.591c.108 0-.991 11.702-2.454 26.113s-2.74 26.089-2.85 26.073c-.108-.016.984-11.701 2.455-26.112 1.47-14.411 2.764-26.089 2.849-26.074m77.327-21.632a23 23 0 0 1-.503-2.35 44 44 0 0 0-1.548-5.607 44 44 0 0 0-2.322-5.342 22 22 0 0 1-1.1-2.154s.171.165.411.509c.24.345.565.862.944 1.504a33.5 33.5 0 0 1 2.446 5.342 32.7 32.7 0 0 1 1.463 5.694c.116.744.186 1.347.217 1.77q.04.318-.008.634m1.982 40.845a7 7 0 0 1-.186-1.152c-.1-.736-.216-1.817-.348-3.132-.256-2.663-.526-6.36-.666-10.441-.139-4.08-.131-7.793-.062-10.471.039-1.34.078-2.42.124-3.133q0-.585.116-1.159.068.577.047 1.159v3.148c0 2.671.038 6.368.178 10.449s.364 7.761.549 10.432c.085 1.277.155 2.35.217 3.133q.072.582.031 1.167"/><path fill="#1900AF" d="M93.983 157.481c-8.257.486-16.54.329-24.772-.47v3.274h24.772z"/><path fill="#27272E" d="M118.662 103.33q.079.24.1.493l.217 1.441c.155 1.269.372 3.133.55 5.483.371 4.699.696 11.396.774 19.298v.298l-.271-.125c-4.939-2.436-10.474-5.083-16.257-7.997l-28.154-14.255-8.516-4.362-2.322-1.198-.588-.329a1 1 0 0 1-.202-.118 1 1 0 0 1 .217.086l.612.282 2.322 1.136 8.562 4.245 28.247 14.145c5.76 2.913 11.287 5.569 16.257 8.02l-.263.164c-.085-7.886-.356-14.575-.666-19.282-.139-2.35-.325-4.206-.441-5.483q-.105-.918-.163-1.449a5 5 0 0 1-.015-.493" opacity=".3"/><path fill="#fff" d="M59.48 170.984a1.4 1.4 0 0 1-.41-.071l-1.153-.274-4.235-1.088c-3.576-.932-8.515-2.193-13.98-3.533a1059 1059 0 0 0-14.035-3.328l-4.258-.987-1.153-.282a2 2 0 0 1-.395-.126q.205-.027.41 0l1.17.212a237 237 0 0 1 4.288.861c3.615.784 8.593 1.872 14.066 3.212a432 432 0 0 1 13.934 3.649c1.78.502 3.22.917 4.203 1.214l1.138.353q.215.07.41.188" opacity=".3"/><path fill="#27272E" d="M114.303 97.4c0-.117 2.129 1.011 4.181 4.089s3.917 7.832 4.977 13.315c.488 2.585.79 5.203.906 7.832 0 1.206.054 2.35 0 3.423s-.07 2.067-.163 2.976-.185 1.715-.263 2.444c-.077.728-.217 1.323-.302 1.824a5.6 5.6 0 0 1-.371 1.567 6 6 0 0 1 .062-1.567l.162-1.832c.047-.729.093-1.567.139-2.436s0-1.888.07-2.945-.054-2.193-.093-3.376a62 62 0 0 0-.952-7.675 42.1 42.1 0 0 0-4.645-13.135 18 18 0 0 0-2.577-3.32 15 15 0 0 1-1.131-1.183m-35.199.227a17 17 0 0 1-1.633 2.35 33.7 33.7 0 0 0-3.646 6.892 47.4 47.4 0 0 0-2.702 11.255c-.565 4.339-.774 9.195-1.123 14.278-.348 5.083-.27 9.923-.278 14.333-.008 4.409 0 8.388 0 11.748s-.085 6.054-.178 7.926c.009.973-.087 1.945-.287 2.898a13.8 13.8 0 0 1-.186-2.906c-.054-1.903-.116-4.597-.2-7.91-.086-3.313-.194-7.316-.256-11.749s-.078-9.289.186-14.411c.263-5.122.588-9.954 1.223-14.364a45.3 45.3 0 0 1 3.019-11.435 28.8 28.8 0 0 1 4.064-6.837 10.6 10.6 0 0 1 1.997-2.068"/><path fill="#27272E" d="M131.156 163.097a15 15 0 0 1-.155-2.585c-.046-1.668-.085-4.08-.116-7.049 0-1.496 0-3.132-.047-4.871-.046-1.739 0-3.634-.1-5.561a9.28 9.28 0 0 0-1.974-5.483 7.5 7.5 0 0 0-2.438-1.883 7.4 7.4 0 0 0-2.981-.732 8.45 8.45 0 0 0-5.705 2.24 9.97 9.97 0 0 0-2.88 5.083c-.48 1.864-.681 3.736-.968 5.482l-.774 4.809a442 442 0 0 1-1.146 6.955 16 16 0 0 1-.526 2.538 15 15 0 0 1 .217-2.585c.193-1.653.495-4.041.89-6.994.201-1.48.426-3.094.658-4.825s.434-3.595.914-5.553a10.6 10.6 0 0 1 3.096-5.482 9.23 9.23 0 0 1 6.185-2.475 8.1 8.1 0 0 1 3.325.802 8.2 8.2 0 0 1 2.713 2.104 9.93 9.93 0 0 1 2.121 5.936c.117 2.005 0 3.862 0 5.616s-.038 3.383-.061 4.872c0 2.976-.086 5.388-.14 7.048q.051 1.301-.108 2.593"/><path fill="#27272E" d="M123.686 127.288c-.256 2.742-1.123 5.82-3.004 7.832a10.8 10.8 0 0 1 4.993.094c-1.177-2.349-1.362-5.247-1.331-7.902m6.836 17.794c-.148 0-.233-1.315-1.224-3.132a9.7 9.7 0 0 0-2.252-2.726 8.3 8.3 0 0 0-3.809-1.833 8.04 8.04 0 0 0-4.196.423 9.2 9.2 0 0 0-2.996 1.833c-1.501 1.378-1.997 2.632-2.128 2.561-.132-.07.232-1.386 1.734-2.976a9 9 0 0 1 3.096-2.115 8.4 8.4 0 0 1 4.598-.532 8.64 8.64 0 0 1 4.15 2.067 9.4 9.4 0 0 1 2.276 3.031c.952 2.005.82 3.407.751 3.399"/><path fill="#FFBE9D" d="M151.895 233.829c4.644 0 8.732-3.36 10.899-7.472 2.168-4.112 2.725-8.897 2.934-13.557a111.2 111.2 0 0 0-4.428-36.576l-20.189 3.563 5.504 55.052z"/><path fill="#27272E" d="m70.178 240.682 65.785-2.42 15.955-77.992-69.292 3.892z"/><path fill="#9292A9" d="m104.038 162.823.991-1.99 5.249-.383s1.331-3.486 8.84-3.846c6.72-.313 6.967 3.133 6.967 3.133h3.623v1.668z"/><path fill="#FFBE9D" d="m140.716 215.549 4.985-1.465a6 6 0 0 1 2.888-.133 6.06 6.06 0 0 1 3.096 1.653c1.649 1.644 4.312 4.362 4.691 5.177.558 1.182.558 3.234 0 3.986-.557.752 1.224 4.645.999 5.937a8.15 8.15 0 0 1-.999 3.133c-.448.54.001 2.389-1.114 3.783a18.5 18.5 0 0 1-2.114 2.255s-13.702.65-15.033 0-3.677-3.132-3.677-3.132-1.223-2.264.666-2.483l-7.796-3.016a1.86 1.86 0 0 1-1.034-.943 1.9 1.9 0 0 1-.096-1.406 1.32 1.32 0 0 1 .689-.784s-3.499-1.12-4.312-1.48c-1.618-.72-2.229-4.527 1.123-4.041 1.765.258 4.157.783 4.157.783s-1.278-2.099.511-3.352c1.083-.783 5.96.164 5.96.164l6.41-4.628z"/><path fill="#EB996E" d="M142.451 236.351a11.4 11.4 0 0 1-4.049-.611 10 10 0 0 1-3.731-1.707c.054-.094 1.687.712 3.87 1.315 2.184.603 3.925.909 3.91 1.003m-2.981-4.927a52 52 0 0 1-6.356-1.433 50.5 50.5 0 0 1-6.255-1.825 105 105 0 0 1 12.611 3.258m1.641-4.902a119 119 0 0 1-13.594-3.219c4.589.805 9.128 1.88 13.594 3.219m5.055-6.313a9 9 0 0 1-1.757.572l-1.935.501-1.146.29c-.43.109-.874.151-1.316.125a7.3 7.3 0 0 1-1.285-.211l-1.154-.267-1.935-.47a8.4 8.4 0 0 1-1.773-.54c.617.017 1.23.104 1.827.258l1.966.384q1.178.282 2.377.439a8.6 8.6 0 0 0 2.322-.368l1.959-.423a8.5 8.5 0 0 1 1.85-.29m.875 2.655c.046 0 .232.141.379.517.199.499.219 1.054.054 1.566a2.35 2.35 0 0 1-.913 1.246c-.333.219-.581.25-.604.203s.774-.532 1.13-1.566a4.4 4.4 0 0 0-.046-1.966m-.279 5.357c.093-.047.403.509.356 1.269-.046.76-.402 1.284-.495 1.222s.062-.58.093-1.246c.031-.665-.07-1.206.046-1.245m.078 5.812c.1-.04.309.336.209.83-.101.493-.426.783-.511.681s.046-.376.116-.783.077-.697.186-.728"/><path fill="#EB996E" d="M148.334 219.888c-.44.049-.884.027-1.316-.063l-1.409-.188a5.4 5.4 0 0 0-1.68-.086 4.2 4.2 0 0 0-1.487.681c-.433.29-.774.619-1.168.831a2.2 2.2 0 0 1-1.262.438c0-.07.472-.203 1.107-.681a6.7 6.7 0 0 1 2.756-1.668q.472-.048.944 0c.317 0 .573.094.844.141l1.401.266a4.6 4.6 0 0 1 1.27.329m7.911 14.199q.139-.494.349-.963a6.87 6.87 0 0 0 .255-4.699c-.155-.689-.472-1.379-.642-2.201a7 7 0 0 1 .17-2.561 4.6 4.6 0 0 0-.449-2.514 11.8 11.8 0 0 0-1.425-2.232c-.534-.682-1.052-1.348-1.548-1.943a9.2 9.2 0 0 0-3.243-2.561 5.16 5.16 0 0 0-2.725-.423c-.65.094-.991.266-1.007.235s.078-.063.24-.149q.375-.163.774-.243a5.17 5.17 0 0 1 2.857.306 9.2 9.2 0 0 1 3.406 2.585 43 43 0 0 1 1.61 1.942 12.4 12.4 0 0 1 1.479 2.35c.418.847.582 1.8.472 2.741a7.1 7.1 0 0 0-.193 2.436c.147.783.456 1.48.603 2.185.171.657.257 1.333.256 2.013a7.2 7.2 0 0 1-.689 2.819 4 4 0 0 1-.55.877"/><path fill="#FFBE9D" d="m110.193 195.53-54.01 8.678 2.4-28.517-30.037-5.874-3.654 42.223-.634 9.68a19.1 19.1 0 0 0 1.775 9.367 18.86 18.86 0 0 0 6.066 7.3 18.6 18.6 0 0 0 7.99 3.27c2.88.446 5.821.206 8.592-.701l11.612-3.83 56.604-20.363"/><path fill="#FFBE9D" d="M142.876 189.632a1.6 1.6 0 0 0-.352-1.279 1.55 1.55 0 0 0-1.196-.546c-3.043 0-11.264 0-14.167.87-3.592 1.026-16.976 6.837-16.976 6.837l5.674 21.147 20.537.219s7.502-3.485 7.595-4.997a25 25 0 0 0-.186-2.827l2.268-1.23c3.375-2.161 1.208-6.32 1.208-6.32s2.322-1.316 2.446-3.697a3.74 3.74 0 0 0-.405-2.016 3.67 3.67 0 0 0-1.407-1.485s.929-3.352-.774-4.253-4.644.251-4.644.251a1.22 1.22 0 0 0 .379-.674"/><path fill="#EB996E" d="M144.06 189.977a2.1 2.1 0 0 1-.634.227 19 19 0 0 1-1.773.384c-1.548.274-3.608.501-5.922.783a48 48 0 0 0-5.868.908c-1.479.345-2.322.784-2.322.784q.254-.229.565-.368a10 10 0 0 1 1.703-.666 36 36 0 0 1 5.891-1.034c2.322-.251 4.42-.431 5.922-.627 1.502-.195 2.415-.446 2.438-.391m3.863 4.245a5 5 0 0 1-1.447.744 23 23 0 0 1-3.74 1.104 51 51 0 0 1-3.87.65 6.6 6.6 0 0 1-1.603.126c0-.134 2.4-.572 5.357-1.175a38 38 0 0 0 3.732-.971 9 9 0 0 1 1.571-.478m-.619 7.362a22.1 22.1 0 0 1-9.011 2.068c0-.126 2.044-.384 4.521-.956s4.49-1.229 4.49-1.112m-1.223 6.281a15.3 15.3 0 0 1-6.967 1.7 552 552 0 0 0 6.967-1.7m-10.714-3.72c0 .047-.209.18-.627.219a2.3 2.3 0 0 1-1.548-.43 2.4 2.4 0 0 1-.922-1.34c-.1-.415-.046-.673 0-.673.047 0 .217 1.01 1.146 1.676a4.2 4.2 0 0 0 1.951.548m-.449 6.532c0 .11-.774.157-1.509-.478-.736-.634-.775-1.464-.643-1.456.132.007.318.626.914 1.151s1.238.666 1.238.783m-2.322-13.338c.046.11-.519.29-1.045-.117-.527-.408-.511-1.003-.395-.987s.248.383.635.665.751.329.805.439"/><path fill="#EB996E" d="m110.193 195.53.162-.094.488-.227 1.904-.854c1.672-.728 4.095-1.786 7.168-3.062 1.549-.627 3.221-1.324 5.079-2.021a19 19 0 0 1 2.941-.924 31 31 0 0 1 3.267-.408c2.245-.18 4.645-.258 7.107-.289h2.841c.353-.018.705.057 1.021.219.337.166.608.444.767.787s.197.732.108 1.1a.57.57 0 0 1-.232.267l-.232.149-.465.219a7.5 7.5 0 0 1-.975.344.2.2 0 0 1-.148-.021.2.2 0 0 1-.098-.197.2.2 0 0 1 .145-.165q1.26-.37 2.555-.58a9.2 9.2 0 0 1 2.709-.094c.491.056.954.257 1.332.58.348.362.578.824.658 1.323a7 7 0 0 1-.178 2.859l-.101-.243c.443.259.83.605 1.138 1.018.384.525.638 1.136.74 1.78s.05 1.305-.152 1.925a5.47 5.47 0 0 1-2.322 2.843l.077-.274a6.54 6.54 0 0 1 .651 3.618 4.2 4.2 0 0 1-.64 1.7 4.1 4.1 0 0 1-1.296 1.261l-2.26 1.23.101-.196c.054.548.108 1.096.147 1.637 0 .266 0 .54.038.783v.415c-.02.159-.076.312-.162.447a5 5 0 0 1-1.169 1.127c-.418.314-.852.596-1.277.862a56 56 0 0 1-5.102 2.702h-.07l-14.948-.235-4.134-.086-1.083-.039a2 2 0 0 1-.372 0q.186-.018.372 0h5.217l14.948.086h-.069a54 54 0 0 0 5.055-2.71c.418-.259.844-.54 1.246-.846.41-.28.771-.626 1.068-1.026a.7.7 0 0 0 .117-.274v-1.167a39 39 0 0 0-.155-1.613.18.18 0 0 1 .1-.188l2.261-1.238a3.78 3.78 0 0 0 1.757-2.686 6.2 6.2 0 0 0-.619-3.376.205.205 0 0 1 .085-.266 5.1 5.1 0 0 0 2.167-2.616 3.72 3.72 0 0 0-.534-3.337 3.4 3.4 0 0 0-.998-.893.2.2 0 0 1-.09-.1.2.2 0 0 1-.011-.135 6.65 6.65 0 0 0 .17-2.67 1.78 1.78 0 0 0-.543-1.092 1.74 1.74 0 0 0-1.113-.475 8.7 8.7 0 0 0-2.586.094q-1.272.194-2.508.556l-.101-.383a6.6 6.6 0 0 0 1.347-.517c.132-.071.271-.212.318-.196a1.7 1.7 0 0 0-.124-.823 1.44 1.44 0 0 0-.596-.603 1.6 1.6 0 0 0-.844-.172h-2.833c-2.477 0-4.854.094-7.091.259q-1.624.108-3.228.383a20 20 0 0 0-2.903.893c-1.85.682-3.546 1.363-5.086 1.974l-7.207 2.953-1.928.783-.503.203zM56.4 204.145a21.4 21.4 0 0 0-3.988 3.486 21.3 21.3 0 0 0-2.663 4.605 4.5 4.5 0 0 1 .403-1.567 12.28 12.28 0 0 1 4.823-5.866 4.5 4.5 0 0 1 1.424-.658"/><path fill="#FFBE9D" d="M126.929 35.167c-.537-6.915-3.627-13.372-8.657-18.086a27.1 27.1 0 0 0-18.484-7.353h-1.416c-15.235.87-23.022 14.442-21.737 29.832l2.624 61.679c.02.503.175.992.448 1.414a2.77 2.77 0 0 0 1.1.982l34.201 16.236-.991-32.37s14.654-2.271 14.863-17.09c.062-7.15-.929-21.906-1.951-35.244"/><path fill="#EB996E" d="M114.102 87.446a35.17 35.17 0 0 1-19.175-5.717s4.49 10.667 19.106 9.398z"/><path fill="#27272E" d="M121.758 44.37a2.14 2.14 0 0 1-.584 1.478 2.1 2.1 0 0 1-1.436.652 1.97 1.97 0 0 1-1.478-.493 2.02 2.02 0 0 1-.674-1.418c-.007-.551.2-1.082.577-1.48a2.07 2.07 0 0 1 1.435-.65 2 2 0 0 1 1.478.495 2.03 2.03 0 0 1 .682 1.415"/><path fill="#27272E" d="M123.771 42.411c-.263.274-1.843-.916-4.095-.916-2.253 0-3.871 1.144-4.142.862-.124-.126.139-.62.859-1.152a5.7 5.7 0 0 1 3.321-1.026 5.44 5.44 0 0 1 3.259 1.073c.689.533.922 1.034.798 1.16m-24.153 2.647a2.12 2.12 0 0 1-.58 1.483c-.377.398-.895.63-1.44.647a1.97 1.97 0 0 1-1.475-.496 2.02 2.02 0 0 1-.677-1.415 2.13 2.13 0 0 1 .582-1.481 2.08 2.08 0 0 1 1.438-.65 1.98 1.98 0 0 1 1.475.496 2.02 2.02 0 0 1 .677 1.416m2.013-2.256c-.256.274-1.843-.908-4.088-.908s-3.87 1.135-4.149.853c-.116-.125.147-.618.867-1.143a5.67 5.67 0 0 1 3.321-1.034 5.5 5.5 0 0 1 3.251 1.073c.705.525.945 1.026.798 1.159m8.151 16.887c0-.126 1.386-.369 3.654-.659.573-.062 1.123-.172 1.216-.572a2.96 2.96 0 0 0-.38-1.723l-1.687-4.433c-2.323-6.265-4.049-11.49-3.793-11.583.255-.094 2.322 4.942 4.706 11.255l1.618 4.456c.361.7.465 1.508.294 2.28a1.43 1.43 0 0 1-.952.846 4 4 0 0 1-.975.14c-2.276.117-3.693.125-3.701-.008m-6.603 1.567c.364 0 .364 2.443 2.454 4.205s4.684 1.489 4.707 1.833c0 .157-.581.486-1.68.51a6.03 6.03 0 0 1-3.932-1.395 5.37 5.37 0 0 1-1.897-3.524c-.116-1.034.155-1.645.348-1.63"/><path fill="#FFBE9D" d="M78.825 50.526c-.247-.11-10.063-3.032-9.754 7.103s10.289 7.73 10.296 7.44c.008-.289-.542-14.544-.542-14.544"/><path fill="#EB996E" d="M77.076 61.326c-.046 0-.17.125-.465.274a1.73 1.73 0 0 1-1.3.07c-1.068-.367-2.013-2.036-2.113-3.86a6 6 0 0 1 .41-2.538 2.04 2.04 0 0 1 .468-.857c.222-.243.5-.428.81-.537a.89.89 0 0 1 1.044.446c.14.282.085.486.132.501.046.016.217-.172.124-.587a1.2 1.2 0 0 0-.418-.627 1.3 1.3 0 0 0-.968-.227 2.44 2.44 0 0 0-1.099.576 2.5 2.5 0 0 0-.681 1.045 6.1 6.1 0 0 0-.52 2.843c.125 2.045 1.216 3.917 2.672 4.3a1.84 1.84 0 0 0 1.548-.32c.34-.228.387-.486.356-.502"/><path fill="#27272E" d="m85.375 20.419 41.74.932a19.2 19.2 0 0 0-6.131-7.174 32.33 32.33 0 0 0-18.904-6.885c-6.804-.125-20.669 8.27-25.6 13.017-3.948 3.799-3.917 7.088-3.917 7.088-.627 5.483 2.4 11.701 3.608 17.082.619 2.773 1.819 11.16 1.819 11.16 2.322 0 3.15-1.855 2.802-4.158l-.426-9.03s7.819-5.624 4.11-15.915c-.572-.823-1.842-4.582.899-6.117"/><path fill="#EB996E" d="M94.153 52.452a.25.25 0 0 1-.24-.152.3.3 0 0 1-.023-.098.27.27 0 0 1 .028-.2.26.26 0 0 1 .158-.122.27.27 0 0 1 .196.052.28.28 0 0 1 .106.176.27.27 0 0 1-.115.307.3.3 0 0 1-.11.037m4.304-.979a.31.31 0 0 1-.31-.258.3.3 0 0 1 .023-.218.3.3 0 0 1 .163-.142.28.28 0 0 1 .205.07c.056.05.091.12.097.196a.285.285 0 0 1-.178.352m2.895-.055c-.139 0-.271-.148-.302-.376-.031-.227.062-.422.201-.438.14-.016.264.149.295.376s-.062.438-.194.438m-5.093 3.768c-.132 0-.248-.07-.248-.157 0-.086.116-.164.248-.164.131 0 .247.078.247.164s-.108.157-.247.157m3.948-.916a.284.284 0 0 1-.047-.564.264.264 0 0 1 .271.258.276.276 0 0 1-.224.305m20.521-2.435a.25.25 0 0 1-.195-.05.26.26 0 0 1-.099-.178.274.274 0 0 1 .186-.329.27.27 0 0 1 .196.052.28.28 0 0 1 .106.175.27.27 0 0 1-.099.285.3.3 0 0 1-.095.044m2.935-.266a.32.32 0 0 1-.351-.11.33.33 0 0 1-.015-.37.32.32 0 0 1 .342-.137.32.32 0 0 1 .24.28.3.3 0 0 1-.041.213.28.28 0 0 1-.175.124m-5.52.337a.24.24 0 0 1-.287-.165.25.25 0 0 1 .194-.298.25.25 0 0 1 .187.037.25.25 0 0 1 .107.16.24.24 0 0 1-.201.266m2.167 2.968a.29.29 0 0 1-.337-.01.3.3 0 0 1 .158-.536.29.29 0 0 1 .288.178.274.274 0 0 1-.109.368m2.501-.501a.236.236 0 0 1-.186-.266.254.254 0 0 1 .431-.03.26.26 0 0 1 .049.163.24.24 0 0 1-.121.127.23.23 0 0 1-.173.006"/><path fill="#FAFAFC" d="M62.647 179.325a8.5 8.5 0 0 0 1.75 4.386c.897 1.183 2.716 2.35 4.18 2.248a6.3 6.3 0 0 0 3.186-.678 6.4 6.4 0 0 0 2.441-2.181c1.789-2.866 2.222-8.842.774-12.375-.983-2.428-3.197-4.699-5.79-4.754-3.406-.078-5.543 2.413-6.27 4.935"/><path fill="#27272E" d="M62.925 170.906a5.3 5.3 0 0 1 .635-1.692 6.8 6.8 0 0 1 1.278-1.7 5.9 5.9 0 0 1 2.407-1.425 6 6 0 0 1 1.618-.267c.6-.033 1.201.047 1.773.235a6.97 6.97 0 0 1 3.166 2.295 9.36 9.36 0 0 1 1.858 3.916 17 17 0 0 1 .348 4.645c-.162 2.451-.635 4.895-1.982 6.759a5.95 5.95 0 0 1-2.57 1.958 6.8 6.8 0 0 1-2.903.493 4.35 4.35 0 0 1-2.09-.517 7 7 0 0 1-1.548-1.112 7.8 7.8 0 0 1-1.71-2.569 8 8 0 0 1-.543-1.903 4 4 0 0 1-.046-.517.4.4 0 0 1 0-.18c.15.871.41 1.719.774 2.522.416.919 1 1.75 1.718 2.452a6.8 6.8 0 0 0 1.549 1.033 4.05 4.05 0 0 0 1.935.462 6.1 6.1 0 0 0 2.854-.546 6.2 6.2 0 0 0 2.294-1.803c1.246-1.747 1.726-4.151 1.881-6.548.163-3.133-.348-6.219-2.09-8.302a6.8 6.8 0 0 0-2.98-2.209 4.8 4.8 0 0 0-1.665-.242 5.8 5.8 0 0 0-1.548.227 5.66 5.66 0 0 0-2.322 1.323 7 7 0 0 0-1.317 1.598 16 16 0 0 0-.774 1.614"/><path fill="#E6E6F0" d="M60.835 179.482c.16 1.6.767 3.121 1.75 4.386.897 1.182 2.717 2.349 4.18 2.248a6.3 6.3 0 0 0 3.187-.678 6.4 6.4 0 0 0 2.44-2.181c1.781-2.875 2.222-8.843.775-12.375-.984-2.436-3.19-4.699-5.783-4.754a6.35 6.35 0 0 0-3.981 1.361 6.5 6.5 0 0 0-2.29 3.565"/><path fill="#27272E" d="M61.13 171.054a5.3 5.3 0 0 1 .634-1.684 6.6 6.6 0 0 1 1.277-1.699 5.9 5.9 0 0 1 4.026-1.692c.6-.033 1.2.047 1.772.235a6.93 6.93 0 0 1 3.166 2.295 9.36 9.36 0 0 1 1.859 3.916c.328 1.524.443 3.088.34 4.644-.155 2.452-.627 4.888-1.974 6.76a5.96 5.96 0 0 1-2.57 1.958 6.8 6.8 0 0 1-2.903.493 4.35 4.35 0 0 1-2.09-.525 6.5 6.5 0 0 1-1.548-1.104 7.8 7.8 0 0 1-1.711-2.577 7.6 7.6 0 0 1-.542-1.895 4 4 0 0 1-.047-.517.4.4 0 0 1 0-.18c.15.868.411 1.713.775 2.514a7.9 7.9 0 0 0 1.718 2.459 7 7 0 0 0 1.548 1.034c.6.309 1.263.467 1.936.462a6.14 6.14 0 0 0 2.854-.546 6.2 6.2 0 0 0 2.294-1.804c1.246-1.754 1.726-4.151 1.873-6.547.17-3.133-.34-6.219-2.09-8.302a6.65 6.65 0 0 0-2.973-2.209 4.7 4.7 0 0 0-1.664-.243 6 6 0 0 0-1.548.227 5.7 5.7 0 0 0-2.323 1.324 7 7 0 0 0-1.3 1.606 17 17 0 0 0-.79 1.597"/><path fill="#FAFAFC" d="M64.117 170.177a3.94 3.94 0 0 0-2.48.505 4 4 0 0 0-1.677 1.915 7.07 7.07 0 0 0 0 5.115 6.5 6.5 0 0 0 1.293 2.302 3.42 3.42 0 0 0 2.322 1.136 4 4 0 0 0 1.843-.555 4.05 4.05 0 0 0 1.377-1.356 7.4 7.4 0 0 0 1.091-6.007c-.355-1.363-1.338-2.749-2.724-2.789"/><path fill="#27272E" d="M65.13 170.467h.303c.298.035.586.133.844.29.458.306.852.702 1.156 1.165.305.463.514.983.616 1.529a7.52 7.52 0 0 1-.48 4.793 6.26 6.26 0 0 1-1.734 2.303 3.33 3.33 0 0 1-2.988.728 4.24 4.24 0 0 1-2.392-1.973 8.9 8.9 0 0 1-.99-2.71 6.1 6.1 0 0 1 .773-4.7 4.2 4.2 0 0 1 1.18-1.143 4.1 4.1 0 0 1 1.522-.595 3 3 0 0 1 .883 0c.193.039.294.07.294.086a6 6 0 0 0-1.154.07 4.13 4.13 0 0 0-2.492 1.747 5.85 5.85 0 0 0-.643 4.488c.184.906.51 1.776.968 2.576a3.83 3.83 0 0 0 2.16 1.786 2.92 2.92 0 0 0 2.632-.642 5.9 5.9 0 0 0 1.64-2.146 7.3 7.3 0 0 0 .543-4.574 4.15 4.15 0 0 0-1.549-2.624 3.3 3.3 0 0 0-1.091-.454"/><path fill="#27272E" d="M68.018 183.053c-.054 0-.139-.25-.41-.564a2.84 2.84 0 0 0-1.316-.853 7 7 0 0 0-1.626-.259c-.433 0-.704-.07-.712-.125s.263-.118.705-.165a4.5 4.5 0 0 1 1.75.157 2.53 2.53 0 0 1 1.431 1.081c.248.407.225.72.178.728m.612-13.941s-.116.274-.48.564a3.7 3.7 0 0 1-1.633.72 3.76 3.76 0 0 1-1.773-.093c-.441-.149-.673-.322-.65-.369a9 9 0 0 0 2.322.063 9.6 9.6 0 0 0 2.214-.885"/></g><mask id="medic-accompanying-primary_svg__c" width="82" height="96" x="60" y="0" maskUnits="userSpaceOnUse" style="mask-type:alpha"><path fill="#C4C4C4" d="M60.698.139h80.595V95.38H60.698z"/></mask><g mask="url(#medic-accompanying-primary_svg__c)"><path fill="#FFBE9D" d="M126.929 35.167c-.537-6.915-3.627-13.372-8.657-18.086a27.1 27.1 0 0 0-18.483-7.353h-1.417c-15.235.87-23.022 14.442-21.737 29.832l2.624 61.679c.02.503.175.992.448 1.414a2.77 2.77 0 0 0 1.1.982l34.201 16.236-.991-32.37s14.654-2.271 14.863-17.09c.062-7.15-.929-21.906-1.951-35.244"/><path fill="#EB996E" d="M114.102 87.446a35.17 35.17 0 0 1-19.175-5.717s4.49 10.667 19.106 9.398z"/><path fill="#27272E" d="M121.758 44.37a2.13 2.13 0 0 1-.584 1.478 2.1 2.1 0 0 1-1.436.652 1.97 1.97 0 0 1-1.477-.493 2 2 0 0 1-.675-1.418 2.1 2.1 0 0 1 .577-1.48 2.07 2.07 0 0 1 1.435-.65 2 2 0 0 1 1.478.495 2.04 2.04 0 0 1 .682 1.416"/><path fill="#27272E" d="M123.771 42.411c-.263.274-1.842-.916-4.095-.916s-3.871 1.144-4.142.861c-.124-.125.14-.618.86-1.15a5.7 5.7 0 0 1 3.321-1.027 5.44 5.44 0 0 1 3.259 1.073c.689.533.921 1.034.797 1.16m-24.153 2.647a2.12 2.12 0 0 1-.58 1.483c-.377.398-.894.63-1.44.647a1.97 1.97 0 0 1-1.475-.496 2.02 2.02 0 0 1-.677-1.415 2.13 2.13 0 0 1 .582-1.481 2.08 2.08 0 0 1 1.438-.65 1.98 1.98 0 0 1 1.475.496 2.02 2.02 0 0 1 .677 1.416m2.013-2.256c-.256.274-1.843-.909-4.088-.909s-3.87 1.136-4.149.854c-.116-.125.147-.619.867-1.143a5.67 5.67 0 0 1 3.321-1.034 5.5 5.5 0 0 1 3.251 1.073c.705.525.945 1.026.798 1.159m8.152 16.887c0-.126 1.385-.369 3.653-.659.573-.062 1.123-.172 1.216-.572a2.96 2.96 0 0 0-.38-1.723l-1.687-4.433c-2.323-6.265-4.049-11.49-3.793-11.583.255-.094 2.322 4.942 4.706 11.255l1.618 4.456c.361.7.465 1.508.294 2.28a1.43 1.43 0 0 1-.952.846 4 4 0 0 1-.975.14c-2.276.117-3.693.125-3.7-.008m-6.604 1.567c.364 0 .364 2.443 2.454 4.205s4.684 1.489 4.707 1.833c0 .157-.58.486-1.68.51a6.03 6.03 0 0 1-3.932-1.395 5.37 5.37 0 0 1-1.897-3.524c-.116-1.034.155-1.645.348-1.63m-.929-27.388c-.224.618-2.47.32-5.11.642-2.639.32-4.775 1.041-5.132.485-.154-.266.217-.853 1.084-1.449a8.54 8.54 0 0 1 3.801-1.339 8.4 8.4 0 0 1 3.995.486c.967.4 1.455.885 1.362 1.175m20.708 1.958c-.403.509-1.951 0-3.816-.055-1.866-.055-3.437.336-3.801-.204-.163-.258.093-.783.774-1.269a5.48 5.48 0 0 1 6.131.204c.666.532.882 1.065.712 1.324"/><path fill="#FFBE9D" d="M78.826 50.525c-.248-.11-10.064-3.03-9.754 7.104s10.288 7.73 10.295 7.44c.008-.29-.541-14.544-.541-14.544"/><path fill="#EB996E" d="M77.076 61.326c-.046 0-.17.125-.464.274a1.73 1.73 0 0 1-1.301.07c-1.068-.367-2.013-2.036-2.113-3.86a6 6 0 0 1 .41-2.538c.085-.32.245-.614.468-.857s.5-.428.81-.537a.9.9 0 0 1 .6.035.9.9 0 0 1 .444.411c.14.282.085.486.132.501.046.016.217-.172.124-.587a1.2 1.2 0 0 0-.418-.627 1.3 1.3 0 0 0-.968-.227 2.44 2.44 0 0 0-1.099.576 2.5 2.5 0 0 0-.681 1.045 6.1 6.1 0 0 0-.52 2.843c.125 2.045 1.216 3.917 2.672 4.3a1.84 1.84 0 0 0 1.548-.32c.34-.228.387-.486.356-.502"/><path fill="#27272E" d="m85.375 20.419 41.74.932a19.2 19.2 0 0 0-6.131-7.174 32.33 32.33 0 0 0-18.904-6.885c-6.804-.125-20.669 8.27-25.6 13.017-3.948 3.799-3.917 7.088-3.917 7.088-.627 5.483 2.4 11.701 3.608 17.082.619 2.773 1.819 11.16 1.819 11.16 2.322 0 3.15-1.855 2.802-4.158l-.426-9.03s7.819-5.624 4.11-15.915c-.572-.823-1.841-4.582.899-6.117"/><path fill="#EB996E" d="M94.153 52.452a.25.25 0 0 1-.183-.07.26.26 0 0 1-.08-.18.27.27 0 0 1 .186-.322.27.27 0 0 1 .302.228.27.27 0 0 1-.115.307.3.3 0 0 1-.11.037m4.304-.979a.31.31 0 0 1-.31-.258.3.3 0 0 1 .186-.36.28.28 0 0 1 .205.07.3.3 0 0 1 .097.196.28.28 0 0 1-.018.213.28.28 0 0 1-.16.14m2.895-.056c-.139 0-.271-.148-.302-.376-.031-.227.062-.422.201-.438.14-.016.264.149.295.376s-.062.438-.194.438m-5.093 3.768c-.132 0-.248-.07-.248-.157 0-.086.116-.165.248-.165.131 0 .248.079.248.165s-.109.157-.248.157m3.948-.916a.28.28 0 0 1-.204-.067.284.284 0 0 1 .157-.498.264.264 0 0 1 .271.259.27.27 0 0 1-.224.305m20.521-2.435a.25.25 0 0 1-.195-.05.26.26 0 0 1-.099-.178.274.274 0 0 1 .186-.329.27.27 0 0 1 .196.052.28.28 0 0 1 .106.175.27.27 0 0 1-.099.285.3.3 0 0 1-.095.044m2.935-.266a.32.32 0 0 1-.351-.11.33.33 0 0 1-.015-.37.316.316 0 0 1 .582.143.3.3 0 0 1-.041.213.28.28 0 0 1-.175.124m-5.52.337a.24.24 0 0 1-.286-.165.25.25 0 0 1 .193-.297.25.25 0 0 1 .187.036.25.25 0 0 1 .107.16.24.24 0 0 1-.201.266m2.167 2.968a.29.29 0 0 1-.337-.01.3.3 0 0 1 .158-.536.29.29 0 0 1 .288.178.28.28 0 0 1 .02.207.27.27 0 0 1-.129.161m2.501-.501a.236.236 0 0 1-.186-.266.254.254 0 0 1 .431-.03.26.26 0 0 1 .049.163.24.24 0 0 1-.121.127.23.23 0 0 1-.173.006"/><path fill="#27272E" d="M76.224 20.872a12.6 12.6 0 0 1-.088-5.712 12.55 12.55 0 0 1 2.437-5.153 12.36 12.36 0 0 1 4.45-3.516 12.2 12.2 0 0 1 5.532-1.142c1.951.078 3.871.635 5.822.423 3.615-.4 6.402-3.329 9.754-4.754a12.6 12.6 0 0 1 8.281-.336 12.73 12.73 0 0 1 6.729 4.894c1.27 1.92 2.098 4.292 4.049 5.483 1.679 1.041 3.801.955 5.689 1.566 3.825 1.16 6.441 5.271 6.24 9.305a11.15 11.15 0 0 1-2.044 5.597 10.96 10.96 0 0 1-4.621 3.707 13.24 13.24 0 0 1-11.535-.783c-3.15-1.778-5.968-4.801-9.576-4.7-3.731.11-6.967 3.666-10.651 2.93-1.92-.384-3.399-1.88-4.808-3.258s-3.019-2.78-4.977-2.898c-1.959-.117-2.973 2.6-2.269 4.449z"/></g></g><defs><clipPath id="medic-accompanying-primary_svg__a"><path fill="#fff" d="M.02 0h200v240H.02z"/></clipPath></defs></svg>