<svg xmlns="http://www.w3.org/2000/svg" width="102" height="150" fill="none" viewBox="0 0 102 150"><path fill="#441384" d="M95.347 110.594c-.265-2.509-1.101-4.921-1.934-7.306q-4.107-11.727-8.195-23.457c-.72-2.061-1.46-4.16-2.773-5.9-1.315-1.74-3.32-3.105-5.504-3.09l1.244 50.453 3.12 7.22a16.38 16.38 0 0 0 14.042-17.92"/><path fill="#441384" d="M48.787 79.42 29.724 59.536s-15.923 3.778-19.488 8.344c-2.505 3.207-.8 28.747-.8 28.747s13.594 40.168 14.561 43.965L21.425 150h63.934l-5.753-30.987 4.48-52.746L54.271 58.8c.5 1.427-5.484 20.62-5.484 20.62"/><path fill="#000" d="M22.573 146.655c4.514-1.004 7.933-4.854 9.811-9.087 1.878-4.234 2.52-8.878 3.498-13.399.979-4.522 2.416-9.129 5.526-12.552 2.117-2.33 4.887-3.969 7.134-6.175s4.003-5.365 3.237-8.42l-13.388 8.368c-1.448.907-2.93 1.84-3.972 3.195-1.3 1.688-1.785 3.842-2.266 5.914a214 214 0 0 1-10.08 31.902" opacity=".3"/><path fill="#94675A" d="M29.243 99.767s-6.29 10.08-6.888 11.156c-.597 1.075-8.736 11.846-8.736 11.846s-2.614 8.497 1.437 12.085c4.05 3.587 8.96 4.189 9.931 4.189s6.1-10.409 6.1-10.409l6.467-18.413z"/><path fill="#441384" d="M10.236 67.88S6.085 71.987 3.89 81.234c-1.422 5.974-2.486 27.433-2.486 27.433s-1.471 16.192-1.12 19.918c.35 3.726 3.976 13.985 5.94 16.883 2.766 4.084 15.486 2.863 17.584-.687 1.12-1.923 5.671-9.125 5.44-12.522-.232-3.398-10.771-16.017-10.771-16.017z"/><path fill="#000" d="M70.334 87.69c-.056 10.244 1.69 19.745 4.04 29.717.638 2.711 2.34 6.612 4.853 7.792s4.002 1.493 6.44.269c2.762-1.4 5.85-5.003 5.85-6.608-1.53 1.601-3.102 3.229-5.074 4.233-1.971 1.005-4.48 1.285-6.347.146-2.613-1.564-3.2-5.033-3.621-8.057-1.27-9.105-2.113-18.364-5.283-26.992" opacity=".3"/><path fill="#263238" d="M21.28 112.498c-.055 0 .075-5.227.292-11.675.216-6.447.437-11.667.493-11.663s-.079 5.227-.295 11.671c-.217 6.444-.437 11.667-.49 11.667m-2.807 3.744a2 2 0 0 1-.374.254l-1.045.624c-.885.522-2.11 1.243-3.424 2.098a44 44 0 0 0-3.255 2.344l-.945.766q-.171.154-.373.265.139-.177.31-.321c.209-.202.519-.482.91-.814a33 33 0 0 1 3.238-2.401 51 51 0 0 1 4.536-2.628q.2-.118.422-.187m-.001 0a13 13 0 0 1-1.363-.228 35 35 0 0 0-3.285-.421 41 41 0 0 0-3.315-.109q-.69.039-1.378 0 .184-.052.373-.056c.24-.026.583-.048 1.008-.071a27 27 0 0 1 3.334.053 25 25 0 0 1 3.3.481c.415.094.747.176.979.243q.18.036.347.108m10.955 15.979a3 3 0 0 1-.119.568c-.086.373-.232.884-.426 1.523a39 39 0 0 1-1.866 4.872 40 40 0 0 1-2.502 4.581c-.373.564-.664 1.012-.885 1.31a4 4 0 0 1-.373.46q.124-.264.291-.501c.202-.313.486-.773.833-1.34a49 49 0 0 0 2.442-4.592 48 48 0 0 0 1.915-4.831c.213-.631.373-1.146.485-1.494q.077-.287.205-.556M57.83 99.252a1 1 0 0 1-.06.216l-.201.605c-.09.265-.202.586-.351.952-.15.366-.303.791-.504 1.247-.373.918-.892 1.99-1.493 3.155s-1.356 2.411-2.196 3.677a43.3 43.3 0 0 1-4.898 6.048c-.344.373-.676.665-.96.941q-.426.413-.746.687l-.486.422q-.08.075-.175.134s.045-.06.15-.164l.459-.448c.201-.191.444-.426.72-.71.276-.283.597-.593.934-.959a47 47 0 0 0 2.303-2.613 45 45 0 0 0 2.535-3.431 47 47 0 0 0 2.199-3.655 47 47 0 0 0 1.534-3.125c.213-.448.374-.866.53-1.229.157-.362.28-.679.374-.94l.235-.594a1 1 0 0 1 .097-.217m12.226-10.666a.4.4 0 0 1 .019.113l.03.324.1 1.255c.09 1.086.213 2.662.374 4.607.373 3.886.956 9.247 1.866 15.131.47 2.942.893 5.753 1.524 8.247.295 1.182.681 2.34 1.157 3.461q.645 1.457 1.463 2.823c.45.75.986 1.447 1.595 2.075.465.467.99.872 1.56 1.203q.541.308 1.12.537l.306.116q.055.015.105.045a.6.6 0 0 1-.108-.026l-.314-.097a7.6 7.6 0 0 1-1.154-.508 7.6 7.6 0 0 1-1.601-1.195 11.2 11.2 0 0 1-1.632-2.076 24 24 0 0 1-1.493-2.833 23.5 23.5 0 0 1-1.187-3.48c-.646-2.509-1.068-5.32-1.538-8.262a216 216 0 0 1-1.815-15.15 179 179 0 0 1-.332-4.615c-.026-.534-.049-.955-.064-1.254v-.328a1 1 0 0 1 .019-.113"/><path fill="#000" d="M46.17 117.348c3.809-.926 6.661-2.528 8.804-5.813 2.143-3.286 2.856-7.385 2.875-12.074-3.036 7.321-7.008 13.548-12.007 17.946" opacity=".3"/><path fill="#FAFAFA" d="M39.503 70.299a.5.5 0 0 1-.097 0l-.28-.056c-.243-.052-.605-.12-1.072-.183a15.6 15.6 0 0 0-3.987 0c-1.962.255-3.88.778-5.7 1.553a47.4 47.4 0 0 0-6.422 3.39c-2.203 1.348-4.283 2.684-6.317 3.644a17.6 17.6 0 0 1-5.694 1.706 11.2 11.2 0 0 1-4.002-.243 7 7 0 0 1-1.389-.485.3.3 0 0 1 .094.022l.268.094q.174.066.437.138.3.094.609.156c1.302.29 2.645.35 3.968.18a17.6 17.6 0 0 0 5.63-1.74c2.02-.96 4.107-2.296 6.295-3.644a46 46 0 0 1 6.455-3.394 21.5 21.5 0 0 1 5.753-1.538 15 15 0 0 1 4.014.071q.54.082 1.071.22l.273.075zm-18.794 30.853a1 1 0 0 1-.183.071l-.538.164c-.231.071-.519.153-.858.232-.34.078-.717.186-1.146.268-.855.183-1.867.351-3.028.486q-1.862.195-3.734.194a36 36 0 0 1-3.752-.246 32 32 0 0 1-3.02-.531c-.43-.085-.81-.194-1.146-.283-.336-.09-.62-.168-.855-.243l-.549-.175a1 1 0 0 1-.183-.071.6.6 0 0 1 .194.033l.545.138c.235.064.523.138.859.213s.72.176 1.146.254c.851.179 1.867.347 3.017.485q1.861.21 3.733.228c1.326 0 2.587-.067 3.733-.175a31 31 0 0 0 3.02-.441c.43-.075.811-.168 1.15-.239.34-.071.628-.142.863-.201l.545-.131a.7.7 0 0 1 .187-.03m-6.429 16.815a3 3 0 0 1-.567 0c-.374-.03-.896-.052-1.55-.06-.653-.007-1.43 0-2.292.079q-1.4.113-2.781.373-1.378.28-2.718.698a25 25 0 0 0-2.15.799c-.598.262-1.087.474-1.412.639q-.251.14-.523.231.23-.171.486-.299c.317-.186.795-.425 1.392-.698a22 22 0 0 1 2.15-.84 25 25 0 0 1 2.737-.72 24 24 0 0 1 2.804-.374q1.155-.079 2.311-.041a17 17 0 0 1 1.55.12q.285.024.563.093m11.55 7.934q-.06.12-.148.224l-.467.62c-.198.268-.452.593-.77.952-.317.358-.653.784-1.078 1.213l-.65.683c-.227.235-.481.463-.746.706-.505.5-1.087.982-1.692 1.493a37 37 0 0 1-4.226 2.987 37 37 0 0 1-4.637 2.296c-.747.284-1.445.564-2.12.769-.336.108-.661.22-.975.31l-.91.246c-.58.168-1.12.265-1.58.374s-.874.171-1.206.22l-.747.112a1.2 1.2 0 0 1-.268.026q.13-.043.265-.063l.746-.15c.329-.059.747-.134 1.191-.254.445-.119.997-.216 1.568-.395l.904-.258c.313-.09.635-.209.967-.317.672-.209 1.37-.497 2.105-.781a38 38 0 0 0 4.604-2.299 39 39 0 0 0 4.233-2.957c.601-.512 1.188-.99 1.692-1.494.257-.242.511-.466.746-.698l.657-.672c.43-.418.773-.836 1.094-1.187s.583-.668.792-.93l.493-.593q.075-.097.164-.183m55.217 7.093a.7.7 0 0 1-.127.052l-.373.131-1.456.478c-1.27.411-3.106.993-5.406 1.613-1.154.295-2.42.62-3.797.885a40 40 0 0 1-4.424.66 27.9 27.9 0 0 1-10.185-.787c-3.517-.986-6.645-2.517-9.546-3.734a36 36 0 0 0-7.934-2.52 17.4 17.4 0 0 0-5.6-.123c-.328.037-.616.108-.866.157a6 6 0 0 0-.63.149l-.374.101a.6.6 0 0 1-.134.026q.061-.026.127-.045l.373-.119c.168-.052.373-.116.627-.168s.538-.131.87-.176a17 17 0 0 1 5.63.064c2.36.373 5.081 1.262 7.982 2.49s6.033 2.725 9.528 3.704a28 28 0 0 0 10.113.798 42 42 0 0 0 4.402-.627c1.374-.261 2.636-.575 3.79-.862 2.303-.601 4.144-1.165 5.417-1.55l1.467-.444.373-.112a1 1 0 0 1 .153-.041m-28.571-24.853c0 .026-.463-.202-1.213-.504a17 17 0 0 0-3.02-.907 17.3 17.3 0 0 0-3.14-.314c-.81 0-1.311.037-1.315 0q.172-.057.351-.067c.224-.03.553-.06.963-.075a14.05 14.05 0 0 1 6.213 1.232q.443.194.862.437.163.078.299.198m20.12-2.774a1 1 0 0 1-.172.063l-.493.146c-.433.123-1.064.28-1.867.448-2.05.433-4.133.696-6.227.784a38.3 38.3 0 0 1-6.272-.25 29 29 0 0 1-1.867-.291l-.508-.105a.6.6 0 0 1-.175-.049.6.6 0 0 1 .183 0l.511.068a50 50 0 0 0 1.886.227c4.155.437 8.351.258 12.454-.53.788-.149 1.423-.283 1.867-.373l.504-.112a.6.6 0 0 1 .175-.026m-2.423-32.652a.8.8 0 0 1-.194.044l-.56.086c-.486.075-1.195.16-2.069.258a84 84 0 0 1-6.862.433 80 80 0 0 1-6.873-.145c-.877-.06-1.587-.12-2.076-.172l-.563-.064a.6.6 0 0 1-.194-.033.8.8 0 0 1 .197 0l.564.026 2.08.108c1.754.082 4.181.146 6.862.09s5.103-.224 6.854-.374l2.072-.194.564-.052a.8.8 0 0 1 .198-.011"/><path fill="#263238" d="M27.384 39.308c-1.867-3.857-3.704-7.747-4.854-11.865s-1.631-8.516-.694-12.694c.142-.63 1.493-4.935 2.154-4.958.463 0-.202 3.913.082 4.279 2.722 3.494 3.939 7.97 4.181 12.391.194 4.3-.093 8.61-.855 12.847"/><path fill="#94675A" d="M48.318 80.966c-6.597.746-17.274-11.753-18.17-18.328L24.76 23.064C22.976 12.476 27.646 2.612 38.28 1.12l.993-.082a19.197 19.197 0 0 1 20.5 16.054c1.494 9.184 1.781 15.527 2.24 20.481 1.12 11.902-8.303 16.547-8.303 16.547s.265 2.374.638 5.372c.844 6.743-.392 20.724-7.138 21.493z"/><path fill="#744A3C" d="M53.732 54.22s-6.444.907-13.695-2.868c0 0 3.868 7.206 14.038 5.447zM44.8 38.427a2.218 2.218 0 1 1 2.815 3.297c-.548.27-1.17.353-1.77.235-.46-.056-.89-.26-1.224-.582a1.96 1.96 0 0 1-.374-1.867c.142-.531.43-1.012.83-1.389"/><path fill="#263238" d="M55.81 25.763a1.47 1.47 0 0 1-1.29 1.594 1.41 1.41 0 0 1-1.621-1.198 1.47 1.47 0 0 1 1.292-1.594 1.4 1.4 0 0 1 1.62 1.198m2.209-3.461c-.164.205-1.344-.526-2.92-.396-1.575.131-2.672 1.016-2.859.837-.09-.079.067-.437.541-.848a4.05 4.05 0 0 1 2.27-.903c.82-.069 1.64.123 2.345.548.504.336.706.669.623.762m-16.527 4.757a1.467 1.467 0 0 1-1.292 1.594 1.41 1.41 0 0 1-1.62-1.199 1.493 1.493 0 0 1 1.292-1.598 1.407 1.407 0 0 1 1.62 1.203m1.381-3.148c-.168.205-1.348-.526-2.924-.373s-2.669 1.015-2.856.836c-.093-.078.064-.44.542-.847a4 4 0 0 1 2.266-.908c.82-.07 1.642.124 2.344.553.516.314.72.646.628.74m6.306 11.267c0-.09.953-.336 2.524-.668.4-.075.777-.187.822-.467s-.13-.72-.374-1.172l-1.44-2.987c-2.01-4.234-3.499-7.728-3.327-7.81s1.938 3.289 3.946 7.523q.73 1.569 1.393 2.986c.19.444.496.945.34 1.565a1.02 1.02 0 0 1-.617.642q-.329.118-.675.153c-1.587.254-2.576.34-2.591.235m-4.555 1.493c.254-.037.396 1.676 1.964 2.774s3.36.747 3.405.997c.033.104-.374.373-1.15.448a4.25 4.25 0 0 1-2.834-.747 3.73 3.73 0 0 1-1.538-2.333c-.123-.71.034-1.139.153-1.139M42.408 17.74c-.12.44-1.713.373-3.547.747-1.833.373-3.289 1-3.565.635-.127-.176.1-.598.672-1.064a6.28 6.28 0 0 1 5.417-1.046c.702.21 1.072.52 1.023.728m14.631.142c-.25.373-1.367.097-2.677.187s-2.394.436-2.677.082c-.127-.172.018-.545.474-.922a3.87 3.87 0 0 1 4.312-.217c.493.328.683.687.568.87"/><path fill="#94675A" d="M26.23 30.699c-.18-.064-7.224-1.494-6.429 5.488.795 6.981 7.661 4.76 7.65 4.558S26.23 30.7 26.23 30.7"/><path fill="#744A3C" d="M25.01 38.349c-.034-.02-.113.1-.307.22a1.24 1.24 0 0 1-.91.12c-.77-.187-1.528-1.292-1.703-2.55a4.1 4.1 0 0 1 .142-1.785 1.42 1.42 0 0 1 .814-1.042.616.616 0 0 1 .746.25c.12.187.09.333.127.34s.138-.134.049-.418a.8.8 0 0 0-.325-.407.9.9 0 0 0-.695-.1c-.537.096-.967.649-1.153 1.227a4.16 4.16 0 0 0-.198 2.002c.201 1.403 1.075 2.643 2.12 2.822a1.31 1.31 0 0 0 1.094-.314c.206-.175.236-.354.198-.365"/><path fill="#263238" d="M54.085 6.279c1.056-.747-3.032-4.13-5.974-5.052-4.439-1.392-11.002-1.78-14.743-.209-4.506 1.897-8.098 4.693-9.923 9.23-1.826 4.535-2.099 9.59-1.367 14.421.22 1.494.564 2.987 1.493 4.156 1.154 1.41 3.114 2.154 3.33 4.245.042.757.356 1.473.886 2.016 1.493 1.381 2.953-.131 3.528-1.538 1.202-2.92.974-6.202.746-9.334-.171-2.154-.47-5.41-1.254-7.422a7.9 7.9 0 0 1-.538-2.337 6.9 6.9 0 0 1 .717-3.8 5 5 0 0 1 .56-.714 6.35 6.35 0 0 1 6.03-1.807c4.136.904 7.593 2.748 11.946.306.964-.541 1.363-1.437 1.774-1.975.612-.802 1.993-.885 2.77-.242zM27.683 43.273c.033 0 .093.15-.03.373a1.3 1.3 0 0 1-.866.56 2.4 2.4 0 0 1-1.494-.16 2.47 2.47 0 0 1-1.291-1.344 2.68 2.68 0 0 1-.042-1.867c.179-.47.488-.878.893-1.176.713-.5 1.276-.452 1.276-.373 0 .078-.474.197-1.015.701a2.3 2.3 0 0 0-.586 2.535 2.165 2.165 0 0 0 2.191 1.318 1.28 1.28 0 0 0 .747-.295c.142-.153.194-.276.217-.272"/><path fill="#94675A" d="M38.668 81.95s-.911 2.129-2.028 2.734-4.853 4.256-5.876 7.295-1.52 7.803-1.52 7.803l8.311 10.438s4.137-1.982 6.104-3.771c1.796-1.635 5.141-4.853 7.094-6.72a10.9 10.9 0 0 0 2.65-4.002c.15-.403.236-.713.176-.803-.202-.302-.71-.91-.71-.91s.306-1.318-.201-2.129c-.508-.81-.81-1.318-.81-1.318s.78-1.653.478-2.463a3.7 3.7 0 0 0-1.12-1.408s5.682-3.424 5.783-4.435c.1-1.012.25-1.288-.964-1.288s-8.24 2.505-10.166 3.617-6.078 3.04-6.078 3.04 2.016-5.07-1.123-5.68"/><path fill="#744A3C" d="M39.788 87.72q-.496.308-1.038.53l-2.535 1.205-2.528 1.232a8 8 0 0 1-1.064.482 6.3 6.3 0 0 1 1-.605 55 55 0 0 1 5.07-2.438 6.6 6.6 0 0 1 1.095-.407m12.098-1.493q-.172.166-.373.294c-.243.184-.601.437-1.05.747a82 82 0 0 1-3.557 2.304 77 77 0 0 1-3.678 2.113c-.478.257-.866.459-1.138.593q-.206.12-.434.19.185-.149.396-.257l1.12-.646c.941-.545 2.24-1.299 3.644-2.161s2.673-1.665 3.584-2.24l1.083-.691q.187-.146.403-.246m.094 4.464s-.075.11-.236.277-.403.403-.705.69a35 35 0 0 1-2.502 2.088 31 31 0 0 1-2.695 1.822c-.374.216-.654.373-.859.489a1.5 1.5 0 0 1-.328.153q.535-.409 1.12-.747a49 49 0 0 0 5.178-3.901q.49-.463 1.026-.87m.838 2.759a.7.7 0 0 1 .052.373c-.021.355-.132.7-.32 1a4.3 4.3 0 0 1-1.076 1.12c-.463.352-.97.725-1.493 1.12a265 265 0 0 1-2.767 2.002c-.373.25-.65.451-.851.586a1.7 1.7 0 0 1-.329.198q.124-.15.284-.258c.187-.153.467-.373.814-.638.694-.53 1.658-1.258 2.733-2.046s2.124-1.43 2.583-2.165c.197-.278.325-.598.374-.934.004-.22-.019-.358-.004-.358"/><path fill="#94675A" d="m94.077 109.732-9.67-21.912h-.059l9.367-15.68-2.927-3.114-15.34-2.777s-1.012-3.98-2.263-3.898-1.982.46-2.117 5.6c0 0-.6 8.777-.78 11.05-.146 1.897-.041 6.534 0 7.841v.351c.295 5.204 6.134 31.663 7.094 34.765.489 1.561 1.911 2.293 3.494 2.614a9.37 9.37 0 0 0 8.714-3.009c2.154-2.397 4.711-6.075 4.853-10.129zM71.061 68.246v.209c-.004-.049 0-.138 0-.21"/><path fill="#EBF1F7" d="M93.55 43.475H75.72c-.68 0-1.23.587-1.23 1.31v40.656c0 .724.55 1.31 1.23 1.31h17.83c.678 0 1.229-.586 1.229-1.31V44.786c0-.724-.55-1.311-1.23-1.311"/><path fill="#FAFCFF" d="M91.344 73.39s2.734-.661 2.825-.775l-2.25-5.862a4.3 4.3 0 0 0-1.02-1.594 4.2 4.2 0 0 0-1.602-.992 7.4 7.4 0 0 0-2.656-.415l-3.796-.204a7.45 7.45 0 0 0-2.996.839 6.1 6.1 0 0 0-2.812 3.136l-1.702 4.302 4.298.909.164 4.623-.648 6.378h11.854l-.082-10.11z"/><path fill="#fff" d="M93.7 71.849c0 .013-.705.247-1.588.522-.883.276-1.595.49-1.599.473-.004-.016.705-.247 1.589-.523.884-.277 1.595-.486 1.598-.472" opacity=".3"/><path fill="#041526" d="M81.295 67.729a.6.6 0 0 1-.073-.101 4.9 4.9 0 0 0-.963-1.069 5 5 0 0 0-.496-.353 5 5 0 0 0-.743-.374.5.5 0 0 1-.113-.05q.062.01.12.032.16.053.314.122.229.103.446.231.261.16.502.354.238.196.448.423a4.2 4.2 0 0 1 .503.675.6.6 0 0 1 .055.11m-.561 1.399c.013 0-.12 1.412-.296 3.152-.177 1.74-.331 3.149-.344 3.147s.118-1.412.296-3.152c.177-1.74.333-3.149.344-3.147m9.334-2.611a3 3 0 0 1-.06-.284 5 5 0 0 0-.188-.677 5 5 0 0 0-.28-.644 3 3 0 0 1-.133-.26s.02.02.05.06q.044.065.114.182a4 4 0 0 1 .472 1.332q.02.136.026.214a.3.3 0 0 1-.001.077m.238 4.93a1 1 0 0 1-.023-.139c-.012-.089-.026-.22-.042-.378a22 22 0 0 1-.088-2.524c.005-.162.01-.292.015-.378q0-.07.014-.14a1 1 0 0 1 .006.14v.38a36 36 0 0 0 .088 2.52c.01.154.018.284.026.378a1 1 0 0 1 .004.141"/><path fill="#932E82" d="M84.565 70.622a19 19 0 0 1-2.99-.057v.395h2.99z"/><path fill="#041526" d="M87.545 64.086q.009.029.012.06l.026.173c.019.153.045.378.066.662a35 35 0 0 1 .094 2.33v.035l-.033-.015c-.596-.294-1.264-.614-1.962-.965l-3.399-1.72-1.028-.527-.28-.145-.07-.04a.1.1 0 0 1-.025-.014q.014.004.026.01l.074.035.28.137 1.034.512 3.41 1.707c.694.352 1.362.673 1.961.969l-.031.02a44 44 0 0 0-.08-2.328c-.018-.284-.04-.508-.054-.662l-.02-.175z" opacity=".3"/><path fill="#fff" d="M80.4 72.252a.2.2 0 0 1-.05-.009l-.139-.033-.511-.131a121 121 0 0 0-3.382-.828l-.513-.12-.14-.034a.2.2 0 0 1-.047-.015.2.2 0 0 1 .05 0l.14.026c.123.023.3.058.518.104.436.094 1.037.226 1.698.388a52 52 0 0 1 2.189.587l.137.042a.2.2 0 0 1 .05.023" opacity=".3"/><path fill="#041526" d="M87.019 63.37c0-.014.256.122.504.493.248.372.473.946.6 1.607q.09.469.11.946c0 .145.007.283 0 .413-.006.13-.008.25-.02.36q-.016.163-.031.294c-.01.088-.026.16-.037.22a.7.7 0 0 1-.044.19.7.7 0 0 1 .007-.19l.02-.22.016-.295c.006-.105 0-.228.009-.355.008-.128-.007-.265-.011-.408a8 8 0 0 0-.115-.926 5.1 5.1 0 0 0-.56-1.586 2.2 2.2 0 0 0-.312-.4 2 2 0 0 1-.136-.143m-4.247.027q-.087.15-.198.284-.267.39-.44.832a5.7 5.7 0 0 0-.326 1.358c-.068.524-.093 1.11-.135 1.724s-.033 1.198-.034 1.73v1.418c0 .405-.01.73-.021.957q.001.176-.035.35a1.7 1.7 0 0 1-.022-.351l-.025-.955c-.01-.4-.023-.883-.03-1.418a26 26 0 0 1 .022-1.74 19 19 0 0 1 .148-1.733c.06-.475.183-.939.364-1.38q.189-.448.49-.826.105-.142.242-.25"/><path fill="#041526" d="M89.052 71.3a2 2 0 0 1-.018-.312 53 53 0 0 1-.014-.851q.002-.272-.006-.588c-.006-.21 0-.439-.012-.671a1.12 1.12 0 0 0-.239-.662.9.9 0 0 0-.654-.316c-.254 0-.5.097-.688.27a1.2 1.2 0 0 0-.348.614c-.058.225-.082.451-.117.662l-.093.58a55 55 0 0 1-.138.84 2 2 0 0 1-.064.306q0-.157.026-.312c.024-.2.06-.488.108-.844l.08-.582c.027-.21.052-.434.11-.67a1.3 1.3 0 0 1 .373-.662c.204-.19.47-.296.747-.3a.98.98 0 0 1 .729.352c.16.204.25.455.256.716.014.242 0 .466 0 .678q-.002.318-.008.588c0 .36-.01.65-.017.85q.006.158-.013.314"/><path fill="#041526" d="M88.15 66.977c-.03.331-.135.703-.362.946a1.3 1.3 0 0 1 .603.011c-.142-.284-.165-.633-.16-.954m.824 2.148c-.018 0-.028-.159-.148-.378a1.2 1.2 0 0 0-.271-.329 1 1 0 0 0-.46-.221.97.97 0 0 0-.507.05c-.133.05-.256.126-.361.222-.182.166-.241.318-.257.31-.016-.01.028-.168.21-.36q.16-.167.373-.255c.175-.073.368-.095.555-.064.186.035.36.122.5.25.116.1.21.225.276.365.114.242.099.411.09.41"/><path fill="#FFBE9D" d="M91.557 79.837c.56 0 1.053-.405 1.315-.901.262-.497.329-1.075.354-1.637a13.4 13.4 0 0 0-.534-4.415l-2.437.43.664 6.645z"/><path fill="#041526" d="m81.692 80.665 7.94-.293 1.927-9.414-8.364.47z"/><path fill="#7D98B2" d="m85.778 71.267.12-.24.633-.047s.161-.42 1.067-.464c.812-.038.841.378.841.378h.438v.202z"/><path fill="#FFBE9D" d="m90.206 77.63.602-.176a.73.73 0 0 1 .722.183c.2.199.52.527.567.625.067.143.067.39 0 .481-.068.091.147.561.12.717a1 1 0 0 1-.12.378c-.055.065 0 .289-.135.457a2 2 0 0 1-.255.272s-1.654.079-1.815 0c-.16-.078-.444-.378-.444-.378s-.147-.273.08-.3l-.94-.364a.23.23 0 0 1-.136-.284.16.16 0 0 1 .083-.094s-.423-.135-.52-.178c-.196-.087-.27-.547.135-.488.213.03.501.094.501.094s-.154-.253.062-.404c.131-.095.72.02.72.02z"/><path fill="#EB996E" d="M90.417 80.142a1.4 1.4 0 0 1-.49-.074 1.2 1.2 0 0 1-.45-.206c.007-.011.204.086.468.159.263.073.474.11.472.12m-.361-.594a6 6 0 0 1-.767-.173 6 6 0 0 1-.755-.22q.773.15 1.522.393m.197-.592a14 14 0 0 1-1.64-.388q.83.146 1.64.388m.612-.762q-.104.046-.212.07l-.234.06-.138.035a.5.5 0 0 1-.16.015 1 1 0 0 1-.154-.026l-.14-.032-.233-.056a1 1 0 0 1-.214-.066 1 1 0 0 1 .22.031l.238.047q.141.033.287.053.143-.003.28-.045l.236-.05a1 1 0 0 1 .224-.036m.105.321c.005 0 .028.017.046.062a.284.284 0 0 1-.104.34c-.04.026-.07.03-.073.024s.093-.064.136-.189a.5.5 0 0 0-.005-.237m-.033.646c.012-.005.049.062.043.154-.005.091-.048.155-.06.147-.01-.008.008-.07.012-.15s-.009-.146.005-.15m.008.701c.012-.005.037.04.025.1s-.051.095-.061.082.005-.045.014-.094c.008-.05.009-.084.022-.088"/><path fill="#EB996E" d="M91.127 78.155a.5.5 0 0 1-.16-.008l-.17-.023a.7.7 0 0 0-.202-.01.5.5 0 0 0-.18.082c-.052.035-.093.075-.14.1a.27.27 0 0 1-.153.053c0-.008.057-.024.134-.082a.8.8 0 0 1 .332-.201.6.6 0 0 1 .114 0c.039 0 .07.011.102.017l.17.032a.6.6 0 0 1 .152.04m.954 1.713a1 1 0 0 1 .042-.116.83.83 0 0 0 .03-.567c-.018-.083-.056-.166-.077-.266a.8.8 0 0 1 .02-.309.55.55 0 0 0-.053-.303 1.4 1.4 0 0 0-.172-.27q-.097-.124-.187-.234a1.1 1.1 0 0 0-.392-.31.6.6 0 0 0-.328-.05c-.079.011-.12.032-.122.028q-.001-.005.029-.018a.5.5 0 0 1 .093-.03.63.63 0 0 1 .345.038c.16.07.3.177.411.312q.098.11.195.234.105.132.178.284c.05.102.07.217.057.33a.9.9 0 0 0-.023.294c.018.095.055.18.073.264q.03.12.03.243a.9.9 0 0 1-.083.34.5.5 0 0 1-.066.106"/><path fill="#FFBE9D" d="m86.521 75.215-6.52 1.047.29-3.442-3.625-.709-.441 5.096-.077 1.169a2.3 2.3 0 0 0 .947 2.012 2.25 2.25 0 0 0 2.001.31l1.402-.462 6.832-2.459"/><path fill="#FFBE9D" d="M90.468 74.502a.19.19 0 0 0-.107-.203.2.2 0 0 0-.08-.017c-.367 0-1.359 0-1.71.105-.433.124-2.049.825-2.049.825l.685 2.553 2.48.026s.905-.42.916-.603q-.001-.171-.022-.341l.273-.148c.408-.261.146-.763.146-.763s.28-.16.295-.447a.45.45 0 0 0-.218-.422s.112-.405-.094-.514c-.205-.108-.56.03-.56.03a.15.15 0 0 0 .045-.08"/><path fill="#EB996E" d="M90.61 74.544a.3.3 0 0 1-.076.028q-.077.022-.214.046c-.187.033-.436.06-.715.095a6 6 0 0 0-.709.11c-.178.04-.28.094-.28.094a.3.3 0 0 1 .068-.045 1.2 1.2 0 0 1 .206-.08 4.3 4.3 0 0 1 .711-.125c.28-.03.534-.052.715-.076.181-.023.291-.053.294-.047m.467.513a.6.6 0 0 1-.175.09 3 3 0 0 1-.451.133c-.18.038-.344.062-.467.078a.8.8 0 0 1-.194.016c0-.017.29-.07.647-.142q.228-.047.45-.118.092-.038.19-.057m-.074.888c-.342.16-.712.245-1.088.25 0-.015.247-.046.546-.115.299-.07.542-.149.542-.135m-.149.759a1.85 1.85 0 0 1-.841.205q.42-.1.84-.206m-1.292-.449c0 .006-.025.022-.075.027a.28.28 0 0 1-.187-.052.3.3 0 0 1-.112-.162c-.012-.05-.005-.081 0-.081.006 0 .027.122.139.202a.5.5 0 0 0 .235.066m-.053.789c0 .013-.093.019-.182-.058-.089-.076-.094-.177-.078-.176s.039.076.11.14c.072.063.15.08.15.094m-.282-1.61c.005.013-.063.035-.126-.014-.064-.05-.062-.121-.048-.12.014.003.03.047.077.081.046.034.09.04.097.053"/><path fill="#EB996E" d="m86.523 75.214.02-.01.058-.028.23-.103c.202-.088.494-.216.865-.37.187-.076.389-.16.613-.244q.173-.07.355-.112.195-.035.394-.049c.271-.021.561-.03.858-.035h.343a.24.24 0 0 1 .123.027.2.2 0 0 1 .106.228.07.07 0 0 1-.028.032l-.028.018-.056.026a1 1 0 0 1-.118.042.024.024 0 0 1-.03-.026q0-.006.004-.01a.02.02 0 0 1 .014-.01q.152-.046.308-.07.163-.03.327-.012a.3.3 0 0 1 .161.07q.064.068.08.16a.8.8 0 0 1-.022.345l-.012-.03a.46.46 0 0 1 .227.338.5.5 0 0 1-.019.233.66.66 0 0 1-.28.343l.01-.033a.8.8 0 0 1 .078.437.5.5 0 0 1-.234.357l-.273.148.013-.023q.01.1.017.197-.001.05.005.095v.05a.13.13 0 0 1-.02.054.6.6 0 0 1-.14.136q-.078.057-.155.104-.3.18-.616.326h-.008l-1.805-.028-.498-.01-.131-.005a.2.2 0 0 1-.045 0 .2.2 0 0 1 .045 0h.63l1.804.01h-.009q.315-.147.61-.327.077-.047.151-.102a.5.5 0 0 0 .129-.124.1.1 0 0 0 .014-.033v-.141l-.019-.195q0-.006.003-.013a.02.02 0 0 1 .01-.01l.272-.149a.45.45 0 0 0 .212-.324.75.75 0 0 0-.074-.407.025.025 0 0 1 .01-.033.6.6 0 0 0 .262-.315.45.45 0 0 0-.065-.403.4.4 0 0 0-.12-.108.03.03 0 0 1-.012-.028.8.8 0 0 0 .02-.323.22.22 0 0 0-.066-.131.2.2 0 0 0-.134-.058 1 1 0 0 0-.312.012 2 2 0 0 0-.303.067l-.012-.046a1 1 0 0 0 .163-.063c.016-.008.032-.025.038-.024a.2.2 0 0 0-.015-.099.17.17 0 0 0-.072-.073.2.2 0 0 0-.102-.02h-.342q-.45 0-.856.03-.195.015-.39.047-.179.04-.35.108-.335.125-.614.238l-.87.356-.232.095-.061.025zm-6.495 1.04a2.6 2.6 0 0 0-.481.421 2.6 2.6 0 0 0-.321.556.5.5 0 0 1 .048-.19 1.48 1.48 0 0 1 .582-.707.5.5 0 0 1 .172-.08"/><path fill="#FFBE9D" d="M88.543 55.858a3.35 3.35 0 0 0-1.045-2.183 3.27 3.27 0 0 0-2.23-.887h-.172c-1.839.104-2.779 1.743-2.623 3.6l.316 7.445a.34.34 0 0 0 .187.29l4.128 1.96-.12-3.908s1.77-.274 1.795-2.063c.007-.863-.112-2.644-.236-4.254"/><path fill="#EB996E" d="M86.995 62.168c-.82 0-1.624-.24-2.314-.69 0 0 .542 1.288 2.306 1.135z"/><path fill="#041526" d="M87.919 56.969a.25.25 0 0 1-.244.257.24.24 0 0 1-.236-.137.3.3 0 0 1-.024-.094c0-.066.024-.13.07-.178a.25.25 0 0 1 .173-.079.24.24 0 0 1 .237.137q.021.045.024.094"/><path fill="#041526" d="M88.16 56.733c-.03.033-.222-.11-.493-.11-.272 0-.468.137-.5.103-.015-.015.016-.075.103-.139a.69.69 0 0 1 .795.006c.083.064.11.125.096.14m-2.914.319c0 .066-.025.13-.07.179a.25.25 0 0 1-.174.078.24.24 0 0 1-.178-.06.24.24 0 0 1-.082-.17c0-.067.025-.131.07-.18a.25.25 0 0 1 .174-.078.24.24 0 0 1 .178.06.24.24 0 0 1 .082.17m.242-.271c-.031.033-.223-.11-.494-.11-.27 0-.467.137-.5.103-.015-.015.017-.075.104-.138a.68.68 0 0 1 .793.005c.085.063.114.123.097.14m.984 2.038c0-.015.168-.044.441-.08.07-.007.136-.02.147-.068a.36.36 0 0 0-.046-.208l-.204-.535c-.28-.757-.488-1.387-.457-1.399.03-.011.28.597.568 1.359l.195.538a.4.4 0 0 1 .035.275.17.17 0 0 1-.114.102.5.5 0 0 1-.118.017c-.275.014-.446.015-.447-.001m-.796.189c.044 0 .044.295.296.508.253.213.566.18.569.221 0 .019-.07.059-.203.062a.73.73 0 0 1-.475-.169.65.65 0 0 1-.229-.425c-.014-.125.019-.199.042-.197m-.113-3.306c-.027.075-.298.039-.617.078-.319.038-.577.125-.62.058-.018-.032.026-.103.131-.175.138-.09.296-.145.459-.161.163-.02.328 0 .482.058.117.049.176.107.165.142m2.499.236c-.049.062-.236 0-.46-.006-.226-.007-.416.04-.46-.025-.02-.031.012-.094.094-.153a.66.66 0 0 1 .74.025c.08.064.106.128.086.16"/><path fill="#FFBE9D" d="M82.736 57.712c-.03-.014-1.215-.366-1.178.857s1.242.933 1.243.898-.065-1.755-.065-1.755"/><path fill="#EB996E" d="M82.525 59.016c-.005 0-.02.015-.056.033a.2.2 0 0 1-.157.008c-.129-.044-.243-.246-.255-.466a.7.7 0 0 1 .05-.306.25.25 0 0 1 .154-.169.11.11 0 0 1 .126.054c.017.034.01.059.016.06.005.003.026-.02.015-.07a.14.14 0 0 0-.05-.076.16.16 0 0 0-.117-.027.3.3 0 0 0-.215.196.7.7 0 0 0-.063.343c.015.247.147.472.322.519a.22.22 0 0 0 .187-.039c.041-.027.047-.059.043-.06"/><path fill="#041526" d="m83.526 54.078 5.039.113a2.3 2.3 0 0 0-.74-.866 3.9 3.9 0 0 0-2.282-.831c-.822-.015-2.495.998-3.09 1.57-.477.46-.473.856-.473.856-.076.662.29 1.413.435 2.062a30 30 0 0 1 .22 1.348c.28 0 .38-.225.338-.502l-.051-1.09s.944-.68.496-1.922c-.07-.099-.222-.553.108-.738"/><path fill="#EB996E" d="M84.586 57.944q-.006 0-.011-.002a.03.03 0 0 1-.018-.016l-.002-.012a.03.03 0 0 1 .003-.024.03.03 0 0 1 .02-.015.03.03 0 0 1 .023.007.03.03 0 0 1 .013.02v.015a.03.03 0 0 1-.014.023zm.52-.118a.04.04 0 0 1-.037-.031.036.036 0 0 1 .022-.044q.015 0 .025.009a.04.04 0 0 1 .011.023.034.034 0 0 1-.021.043m.35-.006c-.017 0-.033-.019-.036-.046-.004-.027.007-.05.024-.053s.032.018.035.046c.004.027-.007.052-.023.052m-.615.455c-.015 0-.03-.008-.03-.019s.014-.02.03-.02.03.01.03.02-.013.019-.03.019m.476-.11a.034.034 0 0 1-.029-.056.03.03 0 0 1 .023-.012.03.03 0 0 1 .023.009l.007.01.003.012a.03.03 0 0 1-.006.024.03.03 0 0 1-.021.013m2.476-.294h-.012a.03.03 0 0 1-.023-.028.03.03 0 0 1 .003-.024.03.03 0 0 1 .02-.015.03.03 0 0 1 .023.006.03.03 0 0 1 .013.021.03.03 0 0 1-.004.025l-.008.01zm.356-.032a.04.04 0 0 1-.023 0 .04.04 0 0 1-.021-.058.038.038 0 0 1 .07.017.035.035 0 0 1-.026.04m-.668.041a.03.03 0 0 1-.034-.02.03.03 0 0 1 .023-.035.03.03 0 0 1 .035.023.03.03 0 0 1-.024.032m.262.359a.035.035 0 0 1-.053-.019.036.036 0 0 1 .032-.047q.01 0 .02.005.01.006.014.016a.03.03 0 0 1 .003.025.03.03 0 0 1-.016.02m.302-.061a.03.03 0 0 1-.017-.012.03.03 0 0 1-.005-.02.03.03 0 0 1 .057.016.03.03 0 0 1-.035.016"/><path fill="#041526" d="M82.423 54.133a1.52 1.52 0 0 1 .283-1.312 1.5 1.5 0 0 1 1.205-.562c.236.01.468.077.703.051.436-.048.773-.402 1.177-.574.32-.126.672-.14 1-.04s.614.308.812.59c.153.232.253.519.489.662.203.126.459.116.687.19.461.14.777.636.753 1.123-.02.243-.105.477-.247.675a1.3 1.3 0 0 1-.558.448 1.6 1.6 0 0 1-1.392-.095c-.38-.215-.72-.58-1.156-.567-.45.013-.84.442-1.286.353-.231-.046-.41-.227-.58-.393s-.364-.336-.6-.35c-.237-.014-.36.314-.274.537z"/><path fill="#7D98B2" d="m88.47 53.543-.009.018-.029.049a.9.9 0 0 1-.445.342.85.85 0 0 1-.457.027.9.9 0 0 1-.482-.277c-.137-.153-.22-.358-.347-.537a.7.7 0 0 0-.244-.224.7.7 0 0 0-.335-.074.75.75 0 0 0-.343.094.65.65 0 0 0-.252.263c-.06.113-.105.236-.177.344a.42.42 0 0 1-.324.199.6.6 0 0 1-.351-.102 1.3 1.3 0 0 1-.267-.224c-.156-.16-.31-.318-.5-.36a.63.63 0 0 0-.507.12.9.9 0 0 0-.28.347 1.5 1.5 0 0 0-.105.328 3 3 0 0 0-.032.217l-.012.076v-.077q.006-.11.026-.22a1.4 1.4 0 0 1 .093-.335.9.9 0 0 1 .28-.365.66.66 0 0 1 .536-.131c.206.044.366.21.521.367q.117.125.26.216c.097.063.21.096.325.095a.37.37 0 0 0 .286-.178c.068-.102.112-.224.175-.34a.7.7 0 0 1 .272-.284.8.8 0 0 1 .365-.1.76.76 0 0 1 .357.082.75.75 0 0 1 .259.238c.132.19.21.39.34.537.123.136.283.23.46.27a.8.8 0 0 0 .442-.02.9.9 0 0 0 .296-.163q.116-.096.204-.218m.914.022q.02.045.021.095a.8.8 0 0 1-.025.273.95.95 0 0 1-.187.36 1.1 1.1 0 0 1-.398.293c-.279.115-.583.15-.88.1a2 2 0 0 1-.263-.052.3.3 0 0 1-.093-.033c0-.007.137.027.361.05.29.039.584 0 .855-.11a1.1 1.1 0 0 0 .384-.278 1 1 0 0 0 .187-.34q.048-.176.038-.358"/><path fill="#FAFCFF" d="M80.784 73.258c.02.194.093.377.211.53.109.143.328.283.505.271a.76.76 0 0 0 .68-.345c.215-.346.267-1.067.093-1.494-.119-.293-.386-.567-.7-.573-.41-.01-.668.29-.756.595"/><path fill="#041526" d="M80.817 72.242a.6.6 0 0 1 .077-.204.8.8 0 0 1 .154-.205.7.7 0 0 1 .486-.204.6.6 0 0 1 .214.028.85.85 0 0 1 .382.277c.11.138.187.3.224.473q.06.277.042.56c-.02.296-.077.591-.24.816a.7.7 0 0 1-.31.236.8.8 0 0 1-.35.06.5.5 0 0 1-.252-.062.84.84 0 0 1-.394-.445 1 1 0 0 1-.07-.292v-.022q.027.16.093.305.076.167.207.296.086.075.187.125a.5.5 0 0 0 .234.055.74.74 0 0 0 .621-.283c.15-.211.209-.501.227-.79.02-.379-.042-.751-.252-1.003a.8.8 0 0 0-.36-.266.7.7 0 0 0-.668.158.8.8 0 0 0-.159.192 2 2 0 0 0-.093.195"/><path fill="#EBF1F7" d="M80.565 73.278c.02.193.093.376.212.529.108.143.328.284.504.271a.76.76 0 0 0 .68-.345c.214-.347.268-1.067.093-1.493-.119-.294-.385-.568-.698-.574a.77.77 0 0 0-.48.164.8.8 0 0 0-.277.43"/><path fill="#041526" d="M80.6 72.26a.6.6 0 0 1 .077-.203.8.8 0 0 1 .154-.205.71.71 0 0 1 .7-.176c.15.053.283.15.382.277.11.138.187.3.224.473q.06.278.041.56c-.018.296-.075.59-.238.816a.7.7 0 0 1-.31.237.8.8 0 0 1-.35.06.5.5 0 0 1-.253-.064.8.8 0 0 1-.187-.133.9.9 0 0 1-.206-.311.9.9 0 0 1-.071-.292v-.022q.028.158.093.304.076.168.208.297.085.075.186.125a.5.5 0 0 0 .234.055.74.74 0 0 0 .621-.283c.15-.212.209-.501.227-.79.02-.379-.041-.751-.253-1.003a.8.8 0 0 0-.359-.266.6.6 0 0 0-.2-.03.7.7 0 0 0-.467.187.8.8 0 0 0-.158.194 2 2 0 0 0-.095.193"/><path fill="#FAFCFF" d="M80.961 72.155a.476.476 0 0 0-.502.292.85.85 0 0 0 0 .617.8.8 0 0 0 .156.278c.073.08.173.13.28.137a.48.48 0 0 0 .39-.23.9.9 0 0 0 .131-.726c-.043-.164-.162-.332-.329-.336"/><path fill="#041526" d="M81.083 72.19h.036q.054.005.102.034a.5.5 0 0 1 .214.325.9.9 0 0 1-.058.579.76.76 0 0 1-.21.278.4.4 0 0 1-.36.088.5.5 0 0 1-.289-.239 1.1 1.1 0 0 1-.12-.327.73.73 0 0 1 .094-.567.5.5 0 0 1 .326-.21.4.4 0 0 1 .107 0q.035.008.035.01a1 1 0 0 0-.139.01.5.5 0 0 0-.3.21.7.7 0 0 0-.078.542q.033.165.117.31c.056.103.15.18.26.216a.35.35 0 0 0 .318-.077.7.7 0 0 0 .198-.26.9.9 0 0 0 .065-.551.5.5 0 0 0-.186-.317.4.4 0 0 0-.132-.055"/><path fill="#041526" d="M81.431 73.709c-.007 0-.017-.03-.05-.069a.34.34 0 0 0-.158-.103 1 1 0 0 0-.197-.03c-.052 0-.085-.01-.086-.016 0-.007.032-.014.085-.02a.5.5 0 0 1 .212.02c.071.02.133.066.172.13.03.049.028.087.022.088m.075-1.683s-.014.033-.058.068a.46.46 0 0 1-.411.076c-.054-.019-.082-.04-.079-.045q.14.022.28.008.14-.037.268-.107"/><mask id="woman-phone-notification_svg__a" width="11" height="13" x="80" y="51" maskUnits="userSpaceOnUse" style="mask-type:alpha"><path fill="#C4C4C4" d="M80.548 51.63h9.728v11.496h-9.728z"/></mask><g mask="url(#woman-phone-notification_svg__a)"><path fill="#FFBE9D" d="M88.543 55.858a3.35 3.35 0 0 0-1.045-2.183 3.27 3.27 0 0 0-2.23-.887h-.172c-1.839.104-2.779 1.743-2.623 3.6l.316 7.445a.34.34 0 0 0 .187.29l4.128 1.96-.12-3.908s1.77-.274 1.795-2.063c.007-.863-.112-2.644-.236-4.254"/><path fill="#EB996E" d="M86.995 62.168c-.82 0-1.624-.24-2.314-.69 0 0 .542 1.288 2.306 1.135z"/><path fill="#041526" d="M87.919 56.969a.25.25 0 0 1-.244.257.24.24 0 0 1-.236-.137.3.3 0 0 1-.024-.094c0-.066.024-.13.07-.178a.25.25 0 0 1 .173-.079.24.24 0 0 1 .237.137q.021.045.024.094"/><path fill="#041526" d="M88.163 56.733c-.032.033-.223-.11-.495-.11-.271 0-.467.137-.5.103-.014-.015.017-.075.104-.139a.69.69 0 0 1 .794.006c.084.064.112.125.097.14m-2.916.319a.27.27 0 0 1-.07.18.25.25 0 0 1-.174.077.24.24 0 0 1-.236-.137.3.3 0 0 1-.024-.093.25.25 0 0 1 .244-.257.24.24 0 0 1 .236.136q.021.045.024.094m.243-.272c-.03.033-.222-.11-.493-.11-.27 0-.467.137-.5.103-.015-.015.017-.075.104-.138a.68.68 0 0 1 .793.005c.085.063.114.124.096.14m.983 2.038c0-.015.168-.044.441-.08.07-.007.136-.02.147-.068a.36.36 0 0 0-.046-.208l-.204-.535c-.28-.757-.488-1.387-.457-1.399.03-.011.28.597.568 1.359l.195.538a.4.4 0 0 1 .035.275.17.17 0 0 1-.114.102.5.5 0 0 1-.118.017c-.275.014-.446.015-.447-.001m-.796.189c.044 0 .044.295.296.508.253.213.566.18.569.221 0 .019-.07.059-.203.062a.73.73 0 0 1-.475-.169.65.65 0 0 1-.229-.425c-.014-.125.019-.199.042-.197m-.113-3.306c-.027.075-.298.04-.617.078-.319.039-.577.125-.62.058-.018-.032.026-.103.131-.175a1 1 0 0 1 .459-.161c.163-.02.328 0 .482.059.117.048.176.106.165.141m2.501.236c-.049.062-.236 0-.46-.006-.226-.007-.416.04-.46-.025-.02-.031.012-.094.094-.153a.66.66 0 0 1 .74.025c.08.064.106.128.086.16"/><path fill="#FFBE9D" d="M82.738 57.712c-.03-.013-1.215-.366-1.178.857.038 1.224 1.242.933 1.243.898s-.065-1.755-.065-1.755"/><path fill="#EB996E" d="M82.525 59.016c-.005 0-.02.015-.056.033a.2.2 0 0 1-.157.008c-.129-.044-.243-.245-.255-.466a.7.7 0 0 1 .05-.306.25.25 0 0 1 .154-.168.11.11 0 0 1 .126.054c.017.034.01.058.016.06.005.002.026-.02.015-.07a.14.14 0 0 0-.05-.077.16.16 0 0 0-.117-.027.3.3 0 0 0-.215.196.7.7 0 0 0-.063.343c.015.247.147.473.322.519a.22.22 0 0 0 .187-.039c.041-.027.047-.058.043-.06"/><path fill="#041526" d="m83.526 54.078 5.039.113a2.3 2.3 0 0 0-.74-.866 3.9 3.9 0 0 0-2.282-.831c-.822-.015-2.495.998-3.09 1.57-.477.46-.473.856-.473.856-.076.662.29 1.413.435 2.062a30 30 0 0 1 .22 1.348c.28 0 .38-.225.338-.502l-.051-1.09s.944-.68.496-1.922c-.07-.099-.222-.553.108-.738"/><path fill="#EB996E" d="M84.586 57.944q-.006 0-.011-.002a.03.03 0 0 1-.018-.016l-.002-.012a.03.03 0 0 1 .003-.024.03.03 0 0 1 .02-.015.03.03 0 0 1 .023.007.03.03 0 0 1 .013.02v.015a.03.03 0 0 1-.014.023zm.52-.118a.04.04 0 0 1-.037-.03.036.036 0 0 1 .022-.044.035.035 0 0 1 .037.032.034.034 0 0 1-.022.042m.35-.006c-.017 0-.033-.018-.036-.046-.004-.027.007-.05.024-.053s.032.018.035.046c.004.027-.007.053-.023.053m-.615.454c-.015 0-.03-.008-.03-.019s.014-.02.03-.02.03.01.03.02-.013.02-.03.02m.476-.111a.034.034 0 0 1-.029-.056.03.03 0 0 1 .023-.012.03.03 0 0 1 .023.009l.007.01.003.012a.033.033 0 0 1-.027.037m2.478-.294h-.012a.03.03 0 0 1-.023-.028.033.033 0 0 1 .022-.04.033.033 0 0 1 .037.028.03.03 0 0 1-.004.025l-.008.01zm.354-.032a.04.04 0 0 1-.023 0 .04.04 0 0 1-.021-.058.038.038 0 0 1 .07.017.035.035 0 0 1-.026.04m-.666.041a.03.03 0 0 1-.034-.02.03.03 0 0 1 .023-.035.03.03 0 0 1 .023.004.03.03 0 0 1 .012.02.03.03 0 0 1-.005.02.03.03 0 0 1-.019.011m.26.359a.035.035 0 0 1-.053-.019.036.036 0 0 1 .032-.047q.01 0 .02.005.01.006.014.016a.03.03 0 0 1 .003.025.03.03 0 0 1-.016.02m.304-.061a.03.03 0 0 1-.017-.012.03.03 0 0 1-.005-.02.03.03 0 0 1 .035-.015.03.03 0 0 1 .023.031.03.03 0 0 1-.036.016"/><path fill="#041526" d="M82.423 54.133a1.52 1.52 0 0 1 .283-1.312 1.5 1.5 0 0 1 1.205-.562c.236.01.468.077.703.051.436-.048.773-.402 1.177-.574.32-.126.672-.14 1-.04s.614.308.812.59c.153.232.253.519.489.662.203.126.459.116.687.19.461.14.777.636.753 1.123-.02.243-.105.477-.247.675a1.3 1.3 0 0 1-.558.448 1.6 1.6 0 0 1-1.392-.095c-.38-.215-.72-.58-1.156-.567-.45.013-.84.442-1.286.353-.231-.046-.41-.227-.58-.393s-.364-.336-.6-.35c-.237-.014-.36.314-.274.537z"/></g><path fill="#263238" d="m92.213 42.485-15.407-.014a3.356 3.356 0 0 0-3.359 3.36l-.007 38.627a3.357 3.357 0 0 0 3.354 3.354l15.408.009a3.354 3.354 0 0 0 3.357-3.354l.008-38.628a3.355 3.355 0 0 0-3.354-3.354m2.325 41.42a2.35 2.35 0 0 1-2.353 2.346l-15.377-.009a2.35 2.35 0 0 1-2.35-2.352l.008-37.702a2.35 2.35 0 0 1 2.352-2.35h3.669a.74.74 0 0 1 .725.755v.54a.743.743 0 0 0 .725.755h5.828a.74.74 0 0 0 .727-.755v-.54a.74.74 0 0 1 .725-.756h2.987a2.35 2.35 0 0 1 2.342 2.36z"/><path fill="#263238" d="M88.973 79.683h-7.995v3.559h7.995z"/><path fill="#932E82" d="M94.526 79.683h-6.877c.116 1.303-1.291 2.854-2.87 2.854s-3.06-1.644-2.88-2.854h-7.446v4.823c0 .486.248.953.687 1.298.44.344 1.037.538 1.66.539l15.376.007c.309 0 .615-.047.9-.14.285-.092.545-.227.763-.398.219-.17.392-.374.51-.597s.179-.462.179-.703z"/><path fill="#EBF1F7" d="M77.665 49.592a1.589 1.589 0 1 0 0-3.177 1.589 1.589 0 0 0 0 3.177"/><path fill="#263238" d="M77.58 48.467a.03.03 0 0 1-.02-.008l-.414-.432a.03.03 0 0 1 0-.038l.414-.431a.028.028 0 0 1 .045.008.03.03 0 0 1 0 .022l-.006.008-.396.417.396.418a.03.03 0 0 1 .008.02.03.03 0 0 1-.008.019.03.03 0 0 1-.02-.003"/><path fill="#263238" d="M78.3 48.03h-1.134a.027.027 0 0 1-.027-.027q0-.011.008-.019a.03.03 0 0 1 .019-.008H78.3q.011 0 .019.008a.03.03 0 0 1 .008.02.03.03 0 0 1-.008.018.03.03 0 0 1-.02.008"/><path fill="#932E82" d="M84.774 82.072a2.512 2.512 0 1 0 0-5.025 2.512 2.512 0 0 0 0 5.025"/><path fill="#fff" d="M84.55 78.865a.43.43 0 0 0-.647.131.26.26 0 0 0 .06.324c.232.227.716.681.927.879a.52.52 0 0 0 .431.139.45.45 0 0 0 .305-.19c.238-.323-.332-.58-.332-.58l-.25.261-.58-.56.255-.28z"/><path fill="#455A64" d="M88.067 43.198h-6.765a.262.262 0 1 1 0-.523h6.765a.261.261 0 0 1 0 .523"/><path fill="#94675A" d="M95.07 62.265a2.771 2.771 0 0 1 2.558 4.48 2.356 2.356 0 0 1 .463 4.084c1.404.653 1.84 2.688.967 3.965s-2.74 1.661-4.144 1.012a1.96 1.96 0 0 1-1.173-1.24 1.79 1.79 0 0 1 .62-1.654 5.3 5.3 0 0 1 1.613-.896 2.673 2.673 0 0 1-.478-5.085 2.32 2.32 0 0 1-1.56-1.975c-.068-.888.335-2.292 1.12-2.692m-19.482-2.038a10.5 10.5 0 0 0-3.923 3.394l.313 4.185c1.318-.818 2.58-1.807 3.36-3.144.78-1.336 1.008-3.083.25-4.435"/><path fill="#FF96ED" d="M89.41 35.527c-4.766-.932-8.361-5.128-8.361-10.166C81.049 19.64 85.688 15 91.41 15s10.361 4.639 10.361 10.361c0 5.038-3.595 9.233-8.359 10.166l-2.002 2.774z"/><path fill="#fff" fill-rule="evenodd" d="M92.584 29.117c.253 0 .458.205.458.458v.223a1.858 1.858 0 0 1-3.716 0v-.222a.458.458 0 0 1 .916 0v.223a.942.942 0 0 0 1.884 0v-.224c0-.253.205-.458.458-.458m-2.977-7.794a1.577 1.577 0 1 1 3.155 0v.561a.458.458 0 0 1-.916 0v-.56a.661.661 0 1 0-1.323 0v.56a.458.458 0 0 1-.916 0z" clip-rule="evenodd"/><path fill="#fff" fill-rule="evenodd" d="M90.63 22.285a2.31 2.31 0 0 0-2.309 2.31v1.707c0 .446-.177.873-.492 1.188l-.391.392a.76.76 0 0 0-.224.54c0 .384.312.696.696.696h6.549a.696.696 0 0 0 .696-.697.76.76 0 0 0-.224-.54l-.391-.39a1.68 1.68 0 0 1-.492-1.189v-1.708a2.31 2.31 0 0 0-2.31-2.31zm-3.225 2.31a3.226 3.226 0 0 1 3.226-3.226h1.107a3.226 3.226 0 0 1 3.226 3.225v1.708c0 .203.08.397.224.54l.391.392c.315.315.492.742.492 1.187 0 .891-.722 1.613-1.612 1.613H87.91c-.89 0-1.612-.722-1.612-1.613 0-.445.177-.872.492-1.187l.391-.392a.76.76 0 0 0 .224-.54z" clip-rule="evenodd"/></svg>