<svg width="68" height="16" viewBox="0 0 68 16" fill="none" xmlns="http://www.w3.org/2000/svg">
<path d="M64.6836 9.64751C65.1288 9.21411 65.3518 8.66208 65.3518 8.0045C65.3518 7.34692 65.1288 6.79489 64.6836 6.36149C64.2533 5.92902 63.7021 5.70484 63.0636 5.70484C62.4251 5.70484 61.9047 5.92902 61.4734 6.36149C61.0571 6.79489 60.8489 7.34785 60.8489 8.0045C60.8489 8.66114 61.0571 9.21411 61.4734 9.64751C61.9047 10.0809 62.4242 10.3051 63.0636 10.3051C63.7031 10.3051 64.2533 10.0809 64.6836 9.64751ZM65.2189 5.33215V4.24117H67.0024V9.49806C67.0024 10.1407 67.1502 10.3798 67.5517 10.3798H67.9142C67.9188 10.3798 67.9235 10.3836 67.9235 10.3882V11.7977C67.7301 11.8724 67.4337 11.9173 67.047 11.9173C66.6167 11.9173 66.2747 11.8426 66.008 11.6782C65.6818 11.454 65.4736 11.1551 65.3983 10.7665C64.8778 11.5586 64.0163 11.9472 62.8285 11.9472C61.7736 11.9472 60.8814 11.5735 60.1528 10.8123C59.439 10.0501 59.083 9.12444 59.083 8.0045C59.083 6.88456 59.439 5.95891 60.1528 5.21166C60.8814 4.44946 61.7727 4.07677 62.8285 4.07677C64.0311 4.07677 64.9382 4.61479 65.2208 5.33215" fill="#102740"/>
<path d="M51.3123 11.7688L54.1507 7.79623L51.5651 4.2412H53.4974L55.1322 6.49695L56.7512 4.2412H58.6983L56.1127 7.78129L58.9511 11.7688H57.0346L55.1322 9.11045L53.2306 11.7688H51.3123Z" fill="#102740"/>
<path d="M25.7354 5.30232L24.6359 6.45215C24.1155 5.89918 23.477 5.63111 22.7335 5.63111C22.0792 5.63111 21.5299 5.85528 21.0847 6.3027C20.6526 6.75105 20.4304 7.31802 20.4304 7.99055C20.4304 8.66307 20.6535 9.23004 21.0847 9.67746C21.5299 10.1258 22.0792 10.35 22.7335 10.35C23.4761 10.35 24.1155 10.081 24.6359 9.52894L25.7354 10.6778C25.7354 10.6778 25.7354 10.6788 25.7354 10.6797C24.9324 11.5456 23.938 11.978 22.7344 11.978C21.5308 11.978 20.6237 11.6044 19.8365 10.8432C19.0484 10.081 18.6627 9.12543 18.6627 7.99055C18.6627 6.85566 19.0484 5.91506 19.8365 5.15287C20.6237 4.39068 21.5894 4.00304 22.7344 4.00304C23.938 4.00304 24.9324 4.43551 25.7354 5.30139C25.7354 5.30139 25.7354 5.30232 25.7354 5.30325" fill="#102740"/>
<path d="M32.0118 9.6933C32.4579 9.23 32.6809 8.67797 32.6809 8.00545C32.6809 7.33293 32.4579 6.7809 32.0118 6.33255C31.5666 5.87019 31.0154 5.64508 30.363 5.64508C29.7106 5.64508 29.1446 5.86926 28.6994 6.33255C28.2672 6.7809 28.0451 7.33293 28.0451 8.00545C28.0451 8.67797 28.2682 9.23 28.6994 9.6933C29.1446 10.1416 29.6938 10.3649 30.363 10.3649C31.0322 10.3649 31.5666 10.1407 32.0118 9.6933ZM26.2765 8.00545C26.2765 6.88551 26.677 5.92997 27.4642 5.16778C28.2524 4.40652 29.218 4.01795 30.3621 4.01795C31.5062 4.01795 32.4718 4.40652 33.2599 5.16778C34.0471 5.92997 34.4477 6.88551 34.4477 8.00545C34.4477 9.12539 34.0471 10.0809 33.2599 10.8431C32.4718 11.6053 31.5071 11.993 30.3621 11.993C29.2171 11.993 28.2514 11.6053 27.4642 10.8431C26.6761 10.0809 26.2765 9.12539 26.2765 8.00545Z" fill="#102740"/>
<path d="M35.5275 11.7688V4.24121H37.2953V5.31724C37.6521 4.58494 38.4988 4.09269 39.5686 4.09269C41.3521 4.09269 42.4069 5.24252 42.4069 7.10877V11.7688H40.6234V7.36284C40.6234 6.33257 40.0295 5.68993 39.0332 5.68993C38.0369 5.68993 37.2943 6.40636 37.2943 7.43756V11.7688H35.5266H35.5275Z" fill="#102740"/>
<path d="M49.3996 7.19846C49.3996 6.75011 49.2063 6.36154 48.8346 6.04863C48.4628 5.71984 48.0325 5.55545 47.512 5.55545C46.9628 5.55545 46.4711 5.71984 46.0705 6.03369C45.669 6.34753 45.446 6.73517 45.4014 7.19846H49.3987H49.3996ZM43.5891 8.00549C43.5891 6.81083 43.9608 5.85528 44.6885 5.12391C45.4311 4.39161 46.367 4.03386 47.5111 4.03386C48.5966 4.03386 49.487 4.39161 50.171 5.12391C50.8709 5.85528 51.212 6.75198 51.212 7.82708C51.212 8.05126 51.1971 8.26049 51.1813 8.45384H45.3568C45.4162 9.6485 46.2936 10.4247 47.6161 10.4247C48.3894 10.4247 49.0576 10.1417 49.6366 9.55883L50.7054 10.6031C50.7054 10.6031 50.7054 10.604 50.7054 10.605C49.8588 11.5007 48.8197 11.9482 47.5566 11.9482C46.3828 11.9482 45.4162 11.5895 44.6885 10.888C43.9599 10.1856 43.5891 9.24499 43.5891 8.06527V8.00549Z" fill="#102740"/>
<path d="M8.23038 1.37463L8.62281 0.707943C8.76879 0.459677 9.09298 0.374133 9.34701 0.517327L11.1461 1.53642C11.3992 1.67962 11.4864 1.99762 11.3405 2.24682L8.6086 6.88761C8.37541 7.28372 8.66737 7.77839 9.13279 7.77839H14.5956C14.8885 7.77839 15.1254 8.01085 15.1254 8.29816L15.1254 10.3364C15.1254 10.6237 14.8885 10.8561 14.5956 10.8561L13.8107 10.8561C8.85031 10.8561 5.74971 5.58863 8.22943 1.37463" fill="#8149F2"/>
<path d="M7.36373 14.6204L6.97129 15.2871C6.82532 15.5354 6.50113 15.6209 6.24709 15.4777L4.44797 14.4586C4.19488 14.3154 4.10767 13.9974 4.25365 13.7483L6.98551 9.10746C7.2187 8.71135 6.92674 8.21668 6.46132 8.21668H0.997592C0.704689 8.21668 0.467713 7.98422 0.467713 7.6969L0.467712 5.65871C0.467712 5.37139 0.704689 5.13893 0.997592 5.13893L1.78246 5.13893C6.74285 5.13893 9.84345 10.4064 7.36373 14.6204Z" fill="#EF4465"/>
</svg>
